<?xml version="1.0" encoding="UTF-8" standalone="no"?>
<!DOCTYPE svg PUBLIC "-//W3C//DTD SVG 1.1//EN"
 "http://www.w3.org/Graphics/SVG/1.1/DTD/svg11.dtd">
<!-- Generated by graphviz version 2.43.0 (0)
 -->
<!-- Title: save_convert_summary Pages: 1 -->
<svg width="606pt" height="39pt"
 viewBox="0.00 0.00 606.00 39.00" xmlns="http://www.w3.org/2000/svg" xmlns:xlink="http://www.w3.org/1999/xlink">
<g id="graph0" class="graph" transform="scale(1 1) rotate(0) translate(4 35)">
<title>save_convert_summary</title>
<!-- Node1 -->
<g id="node1" class="node">
<title>Node1</title>
<g id="a_node1"><a xlink:title=" ">
<polygon fill="#bfbfbf" stroke="black" points="0,-6 0,-25 134,-25 134,-6 0,-6"/>
<text text-anchor="middle" x="67" y="-13" font-family="Helvetica,sans-Serif" font-size="10.00">save_convert_summary</text>
</a>
</g>
</g>
<!-- Node2 -->
<g id="node2" class="node">
<title>Node2</title>
<g id="a_node2"><a xlink:href="../../d7/dd3/group__cflite-eazyaiutils-graphgen.html#ga8b666948a6c972f12d7ed9f6c55e1c4f" target="_top" xlink:title=" ">
<polygon fill="none" stroke="black" points="170,-0.5 170,-30.5 366,-30.5 366,-0.5 170,-0.5"/>
<text text-anchor="start" x="178" y="-18.5" font-family="Helvetica,sans-Serif" font-size="10.00">cflite.eazyaiutils.graph.graphgen.get</text>
<text text-anchor="middle" x="268" y="-7.5" font-family="Helvetica,sans-Serif" font-size="10.00">_model_density</text>
</a>
</g>
</g>
<!-- Node1&#45;&gt;Node2 -->
<g id="edge1" class="edge">
<title>Node1&#45;&gt;Node2</title>
<path fill="none" stroke="midnightblue" d="M134.26,-15.5C142.47,-15.5 151.02,-15.5 159.65,-15.5"/>
<polygon fill="midnightblue" stroke="midnightblue" points="159.8,-19 169.8,-15.5 159.8,-12 159.8,-19"/>
</g>
<!-- Node3 -->
<g id="node3" class="node">
<title>Node3</title>
<g id="a_node3"><a xlink:href="../../d7/dd3/group__cflite-eazyaiutils-graphgen.html#ga74b435d58530e06e1ed49a8f37d61c7c" target="_top" xlink:title=" ">
<polygon fill="none" stroke="black" points="402,-0.5 402,-30.5 598,-30.5 598,-0.5 402,-0.5"/>
<text text-anchor="start" x="410" y="-18.5" font-family="Helvetica,sans-Serif" font-size="10.00">cflite.eazyaiutils.graph.graphgen.get</text>
<text text-anchor="middle" x="500" y="-7.5" font-family="Helvetica,sans-Serif" font-size="10.00">_model_ports</text>
</a>
</g>
</g>
<!-- Node2&#45;&gt;Node3 -->
<g id="edge2" class="edge">
<title>Node2&#45;&gt;Node3</title>
<path fill="none" stroke="midnightblue" d="M366.21,-15.5C374.57,-15.5 383.07,-15.5 391.51,-15.5"/>
<polygon fill="midnightblue" stroke="midnightblue" points="391.77,-19 401.77,-15.5 391.77,-12 391.77,-19"/>
</g>
</g>
</svg>
