<?xml version="1.0" encoding="UTF-8" standalone="no"?>
<!DOCTYPE svg PUBLIC "-//W3C//DTD SVG 1.1//EN"
 "http://www.w3.org/Graphics/SVG/1.1/DTD/svg11.dtd">
<!-- Generated by graphviz version 2.43.0 (0)
 -->
<!-- Title: generate_commands Pages: 1 -->
<!--zoomable 470 -->
<svg id="main" version="1.1" xmlns="http://www.w3.org/2000/svg" xmlns:xlink="http://www.w3.org/1999/xlink" xml:space="preserve" onload="init(evt)">
<style type="text/css"><![CDATA[
.edge:hover path { stroke: red; }
.edge:hover polygon { stroke: red; fill: red; }
]]></style>
<script type="text/javascript"><![CDATA[
var edges = document.getElementsByTagName('g');
if (edges && edges.length) {
  for (var i=0;i<edges.length;i++) {
    if (edges[i].id.substr(0,4)=='edge') {
      edges[i].setAttribute('class','edge');
    }
  }
}
]]></script>
        <defs>
                <circle id="rim" cx="0" cy="0" r="7"/>
                <circle id="rim2" cx="0" cy="0" r="3.5"/>
                <g id="zoomPlus">
                        <use xlink:href="#rim" fill="#404040">
                                <set attributeName="fill" to="#808080" begin="zoomplus.mouseover" end="zoomplus.mouseout"/>
                        </use>
                        <path d="M-4,0h8M0,-4v8" fill="none" stroke="white" stroke-width="1.5" pointer-events="none"/>
                </g>
                <g id="zoomMin">
                        <use xlink:href="#rim" fill="#404040">
                                <set attributeName="fill" to="#808080" begin="zoomminus.mouseover" end="zoomminus.mouseout"/>
                        </use>
                        <path d="M-4,0h8" fill="none" stroke="white" stroke-width="1.5" pointer-events="none"/>
                </g>
                <g id="dirArrow">
                        <path fill="none" stroke="white" stroke-width="1.5" d="M0,-3.0v7 M-2.5,-0.5L0,-3.0L2.5,-0.5"/>
                </g>
               <g id="resetDef">
                       <use xlink:href="#rim2" fill="#404040">
                               <set attributeName="fill" to="#808080" begin="reset.mouseover" end="reset.mouseout"/>
                       </use>
               </g>
        </defs>

<script type="text/javascript">
var viewWidth = 336;
var viewHeight = 470;
var sectionId = 'dynsection-1';
</script>
<script xlink:href="../../svgpan.js"/>
<svg id="graph" class="graph">
<g id="viewport">
<title>generate_commands</title>
<!-- Node1 -->
<g id="node1" class="node">
<title>Node1</title>
<g id="a_node1"><a xlink:title=" ">
<polygon fill="#bfbfbf" stroke="black" points="209,-226 209,-245 328,-245 328,-226 209,-226"/>
<text text-anchor="middle" x="268.5" y="-233" font-family="Helvetica,sans-Serif" font-size="10.00">generate_commands</text>
</a>
</g>
</g>
<!-- Node2 -->
<g id="node2" class="node">
<title>Node2</title>
<g id="a_node2"><a xlink:href="../../d5/de0/classcflite_1_1eazyaiinf_1_1dummymode_1_1DummyMode.html#ad22709b2e67308af35f55680d5a026e0" target="_top" xlink:title=" ">
<polygon fill="none" stroke="black" points="6.5,-431.5 6.5,-461.5 166.5,-461.5 166.5,-431.5 6.5,-431.5"/>
<text text-anchor="start" x="14.5" y="-449.5" font-family="Helvetica,sans-Serif" font-size="10.00">cflite.eazyaiinf.dummymode.</text>
<text text-anchor="middle" x="86.5" y="-438.5" font-family="Helvetica,sans-Serif" font-size="10.00">DummyMode.run</text>
</a>
</g>
</g>
<!-- Node1&#45;&gt;Node2 -->
<g id="edge1" class="edge">
<title>Node1&#45;&gt;Node2</title>
<path fill="none" stroke="midnightblue" d="M263.13,-255.29C253.63,-293.52 227.46,-377.71 173,-422.5 168.83,-425.93 164.21,-428.87 159.32,-431.39"/>
<polygon fill="midnightblue" stroke="midnightblue" points="266.57,-255.93 265.46,-245.39 259.76,-254.32 266.57,-255.93"/>
</g>
<!-- Node3 -->
<g id="node3" class="node">
<title>Node3</title>
<g id="a_node3"><a xlink:href="../../dd/d96/classcflite_1_1eazyaiinf_1_1livemode_1_1LiveMode.html#ad22709b2e67308af35f55680d5a026e0" target="_top" xlink:title=" ">
<polygon fill="none" stroke="black" points="16.5,-382.5 16.5,-412.5 156.5,-412.5 156.5,-382.5 16.5,-382.5"/>
<text text-anchor="start" x="24.5" y="-400.5" font-family="Helvetica,sans-Serif" font-size="10.00">cflite.eazyaiinf.livemode.</text>
<text text-anchor="middle" x="86.5" y="-389.5" font-family="Helvetica,sans-Serif" font-size="10.00">LiveMode.run</text>
</a>
</g>
</g>
<!-- Node1&#45;&gt;Node3 -->
<g id="edge2" class="edge">
<title>Node1&#45;&gt;Node3</title>
<path fill="none" stroke="midnightblue" d="M259.57,-254.39C246.15,-284.04 216.16,-341.32 173,-372.5 167.61,-376.39 161.62,-379.69 155.38,-382.47"/>
<polygon fill="midnightblue" stroke="midnightblue" points="262.81,-255.71 263.61,-245.15 256.4,-252.9 262.81,-255.71"/>
</g>
<!-- Node4 -->
<g id="node4" class="node">
<title>Node4</title>
<g id="a_node4"><a xlink:href="../../d9/d70/classcflite_1_1eazyaigen_1_1vas_1_1VAS.html#a707d09914dcf0d1d280d523f4d6d1f8c" target="_top" xlink:title=" ">
<polygon fill="none" stroke="black" points="8.5,-344 8.5,-363 164.5,-363 164.5,-344 8.5,-344"/>
<text text-anchor="middle" x="86.5" y="-351" font-family="Helvetica,sans-Serif" font-size="10.00">cflite.eazyaigen.vas.VAS.run</text>
</a>
</g>
</g>
<!-- Node1&#45;&gt;Node4 -->
<g id="edge3" class="edge">
<title>Node1&#45;&gt;Node4</title>
<path fill="none" stroke="midnightblue" d="M255.47,-253.55C239.42,-276.13 208.83,-314.28 173,-334.5 166.11,-338.39 158.5,-341.48 150.73,-343.93"/>
<polygon fill="midnightblue" stroke="midnightblue" points="258.44,-255.4 261.25,-245.19 252.68,-251.42 258.44,-255.4"/>
</g>
<!-- Node5 -->
<g id="node5" class="node">
<title>Node5</title>
<g id="a_node5"><a xlink:href="../../d0/dd9/classcflite_1_1eazyaigen_1_1parser_1_1Parser.html#a103d6d5cdd8ecb125a4021b62bd3aff7" target="_top" xlink:title=" ">
<polygon fill="none" stroke="black" points="21,-294.5 21,-324.5 152,-324.5 152,-294.5 21,-294.5"/>
<text text-anchor="start" x="29" y="-312.5" font-family="Helvetica,sans-Serif" font-size="10.00">cflite.eazyaigen.parser.</text>
<text text-anchor="middle" x="86.5" y="-301.5" font-family="Helvetica,sans-Serif" font-size="10.00">Parser.run</text>
</a>
</g>
</g>
<!-- Node1&#45;&gt;Node5 -->
<g id="edge4" class="edge">
<title>Node1&#45;&gt;Node5</title>
<path fill="none" stroke="midnightblue" d="M243.21,-250.21C224.51,-261.06 197.77,-275.6 173,-285.5 164.84,-288.76 156.07,-291.76 147.38,-294.45"/>
<polygon fill="midnightblue" stroke="midnightblue" points="245.1,-253.15 251.94,-245.06 241.55,-247.12 245.1,-253.15"/>
</g>
<!-- Node6 -->
<g id="node6" class="node">
<title>Node6</title>
<g id="a_node6"><a xlink:href="../../da/dcb/group__cflite-eazyaigen-layercompare.html#ga975842bb055e811cbd461e7bb332a89d" target="_top" xlink:title=" ">
<polygon fill="none" stroke="black" points="2.5,-245.5 2.5,-275.5 170.5,-275.5 170.5,-245.5 2.5,-245.5"/>
<text text-anchor="start" x="10.5" y="-263.5" font-family="Helvetica,sans-Serif" font-size="10.00">cflite.eazyaigen.layercompare.</text>
<text text-anchor="middle" x="86.5" y="-252.5" font-family="Helvetica,sans-Serif" font-size="10.00">LayerCompare.run</text>
</a>
</g>
</g>
<!-- Node1&#45;&gt;Node6 -->
<g id="edge5" class="edge">
<title>Node1&#45;&gt;Node6</title>
<path fill="none" stroke="midnightblue" d="M198.47,-245.09C189.39,-246.35 180.02,-247.65 170.74,-248.94"/>
<polygon fill="midnightblue" stroke="midnightblue" points="199.14,-248.53 208.56,-243.69 198.17,-241.59 199.14,-248.53"/>
</g>
<!-- Node7 -->
<g id="node7" class="node">
<title>Node7</title>
<g id="a_node7"><a xlink:href="../../d7/df3/classcflite_1_1eazyaisys_1_1fastvideo_1_1VideoSession.html#ad22709b2e67308af35f55680d5a026e0" target="_top" xlink:title=" ">
<polygon fill="none" stroke="black" points="14,-196.5 14,-226.5 159,-226.5 159,-196.5 14,-196.5"/>
<text text-anchor="start" x="22" y="-214.5" font-family="Helvetica,sans-Serif" font-size="10.00">cflite.eazyaisys.fastvideo.</text>
<text text-anchor="middle" x="86.5" y="-203.5" font-family="Helvetica,sans-Serif" font-size="10.00">VideoSession.run</text>
</a>
</g>
</g>
<!-- Node1&#45;&gt;Node7 -->
<g id="edge6" class="edge">
<title>Node1&#45;&gt;Node7</title>
<path fill="none" stroke="midnightblue" d="M198.4,-226.29C185.53,-224.57 172.07,-222.78 159.13,-221.05"/>
<polygon fill="midnightblue" stroke="midnightblue" points="198.19,-229.79 208.56,-227.64 199.11,-222.85 198.19,-229.79"/>
</g>
<!-- Node8 -->
<g id="node8" class="node">
<title>Node8</title>
<g id="a_node8"><a xlink:href="../../d5/de0/classcflite_1_1eazyaiinf_1_1dummymode_1_1DummyMode.html#a15180f30e49a79272f83ca50ddd3368f" target="_top" xlink:title=" ">
<polygon fill="none" stroke="black" points="6.5,-147.5 6.5,-177.5 166.5,-177.5 166.5,-147.5 6.5,-147.5"/>
<text text-anchor="start" x="14.5" y="-165.5" font-family="Helvetica,sans-Serif" font-size="10.00">cflite.eazyaiinf.dummymode.</text>
<text text-anchor="middle" x="86.5" y="-154.5" font-family="Helvetica,sans-Serif" font-size="10.00">DummyMode.run_non_block</text>
</a>
</g>
</g>
<!-- Node1&#45;&gt;Node8 -->
<g id="edge7" class="edge">
<title>Node1&#45;&gt;Node8</title>
<path fill="none" stroke="midnightblue" d="M242.09,-220.96C223.4,-210.68 197.15,-197.07 173,-187.5 163.94,-183.91 154.16,-180.57 144.57,-177.58"/>
<polygon fill="midnightblue" stroke="midnightblue" points="240.43,-224.04 250.87,-225.86 243.84,-217.93 240.43,-224.04"/>
</g>
<!-- Node9 -->
<g id="node9" class="node">
<title>Node9</title>
<g id="a_node9"><a xlink:href="../../dd/d96/classcflite_1_1eazyaiinf_1_1livemode_1_1LiveMode.html#a15180f30e49a79272f83ca50ddd3368f" target="_top" xlink:title=" ">
<polygon fill="none" stroke="black" points="16.5,-98.5 16.5,-128.5 156.5,-128.5 156.5,-98.5 16.5,-98.5"/>
<text text-anchor="start" x="24.5" y="-116.5" font-family="Helvetica,sans-Serif" font-size="10.00">cflite.eazyaiinf.livemode.</text>
<text text-anchor="middle" x="86.5" y="-105.5" font-family="Helvetica,sans-Serif" font-size="10.00">LiveMode.run_non_block</text>
</a>
</g>
</g>
<!-- Node1&#45;&gt;Node9 -->
<g id="edge8" class="edge">
<title>Node1&#45;&gt;Node9</title>
<path fill="none" stroke="midnightblue" d="M254.92,-217.86C238.5,-196.08 207.71,-159.37 173,-138.5 166.64,-134.67 159.66,-131.4 152.51,-128.62"/>
<polygon fill="midnightblue" stroke="midnightblue" points="252.12,-219.95 260.87,-225.93 257.76,-215.8 252.12,-219.95"/>
</g>
<!-- Node10 -->
<g id="node10" class="node">
<title>Node10</title>
<g id="a_node10"><a xlink:href="../../d0/dd9/classcflite_1_1eazyaigen_1_1parser_1_1Parser.html#ae842132494a52d538bf11b8f127c9f2a" target="_top" xlink:title=" ">
<polygon fill="none" stroke="black" points="4,-49.5 4,-79.5 169,-79.5 169,-49.5 4,-49.5"/>
<text text-anchor="start" x="12" y="-67.5" font-family="Helvetica,sans-Serif" font-size="10.00">cflite.eazyaigen.parser.</text>
<text text-anchor="middle" x="86.5" y="-56.5" font-family="Helvetica,sans-Serif" font-size="10.00">Parser.run_with_dummy_input</text>
</a>
</g>
</g>
<!-- Node1&#45;&gt;Node10 -->
<g id="edge9" class="edge">
<title>Node1&#45;&gt;Node10</title>
<path fill="none" stroke="midnightblue" d="M260.28,-216.28C247.53,-184.97 218.05,-123.07 173,-89.5 167.79,-85.62 161.99,-82.34 155.93,-79.57"/>
<polygon fill="midnightblue" stroke="midnightblue" points="257.18,-217.95 264.09,-225.98 263.69,-215.4 257.18,-217.95"/>
</g>
<!-- Node11 -->
<g id="node11" class="node">
<title>Node11</title>
<g id="a_node11"><a xlink:href="../../db/deb/classcflite_1_1eazyaigen_1_1theoryperf_1_1TheoryPerf.html#a08d517af7fce800ad7b5573cdec5a270" target="_top" xlink:title=" ">
<polygon fill="none" stroke="black" points="0,-0.5 0,-30.5 173,-30.5 173,-0.5 0,-0.5"/>
<text text-anchor="start" x="8" y="-18.5" font-family="Helvetica,sans-Serif" font-size="10.00">cflite.eazyaigen.theoryperf.</text>
<text text-anchor="middle" x="86.5" y="-7.5" font-family="Helvetica,sans-Serif" font-size="10.00">TheoryPerf.set_vas_output_path</text>
</a>
</g>
</g>
<!-- Node1&#45;&gt;Node11 -->
<g id="edge10" class="edge">
<title>Node1&#45;&gt;Node11</title>
<path fill="none" stroke="midnightblue" d="M263.53,-215.75C254.57,-176.39 229.07,-87.92 173,-40.5 168.39,-36.61 163.21,-33.32 157.72,-30.54"/>
<polygon fill="midnightblue" stroke="midnightblue" points="260.14,-216.64 265.67,-225.67 266.98,-215.16 260.14,-216.64"/>
</g>
</g>
</svg>
        <g id="navigator" transform="translate(0 0)" fill="#404254">
                <rect fill="#f2f5e9" fill-opacity="0.5" stroke="#606060" stroke-width=".5" x="0" y="0" width="60" height="60"/>
                <use id="zoomplus" xlink:href="#zoomPlus" x="17" y="9" onmousedown="handleZoom(evt,'in')"/>
                <use id="zoomminus" xlink:href="#zoomMin" x="42" y="9" onmousedown="handleZoom(evt,'out')"/>
                <use id="reset" xlink:href="#resetDef" x="30" y="36" onmousedown="handleReset()"/>
                <g id="arrowUp" xlink:href="#dirArrow" transform="translate(30 24)" onmousedown="handlePan(0,-1)">
                  <use xlink:href="#rim" fill="#404040">
                        <set attributeName="fill" to="#808080" begin="arrowUp.mouseover" end="arrowUp.mouseout"/>
                  </use>
                  <path fill="none" stroke="white" stroke-width="1.5" d="M0,-3.0v7 M-2.5,-0.5L0,-3.0L2.5,-0.5"/>
                </g>
                <g id="arrowRight" xlink:href="#dirArrow" transform="rotate(90) translate(36 -43)" onmousedown="handlePan(1,0)">
                  <use xlink:href="#rim" fill="#404040">
                        <set attributeName="fill" to="#808080" begin="arrowRight.mouseover" end="arrowRight.mouseout"/>
                  </use>
                  <path fill="none" stroke="white" stroke-width="1.5" d="M0,-3.0v7 M-2.5,-0.5L0,-3.0L2.5,-0.5"/>
                </g>
                <g id="arrowDown" xlink:href="#dirArrow" transform="rotate(180) translate(-30 -48)" onmousedown="handlePan(0,1)">
                  <use xlink:href="#rim" fill="#404040">
                        <set attributeName="fill" to="#808080" begin="arrowDown.mouseover" end="arrowDown.mouseout"/>
                  </use>
                  <path fill="none" stroke="white" stroke-width="1.5" d="M0,-3.0v7 M-2.5,-0.5L0,-3.0L2.5,-0.5"/>
                </g>
                <g id="arrowLeft" xlink:href="#dirArrow" transform="rotate(270) translate(-36 17)" onmousedown="handlePan(-1,0)">
                  <use xlink:href="#rim" fill="#404040">
                        <set attributeName="fill" to="#808080" begin="arrowLeft.mouseover" end="arrowLeft.mouseout"/>
                  </use>
                  <path fill="none" stroke="white" stroke-width="1.5" d="M0,-3.0v7 M-2.5,-0.5L0,-3.0L2.5,-0.5"/>
                </g>
        </g>
        <svg viewBox="0 0 15 15" width="100%" height="30px" preserveAspectRatio="xMaxYMin meet">
         <g id="arrow_out" transform="scale(0.3 0.3)">
          <a xlink:href="group__cflite-eazyaigen-dataprepare_ga47fdd2bfe648c82ddfa9754ff16f46b1_icgraph_org.svg" target="_base">
           <rect id="button" ry="5" rx="5" y="6" x="6" height="38" width="38"
                fill="#f2f5e9" fill-opacity="0.5" stroke="#606060" stroke-width="1.0"/>
           <path id="arrow"
             d="M 11.500037,31.436501 C 11.940474,20.09759 22.043105,11.32322 32.158766,21.979434 L 37.068811,17.246167 C 37.068811,17.246167 37.088388,32 37.088388,32 L 22.160133,31.978069 C 22.160133,31.978069 26.997745,27.140456 26.997745,27.140456 C 18.528582,18.264221 13.291696,25.230495 11.500037,31.436501 z"
             style="fill:#404040;"/>
          </a>
         </g>
        </svg>
</svg>
