<?xml version="1.0" encoding="UTF-8" standalone="no"?>
<!DOCTYPE svg PUBLIC "-//W3C//DTD SVG 1.1//EN"
 "http://www.w3.org/Graphics/SVG/1.1/DTD/svg11.dtd">
<!-- Generated by graphviz version 2.43.0 (0)
 -->
<!-- Title: library/eazyai/inc/eazyai.h Pages: 1 -->
<svg width="869pt" height="151pt"
 viewBox="0.00 0.00 869.00 151.00" xmlns="http://www.w3.org/2000/svg" xmlns:xlink="http://www.w3.org/1999/xlink">
<g id="graph0" class="graph" transform="scale(1 1) rotate(0) translate(4 147)">
<title>library/eazyai/inc/eazyai.h</title>
<!-- Node1 -->
<g id="node1" class="node">
<title>Node1</title>
<g id="a_node1"><a xlink:title="The public interfaces of EazyAI framwork.">
<polygon fill="#bfbfbf" stroke="black" points="610.5,-112.5 610.5,-142.5 711.5,-142.5 711.5,-112.5 610.5,-112.5"/>
<text text-anchor="start" x="618.5" y="-130.5" font-family="Helvetica,sans-Serif" font-size="10.00">library/eazyai/inc</text>
<text text-anchor="middle" x="661" y="-119.5" font-family="Helvetica,sans-Serif" font-size="10.00">/eazyai.h</text>
</a>
</g>
</g>
<!-- Node2 -->
<g id="node2" class="node">
<title>Node2</title>
<g id="a_node2"><a xlink:href="../../db/d37/eazyai__core_8h.html" target="_top" xlink:title="The public interfaces of EazyAI Core framwork.">
<polygon fill="none" stroke="black" points="308,-56.5 308,-75.5 416,-75.5 416,-56.5 308,-56.5"/>
<text text-anchor="middle" x="362" y="-63.5" font-family="Helvetica,sans-Serif" font-size="10.00">core/eazyai_core.h</text>
</a>
</g>
</g>
<!-- Node1&#45;&gt;Node2 -->
<g id="edge1" class="edge">
<title>Node1&#45;&gt;Node2</title>
<path fill="none" stroke="midnightblue" d="M610.28,-116.41C555.85,-105.58 469.81,-88.45 414.65,-77.48"/>
<polygon fill="midnightblue" stroke="midnightblue" points="415.21,-74.02 404.72,-75.5 413.85,-80.89 415.21,-74.02"/>
</g>
<!-- Node10 -->
<g id="node10" class="node">
<title>Node10</title>
<g id="a_node10"><a xlink:href="../../db/d1e/eazyai__utils_8h.html" target="_top" xlink:title="The public interfaces of EazyAI utilities.">
<polygon fill="none" stroke="black" points="607,-56.5 607,-75.5 715,-75.5 715,-56.5 607,-56.5"/>
<text text-anchor="middle" x="661" y="-63.5" font-family="Helvetica,sans-Serif" font-size="10.00">utils/eazyai_utils.h</text>
</a>
</g>
</g>
<!-- Node1&#45;&gt;Node10 -->
<g id="edge9" class="edge">
<title>Node1&#45;&gt;Node10</title>
<path fill="none" stroke="midnightblue" d="M661,-112.4C661,-104.47 661,-94.46 661,-85.86"/>
<polygon fill="midnightblue" stroke="midnightblue" points="664.5,-85.66 661,-75.66 657.5,-85.66 664.5,-85.66"/>
</g>
<!-- Node12 -->
<g id="node12" class="node">
<title>Node12</title>
<g id="a_node12"><a xlink:href="../../d8/da8/eazyai__comm_8h.html" target="_top" xlink:title="The interface of EazyAI thread message queue.">
<polygon fill="none" stroke="black" points="733,-56.5 733,-75.5 861,-75.5 861,-56.5 733,-56.5"/>
<text text-anchor="middle" x="797" y="-63.5" font-family="Helvetica,sans-Serif" font-size="10.00">comm/eazyai_comm.h</text>
</a>
</g>
</g>
<!-- Node1&#45;&gt;Node12 -->
<g id="edge11" class="edge">
<title>Node1&#45;&gt;Node12</title>
<path fill="none" stroke="midnightblue" d="M693.23,-112.4C715.84,-102.51 745.84,-89.38 767.76,-79.79"/>
<polygon fill="midnightblue" stroke="midnightblue" points="769.45,-82.87 777.21,-75.66 766.65,-76.46 769.45,-82.87"/>
</g>
<!-- Node3 -->
<g id="node3" class="node">
<title>Node3</title>
<g id="a_node3"><a xlink:href="../../d4/dd7/ea__log_8h.html" target="_top" xlink:title="The interface of EazyAI Log.">
<polygon fill="none" stroke="black" points="0,-0.5 0,-19.5 58,-19.5 58,-0.5 0,-0.5"/>
<text text-anchor="middle" x="29" y="-7.5" font-family="Helvetica,sans-Serif" font-size="10.00">ea_log.h</text>
</a>
</g>
</g>
<!-- Node2&#45;&gt;Node3 -->
<g id="edge2" class="edge">
<title>Node2&#45;&gt;Node3</title>
<path fill="none" stroke="midnightblue" d="M307.94,-58.09C250.75,-50.49 157.69,-37.26 68.43,-20.15"/>
<polygon fill="midnightblue" stroke="midnightblue" points="68.89,-16.68 58.41,-18.21 67.56,-23.55 68.89,-16.68"/>
</g>
<!-- Node4 -->
<g id="node4" class="node">
<title>Node4</title>
<g id="a_node4"><a xlink:href="../../de/d0e/ea__env_8h.html" target="_top" xlink:title="The interface of EazyAI Environment.">
<polygon fill="none" stroke="black" points="76,-0.5 76,-19.5 136,-19.5 136,-0.5 76,-0.5"/>
<text text-anchor="middle" x="106" y="-7.5" font-family="Helvetica,sans-Serif" font-size="10.00">ea_env.h</text>
</a>
</g>
</g>
<!-- Node2&#45;&gt;Node4 -->
<g id="edge3" class="edge">
<title>Node2&#45;&gt;Node4</title>
<path fill="none" stroke="midnightblue" d="M319.53,-56.48C277.88,-48.07 212.31,-34.65 146.37,-20.27"/>
<polygon fill="midnightblue" stroke="midnightblue" points="146.74,-16.76 136.22,-18.04 145.24,-23.6 146.74,-16.76"/>
</g>
<!-- Node5 -->
<g id="node5" class="node">
<title>Node5</title>
<g id="a_node5"><a xlink:href="../../d1/d3f/ea__tensor_8h.html" target="_top" xlink:title="The interface of EazyAI tensor.">
<polygon fill="none" stroke="black" points="154,-0.5 154,-19.5 228,-19.5 228,-0.5 154,-0.5"/>
<text text-anchor="middle" x="191" y="-7.5" font-family="Helvetica,sans-Serif" font-size="10.00">ea_tensor.h</text>
</a>
</g>
</g>
<!-- Node2&#45;&gt;Node5 -->
<g id="edge4" class="edge">
<title>Node2&#45;&gt;Node5</title>
<path fill="none" stroke="midnightblue" d="M334.9,-56.44C306.01,-47.32 260.08,-32.81 227.89,-22.65"/>
<polygon fill="midnightblue" stroke="midnightblue" points="228.56,-19.19 217.97,-19.52 226.45,-25.87 228.56,-19.19"/>
</g>
<!-- Node6 -->
<g id="node6" class="node">
<title>Node6</title>
<g id="a_node6"><a xlink:href="../../d3/d47/ea__img__resource_8h.html" target="_top" xlink:title="The interface of EazyAI Image Resource.">
<polygon fill="none" stroke="black" points="246.5,-0.5 246.5,-19.5 355.5,-19.5 355.5,-0.5 246.5,-0.5"/>
<text text-anchor="middle" x="301" y="-7.5" font-family="Helvetica,sans-Serif" font-size="10.00">ea_img_resource.h</text>
</a>
</g>
</g>
<!-- Node2&#45;&gt;Node6 -->
<g id="edge5" class="edge">
<title>Node2&#45;&gt;Node6</title>
<path fill="none" stroke="midnightblue" d="M352.2,-56.32C343.18,-48.34 329.59,-36.31 318.68,-26.65"/>
<polygon fill="midnightblue" stroke="midnightblue" points="320.79,-23.84 310.98,-19.83 316.15,-29.08 320.79,-23.84"/>
</g>
<!-- Node7 -->
<g id="node7" class="node">
<title>Node7</title>
<g id="a_node7"><a xlink:href="../../d7/d5e/ea__preprocess_8h.html" target="_top" xlink:title="The interface of EazyAI Preprocess.">
<polygon fill="none" stroke="black" points="374,-0.5 374,-19.5 470,-19.5 470,-0.5 374,-0.5"/>
<text text-anchor="middle" x="422" y="-7.5" font-family="Helvetica,sans-Serif" font-size="10.00">ea_preprocess.h</text>
</a>
</g>
</g>
<!-- Node2&#45;&gt;Node7 -->
<g id="edge6" class="edge">
<title>Node2&#45;&gt;Node7</title>
<path fill="none" stroke="midnightblue" d="M371.64,-56.32C380.51,-48.34 393.87,-36.31 404.61,-26.65"/>
<polygon fill="midnightblue" stroke="midnightblue" points="407.09,-29.13 412.18,-19.83 402.41,-23.92 407.09,-29.13"/>
</g>
<!-- Node8 -->
<g id="node8" class="node">
<title>Node8</title>
<g id="a_node8"><a xlink:href="../../d1/d6c/ea__net_8h.html" target="_top" xlink:title="The interface of EazyAI Network.">
<polygon fill="none" stroke="black" points="488.5,-0.5 488.5,-19.5 547.5,-19.5 547.5,-0.5 488.5,-0.5"/>
<text text-anchor="middle" x="518" y="-7.5" font-family="Helvetica,sans-Serif" font-size="10.00">ea_net.h</text>
</a>
</g>
</g>
<!-- Node2&#45;&gt;Node8 -->
<g id="edge7" class="edge">
<title>Node2&#45;&gt;Node8</title>
<path fill="none" stroke="midnightblue" d="M386.72,-56.44C412.85,-47.4 454.26,-33.06 483.58,-22.92"/>
<polygon fill="midnightblue" stroke="midnightblue" points="485.09,-26.1 493.4,-19.52 482.8,-19.48 485.09,-26.1"/>
</g>
<!-- Node9 -->
<g id="node9" class="node">
<title>Node9</title>
<g id="a_node9"><a xlink:href="../../d3/d08/ea__osd_8h.html" target="_top" xlink:title="The interface of EazyAI OSD (on screen/stream display).">
<polygon fill="none" stroke="black" points="566,-0.5 566,-19.5 626,-19.5 626,-0.5 566,-0.5"/>
<text text-anchor="middle" x="596" y="-7.5" font-family="Helvetica,sans-Serif" font-size="10.00">ea_osd.h</text>
</a>
</g>
</g>
<!-- Node2&#45;&gt;Node9 -->
<g id="edge8" class="edge">
<title>Node2&#45;&gt;Node9</title>
<path fill="none" stroke="midnightblue" d="M399.08,-56.44C441.88,-46.57 512.02,-30.38 556.01,-20.23"/>
<polygon fill="midnightblue" stroke="midnightblue" points="556.84,-23.63 565.79,-17.97 555.26,-16.81 556.84,-23.63"/>
</g>
<!-- Node11 -->
<g id="node11" class="node">
<title>Node11</title>
<g id="a_node11"><a xlink:href="../../d0/d71/ea__display_8h.html" target="_top" xlink:title="The interface of EazyAI Display.">
<polygon fill="none" stroke="black" points="644.5,-0.5 644.5,-19.5 721.5,-19.5 721.5,-0.5 644.5,-0.5"/>
<text text-anchor="middle" x="683" y="-7.5" font-family="Helvetica,sans-Serif" font-size="10.00">ea_display.h</text>
</a>
</g>
</g>
<!-- Node10&#45;&gt;Node11 -->
<g id="edge10" class="edge">
<title>Node10&#45;&gt;Node11</title>
<path fill="none" stroke="midnightblue" d="M664.63,-56.08C667.61,-48.77 671.93,-38.18 675.62,-29.1"/>
<polygon fill="midnightblue" stroke="midnightblue" points="678.9,-30.33 679.43,-19.75 672.42,-27.69 678.9,-30.33"/>
</g>
<!-- Node13 -->
<g id="node13" class="node">
<title>Node13</title>
<g id="a_node13"><a xlink:href="../../d7/d4f/ea__queue_8h.html" target="_top" xlink:title="The interface of EazyAI thread message queue.">
<polygon fill="none" stroke="black" points="760.5,-0.5 760.5,-19.5 833.5,-19.5 833.5,-0.5 760.5,-0.5"/>
<text text-anchor="middle" x="797" y="-7.5" font-family="Helvetica,sans-Serif" font-size="10.00">ea_queue.h</text>
</a>
</g>
</g>
<!-- Node12&#45;&gt;Node13 -->
<g id="edge12" class="edge">
<title>Node12&#45;&gt;Node13</title>
<path fill="none" stroke="midnightblue" d="M797,-56.08C797,-49.01 797,-38.86 797,-29.99"/>
<polygon fill="midnightblue" stroke="midnightblue" points="800.5,-29.75 797,-19.75 793.5,-29.75 800.5,-29.75"/>
</g>
</g>
</svg>
