<?xml version="1.0" encoding="UTF-8" standalone="no"?>
<!DOCTYPE svg PUBLIC "-//W3C//DTD SVG 1.1//EN"
 "http://www.w3.org/Graphics/SVG/1.1/DTD/svg11.dtd">
<!-- Generated by graphviz version 2.43.0 (0)
 -->
<!-- Title: generate_commands Pages: 1 -->
<!--zoomable 607 -->
<svg id="main" version="1.1" xmlns="http://www.w3.org/2000/svg" xmlns:xlink="http://www.w3.org/1999/xlink" xml:space="preserve" onload="init(evt)">
<style type="text/css"><![CDATA[
.edge:hover path { stroke: red; }
.edge:hover polygon { stroke: red; fill: red; }
]]></style>
<script type="text/javascript"><![CDATA[
var edges = document.getElementsByTagName('g');
if (edges && edges.length) {
  for (var i=0;i<edges.length;i++) {
    if (edges[i].id.substr(0,4)=='edge') {
      edges[i].setAttribute('class','edge');
    }
  }
}
]]></script>
        <defs>
                <circle id="rim" cx="0" cy="0" r="7"/>
                <circle id="rim2" cx="0" cy="0" r="3.5"/>
                <g id="zoomPlus">
                        <use xlink:href="#rim" fill="#404040">
                                <set attributeName="fill" to="#808080" begin="zoomplus.mouseover" end="zoomplus.mouseout"/>
                        </use>
                        <path d="M-4,0h8M0,-4v8" fill="none" stroke="white" stroke-width="1.5" pointer-events="none"/>
                </g>
                <g id="zoomMin">
                        <use xlink:href="#rim" fill="#404040">
                                <set attributeName="fill" to="#808080" begin="zoomminus.mouseover" end="zoomminus.mouseout"/>
                        </use>
                        <path d="M-4,0h8" fill="none" stroke="white" stroke-width="1.5" pointer-events="none"/>
                </g>
                <g id="dirArrow">
                        <path fill="none" stroke="white" stroke-width="1.5" d="M0,-3.0v7 M-2.5,-0.5L0,-3.0L2.5,-0.5"/>
                </g>
               <g id="resetDef">
                       <use xlink:href="#rim2" fill="#404040">
                               <set attributeName="fill" to="#808080" begin="reset.mouseover" end="reset.mouseout"/>
                       </use>
               </g>
        </defs>

<script type="text/javascript">
var viewWidth = 375;
var viewHeight = 607;
var sectionId = 'dynsection-1';
</script>
<script xlink:href="../../svgpan.js"/>
<svg id="graph" class="graph">
<g id="viewport">
<title>generate_commands</title>
<!-- Node1 -->
<g id="node1" class="node">
<title>Node1</title>
<g id="a_node1"><a xlink:title=" ">
<polygon fill="#bfbfbf" stroke="black" points="248,-300 248,-319 367,-319 367,-300 248,-300"/>
<text text-anchor="middle" x="307.5" y="-307" font-family="Helvetica,sans-Serif" font-size="10.00">generate_commands</text>
</a>
</g>
</g>
<!-- Node2 -->
<g id="node2" class="node">
<title>Node2</title>
<g id="a_node2"><a xlink:href="../../d5/de0/classcflite_1_1eazyaiinf_1_1dummymode_1_1DummyMode.html#ad22709b2e67308af35f55680d5a026e0" target="_top" xlink:title=" ">
<polygon fill="none" stroke="black" points="26,-568.5 26,-598.5 186,-598.5 186,-568.5 26,-568.5"/>
<text text-anchor="start" x="34" y="-586.5" font-family="Helvetica,sans-Serif" font-size="10.00">cflite.eazyaiinf.dummymode.</text>
<text text-anchor="middle" x="106" y="-575.5" font-family="Helvetica,sans-Serif" font-size="10.00">DummyMode.run</text>
</a>
</g>
</g>
<!-- Node1&#45;&gt;Node2 -->
<g id="edge1" class="edge">
<title>Node1&#45;&gt;Node2</title>
<path fill="none" stroke="midnightblue" d="M305.14,-329.4C300.78,-376.93 282.92,-497.67 212,-559.5 204.46,-566.07 195.48,-570.95 186,-574.55"/>
<polygon fill="midnightblue" stroke="midnightblue" points="308.65,-329.47 305.97,-319.22 301.67,-328.9 308.65,-329.47"/>
</g>
<!-- Node3 -->
<g id="node3" class="node">
<title>Node3</title>
<g id="a_node3"><a xlink:href="../../dd/d96/classcflite_1_1eazyaiinf_1_1livemode_1_1LiveMode.html#ad22709b2e67308af35f55680d5a026e0" target="_top" xlink:title=" ">
<polygon fill="none" stroke="black" points="36,-519.5 36,-549.5 176,-549.5 176,-519.5 36,-519.5"/>
<text text-anchor="start" x="44" y="-537.5" font-family="Helvetica,sans-Serif" font-size="10.00">cflite.eazyaiinf.livemode.</text>
<text text-anchor="middle" x="106" y="-526.5" font-family="Helvetica,sans-Serif" font-size="10.00">LiveMode.run</text>
</a>
</g>
</g>
<!-- Node1&#45;&gt;Node3 -->
<g id="edge2" class="edge">
<title>Node1&#45;&gt;Node3</title>
<path fill="none" stroke="midnightblue" d="M303.06,-329.17C294.92,-369.54 270.61,-461.95 212,-509.5 201.67,-517.88 188.99,-523.54 176.06,-527.33"/>
<polygon fill="midnightblue" stroke="midnightblue" points="306.52,-329.72 304.94,-319.24 299.64,-328.42 306.52,-329.72"/>
</g>
<!-- Node4 -->
<g id="node4" class="node">
<title>Node4</title>
<g id="a_node4"><a xlink:href="../../d9/d70/classcflite_1_1eazyaigen_1_1vas_1_1VAS.html#a707d09914dcf0d1d280d523f4d6d1f8c" target="_top" xlink:title=" ">
<polygon fill="none" stroke="black" points="28,-481 28,-500 184,-500 184,-481 28,-481"/>
<text text-anchor="middle" x="106" y="-488" font-family="Helvetica,sans-Serif" font-size="10.00">cflite.eazyaigen.vas.VAS.run</text>
</a>
</g>
</g>
<!-- Node1&#45;&gt;Node4 -->
<g id="edge3" class="edge">
<title>Node1&#45;&gt;Node4</title>
<path fill="none" stroke="midnightblue" d="M301.07,-328.96C290.3,-363.67 262.78,-435.94 212,-471.5 203.65,-477.34 194.05,-481.55 184.11,-484.56"/>
<polygon fill="midnightblue" stroke="midnightblue" points="304.5,-329.69 303.98,-319.1 297.79,-327.7 304.5,-329.69"/>
</g>
<!-- Node5 -->
<g id="node5" class="node">
<title>Node5</title>
<g id="a_node5"><a xlink:href="../../d0/dd9/classcflite_1_1eazyaigen_1_1parser_1_1Parser.html#a103d6d5cdd8ecb125a4021b62bd3aff7" target="_top" xlink:title=" ">
<polygon fill="none" stroke="black" points="40.5,-431.5 40.5,-461.5 171.5,-461.5 171.5,-431.5 40.5,-431.5"/>
<text text-anchor="start" x="48.5" y="-449.5" font-family="Helvetica,sans-Serif" font-size="10.00">cflite.eazyaigen.parser.</text>
<text text-anchor="middle" x="106" y="-438.5" font-family="Helvetica,sans-Serif" font-size="10.00">Parser.run</text>
</a>
</g>
</g>
<!-- Node1&#45;&gt;Node5 -->
<g id="edge4" class="edge">
<title>Node1&#45;&gt;Node5</title>
<path fill="none" stroke="midnightblue" d="M296.13,-327.98C281,-353.16 250.44,-397.83 212,-421.5 199.87,-428.97 185.69,-434.2 171.75,-437.88"/>
<polygon fill="midnightblue" stroke="midnightblue" points="299.3,-329.48 301.32,-319.08 293.26,-325.95 299.3,-329.48"/>
</g>
<!-- Node6 -->
<g id="node6" class="node">
<title>Node6</title>
<g id="a_node6"><a xlink:href="../../d8/d8d/group__cflite-eazyaigen-cavalry.html#gadc06d52a9083ca19e625f7ea5e559dc1" target="_top" xlink:title=" ">
<polygon fill="none" stroke="black" points="90,-393 90,-412 122,-412 122,-393 90,-393"/>
<text text-anchor="middle" x="106" y="-400" font-family="Helvetica,sans-Serif" font-size="10.00">run</text>
</a>
</g>
</g>
<!-- Node1&#45;&gt;Node6 -->
<g id="edge5" class="edge">
<title>Node1&#45;&gt;Node6</title>
<path fill="none" stroke="midnightblue" d="M290.15,-326.46C272.52,-343.67 242.83,-369.67 212,-383.5 182.08,-396.92 143.34,-400.87 122.28,-402.02"/>
<polygon fill="midnightblue" stroke="midnightblue" points="292.76,-328.8 297.35,-319.25 287.81,-323.85 292.76,-328.8"/>
</g>
<!-- Node7 -->
<g id="node7" class="node">
<title>Node7</title>
<g id="a_node7"><a xlink:href="../../da/dcb/group__cflite-eazyaigen-layercompare.html#ga975842bb055e811cbd461e7bb332a89d" target="_top" xlink:title=" ">
<polygon fill="none" stroke="black" points="22,-343.5 22,-373.5 190,-373.5 190,-343.5 22,-343.5"/>
<text text-anchor="start" x="30" y="-361.5" font-family="Helvetica,sans-Serif" font-size="10.00">cflite.eazyaigen.layercompare.</text>
<text text-anchor="middle" x="106" y="-350.5" font-family="Helvetica,sans-Serif" font-size="10.00">LayerCompare.run</text>
</a>
</g>
</g>
<!-- Node1&#45;&gt;Node7 -->
<g id="edge6" class="edge">
<title>Node1&#45;&gt;Node7</title>
<path fill="none" stroke="midnightblue" d="M261.61,-321.71C245.94,-325.88 228.22,-330.5 212,-334.5 199.84,-337.5 186.85,-340.57 174.3,-343.47"/>
<polygon fill="midnightblue" stroke="midnightblue" points="262.81,-325.01 271.57,-319.04 261,-318.25 262.81,-325.01"/>
</g>
<!-- Node8 -->
<g id="node8" class="node">
<title>Node8</title>
<g id="a_node8"><a xlink:href="../../d7/df3/classcflite_1_1eazyaisys_1_1fastvideo_1_1VideoSession.html#ad22709b2e67308af35f55680d5a026e0" target="_top" xlink:title=" ">
<polygon fill="none" stroke="black" points="33.5,-294.5 33.5,-324.5 178.5,-324.5 178.5,-294.5 33.5,-294.5"/>
<text text-anchor="start" x="41.5" y="-312.5" font-family="Helvetica,sans-Serif" font-size="10.00">cflite.eazyaisys.fastvideo.</text>
<text text-anchor="middle" x="106" y="-301.5" font-family="Helvetica,sans-Serif" font-size="10.00">VideoSession.run</text>
</a>
</g>
</g>
<!-- Node1&#45;&gt;Node8 -->
<g id="edge7" class="edge">
<title>Node1&#45;&gt;Node8</title>
<path fill="none" stroke="midnightblue" d="M237.86,-309.5C218.72,-309.5 197.89,-309.5 178.59,-309.5"/>
<polygon fill="midnightblue" stroke="midnightblue" points="237.99,-313 247.99,-309.5 237.99,-306 237.99,-313"/>
</g>
<!-- Node9 -->
<g id="node9" class="node">
<title>Node9</title>
<g id="a_node9"><a xlink:href="../../d9/d64/group__cflite-eazyaigen-cvb.html#ga103d6d5cdd8ecb125a4021b62bd3aff7" target="_top" xlink:title=" ">
<polygon fill="none" stroke="black" points="30,-245.5 30,-275.5 182,-275.5 182,-245.5 30,-245.5"/>
<text text-anchor="start" x="38" y="-263.5" font-family="Helvetica,sans-Serif" font-size="10.00">cflite.eazyaigen.cvbackend.</text>
<text text-anchor="middle" x="106" y="-252.5" font-family="Helvetica,sans-Serif" font-size="10.00">CVFlowBackend.run</text>
</a>
</g>
</g>
<!-- Node1&#45;&gt;Node9 -->
<g id="edge8" class="edge">
<title>Node1&#45;&gt;Node9</title>
<path fill="none" stroke="midnightblue" d="M259.16,-297.33C244.09,-293.5 227.36,-289.28 212,-285.5 198.72,-282.23 184.47,-278.8 170.89,-275.55"/>
<polygon fill="midnightblue" stroke="midnightblue" points="258.72,-300.83 269.28,-299.91 260.45,-294.05 258.72,-300.83"/>
</g>
<!-- Node10 -->
<g id="node10" class="node">
<title>Node10</title>
<g id="a_node10"><a xlink:href="../../d5/de0/classcflite_1_1eazyaiinf_1_1dummymode_1_1DummyMode.html#a15180f30e49a79272f83ca50ddd3368f" target="_top" xlink:title=" ">
<polygon fill="none" stroke="black" points="26,-196.5 26,-226.5 186,-226.5 186,-196.5 26,-196.5"/>
<text text-anchor="start" x="34" y="-214.5" font-family="Helvetica,sans-Serif" font-size="10.00">cflite.eazyaiinf.dummymode.</text>
<text text-anchor="middle" x="106" y="-203.5" font-family="Helvetica,sans-Serif" font-size="10.00">DummyMode.run_non_block</text>
</a>
</g>
</g>
<!-- Node1&#45;&gt;Node10 -->
<g id="edge9" class="edge">
<title>Node1&#45;&gt;Node10</title>
<path fill="none" stroke="midnightblue" d="M289.66,-292.84C271.84,-276.15 242.17,-250.92 212,-236.5 203.88,-232.62 195.12,-229.32 186.24,-226.51"/>
<polygon fill="midnightblue" stroke="midnightblue" points="287.33,-295.45 296.97,-299.84 292.17,-290.4 287.33,-295.45"/>
</g>
<!-- Node11 -->
<g id="node11" class="node">
<title>Node11</title>
<g id="a_node11"><a xlink:href="../../dd/d96/classcflite_1_1eazyaiinf_1_1livemode_1_1LiveMode.html#a15180f30e49a79272f83ca50ddd3368f" target="_top" xlink:title=" ">
<polygon fill="none" stroke="black" points="36,-147.5 36,-177.5 176,-177.5 176,-147.5 36,-147.5"/>
<text text-anchor="start" x="44" y="-165.5" font-family="Helvetica,sans-Serif" font-size="10.00">cflite.eazyaiinf.livemode.</text>
<text text-anchor="middle" x="106" y="-154.5" font-family="Helvetica,sans-Serif" font-size="10.00">LiveMode.run_non_block</text>
</a>
</g>
</g>
<!-- Node1&#45;&gt;Node11 -->
<g id="edge10" class="edge">
<title>Node1&#45;&gt;Node11</title>
<path fill="none" stroke="midnightblue" d="M297.18,-290.54C282.78,-263.33 252.53,-213.64 212,-187.5 201.21,-180.54 188.68,-175.52 176.11,-171.89"/>
<polygon fill="midnightblue" stroke="midnightblue" points="294.23,-292.46 301.9,-299.77 300.46,-289.27 294.23,-292.46"/>
</g>
<!-- Node12 -->
<g id="node12" class="node">
<title>Node12</title>
<g id="a_node12"><a xlink:href="../../d0/dd9/classcflite_1_1eazyaigen_1_1parser_1_1Parser.html#ae842132494a52d538bf11b8f127c9f2a" target="_top" xlink:title=" ">
<polygon fill="none" stroke="black" points="23.5,-98.5 23.5,-128.5 188.5,-128.5 188.5,-98.5 23.5,-98.5"/>
<text text-anchor="start" x="31.5" y="-116.5" font-family="Helvetica,sans-Serif" font-size="10.00">cflite.eazyaigen.parser.</text>
<text text-anchor="middle" x="106" y="-105.5" font-family="Helvetica,sans-Serif" font-size="10.00">Parser.run_with_dummy_input</text>
</a>
</g>
</g>
<!-- Node1&#45;&gt;Node12 -->
<g id="edge11" class="edge">
<title>Node1&#45;&gt;Node12</title>
<path fill="none" stroke="midnightblue" d="M301.48,-290.24C291.12,-254.49 263.88,-177.93 212,-138.5 204.99,-133.17 197.01,-128.96 188.66,-125.63"/>
<polygon fill="midnightblue" stroke="midnightblue" points="298.12,-291.23 304.16,-299.94 304.87,-289.37 298.12,-291.23"/>
</g>
<!-- Node13 -->
<g id="node13" class="node">
<title>Node13</title>
<g id="a_node13"><a xlink:href="../../d9/d64/group__cflite-eazyaigen-cvb.html#gae842132494a52d538bf11b8f127c9f2a" target="_top" xlink:title=" ">
<polygon fill="none" stroke="black" points="0,-49.5 0,-79.5 212,-79.5 212,-49.5 0,-49.5"/>
<text text-anchor="start" x="8" y="-67.5" font-family="Helvetica,sans-Serif" font-size="10.00">cflite.eazyaigen.cvbackend.</text>
<text text-anchor="middle" x="106" y="-56.5" font-family="Helvetica,sans-Serif" font-size="10.00">CVFlowBackend.run_with_dummy_input</text>
</a>
</g>
</g>
<!-- Node1&#45;&gt;Node13 -->
<g id="edge12" class="edge">
<title>Node1&#45;&gt;Node13</title>
<path fill="none" stroke="midnightblue" d="M303.97,-289.69C297.34,-246.36 275.36,-142.81 212,-89.5 207.41,-85.64 202.33,-82.35 196.95,-79.56"/>
<polygon fill="midnightblue" stroke="midnightblue" points="300.53,-290.37 305.39,-299.78 307.46,-289.39 300.53,-290.37"/>
</g>
<!-- Node14 -->
<g id="node14" class="node">
<title>Node14</title>
<g id="a_node14"><a xlink:href="../../db/deb/classcflite_1_1eazyaigen_1_1theoryperf_1_1TheoryPerf.html#a08d517af7fce800ad7b5573cdec5a270" target="_top" xlink:title=" ">
<polygon fill="none" stroke="black" points="19.5,-0.5 19.5,-30.5 192.5,-30.5 192.5,-0.5 19.5,-0.5"/>
<text text-anchor="start" x="27.5" y="-18.5" font-family="Helvetica,sans-Serif" font-size="10.00">cflite.eazyaigen.theoryperf.</text>
<text text-anchor="middle" x="106" y="-7.5" font-family="Helvetica,sans-Serif" font-size="10.00">TheoryPerf.set_vas_output_path</text>
</a>
</g>
</g>
<!-- Node1&#45;&gt;Node14 -->
<g id="edge13" class="edge">
<title>Node1&#45;&gt;Node14</title>
<path fill="none" stroke="midnightblue" d="M305.72,-289.83C302.64,-240.1 287.4,-108.43 212,-40.5 206.29,-35.36 199.72,-31.22 192.7,-27.9"/>
<polygon fill="midnightblue" stroke="midnightblue" points="302.23,-290.09 306.24,-299.9 309.22,-289.73 302.23,-290.09"/>
</g>
</g>
</svg>
        <g id="navigator" transform="translate(0 0)" fill="#404254">
                <rect fill="#f2f5e9" fill-opacity="0.5" stroke="#606060" stroke-width=".5" x="0" y="0" width="60" height="60"/>
                <use id="zoomplus" xlink:href="#zoomPlus" x="17" y="9" onmousedown="handleZoom(evt,'in')"/>
                <use id="zoomminus" xlink:href="#zoomMin" x="42" y="9" onmousedown="handleZoom(evt,'out')"/>
                <use id="reset" xlink:href="#resetDef" x="30" y="36" onmousedown="handleReset()"/>
                <g id="arrowUp" xlink:href="#dirArrow" transform="translate(30 24)" onmousedown="handlePan(0,-1)">
                  <use xlink:href="#rim" fill="#404040">
                        <set attributeName="fill" to="#808080" begin="arrowUp.mouseover" end="arrowUp.mouseout"/>
                  </use>
                  <path fill="none" stroke="white" stroke-width="1.5" d="M0,-3.0v7 M-2.5,-0.5L0,-3.0L2.5,-0.5"/>
                </g>
                <g id="arrowRight" xlink:href="#dirArrow" transform="rotate(90) translate(36 -43)" onmousedown="handlePan(1,0)">
                  <use xlink:href="#rim" fill="#404040">
                        <set attributeName="fill" to="#808080" begin="arrowRight.mouseover" end="arrowRight.mouseout"/>
                  </use>
                  <path fill="none" stroke="white" stroke-width="1.5" d="M0,-3.0v7 M-2.5,-0.5L0,-3.0L2.5,-0.5"/>
                </g>
                <g id="arrowDown" xlink:href="#dirArrow" transform="rotate(180) translate(-30 -48)" onmousedown="handlePan(0,1)">
                  <use xlink:href="#rim" fill="#404040">
                        <set attributeName="fill" to="#808080" begin="arrowDown.mouseover" end="arrowDown.mouseout"/>
                  </use>
                  <path fill="none" stroke="white" stroke-width="1.5" d="M0,-3.0v7 M-2.5,-0.5L0,-3.0L2.5,-0.5"/>
                </g>
                <g id="arrowLeft" xlink:href="#dirArrow" transform="rotate(270) translate(-36 17)" onmousedown="handlePan(-1,0)">
                  <use xlink:href="#rim" fill="#404040">
                        <set attributeName="fill" to="#808080" begin="arrowLeft.mouseover" end="arrowLeft.mouseout"/>
                  </use>
                  <path fill="none" stroke="white" stroke-width="1.5" d="M0,-3.0v7 M-2.5,-0.5L0,-3.0L2.5,-0.5"/>
                </g>
        </g>
        <svg viewBox="0 0 15 15" width="100%" height="30px" preserveAspectRatio="xMaxYMin meet">
         <g id="arrow_out" transform="scale(0.3 0.3)">
          <a xlink:href="group__cflite-eazyaigen-cavalry_ga40181f1a480d2c8687ed85a81dcd08e6_icgraph_org.svg" target="_base">
           <rect id="button" ry="5" rx="5" y="6" x="6" height="38" width="38"
                fill="#f2f5e9" fill-opacity="0.5" stroke="#606060" stroke-width="1.0"/>
           <path id="arrow"
             d="M 11.500037,31.436501 C 11.940474,20.09759 22.043105,11.32322 32.158766,21.979434 L 37.068811,17.246167 C 37.068811,17.246167 37.088388,32 37.088388,32 L 22.160133,31.978069 C 22.160133,31.978069 26.997745,27.140456 26.997745,27.140456 C 18.528582,18.264221 13.291696,25.230495 11.500037,31.436501 z"
             style="fill:#404040;"/>
          </a>
         </g>
        </svg>
</svg>
