<?xml version="1.0" encoding="UTF-8" standalone="no"?>
<!DOCTYPE svg PUBLIC "-//W3C//DTD SVG 1.1//EN"
 "http://www.w3.org/Graphics/SVG/1.1/DTD/svg11.dtd">
<!-- Generated by graphviz version 2.43.0 (0)
 -->
<!-- Title: library/eazyai/inc Pages: 1 -->
<svg width="254pt" height="183pt"
 viewBox="0.00 0.00 254.00 183.00" xmlns="http://www.w3.org/2000/svg" xmlns:xlink="http://www.w3.org/1999/xlink">
<g id="graph0" class="graph" transform="scale(1 1) rotate(0) translate(4 179)">
<title>library/eazyai/inc</title>
<g id="clust1" class="cluster">
<title>clusterdir_713b7c5dd74694396cbdb5646e58cfcc</title>
<g id="a_clust1"><a xlink:href="dir_713b7c5dd74694396cbdb5646e58cfcc.html" target="_top" xlink:title="eazyai">
<polygon fill="#ddddee" stroke="black" points="8,-8 8,-167 238,-167 238,-8 8,-8"/>
<text text-anchor="middle" x="123" y="-155" font-family="Helvetica,sans-Serif" font-size="10.00">eazyai</text>
</a>
</g>
</g>
<g id="clust2" class="cluster">
<title>clusterdir_2b047f215ead9136ddc440ecdd3fa669</title>
<g id="a_clust2"><a xlink:href="dir_2b047f215ead9136ddc440ecdd3fa669.html" target="_top">
<polygon fill="#eeeeff" stroke="black" points="16,-16 16,-140 230,-140 230,-16 16,-16"/>
</a>
</g>
</g>
<!-- dir_2b047f215ead9136ddc440ecdd3fa669 -->
<g id="node1" class="node">
<title>dir_2b047f215ead9136ddc440ecdd3fa669</title>
<text text-anchor="middle" x="123" y="-111.5" font-family="Helvetica,sans-Serif" font-size="10.00">inc</text>
</g>
<!-- dir_3e74ce5ad6b8c2740a01325d6f5a2e17 -->
<g id="node2" class="node">
<title>dir_3e74ce5ad6b8c2740a01325d6f5a2e17</title>
<g id="a_node2"><a xlink:href="dir_3e74ce5ad6b8c2740a01325d6f5a2e17.html" target="_top" xlink:title="comm">
<polygon fill="white" stroke="black" points="78,-60 24,-60 24,-24 78,-24 78,-60"/>
<text text-anchor="middle" x="51" y="-39.5" font-family="Helvetica,sans-Serif" font-size="10.00">comm</text>
</a>
</g>
</g>
<!-- dir_2b047f215ead9136ddc440ecdd3fa669&#45;&gt;dir_3e74ce5ad6b8c2740a01325d6f5a2e17 -->
<g id="edge2" class="edge">
<title>dir_2b047f215ead9136ddc440ecdd3fa669&#45;&gt;dir_3e74ce5ad6b8c2740a01325d6f5a2e17</title>
<path fill="none" stroke="black" d="M105.2,-95.7C96.4,-87.14 85.62,-76.66 76,-67.3"/>
<polygon fill="black" stroke="black" points="78.2,-64.57 68.59,-60.1 73.32,-69.58 78.2,-64.57"/>
<g id="a_edge2&#45;headlabel"><a xlink:href="dir_000014_000015.html" target="_top" xlink:title="1">
<text text-anchor="middle" x="82.76" y="-62.54" font-family="Helvetica,sans-Serif" font-size="10.00">1</text>
</a>
</g>
</g>
<!-- dir_8b5fe549db50b7e34cac4a4651fa20e5 -->
<g id="node3" class="node">
<title>dir_8b5fe549db50b7e34cac4a4651fa20e5</title>
<g id="a_node3"><a xlink:href="dir_8b5fe549db50b7e34cac4a4651fa20e5.html" target="_top" xlink:title="core">
<polygon fill="white" stroke="black" points="150,-60 96,-60 96,-24 150,-24 150,-60"/>
<text text-anchor="middle" x="123" y="-39.5" font-family="Helvetica,sans-Serif" font-size="10.00">core</text>
</a>
</g>
</g>
<!-- dir_2b047f215ead9136ddc440ecdd3fa669&#45;&gt;dir_8b5fe549db50b7e34cac4a4651fa20e5 -->
<g id="edge3" class="edge">
<title>dir_2b047f215ead9136ddc440ecdd3fa669&#45;&gt;dir_8b5fe549db50b7e34cac4a4651fa20e5</title>
<path fill="none" stroke="black" d="M123,-95.7C123,-87.98 123,-78.71 123,-70.11"/>
<polygon fill="black" stroke="black" points="126.5,-70.1 123,-60.1 119.5,-70.1 126.5,-70.1"/>
<g id="a_edge3&#45;headlabel"><a xlink:href="dir_000014_000016.html" target="_top" xlink:title="1">
<text text-anchor="middle" x="129.34" y="-71.2" font-family="Helvetica,sans-Serif" font-size="10.00">1</text>
</a>
</g>
</g>
<!-- dir_a161bdd0c928e17c4bb4246cb118fc6e -->
<g id="node4" class="node">
<title>dir_a161bdd0c928e17c4bb4246cb118fc6e</title>
<g id="a_node4"><a xlink:href="dir_a161bdd0c928e17c4bb4246cb118fc6e.html" target="_top" xlink:title="utils">
<polygon fill="white" stroke="black" points="222,-60 168,-60 168,-24 222,-24 222,-60"/>
<text text-anchor="middle" x="195" y="-39.5" font-family="Helvetica,sans-Serif" font-size="10.00">utils</text>
</a>
</g>
</g>
<!-- dir_2b047f215ead9136ddc440ecdd3fa669&#45;&gt;dir_a161bdd0c928e17c4bb4246cb118fc6e -->
<g id="edge1" class="edge">
<title>dir_2b047f215ead9136ddc440ecdd3fa669&#45;&gt;dir_a161bdd0c928e17c4bb4246cb118fc6e</title>
<path fill="none" stroke="black" d="M140.8,-95.7C149.6,-87.14 160.38,-76.66 170,-67.3"/>
<polygon fill="black" stroke="black" points="172.68,-69.58 177.41,-60.1 167.8,-64.57 172.68,-69.58"/>
<g id="a_edge1&#45;headlabel"><a xlink:href="dir_000014_000017.html" target="_top" xlink:title="1">
<text text-anchor="middle" x="172.08" y="-71.63" font-family="Helvetica,sans-Serif" font-size="10.00">1</text>
</a>
</g>
</g>
</g>
</svg>
