<?xml version="1.0" encoding="UTF-8" standalone="no"?>
<!DOCTYPE svg PUBLIC "-//W3C//DTD SVG 1.1//EN"
 "http://www.w3.org/Graphics/SVG/1.1/DTD/svg11.dtd">
<!-- Generated by graphviz version 2.43.0 (0)
 -->
<!-- Title: Graphical Class Hierarchy Pages: 1 -->
<svg width="489pt" height="199pt"
 viewBox="0.00 0.00 489.00 199.00" xmlns="http://www.w3.org/2000/svg" xmlns:xlink="http://www.w3.org/1999/xlink">
<g id="graph0" class="graph" transform="scale(1 1) rotate(0) translate(4 195)">
<title>Graphical Class Hierarchy</title>
<!-- Node72 -->
<g id="node1" class="node">
<title>Node72</title>
<g id="a_node1"><a xlink:title=" ">
<polygon fill="none" stroke="#bfbfbf" points="2.5,-95.5 2.5,-114.5 64.5,-114.5 64.5,-95.5 2.5,-95.5"/>
<text text-anchor="middle" x="33.5" y="-102.5" font-family="Helvetica,sans-Serif" font-size="10.00">ABCMeta</text>
</a>
</g>
</g>
<!-- Node0 -->
<g id="node2" class="node">
<title>Node0</title>
<g id="a_node2"><a xlink:href="d0/d1d/classcflite_1_1eazyaigen_1_1abstractobj_1_1eazyaigenobject_1_1EazyaiGenObject.html" target="_top" xlink:title=" ">
<polygon fill="none" stroke="black" points="103,-76.5 103,-95.5 203,-95.5 203,-76.5 103,-76.5"/>
<text text-anchor="middle" x="153" y="-83.5" font-family="Helvetica,sans-Serif" font-size="10.00">EazyaiGenObject</text>
</a>
</g>
</g>
<!-- Node72&#45;&gt;Node0 -->
<g id="edge1" class="edge">
<title>Node72&#45;&gt;Node0</title>
<path fill="none" stroke="midnightblue" d="M74.92,-98.46C83.86,-97.02 93.44,-95.47 102.7,-93.97"/>
<polygon fill="midnightblue" stroke="midnightblue" points="74.07,-95.06 64.76,-100.11 75.19,-101.97 74.07,-95.06"/>
</g>
<!-- Node1 -->
<g id="node3" class="node">
<title>Node1</title>
<g id="a_node3"><a xlink:href="d8/d44/classcflite_1_1eazyaigen_1_1abstractobj_1_1eazyaiparserobject_1_1EazyaiParserObject.html" target="_top" xlink:title=" ">
<polygon fill="none" stroke="black" points="239,-152.5 239,-171.5 350,-171.5 350,-152.5 239,-152.5"/>
<text text-anchor="middle" x="294.5" y="-159.5" font-family="Helvetica,sans-Serif" font-size="10.00">EazyaiParserObject</text>
</a>
</g>
</g>
<!-- Node0&#45;&gt;Node1 -->
<g id="edge2" class="edge">
<title>Node0&#45;&gt;Node1</title>
<path fill="none" stroke="midnightblue" d="M174.46,-101.9C191.14,-114.31 215.66,-131.35 239,-143 246.17,-146.58 254.18,-149.78 261.81,-152.48"/>
<polygon fill="midnightblue" stroke="midnightblue" points="176.15,-98.79 166.06,-95.55 171.92,-104.37 176.15,-98.79"/>
</g>
<!-- Node4 -->
<g id="node6" class="node">
<title>Node4</title>
<g id="a_node6"><a xlink:href="d0/d6f/classcflite_1_1eazyaigen_1_1cavalrygen_1_1CavalryGen.html" target="_top" xlink:title=" ">
<polygon fill="none" stroke="black" points="257.5,-114.5 257.5,-133.5 331.5,-133.5 331.5,-114.5 257.5,-114.5"/>
<text text-anchor="middle" x="294.5" y="-121.5" font-family="Helvetica,sans-Serif" font-size="10.00">CavalryGen</text>
</a>
</g>
</g>
<!-- Node0&#45;&gt;Node4 -->
<g id="edge5" class="edge">
<title>Node0&#45;&gt;Node4</title>
<path fill="none" stroke="midnightblue" d="M198.96,-98.25C218.18,-103.48 240.3,-109.51 258.31,-114.41"/>
<polygon fill="midnightblue" stroke="midnightblue" points="199.77,-94.84 189.2,-95.59 197.93,-101.59 199.77,-94.84"/>
</g>
<!-- Node5 -->
<g id="node7" class="node">
<title>Node5</title>
<g id="a_node7"><a xlink:href="d5/d47/classcflite_1_1eazyaigen_1_1layercompare_1_1LayerCompare.html" target="_top" xlink:title=" ">
<polygon fill="none" stroke="black" points="250.5,-76.5 250.5,-95.5 338.5,-95.5 338.5,-76.5 250.5,-76.5"/>
<text text-anchor="middle" x="294.5" y="-83.5" font-family="Helvetica,sans-Serif" font-size="10.00">LayerCompare</text>
</a>
</g>
</g>
<!-- Node0&#45;&gt;Node5 -->
<g id="edge6" class="edge">
<title>Node0&#45;&gt;Node5</title>
<path fill="none" stroke="midnightblue" d="M213.45,-86C225.83,-86 238.66,-86 250.33,-86"/>
<polygon fill="midnightblue" stroke="midnightblue" points="213.18,-82.5 203.18,-86 213.18,-89.5 213.18,-82.5"/>
</g>
<!-- Node6 -->
<g id="node8" class="node">
<title>Node6</title>
<g id="a_node8"><a xlink:href="db/deb/classcflite_1_1eazyaigen_1_1theoryperf_1_1TheoryPerf.html" target="_top" xlink:title=" ">
<polygon fill="none" stroke="black" points="259.5,-38.5 259.5,-57.5 329.5,-57.5 329.5,-38.5 259.5,-38.5"/>
<text text-anchor="middle" x="294.5" y="-45.5" font-family="Helvetica,sans-Serif" font-size="10.00">TheoryPerf</text>
</a>
</g>
</g>
<!-- Node0&#45;&gt;Node6 -->
<g id="edge7" class="edge">
<title>Node0&#45;&gt;Node6</title>
<path fill="none" stroke="midnightblue" d="M199.11,-73.71C218.65,-68.39 241.14,-62.26 259.27,-57.32"/>
<polygon fill="midnightblue" stroke="midnightblue" points="197.93,-70.41 189.2,-76.41 199.77,-77.16 197.93,-70.41"/>
</g>
<!-- Node7 -->
<g id="node9" class="node">
<title>Node7</title>
<g id="a_node9"><a xlink:href="d9/d70/classcflite_1_1eazyaigen_1_1vas_1_1VAS.html" target="_top" xlink:title=" ">
<polygon fill="none" stroke="black" points="276.5,-0.5 276.5,-19.5 312.5,-19.5 312.5,-0.5 276.5,-0.5"/>
<text text-anchor="middle" x="294.5" y="-7.5" font-family="Helvetica,sans-Serif" font-size="10.00">VAS</text>
</a>
</g>
</g>
<!-- Node0&#45;&gt;Node7 -->
<g id="edge8" class="edge">
<title>Node0&#45;&gt;Node7</title>
<path fill="none" stroke="midnightblue" d="M174.46,-70.1C191.14,-57.69 215.66,-40.65 239,-29 251.01,-23 265.38,-18.08 276.35,-14.75"/>
<polygon fill="midnightblue" stroke="midnightblue" points="171.92,-67.63 166.06,-76.45 176.15,-73.21 171.92,-67.63"/>
</g>
<!-- Node2 -->
<g id="node4" class="node">
<title>Node2</title>
<g id="a_node4"><a xlink:href="d5/d76/classcflite_1_1eazyaigen_1_1cvbackend_1_1CVFlowBackend.html" target="_top" xlink:title=" ">
<polygon fill="none" stroke="black" points="386,-171.5 386,-190.5 481,-190.5 481,-171.5 386,-171.5"/>
<text text-anchor="middle" x="433.5" y="-178.5" font-family="Helvetica,sans-Serif" font-size="10.00">CVFlowBackend</text>
</a>
</g>
</g>
<!-- Node1&#45;&gt;Node2 -->
<g id="edge3" class="edge">
<title>Node1&#45;&gt;Node2</title>
<path fill="none" stroke="midnightblue" d="M360.09,-170.96C368.71,-172.15 377.42,-173.36 385.66,-174.5"/>
<polygon fill="midnightblue" stroke="midnightblue" points="360.43,-167.47 350.04,-169.56 359.46,-174.4 360.43,-167.47"/>
</g>
<!-- Node3 -->
<g id="node5" class="node">
<title>Node3</title>
<g id="a_node5"><a xlink:href="d0/dd9/classcflite_1_1eazyaigen_1_1parser_1_1Parser.html" target="_top" xlink:title=" ">
<polygon fill="none" stroke="black" points="410,-133.5 410,-152.5 457,-152.5 457,-133.5 410,-133.5"/>
<text text-anchor="middle" x="433.5" y="-140.5" font-family="Helvetica,sans-Serif" font-size="10.00">Parser</text>
</a>
</g>
</g>
<!-- Node1&#45;&gt;Node3 -->
<g id="edge4" class="edge">
<title>Node1&#45;&gt;Node3</title>
<path fill="none" stroke="midnightblue" d="M360.43,-152.99C378.21,-150.53 396.31,-148.02 409.92,-146.13"/>
<polygon fill="midnightblue" stroke="midnightblue" points="359.46,-149.6 350.04,-154.44 360.43,-156.53 359.46,-149.6"/>
</g>
<!-- Node11 -->
<g id="node10" class="node">
<title>Node11</title>
<g id="a_node10"><a xlink:title=" ">
<polygon fill="none" stroke="#bfbfbf" points="0,-57.5 0,-76.5 67,-76.5 67,-57.5 0,-57.5"/>
<text text-anchor="middle" x="33.5" y="-64.5" font-family="Helvetica,sans-Serif" font-size="10.00">metaclass</text>
</a>
</g>
</g>
<!-- Node11&#45;&gt;Node0 -->
<g id="edge9" class="edge">
<title>Node11&#45;&gt;Node0</title>
<path fill="none" stroke="midnightblue" d="M77.1,-73.89C85.43,-75.24 94.22,-76.66 102.74,-78.03"/>
<polygon fill="midnightblue" stroke="midnightblue" points="77.66,-70.43 67.23,-72.29 76.54,-77.34 77.66,-70.43"/>
</g>
</g>
</svg>
