<?xml version="1.0" encoding="UTF-8" standalone="no"?>
<!DOCTYPE svg PUBLIC "-//W3C//DTD SVG 1.1//EN"
 "http://www.w3.org/Graphics/SVG/1.1/DTD/svg11.dtd">
<!-- Generated by graphviz version 2.43.0 (0)
 -->
<!-- Title: Graphical Class Hierarchy Pages: 1 -->
<svg width="221pt" height="66pt"
 viewBox="0.00 0.00 221.00 66.00" xmlns="http://www.w3.org/2000/svg" xmlns:xlink="http://www.w3.org/1999/xlink">
<g id="graph0" class="graph" transform="scale(1 1) rotate(0) translate(4 62)">
<title>Graphical Class Hierarchy</title>
<!-- Node69 -->
<g id="node1" class="node">
<title>Node69</title>
<g id="a_node1"><a xlink:title=" ">
<polygon fill="none" stroke="#bfbfbf" points="0,-19.5 0,-38.5 94,-38.5 94,-19.5 0,-19.5"/>
<text text-anchor="middle" x="47" y="-26.5" font-family="Helvetica,sans-Serif" font-size="10.00">EazyAIInfObject</text>
</a>
</g>
</g>
<!-- Node0 -->
<g id="node2" class="node">
<title>Node0</title>
<g id="a_node2"><a xlink:href="d5/de0/classcflite_1_1eazyaiinf_1_1dummymode_1_1DummyMode.html" target="_top" xlink:title=" ">
<polygon fill="none" stroke="black" points="130,-38.5 130,-57.5 213,-57.5 213,-38.5 130,-38.5"/>
<text text-anchor="middle" x="171.5" y="-45.5" font-family="Helvetica,sans-Serif" font-size="10.00">DummyMode</text>
</a>
</g>
</g>
<!-- Node69&#45;&gt;Node0 -->
<g id="edge1" class="edge">
<title>Node69&#45;&gt;Node0</title>
<path fill="none" stroke="midnightblue" d="M104.29,-37.73C112.87,-39.06 121.58,-40.41 129.75,-41.68"/>
<polygon fill="midnightblue" stroke="midnightblue" points="104.73,-34.26 94.31,-36.18 103.66,-41.17 104.73,-34.26"/>
</g>
<!-- Node71 -->
<g id="node3" class="node">
<title>Node71</title>
<g id="a_node3"><a xlink:href="dd/d96/classcflite_1_1eazyaiinf_1_1livemode_1_1LiveMode.html" target="_top" xlink:title=" ">
<polygon fill="none" stroke="black" points="139.5,-0.5 139.5,-19.5 203.5,-19.5 203.5,-0.5 139.5,-0.5"/>
<text text-anchor="middle" x="171.5" y="-7.5" font-family="Helvetica,sans-Serif" font-size="10.00">LiveMode</text>
</a>
</g>
</g>
<!-- Node69&#45;&gt;Node71 -->
<g id="edge2" class="edge">
<title>Node69&#45;&gt;Node71</title>
<path fill="none" stroke="midnightblue" d="M104.33,-20.26C116.37,-18.4 128.66,-16.49 139.34,-14.83"/>
<polygon fill="midnightblue" stroke="midnightblue" points="103.66,-16.83 94.31,-21.82 104.73,-23.74 103.66,-16.83"/>
</g>
</g>
</svg>
