<?xml version="1.0" encoding="UTF-8" standalone="no"?>
<!DOCTYPE svg PUBLIC "-//W3C//DTD SVG 1.1//EN"
 "http://www.w3.org/Graphics/SVG/1.1/DTD/svg11.dtd">
<!-- Generated by graphviz version 2.43.0 (0)
 -->
<!-- Title: library/eazyai/inc/core/eazyai_core.h Pages: 1 -->
<svg width="634pt" height="95pt"
 viewBox="0.00 0.00 634.00 95.00" xmlns="http://www.w3.org/2000/svg" xmlns:xlink="http://www.w3.org/1999/xlink">
<g id="graph0" class="graph" transform="scale(1 1) rotate(0) translate(4 91)">
<title>library/eazyai/inc/core/eazyai_core.h</title>
<!-- Node1 -->
<g id="node1" class="node">
<title>Node1</title>
<g id="a_node1"><a xlink:title="The public interfaces of EazyAI Core framwork.">
<polygon fill="#bfbfbf" stroke="black" points="245.5,-56.5 245.5,-86.5 356.5,-86.5 356.5,-56.5 245.5,-56.5"/>
<text text-anchor="start" x="253.5" y="-74.5" font-family="Helvetica,sans-Serif" font-size="10.00">library/eazyai/inc</text>
<text text-anchor="middle" x="301" y="-63.5" font-family="Helvetica,sans-Serif" font-size="10.00">/core/eazyai_core.h</text>
</a>
</g>
</g>
<!-- Node2 -->
<g id="node2" class="node">
<title>Node2</title>
<g id="a_node2"><a xlink:href="../../d4/dd7/ea__log_8h.html" target="_top" xlink:title="The interface of EazyAI Log.">
<polygon fill="none" stroke="black" points="0,-0.5 0,-19.5 58,-19.5 58,-0.5 0,-0.5"/>
<text text-anchor="middle" x="29" y="-7.5" font-family="Helvetica,sans-Serif" font-size="10.00">ea_log.h</text>
</a>
</g>
</g>
<!-- Node1&#45;&gt;Node2 -->
<g id="edge1" class="edge">
<title>Node1&#45;&gt;Node2</title>
<path fill="none" stroke="midnightblue" d="M245.14,-58.77C199.91,-49.2 134.31,-35.15 67.84,-20.16"/>
<polygon fill="midnightblue" stroke="midnightblue" points="68.56,-16.73 58.03,-17.94 67.01,-23.56 68.56,-16.73"/>
</g>
<!-- Node3 -->
<g id="node3" class="node">
<title>Node3</title>
<g id="a_node3"><a xlink:href="../../de/d0e/ea__env_8h.html" target="_top" xlink:title="The interface of EazyAI Environment.">
<polygon fill="none" stroke="black" points="76,-0.5 76,-19.5 136,-19.5 136,-0.5 76,-0.5"/>
<text text-anchor="middle" x="106" y="-7.5" font-family="Helvetica,sans-Serif" font-size="10.00">ea_env.h</text>
</a>
</g>
</g>
<!-- Node1&#45;&gt;Node3 -->
<g id="edge2" class="edge">
<title>Node1&#45;&gt;Node3</title>
<path fill="none" stroke="midnightblue" d="M254.79,-56.4C220.95,-46.07 175.58,-32.23 143.87,-22.56"/>
<polygon fill="midnightblue" stroke="midnightblue" points="144.68,-19.14 134.09,-19.57 142.63,-25.84 144.68,-19.14"/>
</g>
<!-- Node4 -->
<g id="node4" class="node">
<title>Node4</title>
<g id="a_node4"><a xlink:href="../../d1/d3f/ea__tensor_8h.html" target="_top" xlink:title="The interface of EazyAI tensor.">
<polygon fill="none" stroke="black" points="154,-0.5 154,-19.5 228,-19.5 228,-0.5 154,-0.5"/>
<text text-anchor="middle" x="191" y="-7.5" font-family="Helvetica,sans-Serif" font-size="10.00">ea_tensor.h</text>
</a>
</g>
</g>
<!-- Node1&#45;&gt;Node4 -->
<g id="edge3" class="edge">
<title>Node1&#45;&gt;Node4</title>
<path fill="none" stroke="midnightblue" d="M274.93,-56.4C257.13,-46.77 233.69,-34.09 216.1,-24.58"/>
<polygon fill="midnightblue" stroke="midnightblue" points="217.47,-21.34 207.01,-19.66 214.14,-27.49 217.47,-21.34"/>
</g>
<!-- Node5 -->
<g id="node5" class="node">
<title>Node5</title>
<g id="a_node5"><a xlink:href="../../d3/d47/ea__img__resource_8h.html" target="_top" xlink:title="The interface of EazyAI Image Resource.">
<polygon fill="none" stroke="black" points="246.5,-0.5 246.5,-19.5 355.5,-19.5 355.5,-0.5 246.5,-0.5"/>
<text text-anchor="middle" x="301" y="-7.5" font-family="Helvetica,sans-Serif" font-size="10.00">ea_img_resource.h</text>
</a>
</g>
</g>
<!-- Node1&#45;&gt;Node5 -->
<g id="edge4" class="edge">
<title>Node1&#45;&gt;Node5</title>
<path fill="none" stroke="midnightblue" d="M301,-56.4C301,-48.47 301,-38.46 301,-29.86"/>
<polygon fill="midnightblue" stroke="midnightblue" points="304.5,-29.66 301,-19.66 297.5,-29.66 304.5,-29.66"/>
</g>
<!-- Node6 -->
<g id="node6" class="node">
<title>Node6</title>
<g id="a_node6"><a xlink:href="../../d7/d5e/ea__preprocess_8h.html" target="_top" xlink:title="The interface of EazyAI Preprocess.">
<polygon fill="none" stroke="black" points="374,-0.5 374,-19.5 470,-19.5 470,-0.5 374,-0.5"/>
<text text-anchor="middle" x="422" y="-7.5" font-family="Helvetica,sans-Serif" font-size="10.00">ea_preprocess.h</text>
</a>
</g>
</g>
<!-- Node1&#45;&gt;Node6 -->
<g id="edge5" class="edge">
<title>Node1&#45;&gt;Node6</title>
<path fill="none" stroke="midnightblue" d="M329.68,-56.4C349.52,-46.64 375.76,-33.74 395.19,-24.18"/>
<polygon fill="midnightblue" stroke="midnightblue" points="396.96,-27.21 404.39,-19.66 393.88,-20.93 396.96,-27.21"/>
</g>
<!-- Node7 -->
<g id="node7" class="node">
<title>Node7</title>
<g id="a_node7"><a xlink:href="../../d1/d6c/ea__net_8h.html" target="_top" xlink:title="The interface of EazyAI Network.">
<polygon fill="none" stroke="black" points="488.5,-0.5 488.5,-19.5 547.5,-19.5 547.5,-0.5 488.5,-0.5"/>
<text text-anchor="middle" x="518" y="-7.5" font-family="Helvetica,sans-Serif" font-size="10.00">ea_net.h</text>
</a>
</g>
</g>
<!-- Node1&#45;&gt;Node7 -->
<g id="edge6" class="edge">
<title>Node1&#45;&gt;Node7</title>
<path fill="none" stroke="midnightblue" d="M352.15,-56.47C390.7,-45.91 442.8,-31.62 478.25,-21.9"/>
<polygon fill="midnightblue" stroke="midnightblue" points="479.51,-25.18 488.23,-19.16 477.66,-18.43 479.51,-25.18"/>
</g>
<!-- Node8 -->
<g id="node8" class="node">
<title>Node8</title>
<g id="a_node8"><a xlink:href="../../d3/d08/ea__osd_8h.html" target="_top" xlink:title="The interface of EazyAI OSD (on screen/stream display).">
<polygon fill="none" stroke="black" points="566,-0.5 566,-19.5 626,-19.5 626,-0.5 566,-0.5"/>
<text text-anchor="middle" x="596" y="-7.5" font-family="Helvetica,sans-Serif" font-size="10.00">ea_osd.h</text>
</a>
</g>
</g>
<!-- Node1&#45;&gt;Node8 -->
<g id="edge7" class="edge">
<title>Node1&#45;&gt;Node8</title>
<path fill="none" stroke="midnightblue" d="M356.54,-60.08C406.23,-50.63 481.32,-36.06 555.77,-20.21"/>
<polygon fill="midnightblue" stroke="midnightblue" points="556.74,-23.59 565.79,-18.07 555.28,-16.74 556.74,-23.59"/>
</g>
</g>
</svg>
