<?xml version="1.0" encoding="UTF-8" standalone="no"?>
<!DOCTYPE svg PUBLIC "-//W3C//DTD SVG 1.1//EN"
 "http://www.w3.org/Graphics/SVG/1.1/DTD/svg11.dtd">
<!-- Generated by graphviz version 2.43.0 (0)
 -->
<!-- Title: connect Pages: 1 -->
<svg width="335pt" height="323pt"
 viewBox="0.00 0.00 335.00 323.00" xmlns="http://www.w3.org/2000/svg" xmlns:xlink="http://www.w3.org/1999/xlink">
<g id="graph0" class="graph" transform="scale(1 1) rotate(0) translate(4 319)">
<title>connect</title>
<!-- Node1 -->
<g id="node1" class="node">
<title>Node1</title>
<g id="a_node1"><a xlink:title=" ">
<polygon fill="#bfbfbf" stroke="black" points="272,-153 272,-172 327,-172 327,-153 272,-153"/>
<text text-anchor="middle" x="299.5" y="-160" font-family="Helvetica,sans-Serif" font-size="10.00">connect</text>
</a>
</g>
</g>
<!-- Node2 -->
<g id="node2" class="node">
<title>Node2</title>
<g id="a_node2"><a xlink:href="../../d6/d1b/classcflite_1_1eazyaisys_1_1filesession_1_1FileSession.html#a8468a4a3feb2014c9ecc03033362b346" target="_top" xlink:title=" ">
<polygon fill="none" stroke="black" points="84,-284.5 84,-314.5 236,-314.5 236,-284.5 84,-284.5"/>
<text text-anchor="start" x="92" y="-302.5" font-family="Helvetica,sans-Serif" font-size="10.00">cflite.eazyaisys.filesession.</text>
<text text-anchor="middle" x="160" y="-291.5" font-family="Helvetica,sans-Serif" font-size="10.00">FileSession.download_dir</text>
</a>
</g>
</g>
<!-- Node1&#45;&gt;Node2 -->
<g id="edge1" class="edge">
<title>Node1&#45;&gt;Node2</title>
<path fill="none" stroke="midnightblue" d="M292.68,-182.14C284.23,-207.33 266.18,-250.71 236,-275.5 231.77,-278.97 227.04,-281.94 222.05,-284.49"/>
<polygon fill="midnightblue" stroke="midnightblue" points="296.12,-182.86 295.81,-172.27 289.45,-180.74 296.12,-182.86"/>
</g>
<!-- Node3 -->
<g id="node3" class="node">
<title>Node3</title>
<g id="a_node3"><a xlink:href="../../d6/d1b/classcflite_1_1eazyaisys_1_1filesession_1_1FileSession.html#a2cc4f6189eafeec632e50522c87b73f5" target="_top" xlink:title=" ">
<polygon fill="none" stroke="black" points="84,-235.5 84,-265.5 236,-265.5 236,-235.5 84,-235.5"/>
<text text-anchor="start" x="92" y="-253.5" font-family="Helvetica,sans-Serif" font-size="10.00">cflite.eazyaisys.filesession.</text>
<text text-anchor="middle" x="160" y="-242.5" font-family="Helvetica,sans-Serif" font-size="10.00">FileSession.download_file</text>
</a>
</g>
</g>
<!-- Node1&#45;&gt;Node3 -->
<g id="edge2" class="edge">
<title>Node1&#45;&gt;Node3</title>
<path fill="none" stroke="midnightblue" d="M284.72,-180.43C273.09,-194.45 255.29,-213.52 236,-225.5 229.94,-229.26 223.24,-232.53 216.42,-235.35"/>
<polygon fill="midnightblue" stroke="midnightblue" points="287.59,-182.44 291.12,-172.45 282.13,-178.06 287.59,-182.44"/>
</g>
<!-- Node4 -->
<g id="node4" class="node">
<title>Node4</title>
<g id="a_node4"><a xlink:href="../../de/ddc/classcflite_1_1eazyaisys_1_1cmdsession_1_1Session.html#ac6af06f8d5e41d87317ea56cf8e5ea7f" target="_top" xlink:title=" ">
<polygon fill="none" stroke="black" points="127.5,-197 127.5,-216 192.5,-216 192.5,-197 127.5,-197"/>
<text text-anchor="middle" x="160" y="-204" font-family="Helvetica,sans-Serif" font-size="10.00">reconnect</text>
</a>
</g>
</g>
<!-- Node1&#45;&gt;Node4 -->
<g id="edge3" class="edge">
<title>Node1&#45;&gt;Node4</title>
<path fill="none" stroke="midnightblue" d="M267.32,-175.91C257.41,-179.92 246.34,-184.14 236,-187.5 221.95,-192.07 206.13,-196.22 192.65,-199.47"/>
<polygon fill="midnightblue" stroke="midnightblue" points="268.87,-179.06 276.78,-172.01 266.2,-172.59 268.87,-179.06"/>
</g>
<!-- Node6 -->
<g id="node6" class="node">
<title>Node6</title>
<g id="a_node6"><a xlink:href="../../d6/d1b/classcflite_1_1eazyaisys_1_1filesession_1_1FileSession.html#aa40eb25b36c0bf6bb2cb3f9231ec0c56" target="_top" xlink:title=" ">
<polygon fill="none" stroke="black" points="84,-147.5 84,-177.5 236,-177.5 236,-147.5 84,-147.5"/>
<text text-anchor="start" x="92" y="-165.5" font-family="Helvetica,sans-Serif" font-size="10.00">cflite.eazyaisys.filesession.</text>
<text text-anchor="middle" x="160" y="-154.5" font-family="Helvetica,sans-Serif" font-size="10.00">FileSession.remove_file</text>
</a>
</g>
</g>
<!-- Node1&#45;&gt;Node6 -->
<g id="edge5" class="edge">
<title>Node1&#45;&gt;Node6</title>
<path fill="none" stroke="midnightblue" d="M261.89,-162.5C253.83,-162.5 245.02,-162.5 236.06,-162.5"/>
<polygon fill="midnightblue" stroke="midnightblue" points="261.99,-166 271.99,-162.5 261.99,-159 261.99,-166"/>
</g>
<!-- Node7 -->
<g id="node7" class="node">
<title>Node7</title>
<g id="a_node7"><a xlink:href="../../d6/d1b/classcflite_1_1eazyaisys_1_1filesession_1_1FileSession.html#a561fc8c6a55624ed51d4c46028650a0d" target="_top" xlink:title=" ">
<polygon fill="none" stroke="black" points="84,-98.5 84,-128.5 236,-128.5 236,-98.5 84,-98.5"/>
<text text-anchor="start" x="92" y="-116.5" font-family="Helvetica,sans-Serif" font-size="10.00">cflite.eazyaisys.filesession.</text>
<text text-anchor="middle" x="160" y="-105.5" font-family="Helvetica,sans-Serif" font-size="10.00">FileSession.remove_folder</text>
</a>
</g>
</g>
<!-- Node1&#45;&gt;Node7 -->
<g id="edge6" class="edge">
<title>Node1&#45;&gt;Node7</title>
<path fill="none" stroke="midnightblue" d="M264.9,-149.28C255.57,-145.7 245.42,-141.88 236,-138.5 226.7,-135.17 216.7,-131.73 207.12,-128.51"/>
<polygon fill="midnightblue" stroke="midnightblue" points="263.67,-152.56 274.26,-152.9 266.19,-146.03 263.67,-152.56"/>
</g>
<!-- Node8 -->
<g id="node8" class="node">
<title>Node8</title>
<g id="a_node8"><a xlink:href="../../d6/d1b/classcflite_1_1eazyaisys_1_1filesession_1_1FileSession.html#a600e652a76df71f5a7bcad5be0850f51" target="_top" xlink:title=" ">
<polygon fill="none" stroke="black" points="84,-49.5 84,-79.5 236,-79.5 236,-49.5 84,-49.5"/>
<text text-anchor="start" x="92" y="-67.5" font-family="Helvetica,sans-Serif" font-size="10.00">cflite.eazyaisys.filesession.</text>
<text text-anchor="middle" x="160" y="-56.5" font-family="Helvetica,sans-Serif" font-size="10.00">FileSession.upload_dir</text>
</a>
</g>
</g>
<!-- Node1&#45;&gt;Node8 -->
<g id="edge7" class="edge">
<title>Node1&#45;&gt;Node8</title>
<path fill="none" stroke="midnightblue" d="M287.11,-144.27C275.96,-127.8 257.52,-103.98 236,-89.5 230.31,-85.67 223.98,-82.38 217.47,-79.57"/>
<polygon fill="midnightblue" stroke="midnightblue" points="284.41,-146.54 292.81,-153 290.27,-142.71 284.41,-146.54"/>
</g>
<!-- Node9 -->
<g id="node9" class="node">
<title>Node9</title>
<g id="a_node9"><a xlink:href="../../d6/d1b/classcflite_1_1eazyaisys_1_1filesession_1_1FileSession.html#aafeb4849d537bce345eee27e4fa9549f" target="_top" xlink:title=" ">
<polygon fill="none" stroke="black" points="84,-0.5 84,-30.5 236,-30.5 236,-0.5 84,-0.5"/>
<text text-anchor="start" x="92" y="-18.5" font-family="Helvetica,sans-Serif" font-size="10.00">cflite.eazyaisys.filesession.</text>
<text text-anchor="middle" x="160" y="-7.5" font-family="Helvetica,sans-Serif" font-size="10.00">FileSession.upload_file</text>
</a>
</g>
</g>
<!-- Node1&#45;&gt;Node9 -->
<g id="edge8" class="edge">
<title>Node1&#45;&gt;Node9</title>
<path fill="none" stroke="midnightblue" d="M293.52,-142.9C285.71,-116.05 268.05,-68.03 236,-40.5 231.52,-36.65 226.43,-33.4 221.06,-30.64"/>
<polygon fill="midnightblue" stroke="midnightblue" points="290.18,-143.97 296.2,-152.69 296.93,-142.12 290.18,-143.97"/>
</g>
<!-- Node5 -->
<g id="node5" class="node">
<title>Node5</title>
<g id="a_node5"><a xlink:href="../../de/ddc/classcflite_1_1eazyaisys_1_1cmdsession_1_1Session.html#a80d2630effe60da037fd0f0838ea64de" target="_top" xlink:title=" ">
<polygon fill="none" stroke="black" points="0,-197 0,-216 48,-216 48,-197 0,-197"/>
<text text-anchor="middle" x="24" y="-204" font-family="Helvetica,sans-Serif" font-size="10.00">reboot</text>
</a>
</g>
</g>
<!-- Node4&#45;&gt;Node5 -->
<g id="edge4" class="edge">
<title>Node4&#45;&gt;Node5</title>
<path fill="none" stroke="midnightblue" d="M117.15,-206.5C94.39,-206.5 67.09,-206.5 48.14,-206.5"/>
<polygon fill="midnightblue" stroke="midnightblue" points="117.24,-210 127.24,-206.5 117.24,-203 117.24,-210"/>
</g>
</g>
</svg>
