<?xml version="1.0" encoding="UTF-8" standalone="no"?>
<!DOCTYPE svg PUBLIC "-//W3C//DTD SVG 1.1//EN"
 "http://www.w3.org/Graphics/SVG/1.1/DTD/svg11.dtd">
<!-- Generated by graphviz version 2.43.0 (0)
 -->
<!-- Title: generate_commands Pages: 1 -->
<svg width="336pt" height="284pt"
 viewBox="0.00 0.00 336.00 284.00" xmlns="http://www.w3.org/2000/svg" xmlns:xlink="http://www.w3.org/1999/xlink">
<g id="graph0" class="graph" transform="scale(1 1) rotate(0) translate(4 280)">
<title>generate_commands</title>
<!-- Node1 -->
<g id="node1" class="node">
<title>Node1</title>
<g id="a_node1"><a xlink:title=" ">
<polygon fill="#bfbfbf" stroke="black" points="209,-128 209,-147 328,-147 328,-128 209,-128"/>
<text text-anchor="middle" x="268.5" y="-135" font-family="Helvetica,sans-Serif" font-size="10.00">generate_commands</text>
</a>
</g>
</g>
<!-- Node2 -->
<g id="node2" class="node">
<title>Node2</title>
<g id="a_node2"><a xlink:href="../../d5/de0/classcflite_1_1eazyaiinf_1_1dummymode_1_1DummyMode.html#ad22709b2e67308af35f55680d5a026e0" target="_top" xlink:title=" ">
<polygon fill="none" stroke="black" points="6.5,-245.5 6.5,-275.5 166.5,-275.5 166.5,-245.5 6.5,-245.5"/>
<text text-anchor="start" x="14.5" y="-263.5" font-family="Helvetica,sans-Serif" font-size="10.00">cflite.eazyaiinf.dummymode.</text>
<text text-anchor="middle" x="86.5" y="-252.5" font-family="Helvetica,sans-Serif" font-size="10.00">DummyMode.run</text>
</a>
</g>
</g>
<!-- Node1&#45;&gt;Node2 -->
<g id="edge1" class="edge">
<title>Node1&#45;&gt;Node2</title>
<path fill="none" stroke="midnightblue" d="M255.29,-155.24C239.05,-177.49 208.26,-215.31 173,-236.5 167.32,-239.92 161.13,-242.86 154.77,-245.4"/>
<polygon fill="midnightblue" stroke="midnightblue" points="258.2,-157.19 261.15,-147.01 252.5,-153.13 258.2,-157.19"/>
</g>
<!-- Node3 -->
<g id="node3" class="node">
<title>Node3</title>
<g id="a_node3"><a xlink:href="../../dd/d96/classcflite_1_1eazyaiinf_1_1livemode_1_1LiveMode.html#ad22709b2e67308af35f55680d5a026e0" target="_top" xlink:title=" ">
<polygon fill="none" stroke="black" points="16.5,-196.5 16.5,-226.5 156.5,-226.5 156.5,-196.5 16.5,-196.5"/>
<text text-anchor="start" x="24.5" y="-214.5" font-family="Helvetica,sans-Serif" font-size="10.00">cflite.eazyaiinf.livemode.</text>
<text text-anchor="middle" x="86.5" y="-203.5" font-family="Helvetica,sans-Serif" font-size="10.00">LiveMode.run</text>
</a>
</g>
</g>
<!-- Node1&#45;&gt;Node3 -->
<g id="edge2" class="edge">
<title>Node1&#45;&gt;Node3</title>
<path fill="none" stroke="midnightblue" d="M243.21,-152.21C224.51,-163.06 197.77,-177.6 173,-187.5 164.84,-190.76 156.07,-193.76 147.38,-196.45"/>
<polygon fill="midnightblue" stroke="midnightblue" points="245.1,-155.15 251.94,-147.06 241.55,-149.12 245.1,-155.15"/>
</g>
<!-- Node4 -->
<g id="node4" class="node">
<title>Node4</title>
<g id="a_node4"><a xlink:href="../../d7/df3/classcflite_1_1eazyaisys_1_1fastvideo_1_1VideoSession.html#ad22709b2e67308af35f55680d5a026e0" target="_top" xlink:title=" ">
<polygon fill="none" stroke="black" points="14,-147.5 14,-177.5 159,-177.5 159,-147.5 14,-147.5"/>
<text text-anchor="start" x="22" y="-165.5" font-family="Helvetica,sans-Serif" font-size="10.00">cflite.eazyaisys.fastvideo.</text>
<text text-anchor="middle" x="86.5" y="-154.5" font-family="Helvetica,sans-Serif" font-size="10.00">VideoSession.run</text>
</a>
</g>
</g>
<!-- Node1&#45;&gt;Node4 -->
<g id="edge3" class="edge">
<title>Node1&#45;&gt;Node4</title>
<path fill="none" stroke="midnightblue" d="M198.4,-147.1C185.53,-148.88 172.07,-150.75 159.13,-152.55"/>
<polygon fill="midnightblue" stroke="midnightblue" points="199.14,-150.53 208.56,-145.69 198.17,-143.59 199.14,-150.53"/>
</g>
<!-- Node5 -->
<g id="node5" class="node">
<title>Node5</title>
<g id="a_node5"><a xlink:href="../../d5/de0/classcflite_1_1eazyaiinf_1_1dummymode_1_1DummyMode.html#a15180f30e49a79272f83ca50ddd3368f" target="_top" xlink:title=" ">
<polygon fill="none" stroke="black" points="6.5,-98.5 6.5,-128.5 166.5,-128.5 166.5,-98.5 6.5,-98.5"/>
<text text-anchor="start" x="14.5" y="-116.5" font-family="Helvetica,sans-Serif" font-size="10.00">cflite.eazyaiinf.dummymode.</text>
<text text-anchor="middle" x="86.5" y="-105.5" font-family="Helvetica,sans-Serif" font-size="10.00">DummyMode.run_non_block</text>
</a>
</g>
</g>
<!-- Node1&#45;&gt;Node5 -->
<g id="edge4" class="edge">
<title>Node1&#45;&gt;Node5</title>
<path fill="none" stroke="midnightblue" d="M198.64,-128.32C188.14,-126.92 177.23,-125.46 166.53,-124.04"/>
<polygon fill="midnightblue" stroke="midnightblue" points="198.19,-131.79 208.56,-129.64 199.11,-124.85 198.19,-131.79"/>
</g>
<!-- Node6 -->
<g id="node6" class="node">
<title>Node6</title>
<g id="a_node6"><a xlink:href="../../dd/d96/classcflite_1_1eazyaiinf_1_1livemode_1_1LiveMode.html#a15180f30e49a79272f83ca50ddd3368f" target="_top" xlink:title=" ">
<polygon fill="none" stroke="black" points="16.5,-49.5 16.5,-79.5 156.5,-79.5 156.5,-49.5 16.5,-49.5"/>
<text text-anchor="start" x="24.5" y="-67.5" font-family="Helvetica,sans-Serif" font-size="10.00">cflite.eazyaiinf.livemode.</text>
<text text-anchor="middle" x="86.5" y="-56.5" font-family="Helvetica,sans-Serif" font-size="10.00">LiveMode.run_non_block</text>
</a>
</g>
</g>
<!-- Node1&#45;&gt;Node6 -->
<g id="edge5" class="edge">
<title>Node1&#45;&gt;Node6</title>
<path fill="none" stroke="midnightblue" d="M242.09,-122.96C223.4,-112.68 197.15,-99.07 173,-89.5 163.94,-85.91 154.16,-82.57 144.57,-79.58"/>
<polygon fill="midnightblue" stroke="midnightblue" points="240.43,-126.04 250.87,-127.86 243.84,-119.93 240.43,-126.04"/>
</g>
<!-- Node7 -->
<g id="node7" class="node">
<title>Node7</title>
<g id="a_node7"><a xlink:href="../../db/deb/classcflite_1_1eazyaigen_1_1theoryperf_1_1TheoryPerf.html#a08d517af7fce800ad7b5573cdec5a270" target="_top" xlink:title=" ">
<polygon fill="none" stroke="black" points="0,-0.5 0,-30.5 173,-30.5 173,-0.5 0,-0.5"/>
<text text-anchor="start" x="8" y="-18.5" font-family="Helvetica,sans-Serif" font-size="10.00">cflite.eazyaigen.theoryperf.</text>
<text text-anchor="middle" x="86.5" y="-7.5" font-family="Helvetica,sans-Serif" font-size="10.00">TheoryPerf.set_vas_output_path</text>
</a>
</g>
</g>
<!-- Node1&#45;&gt;Node7 -->
<g id="edge6" class="edge">
<title>Node1&#45;&gt;Node7</title>
<path fill="none" stroke="midnightblue" d="M254.92,-119.86C238.5,-98.08 207.71,-61.37 173,-40.5 166.64,-36.67 159.66,-33.4 152.51,-30.62"/>
<polygon fill="midnightblue" stroke="midnightblue" points="252.12,-121.95 260.87,-127.93 257.76,-117.8 252.12,-121.95"/>
</g>
</g>
</svg>
