<?xml version="1.0" encoding="UTF-8" standalone="no"?>
<!DOCTYPE svg PUBLIC "-//W3C//DTD SVG 1.1//EN"
 "http://www.w3.org/Graphics/SVG/1.1/DTD/svg11.dtd">
<!-- Generated by graphviz version 2.43.0 (0)
 -->
<!-- Title: eazyaiinf Pages: 1 -->
<svg width="372pt" height="138pt"
 viewBox="0.00 0.00 372.00 138.00" xmlns="http://www.w3.org/2000/svg" xmlns:xlink="http://www.w3.org/1999/xlink">
<g id="graph0" class="graph" transform="scale(1 1) rotate(0) translate(4 134)">
<title>eazyaiinf</title>
<!-- Node2 -->
<g id="node1" class="node">
<title>Node2</title>
<g id="a_node1"><a xlink:href="../../db/d01/group__cflite-api.html" target="_top" xlink:title="CFLite library API.">
<polygon fill="none" stroke="black" points="101,-74 0,-74 0,-55 101,-55 101,-74"/>
<text text-anchor="middle" x="50.5" y="-62" font-family="Helvetica,sans-Serif" font-size="10.00">CFLite library API</text>
</a>
</g>
</g>
<!-- Node1 -->
<g id="node6" class="node">
<title>Node1</title>
<g id="a_node6"><a xlink:title="Definition of eazyaiinf.">
<polygon fill="#bfbfbf" stroke="black" points="199,-74 137,-74 137,-55 199,-55 199,-74"/>
<text text-anchor="middle" x="168" y="-62" font-family="Helvetica,sans-Serif" font-size="10.00">eazyaiinf</text>
</a>
</g>
</g>
<!-- Node2&#45;&gt;Node1 -->
<g id="edge1" class="edge">
<title>Node2&#45;&gt;Node1</title>
<path fill="none" stroke="black" d="M111.43,-64.5C120.21,-64.5 128.91,-64.5 136.74,-64.5"/>
<polygon fill="black" stroke="black" points="111.15,-61 101.15,-64.5 111.15,-68 111.15,-61"/>
</g>
<!-- Node5 -->
<g id="node2" class="node">
<title>Node5</title>
<g id="a_node2"><a xlink:href="../../d5/d41/group__cflite-eazyaiinf-livemode.html" target="_top" xlink:title="Definition of eazyaiinf.livemode.">
<polygon fill="none" stroke="black" points="354.5,-130 244.5,-130 244.5,-111 354.5,-111 354.5,-130"/>
<text text-anchor="middle" x="299.5" y="-118" font-family="Helvetica,sans-Serif" font-size="10.00">eazyaiinf.livemode</text>
</a>
</g>
</g>
<!-- Node4 -->
<g id="node3" class="node">
<title>Node4</title>
<g id="a_node3"><a xlink:href="../../de/d9a/group__cflite-eazyaiinf-filemode.html" target="_top" xlink:title="Definition of eazyaiinf.filemode.">
<polygon fill="none" stroke="black" points="353,-93 246,-93 246,-74 353,-74 353,-93"/>
<text text-anchor="middle" x="299.5" y="-81" font-family="Helvetica,sans-Serif" font-size="10.00">eazyaiinf.filemode</text>
</a>
</g>
</g>
<!-- Node3 -->
<g id="node4" class="node">
<title>Node3</title>
<g id="a_node4"><a xlink:href="../../dc/dbf/group__cflite-eazyaiinf-dummymode.html" target="_top" xlink:title="Definition of eazyaiinf.dummymode.">
<polygon fill="none" stroke="black" points="364,-56 235,-56 235,-37 364,-37 364,-56"/>
<text text-anchor="middle" x="299.5" y="-44" font-family="Helvetica,sans-Serif" font-size="10.00">eazyaiinf.dummymode</text>
</a>
</g>
</g>
<!-- Node6 -->
<g id="node5" class="node">
<title>Node6</title>
<g id="a_node5"><a xlink:href="../../d8/d05/group__cflite-eazyaiinf-postprocess.html" target="_top" xlink:title="Definition of eazyaiinf.postprocess.">
<polygon fill="none" stroke="black" points="360.5,-19 238.5,-19 238.5,0 360.5,0 360.5,-19"/>
<text text-anchor="middle" x="299.5" y="-7" font-family="Helvetica,sans-Serif" font-size="10.00">eazyaiinf.postprocess</text>
</a>
</g>
</g>
<!-- Node1&#45;&gt;Node5 -->
<g id="edge4" class="edge">
<title>Node1&#45;&gt;Node5</title>
<path fill="none" stroke="black" d="M191.89,-79.55C204.27,-87.2 220.05,-96.19 235,-102.5 242.6,-105.71 250.95,-108.53 259.02,-110.94"/>
<polygon fill="black" stroke="black" points="193.47,-76.41 183.15,-74.02 189.73,-82.32 193.47,-76.41"/>
</g>
<!-- Node1&#45;&gt;Node4 -->
<g id="edge3" class="edge">
<title>Node1&#45;&gt;Node4</title>
<path fill="none" stroke="black" d="M209.25,-70.41C220.81,-72.1 233.59,-73.98 245.78,-75.77"/>
<polygon fill="black" stroke="black" points="209.44,-66.9 199.04,-68.91 208.42,-73.82 209.44,-66.9"/>
</g>
<!-- Node1&#45;&gt;Node3 -->
<g id="edge2" class="edge">
<title>Node1&#45;&gt;Node3</title>
<path fill="none" stroke="black" d="M209.05,-58.93C217.26,-57.79 226.09,-56.57 234.89,-55.34"/>
<polygon fill="black" stroke="black" points="208.46,-55.48 199.04,-60.33 209.42,-62.42 208.46,-55.48"/>
</g>
<!-- Node1&#45;&gt;Node6 -->
<g id="edge5" class="edge">
<title>Node1&#45;&gt;Node6</title>
<path fill="none" stroke="black" d="M192.99,-49.83C205.26,-42.75 220.6,-34.5 235,-28.5 243.5,-24.96 252.88,-21.77 261.78,-19.07"/>
<polygon fill="black" stroke="black" points="191.12,-46.88 184.28,-54.97 194.67,-52.91 191.12,-46.88"/>
</g>
</g>
</svg>
