<?xml version="1.0" encoding="UTF-8" standalone="no"?>
<!DOCTYPE svg PUBLIC "-//W3C//DTD SVG 1.1//EN"
 "http://www.w3.org/Graphics/SVG/1.1/DTD/svg11.dtd">
<!-- Generated by graphviz version 2.43.0 (0)
 -->
<!-- Title: set_app_options Pages: 1 -->
<svg width="465pt" height="180pt"
 viewBox="0.00 0.00 465.00 180.00" xmlns="http://www.w3.org/2000/svg" xmlns:xlink="http://www.w3.org/1999/xlink">
<g id="graph0" class="graph" transform="scale(1 1) rotate(0) translate(4 176)">
<title>set_app_options</title>
<!-- Node1 -->
<g id="node1" class="node">
<title>Node1</title>
<g id="a_node1"><a xlink:title=" ">
<polygon fill="#bfbfbf" stroke="black" points="361,-76.5 361,-95.5 457,-95.5 457,-76.5 361,-76.5"/>
<text text-anchor="middle" x="409" y="-83.5" font-family="Helvetica,sans-Serif" font-size="10.00">set_app_options</text>
</a>
</g>
</g>
<!-- Node2 -->
<g id="node2" class="node">
<title>Node2</title>
<g id="a_node2"><a xlink:href="../../d7/df3/classcflite_1_1eazyaisys_1_1fastvideo_1_1VideoSession.html#a2ba4f6af448afb8d41d0cb3318807f02" target="_top" xlink:title=" ">
<polygon fill="none" stroke="black" points="190.5,-152.5 190.5,-171.5 313.5,-171.5 313.5,-152.5 190.5,-152.5"/>
<text text-anchor="middle" x="252" y="-159.5" font-family="Helvetica,sans-Serif" font-size="10.00">set_adv_func_params</text>
</a>
</g>
</g>
<!-- Node1&#45;&gt;Node2 -->
<g id="edge1" class="edge">
<title>Node1&#45;&gt;Node2</title>
<path fill="none" stroke="midnightblue" d="M388.59,-102.21C372.47,-114.93 348.46,-132.24 325,-143 316.77,-146.77 307.66,-149.9 298.77,-152.46"/>
<polygon fill="midnightblue" stroke="midnightblue" points="391.1,-104.68 396.68,-95.68 386.7,-99.23 391.1,-104.68"/>
</g>
<!-- Node4 -->
<g id="node4" class="node">
<title>Node4</title>
<g id="a_node4"><a xlink:href="../../d7/df3/classcflite_1_1eazyaisys_1_1fastvideo_1_1VideoSession.html#aacd1207964e176f0efe6262059de5407" target="_top" xlink:title=" ">
<polygon fill="none" stroke="black" points="194,-114.5 194,-133.5 310,-133.5 310,-114.5 194,-114.5"/>
<text text-anchor="middle" x="252" y="-121.5" font-family="Helvetica,sans-Serif" font-size="10.00">set_camera_params</text>
</a>
</g>
</g>
<!-- Node1&#45;&gt;Node4 -->
<g id="edge3" class="edge">
<title>Node1&#45;&gt;Node4</title>
<path fill="none" stroke="midnightblue" d="M358.89,-98.04C337.24,-103.35 312.15,-109.5 291.83,-114.48"/>
<polygon fill="midnightblue" stroke="midnightblue" points="360.01,-101.37 368.89,-95.59 358.34,-94.57 360.01,-101.37"/>
</g>
<!-- Node5 -->
<g id="node5" class="node">
<title>Node5</title>
<g id="a_node5"><a xlink:href="../../d7/df3/classcflite_1_1eazyaisys_1_1fastvideo_1_1VideoSession.html#a2e9430dc0d9471ce8564f3ab3270b3f1" target="_top" xlink:title=" ">
<polygon fill="none" stroke="black" points="203.5,-76.5 203.5,-95.5 300.5,-95.5 300.5,-76.5 203.5,-76.5"/>
<text text-anchor="middle" x="252" y="-83.5" font-family="Helvetica,sans-Serif" font-size="10.00">set_env_params</text>
</a>
</g>
</g>
<!-- Node1&#45;&gt;Node5 -->
<g id="edge5" class="edge">
<title>Node1&#45;&gt;Node5</title>
<path fill="none" stroke="midnightblue" d="M350.6,-86C334.15,-86 316.39,-86 300.59,-86"/>
<polygon fill="midnightblue" stroke="midnightblue" points="350.65,-89.5 360.65,-86 350.65,-82.5 350.65,-89.5"/>
</g>
<!-- Node6 -->
<g id="node6" class="node">
<title>Node6</title>
<g id="a_node6"><a xlink:href="../../d7/df3/classcflite_1_1eazyaisys_1_1fastvideo_1_1VideoSession.html#a3d46522a2e3ba476b63f8516354e2f48" target="_top" xlink:title=" ">
<polygon fill="none" stroke="black" points="179,-38.5 179,-57.5 325,-57.5 325,-38.5 179,-38.5"/>
<text text-anchor="middle" x="252" y="-45.5" font-family="Helvetica,sans-Serif" font-size="10.00">set_source_buffer_params</text>
</a>
</g>
</g>
<!-- Node1&#45;&gt;Node6 -->
<g id="edge7" class="edge">
<title>Node1&#45;&gt;Node6</title>
<path fill="none" stroke="midnightblue" d="M358.89,-73.96C337.24,-68.65 312.15,-62.5 291.83,-57.52"/>
<polygon fill="midnightblue" stroke="midnightblue" points="358.34,-77.43 368.89,-76.41 360.01,-70.63 358.34,-77.43"/>
</g>
<!-- Node7 -->
<g id="node7" class="node">
<title>Node7</title>
<g id="a_node7"><a xlink:href="../../d7/df3/classcflite_1_1eazyaisys_1_1fastvideo_1_1VideoSession.html#aa938b629aac20ceff131cb37a4c5daac" target="_top" xlink:title=" ">
<polygon fill="none" stroke="black" points="195.5,-0.5 195.5,-19.5 308.5,-19.5 308.5,-0.5 195.5,-0.5"/>
<text text-anchor="middle" x="252" y="-7.5" font-family="Helvetica,sans-Serif" font-size="10.00">set_special_params</text>
</a>
</g>
</g>
<!-- Node1&#45;&gt;Node7 -->
<g id="edge9" class="edge">
<title>Node1&#45;&gt;Node7</title>
<path fill="none" stroke="midnightblue" d="M388.59,-69.79C372.47,-57.07 348.46,-39.76 325,-29 316.77,-25.23 307.66,-22.1 298.77,-19.54"/>
<polygon fill="midnightblue" stroke="midnightblue" points="386.7,-72.77 396.68,-76.32 391.1,-67.32 386.7,-72.77"/>
</g>
<!-- Node3 -->
<g id="node3" class="node">
<title>Node3</title>
<g id="a_node3"><a xlink:href="../../d7/df3/classcflite_1_1eazyaisys_1_1fastvideo_1_1VideoSession.html#aedfde1889cec1250737d504d27e36552" target="_top" xlink:title=" ">
<polygon fill="none" stroke="black" points="0,-76.5 0,-95.5 143,-95.5 143,-76.5 0,-76.5"/>
<text text-anchor="middle" x="71.5" y="-83.5" font-family="Helvetica,sans-Serif" font-size="10.00">set_eazyai_video_params</text>
</a>
</g>
</g>
<!-- Node2&#45;&gt;Node3 -->
<g id="edge2" class="edge">
<title>Node2&#45;&gt;Node3</title>
<path fill="none" stroke="midnightblue" d="M198.52,-149.69C191.87,-147.68 185.22,-145.45 179,-143 145.04,-129.64 108.05,-108.11 87.83,-95.69"/>
<polygon fill="midnightblue" stroke="midnightblue" points="197.63,-153.08 208.21,-152.47 199.56,-146.35 197.63,-153.08"/>
</g>
<!-- Node4&#45;&gt;Node3 -->
<g id="edge4" class="edge">
<title>Node4&#45;&gt;Node3</title>
<path fill="none" stroke="midnightblue" d="M196.13,-112.32C170.82,-106.93 141.15,-100.61 117.22,-95.52"/>
<polygon fill="midnightblue" stroke="midnightblue" points="195.45,-115.75 205.96,-114.41 196.9,-108.91 195.45,-115.75"/>
</g>
<!-- Node5&#45;&gt;Node3 -->
<g id="edge6" class="edge">
<title>Node5&#45;&gt;Node3</title>
<path fill="none" stroke="midnightblue" d="M192.99,-86C177.14,-86 159.78,-86 143.3,-86"/>
<polygon fill="midnightblue" stroke="midnightblue" points="193.17,-89.5 203.17,-86 193.17,-82.5 193.17,-89.5"/>
</g>
<!-- Node6&#45;&gt;Node3 -->
<g id="edge8" class="edge">
<title>Node6&#45;&gt;Node3</title>
<path fill="none" stroke="midnightblue" d="M196.13,-59.68C170.82,-65.07 141.15,-71.39 117.22,-76.48"/>
<polygon fill="midnightblue" stroke="midnightblue" points="196.9,-63.09 205.96,-57.59 195.45,-56.25 196.9,-63.09"/>
</g>
<!-- Node7&#45;&gt;Node3 -->
<g id="edge10" class="edge">
<title>Node7&#45;&gt;Node3</title>
<path fill="none" stroke="midnightblue" d="M198.52,-22.31C191.87,-24.32 185.22,-26.55 179,-29 145.04,-42.36 108.05,-63.89 87.83,-76.31"/>
<polygon fill="midnightblue" stroke="midnightblue" points="199.56,-25.65 208.21,-19.53 197.63,-18.92 199.56,-25.65"/>
</g>
</g>
</svg>
