<?xml version="1.0" encoding="UTF-8" standalone="no"?>
<!DOCTYPE svg PUBLIC "-//W3C//DTD SVG 1.1//EN"
 "http://www.w3.org/Graphics/SVG/1.1/DTD/svg11.dtd">
<!-- Generated by graphviz version 2.43.0 (0)
 -->
<!-- Title: run Pages: 1 -->
<svg width="566pt" height="509pt"
 viewBox="0.00 0.00 566.00 508.50" xmlns="http://www.w3.org/2000/svg" xmlns:xlink="http://www.w3.org/1999/xlink">
<g id="graph0" class="graph" transform="scale(1 1) rotate(0) translate(4 504.5)">
<title>run</title>
<!-- Node1 -->
<g id="node1" class="node">
<title>Node1</title>
<g id="a_node1"><a xlink:title=" ">
<polygon fill="#bfbfbf" stroke="black" points="0,-241 0,-260 32,-260 32,-241 0,-241"/>
<text text-anchor="middle" x="16" y="-248" font-family="Helvetica,sans-Serif" font-size="10.00">run</text>
</a>
</g>
</g>
<!-- Node2 -->
<g id="node2" class="node">
<title>Node2</title>
<g id="a_node2"><a xlink:href="../../d7/df3/classcflite_1_1eazyaisys_1_1fastvideo_1_1VideoSession.html#a3b773f5fd48b143ae26ef08a5964981b" target="_top" xlink:title=" ">
<polygon fill="none" stroke="black" points="130,-481 130,-500 245,-500 245,-481 130,-481"/>
<text text-anchor="middle" x="187.5" y="-488" font-family="Helvetica,sans-Serif" font-size="10.00">execute_commands</text>
</a>
</g>
</g>
<!-- Node1&#45;&gt;Node2 -->
<g id="edge1" class="edge">
<title>Node1&#45;&gt;Node2</title>
<path fill="none" stroke="midnightblue" d="M17.82,-260.1C21.3,-298.68 36.21,-441.79 68,-471.5 81.94,-484.52 101.06,-490.66 119.88,-493.17"/>
<polygon fill="midnightblue" stroke="midnightblue" points="119.66,-496.67 129.96,-494.2 120.37,-489.71 119.66,-496.67"/>
</g>
<!-- Node3 -->
<g id="node3" class="node">
<title>Node3</title>
<g id="a_node3"><a xlink:href="../../d0/dd9/classcflite_1_1eazyaigen_1_1parser_1_1Parser.html#aecc2a0e370fa9e93a1efcbeb644a5c63" target="_top" xlink:title=" ">
<polygon fill="none" stroke="black" points="111,-431.5 111,-461.5 264,-461.5 264,-431.5 111,-431.5"/>
<text text-anchor="start" x="119" y="-449.5" font-family="Helvetica,sans-Serif" font-size="10.00">cflite.eazyaigen.parser.</text>
<text text-anchor="middle" x="187.5" y="-438.5" font-family="Helvetica,sans-Serif" font-size="10.00">Parser.generate_commands</text>
</a>
</g>
</g>
<!-- Node1&#45;&gt;Node3 -->
<g id="edge2" class="edge">
<title>Node1&#45;&gt;Node3</title>
<path fill="none" stroke="midnightblue" d="M16.69,-260.05C16.28,-289.22 19.29,-377.92 68,-422.5 77.35,-431.05 88.87,-436.91 101.03,-440.86"/>
<polygon fill="midnightblue" stroke="midnightblue" points="100.32,-444.3 110.89,-443.64 102.22,-437.56 100.32,-444.3"/>
</g>
<!-- Node4 -->
<g id="node4" class="node">
<title>Node4</title>
<g id="a_node4"><a xlink:href="../../d5/de0/classcflite_1_1eazyaiinf_1_1dummymode_1_1DummyMode.html#a9540d7e9292b95bb55375d902324bd1a" target="_top" xlink:title=" ">
<polygon fill="none" stroke="black" points="93.5,-382.5 93.5,-412.5 281.5,-412.5 281.5,-382.5 93.5,-382.5"/>
<text text-anchor="start" x="101.5" y="-400.5" font-family="Helvetica,sans-Serif" font-size="10.00">cflite.eazyaiinf.dummymode.</text>
<text text-anchor="middle" x="187.5" y="-389.5" font-family="Helvetica,sans-Serif" font-size="10.00">DummyMode.generate_commands</text>
</a>
</g>
</g>
<!-- Node1&#45;&gt;Node4 -->
<g id="edge3" class="edge">
<title>Node1&#45;&gt;Node4</title>
<path fill="none" stroke="midnightblue" d="M17.99,-260.3C20.93,-283.81 31.77,-343.67 68,-373.5 72.95,-377.57 78.4,-381.01 84.16,-383.92"/>
<polygon fill="midnightblue" stroke="midnightblue" points="82.89,-387.18 93.45,-388.05 85.74,-380.79 82.89,-387.18"/>
</g>
<!-- Node6 -->
<g id="node6" class="node">
<title>Node6</title>
<g id="a_node6"><a xlink:href="../../dd/d96/classcflite_1_1eazyaiinf_1_1livemode_1_1LiveMode.html#ad08a67b02c5c6e0389b2fcf6f1e77397" target="_top" xlink:title=" ">
<polygon fill="none" stroke="black" points="102.5,-333.5 102.5,-363.5 272.5,-363.5 272.5,-333.5 102.5,-333.5"/>
<text text-anchor="start" x="110.5" y="-351.5" font-family="Helvetica,sans-Serif" font-size="10.00">cflite.eazyaiinf.livemode.</text>
<text text-anchor="middle" x="187.5" y="-340.5" font-family="Helvetica,sans-Serif" font-size="10.00">LiveMode.generate_commands</text>
</a>
</g>
</g>
<!-- Node1&#45;&gt;Node6 -->
<g id="edge5" class="edge">
<title>Node1&#45;&gt;Node6</title>
<path fill="none" stroke="midnightblue" d="M20.81,-260.23C27.66,-276.35 43.65,-308.42 68,-324.5 75.59,-329.51 84,-333.51 92.75,-336.71"/>
<polygon fill="midnightblue" stroke="midnightblue" points="91.75,-340.06 102.34,-339.86 93.93,-333.41 91.75,-340.06"/>
</g>
<!-- Node7 -->
<g id="node7" class="node">
<title>Node7</title>
<g id="a_node7"><a xlink:href="../../d9/d70/classcflite_1_1eazyaigen_1_1vas_1_1VAS.html#a2485ece2a10f3abe8d6465cb2c0cc41f" target="_top" xlink:title=" ">
<polygon fill="none" stroke="black" points="95.5,-284.5 95.5,-314.5 279.5,-314.5 279.5,-284.5 95.5,-284.5"/>
<text text-anchor="start" x="103.5" y="-302.5" font-family="Helvetica,sans-Serif" font-size="10.00">cflite.eazyaigen.vas.VAS.generate</text>
<text text-anchor="middle" x="187.5" y="-291.5" font-family="Helvetica,sans-Serif" font-size="10.00">_commands</text>
</a>
</g>
</g>
<!-- Node1&#45;&gt;Node7 -->
<g id="edge6" class="edge">
<title>Node1&#45;&gt;Node7</title>
<path fill="none" stroke="midnightblue" d="M32.18,-259.22C42.1,-264.6 55.49,-271.25 68,-275.5 74.83,-277.82 81.96,-279.96 89.2,-281.91"/>
<polygon fill="midnightblue" stroke="midnightblue" points="88.54,-285.35 99.1,-284.45 90.29,-278.57 88.54,-285.35"/>
</g>
<!-- Node8 -->
<g id="node8" class="node">
<title>Node8</title>
<g id="a_node8"><a xlink:href="../../d0/d1d/classcflite_1_1eazyaigen_1_1abstractobj_1_1eazyaigenobject_1_1EazyaiGenObject.html#a47fdd2bfe648c82ddfa9754ff16f46b1" target="_top" xlink:title=" ">
<polygon fill="none" stroke="black" points="68,-235.5 68,-265.5 307,-265.5 307,-235.5 68,-235.5"/>
<text text-anchor="start" x="76" y="-253.5" font-family="Helvetica,sans-Serif" font-size="10.00">cflite.eazyaigen.abstractobj.eazyaigenobject.</text>
<text text-anchor="middle" x="187.5" y="-242.5" font-family="Helvetica,sans-Serif" font-size="10.00">EazyaiGenObject.generate_commands</text>
</a>
</g>
</g>
<!-- Node1&#45;&gt;Node8 -->
<g id="edge7" class="edge">
<title>Node1&#45;&gt;Node8</title>
<path fill="none" stroke="midnightblue" d="M32.04,-250.5C38.91,-250.5 47.73,-250.5 57.68,-250.5"/>
<polygon fill="midnightblue" stroke="midnightblue" points="57.97,-254 67.97,-250.5 57.97,-247 57.97,-254"/>
</g>
<!-- Node9 -->
<g id="node9" class="node">
<title>Node9</title>
<g id="a_node9"><a xlink:href="../../da/dcb/group__cflite-eazyaigen-layercompare.html#ga0a5cd0403a07084fbe0aecb42852b46e" target="_top" xlink:title=" ">
<polygon fill="none" stroke="black" points="90.5,-186.5 90.5,-216.5 284.5,-216.5 284.5,-186.5 90.5,-186.5"/>
<text text-anchor="start" x="98.5" y="-204.5" font-family="Helvetica,sans-Serif" font-size="10.00">cflite.eazyaigen.layercompare.</text>
<text text-anchor="middle" x="187.5" y="-193.5" font-family="Helvetica,sans-Serif" font-size="10.00">LayerCompare.generate_commands</text>
</a>
</g>
</g>
<!-- Node1&#45;&gt;Node9 -->
<g id="edge8" class="edge">
<title>Node1&#45;&gt;Node9</title>
<path fill="none" stroke="midnightblue" d="M32.24,-242.19C42.18,-237.05 55.57,-230.67 68,-226.5 76.11,-223.78 84.64,-221.29 93.24,-219.03"/>
<polygon fill="midnightblue" stroke="midnightblue" points="94.13,-222.41 102.97,-216.57 92.42,-215.63 94.13,-222.41"/>
</g>
<!-- Node10 -->
<g id="node10" class="node">
<title>Node10</title>
<g id="a_node10"><a xlink:href="../../d8/d8d/group__cflite-eazyaigen-cavalry.html#ga40181f1a480d2c8687ed85a81dcd08e6" target="_top" xlink:title=" ">
<polygon fill="none" stroke="black" points="98,-137.5 98,-167.5 277,-167.5 277,-137.5 98,-137.5"/>
<text text-anchor="start" x="106" y="-155.5" font-family="Helvetica,sans-Serif" font-size="10.00">cflite.eazyaigen.cavalrygen.</text>
<text text-anchor="middle" x="187.5" y="-144.5" font-family="Helvetica,sans-Serif" font-size="10.00">CavalryGen.generate_commands</text>
</a>
</g>
</g>
<!-- Node1&#45;&gt;Node10 -->
<g id="edge9" class="edge">
<title>Node1&#45;&gt;Node10</title>
<path fill="none" stroke="midnightblue" d="M20.86,-240.93C27.79,-225.05 43.89,-193.45 68,-177.5 74.21,-173.39 80.97,-169.94 88,-167.05"/>
<polygon fill="midnightblue" stroke="midnightblue" points="89.59,-170.19 97.75,-163.43 87.15,-163.63 89.59,-170.19"/>
</g>
<!-- Node11 -->
<g id="node11" class="node">
<title>Node11</title>
<g id="a_node11"><a xlink:href="../../d9/d64/group__cflite-eazyaigen-cvb.html#gaecc2a0e370fa9e93a1efcbeb644a5c63" target="_top" xlink:title=" ">
<polygon fill="none" stroke="black" points="87.5,-88.5 87.5,-118.5 287.5,-118.5 287.5,-88.5 87.5,-88.5"/>
<text text-anchor="start" x="95.5" y="-106.5" font-family="Helvetica,sans-Serif" font-size="10.00">cflite.eazyaigen.cvbackend.</text>
<text text-anchor="middle" x="187.5" y="-95.5" font-family="Helvetica,sans-Serif" font-size="10.00">CVFlowBackend.generate_commands</text>
</a>
</g>
</g>
<!-- Node1&#45;&gt;Node11 -->
<g id="edge10" class="edge">
<title>Node1&#45;&gt;Node11</title>
<path fill="none" stroke="midnightblue" d="M18.04,-240.8C21.07,-217.52 32.1,-158.21 68,-128.5 71.28,-125.79 74.78,-123.34 78.45,-121.15"/>
<polygon fill="midnightblue" stroke="midnightblue" points="80.09,-124.24 87.29,-116.46 76.82,-118.05 80.09,-124.24"/>
</g>
<!-- Node13 -->
<g id="node13" class="node">
<title>Node13</title>
<g id="a_node13"><a xlink:href="../../d7/df3/classcflite_1_1eazyaisys_1_1fastvideo_1_1VideoSession.html#a47fdd2bfe648c82ddfa9754ff16f46b1" target="_top" xlink:title=" ">
<polygon fill="none" stroke="black" points="128,-50 128,-69 247,-69 247,-50 128,-50"/>
<text text-anchor="middle" x="187.5" y="-57" font-family="Helvetica,sans-Serif" font-size="10.00">generate_commands</text>
</a>
</g>
</g>
<!-- Node1&#45;&gt;Node13 -->
<g id="edge12" class="edge">
<title>Node1&#45;&gt;Node13</title>
<path fill="none" stroke="midnightblue" d="M16.61,-240.87C15.97,-211.44 18.39,-122.08 68,-78.5 81.74,-66.43 99.98,-60.41 118.02,-57.7"/>
<polygon fill="midnightblue" stroke="midnightblue" points="118.48,-61.17 128,-56.52 117.66,-54.22 118.48,-61.17"/>
</g>
<!-- Node15 -->
<g id="node15" class="node">
<title>Node15</title>
<g id="a_node15"><a xlink:href="../../dc/dcb/group__cflite-eazyaigen-dataprepare.html#ga47fdd2bfe648c82ddfa9754ff16f46b1" target="_top" xlink:title=" ">
<polygon fill="none" stroke="black" points="96,-0.5 96,-30.5 279,-30.5 279,-0.5 96,-0.5"/>
<text text-anchor="start" x="104" y="-18.5" font-family="Helvetica,sans-Serif" font-size="10.00">cflite.eazyaigen.dataprepare.</text>
<text text-anchor="middle" x="187.5" y="-7.5" font-family="Helvetica,sans-Serif" font-size="10.00">DataPrepare.generate_commands</text>
</a>
</g>
</g>
<!-- Node1&#45;&gt;Node15 -->
<g id="edge14" class="edge">
<title>Node1&#45;&gt;Node15</title>
<path fill="none" stroke="midnightblue" d="M17.98,-240.91C22,-203.67 38.38,-69.24 68,-40.5 73.45,-35.22 79.71,-30.92 86.46,-27.45"/>
<polygon fill="midnightblue" stroke="midnightblue" points="88.23,-30.49 95.93,-23.21 85.37,-24.1 88.23,-30.49"/>
</g>
<!-- Node5 -->
<g id="node5" class="node">
<title>Node5</title>
<g id="a_node5"><a xlink:href="../../d5/de0/classcflite_1_1eazyaiinf_1_1dummymode_1_1DummyMode.html#a4766fdee05cd3a5cc49a31d6c8a55b42" target="_top" xlink:title=" ">
<polygon fill="none" stroke="black" points="343,-382.5 343,-412.5 558,-412.5 558,-382.5 343,-382.5"/>
<text text-anchor="start" x="351" y="-400.5" font-family="Helvetica,sans-Serif" font-size="10.00">cflite.eazyaiinf.dummymode.</text>
<text text-anchor="middle" x="450.5" y="-389.5" font-family="Helvetica,sans-Serif" font-size="10.00">DummyMode.generate_evk_model_path</text>
</a>
</g>
</g>
<!-- Node4&#45;&gt;Node5 -->
<g id="edge4" class="edge">
<title>Node4&#45;&gt;Node5</title>
<path fill="none" stroke="midnightblue" d="M281.62,-397.5C298.14,-397.5 315.54,-397.5 332.62,-397.5"/>
<polygon fill="midnightblue" stroke="midnightblue" points="332.63,-401 342.63,-397.5 332.63,-394 332.63,-401"/>
</g>
<!-- Node12 -->
<g id="node12" class="node">
<title>Node12</title>
<g id="a_node12"><a xlink:href="../../d9/d64/group__cflite-eazyaigen-cvb.html#ga54e206c25e6db7808a1ffd4991267283" target="_top" xlink:title=" ">
<polygon fill="none" stroke="black" points="348,-88.5 348,-118.5 553,-118.5 553,-88.5 348,-88.5"/>
<text text-anchor="start" x="356" y="-106.5" font-family="Helvetica,sans-Serif" font-size="10.00">cflite.eazyaigen.cvbackend.</text>
<text text-anchor="middle" x="450.5" y="-95.5" font-family="Helvetica,sans-Serif" font-size="10.00">CVFlowBackend.generate_meta_graph</text>
</a>
</g>
</g>
<!-- Node11&#45;&gt;Node12 -->
<g id="edge11" class="edge">
<title>Node11&#45;&gt;Node12</title>
<path fill="none" stroke="midnightblue" d="M287.55,-103.5C303.91,-103.5 320.97,-103.5 337.62,-103.5"/>
<polygon fill="midnightblue" stroke="midnightblue" points="337.92,-107 347.92,-103.5 337.92,-100 337.92,-107"/>
</g>
<!-- Node14 -->
<g id="node14" class="node">
<title>Node14</title>
<g id="a_node14"><a xlink:href="../../d7/df3/classcflite_1_1eazyaisys_1_1fastvideo_1_1VideoSession.html#a0024f3a95fbed58b6ac1dd596bc26a4a" target="_top" xlink:title=" ">
<polygon fill="none" stroke="black" points="384,-50 384,-69 517,-69 517,-50 384,-50"/>
<text text-anchor="middle" x="450.5" y="-57" font-family="Helvetica,sans-Serif" font-size="10.00">check_quickipc_params</text>
</a>
</g>
</g>
<!-- Node13&#45;&gt;Node14 -->
<g id="edge13" class="edge">
<title>Node13&#45;&gt;Node14</title>
<path fill="none" stroke="midnightblue" d="M247.07,-59.5C284.48,-59.5 333.36,-59.5 373.71,-59.5"/>
<polygon fill="midnightblue" stroke="midnightblue" points="373.78,-63 383.78,-59.5 373.78,-56 373.78,-63"/>
</g>
</g>
</svg>
