<?xml version="1.0" encoding="UTF-8" standalone="no"?>
<!DOCTYPE svg PUBLIC "-//W3C//DTD SVG 1.1//EN"
 "http://www.w3.org/Graphics/SVG/1.1/DTD/svg11.dtd">
<!-- Generated by graphviz version 2.43.0 (0)
 -->
<!-- Title: set_eazyai_video_params Pages: 1 -->
<svg width="467pt" height="218pt"
 viewBox="0.00 0.00 467.00 218.00" xmlns="http://www.w3.org/2000/svg" xmlns:xlink="http://www.w3.org/1999/xlink">
<g id="graph0" class="graph" transform="scale(1 1) rotate(0) translate(4 214)">
<title>set_eazyai_video_params</title>
<!-- Node1 -->
<g id="node1" class="node">
<title>Node1</title>
<g id="a_node1"><a xlink:title=" ">
<polygon fill="#bfbfbf" stroke="black" points="0,-95.5 0,-114.5 143,-114.5 143,-95.5 0,-95.5"/>
<text text-anchor="middle" x="71.5" y="-102.5" font-family="Helvetica,sans-Serif" font-size="10.00">set_eazyai_video_params</text>
</a>
</g>
</g>
<!-- Node2 -->
<g id="node2" class="node">
<title>Node2</title>
<g id="a_node2"><a xlink:href="../../d7/df3/classcflite_1_1eazyaisys_1_1fastvideo_1_1VideoSession.html#a2ba4f6af448afb8d41d0cb3318807f02" target="_top" xlink:title=" ">
<polygon fill="none" stroke="black" points="191.5,-190.5 191.5,-209.5 314.5,-209.5 314.5,-190.5 191.5,-190.5"/>
<text text-anchor="middle" x="253" y="-197.5" font-family="Helvetica,sans-Serif" font-size="10.00">set_adv_func_params</text>
</a>
</g>
</g>
<!-- Node1&#45;&gt;Node2 -->
<g id="edge1" class="edge">
<title>Node1&#45;&gt;Node2</title>
<path fill="none" stroke="midnightblue" d="M83.15,-114.67C101.43,-130.75 140.52,-163.01 179,-181 184.04,-183.36 189.42,-185.45 194.89,-187.31"/>
<polygon fill="midnightblue" stroke="midnightblue" points="194.18,-190.76 204.77,-190.41 196.27,-184.08 194.18,-190.76"/>
</g>
<!-- Node4 -->
<g id="node4" class="node">
<title>Node4</title>
<g id="a_node4"><a xlink:href="../../d7/df3/classcflite_1_1eazyaisys_1_1fastvideo_1_1VideoSession.html#aacd1207964e176f0efe6262059de5407" target="_top" xlink:title=" ">
<polygon fill="none" stroke="black" points="195,-152.5 195,-171.5 311,-171.5 311,-152.5 195,-152.5"/>
<text text-anchor="middle" x="253" y="-159.5" font-family="Helvetica,sans-Serif" font-size="10.00">set_camera_params</text>
</a>
</g>
</g>
<!-- Node1&#45;&gt;Node4 -->
<g id="edge3" class="edge">
<title>Node1&#45;&gt;Node4</title>
<path fill="none" stroke="midnightblue" d="M97.25,-114.53C118.71,-122.62 150.67,-134.28 179,-143 186.74,-145.38 195,-147.72 203.08,-149.9"/>
<polygon fill="midnightblue" stroke="midnightblue" points="202.24,-153.3 212.8,-152.47 204.03,-146.53 202.24,-153.3"/>
</g>
<!-- Node5 -->
<g id="node5" class="node">
<title>Node5</title>
<g id="a_node5"><a xlink:href="../../d7/df3/classcflite_1_1eazyaisys_1_1fastvideo_1_1VideoSession.html#ad742c1e0efc552b4821a590af7e451a9" target="_top" xlink:title=" ">
<polygon fill="none" stroke="black" points="179,-114.5 179,-133.5 327,-133.5 327,-114.5 179,-114.5"/>
<text text-anchor="middle" x="253" y="-121.5" font-family="Helvetica,sans-Serif" font-size="10.00">set_device_output_params</text>
</a>
</g>
</g>
<!-- Node1&#45;&gt;Node5 -->
<g id="edge5" class="edge">
<title>Node1&#45;&gt;Node5</title>
<path fill="none" stroke="midnightblue" d="M143.19,-112.48C151.58,-113.37 160.2,-114.28 168.75,-115.19"/>
<polygon fill="midnightblue" stroke="midnightblue" points="168.41,-118.67 178.72,-116.24 169.15,-111.71 168.41,-118.67"/>
</g>
<!-- Node6 -->
<g id="node6" class="node">
<title>Node6</title>
<g id="a_node6"><a xlink:href="../../d7/df3/classcflite_1_1eazyaisys_1_1fastvideo_1_1VideoSession.html#a2e9430dc0d9471ce8564f3ab3270b3f1" target="_top" xlink:title=" ">
<polygon fill="none" stroke="black" points="204.5,-76.5 204.5,-95.5 301.5,-95.5 301.5,-76.5 204.5,-76.5"/>
<text text-anchor="middle" x="253" y="-83.5" font-family="Helvetica,sans-Serif" font-size="10.00">set_env_params</text>
</a>
</g>
</g>
<!-- Node1&#45;&gt;Node6 -->
<g id="edge6" class="edge">
<title>Node1&#45;&gt;Node6</title>
<path fill="none" stroke="midnightblue" d="M143.19,-97.52C160.01,-95.74 177.76,-93.86 193.94,-92.15"/>
<polygon fill="midnightblue" stroke="midnightblue" points="194.75,-95.58 204.32,-91.05 194.01,-88.62 194.75,-95.58"/>
</g>
<!-- Node7 -->
<g id="node7" class="node">
<title>Node7</title>
<g id="a_node7"><a xlink:href="../../d7/df3/classcflite_1_1eazyaisys_1_1fastvideo_1_1VideoSession.html#a3d46522a2e3ba476b63f8516354e2f48" target="_top" xlink:title=" ">
<polygon fill="none" stroke="black" points="180,-38.5 180,-57.5 326,-57.5 326,-38.5 180,-38.5"/>
<text text-anchor="middle" x="253" y="-45.5" font-family="Helvetica,sans-Serif" font-size="10.00">set_source_buffer_params</text>
</a>
</g>
</g>
<!-- Node1&#45;&gt;Node7 -->
<g id="edge8" class="edge">
<title>Node1&#45;&gt;Node7</title>
<path fill="none" stroke="midnightblue" d="M97.25,-95.47C118.71,-87.38 150.67,-75.72 179,-67 186.74,-64.62 195,-62.28 203.08,-60.1"/>
<polygon fill="midnightblue" stroke="midnightblue" points="204.03,-63.47 212.8,-57.53 202.24,-56.7 204.03,-63.47"/>
</g>
<!-- Node8 -->
<g id="node8" class="node">
<title>Node8</title>
<g id="a_node8"><a xlink:href="../../d7/df3/classcflite_1_1eazyaisys_1_1fastvideo_1_1VideoSession.html#aa938b629aac20ceff131cb37a4c5daac" target="_top" xlink:title=" ">
<polygon fill="none" stroke="black" points="196.5,-0.5 196.5,-19.5 309.5,-19.5 309.5,-0.5 196.5,-0.5"/>
<text text-anchor="middle" x="253" y="-7.5" font-family="Helvetica,sans-Serif" font-size="10.00">set_special_params</text>
</a>
</g>
</g>
<!-- Node1&#45;&gt;Node8 -->
<g id="edge10" class="edge">
<title>Node1&#45;&gt;Node8</title>
<path fill="none" stroke="midnightblue" d="M83.15,-95.33C101.43,-79.25 140.52,-46.99 179,-29 184.04,-26.64 189.42,-24.55 194.89,-22.69"/>
<polygon fill="midnightblue" stroke="midnightblue" points="196.27,-25.92 204.77,-19.59 194.18,-19.24 196.27,-25.92"/>
</g>
<!-- Node3 -->
<g id="node3" class="node">
<title>Node3</title>
<g id="a_node3"><a xlink:href="../../d7/df3/classcflite_1_1eazyaisys_1_1fastvideo_1_1VideoSession.html#aa1e769ec70609dee83daac140417df5f" target="_top" xlink:title=" ">
<polygon fill="none" stroke="black" points="363,-76.5 363,-95.5 459,-95.5 459,-76.5 363,-76.5"/>
<text text-anchor="middle" x="411" y="-83.5" font-family="Helvetica,sans-Serif" font-size="10.00">set_app_options</text>
</a>
</g>
</g>
<!-- Node2&#45;&gt;Node3 -->
<g id="edge2" class="edge">
<title>Node2&#45;&gt;Node3</title>
<path fill="none" stroke="midnightblue" d="M306.63,-190.39C313.76,-187.93 320.76,-184.86 327,-181 358.64,-161.44 384.84,-126.01 398.88,-104.38"/>
<polygon fill="midnightblue" stroke="midnightblue" points="401.93,-106.11 404.3,-95.79 396.01,-102.38 401.93,-106.11"/>
</g>
<!-- Node4&#45;&gt;Node3 -->
<g id="edge4" class="edge">
<title>Node4&#45;&gt;Node3</title>
<path fill="none" stroke="midnightblue" d="M300.79,-152.4C309.69,-149.86 318.78,-146.75 327,-143 350.48,-132.28 374.49,-114.97 390.6,-102.23"/>
<polygon fill="midnightblue" stroke="midnightblue" points="393.11,-104.7 398.69,-95.69 388.71,-99.26 393.11,-104.7"/>
</g>
<!-- Node6&#45;&gt;Node3 -->
<g id="edge7" class="edge">
<title>Node6&#45;&gt;Node3</title>
<path fill="none" stroke="midnightblue" d="M301.65,-86C317.75,-86 335.9,-86 352.67,-86"/>
<polygon fill="midnightblue" stroke="midnightblue" points="352.91,-89.5 362.91,-86 352.91,-82.5 352.91,-89.5"/>
</g>
<!-- Node7&#45;&gt;Node3 -->
<g id="edge9" class="edge">
<title>Node7&#45;&gt;Node3</title>
<path fill="none" stroke="midnightblue" d="M293.37,-57.59C313.95,-62.6 339.34,-68.79 361.17,-74.11"/>
<polygon fill="midnightblue" stroke="midnightblue" points="360.37,-77.51 370.92,-76.48 362.03,-70.71 360.37,-77.51"/>
</g>
<!-- Node8&#45;&gt;Node3 -->
<g id="edge11" class="edge">
<title>Node8&#45;&gt;Node3</title>
<path fill="none" stroke="midnightblue" d="M300.79,-19.6C309.69,-22.14 318.78,-25.25 327,-29 350.48,-39.72 374.49,-57.03 390.6,-69.77"/>
<polygon fill="midnightblue" stroke="midnightblue" points="388.71,-72.74 398.69,-76.31 393.11,-67.3 388.71,-72.74"/>
</g>
</g>
</svg>
