<?xml version="1.0" encoding="UTF-8" standalone="no"?>
<!DOCTYPE svg PUBLIC "-//W3C//DTD SVG 1.1//EN"
 "http://www.w3.org/Graphics/SVG/1.1/DTD/svg11.dtd">
<!-- Generated by graphviz version 2.43.0 (0)
 -->
<!-- Title: execute_commands Pages: 1 -->
<svg width="284pt" height="66pt"
 viewBox="0.00 0.00 284.00 66.00" xmlns="http://www.w3.org/2000/svg" xmlns:xlink="http://www.w3.org/1999/xlink">
<g id="graph0" class="graph" transform="scale(1 1) rotate(0) translate(4 62)">
<title>execute_commands</title>
<!-- Node1 -->
<g id="node1" class="node">
<title>Node1</title>
<g id="a_node1"><a xlink:title=" ">
<polygon fill="#bfbfbf" stroke="black" points="161,-19.5 161,-38.5 276,-38.5 276,-19.5 161,-19.5"/>
<text text-anchor="middle" x="218.5" y="-26.5" font-family="Helvetica,sans-Serif" font-size="10.00">execute_commands</text>
</a>
</g>
</g>
<!-- Node2 -->
<g id="node2" class="node">
<title>Node2</title>
<g id="a_node2"><a xlink:href="../../d7/df3/classcflite_1_1eazyaisys_1_1fastvideo_1_1VideoSession.html#ad7385324397f089776112a7863fa54ce" target="_top" xlink:title=" ">
<polygon fill="none" stroke="black" points="0,-38.5 0,-57.5 125,-57.5 125,-38.5 0,-38.5"/>
<text text-anchor="middle" x="62.5" y="-45.5" font-family="Helvetica,sans-Serif" font-size="10.00">_get_quickipc_params</text>
</a>
</g>
</g>
<!-- Node1&#45;&gt;Node2 -->
<g id="edge1" class="edge">
<title>Node1&#45;&gt;Node2</title>
<path fill="none" stroke="midnightblue" d="M150.43,-37.28C142,-38.31 133.42,-39.37 125.09,-40.4"/>
<polygon fill="midnightblue" stroke="midnightblue" points="151.1,-40.72 160.59,-36.02 150.24,-33.77 151.1,-40.72"/>
</g>
<!-- Node3 -->
<g id="node3" class="node">
<title>Node3</title>
<g id="a_node3"><a xlink:href="../../d7/df3/classcflite_1_1eazyaisys_1_1fastvideo_1_1VideoSession.html#ad22709b2e67308af35f55680d5a026e0" target="_top" xlink:title=" ">
<polygon fill="none" stroke="black" points="46.5,-0.5 46.5,-19.5 78.5,-19.5 78.5,-0.5 46.5,-0.5"/>
<text text-anchor="middle" x="62.5" y="-7.5" font-family="Helvetica,sans-Serif" font-size="10.00">run</text>
</a>
</g>
</g>
<!-- Node1&#45;&gt;Node3 -->
<g id="edge2" class="edge">
<title>Node1&#45;&gt;Node3</title>
<path fill="none" stroke="midnightblue" d="M150.5,-20.73C123.89,-17.45 95.66,-13.97 78.81,-11.89"/>
<polygon fill="midnightblue" stroke="midnightblue" points="150.24,-24.23 160.59,-21.98 151.1,-17.28 150.24,-24.23"/>
</g>
</g>
</svg>
