<?xml version="1.0" encoding="UTF-8" standalone="no"?>
<!DOCTYPE svg PUBLIC "-//W3C//DTD SVG 1.1//EN"
 "http://www.w3.org/Graphics/SVG/1.1/DTD/svg11.dtd">
<!-- Generated by graphviz version 2.43.0 (0)
 -->
<!-- Title: _get_quickipc_params Pages: 1 -->
<svg width="344pt" height="78pt"
 viewBox="0.00 0.00 344.00 77.50" xmlns="http://www.w3.org/2000/svg" xmlns:xlink="http://www.w3.org/1999/xlink">
<g id="graph0" class="graph" transform="scale(1 1) rotate(0) translate(4 73.5)">
<title>_get_quickipc_params</title>
<!-- Node1 -->
<g id="node1" class="node">
<title>Node1</title>
<g id="a_node1"><a xlink:title=" ">
<polygon fill="#bfbfbf" stroke="black" points="0,-22.5 0,-41.5 125,-41.5 125,-22.5 0,-22.5"/>
<text text-anchor="middle" x="62.5" y="-29.5" font-family="Helvetica,sans-Serif" font-size="10.00">_get_quickipc_params</text>
</a>
</g>
</g>
<!-- Node2 -->
<g id="node2" class="node">
<title>Node2</title>
<g id="a_node2"><a xlink:href="../../d4/ded/group__cflite-eazyaisys-filesession.html#gae4d8a91f4c57e5a17360d668db1799fe" target="_top" xlink:title=" ">
<polygon fill="none" stroke="black" points="161,-39 161,-69 336,-69 336,-39 161,-39"/>
<text text-anchor="start" x="169" y="-57" font-family="Helvetica,sans-Serif" font-size="10.00">cflite.eazyaisys.filesession.eazy</text>
<text text-anchor="middle" x="248.5" y="-46" font-family="Helvetica,sans-Serif" font-size="10.00">_download_file</text>
</a>
</g>
</g>
<!-- Node1&#45;&gt;Node2 -->
<g id="edge1" class="edge">
<title>Node1&#45;&gt;Node2</title>
<path fill="none" stroke="midnightblue" d="M125.03,-39.36C133.29,-40.34 141.91,-41.38 150.6,-42.41"/>
<polygon fill="midnightblue" stroke="midnightblue" points="150.46,-45.92 160.81,-43.63 151.3,-38.97 150.46,-45.92"/>
</g>
<!-- Node3 -->
<g id="node3" class="node">
<title>Node3</title>
<g id="a_node3"><a xlink:href="../../d7/df3/classcflite_1_1eazyaisys_1_1fastvideo_1_1VideoSession.html#a3b773f5fd48b143ae26ef08a5964981b" target="_top" xlink:title=" ">
<polygon fill="none" stroke="black" points="191,-0.5 191,-19.5 306,-19.5 306,-0.5 191,-0.5"/>
<text text-anchor="middle" x="248.5" y="-7.5" font-family="Helvetica,sans-Serif" font-size="10.00">execute_commands</text>
</a>
</g>
</g>
<!-- Node1&#45;&gt;Node3 -->
<g id="edge2" class="edge">
<title>Node1&#45;&gt;Node3</title>
<path fill="none" stroke="midnightblue" d="M125.03,-24.64C143.01,-22.49 162.74,-20.13 181.02,-17.95"/>
<polygon fill="midnightblue" stroke="midnightblue" points="181.48,-21.42 191,-16.76 180.65,-14.47 181.48,-21.42"/>
</g>
</g>
</svg>
