<?xml version="1.0" encoding="UTF-8" standalone="no"?>
<!DOCTYPE svg PUBLIC "-//W3C//DTD SVG 1.1//EN"
 "http://www.w3.org/Graphics/SVG/1.1/DTD/svg11.dtd">
<!-- Generated by graphviz version 2.43.0 (0)
 -->
<!-- Title: generate_commands Pages: 1 -->
<svg width="308pt" height="116pt"
 viewBox="0.00 0.00 308.00 116.00" xmlns="http://www.w3.org/2000/svg" xmlns:xlink="http://www.w3.org/1999/xlink">
<g id="graph0" class="graph" transform="scale(1 1) rotate(0) translate(4 112)">
<title>generate_commands</title>
<!-- Node1 -->
<g id="node1" class="node">
<title>Node1</title>
<g id="a_node1"><a xlink:title=" ">
<polygon fill="#bfbfbf" stroke="black" points="181,-44.5 181,-63.5 300,-63.5 300,-44.5 181,-44.5"/>
<text text-anchor="middle" x="240.5" y="-51.5" font-family="Helvetica,sans-Serif" font-size="10.00">generate_commands</text>
</a>
</g>
</g>
<!-- Node2 -->
<g id="node2" class="node">
<title>Node2</title>
<g id="a_node2"><a xlink:href="../../dd/d96/classcflite_1_1eazyaiinf_1_1livemode_1_1LiveMode.html#ad22709b2e67308af35f55680d5a026e0" target="_top" xlink:title=" ">
<polygon fill="none" stroke="black" points="56.5,-88.5 56.5,-107.5 88.5,-107.5 88.5,-88.5 56.5,-88.5"/>
<text text-anchor="middle" x="72.5" y="-95.5" font-family="Helvetica,sans-Serif" font-size="10.00">run</text>
</a>
</g>
</g>
<!-- Node1&#45;&gt;Node2 -->
<g id="edge1" class="edge">
<title>Node1&#45;&gt;Node2</title>
<path fill="none" stroke="midnightblue" d="M193.43,-66.21C158.27,-75.53 112.02,-87.79 88.55,-94.01"/>
<polygon fill="midnightblue" stroke="midnightblue" points="194.71,-69.49 203.48,-63.55 192.92,-62.73 194.71,-69.49"/>
</g>
<!-- Node3 -->
<g id="node3" class="node">
<title>Node3</title>
<g id="a_node3"><a xlink:href="../../d7/df3/classcflite_1_1eazyaisys_1_1fastvideo_1_1VideoSession.html#ad22709b2e67308af35f55680d5a026e0" target="_top" xlink:title=" ">
<polygon fill="none" stroke="black" points="0,-39 0,-69 145,-69 145,-39 0,-39"/>
<text text-anchor="start" x="8" y="-57" font-family="Helvetica,sans-Serif" font-size="10.00">cflite.eazyaisys.fastvideo.</text>
<text text-anchor="middle" x="72.5" y="-46" font-family="Helvetica,sans-Serif" font-size="10.00">VideoSession.run</text>
</a>
</g>
</g>
<!-- Node1&#45;&gt;Node3 -->
<g id="edge2" class="edge">
<title>Node1&#45;&gt;Node3</title>
<path fill="none" stroke="midnightblue" d="M170.79,-54C162.33,-54 153.67,-54 145.17,-54"/>
<polygon fill="midnightblue" stroke="midnightblue" points="170.97,-57.5 180.97,-54 170.97,-50.5 170.97,-57.5"/>
</g>
<!-- Node4 -->
<g id="node4" class="node">
<title>Node4</title>
<g id="a_node4"><a xlink:href="../../dd/d96/classcflite_1_1eazyaiinf_1_1livemode_1_1LiveMode.html#a15180f30e49a79272f83ca50ddd3368f" target="_top" xlink:title=" ">
<polygon fill="none" stroke="black" points="29,-0.5 29,-19.5 116,-19.5 116,-0.5 29,-0.5"/>
<text text-anchor="middle" x="72.5" y="-7.5" font-family="Helvetica,sans-Serif" font-size="10.00">run_non_block</text>
</a>
</g>
</g>
<!-- Node1&#45;&gt;Node4 -->
<g id="edge3" class="edge">
<title>Node1&#45;&gt;Node4</title>
<path fill="none" stroke="midnightblue" d="M193.64,-41.85C167.08,-34.8 134.12,-26.07 109.45,-19.53"/>
<polygon fill="midnightblue" stroke="midnightblue" points="192.92,-45.27 203.48,-44.45 194.71,-38.51 192.92,-45.27"/>
</g>
</g>
</svg>
