<?xml version="1.0" encoding="UTF-8" standalone="no"?>
<!DOCTYPE svg PUBLIC "-//W3C//DTD SVG 1.1//EN"
 "http://www.w3.org/Graphics/SVG/1.1/DTD/svg11.dtd">
<!-- Generated by graphviz version 2.43.0 (0)
 -->
<!-- Title: run Pages: 1 -->
<svg width="590pt" height="470pt"
 viewBox="0.00 0.00 590.00 470.00" xmlns="http://www.w3.org/2000/svg" xmlns:xlink="http://www.w3.org/1999/xlink">
<g id="graph0" class="graph" transform="scale(1 1) rotate(0) translate(4 466)">
<title>run</title>
<!-- Node1 -->
<g id="node1" class="node">
<title>Node1</title>
<g id="a_node1"><a xlink:title=" ">
<polygon fill="#bfbfbf" stroke="black" points="0,-226 0,-245 32,-245 32,-226 0,-226"/>
<text text-anchor="middle" x="16" y="-233" font-family="Helvetica,sans-Serif" font-size="10.00">run</text>
</a>
</g>
</g>
<!-- Node2 -->
<g id="node2" class="node">
<title>Node2</title>
<g id="a_node2"><a xlink:href="../../d0/d1d/classcflite_1_1eazyaigen_1_1abstractobj_1_1eazyaigenobject_1_1EazyaiGenObject.html#a56db9b3182d539e18bdaef2aadd5774c" target="_top" xlink:title=" ">
<polygon fill="none" stroke="black" points="68,-431.5 68,-461.5 307,-461.5 307,-431.5 68,-431.5"/>
<text text-anchor="start" x="76" y="-449.5" font-family="Helvetica,sans-Serif" font-size="10.00">cflite.eazyaigen.abstractobj.eazyaigenobject.</text>
<text text-anchor="middle" x="187.5" y="-438.5" font-family="Helvetica,sans-Serif" font-size="10.00">EazyaiGenObject.execute_cmd</text>
</a>
</g>
</g>
<!-- Node1&#45;&gt;Node2 -->
<g id="edge1" class="edge">
<title>Node1&#45;&gt;Node2</title>
<path fill="none" stroke="midnightblue" d="M16.4,-245.41C15.11,-276.59 15.66,-373.53 68,-422.5 69.13,-423.55 70.28,-424.57 71.47,-425.54"/>
<polygon fill="midnightblue" stroke="midnightblue" points="69.55,-428.46 79.73,-431.41 73.61,-422.76 69.55,-428.46"/>
</g>
<!-- Node4 -->
<g id="node4" class="node">
<title>Node4</title>
<g id="a_node4"><a xlink:href="../../d0/dd9/classcflite_1_1eazyaigen_1_1parser_1_1Parser.html#aecc2a0e370fa9e93a1efcbeb644a5c63" target="_top" xlink:title=" ">
<polygon fill="none" stroke="black" points="111,-382.5 111,-412.5 264,-412.5 264,-382.5 111,-382.5"/>
<text text-anchor="start" x="119" y="-400.5" font-family="Helvetica,sans-Serif" font-size="10.00">cflite.eazyaigen.parser.</text>
<text text-anchor="middle" x="187.5" y="-389.5" font-family="Helvetica,sans-Serif" font-size="10.00">Parser.generate_commands</text>
</a>
</g>
</g>
<!-- Node1&#45;&gt;Node4 -->
<g id="edge3" class="edge">
<title>Node1&#45;&gt;Node4</title>
<path fill="none" stroke="midnightblue" d="M17.5,-245.32C19.37,-270.77 28.04,-339.27 68,-373.5 77.5,-381.64 88.99,-387.28 101.04,-391.16"/>
<polygon fill="midnightblue" stroke="midnightblue" points="100.22,-394.57 110.79,-393.91 102.11,-387.83 100.22,-394.57"/>
</g>
<!-- Node5 -->
<g id="node5" class="node">
<title>Node5</title>
<g id="a_node5"><a xlink:href="../../d5/de0/classcflite_1_1eazyaiinf_1_1dummymode_1_1DummyMode.html#a9540d7e9292b95bb55375d902324bd1a" target="_top" xlink:title=" ">
<polygon fill="none" stroke="black" points="93.5,-333.5 93.5,-363.5 281.5,-363.5 281.5,-333.5 93.5,-333.5"/>
<text text-anchor="start" x="101.5" y="-351.5" font-family="Helvetica,sans-Serif" font-size="10.00">cflite.eazyaiinf.dummymode.</text>
<text text-anchor="middle" x="187.5" y="-340.5" font-family="Helvetica,sans-Serif" font-size="10.00">DummyMode.generate_commands</text>
</a>
</g>
</g>
<!-- Node1&#45;&gt;Node5 -->
<g id="edge4" class="edge">
<title>Node1&#45;&gt;Node5</title>
<path fill="none" stroke="midnightblue" d="M19.73,-245.23C25.43,-263.65 40.4,-303.51 68,-323.5 72.91,-327.06 78.22,-330.13 83.77,-332.78"/>
<polygon fill="midnightblue" stroke="midnightblue" points="82.74,-336.15 93.32,-336.86 85.49,-329.71 82.74,-336.15"/>
</g>
<!-- Node7 -->
<g id="node7" class="node">
<title>Node7</title>
<g id="a_node7"><a xlink:href="../../dd/d96/classcflite_1_1eazyaiinf_1_1livemode_1_1LiveMode.html#ad08a67b02c5c6e0389b2fcf6f1e77397" target="_top" xlink:title=" ">
<polygon fill="none" stroke="black" points="128,-295 128,-314 247,-314 247,-295 128,-295"/>
<text text-anchor="middle" x="187.5" y="-302" font-family="Helvetica,sans-Serif" font-size="10.00">generate_commands</text>
</a>
</g>
</g>
<!-- Node1&#45;&gt;Node7 -->
<g id="edge6" class="edge">
<title>Node1&#45;&gt;Node7</title>
<path fill="none" stroke="midnightblue" d="M23.72,-245.01C32.48,-256.63 48.96,-275.89 68,-285.5 83.32,-293.23 101.04,-297.95 118.04,-300.8"/>
<polygon fill="midnightblue" stroke="midnightblue" points="117.53,-304.26 127.94,-302.27 118.56,-297.34 117.53,-304.26"/>
</g>
<!-- Node8 -->
<g id="node8" class="node">
<title>Node8</title>
<g id="a_node8"><a xlink:href="../../d9/d70/classcflite_1_1eazyaigen_1_1vas_1_1VAS.html#a2485ece2a10f3abe8d6465cb2c0cc41f" target="_top" xlink:title=" ">
<polygon fill="none" stroke="black" points="95.5,-245.5 95.5,-275.5 279.5,-275.5 279.5,-245.5 95.5,-245.5"/>
<text text-anchor="start" x="103.5" y="-263.5" font-family="Helvetica,sans-Serif" font-size="10.00">cflite.eazyaigen.vas.VAS.generate</text>
<text text-anchor="middle" x="187.5" y="-252.5" font-family="Helvetica,sans-Serif" font-size="10.00">_commands</text>
</a>
</g>
</g>
<!-- Node1&#45;&gt;Node8 -->
<g id="edge7" class="edge">
<title>Node1&#45;&gt;Node8</title>
<path fill="none" stroke="midnightblue" d="M32.04,-237.72C44.84,-239.61 64.45,-242.5 85.44,-245.59"/>
<polygon fill="midnightblue" stroke="midnightblue" points="85.1,-249.08 95.5,-247.08 86.12,-242.16 85.1,-249.08"/>
</g>
<!-- Node9 -->
<g id="node9" class="node">
<title>Node9</title>
<g id="a_node9"><a xlink:href="../../d0/d1d/classcflite_1_1eazyaigen_1_1abstractobj_1_1eazyaigenobject_1_1EazyaiGenObject.html#a47fdd2bfe648c82ddfa9754ff16f46b1" target="_top" xlink:title=" ">
<polygon fill="none" stroke="black" points="68,-196.5 68,-226.5 307,-226.5 307,-196.5 68,-196.5"/>
<text text-anchor="start" x="76" y="-214.5" font-family="Helvetica,sans-Serif" font-size="10.00">cflite.eazyaigen.abstractobj.eazyaigenobject.</text>
<text text-anchor="middle" x="187.5" y="-203.5" font-family="Helvetica,sans-Serif" font-size="10.00">EazyaiGenObject.generate_commands</text>
</a>
</g>
</g>
<!-- Node1&#45;&gt;Node9 -->
<g id="edge8" class="edge">
<title>Node1&#45;&gt;Node9</title>
<path fill="none" stroke="midnightblue" d="M32.04,-233.37C41.68,-232.01 55.17,-230.09 70.22,-227.97"/>
<polygon fill="midnightblue" stroke="midnightblue" points="70.89,-231.4 80.3,-226.54 69.91,-224.47 70.89,-231.4"/>
</g>
<!-- Node10 -->
<g id="node10" class="node">
<title>Node10</title>
<g id="a_node10"><a xlink:href="../../da/dcb/group__cflite-eazyaigen-layercompare.html#ga0a5cd0403a07084fbe0aecb42852b46e" target="_top" xlink:title=" ">
<polygon fill="none" stroke="black" points="90.5,-147.5 90.5,-177.5 284.5,-177.5 284.5,-147.5 90.5,-147.5"/>
<text text-anchor="start" x="98.5" y="-165.5" font-family="Helvetica,sans-Serif" font-size="10.00">cflite.eazyaigen.layercompare.</text>
<text text-anchor="middle" x="187.5" y="-154.5" font-family="Helvetica,sans-Serif" font-size="10.00">LayerCompare.generate_commands</text>
</a>
</g>
</g>
<!-- Node1&#45;&gt;Node10 -->
<g id="edge9" class="edge">
<title>Node1&#45;&gt;Node10</title>
<path fill="none" stroke="midnightblue" d="M24.52,-225.74C33.59,-214.68 49.9,-196.96 68,-187.5 72.54,-185.13 77.29,-182.98 82.17,-181.03"/>
<polygon fill="midnightblue" stroke="midnightblue" points="83.51,-184.27 91.69,-177.54 81.1,-177.7 83.51,-184.27"/>
</g>
<!-- Node11 -->
<g id="node11" class="node">
<title>Node11</title>
<g id="a_node11"><a xlink:href="../../d8/d8d/group__cflite-eazyaigen-cavalry.html#ga40181f1a480d2c8687ed85a81dcd08e6" target="_top" xlink:title=" ">
<polygon fill="none" stroke="black" points="98,-98.5 98,-128.5 277,-128.5 277,-98.5 98,-98.5"/>
<text text-anchor="start" x="106" y="-116.5" font-family="Helvetica,sans-Serif" font-size="10.00">cflite.eazyaigen.cavalrygen.</text>
<text text-anchor="middle" x="187.5" y="-105.5" font-family="Helvetica,sans-Serif" font-size="10.00">CavalryGen.generate_commands</text>
</a>
</g>
</g>
<!-- Node1&#45;&gt;Node11 -->
<g id="edge10" class="edge">
<title>Node1&#45;&gt;Node11</title>
<path fill="none" stroke="midnightblue" d="M19.19,-225.72C24.16,-205.9 38.25,-160.99 68,-138.5 74.25,-133.77 81.19,-129.9 88.49,-126.72"/>
<polygon fill="midnightblue" stroke="midnightblue" points="89.85,-129.94 97.9,-123.05 87.31,-123.42 89.85,-129.94"/>
</g>
<!-- Node12 -->
<g id="node12" class="node">
<title>Node12</title>
<g id="a_node12"><a xlink:href="../../d9/d64/group__cflite-eazyaigen-cvb.html#gaecc2a0e370fa9e93a1efcbeb644a5c63" target="_top" xlink:title=" ">
<polygon fill="none" stroke="black" points="87.5,-49.5 87.5,-79.5 287.5,-79.5 287.5,-49.5 87.5,-49.5"/>
<text text-anchor="start" x="95.5" y="-67.5" font-family="Helvetica,sans-Serif" font-size="10.00">cflite.eazyaigen.cvbackend.</text>
<text text-anchor="middle" x="187.5" y="-56.5" font-family="Helvetica,sans-Serif" font-size="10.00">CVFlowBackend.generate_commands</text>
</a>
</g>
</g>
<!-- Node1&#45;&gt;Node12 -->
<g id="edge11" class="edge">
<title>Node1&#45;&gt;Node12</title>
<path fill="none" stroke="midnightblue" d="M17.24,-225.83C18.47,-199.41 25.7,-125.48 68,-88.5 71.24,-85.66 74.73,-83.13 78.4,-80.86"/>
<polygon fill="midnightblue" stroke="midnightblue" points="80.14,-83.9 87.26,-76.05 76.8,-77.75 80.14,-83.9"/>
</g>
<!-- Node14 -->
<g id="node14" class="node">
<title>Node14</title>
<g id="a_node14"><a xlink:href="../../dc/dcb/group__cflite-eazyaigen-dataprepare.html#ga47fdd2bfe648c82ddfa9754ff16f46b1" target="_top" xlink:title=" ">
<polygon fill="none" stroke="black" points="96,-0.5 96,-30.5 279,-30.5 279,-0.5 96,-0.5"/>
<text text-anchor="start" x="104" y="-18.5" font-family="Helvetica,sans-Serif" font-size="10.00">cflite.eazyaigen.dataprepare.</text>
<text text-anchor="middle" x="187.5" y="-7.5" font-family="Helvetica,sans-Serif" font-size="10.00">DataPrepare.generate_commands</text>
</a>
</g>
</g>
<!-- Node1&#45;&gt;Node14 -->
<g id="edge13" class="edge">
<title>Node1&#45;&gt;Node14</title>
<path fill="none" stroke="midnightblue" d="M18.2,-225.57C22.75,-189.45 40.17,-65.85 68,-39.5 73.45,-34.34 79.69,-30.15 86.39,-26.77"/>
<polygon fill="midnightblue" stroke="midnightblue" points="88.04,-29.87 95.78,-22.64 85.22,-23.46 88.04,-29.87"/>
</g>
<!-- Node3 -->
<g id="node3" class="node">
<title>Node3</title>
<g id="a_node3"><a xlink:href="../../d0/d1d/classcflite_1_1eazyaigen_1_1abstractobj_1_1eazyaigenobject_1_1EazyaiGenObject.html#a82c36c205d82f157d70c39e5a3b6c7ce" target="_top" xlink:title=" ">
<polygon fill="none" stroke="black" points="343,-431.5 343,-461.5 582,-461.5 582,-431.5 343,-431.5"/>
<text text-anchor="start" x="351" y="-449.5" font-family="Helvetica,sans-Serif" font-size="10.00">cflite.eazyaigen.abstractobj.eazyaigenobject.</text>
<text text-anchor="middle" x="462.5" y="-438.5" font-family="Helvetica,sans-Serif" font-size="10.00">EazyaiGenObject.start_subprocess</text>
</a>
</g>
</g>
<!-- Node2&#45;&gt;Node3 -->
<g id="edge2" class="edge">
<title>Node2&#45;&gt;Node3</title>
<path fill="none" stroke="midnightblue" d="M307.05,-446.5C315.44,-446.5 323.92,-446.5 332.36,-446.5"/>
<polygon fill="midnightblue" stroke="midnightblue" points="332.63,-450 342.63,-446.5 332.63,-443 332.63,-450"/>
</g>
<!-- Node6 -->
<g id="node6" class="node">
<title>Node6</title>
<g id="a_node6"><a xlink:href="../../d5/de0/classcflite_1_1eazyaiinf_1_1dummymode_1_1DummyMode.html#a4766fdee05cd3a5cc49a31d6c8a55b42" target="_top" xlink:title=" ">
<polygon fill="none" stroke="black" points="355,-333.5 355,-363.5 570,-363.5 570,-333.5 355,-333.5"/>
<text text-anchor="start" x="363" y="-351.5" font-family="Helvetica,sans-Serif" font-size="10.00">cflite.eazyaiinf.dummymode.</text>
<text text-anchor="middle" x="462.5" y="-340.5" font-family="Helvetica,sans-Serif" font-size="10.00">DummyMode.generate_evk_model_path</text>
</a>
</g>
</g>
<!-- Node5&#45;&gt;Node6 -->
<g id="edge5" class="edge">
<title>Node5&#45;&gt;Node6</title>
<path fill="none" stroke="midnightblue" d="M281.69,-348.5C301.86,-348.5 323.45,-348.5 344.41,-348.5"/>
<polygon fill="midnightblue" stroke="midnightblue" points="344.64,-352 354.64,-348.5 344.64,-345 344.64,-352"/>
</g>
<!-- Node13 -->
<g id="node13" class="node">
<title>Node13</title>
<g id="a_node13"><a xlink:href="../../d9/d64/group__cflite-eazyaigen-cvb.html#ga54e206c25e6db7808a1ffd4991267283" target="_top" xlink:title=" ">
<polygon fill="none" stroke="black" points="360,-49.5 360,-79.5 565,-79.5 565,-49.5 360,-49.5"/>
<text text-anchor="start" x="368" y="-67.5" font-family="Helvetica,sans-Serif" font-size="10.00">cflite.eazyaigen.cvbackend.</text>
<text text-anchor="middle" x="462.5" y="-56.5" font-family="Helvetica,sans-Serif" font-size="10.00">CVFlowBackend.generate_meta_graph</text>
</a>
</g>
</g>
<!-- Node12&#45;&gt;Node13 -->
<g id="edge12" class="edge">
<title>Node12&#45;&gt;Node13</title>
<path fill="none" stroke="midnightblue" d="M287.83,-64.5C308.01,-64.5 329.36,-64.5 349.93,-64.5"/>
<polygon fill="midnightblue" stroke="midnightblue" points="349.95,-68 359.95,-64.5 349.95,-61 349.95,-68"/>
</g>
</g>
</svg>
