<?xml version="1.0" encoding="UTF-8" standalone="no"?>
<!DOCTYPE svg PUBLIC "-//W3C//DTD SVG 1.1//EN"
 "http://www.w3.org/Graphics/SVG/1.1/DTD/svg11.dtd">
<!-- Generated by graphviz version 2.43.0 (0)
 -->
<!-- Title: run_non_block Pages: 1 -->
<svg width="621pt" height="421pt"
 viewBox="0.00 0.00 621.00 421.00" xmlns="http://www.w3.org/2000/svg" xmlns:xlink="http://www.w3.org/1999/xlink">
<g id="graph0" class="graph" transform="scale(1 1) rotate(0) translate(4 417)">
<title>run_non_block</title>
<!-- Node1 -->
<g id="node1" class="node">
<title>Node1</title>
<g id="a_node1"><a xlink:title=" ">
<polygon fill="#bfbfbf" stroke="black" points="0,-202 0,-221 87,-221 87,-202 0,-202"/>
<text text-anchor="middle" x="43.5" y="-209" font-family="Helvetica,sans-Serif" font-size="10.00">run_non_block</text>
</a>
</g>
</g>
<!-- Node2 -->
<g id="node2" class="node">
<title>Node2</title>
<g id="a_node2"><a xlink:href="../../d0/dd9/classcflite_1_1eazyaigen_1_1parser_1_1Parser.html#aecc2a0e370fa9e93a1efcbeb644a5c63" target="_top" xlink:title=" ">
<polygon fill="none" stroke="black" points="166,-382.5 166,-412.5 319,-412.5 319,-382.5 166,-382.5"/>
<text text-anchor="start" x="174" y="-400.5" font-family="Helvetica,sans-Serif" font-size="10.00">cflite.eazyaigen.parser.</text>
<text text-anchor="middle" x="242.5" y="-389.5" font-family="Helvetica,sans-Serif" font-size="10.00">Parser.generate_commands</text>
</a>
</g>
</g>
<!-- Node1&#45;&gt;Node2 -->
<g id="edge1" class="edge">
<title>Node1&#45;&gt;Node2</title>
<path fill="none" stroke="midnightblue" d="M46.09,-221.01C51.35,-249.24 70.89,-333.08 123,-373.5 132.75,-381.06 144.27,-386.42 156.24,-390.18"/>
<polygon fill="midnightblue" stroke="midnightblue" points="155.33,-393.56 165.9,-392.87 157.2,-386.82 155.33,-393.56"/>
</g>
<!-- Node3 -->
<g id="node3" class="node">
<title>Node3</title>
<g id="a_node3"><a xlink:href="../../d5/de0/classcflite_1_1eazyaiinf_1_1dummymode_1_1DummyMode.html#a9540d7e9292b95bb55375d902324bd1a" target="_top" xlink:title=" ">
<polygon fill="none" stroke="black" points="148.5,-333.5 148.5,-363.5 336.5,-363.5 336.5,-333.5 148.5,-333.5"/>
<text text-anchor="start" x="156.5" y="-351.5" font-family="Helvetica,sans-Serif" font-size="10.00">cflite.eazyaiinf.dummymode.</text>
<text text-anchor="middle" x="242.5" y="-340.5" font-family="Helvetica,sans-Serif" font-size="10.00">DummyMode.generate_commands</text>
</a>
</g>
</g>
<!-- Node1&#45;&gt;Node3 -->
<g id="edge2" class="edge">
<title>Node1&#45;&gt;Node3</title>
<path fill="none" stroke="midnightblue" d="M48.3,-221.15C57.49,-243.15 83.17,-297.2 123,-323.5 128,-326.8 133.36,-329.68 138.93,-332.19"/>
<polygon fill="midnightblue" stroke="midnightblue" points="137.9,-335.55 148.48,-336.06 140.53,-329.06 137.9,-335.55"/>
</g>
<!-- Node5 -->
<g id="node5" class="node">
<title>Node5</title>
<g id="a_node5"><a xlink:href="../../dd/d96/classcflite_1_1eazyaiinf_1_1livemode_1_1LiveMode.html#ad08a67b02c5c6e0389b2fcf6f1e77397" target="_top" xlink:title=" ">
<polygon fill="none" stroke="black" points="183,-295 183,-314 302,-314 302,-295 183,-295"/>
<text text-anchor="middle" x="242.5" y="-302" font-family="Helvetica,sans-Serif" font-size="10.00">generate_commands</text>
</a>
</g>
</g>
<!-- Node1&#45;&gt;Node5 -->
<g id="edge4" class="edge">
<title>Node1&#45;&gt;Node5</title>
<path fill="none" stroke="midnightblue" d="M51.49,-221.1C63.88,-237.33 91.41,-269.95 123,-285.5 138.17,-292.97 155.63,-297.61 172.41,-300.47"/>
<polygon fill="midnightblue" stroke="midnightblue" points="172.33,-304 182.74,-302.03 173.37,-297.07 172.33,-304"/>
</g>
<!-- Node6 -->
<g id="node6" class="node">
<title>Node6</title>
<g id="a_node6"><a xlink:href="../../d9/d70/classcflite_1_1eazyaigen_1_1vas_1_1VAS.html#a2485ece2a10f3abe8d6465cb2c0cc41f" target="_top" xlink:title=" ">
<polygon fill="none" stroke="black" points="150.5,-245.5 150.5,-275.5 334.5,-275.5 334.5,-245.5 150.5,-245.5"/>
<text text-anchor="start" x="158.5" y="-263.5" font-family="Helvetica,sans-Serif" font-size="10.00">cflite.eazyaigen.vas.VAS.generate</text>
<text text-anchor="middle" x="242.5" y="-252.5" font-family="Helvetica,sans-Serif" font-size="10.00">_commands</text>
</a>
</g>
</g>
<!-- Node1&#45;&gt;Node6 -->
<g id="edge5" class="edge">
<title>Node1&#45;&gt;Node6</title>
<path fill="none" stroke="midnightblue" d="M71.9,-221.03C86.88,-226.04 105.83,-232.04 123,-236.5 132.12,-238.87 141.69,-241.15 151.27,-243.29"/>
<polygon fill="midnightblue" stroke="midnightblue" points="150.71,-246.75 161.23,-245.47 152.21,-239.91 150.71,-246.75"/>
</g>
<!-- Node7 -->
<g id="node7" class="node">
<title>Node7</title>
<g id="a_node7"><a xlink:href="../../d0/d1d/classcflite_1_1eazyaigen_1_1abstractobj_1_1eazyaigenobject_1_1EazyaiGenObject.html#a47fdd2bfe648c82ddfa9754ff16f46b1" target="_top" xlink:title=" ">
<polygon fill="none" stroke="black" points="123,-196.5 123,-226.5 362,-226.5 362,-196.5 123,-196.5"/>
<text text-anchor="start" x="131" y="-214.5" font-family="Helvetica,sans-Serif" font-size="10.00">cflite.eazyaigen.abstractobj.eazyaigenobject.</text>
<text text-anchor="middle" x="242.5" y="-203.5" font-family="Helvetica,sans-Serif" font-size="10.00">EazyaiGenObject.generate_commands</text>
</a>
</g>
</g>
<!-- Node1&#45;&gt;Node7 -->
<g id="edge6" class="edge">
<title>Node1&#45;&gt;Node7</title>
<path fill="none" stroke="midnightblue" d="M87.25,-211.5C95.14,-211.5 103.74,-211.5 112.72,-211.5"/>
<polygon fill="midnightblue" stroke="midnightblue" points="113,-215 123,-211.5 113,-208 113,-215"/>
</g>
<!-- Node8 -->
<g id="node8" class="node">
<title>Node8</title>
<g id="a_node8"><a xlink:href="../../da/dcb/group__cflite-eazyaigen-layercompare.html#ga0a5cd0403a07084fbe0aecb42852b46e" target="_top" xlink:title=" ">
<polygon fill="none" stroke="black" points="145.5,-147.5 145.5,-177.5 339.5,-177.5 339.5,-147.5 145.5,-147.5"/>
<text text-anchor="start" x="153.5" y="-165.5" font-family="Helvetica,sans-Serif" font-size="10.00">cflite.eazyaigen.layercompare.</text>
<text text-anchor="middle" x="242.5" y="-154.5" font-family="Helvetica,sans-Serif" font-size="10.00">LayerCompare.generate_commands</text>
</a>
</g>
</g>
<!-- Node1&#45;&gt;Node8 -->
<g id="edge7" class="edge">
<title>Node1&#45;&gt;Node8</title>
<path fill="none" stroke="midnightblue" d="M73.4,-201.99C88.16,-197.31 106.44,-191.77 123,-187.5 133.44,-184.81 144.46,-182.19 155.4,-179.73"/>
<polygon fill="midnightblue" stroke="midnightblue" points="156.4,-183.09 165.41,-177.51 154.89,-176.25 156.4,-183.09"/>
</g>
<!-- Node9 -->
<g id="node9" class="node">
<title>Node9</title>
<g id="a_node9"><a xlink:href="../../d8/d8d/group__cflite-eazyaigen-cavalry.html#ga40181f1a480d2c8687ed85a81dcd08e6" target="_top" xlink:title=" ">
<polygon fill="none" stroke="black" points="153,-98.5 153,-128.5 332,-128.5 332,-98.5 153,-98.5"/>
<text text-anchor="start" x="161" y="-116.5" font-family="Helvetica,sans-Serif" font-size="10.00">cflite.eazyaigen.cavalrygen.</text>
<text text-anchor="middle" x="242.5" y="-105.5" font-family="Helvetica,sans-Serif" font-size="10.00">CavalryGen.generate_commands</text>
</a>
</g>
</g>
<!-- Node1&#45;&gt;Node9 -->
<g id="edge8" class="edge">
<title>Node1&#45;&gt;Node9</title>
<path fill="none" stroke="midnightblue" d="M51.8,-201.94C64.46,-186.09 92.11,-154.52 123,-138.5 129.42,-135.17 136.25,-132.29 143.26,-129.79"/>
<polygon fill="midnightblue" stroke="midnightblue" points="144.52,-133.06 152.92,-126.61 142.33,-126.41 144.52,-133.06"/>
</g>
<!-- Node10 -->
<g id="node10" class="node">
<title>Node10</title>
<g id="a_node10"><a xlink:href="../../d9/d64/group__cflite-eazyaigen-cvb.html#gaecc2a0e370fa9e93a1efcbeb644a5c63" target="_top" xlink:title=" ">
<polygon fill="none" stroke="black" points="142.5,-49.5 142.5,-79.5 342.5,-79.5 342.5,-49.5 142.5,-49.5"/>
<text text-anchor="start" x="150.5" y="-67.5" font-family="Helvetica,sans-Serif" font-size="10.00">cflite.eazyaigen.cvbackend.</text>
<text text-anchor="middle" x="242.5" y="-56.5" font-family="Helvetica,sans-Serif" font-size="10.00">CVFlowBackend.generate_commands</text>
</a>
</g>
</g>
<!-- Node1&#45;&gt;Node10 -->
<g id="edge9" class="edge">
<title>Node1&#45;&gt;Node10</title>
<path fill="none" stroke="midnightblue" d="M47.63,-201.96C55.84,-178.48 80.39,-117.73 123,-88.5 126.17,-86.32 129.5,-84.34 132.94,-82.52"/>
<polygon fill="midnightblue" stroke="midnightblue" points="134.74,-85.54 142.29,-78.11 131.75,-79.21 134.74,-85.54"/>
</g>
<!-- Node12 -->
<g id="node12" class="node">
<title>Node12</title>
<g id="a_node12"><a xlink:href="../../dc/dcb/group__cflite-eazyaigen-dataprepare.html#ga47fdd2bfe648c82ddfa9754ff16f46b1" target="_top" xlink:title=" ">
<polygon fill="none" stroke="black" points="151,-0.5 151,-30.5 334,-30.5 334,-0.5 151,-0.5"/>
<text text-anchor="start" x="159" y="-18.5" font-family="Helvetica,sans-Serif" font-size="10.00">cflite.eazyaigen.dataprepare.</text>
<text text-anchor="middle" x="242.5" y="-7.5" font-family="Helvetica,sans-Serif" font-size="10.00">DataPrepare.generate_commands</text>
</a>
</g>
</g>
<!-- Node1&#45;&gt;Node12 -->
<g id="edge11" class="edge">
<title>Node1&#45;&gt;Node12</title>
<path fill="none" stroke="midnightblue" d="M45.83,-201.84C50.43,-172.33 68.51,-82.78 123,-39.5 128.52,-35.11 134.63,-31.47 141.09,-28.44"/>
<polygon fill="midnightblue" stroke="midnightblue" points="142.86,-31.49 150.76,-24.43 140.18,-25.03 142.86,-31.49"/>
</g>
<!-- Node4 -->
<g id="node4" class="node">
<title>Node4</title>
<g id="a_node4"><a xlink:href="../../d5/de0/classcflite_1_1eazyaiinf_1_1dummymode_1_1DummyMode.html#a4766fdee05cd3a5cc49a31d6c8a55b42" target="_top" xlink:title=" ">
<polygon fill="none" stroke="black" points="398,-333.5 398,-363.5 613,-363.5 613,-333.5 398,-333.5"/>
<text text-anchor="start" x="406" y="-351.5" font-family="Helvetica,sans-Serif" font-size="10.00">cflite.eazyaiinf.dummymode.</text>
<text text-anchor="middle" x="505.5" y="-340.5" font-family="Helvetica,sans-Serif" font-size="10.00">DummyMode.generate_evk_model_path</text>
</a>
</g>
</g>
<!-- Node3&#45;&gt;Node4 -->
<g id="edge3" class="edge">
<title>Node3&#45;&gt;Node4</title>
<path fill="none" stroke="midnightblue" d="M336.62,-348.5C353.14,-348.5 370.54,-348.5 387.62,-348.5"/>
<polygon fill="midnightblue" stroke="midnightblue" points="387.63,-352 397.63,-348.5 387.63,-345 387.63,-352"/>
</g>
<!-- Node11 -->
<g id="node11" class="node">
<title>Node11</title>
<g id="a_node11"><a xlink:href="../../d9/d64/group__cflite-eazyaigen-cvb.html#ga54e206c25e6db7808a1ffd4991267283" target="_top" xlink:title=" ">
<polygon fill="none" stroke="black" points="403,-49.5 403,-79.5 608,-79.5 608,-49.5 403,-49.5"/>
<text text-anchor="start" x="411" y="-67.5" font-family="Helvetica,sans-Serif" font-size="10.00">cflite.eazyaigen.cvbackend.</text>
<text text-anchor="middle" x="505.5" y="-56.5" font-family="Helvetica,sans-Serif" font-size="10.00">CVFlowBackend.generate_meta_graph</text>
</a>
</g>
</g>
<!-- Node10&#45;&gt;Node11 -->
<g id="edge10" class="edge">
<title>Node10&#45;&gt;Node11</title>
<path fill="none" stroke="midnightblue" d="M342.55,-64.5C358.91,-64.5 375.97,-64.5 392.62,-64.5"/>
<polygon fill="midnightblue" stroke="midnightblue" points="392.92,-68 402.92,-64.5 392.92,-61 392.92,-68"/>
</g>
</g>
</svg>
