<?xml version="1.0" encoding="UTF-8" standalone="no"?>
<!DOCTYPE svg PUBLIC "-//W3C//DTD SVG 1.1//EN"
 "http://www.w3.org/Graphics/SVG/1.1/DTD/svg11.dtd">
<!-- Generated by graphviz version 2.43.0 (0)
 -->
<!-- Title: library/eazyai/inc/core/ea_img_resource.h Pages: 1 -->
<svg width="144pt" height="173pt"
 viewBox="0.00 0.00 144.00 173.00" xmlns="http://www.w3.org/2000/svg" xmlns:xlink="http://www.w3.org/1999/xlink">
<g id="graph0" class="graph" transform="scale(1 1) rotate(0) translate(4 169)">
<title>library/eazyai/inc/core/ea_img_resource.h</title>
<!-- Node1 -->
<g id="node1" class="node">
<title>Node1</title>
<g id="a_node1"><a xlink:title="The interface of EazyAI Image Resource.">
<polygon fill="#bfbfbf" stroke="black" points="0,-134.5 0,-164.5 136,-164.5 136,-134.5 0,-134.5"/>
<text text-anchor="start" x="8" y="-152.5" font-family="Helvetica,sans-Serif" font-size="10.00">library/eazyai/inc</text>
<text text-anchor="middle" x="68" y="-141.5" font-family="Helvetica,sans-Serif" font-size="10.00">/core/ea_img_resource.h</text>
</a>
</g>
</g>
<!-- Node2 -->
<g id="node2" class="node">
<title>Node2</title>
<g id="a_node2"><a xlink:href="../../db/d37/eazyai__core_8h.html" target="_top" xlink:title="The public interfaces of EazyAI Core framwork.">
<polygon fill="none" stroke="black" points="12.5,-67.5 12.5,-97.5 123.5,-97.5 123.5,-67.5 12.5,-67.5"/>
<text text-anchor="start" x="20.5" y="-85.5" font-family="Helvetica,sans-Serif" font-size="10.00">library/eazyai/inc</text>
<text text-anchor="middle" x="68" y="-74.5" font-family="Helvetica,sans-Serif" font-size="10.00">/core/eazyai_core.h</text>
</a>
</g>
</g>
<!-- Node1&#45;&gt;Node2 -->
<g id="edge1" class="edge">
<title>Node1&#45;&gt;Node2</title>
<path fill="none" stroke="midnightblue" d="M68,-124.11C68,-115.15 68,-105.32 68,-97.58"/>
<polygon fill="midnightblue" stroke="midnightblue" points="64.5,-124.4 68,-134.4 71.5,-124.4 64.5,-124.4"/>
</g>
<!-- Node3 -->
<g id="node3" class="node">
<title>Node3</title>
<g id="a_node3"><a xlink:href="../../dd/dbe/eazyai_8h.html" target="_top" xlink:title="The public interfaces of EazyAI framwork.">
<polygon fill="none" stroke="black" points="17.5,-0.5 17.5,-30.5 118.5,-30.5 118.5,-0.5 17.5,-0.5"/>
<text text-anchor="start" x="25.5" y="-18.5" font-family="Helvetica,sans-Serif" font-size="10.00">library/eazyai/inc</text>
<text text-anchor="middle" x="68" y="-7.5" font-family="Helvetica,sans-Serif" font-size="10.00">/eazyai.h</text>
</a>
</g>
</g>
<!-- Node2&#45;&gt;Node3 -->
<g id="edge2" class="edge">
<title>Node2&#45;&gt;Node3</title>
<path fill="none" stroke="midnightblue" d="M68,-57.11C68,-48.15 68,-38.32 68,-30.58"/>
<polygon fill="midnightblue" stroke="midnightblue" points="64.5,-57.4 68,-67.4 71.5,-57.4 64.5,-57.4"/>
</g>
</g>
</svg>
