<?xml version="1.0" encoding="UTF-8" standalone="no"?>
<!DOCTYPE svg PUBLIC "-//W3C//DTD SVG 1.1//EN"
 "http://www.w3.org/Graphics/SVG/1.1/DTD/svg11.dtd">
<!-- Generated by graphviz version 2.43.0 (0)
 -->
<!-- Title: eazyaiutils Pages: 1 -->
<svg width="447pt" height="175pt"
 viewBox="0.00 0.00 447.00 175.00" xmlns="http://www.w3.org/2000/svg" xmlns:xlink="http://www.w3.org/1999/xlink">
<g id="graph0" class="graph" transform="scale(1 1) rotate(0) translate(4 171)">
<title>eazyaiutils</title>
<!-- Node2 -->
<g id="node1" class="node">
<title>Node2</title>
<g id="a_node1"><a xlink:href="../../db/d01/group__cflite-api.html" target="_top" xlink:title="CFLite library API.">
<polygon fill="none" stroke="black" points="101,-93 0,-93 0,-74 101,-74 101,-93"/>
<text text-anchor="middle" x="50.5" y="-81" font-family="Helvetica,sans-Serif" font-size="10.00">CFLite library API</text>
</a>
</g>
</g>
<!-- Node1 -->
<g id="node6" class="node">
<title>Node1</title>
<g id="a_node6"><a xlink:title="Definition of eazyaiutils.">
<polygon fill="#bfbfbf" stroke="black" points="207,-93 137,-93 137,-74 207,-74 207,-93"/>
<text text-anchor="middle" x="172" y="-81" font-family="Helvetica,sans-Serif" font-size="10.00">eazyaiutils</text>
</a>
</g>
</g>
<!-- Node2&#45;&gt;Node1 -->
<g id="edge1" class="edge">
<title>Node2&#45;&gt;Node1</title>
<path fill="none" stroke="black" d="M111.4,-83.5C120.18,-83.5 128.95,-83.5 136.96,-83.5"/>
<polygon fill="black" stroke="black" points="111.14,-80 101.14,-83.5 111.14,-87 111.14,-80"/>
</g>
<!-- Node7 -->
<g id="node2" class="node">
<title>Node7</title>
<g id="a_node2"><a xlink:href="../../d0/d77/group__cflite-eazyaiutils-evaltopn.html" target="_top" xlink:title="Definition of eazyaiutils.eval.evaltopn.">
<polygon fill="none" stroke="black" points="411,-167 271,-167 271,-148 411,-148 411,-167"/>
<text text-anchor="middle" x="341" y="-155" font-family="Helvetica,sans-Serif" font-size="10.00">eazyaiutils.eval.evaltopn</text>
</a>
</g>
</g>
<!-- Node5 -->
<g id="node3" class="node">
<title>Node5</title>
<g id="a_node3"><a xlink:href="../../dc/d74/group__cflite-eazyaiutils-evalmap.html" target="_top" xlink:title="Definition of eazyaiutils.eval.evalmap.">
<polygon fill="none" stroke="black" points="411,-130 271,-130 271,-111 411,-111 411,-130"/>
<text text-anchor="middle" x="341" y="-118" font-family="Helvetica,sans-Serif" font-size="10.00">eazyaiutils.eval.evalmap</text>
</a>
</g>
</g>
<!-- Node4 -->
<g id="node4" class="node">
<title>Node4</title>
<g id="a_node4"><a xlink:href="../../d1/de4/group__cflite-eazyaiutils-evalcosine.html" target="_top" xlink:title="Definition of eazyaiutils.eval.evalcosinesimilarity.">
<polygon fill="none" stroke="black" points="439,-93 243,-93 243,-74 439,-74 439,-93"/>
<text text-anchor="middle" x="341" y="-81" font-family="Helvetica,sans-Serif" font-size="10.00">eazyaiutils.eval.evalcosinesimilarity</text>
</a>
</g>
</g>
<!-- Node3 -->
<g id="node5" class="node">
<title>Node3</title>
<g id="a_node5"><a xlink:href="../../d7/dd3/group__cflite-eazyaiutils-graphgen.html" target="_top" xlink:title="Definition of eazyaiutils.graph.graphgen.">
<polygon fill="none" stroke="black" points="415.5,-56 266.5,-56 266.5,-37 415.5,-37 415.5,-56"/>
<text text-anchor="middle" x="341" y="-44" font-family="Helvetica,sans-Serif" font-size="10.00">eazyaiutils.graph.graphgen</text>
</a>
</g>
</g>
<!-- Node1&#45;&gt;Node7 -->
<g id="edge6" class="edge">
<title>Node1&#45;&gt;Node7</title>
<path fill="none" stroke="black" d="M189.29,-100.46C202.54,-113.22 222.37,-130.06 243,-139.5 251.72,-143.49 261.27,-146.6 270.86,-149.01"/>
<polygon fill="black" stroke="black" points="191.5,-97.72 181.94,-93.15 186.56,-102.68 191.5,-97.72"/>
</g>
<!-- Node1&#45;&gt;Node5 -->
<g id="edge4" class="edge">
<title>Node1&#45;&gt;Node5</title>
<path fill="none" stroke="black" d="M215.83,-95.72C224.77,-98.1 234.17,-100.49 243,-102.5 256.36,-105.55 270.84,-108.45 284.44,-111"/>
<polygon fill="black" stroke="black" points="216.54,-92.29 205.98,-93.05 214.71,-99.04 216.54,-92.29"/>
</g>
<!-- Node1&#45;&gt;Node4 -->
<g id="edge3" class="edge">
<title>Node1&#45;&gt;Node4</title>
<path fill="none" stroke="black" d="M217.3,-83.5C225.29,-83.5 233.89,-83.5 242.71,-83.5"/>
<polygon fill="black" stroke="black" points="217.2,-80 207.2,-83.5 217.2,-87 217.2,-80"/>
</g>
<!-- Node1&#45;&gt;Node3 -->
<g id="edge2" class="edge">
<title>Node1&#45;&gt;Node3</title>
<path fill="none" stroke="black" d="M216.97,-71.78C225.58,-69.6 234.56,-67.41 243,-65.5 257.73,-62.17 273.79,-58.88 288.53,-56"/>
<polygon fill="black" stroke="black" points="215.9,-68.44 207.08,-74.31 217.64,-75.22 215.9,-68.44"/>
</g>
<!-- Node6 -->
<g id="node7" class="node">
<title>Node6</title>
<g id="a_node7"><a xlink:href="../../de/d13/group__cflite-eazyaiutils-evalmiou.html" target="_top" xlink:title="Definition of eazyaiutils.eval.evalmiou.">
<polygon fill="none" stroke="black" points="412.5,-19 269.5,-19 269.5,0 412.5,0 412.5,-19"/>
<text text-anchor="middle" x="341" y="-7" font-family="Helvetica,sans-Serif" font-size="10.00">eazyaiutils.eval.evalmiou</text>
</a>
</g>
</g>
<!-- Node1&#45;&gt;Node6 -->
<g id="edge5" class="edge">
<title>Node1&#45;&gt;Node6</title>
<path fill="none" stroke="black" d="M189.83,-66.48C203.12,-54.04 222.75,-37.78 243,-28.5 251.5,-24.6 260.78,-21.51 270.12,-19.04"/>
<polygon fill="black" stroke="black" points="187.18,-64.17 182.42,-73.63 192.04,-69.2 187.18,-64.17"/>
</g>
</g>
</svg>
