<?xml version="1.0" encoding="UTF-8" standalone="no"?>
<!DOCTYPE svg PUBLIC "-//W3C//DTD SVG 1.1//EN"
 "http://www.w3.org/Graphics/SVG/1.1/DTD/svg11.dtd">
<!-- Generated by graphviz version 2.43.0 (0)
 -->
<!-- Title: EazyAI library API Pages: 1 -->
<svg width="307pt" height="172pt"
 viewBox="0.00 0.00 307.00 172.00" xmlns="http://www.w3.org/2000/svg" xmlns:xlink="http://www.w3.org/1999/xlink">
<g id="graph0" class="graph" transform="scale(1 1) rotate(0) translate(4 168)">
<title>EazyAI library API</title>
<!-- Node5 -->
<g id="node1" class="node">
<title>Node5</title>
<g id="a_node1"><a xlink:href="../../d9/dd3/group__eazyai__arm__postprocess-helper.html" target="_top" xlink:title="Definition of EazyAI Arm Postprocess library structures.">
<polygon fill="none" stroke="black" points="286,-164 152,-164 152,-134 286,-134 286,-164"/>
<text text-anchor="start" x="160" y="-152" font-family="Helvetica,sans-Serif" font-size="10.00">EazyAI Arm Postporcess</text>
<text text-anchor="middle" x="219" y="-141" font-family="Helvetica,sans-Serif" font-size="10.00"> structures</text>
</a>
</g>
</g>
<!-- Node1 -->
<g id="node2" class="node">
<title>Node1</title>
<g id="a_node2"><a xlink:title="EazyAI library API.">
<polygon fill="#bfbfbf" stroke="black" points="103,-88.5 0,-88.5 0,-69.5 103,-69.5 103,-88.5"/>
<text text-anchor="middle" x="51.5" y="-76.5" font-family="Helvetica,sans-Serif" font-size="10.00">EazyAI library API</text>
</a>
</g>
</g>
<!-- Node1&#45;&gt;Node5 -->
<g id="edge4" class="edge">
<title>Node1&#45;&gt;Node5</title>
<path fill="none" stroke="black" d="M77.04,-93.7C94.03,-103.46 117.38,-116.07 139,-125 146.82,-128.23 155.23,-131.25 163.54,-133.97"/>
<polygon fill="black" stroke="black" points="78.71,-90.62 68.31,-88.61 75.19,-96.67 78.71,-90.62"/>
</g>
<!-- Node4 -->
<g id="node3" class="node">
<title>Node4</title>
<g id="a_node3"><a xlink:href="../../d6/db5/group__eazyai__arm__postprocess-api-details.html" target="_top" xlink:title="EazyAI Arm Postprocess API details, in file nn_arm.h.">
<polygon fill="none" stroke="black" points="286,-116 152,-116 152,-86 286,-86 286,-116"/>
<text text-anchor="start" x="160" y="-104" font-family="Helvetica,sans-Serif" font-size="10.00">EazyAI Arm Postprocess</text>
<text text-anchor="middle" x="219" y="-93" font-family="Helvetica,sans-Serif" font-size="10.00"> library functions</text>
</a>
</g>
</g>
<!-- Node1&#45;&gt;Node4 -->
<g id="edge3" class="edge">
<title>Node1&#45;&gt;Node4</title>
<path fill="none" stroke="black" d="M113.01,-87.04C125.65,-88.72 139.05,-90.5 151.88,-92.21"/>
<polygon fill="black" stroke="black" points="113.43,-83.57 103.05,-85.72 112.51,-90.51 113.43,-83.57"/>
</g>
<!-- Node2 -->
<g id="node4" class="node">
<title>Node2</title>
<g id="a_node4"><a xlink:href="../../da/d24/group__eazyai-api-details.html" target="_top" xlink:title="Definition of functions in EazyAI library.">
<polygon fill="none" stroke="black" points="285,-67.5 153,-67.5 153,-48.5 285,-48.5 285,-67.5"/>
<text text-anchor="middle" x="219" y="-55.5" font-family="Helvetica,sans-Serif" font-size="10.00">EazyAI library functions</text>
</a>
</g>
</g>
<!-- Node1&#45;&gt;Node2 -->
<g id="edge1" class="edge">
<title>Node1&#45;&gt;Node2</title>
<path fill="none" stroke="black" d="M113.2,-71.3C126.08,-69.66 139.74,-67.93 152.79,-66.27"/>
<polygon fill="black" stroke="black" points="112.53,-67.85 103.05,-72.59 113.42,-74.8 112.53,-67.85"/>
</g>
<!-- Node3 -->
<g id="node5" class="node">
<title>Node3</title>
<g id="a_node5"><a xlink:href="../../de/d5b/group__eazyai-api-helper.html" target="_top" xlink:title="Definition of macros, enumerations and structures in EazyAI library.">
<polygon fill="none" stroke="black" points="299,-30 139,-30 139,0 299,0 299,-30"/>
<text text-anchor="start" x="147" y="-18" font-family="Helvetica,sans-Serif" font-size="10.00">EazyAI library macros,</text>
<text text-anchor="middle" x="219" y="-7" font-family="Helvetica,sans-Serif" font-size="10.00"> enumerations and structures</text>
</a>
</g>
</g>
<!-- Node1&#45;&gt;Node3 -->
<g id="edge2" class="edge">
<title>Node1&#45;&gt;Node3</title>
<path fill="none" stroke="black" d="M81.35,-64.97C98,-57.13 119.45,-47.47 139,-40 148,-36.56 157.71,-33.21 167.12,-30.13"/>
<polygon fill="black" stroke="black" points="79.68,-61.89 72.15,-69.35 82.68,-68.21 79.68,-61.89"/>
</g>
</g>
</svg>
