<?xml version="1.0" encoding="UTF-8" standalone="no"?>
<!DOCTYPE svg PUBLIC "-//W3C//DTD SVG 1.1//EN"
 "http://www.w3.org/Graphics/SVG/1.1/DTD/svg11.dtd">
<!-- Generated by graphviz version 2.43.0 (0)
 -->
<!-- Title: EazyAI library macros, enumerations and structures Pages: 1 -->
<!--zoomable 470 -->
<svg id="main" version="1.1" xmlns="http://www.w3.org/2000/svg" xmlns:xlink="http://www.w3.org/1999/xlink" xml:space="preserve" onload="init(evt)">
<style type="text/css"><![CDATA[
.edge:hover path { stroke: red; }
.edge:hover polygon { stroke: red; fill: red; }
]]></style>
<script type="text/javascript"><![CDATA[
var edges = document.getElementsByTagName('g');
if (edges && edges.length) {
  for (var i=0;i<edges.length;i++) {
    if (edges[i].id.substr(0,4)=='edge') {
      edges[i].setAttribute('class','edge');
    }
  }
}
]]></script>
        <defs>
                <circle id="rim" cx="0" cy="0" r="7"/>
                <circle id="rim2" cx="0" cy="0" r="3.5"/>
                <g id="zoomPlus">
                        <use xlink:href="#rim" fill="#404040">
                                <set attributeName="fill" to="#808080" begin="zoomplus.mouseover" end="zoomplus.mouseout"/>
                        </use>
                        <path d="M-4,0h8M0,-4v8" fill="none" stroke="white" stroke-width="1.5" pointer-events="none"/>
                </g>
                <g id="zoomMin">
                        <use xlink:href="#rim" fill="#404040">
                                <set attributeName="fill" to="#808080" begin="zoomminus.mouseover" end="zoomminus.mouseout"/>
                        </use>
                        <path d="M-4,0h8" fill="none" stroke="white" stroke-width="1.5" pointer-events="none"/>
                </g>
                <g id="dirArrow">
                        <path fill="none" stroke="white" stroke-width="1.5" d="M0,-3.0v7 M-2.5,-0.5L0,-3.0L2.5,-0.5"/>
                </g>
               <g id="resetDef">
                       <use xlink:href="#rim2" fill="#404040">
                               <set attributeName="fill" to="#808080" begin="reset.mouseover" end="reset.mouseout"/>
                       </use>
               </g>
        </defs>

<script type="text/javascript">
var viewWidth = 520;
var viewHeight = 470;
var sectionId = 'dynsection-0';
</script>
<script xlink:href="../../svgpan.js"/>
<svg id="graph" class="graph">
<g id="viewport">
<title>EazyAI library macros, enumerations and structures</title>
<!-- Node2 -->
<g id="node1" class="node">
<title>Node2</title>
<g id="a_node1"><a xlink:href="../../db/dd5/group__eazyai-api.html" target="_top" xlink:title="EazyAI library API.">
<polygon fill="none" stroke="black" points="103,-240.5 0,-240.5 0,-221.5 103,-221.5 103,-240.5"/>
<text text-anchor="middle" x="51.5" y="-228.5" font-family="Helvetica,sans-Serif" font-size="10.00">EazyAI library API</text>
</a>
</g>
</g>
<!-- Node1 -->
<g id="node4" class="node">
<title>Node1</title>
<g id="a_node4"><a xlink:title="Definition of macros, enumerations and structures in EazyAI library.">
<polygon fill="#bfbfbf" stroke="black" points="299,-246 139,-246 139,-216 299,-216 299,-246"/>
<text text-anchor="start" x="147" y="-234" font-family="Helvetica,sans-Serif" font-size="10.00">EazyAI library macros,</text>
<text text-anchor="middle" x="219" y="-223" font-family="Helvetica,sans-Serif" font-size="10.00"> enumerations and structures</text>
</a>
</g>
</g>
<!-- Node2&#45;&gt;Node1 -->
<g id="edge1" class="edge">
<title>Node2&#45;&gt;Node1</title>
<path fill="none" stroke="black" d="M113.08,-231C121.45,-231 130.15,-231 138.79,-231"/>
<polygon fill="black" stroke="black" points="113.05,-227.5 103.05,-231 113.05,-234.5 113.05,-227.5"/>
</g>
<!-- Node5 -->
<g id="node2" class="node">
<title>Node5</title>
<g id="a_node2"><a xlink:href="../../d9/d79/group__eazyai-tensor-helper.html" target="_top" xlink:title="Definition of ea_tensor macros, enumerations and structures.">
<polygon fill="none" stroke="black" points="512,-462 335,-462 335,-432 512,-432 512,-462"/>
<text text-anchor="start" x="343" y="-450" font-family="Helvetica,sans-Serif" font-size="10.00">ea_tensor macros, enumerations</text>
<text text-anchor="middle" x="423.5" y="-439" font-family="Helvetica,sans-Serif" font-size="10.00"> and structures</text>
</a>
</g>
</g>
<!-- Node9 -->
<g id="node3" class="node">
<title>Node9</title>
<g id="a_node3"><a xlink:href="../../d4/d73/group__eazyai-osd-helper.html" target="_top" xlink:title="Definition of ea_osd macros, enumerations and structures.">
<polygon fill="none" stroke="black" points="496.5,-414 350.5,-414 350.5,-384 496.5,-384 496.5,-414"/>
<text text-anchor="start" x="358.5" y="-402" font-family="Helvetica,sans-Serif" font-size="10.00">osd macros, enumerations</text>
<text text-anchor="middle" x="423.5" y="-391" font-family="Helvetica,sans-Serif" font-size="10.00"> and structures</text>
</a>
</g>
</g>
<!-- Node1&#45;&gt;Node5 -->
<g id="edge4" class="edge">
<title>Node1&#45;&gt;Node5</title>
<path fill="none" stroke="black" d="M227.92,-255.66C242.39,-296.74 277.09,-379.03 335,-423 339.52,-426.43 344.49,-429.37 349.71,-431.89"/>
<polygon fill="black" stroke="black" points="231.21,-254.48 224.67,-246.15 224.59,-256.74 231.21,-254.48"/>
</g>
<!-- Node1&#45;&gt;Node9 -->
<g id="edge8" class="edge">
<title>Node1&#45;&gt;Node9</title>
<path fill="none" stroke="black" d="M232.72,-255.01C251.01,-287.22 287.82,-343.93 335,-375 340.26,-378.47 346.02,-381.43 351.98,-383.98"/>
<polygon fill="black" stroke="black" points="235.76,-253.29 227.85,-246.24 229.64,-256.68 235.76,-253.29"/>
</g>
<!-- Node4 -->
<g id="node5" class="node">
<title>Node4</title>
<g id="a_node5"><a xlink:href="../../d5/d6a/group__eazyai-env-helper.html" target="_top" xlink:title="Definition of ea_env macros, enumerations and structures.">
<polygon fill="none" stroke="black" points="505.5,-366 341.5,-366 341.5,-336 505.5,-336 505.5,-366"/>
<text text-anchor="start" x="349.5" y="-354" font-family="Helvetica,sans-Serif" font-size="10.00">ea_env macros, enumerations</text>
<text text-anchor="middle" x="423.5" y="-343" font-family="Helvetica,sans-Serif" font-size="10.00"> and structures</text>
</a>
</g>
</g>
<!-- Node1&#45;&gt;Node4 -->
<g id="edge3" class="edge">
<title>Node1&#45;&gt;Node4</title>
<path fill="none" stroke="black" d="M241.14,-253.56C262.76,-275.36 298.3,-307.82 335,-327 341.56,-330.43 348.66,-333.41 355.88,-335.99"/>
<polygon fill="black" stroke="black" points="243.58,-251.05 234.1,-246.33 238.57,-255.94 243.58,-251.05"/>
</g>
<!-- Node12 -->
<g id="node6" class="node">
<title>Node12</title>
<g id="a_node6"><a xlink:href="../../de/db5/group__eazyai-queue-helper.html" target="_top" xlink:title="Definition of ea_queue macros, enumerations and structures.">
<polygon fill="none" stroke="black" points="511.5,-318 335.5,-318 335.5,-288 511.5,-288 511.5,-318"/>
<text text-anchor="start" x="343.5" y="-306" font-family="Helvetica,sans-Serif" font-size="10.00">ea_queue macros, enumerations</text>
<text text-anchor="middle" x="423.5" y="-295" font-family="Helvetica,sans-Serif" font-size="10.00"> and structures</text>
</a>
</g>
</g>
<!-- Node1&#45;&gt;Node12 -->
<g id="edge11" class="edge">
<title>Node1&#45;&gt;Node12</title>
<path fill="none" stroke="black" d="M262.46,-250.25C283.94,-259.6 310.59,-270.6 335,-279 344.09,-282.13 353.81,-285.13 363.35,-287.88"/>
<polygon fill="black" stroke="black" points="263.84,-247.03 253.28,-246.22 261.03,-253.44 263.84,-247.03"/>
</g>
<!-- Node3 -->
<g id="node7" class="node">
<title>Node3</title>
<g id="a_node7"><a xlink:href="../../d4/d96/group__eazyai-log-helper.html" target="_top" xlink:title="Definition of ea_log macros, enumerations and structures.">
<polygon fill="none" stroke="black" points="504,-270 343,-270 343,-240 504,-240 504,-270"/>
<text text-anchor="start" x="351" y="-258" font-family="Helvetica,sans-Serif" font-size="10.00">ea_log macros, enumerations</text>
<text text-anchor="middle" x="423.5" y="-247" font-family="Helvetica,sans-Serif" font-size="10.00"> and structures</text>
</a>
</g>
</g>
<!-- Node1&#45;&gt;Node3 -->
<g id="edge2" class="edge">
<title>Node1&#45;&gt;Node3</title>
<path fill="none" stroke="black" d="M309.31,-241.58C320.44,-242.9 331.76,-244.25 342.73,-245.55"/>
<polygon fill="black" stroke="black" points="309.5,-238.08 299.16,-240.38 308.68,-245.03 309.5,-238.08"/>
</g>
<!-- Node8 -->
<g id="node8" class="node">
<title>Node8</title>
<g id="a_node8"><a xlink:href="../../de/d43/group__eazyai-net-helper.html" target="_top" xlink:title="Definition of ea_net macros, enumerations and structures.">
<polygon fill="none" stroke="black" points="504.5,-222 342.5,-222 342.5,-192 504.5,-192 504.5,-222"/>
<text text-anchor="start" x="350.5" y="-210" font-family="Helvetica,sans-Serif" font-size="10.00">ea_net macros, enumerations</text>
<text text-anchor="middle" x="423.5" y="-199" font-family="Helvetica,sans-Serif" font-size="10.00"> and structures</text>
</a>
</g>
</g>
<!-- Node1&#45;&gt;Node8 -->
<g id="edge7" class="edge">
<title>Node1&#45;&gt;Node8</title>
<path fill="none" stroke="black" d="M309.23,-220.42C320.27,-219.12 331.5,-217.78 342.39,-216.49"/>
<polygon fill="black" stroke="black" points="308.68,-216.97 299.16,-221.62 309.5,-223.92 308.68,-216.97"/>
</g>
<!-- Node11 -->
<g id="node9" class="node">
<title>Node11</title>
<g id="a_node9"><a xlink:href="../../dc/d36/group__eazyai-utils-helper.html" target="_top" xlink:title="Definition of ea_utils macros, enumerations and structures.">
<polygon fill="none" stroke="black" points="507,-174 340,-174 340,-144 507,-144 507,-174"/>
<text text-anchor="start" x="348" y="-162" font-family="Helvetica,sans-Serif" font-size="10.00">ea_utils macros, enumerations</text>
<text text-anchor="middle" x="423.5" y="-151" font-family="Helvetica,sans-Serif" font-size="10.00"> and structures</text>
</a>
</g>
</g>
<!-- Node1&#45;&gt;Node11 -->
<g id="edge10" class="edge">
<title>Node1&#45;&gt;Node11</title>
<path fill="none" stroke="black" d="M262.46,-211.75C283.94,-202.4 310.59,-191.4 335,-183 344.09,-179.87 353.81,-176.87 363.35,-174.12"/>
<polygon fill="black" stroke="black" points="261.03,-208.56 253.28,-215.78 263.84,-214.97 261.03,-208.56"/>
</g>
<!-- Node7 -->
<g id="node10" class="node">
<title>Node7</title>
<g id="a_node10"><a xlink:href="../../d2/da6/group__eazyai-preprocess-helper.html" target="_top" xlink:title="Definition of ea_preprocess macros, enumerations and structures.">
<polygon fill="none" stroke="black" points="503.5,-126 343.5,-126 343.5,-96 503.5,-96 503.5,-126"/>
<text text-anchor="start" x="351.5" y="-114" font-family="Helvetica,sans-Serif" font-size="10.00">ea_preprocess macros,</text>
<text text-anchor="middle" x="423.5" y="-103" font-family="Helvetica,sans-Serif" font-size="10.00"> enumerations and structures</text>
</a>
</g>
</g>
<!-- Node1&#45;&gt;Node7 -->
<g id="edge6" class="edge">
<title>Node1&#45;&gt;Node7</title>
<path fill="none" stroke="black" d="M241.14,-208.44C262.76,-186.64 298.3,-154.18 335,-135 341.56,-131.57 348.66,-128.59 355.88,-126.01"/>
<polygon fill="black" stroke="black" points="238.57,-206.06 234.1,-215.67 243.58,-210.95 238.57,-206.06"/>
</g>
<!-- Node6 -->
<g id="node11" class="node">
<title>Node6</title>
<g id="a_node11"><a xlink:href="../../d9/d24/group__eazyai-img__resource-helper.html" target="_top" xlink:title="Definition of ea_img_resource macros, enumerations and structures.">
<polygon fill="none" stroke="black" points="503.5,-78 343.5,-78 343.5,-48 503.5,-48 503.5,-78"/>
<text text-anchor="start" x="351.5" y="-66" font-family="Helvetica,sans-Serif" font-size="10.00">ea_img_resource macros,</text>
<text text-anchor="middle" x="423.5" y="-55" font-family="Helvetica,sans-Serif" font-size="10.00"> enumerations and structures</text>
</a>
</g>
</g>
<!-- Node1&#45;&gt;Node6 -->
<g id="edge5" class="edge">
<title>Node1&#45;&gt;Node6</title>
<path fill="none" stroke="black" d="M232.72,-206.99C251.01,-174.78 287.82,-118.07 335,-87 340.26,-83.53 346.02,-80.57 351.98,-78.02"/>
<polygon fill="black" stroke="black" points="229.64,-205.32 227.85,-215.76 235.76,-208.71 229.64,-205.32"/>
</g>
<!-- Node10 -->
<g id="node12" class="node">
<title>Node10</title>
<g id="a_node12"><a xlink:href="../../d1/d5c/group__eazyai-display-helper.html" target="_top" xlink:title="Definition of ea_display macros, enumerations and structures.">
<polygon fill="none" stroke="black" points="503.5,-30 343.5,-30 343.5,0 503.5,0 503.5,-30"/>
<text text-anchor="start" x="351.5" y="-18" font-family="Helvetica,sans-Serif" font-size="10.00">ea_display macros,</text>
<text text-anchor="middle" x="423.5" y="-7" font-family="Helvetica,sans-Serif" font-size="10.00"> enumerations and structures</text>
</a>
</g>
</g>
<!-- Node1&#45;&gt;Node10 -->
<g id="edge9" class="edge">
<title>Node1&#45;&gt;Node10</title>
<path fill="none" stroke="black" d="M227.92,-206.34C242.39,-165.26 277.09,-82.97 335,-39 339.52,-35.57 344.49,-32.63 349.71,-30.11"/>
<polygon fill="black" stroke="black" points="224.59,-205.26 224.67,-215.85 231.21,-207.52 224.59,-205.26"/>
</g>
</g>
</svg>
        <g id="navigator" transform="translate(0 0)" fill="#404254">
                <rect fill="#f2f5e9" fill-opacity="0.5" stroke="#606060" stroke-width=".5" x="0" y="0" width="60" height="60"/>
                <use id="zoomplus" xlink:href="#zoomPlus" x="17" y="9" onmousedown="handleZoom(evt,'in')"/>
                <use id="zoomminus" xlink:href="#zoomMin" x="42" y="9" onmousedown="handleZoom(evt,'out')"/>
                <use id="reset" xlink:href="#resetDef" x="30" y="36" onmousedown="handleReset()"/>
                <g id="arrowUp" xlink:href="#dirArrow" transform="translate(30 24)" onmousedown="handlePan(0,-1)">
                  <use xlink:href="#rim" fill="#404040">
                        <set attributeName="fill" to="#808080" begin="arrowUp.mouseover" end="arrowUp.mouseout"/>
                  </use>
                  <path fill="none" stroke="white" stroke-width="1.5" d="M0,-3.0v7 M-2.5,-0.5L0,-3.0L2.5,-0.5"/>
                </g>
                <g id="arrowRight" xlink:href="#dirArrow" transform="rotate(90) translate(36 -43)" onmousedown="handlePan(1,0)">
                  <use xlink:href="#rim" fill="#404040">
                        <set attributeName="fill" to="#808080" begin="arrowRight.mouseover" end="arrowRight.mouseout"/>
                  </use>
                  <path fill="none" stroke="white" stroke-width="1.5" d="M0,-3.0v7 M-2.5,-0.5L0,-3.0L2.5,-0.5"/>
                </g>
                <g id="arrowDown" xlink:href="#dirArrow" transform="rotate(180) translate(-30 -48)" onmousedown="handlePan(0,1)">
                  <use xlink:href="#rim" fill="#404040">
                        <set attributeName="fill" to="#808080" begin="arrowDown.mouseover" end="arrowDown.mouseout"/>
                  </use>
                  <path fill="none" stroke="white" stroke-width="1.5" d="M0,-3.0v7 M-2.5,-0.5L0,-3.0L2.5,-0.5"/>
                </g>
                <g id="arrowLeft" xlink:href="#dirArrow" transform="rotate(270) translate(-36 17)" onmousedown="handlePan(-1,0)">
                  <use xlink:href="#rim" fill="#404040">
                        <set attributeName="fill" to="#808080" begin="arrowLeft.mouseover" end="arrowLeft.mouseout"/>
                  </use>
                  <path fill="none" stroke="white" stroke-width="1.5" d="M0,-3.0v7 M-2.5,-0.5L0,-3.0L2.5,-0.5"/>
                </g>
        </g>
        <svg viewBox="0 0 15 15" width="100%" height="30px" preserveAspectRatio="xMaxYMin meet">
         <g id="arrow_out" transform="scale(0.3 0.3)">
          <a xlink:href="group__eazyai-api-helper_org.svg" target="_base">
           <rect id="button" ry="5" rx="5" y="6" x="6" height="38" width="38"
                fill="#f2f5e9" fill-opacity="0.5" stroke="#606060" stroke-width="1.0"/>
           <path id="arrow"
             d="M 11.500037,31.436501 C 11.940474,20.09759 22.043105,11.32322 32.158766,21.979434 L 37.068811,17.246167 C 37.068811,17.246167 37.088388,32 37.088388,32 L 22.160133,31.978069 C 22.160133,31.978069 26.997745,27.140456 26.997745,27.140456 C 18.528582,18.264221 13.291696,25.230495 11.500037,31.436501 z"
             style="fill:#404040;"/>
          </a>
         </g>
        </svg>
</svg>
