<?xml version="1.0" encoding="UTF-8" standalone="no"?>
<!DOCTYPE svg PUBLIC "-//W3C//DTD SVG 1.1//EN"
 "http://www.w3.org/Graphics/SVG/1.1/DTD/svg11.dtd">
<!-- Generated by graphviz version 2.43.0 (0)
 -->
<!-- Title: run_print_graph_summary Pages: 1 -->
<svg width="401pt" height="127pt"
 viewBox="0.00 0.00 401.00 126.50" xmlns="http://www.w3.org/2000/svg" xmlns:xlink="http://www.w3.org/1999/xlink">
<g id="graph0" class="graph" transform="scale(1 1) rotate(0) translate(4 122.5)">
<title>run_print_graph_summary</title>
<!-- Node1 -->
<g id="node1" class="node">
<title>Node1</title>
<g id="a_node1"><a xlink:title=" ">
<polygon fill="#bfbfbf" stroke="black" points="248,-55 248,-74 393,-74 393,-55 248,-55"/>
<text text-anchor="middle" x="320.5" y="-62" font-family="Helvetica,sans-Serif" font-size="10.00">run_print_graph_summary</text>
</a>
</g>
</g>
<!-- Node2 -->
<g id="node2" class="node">
<title>Node2</title>
<g id="a_node2"><a xlink:href="../../db/d1f/group__cflite-eazyaigen-modelpreprocess.html#ga0436910779cc8305a2ebc965557baa06" target="_top" xlink:title=" ">
<polygon fill="none" stroke="black" points="55.5,-99 55.5,-118 156.5,-118 156.5,-99 55.5,-99"/>
<text text-anchor="middle" x="106" y="-106" font-family="Helvetica,sans-Serif" font-size="10.00">run_prune_model</text>
</a>
</g>
</g>
<!-- Node1&#45;&gt;Node2 -->
<g id="edge1" class="edge">
<title>Node1&#45;&gt;Node2</title>
<path fill="none" stroke="midnightblue" d="M270.65,-76.4C252.31,-80.72 231.24,-85.53 212,-89.5 193.95,-93.23 174.07,-96.93 156.51,-100.06"/>
<polygon fill="midnightblue" stroke="midnightblue" points="271.62,-79.77 280.54,-74.05 270,-72.96 271.62,-79.77"/>
</g>
<!-- Node3 -->
<g id="node3" class="node">
<title>Node3</title>
<g id="a_node3"><a xlink:href="../../d0/dd9/classcflite_1_1eazyaigen_1_1parser_1_1Parser.html#ae842132494a52d538bf11b8f127c9f2a" target="_top" xlink:title=" ">
<polygon fill="none" stroke="black" points="23.5,-49.5 23.5,-79.5 188.5,-79.5 188.5,-49.5 23.5,-49.5"/>
<text text-anchor="start" x="31.5" y="-67.5" font-family="Helvetica,sans-Serif" font-size="10.00">cflite.eazyaigen.parser.</text>
<text text-anchor="middle" x="106" y="-56.5" font-family="Helvetica,sans-Serif" font-size="10.00">Parser.run_with_dummy_input</text>
</a>
</g>
</g>
<!-- Node1&#45;&gt;Node3 -->
<g id="edge2" class="edge">
<title>Node1&#45;&gt;Node3</title>
<path fill="none" stroke="midnightblue" d="M237.45,-64.5C221.41,-64.5 204.61,-64.5 188.59,-64.5"/>
<polygon fill="midnightblue" stroke="midnightblue" points="237.85,-68 247.85,-64.5 237.85,-61 237.85,-68"/>
</g>
<!-- Node4 -->
<g id="node4" class="node">
<title>Node4</title>
<g id="a_node4"><a xlink:href="../../d9/d64/group__cflite-eazyaigen-cvb.html#gae842132494a52d538bf11b8f127c9f2a" target="_top" xlink:title=" ">
<polygon fill="none" stroke="black" points="0,-0.5 0,-30.5 212,-30.5 212,-0.5 0,-0.5"/>
<text text-anchor="start" x="8" y="-18.5" font-family="Helvetica,sans-Serif" font-size="10.00">cflite.eazyaigen.cvbackend.</text>
<text text-anchor="middle" x="106" y="-7.5" font-family="Helvetica,sans-Serif" font-size="10.00">CVFlowBackend.run_with_dummy_input</text>
</a>
</g>
</g>
<!-- Node1&#45;&gt;Node4 -->
<g id="edge3" class="edge">
<title>Node1&#45;&gt;Node4</title>
<path fill="none" stroke="midnightblue" d="M268.41,-52.72C239.58,-46.07 203.25,-37.69 172.36,-30.57"/>
<polygon fill="midnightblue" stroke="midnightblue" points="267.75,-56.16 278.28,-54.99 269.32,-49.34 267.75,-56.16"/>
</g>
</g>
</svg>
