<?xml version="1.0" encoding="UTF-8" standalone="no"?>
<!DOCTYPE svg PUBLIC "-//W3C//DTD SVG 1.1//EN"
 "http://www.w3.org/Graphics/SVG/1.1/DTD/svg11.dtd">
<!-- Generated by graphviz version 2.43.0 (0)
 -->
<!-- Title: run_prune_model Pages: 1 -->
<svg width="522pt" height="72pt"
 viewBox="0.00 0.00 522.00 71.50" xmlns="http://www.w3.org/2000/svg" xmlns:xlink="http://www.w3.org/1999/xlink">
<g id="graph0" class="graph" transform="scale(1 1) rotate(0) translate(4 67.5)">
<title>run_prune_model</title>
<!-- Node1 -->
<g id="node1" class="node">
<title>Node1</title>
<g id="a_node1"><a xlink:title=" ">
<polygon fill="#bfbfbf" stroke="black" points="0,-19.5 0,-38.5 101,-38.5 101,-19.5 0,-19.5"/>
<text text-anchor="middle" x="50.5" y="-26.5" font-family="Helvetica,sans-Serif" font-size="10.00">run_prune_model</text>
</a>
</g>
</g>
<!-- Node2 -->
<g id="node2" class="node">
<title>Node2</title>
<g id="a_node2"><a xlink:href="../../db/d1f/group__cflite-eazyaigen-modelpreprocess.html#ga6816410d1e6bf509c98339c2922a97d1" target="_top" xlink:title=" ">
<polygon fill="none" stroke="black" points="156,-38.5 156,-57.5 263,-57.5 263,-38.5 156,-38.5"/>
<text text-anchor="middle" x="209.5" y="-45.5" font-family="Helvetica,sans-Serif" font-size="10.00">run_graph_surgery</text>
</a>
</g>
</g>
<!-- Node1&#45;&gt;Node2 -->
<g id="edge1" class="edge">
<title>Node1&#45;&gt;Node2</title>
<path fill="none" stroke="midnightblue" d="M101.18,-35.01C115.34,-36.73 130.95,-38.61 145.78,-40.41"/>
<polygon fill="midnightblue" stroke="midnightblue" points="145.55,-43.91 155.89,-41.63 146.39,-36.96 145.55,-43.91"/>
</g>
<!-- Node4 -->
<g id="node4" class="node">
<title>Node4</title>
<g id="a_node4"><a xlink:href="../../db/d1f/group__cflite-eazyaigen-modelpreprocess.html#gac27d49ec54a0a3a73971ead470e9e084" target="_top" xlink:title=" ">
<polygon fill="none" stroke="black" points="137,-0.5 137,-19.5 282,-19.5 282,-0.5 137,-0.5"/>
<text text-anchor="middle" x="209.5" y="-7.5" font-family="Helvetica,sans-Serif" font-size="10.00">run_print_graph_summary</text>
</a>
</g>
</g>
<!-- Node1&#45;&gt;Node4 -->
<g id="edge3" class="edge">
<title>Node1&#45;&gt;Node4</title>
<path fill="none" stroke="midnightblue" d="M101.18,-22.99C109.31,-22 117.93,-20.96 126.6,-19.91"/>
<polygon fill="midnightblue" stroke="midnightblue" points="127.27,-23.36 136.78,-18.68 126.43,-16.41 127.27,-23.36"/>
</g>
<!-- Node3 -->
<g id="node3" class="node">
<title>Node3</title>
<g id="a_node3"><a xlink:href="../../d7/dd3/group__cflite-eazyaiutils-graphgen.html#ga74b435d58530e06e1ed49a8f37d61c7c" target="_top" xlink:title=" ">
<polygon fill="none" stroke="black" points="318,-33 318,-63 514,-63 514,-33 318,-33"/>
<text text-anchor="start" x="326" y="-51" font-family="Helvetica,sans-Serif" font-size="10.00">cflite.eazyaiutils.graph.graphgen.get</text>
<text text-anchor="middle" x="416" y="-40" font-family="Helvetica,sans-Serif" font-size="10.00">_model_ports</text>
</a>
</g>
</g>
<!-- Node2&#45;&gt;Node3 -->
<g id="edge2" class="edge">
<title>Node2&#45;&gt;Node3</title>
<path fill="none" stroke="midnightblue" d="M263.16,-48C276.85,-48 292.1,-48 307.52,-48"/>
<polygon fill="midnightblue" stroke="midnightblue" points="307.65,-51.5 317.65,-48 307.65,-44.5 307.65,-51.5"/>
</g>
</g>
</svg>
