<?xml version="1.0" encoding="UTF-8" standalone="no"?>
<!DOCTYPE svg PUBLIC "-//W3C//DTD SVG 1.1//EN"
 "http://www.w3.org/Graphics/SVG/1.1/DTD/svg11.dtd">
<!-- Generated by graphviz version 2.43.0 (0)
 -->
<!-- Title: EazyAI library functions Pages: 1 -->
<svg width="463pt" height="360pt"
 viewBox="0.00 0.00 463.00 360.00" xmlns="http://www.w3.org/2000/svg" xmlns:xlink="http://www.w3.org/1999/xlink">
<g id="graph0" class="graph" transform="scale(1 1) rotate(0) translate(4 356)">
<title>EazyAI library functions</title>
<!-- Node4 -->
<g id="node1" class="node">
<title>Node4</title>
<g id="a_node1"><a xlink:href="../../dd/df6/group__eazyai-env-details.html" target="_top" xlink:title="Definition of ea_env functions.">
<polygon fill="none" stroke="black" points="431,-352 331,-352 331,-333 431,-333 431,-352"/>
<text text-anchor="middle" x="381" y="-340" font-family="Helvetica,sans-Serif" font-size="10.00">ea_env functions</text>
</a>
</g>
</g>
<!-- Node7 -->
<g id="node2" class="node">
<title>Node7</title>
<g id="a_node2"><a xlink:href="../../d1/d67/group__eazyai-preprocess-details.html" target="_top" xlink:title="Definition of ea_preprocess functions.">
<polygon fill="none" stroke="black" points="448.5,-315 313.5,-315 313.5,-296 448.5,-296 448.5,-315"/>
<text text-anchor="middle" x="381" y="-303" font-family="Helvetica,sans-Serif" font-size="10.00">ea_preprocess functions</text>
</a>
</g>
</g>
<!-- Node6 -->
<g id="node3" class="node">
<title>Node6</title>
<g id="a_node3"><a xlink:href="../../d9/d59/group__eazyai-img-resource-details.html" target="_top" xlink:title="Definition of ea_img_resource functions.">
<polygon fill="none" stroke="black" points="455,-278 307,-278 307,-259 455,-259 455,-278"/>
<text text-anchor="middle" x="381" y="-266" font-family="Helvetica,sans-Serif" font-size="10.00">ea_img_resource functions</text>
</a>
</g>
</g>
<!-- Node2 -->
<g id="node4" class="node">
<title>Node2</title>
<g id="a_node4"><a xlink:href="../../db/dd5/group__eazyai-api.html" target="_top" xlink:title="EazyAI library API.">
<polygon fill="none" stroke="black" points="103,-185 0,-185 0,-166 103,-166 103,-185"/>
<text text-anchor="middle" x="51.5" y="-173" font-family="Helvetica,sans-Serif" font-size="10.00">EazyAI library API</text>
</a>
</g>
</g>
<!-- Node1 -->
<g id="node6" class="node">
<title>Node1</title>
<g id="a_node6"><a xlink:title="Definition of functions in EazyAI library.">
<polygon fill="#bfbfbf" stroke="black" points="271,-185 139,-185 139,-166 271,-166 271,-185"/>
<text text-anchor="middle" x="205" y="-173" font-family="Helvetica,sans-Serif" font-size="10.00">EazyAI library functions</text>
</a>
</g>
</g>
<!-- Node2&#45;&gt;Node1 -->
<g id="edge1" class="edge">
<title>Node2&#45;&gt;Node1</title>
<path fill="none" stroke="black" d="M113.39,-175.5C121.73,-175.5 130.32,-175.5 138.74,-175.5"/>
<polygon fill="black" stroke="black" points="113.37,-172 103.37,-175.5 113.37,-179 113.37,-172"/>
</g>
<!-- Node8 -->
<g id="node5" class="node">
<title>Node8</title>
<g id="a_node5"><a xlink:href="../../d9/d87/group__eazyai-net-details.html" target="_top" xlink:title="Definition of ea_net functions.">
<polygon fill="none" stroke="black" points="430,-241 332,-241 332,-222 430,-222 430,-241"/>
<text text-anchor="middle" x="381" y="-229" font-family="Helvetica,sans-Serif" font-size="10.00">ea_net functions</text>
</a>
</g>
</g>
<!-- Node1&#45;&gt;Node4 -->
<g id="edge3" class="edge">
<title>Node1&#45;&gt;Node4</title>
<path fill="none" stroke="black" d="M213.63,-194.92C227.3,-227.08 259.08,-291.12 307,-324.5 314.07,-329.42 322.35,-333.01 330.74,-335.61"/>
<polygon fill="black" stroke="black" points="216.73,-193.25 209.7,-185.33 210.26,-195.91 216.73,-193.25"/>
</g>
<!-- Node1&#45;&gt;Node7 -->
<g id="edge6" class="edge">
<title>Node1&#45;&gt;Node7</title>
<path fill="none" stroke="black" d="M217.21,-193.59C233.72,-218.65 266.96,-263.53 307,-287.5 312.71,-290.92 319.05,-293.69 325.53,-295.94"/>
<polygon fill="black" stroke="black" points="220.08,-191.57 211.73,-185.04 214.18,-195.35 220.08,-191.57"/>
</g>
<!-- Node1&#45;&gt;Node6 -->
<g id="edge5" class="edge">
<title>Node1&#45;&gt;Node6</title>
<path fill="none" stroke="black" d="M223.59,-192.03C242.7,-209.11 274.82,-235.34 307,-250.5 314.2,-253.89 322.12,-256.69 330,-258.99"/>
<polygon fill="black" stroke="black" points="225.75,-189.26 216,-185.12 221.04,-194.44 225.75,-189.26"/>
</g>
<!-- Node1&#45;&gt;Node8 -->
<g id="edge7" class="edge">
<title>Node1&#45;&gt;Node8</title>
<path fill="none" stroke="black" d="M238.4,-188.8C258.04,-196.59 283.73,-206.28 307,-213.5 316.85,-216.56 327.57,-219.44 337.69,-221.97"/>
<polygon fill="black" stroke="black" points="239.58,-185.51 229,-185.04 236.98,-192.01 239.58,-185.51"/>
</g>
<!-- Node12 -->
<g id="node7" class="node">
<title>Node12</title>
<g id="a_node7"><a xlink:href="../../df/d49/group__eazyai-queue-details.html" target="_top" xlink:title="Definition of ea_queue functions.">
<polygon fill="none" stroke="black" points="437,-204 325,-204 325,-185 437,-185 437,-204"/>
<text text-anchor="middle" x="381" y="-192" font-family="Helvetica,sans-Serif" font-size="10.00">ea_queue functions</text>
</a>
</g>
</g>
<!-- Node1&#45;&gt;Node12 -->
<g id="edge11" class="edge">
<title>Node1&#45;&gt;Node12</title>
<path fill="none" stroke="black" d="M281.33,-183.73C295.96,-185.32 311.05,-186.97 324.88,-188.48"/>
<polygon fill="black" stroke="black" points="281.61,-180.24 271.29,-182.63 280.85,-187.19 281.61,-180.24"/>
</g>
<!-- Node5 -->
<g id="node8" class="node">
<title>Node5</title>
<g id="a_node8"><a xlink:href="../../da/db2/group__eazyai-tensor-details.html" target="_top" xlink:title="Definition of ea_tensor functions.">
<polygon fill="none" stroke="black" points="437.5,-167 324.5,-167 324.5,-148 437.5,-148 437.5,-167"/>
<text text-anchor="middle" x="381" y="-155" font-family="Helvetica,sans-Serif" font-size="10.00">ea_tensor functions</text>
</a>
</g>
</g>
<!-- Node1&#45;&gt;Node5 -->
<g id="edge4" class="edge">
<title>Node1&#45;&gt;Node5</title>
<path fill="none" stroke="black" d="M281.63,-167.68C295.98,-166.19 310.74,-164.67 324.32,-163.26"/>
<polygon fill="black" stroke="black" points="280.87,-164.24 271.29,-168.75 281.59,-171.2 280.87,-164.24"/>
</g>
<!-- Node3 -->
<g id="node9" class="node">
<title>Node3</title>
<g id="a_node9"><a xlink:href="../../da/d0c/group__eazyai-log-details.html" target="_top" xlink:title="Definition of ea_log functions.">
<polygon fill="none" stroke="black" points="429.5,-130 332.5,-130 332.5,-111 429.5,-111 429.5,-130"/>
<text text-anchor="middle" x="381" y="-118" font-family="Helvetica,sans-Serif" font-size="10.00">ea_log functions</text>
</a>
</g>
</g>
<!-- Node1&#45;&gt;Node3 -->
<g id="edge2" class="edge">
<title>Node1&#45;&gt;Node3</title>
<path fill="none" stroke="black" d="M239.21,-162.29C258.76,-154.78 284.08,-145.5 307,-138.5 316.86,-135.49 327.59,-132.62 337.71,-130.1"/>
<polygon fill="black" stroke="black" points="237.89,-159.05 229.83,-165.93 240.42,-165.58 237.89,-159.05"/>
</g>
<!-- Node9 -->
<g id="node10" class="node">
<title>Node9</title>
<g id="a_node10"><a xlink:href="../../da/dc6/group__eazyai-osd-details.html" target="_top" xlink:title="Definition of ea_osd functions.">
<polygon fill="none" stroke="black" points="430.5,-93 331.5,-93 331.5,-74 430.5,-74 430.5,-93"/>
<text text-anchor="middle" x="381" y="-81" font-family="Helvetica,sans-Serif" font-size="10.00">ea_osd functions</text>
</a>
</g>
</g>
<!-- Node1&#45;&gt;Node9 -->
<g id="edge8" class="edge">
<title>Node1&#45;&gt;Node9</title>
<path fill="none" stroke="black" d="M223.94,-158.93C243.11,-142.09 275.09,-116.41 307,-101.5 314.57,-97.96 322.92,-95.07 331.18,-92.72"/>
<polygon fill="black" stroke="black" points="221.42,-156.49 216.31,-165.77 226.09,-161.7 221.42,-156.49"/>
</g>
<!-- Node10 -->
<g id="node11" class="node">
<title>Node10</title>
<g id="a_node11"><a xlink:href="../../d2/dd8/group__eazyai-display-details.html" target="_top" xlink:title="Definition of ea_display functions.">
<polygon fill="none" stroke="black" points="439.5,-56 322.5,-56 322.5,-37 439.5,-37 439.5,-56"/>
<text text-anchor="middle" x="381" y="-44" font-family="Helvetica,sans-Serif" font-size="10.00">ea_display functions</text>
</a>
</g>
</g>
<!-- Node1&#45;&gt;Node10 -->
<g id="edge9" class="edge">
<title>Node1&#45;&gt;Node10</title>
<path fill="none" stroke="black" d="M217.5,-157.2C234.13,-132.3 267.3,-88.14 307,-64.5 312.72,-61.09 319.06,-58.33 325.54,-56.09"/>
<polygon fill="black" stroke="black" points="214.48,-155.43 211.96,-165.72 220.35,-159.25 214.48,-155.43"/>
</g>
<!-- Node11 -->
<g id="node12" class="node">
<title>Node11</title>
<g id="a_node12"><a xlink:href="../../db/d66/group__eazyai-utils-details.html" target="_top" xlink:title="Definition of ea_utils functions.">
<polygon fill="none" stroke="black" points="432.5,-19 329.5,-19 329.5,0 432.5,0 432.5,-19"/>
<text text-anchor="middle" x="381" y="-7" font-family="Helvetica,sans-Serif" font-size="10.00">ea_utils functions</text>
</a>
</g>
</g>
<!-- Node1&#45;&gt;Node11 -->
<g id="edge10" class="edge">
<title>Node1&#45;&gt;Node11</title>
<path fill="none" stroke="black" d="M213.67,-156.21C227.39,-124.27 259.25,-60.65 307,-27.5 313.65,-22.88 321.36,-19.45 329.22,-16.89"/>
<polygon fill="black" stroke="black" points="210.32,-155.16 209.72,-165.73 216.78,-157.84 210.32,-155.16"/>
</g>
</g>
</svg>
