<?xml version="1.0" encoding="UTF-8" standalone="no"?>
<!DOCTYPE svg PUBLIC "-//W3C//DTD SVG 1.1//EN"
 "http://www.w3.org/Graphics/SVG/1.1/DTD/svg11.dtd">
<!-- Generated by graphviz version 2.43.0 (0)
 -->
<!-- Title: eazyaisys Pages: 1 -->
<svg width="372pt" height="101pt"
 viewBox="0.00 0.00 372.00 101.00" xmlns="http://www.w3.org/2000/svg" xmlns:xlink="http://www.w3.org/1999/xlink">
<g id="graph0" class="graph" transform="scale(1 1) rotate(0) translate(4 97)">
<title>eazyaisys</title>
<!-- Node2 -->
<g id="node1" class="node">
<title>Node2</title>
<g id="a_node1"><a xlink:href="../../db/d01/group__cflite-api.html" target="_top" xlink:title="CFLite library API.">
<polygon fill="none" stroke="black" points="101,-56 0,-56 0,-37 101,-37 101,-56"/>
<text text-anchor="middle" x="50.5" y="-44" font-family="Helvetica,sans-Serif" font-size="10.00">CFLite library API</text>
</a>
</g>
</g>
<!-- Node1 -->
<g id="node3" class="node">
<title>Node1</title>
<g id="a_node3"><a xlink:title="Definition of eazyaisys.">
<polygon fill="#bfbfbf" stroke="black" points="202,-56 137,-56 137,-37 202,-37 202,-56"/>
<text text-anchor="middle" x="169.5" y="-44" font-family="Helvetica,sans-Serif" font-size="10.00">eazyaisys</text>
</a>
</g>
</g>
<!-- Node2&#45;&gt;Node1 -->
<g id="edge1" class="edge">
<title>Node2&#45;&gt;Node1</title>
<path fill="none" stroke="black" d="M111.39,-46.5C120.16,-46.5 128.89,-46.5 136.79,-46.5"/>
<polygon fill="black" stroke="black" points="111.12,-43 101.12,-46.5 111.12,-50 111.12,-43"/>
</g>
<!-- Node4 -->
<g id="node2" class="node">
<title>Node4</title>
<g id="a_node2"><a xlink:href="../../d4/ded/group__cflite-eazyaisys-filesession.html" target="_top" xlink:title="Definition of eazyaisys.filesession.">
<polygon fill="none" stroke="black" points="361.5,-93 240.5,-93 240.5,-74 361.5,-74 361.5,-93"/>
<text text-anchor="middle" x="301" y="-81" font-family="Helvetica,sans-Serif" font-size="10.00">eazyaisys.filesession</text>
</a>
</g>
</g>
<!-- Node1&#45;&gt;Node4 -->
<g id="edge3" class="edge">
<title>Node1&#45;&gt;Node4</title>
<path fill="none" stroke="black" d="M212.16,-58.4C229.69,-63.41 249.82,-69.16 266.38,-73.9"/>
<polygon fill="black" stroke="black" points="212.76,-54.93 202.18,-55.55 210.83,-61.66 212.76,-54.93"/>
</g>
<!-- Node3 -->
<g id="node4" class="node">
<title>Node3</title>
<g id="a_node4"><a xlink:href="../../d4/d46/group__cflite-eazyaisys-cmdsession.html" target="_top" xlink:title="Definition of eazyaisys.cmdsession.">
<polygon fill="none" stroke="black" points="364,-56 238,-56 238,-37 364,-37 364,-56"/>
<text text-anchor="middle" x="301" y="-44" font-family="Helvetica,sans-Serif" font-size="10.00">eazyaisys.cmdsession</text>
</a>
</g>
</g>
<!-- Node1&#45;&gt;Node3 -->
<g id="edge2" class="edge">
<title>Node1&#45;&gt;Node3</title>
<path fill="none" stroke="black" d="M212.45,-46.5C220.54,-46.5 229.18,-46.5 237.75,-46.5"/>
<polygon fill="black" stroke="black" points="212.18,-43 202.18,-46.5 212.18,-50 212.18,-43"/>
</g>
<!-- Node5 -->
<g id="node5" class="node">
<title>Node5</title>
<g id="a_node5"><a xlink:href="../../de/d87/group__cflite-eazyaisys-fastvideo.html" target="_top" xlink:title="Definition of eazyaisys.fastvideo.">
<polygon fill="none" stroke="black" points="358,-19 244,-19 244,0 358,0 358,-19"/>
<text text-anchor="middle" x="301" y="-7" font-family="Helvetica,sans-Serif" font-size="10.00">eazyaisys.fastvideo</text>
</a>
</g>
</g>
<!-- Node1&#45;&gt;Node5 -->
<g id="edge4" class="edge">
<title>Node1&#45;&gt;Node5</title>
<path fill="none" stroke="black" d="M212.16,-34.6C229.69,-29.59 249.82,-23.84 266.38,-19.1"/>
<polygon fill="black" stroke="black" points="210.83,-31.34 202.18,-37.45 212.76,-38.07 210.83,-31.34"/>
</g>
</g>
</svg>
