<?xml version="1.0" encoding="UTF-8" standalone="no"?>
<!DOCTYPE svg PUBLIC "-//W3C//DTD SVG 1.1//EN"
 "http://www.w3.org/Graphics/SVG/1.1/DTD/svg11.dtd">
<!-- Generated by graphviz version 2.43.0 (0)
 -->
<!-- Title: Parser Pages: 1 -->
<svg width="175pt" height="656pt"
 viewBox="0.00 0.00 175.00 656.00" xmlns="http://www.w3.org/2000/svg" xmlns:xlink="http://www.w3.org/1999/xlink">
<g id="graph0" class="graph" transform="scale(1 1) rotate(0) translate(4 652)">
<title>Parser</title>
<!-- Node1 -->
<g id="node1" class="node">
<title>Node1</title>
<g id="a_node1"><a xlink:title=" ">
<polygon fill="#bfbfbf" stroke="black" points="8.5,-0.5 8.5,-112.5 158.5,-112.5 158.5,-0.5 8.5,-0.5"/>
<text text-anchor="middle" x="83.5" y="-100.5" font-family="Helvetica,sans-Serif" font-size="10.00">Parser</text>
<polyline fill="none" stroke="black" points="8.5,-93.5 158.5,-93.5 "/>
<text text-anchor="start" x="16.5" y="-81.5" font-family="Helvetica,sans-Serif" font-size="10.00">+ model_name</text>
<text text-anchor="start" x="16.5" y="-70.5" font-family="Helvetica,sans-Serif" font-size="10.00">+ output_path</text>
<text text-anchor="start" x="16.5" y="-59.5" font-family="Helvetica,sans-Serif" font-size="10.00">+ parser_json_file</text>
<polyline fill="none" stroke="black" points="8.5,-52.5 158.5,-52.5 "/>
<text text-anchor="start" x="16.5" y="-40.5" font-family="Helvetica,sans-Serif" font-size="10.00">+ check_params()</text>
<text text-anchor="start" x="16.5" y="-29.5" font-family="Helvetica,sans-Serif" font-size="10.00">+ generate_commands()</text>
<text text-anchor="start" x="16.5" y="-18.5" font-family="Helvetica,sans-Serif" font-size="10.00">+ run()</text>
<text text-anchor="start" x="16.5" y="-7.5" font-family="Helvetica,sans-Serif" font-size="10.00">+ run_with_dummy_input()</text>
</a>
</g>
</g>
<!-- Node2 -->
<g id="node2" class="node">
<title>Node2</title>
<g id="a_node2"><a xlink:href="../../d8/d44/classcflite_1_1eazyaigen_1_1abstractobj_1_1eazyaiparserobject_1_1EazyaiParserObject.html" target="_top" xlink:title=" ">
<polygon fill="none" stroke="black" points="0,-149.5 0,-382.5 167,-382.5 167,-149.5 0,-149.5"/>
<text text-anchor="middle" x="83.5" y="-370.5" font-family="Helvetica,sans-Serif" font-size="10.00">EazyaiParserObject</text>
<polyline fill="none" stroke="black" points="0,-363.5 167,-363.5 "/>
<text text-anchor="start" x="8" y="-351.5" font-family="Helvetica,sans-Serif" font-size="10.00">+ model_path</text>
<text text-anchor="start" x="8" y="-340.5" font-family="Helvetica,sans-Serif" font-size="10.00">+ caffe_prototxt_model_path</text>
<text text-anchor="start" x="8" y="-329.5" font-family="Helvetica,sans-Serif" font-size="10.00">+ model_name</text>
<text text-anchor="start" x="8" y="-318.5" font-family="Helvetica,sans-Serif" font-size="10.00">+ output_path</text>
<text text-anchor="start" x="8" y="-307.5" font-family="Helvetica,sans-Serif" font-size="10.00">+ sideband</text>
<text text-anchor="start" x="8" y="-296.5" font-family="Helvetica,sans-Serif" font-size="10.00">+ extra_option</text>
<polyline fill="none" stroke="black" points="0,-289.5 167,-289.5 "/>
<text text-anchor="start" x="8" y="-277.5" font-family="Helvetica,sans-Serif" font-size="10.00">+ set_model()</text>
<text text-anchor="start" x="8" y="-266.5" font-family="Helvetica,sans-Serif" font-size="10.00">+ set_model_path()</text>
<text text-anchor="start" x="8" y="-255.5" font-family="Helvetica,sans-Serif" font-size="10.00">+ set_caffe_prototxt</text>
<text text-anchor="start" x="8" y="-244.5" font-family="Helvetica,sans-Serif" font-size="10.00">_model_path()</text>
<text text-anchor="start" x="8" y="-233.5" font-family="Helvetica,sans-Serif" font-size="10.00">+ set_model_name()</text>
<text text-anchor="start" x="8" y="-222.5" font-family="Helvetica,sans-Serif" font-size="10.00">+ set_output_path()</text>
<text text-anchor="start" x="8" y="-211.5" font-family="Helvetica,sans-Serif" font-size="10.00">+ set_sideband()</text>
<text text-anchor="start" x="8" y="-200.5" font-family="Helvetica,sans-Serif" font-size="10.00">+ set_extra_option()</text>
<text text-anchor="start" x="8" y="-189.5" font-family="Helvetica,sans-Serif" font-size="10.00">+ set_customer_node_parser()</text>
<text text-anchor="start" x="8" y="-178.5" font-family="Helvetica,sans-Serif" font-size="10.00">+ set_customer_node_dll()</text>
<text text-anchor="start" x="8" y="-167.5" font-family="Helvetica,sans-Serif" font-size="10.00">+ set_input_node_params()</text>
<text text-anchor="start" x="8" y="-156.5" font-family="Helvetica,sans-Serif" font-size="10.00">+ set_output_node_params()</text>
</a>
</g>
</g>
<!-- Node2&#45;&gt;Node1 -->
<g id="edge1" class="edge">
<title>Node2&#45;&gt;Node1</title>
<path fill="none" stroke="midnightblue" d="M83.5,-139.33C83.5,-130.1 83.5,-121.11 83.5,-112.68"/>
<polygon fill="none" stroke="midnightblue" points="80,-139.42 83.5,-149.42 87,-139.42 80,-139.42"/>
</g>
<!-- Node3 -->
<g id="node3" class="node">
<title>Node3</title>
<g id="a_node3"><a xlink:href="../../d0/d1d/classcflite_1_1eazyaigen_1_1abstractobj_1_1eazyaigenobject_1_1EazyaiGenObject.html" target="_top" xlink:title=" ">
<polygon fill="none" stroke="black" points="14.5,-419.5 14.5,-553.5 152.5,-553.5 152.5,-419.5 14.5,-419.5"/>
<text text-anchor="middle" x="83.5" y="-541.5" font-family="Helvetica,sans-Serif" font-size="10.00">EazyaiGenObject</text>
<polyline fill="none" stroke="black" points="14.5,-534.5 152.5,-534.5 "/>
<text text-anchor="start" x="22.5" y="-522.5" font-family="Helvetica,sans-Serif" font-size="10.00">+ env_info</text>
<text text-anchor="start" x="22.5" y="-511.5" font-family="Helvetica,sans-Serif" font-size="10.00">+ log_level</text>
<polyline fill="none" stroke="black" points="14.5,-504.5 152.5,-504.5 "/>
<text text-anchor="start" x="22.5" y="-492.5" font-family="Helvetica,sans-Serif" font-size="10.00">+ __init__()</text>
<text text-anchor="start" x="22.5" y="-481.5" font-family="Helvetica,sans-Serif" font-size="10.00">+ set_env_path()</text>
<text text-anchor="start" x="22.5" y="-470.5" font-family="Helvetica,sans-Serif" font-size="10.00">+ set_work_dir()</text>
<text text-anchor="start" x="22.5" y="-459.5" font-family="Helvetica,sans-Serif" font-size="10.00">+ start_subprocess()</text>
<text text-anchor="start" x="22.5" y="-448.5" font-family="Helvetica,sans-Serif" font-size="10.00">+ execute_cmd()</text>
<text text-anchor="start" x="22.5" y="-437.5" font-family="Helvetica,sans-Serif" font-size="10.00">+ generate_commands()</text>
<text text-anchor="start" x="22.5" y="-426.5" font-family="Helvetica,sans-Serif" font-size="10.00">+ run()</text>
</a>
</g>
</g>
<!-- Node3&#45;&gt;Node2 -->
<g id="edge2" class="edge">
<title>Node3&#45;&gt;Node2</title>
<path fill="none" stroke="midnightblue" d="M83.5,-409.32C83.5,-400.65 83.5,-391.67 83.5,-382.63"/>
<polygon fill="none" stroke="midnightblue" points="80,-409.35 83.5,-419.35 87,-409.35 80,-409.35"/>
</g>
<!-- Node4 -->
<g id="node4" class="node">
<title>Node4</title>
<g id="a_node4"><a xlink:title=" ">
<polygon fill="none" stroke="#bfbfbf" points="9,-590.5 9,-647.5 76,-647.5 76,-590.5 9,-590.5"/>
<text text-anchor="middle" x="42.5" y="-635.5" font-family="Helvetica,sans-Serif" font-size="10.00">metaclass</text>
<polyline fill="none" stroke="#bfbfbf" points="9,-628.5 76,-628.5 "/>
<text text-anchor="middle" x="42.5" y="-616.5" font-family="Helvetica,sans-Serif" font-size="10.00"> </text>
<polyline fill="none" stroke="#bfbfbf" points="9,-609.5 76,-609.5 "/>
<text text-anchor="middle" x="42.5" y="-597.5" font-family="Helvetica,sans-Serif" font-size="10.00"> </text>
</a>
</g>
</g>
<!-- Node4&#45;&gt;Node3 -->
<g id="edge3" class="edge">
<title>Node4&#45;&gt;Node3</title>
<path fill="none" stroke="midnightblue" d="M54.21,-580.72C56.89,-572.19 59.82,-562.87 62.75,-553.53"/>
<polygon fill="none" stroke="midnightblue" points="50.85,-579.73 51.2,-590.32 57.53,-581.83 50.85,-579.73"/>
</g>
<!-- Node5 -->
<g id="node5" class="node">
<title>Node5</title>
<g id="a_node5"><a xlink:title=" ">
<polygon fill="none" stroke="#bfbfbf" points="94.5,-590.5 94.5,-647.5 156.5,-647.5 156.5,-590.5 94.5,-590.5"/>
<text text-anchor="middle" x="125.5" y="-635.5" font-family="Helvetica,sans-Serif" font-size="10.00">ABCMeta</text>
<polyline fill="none" stroke="#bfbfbf" points="94.5,-628.5 156.5,-628.5 "/>
<text text-anchor="middle" x="125.5" y="-616.5" font-family="Helvetica,sans-Serif" font-size="10.00"> </text>
<polyline fill="none" stroke="#bfbfbf" points="94.5,-609.5 156.5,-609.5 "/>
<text text-anchor="middle" x="125.5" y="-597.5" font-family="Helvetica,sans-Serif" font-size="10.00"> </text>
</a>
</g>
</g>
<!-- Node5&#45;&gt;Node3 -->
<g id="edge4" class="edge">
<title>Node5&#45;&gt;Node3</title>
<path fill="none" stroke="midnightblue" d="M113.5,-580.72C110.76,-572.19 107.76,-562.87 104.75,-553.53"/>
<polygon fill="none" stroke="midnightblue" points="110.2,-581.88 116.59,-590.32 116.86,-579.73 110.2,-581.88"/>
</g>
</g>
</svg>
