<?xml version="1.0" encoding="UTF-8" standalone="no"?>
<!DOCTYPE svg PUBLIC "-//W3C//DTD SVG 1.1//EN"
 "http://www.w3.org/Graphics/SVG/1.1/DTD/svg11.dtd">
<!-- Generated by graphviz version 2.43.0 (0)
 -->
<!-- Title: get_model_ports Pages: 1 -->
<svg width="578pt" height="88pt"
 viewBox="0.00 0.00 578.00 88.00" xmlns="http://www.w3.org/2000/svg" xmlns:xlink="http://www.w3.org/1999/xlink">
<g id="graph0" class="graph" transform="scale(1 1) rotate(0) translate(4 84)">
<title>get_model_ports</title>
<!-- Node1 -->
<g id="node1" class="node">
<title>Node1</title>
<g id="a_node1"><a xlink:title=" ">
<polygon fill="#bfbfbf" stroke="black" points="472,-30 472,-49 570,-49 570,-30 472,-30"/>
<text text-anchor="middle" x="521" y="-37" font-family="Helvetica,sans-Serif" font-size="10.00">get_model_ports</text>
</a>
</g>
</g>
<!-- Node2 -->
<g id="node2" class="node">
<title>Node2</title>
<g id="a_node2"><a xlink:href="../../d7/dd3/group__cflite-eazyaiutils-graphgen.html#ga8b666948a6c972f12d7ed9f6c55e1c4f" target="_top" xlink:title=" ">
<polygon fill="none" stroke="black" points="281,-53 281,-72 391,-72 391,-53 281,-53"/>
<text text-anchor="middle" x="336" y="-60" font-family="Helvetica,sans-Serif" font-size="10.00">get_model_density</text>
</a>
</g>
</g>
<!-- Node1&#45;&gt;Node2 -->
<g id="edge1" class="edge">
<title>Node1&#45;&gt;Node2</title>
<path fill="none" stroke="midnightblue" d="M461.78,-46.82C439.17,-49.66 413.43,-52.89 391.22,-55.69"/>
<polygon fill="midnightblue" stroke="midnightblue" points="462.43,-50.26 471.92,-45.54 461.56,-43.32 462.43,-50.26"/>
</g>
<!-- Node4 -->
<g id="node4" class="node">
<title>Node4</title>
<g id="a_node4"><a xlink:href="../../db/d1f/group__cflite-eazyaigen-modelpreprocess.html#ga6816410d1e6bf509c98339c2922a97d1" target="_top" xlink:title=" ">
<polygon fill="none" stroke="black" points="236,-2.5 236,-32.5 436,-32.5 436,-2.5 236,-2.5"/>
<text text-anchor="start" x="244" y="-20.5" font-family="Helvetica,sans-Serif" font-size="10.00">cflite.eazyaigen.modelpreprocess.run</text>
<text text-anchor="middle" x="336" y="-9.5" font-family="Helvetica,sans-Serif" font-size="10.00">_graph_surgery</text>
</a>
</g>
</g>
<!-- Node1&#45;&gt;Node4 -->
<g id="edge3" class="edge">
<title>Node1&#45;&gt;Node4</title>
<path fill="none" stroke="midnightblue" d="M461.75,-32.5C453.52,-31.51 444.88,-30.47 436.14,-29.42"/>
<polygon fill="midnightblue" stroke="midnightblue" points="461.57,-36 471.92,-33.72 462.41,-29.05 461.57,-36"/>
</g>
<!-- Node3 -->
<g id="node3" class="node">
<title>Node3</title>
<g id="a_node3"><a xlink:href="../../d6/d08/group__cflite-eazyaigen-export.html#gae62ba674c1ea9ea5b209a4c3ba9c20f5" target="_top" xlink:title=" ">
<polygon fill="none" stroke="black" points="22.5,-49.5 22.5,-79.5 177.5,-79.5 177.5,-49.5 22.5,-49.5"/>
<text text-anchor="start" x="30.5" y="-67.5" font-family="Helvetica,sans-Serif" font-size="10.00">cflite.eazyaigen.export.save</text>
<text text-anchor="middle" x="100" y="-56.5" font-family="Helvetica,sans-Serif" font-size="10.00">_convert_summary</text>
</a>
</g>
</g>
<!-- Node2&#45;&gt;Node3 -->
<g id="edge2" class="edge">
<title>Node2&#45;&gt;Node3</title>
<path fill="none" stroke="midnightblue" d="M270.4,-63.05C241.65,-63.3 207.59,-63.59 177.58,-63.85"/>
<polygon fill="midnightblue" stroke="midnightblue" points="270.76,-66.55 280.73,-62.96 270.7,-59.55 270.76,-66.55"/>
</g>
<!-- Node5 -->
<g id="node5" class="node">
<title>Node5</title>
<g id="a_node5"><a xlink:href="../../db/d1f/group__cflite-eazyaigen-modelpreprocess.html#ga0436910779cc8305a2ebc965557baa06" target="_top" xlink:title=" ">
<polygon fill="none" stroke="black" points="0,-0.5 0,-30.5 200,-30.5 200,-0.5 0,-0.5"/>
<text text-anchor="start" x="8" y="-18.5" font-family="Helvetica,sans-Serif" font-size="10.00">cflite.eazyaigen.modelpreprocess.run</text>
<text text-anchor="middle" x="100" y="-7.5" font-family="Helvetica,sans-Serif" font-size="10.00">_prune_model</text>
</a>
</g>
</g>
<!-- Node4&#45;&gt;Node5 -->
<g id="edge4" class="edge">
<title>Node4&#45;&gt;Node5</title>
<path fill="none" stroke="midnightblue" d="M225.73,-16.57C217.15,-16.49 208.52,-16.42 200.02,-16.35"/>
<polygon fill="midnightblue" stroke="midnightblue" points="225.73,-20.07 235.76,-16.65 225.79,-13.07 225.73,-20.07"/>
</g>
</g>
</svg>
