<?xml version="1.0" encoding="UTF-8" standalone="no"?>
<!DOCTYPE svg PUBLIC "-//W3C//DTD SVG 1.1//EN"
 "http://www.w3.org/Graphics/SVG/1.1/DTD/svg11.dtd">
<!-- Generated by graphviz version 2.43.0 (0)
 -->
<!-- Title: run Pages: 1 -->
<svg width="590pt" height="252pt"
 viewBox="0.00 0.00 590.00 251.50" xmlns="http://www.w3.org/2000/svg" xmlns:xlink="http://www.w3.org/1999/xlink">
<g id="graph0" class="graph" transform="scale(1 1) rotate(0) translate(4 247.5)">
<title>run</title>
<!-- Node1 -->
<g id="node1" class="node">
<title>Node1</title>
<g id="a_node1"><a xlink:title=" ">
<polygon fill="#bfbfbf" stroke="black" points="0,-98.5 0,-117.5 32,-117.5 32,-98.5 0,-98.5"/>
<text text-anchor="middle" x="16" y="-105.5" font-family="Helvetica,sans-Serif" font-size="10.00">run</text>
</a>
</g>
</g>
<!-- Node2 -->
<g id="node2" class="node">
<title>Node2</title>
<g id="a_node2"><a xlink:href="../../d0/dd9/classcflite_1_1eazyaigen_1_1parser_1_1Parser.html#ac7d2fba3c0d40ee6ffedaf26419b4960" target="_top" xlink:title=" ">
<polygon fill="none" stroke="black" points="122,-213 122,-243 253,-243 253,-213 122,-213"/>
<text text-anchor="start" x="130" y="-231" font-family="Helvetica,sans-Serif" font-size="10.00">cflite.eazyaigen.parser.</text>
<text text-anchor="middle" x="187.5" y="-220" font-family="Helvetica,sans-Serif" font-size="10.00">Parser.check_params</text>
</a>
</g>
</g>
<!-- Node1&#45;&gt;Node2 -->
<g id="edge1" class="edge">
<title>Node1&#45;&gt;Node2</title>
<path fill="none" stroke="midnightblue" d="M19.21,-117.7C24.21,-137.36 38.36,-181.88 68,-204 80.7,-213.47 96.2,-219.45 111.76,-223.16"/>
<polygon fill="midnightblue" stroke="midnightblue" points="111.46,-226.68 121.97,-225.29 112.89,-219.82 111.46,-226.68"/>
</g>
<!-- Node3 -->
<g id="node3" class="node">
<title>Node3</title>
<g id="a_node3"><a xlink:href="../../d0/d1d/classcflite_1_1eazyaigen_1_1abstractobj_1_1eazyaigenobject_1_1EazyaiGenObject.html#a56db9b3182d539e18bdaef2aadd5774c" target="_top" xlink:title=" ">
<polygon fill="none" stroke="black" points="68,-164 68,-194 307,-194 307,-164 68,-164"/>
<text text-anchor="start" x="76" y="-182" font-family="Helvetica,sans-Serif" font-size="10.00">cflite.eazyaigen.abstractobj.eazyaigenobject.</text>
<text text-anchor="middle" x="187.5" y="-171" font-family="Helvetica,sans-Serif" font-size="10.00">EazyaiGenObject.execute_cmd</text>
</a>
</g>
</g>
<!-- Node1&#45;&gt;Node3 -->
<g id="edge2" class="edge">
<title>Node1&#45;&gt;Node3</title>
<path fill="none" stroke="midnightblue" d="M24.55,-117.58C33.65,-128.43 49.99,-145.8 68,-155 71.79,-156.93 75.71,-158.71 79.74,-160.35"/>
<polygon fill="midnightblue" stroke="midnightblue" points="78.69,-163.69 89.28,-163.91 81.14,-157.13 78.69,-163.69"/>
</g>
<!-- Node5 -->
<g id="node5" class="node">
<title>Node5</title>
<g id="a_node5"><a xlink:href="../../d8/d8d/group__cflite-eazyaigen-cavalry.html#ga40181f1a480d2c8687ed85a81dcd08e6" target="_top" xlink:title=" ">
<polygon fill="none" stroke="black" points="98,-115 98,-145 277,-145 277,-115 98,-115"/>
<text text-anchor="start" x="106" y="-133" font-family="Helvetica,sans-Serif" font-size="10.00">cflite.eazyaigen.cavalrygen.</text>
<text text-anchor="middle" x="187.5" y="-122" font-family="Helvetica,sans-Serif" font-size="10.00">CavalryGen.generate_commands</text>
</a>
</g>
</g>
<!-- Node1&#45;&gt;Node5 -->
<g id="edge4" class="edge">
<title>Node1&#45;&gt;Node5</title>
<path fill="none" stroke="midnightblue" d="M32.04,-109.95C45.32,-111.68 65.93,-114.35 87.81,-117.19"/>
<polygon fill="midnightblue" stroke="midnightblue" points="87.56,-120.69 97.93,-118.5 88.46,-113.75 87.56,-120.69"/>
</g>
<!-- Node6 -->
<g id="node6" class="node">
<title>Node6</title>
<g id="a_node6"><a xlink:href="../../d9/d64/group__cflite-eazyaigen-cvb.html#gaecc2a0e370fa9e93a1efcbeb644a5c63" target="_top" xlink:title=" ">
<polygon fill="none" stroke="black" points="128,-76.5 128,-95.5 247,-95.5 247,-76.5 128,-76.5"/>
<text text-anchor="middle" x="187.5" y="-83.5" font-family="Helvetica,sans-Serif" font-size="10.00">generate_commands</text>
</a>
</g>
</g>
<!-- Node1&#45;&gt;Node6 -->
<g id="edge5" class="edge">
<title>Node1&#45;&gt;Node6</title>
<path fill="none" stroke="midnightblue" d="M32.04,-106.05C51.34,-103.54 86.12,-99.03 117.79,-94.92"/>
<polygon fill="midnightblue" stroke="midnightblue" points="118.48,-98.36 127.95,-93.6 117.58,-91.42 118.48,-98.36"/>
</g>
<!-- Node8 -->
<g id="node8" class="node">
<title>Node8</title>
<g id="a_node8"><a xlink:href="../../d9/d64/group__cflite-eazyaigen-cvb.html#ga12404b2093f6f442f063cc17891c38ab" target="_top" xlink:title=" ">
<polygon fill="none" stroke="black" points="149,-38.5 149,-57.5 226,-57.5 226,-38.5 149,-38.5"/>
<text text-anchor="middle" x="187.5" y="-45.5" font-family="Helvetica,sans-Serif" font-size="10.00">get_cvt_info</text>
</a>
</g>
</g>
<!-- Node1&#45;&gt;Node8 -->
<g id="edge7" class="edge">
<title>Node1&#45;&gt;Node8</title>
<path fill="none" stroke="midnightblue" d="M25.78,-98.5C35.23,-88.91 51.18,-74.47 68,-67 90.03,-57.21 116.34,-52.39 138.58,-50.05"/>
<polygon fill="midnightblue" stroke="midnightblue" points="139.16,-53.51 148.8,-49.11 138.52,-46.54 139.16,-53.51"/>
</g>
<!-- Node9 -->
<g id="node9" class="node">
<title>Node9</title>
<g id="a_node9"><a xlink:href="../../d9/d64/group__cflite-eazyaigen-cvb.html#ga4edfddb97a8d4afdd1459b606d73d664" target="_top" xlink:title=" ">
<polygon fill="none" stroke="black" points="139.5,-0.5 139.5,-19.5 235.5,-19.5 235.5,-0.5 139.5,-0.5"/>
<text text-anchor="middle" x="187.5" y="-7.5" font-family="Helvetica,sans-Serif" font-size="10.00">get_output_path</text>
</a>
</g>
</g>
<!-- Node1&#45;&gt;Node9 -->
<g id="edge8" class="edge">
<title>Node1&#45;&gt;Node9</title>
<path fill="none" stroke="midnightblue" d="M20.24,-98.34C26.51,-81.26 42.03,-45.95 68,-29 85.99,-17.26 108.72,-11.89 129.45,-9.67"/>
<polygon fill="midnightblue" stroke="midnightblue" points="129.76,-13.16 139.43,-8.82 129.17,-6.18 129.76,-13.16"/>
</g>
<!-- Node4 -->
<g id="node4" class="node">
<title>Node4</title>
<g id="a_node4"><a xlink:href="../../d0/d1d/classcflite_1_1eazyaigen_1_1abstractobj_1_1eazyaigenobject_1_1EazyaiGenObject.html#a82c36c205d82f157d70c39e5a3b6c7ce" target="_top" xlink:title=" ">
<polygon fill="none" stroke="black" points="343,-164 343,-194 582,-194 582,-164 343,-164"/>
<text text-anchor="start" x="351" y="-182" font-family="Helvetica,sans-Serif" font-size="10.00">cflite.eazyaigen.abstractobj.eazyaigenobject.</text>
<text text-anchor="middle" x="462.5" y="-171" font-family="Helvetica,sans-Serif" font-size="10.00">EazyaiGenObject.start_subprocess</text>
</a>
</g>
</g>
<!-- Node3&#45;&gt;Node4 -->
<g id="edge3" class="edge">
<title>Node3&#45;&gt;Node4</title>
<path fill="none" stroke="midnightblue" d="M307.05,-179C315.44,-179 323.92,-179 332.36,-179"/>
<polygon fill="midnightblue" stroke="midnightblue" points="332.63,-182.5 342.63,-179 332.63,-175.5 332.63,-182.5"/>
</g>
<!-- Node7 -->
<g id="node7" class="node">
<title>Node7</title>
<g id="a_node7"><a xlink:href="../../d9/d64/group__cflite-eazyaigen-cvb.html#ga54e206c25e6db7808a1ffd4991267283" target="_top" xlink:title=" ">
<polygon fill="none" stroke="black" points="400.5,-76.5 400.5,-95.5 524.5,-95.5 524.5,-76.5 400.5,-76.5"/>
<text text-anchor="middle" x="462.5" y="-83.5" font-family="Helvetica,sans-Serif" font-size="10.00">generate_meta_graph</text>
</a>
</g>
</g>
<!-- Node6&#45;&gt;Node7 -->
<g id="edge6" class="edge">
<title>Node6&#45;&gt;Node7</title>
<path fill="none" stroke="midnightblue" d="M247.07,-86C288.93,-86 345.49,-86 390.02,-86"/>
<polygon fill="midnightblue" stroke="midnightblue" points="390.19,-89.5 400.19,-86 390.19,-82.5 390.19,-89.5"/>
</g>
</g>
</svg>
