<?xml version="1.0" encoding="UTF-8" standalone="no"?>
<!DOCTYPE svg PUBLIC "-//W3C//DTD SVG 1.1//EN"
 "http://www.w3.org/Graphics/SVG/1.1/DTD/svg11.dtd">
<!-- Generated by graphviz version 2.43.0 (0)
 -->
<!-- Title: get_output_path Pages: 1 -->
<svg width="271pt" height="66pt"
 viewBox="0.00 0.00 271.00 66.00" xmlns="http://www.w3.org/2000/svg" xmlns:xlink="http://www.w3.org/1999/xlink">
<g id="graph0" class="graph" transform="scale(1 1) rotate(0) translate(4 62)">
<title>get_output_path</title>
<!-- Node1 -->
<g id="node1" class="node">
<title>Node1</title>
<g id="a_node1"><a xlink:title=" ">
<polygon fill="#bfbfbf" stroke="black" points="167,-19.5 167,-38.5 263,-38.5 263,-19.5 167,-19.5"/>
<text text-anchor="middle" x="215" y="-26.5" font-family="Helvetica,sans-Serif" font-size="10.00">get_output_path</text>
</a>
</g>
</g>
<!-- Node2 -->
<g id="node2" class="node">
<title>Node2</title>
<g id="a_node2"><a xlink:href="../../d9/d64/group__cflite-eazyaigen-cvb.html#ga103d6d5cdd8ecb125a4021b62bd3aff7" target="_top" xlink:title=" ">
<polygon fill="none" stroke="black" points="49.5,-38.5 49.5,-57.5 81.5,-57.5 81.5,-38.5 49.5,-38.5"/>
<text text-anchor="middle" x="65.5" y="-45.5" font-family="Helvetica,sans-Serif" font-size="10.00">run</text>
</a>
</g>
</g>
<!-- Node1&#45;&gt;Node2 -->
<g id="edge1" class="edge">
<title>Node1&#45;&gt;Node2</title>
<path fill="none" stroke="midnightblue" d="M156.74,-36.38C129.67,-39.86 99.47,-43.75 81.78,-46.03"/>
<polygon fill="midnightblue" stroke="midnightblue" points="157.45,-39.81 166.92,-35.06 156.56,-32.87 157.45,-39.81"/>
</g>
<!-- Node3 -->
<g id="node3" class="node">
<title>Node3</title>
<g id="a_node3"><a xlink:href="../../d9/d64/group__cflite-eazyaigen-cvb.html#gae842132494a52d538bf11b8f127c9f2a" target="_top" xlink:title=" ">
<polygon fill="none" stroke="black" points="0,-0.5 0,-19.5 131,-19.5 131,-0.5 0,-0.5"/>
<text text-anchor="middle" x="65.5" y="-7.5" font-family="Helvetica,sans-Serif" font-size="10.00">run_with_dummy_input</text>
</a>
</g>
</g>
<!-- Node1&#45;&gt;Node3 -->
<g id="edge2" class="edge">
<title>Node1&#45;&gt;Node3</title>
<path fill="none" stroke="midnightblue" d="M156.84,-21.64C148.42,-20.55 139.7,-19.43 131.15,-18.33"/>
<polygon fill="midnightblue" stroke="midnightblue" points="156.56,-25.13 166.92,-22.94 157.45,-18.19 156.56,-25.13"/>
</g>
</g>
</svg>
