<?xml version="1.0" encoding="UTF-8" standalone="no"?>
<!DOCTYPE svg PUBLIC "-//W3C//DTD SVG 1.1//EN"
 "http://www.w3.org/Graphics/SVG/1.1/DTD/svg11.dtd">
<!-- Generated by graphviz version 2.43.0 (0)
 -->
<!-- Title: generate_meta_graph Pages: 1 -->
<!--zoomable 548 -->
<svg id="main" version="1.1" xmlns="http://www.w3.org/2000/svg" xmlns:xlink="http://www.w3.org/1999/xlink" xml:space="preserve" onload="init(evt)">
<style type="text/css"><![CDATA[
.edge:hover path { stroke: red; }
.edge:hover polygon { stroke: red; fill: red; }
]]></style>
<script type="text/javascript"><![CDATA[
var edges = document.getElementsByTagName('g');
if (edges && edges.length) {
  for (var i=0;i<edges.length;i++) {
    if (edges[i].id.substr(0,4)=='edge') {
      edges[i].setAttribute('class','edge');
    }
  }
}
]]></script>
        <defs>
                <circle id="rim" cx="0" cy="0" r="7"/>
                <circle id="rim2" cx="0" cy="0" r="3.5"/>
                <g id="zoomPlus">
                        <use xlink:href="#rim" fill="#404040">
                                <set attributeName="fill" to="#808080" begin="zoomplus.mouseover" end="zoomplus.mouseout"/>
                        </use>
                        <path d="M-4,0h8M0,-4v8" fill="none" stroke="white" stroke-width="1.5" pointer-events="none"/>
                </g>
                <g id="zoomMin">
                        <use xlink:href="#rim" fill="#404040">
                                <set attributeName="fill" to="#808080" begin="zoomminus.mouseover" end="zoomminus.mouseout"/>
                        </use>
                        <path d="M-4,0h8" fill="none" stroke="white" stroke-width="1.5" pointer-events="none"/>
                </g>
                <g id="dirArrow">
                        <path fill="none" stroke="white" stroke-width="1.5" d="M0,-3.0v7 M-2.5,-0.5L0,-3.0L2.5,-0.5"/>
                </g>
               <g id="resetDef">
                       <use xlink:href="#rim2" fill="#404040">
                               <set attributeName="fill" to="#808080" begin="reset.mouseover" end="reset.mouseout"/>
                       </use>
               </g>
        </defs>

<script type="text/javascript">
var viewWidth = 496;
var viewHeight = 548;
var sectionId = 'dynsection-3';
</script>
<script xlink:href="../../svgpan.js"/>
<svg id="graph" class="graph">
<g id="viewport">
<title>generate_meta_graph</title>
<!-- Node1 -->
<g id="node1" class="node">
<title>Node1</title>
<g id="a_node1"><a xlink:title=" ">
<polygon fill="#bfbfbf" stroke="black" points="364,-258 364,-277 488,-277 488,-258 364,-258"/>
<text text-anchor="middle" x="426" y="-265" font-family="Helvetica,sans-Serif" font-size="10.00">generate_meta_graph</text>
</a>
</g>
</g>
<!-- Node2 -->
<g id="node2" class="node">
<title>Node2</title>
<g id="a_node2"><a xlink:href="../../d9/d64/group__cflite-eazyaigen-cvb.html#gaecc2a0e370fa9e93a1efcbeb644a5c63" target="_top" xlink:title=" ">
<polygon fill="none" stroke="black" points="209,-258 209,-277 328,-277 328,-258 209,-258"/>
<text text-anchor="middle" x="268.5" y="-265" font-family="Helvetica,sans-Serif" font-size="10.00">generate_commands</text>
</a>
</g>
</g>
<!-- Node1&#45;&gt;Node2 -->
<g id="edge1" class="edge">
<title>Node1&#45;&gt;Node2</title>
<path fill="none" stroke="midnightblue" d="M353.91,-267.5C345.25,-267.5 336.49,-267.5 328.05,-267.5"/>
<polygon fill="midnightblue" stroke="midnightblue" points="353.99,-271 363.99,-267.5 353.99,-264 353.99,-271"/>
</g>
<!-- Node3 -->
<g id="node3" class="node">
<title>Node3</title>
<g id="a_node3"><a xlink:href="../../d5/de0/classcflite_1_1eazyaiinf_1_1dummymode_1_1DummyMode.html#ad22709b2e67308af35f55680d5a026e0" target="_top" xlink:title=" ">
<polygon fill="none" stroke="black" points="6.5,-509.5 6.5,-539.5 166.5,-539.5 166.5,-509.5 6.5,-509.5"/>
<text text-anchor="start" x="14.5" y="-527.5" font-family="Helvetica,sans-Serif" font-size="10.00">cflite.eazyaiinf.dummymode.</text>
<text text-anchor="middle" x="86.5" y="-516.5" font-family="Helvetica,sans-Serif" font-size="10.00">DummyMode.run</text>
</a>
</g>
</g>
<!-- Node2&#45;&gt;Node3 -->
<g id="edge2" class="edge">
<title>Node2&#45;&gt;Node3</title>
<path fill="none" stroke="midnightblue" d="M265.3,-287.35C259.27,-332.23 238.26,-442.15 173,-500.5 169.21,-503.89 164.97,-506.81 160.47,-509.31"/>
<polygon fill="midnightblue" stroke="midnightblue" points="268.81,-287.54 266.56,-277.18 261.86,-286.68 268.81,-287.54"/>
</g>
<!-- Node4 -->
<g id="node4" class="node">
<title>Node4</title>
<g id="a_node4"><a xlink:href="../../dd/d96/classcflite_1_1eazyaiinf_1_1livemode_1_1LiveMode.html#ad22709b2e67308af35f55680d5a026e0" target="_top" xlink:title=" ">
<polygon fill="none" stroke="black" points="16.5,-460.5 16.5,-490.5 156.5,-490.5 156.5,-460.5 16.5,-460.5"/>
<text text-anchor="start" x="24.5" y="-478.5" font-family="Helvetica,sans-Serif" font-size="10.00">cflite.eazyaiinf.livemode.</text>
<text text-anchor="middle" x="86.5" y="-467.5" font-family="Helvetica,sans-Serif" font-size="10.00">LiveMode.run</text>
</a>
</g>
</g>
<!-- Node2&#45;&gt;Node4 -->
<g id="edge3" class="edge">
<title>Node2&#45;&gt;Node4</title>
<path fill="none" stroke="midnightblue" d="M262.83,-287.3C252.93,-324.86 226.26,-406.6 173,-450.5 168.11,-454.53 162.59,-457.91 156.77,-460.75"/>
<polygon fill="midnightblue" stroke="midnightblue" points="266.33,-287.71 265.37,-277.15 259.54,-286 266.33,-287.71"/>
</g>
<!-- Node5 -->
<g id="node5" class="node">
<title>Node5</title>
<g id="a_node5"><a xlink:href="../../d9/d70/classcflite_1_1eazyaigen_1_1vas_1_1VAS.html#a707d09914dcf0d1d280d523f4d6d1f8c" target="_top" xlink:title=" ">
<polygon fill="none" stroke="black" points="8.5,-422 8.5,-441 164.5,-441 164.5,-422 8.5,-422"/>
<text text-anchor="middle" x="86.5" y="-429" font-family="Helvetica,sans-Serif" font-size="10.00">cflite.eazyaigen.vas.VAS.run</text>
</a>
</g>
</g>
<!-- Node2&#45;&gt;Node5 -->
<g id="edge4" class="edge">
<title>Node2&#45;&gt;Node5</title>
<path fill="none" stroke="midnightblue" d="M260.65,-286.51C248.28,-317.96 219.16,-380.52 173,-412.5 167.38,-416.4 161.09,-419.51 154.54,-422"/>
<polygon fill="midnightblue" stroke="midnightblue" points="263.93,-287.72 264.2,-277.13 257.38,-285.24 263.93,-287.72"/>
</g>
<!-- Node6 -->
<g id="node6" class="node">
<title>Node6</title>
<g id="a_node6"><a xlink:href="../../d0/dd9/classcflite_1_1eazyaigen_1_1parser_1_1Parser.html#a103d6d5cdd8ecb125a4021b62bd3aff7" target="_top" xlink:title=" ">
<polygon fill="none" stroke="black" points="21,-372.5 21,-402.5 152,-402.5 152,-372.5 21,-372.5"/>
<text text-anchor="start" x="29" y="-390.5" font-family="Helvetica,sans-Serif" font-size="10.00">cflite.eazyaigen.parser.</text>
<text text-anchor="middle" x="86.5" y="-379.5" font-family="Helvetica,sans-Serif" font-size="10.00">Parser.run</text>
</a>
</g>
</g>
<!-- Node2&#45;&gt;Node6 -->
<g id="edge5" class="edge">
<title>Node2&#45;&gt;Node6</title>
<path fill="none" stroke="midnightblue" d="M254.7,-285.31C238.21,-306.95 207.54,-343.1 173,-363.5 166.5,-367.34 159.35,-370.59 152.04,-373.34"/>
<polygon fill="midnightblue" stroke="midnightblue" points="257.71,-287.12 260.86,-277.01 252.09,-282.95 257.71,-287.12"/>
</g>
<!-- Node7 -->
<g id="node7" class="node">
<title>Node7</title>
<g id="a_node7"><a xlink:href="../../da/dcb/group__cflite-eazyaigen-layercompare.html#ga975842bb055e811cbd461e7bb332a89d" target="_top" xlink:title=" ">
<polygon fill="none" stroke="black" points="2.5,-323.5 2.5,-353.5 170.5,-353.5 170.5,-323.5 2.5,-323.5"/>
<text text-anchor="start" x="10.5" y="-341.5" font-family="Helvetica,sans-Serif" font-size="10.00">cflite.eazyaigen.layercompare.</text>
<text text-anchor="middle" x="86.5" y="-330.5" font-family="Helvetica,sans-Serif" font-size="10.00">LayerCompare.run</text>
</a>
</g>
</g>
<!-- Node2&#45;&gt;Node7 -->
<g id="edge6" class="edge">
<title>Node2&#45;&gt;Node7</title>
<path fill="none" stroke="midnightblue" d="M241.74,-281.96C223.07,-292.03 196.99,-305.26 173,-314.5 164.66,-317.71 155.7,-320.7 146.85,-323.4"/>
<polygon fill="midnightblue" stroke="midnightblue" points="243.43,-285.03 250.52,-277.16 240.07,-278.89 243.43,-285.03"/>
</g>
<!-- Node8 -->
<g id="node8" class="node">
<title>Node8</title>
<g id="a_node8"><a xlink:href="../../d7/df3/classcflite_1_1eazyaisys_1_1fastvideo_1_1VideoSession.html#ad22709b2e67308af35f55680d5a026e0" target="_top" xlink:title=" ">
<polygon fill="none" stroke="black" points="14,-274.5 14,-304.5 159,-304.5 159,-274.5 14,-274.5"/>
<text text-anchor="start" x="22" y="-292.5" font-family="Helvetica,sans-Serif" font-size="10.00">cflite.eazyaisys.fastvideo.</text>
<text text-anchor="middle" x="86.5" y="-281.5" font-family="Helvetica,sans-Serif" font-size="10.00">VideoSession.run</text>
</a>
</g>
</g>
<!-- Node2&#45;&gt;Node8 -->
<g id="edge7" class="edge">
<title>Node2&#45;&gt;Node8</title>
<path fill="none" stroke="midnightblue" d="M198.4,-275.95C185.53,-277.52 172.07,-279.16 159.13,-280.74"/>
<polygon fill="midnightblue" stroke="midnightblue" points="199.06,-279.39 208.56,-274.7 198.21,-272.44 199.06,-279.39"/>
</g>
<!-- Node9 -->
<g id="node9" class="node">
<title>Node9</title>
<g id="a_node9"><a xlink:href="../../d9/d64/group__cflite-eazyaigen-cvb.html#ga103d6d5cdd8ecb125a4021b62bd3aff7" target="_top" xlink:title=" ">
<polygon fill="none" stroke="black" points="70.5,-236 70.5,-255 102.5,-255 102.5,-236 70.5,-236"/>
<text text-anchor="middle" x="86.5" y="-243" font-family="Helvetica,sans-Serif" font-size="10.00">run</text>
</a>
</g>
</g>
<!-- Node2&#45;&gt;Node9 -->
<g id="edge8" class="edge">
<title>Node2&#45;&gt;Node9</title>
<path fill="none" stroke="midnightblue" d="M198.33,-259.05C163.25,-254.76 123.72,-249.93 102.64,-247.35"/>
<polygon fill="midnightblue" stroke="midnightblue" points="198.21,-262.56 208.56,-260.3 199.06,-255.61 198.21,-262.56"/>
</g>
<!-- Node10 -->
<g id="node10" class="node">
<title>Node10</title>
<g id="a_node10"><a xlink:href="../../d5/de0/classcflite_1_1eazyaiinf_1_1dummymode_1_1DummyMode.html#a15180f30e49a79272f83ca50ddd3368f" target="_top" xlink:title=" ">
<polygon fill="none" stroke="black" points="6.5,-186.5 6.5,-216.5 166.5,-216.5 166.5,-186.5 6.5,-186.5"/>
<text text-anchor="start" x="14.5" y="-204.5" font-family="Helvetica,sans-Serif" font-size="10.00">cflite.eazyaiinf.dummymode.</text>
<text text-anchor="middle" x="86.5" y="-193.5" font-family="Helvetica,sans-Serif" font-size="10.00">DummyMode.run_non_block</text>
</a>
</g>
</g>
<!-- Node2&#45;&gt;Node10 -->
<g id="edge9" class="edge">
<title>Node2&#45;&gt;Node10</title>
<path fill="none" stroke="midnightblue" d="M238.19,-253.65C219.72,-245.21 195.24,-234.54 173,-226.5 163.4,-223.03 153.07,-219.69 143.02,-216.64"/>
<polygon fill="midnightblue" stroke="midnightblue" points="236.97,-256.95 247.52,-257.96 239.9,-250.59 236.97,-256.95"/>
</g>
<!-- Node11 -->
<g id="node11" class="node">
<title>Node11</title>
<g id="a_node11"><a xlink:href="../../dd/d96/classcflite_1_1eazyaiinf_1_1livemode_1_1LiveMode.html#a15180f30e49a79272f83ca50ddd3368f" target="_top" xlink:title=" ">
<polygon fill="none" stroke="black" points="16.5,-137.5 16.5,-167.5 156.5,-167.5 156.5,-137.5 16.5,-137.5"/>
<text text-anchor="start" x="24.5" y="-155.5" font-family="Helvetica,sans-Serif" font-size="10.00">cflite.eazyaiinf.livemode.</text>
<text text-anchor="middle" x="86.5" y="-144.5" font-family="Helvetica,sans-Serif" font-size="10.00">LiveMode.run_non_block</text>
</a>
</g>
</g>
<!-- Node2&#45;&gt;Node11 -->
<g id="edge10" class="edge">
<title>Node2&#45;&gt;Node11</title>
<path fill="none" stroke="midnightblue" d="M253.63,-249.96C236.69,-229.67 206.15,-196.6 173,-177.5 166.3,-173.64 158.96,-170.33 151.47,-167.51"/>
<polygon fill="midnightblue" stroke="midnightblue" points="251,-252.26 260.03,-257.8 256.42,-247.84 251,-252.26"/>
</g>
<!-- Node12 -->
<g id="node12" class="node">
<title>Node12</title>
<g id="a_node12"><a xlink:href="../../d0/dd9/classcflite_1_1eazyaigen_1_1parser_1_1Parser.html#ae842132494a52d538bf11b8f127c9f2a" target="_top" xlink:title=" ">
<polygon fill="none" stroke="black" points="4,-88.5 4,-118.5 169,-118.5 169,-88.5 4,-88.5"/>
<text text-anchor="start" x="12" y="-106.5" font-family="Helvetica,sans-Serif" font-size="10.00">cflite.eazyaigen.parser.</text>
<text text-anchor="middle" x="86.5" y="-95.5" font-family="Helvetica,sans-Serif" font-size="10.00">Parser.run_with_dummy_input</text>
</a>
</g>
</g>
<!-- Node2&#45;&gt;Node12 -->
<g id="edge11" class="edge">
<title>Node2&#45;&gt;Node12</title>
<path fill="none" stroke="midnightblue" d="M259.64,-248.33C246.33,-218.25 216.48,-160.14 173,-128.5 167.75,-124.68 161.92,-121.44 155.84,-118.69"/>
<polygon fill="midnightblue" stroke="midnightblue" points="256.5,-249.9 263.66,-257.71 262.94,-247.14 256.5,-249.9"/>
</g>
<!-- Node13 -->
<g id="node13" class="node">
<title>Node13</title>
<g id="a_node13"><a xlink:href="../../d9/d64/group__cflite-eazyaigen-cvb.html#gae842132494a52d538bf11b8f127c9f2a" target="_top" xlink:title=" ">
<polygon fill="none" stroke="black" points="21,-50 21,-69 152,-69 152,-50 21,-50"/>
<text text-anchor="middle" x="86.5" y="-57" font-family="Helvetica,sans-Serif" font-size="10.00">run_with_dummy_input</text>
</a>
</g>
</g>
<!-- Node2&#45;&gt;Node13 -->
<g id="edge12" class="edge">
<title>Node2&#45;&gt;Node13</title>
<path fill="none" stroke="midnightblue" d="M263.46,-247.94C254.43,-209.39 228.88,-123.54 173,-79.5 166.89,-74.69 159.83,-71 152.42,-68.18"/>
<polygon fill="midnightblue" stroke="midnightblue" points="260.08,-248.88 265.66,-257.89 266.92,-247.37 260.08,-248.88"/>
</g>
<!-- Node14 -->
<g id="node14" class="node">
<title>Node14</title>
<g id="a_node14"><a xlink:href="../../db/deb/classcflite_1_1eazyaigen_1_1theoryperf_1_1TheoryPerf.html#a08d517af7fce800ad7b5573cdec5a270" target="_top" xlink:title=" ">
<polygon fill="none" stroke="black" points="0,-0.5 0,-30.5 173,-30.5 173,-0.5 0,-0.5"/>
<text text-anchor="start" x="8" y="-18.5" font-family="Helvetica,sans-Serif" font-size="10.00">cflite.eazyaigen.theoryperf.</text>
<text text-anchor="middle" x="86.5" y="-7.5" font-family="Helvetica,sans-Serif" font-size="10.00">TheoryPerf.set_vas_output_path</text>
</a>
</g>
</g>
<!-- Node2&#45;&gt;Node14 -->
<g id="edge13" class="edge">
<title>Node2&#45;&gt;Node14</title>
<path fill="none" stroke="midnightblue" d="M265.01,-247.59C258.42,-203.57 236.48,-97.35 173,-40.5 168.74,-36.68 163.92,-33.45 158.8,-30.7"/>
<polygon fill="midnightblue" stroke="midnightblue" points="261.55,-248.18 266.39,-257.6 268.49,-247.22 261.55,-248.18"/>
</g>
</g>
</svg>
        <g id="navigator" transform="translate(0 0)" fill="#404254">
                <rect fill="#f2f5e9" fill-opacity="0.5" stroke="#606060" stroke-width=".5" x="0" y="0" width="60" height="60"/>
                <use id="zoomplus" xlink:href="#zoomPlus" x="17" y="9" onmousedown="handleZoom(evt,'in')"/>
                <use id="zoomminus" xlink:href="#zoomMin" x="42" y="9" onmousedown="handleZoom(evt,'out')"/>
                <use id="reset" xlink:href="#resetDef" x="30" y="36" onmousedown="handleReset()"/>
                <g id="arrowUp" xlink:href="#dirArrow" transform="translate(30 24)" onmousedown="handlePan(0,-1)">
                  <use xlink:href="#rim" fill="#404040">
                        <set attributeName="fill" to="#808080" begin="arrowUp.mouseover" end="arrowUp.mouseout"/>
                  </use>
                  <path fill="none" stroke="white" stroke-width="1.5" d="M0,-3.0v7 M-2.5,-0.5L0,-3.0L2.5,-0.5"/>
                </g>
                <g id="arrowRight" xlink:href="#dirArrow" transform="rotate(90) translate(36 -43)" onmousedown="handlePan(1,0)">
                  <use xlink:href="#rim" fill="#404040">
                        <set attributeName="fill" to="#808080" begin="arrowRight.mouseover" end="arrowRight.mouseout"/>
                  </use>
                  <path fill="none" stroke="white" stroke-width="1.5" d="M0,-3.0v7 M-2.5,-0.5L0,-3.0L2.5,-0.5"/>
                </g>
                <g id="arrowDown" xlink:href="#dirArrow" transform="rotate(180) translate(-30 -48)" onmousedown="handlePan(0,1)">
                  <use xlink:href="#rim" fill="#404040">
                        <set attributeName="fill" to="#808080" begin="arrowDown.mouseover" end="arrowDown.mouseout"/>
                  </use>
                  <path fill="none" stroke="white" stroke-width="1.5" d="M0,-3.0v7 M-2.5,-0.5L0,-3.0L2.5,-0.5"/>
                </g>
                <g id="arrowLeft" xlink:href="#dirArrow" transform="rotate(270) translate(-36 17)" onmousedown="handlePan(-1,0)">
                  <use xlink:href="#rim" fill="#404040">
                        <set attributeName="fill" to="#808080" begin="arrowLeft.mouseover" end="arrowLeft.mouseout"/>
                  </use>
                  <path fill="none" stroke="white" stroke-width="1.5" d="M0,-3.0v7 M-2.5,-0.5L0,-3.0L2.5,-0.5"/>
                </g>
        </g>
        <svg viewBox="0 0 15 15" width="100%" height="30px" preserveAspectRatio="xMaxYMin meet">
         <g id="arrow_out" transform="scale(0.3 0.3)">
          <a xlink:href="group__cflite-eazyaigen-cvb_ga54e206c25e6db7808a1ffd4991267283_icgraph_org.svg" target="_base">
           <rect id="button" ry="5" rx="5" y="6" x="6" height="38" width="38"
                fill="#f2f5e9" fill-opacity="0.5" stroke="#606060" stroke-width="1.0"/>
           <path id="arrow"
             d="M 11.500037,31.436501 C 11.940474,20.09759 22.043105,11.32322 32.158766,21.979434 L 37.068811,17.246167 C 37.068811,17.246167 37.088388,32 37.088388,32 L 22.160133,31.978069 C 22.160133,31.978069 26.997745,27.140456 26.997745,27.140456 C 18.528582,18.264221 13.291696,25.230495 11.500037,31.436501 z"
             style="fill:#404040;"/>
          </a>
         </g>
        </svg>
</svg>
