<?xml version="1.0" encoding="UTF-8" standalone="no"?>
<!DOCTYPE svg PUBLIC "-//W3C//DTD SVG 1.1//EN"
 "http://www.w3.org/Graphics/SVG/1.1/DTD/svg11.dtd">
<!-- Generated by graphviz version 2.43.0 (0)
 -->
<!-- Title: run_with_dummy_input Pages: 1 -->
<svg width="689pt" height="301pt"
 viewBox="0.00 0.00 689.00 301.00" xmlns="http://www.w3.org/2000/svg" xmlns:xlink="http://www.w3.org/1999/xlink">
<g id="graph0" class="graph" transform="scale(1 1) rotate(0) translate(4 297)">
<title>run_with_dummy_input</title>
<!-- Node1 -->
<g id="node1" class="node">
<title>Node1</title>
<g id="a_node1"><a xlink:title=" ">
<polygon fill="#bfbfbf" stroke="black" points="0,-126 0,-145 131,-145 131,-126 0,-126"/>
<text text-anchor="middle" x="65.5" y="-133" font-family="Helvetica,sans-Serif" font-size="10.00">run_with_dummy_input</text>
</a>
</g>
</g>
<!-- Node2 -->
<g id="node2" class="node">
<title>Node2</title>
<g id="a_node2"><a xlink:href="../../d0/dd9/classcflite_1_1eazyaigen_1_1parser_1_1Parser.html#ac7d2fba3c0d40ee6ffedaf26419b4960" target="_top" xlink:title=" ">
<polygon fill="none" stroke="black" points="221,-262.5 221,-292.5 352,-292.5 352,-262.5 221,-262.5"/>
<text text-anchor="start" x="229" y="-280.5" font-family="Helvetica,sans-Serif" font-size="10.00">cflite.eazyaigen.parser.</text>
<text text-anchor="middle" x="286.5" y="-269.5" font-family="Helvetica,sans-Serif" font-size="10.00">Parser.check_params</text>
</a>
</g>
</g>
<!-- Node1&#45;&gt;Node2 -->
<g id="edge1" class="edge">
<title>Node1&#45;&gt;Node2</title>
<path fill="none" stroke="midnightblue" d="M71.59,-145.01C84.32,-167.82 119.94,-225.76 167,-253.5 180.28,-261.32 195.68,-266.64 210.91,-270.23"/>
<polygon fill="midnightblue" stroke="midnightblue" points="210.35,-273.69 220.86,-272.35 211.81,-266.84 210.35,-273.69"/>
</g>
<!-- Node3 -->
<g id="node3" class="node">
<title>Node3</title>
<g id="a_node3"><a xlink:href="../../d0/d1d/classcflite_1_1eazyaigen_1_1abstractobj_1_1eazyaigenobject_1_1EazyaiGenObject.html#a56db9b3182d539e18bdaef2aadd5774c" target="_top" xlink:title=" ">
<polygon fill="none" stroke="black" points="167,-213.5 167,-243.5 406,-243.5 406,-213.5 167,-213.5"/>
<text text-anchor="start" x="175" y="-231.5" font-family="Helvetica,sans-Serif" font-size="10.00">cflite.eazyaigen.abstractobj.eazyaigenobject.</text>
<text text-anchor="middle" x="286.5" y="-220.5" font-family="Helvetica,sans-Serif" font-size="10.00">EazyaiGenObject.execute_cmd</text>
</a>
</g>
</g>
<!-- Node1&#45;&gt;Node3 -->
<g id="edge2" class="edge">
<title>Node1&#45;&gt;Node3</title>
<path fill="none" stroke="midnightblue" d="M77.37,-145.2C94.91,-160.31 131.14,-189.31 167,-204.5 172.07,-206.65 177.35,-208.61 182.74,-210.4"/>
<polygon fill="midnightblue" stroke="midnightblue" points="181.95,-213.82 192.54,-213.44 184.02,-207.13 181.95,-213.82"/>
</g>
<!-- Node5 -->
<g id="node5" class="node">
<title>Node5</title>
<g id="a_node5"><a xlink:href="../../d8/d8d/group__cflite-eazyaigen-cavalry.html#ga40181f1a480d2c8687ed85a81dcd08e6" target="_top" xlink:title=" ">
<polygon fill="none" stroke="black" points="197,-164.5 197,-194.5 376,-194.5 376,-164.5 197,-164.5"/>
<text text-anchor="start" x="205" y="-182.5" font-family="Helvetica,sans-Serif" font-size="10.00">cflite.eazyaigen.cavalrygen.</text>
<text text-anchor="middle" x="286.5" y="-171.5" font-family="Helvetica,sans-Serif" font-size="10.00">CavalryGen.generate_commands</text>
</a>
</g>
</g>
<!-- Node1&#45;&gt;Node5 -->
<g id="edge4" class="edge">
<title>Node1&#45;&gt;Node5</title>
<path fill="none" stroke="midnightblue" d="M114.02,-145.05C139.34,-150.13 171.25,-156.54 200.65,-162.45"/>
<polygon fill="midnightblue" stroke="midnightblue" points="200.02,-165.9 210.52,-164.43 201.4,-159.03 200.02,-165.9"/>
</g>
<!-- Node6 -->
<g id="node6" class="node">
<title>Node6</title>
<g id="a_node6"><a xlink:href="../../d9/d64/group__cflite-eazyaigen-cvb.html#gaecc2a0e370fa9e93a1efcbeb644a5c63" target="_top" xlink:title=" ">
<polygon fill="none" stroke="black" points="227,-126 227,-145 346,-145 346,-126 227,-126"/>
<text text-anchor="middle" x="286.5" y="-133" font-family="Helvetica,sans-Serif" font-size="10.00">generate_commands</text>
</a>
</g>
</g>
<!-- Node1&#45;&gt;Node6 -->
<g id="edge5" class="edge">
<title>Node1&#45;&gt;Node6</title>
<path fill="none" stroke="midnightblue" d="M131.02,-135.5C157.87,-135.5 189.09,-135.5 216.41,-135.5"/>
<polygon fill="midnightblue" stroke="midnightblue" points="216.67,-139 226.67,-135.5 216.67,-132 216.67,-139"/>
</g>
<!-- Node8 -->
<g id="node8" class="node">
<title>Node8</title>
<g id="a_node8"><a xlink:href="../../d9/d64/group__cflite-eazyaigen-cvb.html#ga12404b2093f6f442f063cc17891c38ab" target="_top" xlink:title=" ">
<polygon fill="none" stroke="black" points="248,-88 248,-107 325,-107 325,-88 248,-88"/>
<text text-anchor="middle" x="286.5" y="-95" font-family="Helvetica,sans-Serif" font-size="10.00">get_cvt_info</text>
</a>
</g>
</g>
<!-- Node1&#45;&gt;Node8 -->
<g id="edge7" class="edge">
<title>Node1&#45;&gt;Node8</title>
<path fill="none" stroke="midnightblue" d="M115.27,-126C131.69,-122.87 150.12,-119.45 167,-116.5 190.3,-112.43 216.24,-108.23 237.89,-104.82"/>
<polygon fill="midnightblue" stroke="midnightblue" points="238.49,-108.27 247.83,-103.27 237.41,-101.36 238.49,-108.27"/>
</g>
<!-- Node9 -->
<g id="node9" class="node">
<title>Node9</title>
<g id="a_node9"><a xlink:href="../../d9/d64/group__cflite-eazyaigen-cvb.html#ga4edfddb97a8d4afdd1459b606d73d664" target="_top" xlink:title=" ">
<polygon fill="none" stroke="black" points="238.5,-50 238.5,-69 334.5,-69 334.5,-50 238.5,-50"/>
<text text-anchor="middle" x="286.5" y="-57" font-family="Helvetica,sans-Serif" font-size="10.00">get_output_path</text>
</a>
</g>
</g>
<!-- Node1&#45;&gt;Node9 -->
<g id="edge8" class="edge">
<title>Node1&#45;&gt;Node9</title>
<path fill="none" stroke="midnightblue" d="M79.73,-125.92C98.28,-113 133.5,-90.25 167,-78.5 186.42,-71.69 208.5,-67.3 228.29,-64.49"/>
<polygon fill="midnightblue" stroke="midnightblue" points="228.95,-67.93 238.4,-63.15 228.03,-60.99 228.95,-67.93"/>
</g>
<!-- Node10 -->
<g id="node10" class="node">
<title>Node10</title>
<g id="a_node10"><a xlink:href="../../db/d1f/group__cflite-eazyaigen-modelpreprocess.html#gac27d49ec54a0a3a73971ead470e9e084" target="_top" xlink:title=" ">
<polygon fill="none" stroke="black" points="186.5,-0.5 186.5,-30.5 386.5,-30.5 386.5,-0.5 186.5,-0.5"/>
<text text-anchor="start" x="194.5" y="-18.5" font-family="Helvetica,sans-Serif" font-size="10.00">cflite.eazyaigen.modelpreprocess.run</text>
<text text-anchor="middle" x="286.5" y="-7.5" font-family="Helvetica,sans-Serif" font-size="10.00">_print_graph_summary</text>
</a>
</g>
</g>
<!-- Node1&#45;&gt;Node10 -->
<g id="edge9" class="edge">
<title>Node1&#45;&gt;Node10</title>
<path fill="none" stroke="midnightblue" d="M73.6,-125.89C88.55,-106.42 125.32,-62.34 167,-40.5 171.54,-38.12 176.29,-35.97 181.17,-34.02"/>
<polygon fill="midnightblue" stroke="midnightblue" points="182.51,-37.26 190.69,-30.52 180.09,-30.69 182.51,-37.26"/>
</g>
<!-- Node4 -->
<g id="node4" class="node">
<title>Node4</title>
<g id="a_node4"><a xlink:href="../../d0/d1d/classcflite_1_1eazyaigen_1_1abstractobj_1_1eazyaigenobject_1_1EazyaiGenObject.html#a82c36c205d82f157d70c39e5a3b6c7ce" target="_top" xlink:title=" ">
<polygon fill="none" stroke="black" points="442,-213.5 442,-243.5 681,-243.5 681,-213.5 442,-213.5"/>
<text text-anchor="start" x="450" y="-231.5" font-family="Helvetica,sans-Serif" font-size="10.00">cflite.eazyaigen.abstractobj.eazyaigenobject.</text>
<text text-anchor="middle" x="561.5" y="-220.5" font-family="Helvetica,sans-Serif" font-size="10.00">EazyaiGenObject.start_subprocess</text>
</a>
</g>
</g>
<!-- Node3&#45;&gt;Node4 -->
<g id="edge3" class="edge">
<title>Node3&#45;&gt;Node4</title>
<path fill="none" stroke="midnightblue" d="M406.05,-228.5C414.44,-228.5 422.92,-228.5 431.36,-228.5"/>
<polygon fill="midnightblue" stroke="midnightblue" points="431.63,-232 441.63,-228.5 431.63,-225 431.63,-232"/>
</g>
<!-- Node7 -->
<g id="node7" class="node">
<title>Node7</title>
<g id="a_node7"><a xlink:href="../../d9/d64/group__cflite-eazyaigen-cvb.html#ga54e206c25e6db7808a1ffd4991267283" target="_top" xlink:title=" ">
<polygon fill="none" stroke="black" points="499.5,-126 499.5,-145 623.5,-145 623.5,-126 499.5,-126"/>
<text text-anchor="middle" x="561.5" y="-133" font-family="Helvetica,sans-Serif" font-size="10.00">generate_meta_graph</text>
</a>
</g>
</g>
<!-- Node6&#45;&gt;Node7 -->
<g id="edge6" class="edge">
<title>Node6&#45;&gt;Node7</title>
<path fill="none" stroke="midnightblue" d="M346.07,-135.5C387.93,-135.5 444.49,-135.5 489.02,-135.5"/>
<polygon fill="midnightblue" stroke="midnightblue" points="489.19,-139 499.19,-135.5 489.19,-132 489.19,-139"/>
</g>
</g>
</svg>
