<?xml version="1.0" encoding="UTF-8" standalone="no"?>
<!DOCTYPE svg PUBLIC "-//W3C//DTD SVG 1.1//EN"
 "http://www.w3.org/Graphics/SVG/1.1/DTD/svg11.dtd">
<!-- Generated by graphviz version 2.43.0 (0)
 -->
<!-- Title: get_cvt_info Pages: 1 -->
<svg width="286pt" height="166pt"
 viewBox="0.00 0.00 286.00 165.50" xmlns="http://www.w3.org/2000/svg" xmlns:xlink="http://www.w3.org/1999/xlink">
<g id="graph0" class="graph" transform="scale(1 1) rotate(0) translate(4 161.5)">
<title>get_cvt_info</title>
<!-- Node1 -->
<g id="node1" class="node">
<title>Node1</title>
<g id="a_node1"><a xlink:title=" ">
<polygon fill="#bfbfbf" stroke="black" points="201,-66.5 201,-85.5 278,-85.5 278,-66.5 201,-66.5"/>
<text text-anchor="middle" x="239.5" y="-73.5" font-family="Helvetica,sans-Serif" font-size="10.00">get_cvt_info</text>
</a>
</g>
</g>
<!-- Node2 -->
<g id="node2" class="node">
<title>Node2</title>
<g id="a_node2"><a xlink:href="../../d0/dd9/classcflite_1_1eazyaigen_1_1parser_1_1Parser.html#a103d6d5cdd8ecb125a4021b62bd3aff7" target="_top" xlink:title=" ">
<polygon fill="none" stroke="black" points="17,-127 17,-157 148,-157 148,-127 17,-127"/>
<text text-anchor="start" x="25" y="-145" font-family="Helvetica,sans-Serif" font-size="10.00">cflite.eazyaigen.parser.</text>
<text text-anchor="middle" x="82.5" y="-134" font-family="Helvetica,sans-Serif" font-size="10.00">Parser.run</text>
</a>
</g>
</g>
<!-- Node1&#45;&gt;Node2 -->
<g id="edge1" class="edge">
<title>Node1&#45;&gt;Node2</title>
<path fill="none" stroke="midnightblue" d="M214.91,-90.84C200.8,-99.28 182.31,-109.62 165,-117 156.56,-120.6 147.43,-123.92 138.43,-126.89"/>
<polygon fill="midnightblue" stroke="midnightblue" points="216.77,-93.81 223.49,-85.61 213.13,-87.83 216.77,-93.81"/>
</g>
<!-- Node3 -->
<g id="node3" class="node">
<title>Node3</title>
<g id="a_node3"><a xlink:href="../../d9/d64/group__cflite-eazyaigen-cvb.html#ga103d6d5cdd8ecb125a4021b62bd3aff7" target="_top" xlink:title=" ">
<polygon fill="none" stroke="black" points="66.5,-88.5 66.5,-107.5 98.5,-107.5 98.5,-88.5 66.5,-88.5"/>
<text text-anchor="middle" x="82.5" y="-95.5" font-family="Helvetica,sans-Serif" font-size="10.00">run</text>
</a>
</g>
</g>
<!-- Node1&#45;&gt;Node3 -->
<g id="edge2" class="edge">
<title>Node1&#45;&gt;Node3</title>
<path fill="none" stroke="midnightblue" d="M191.03,-82.74C159.43,-87.22 119.95,-92.83 98.71,-95.84"/>
<polygon fill="midnightblue" stroke="midnightblue" points="191.57,-86.2 200.98,-81.33 190.59,-79.27 191.57,-86.2"/>
</g>
<!-- Node4 -->
<g id="node4" class="node">
<title>Node4</title>
<g id="a_node4"><a xlink:href="../../d0/dd9/classcflite_1_1eazyaigen_1_1parser_1_1Parser.html#ae842132494a52d538bf11b8f127c9f2a" target="_top" xlink:title=" ">
<polygon fill="none" stroke="black" points="0,-39 0,-69 165,-69 165,-39 0,-39"/>
<text text-anchor="start" x="8" y="-57" font-family="Helvetica,sans-Serif" font-size="10.00">cflite.eazyaigen.parser.</text>
<text text-anchor="middle" x="82.5" y="-46" font-family="Helvetica,sans-Serif" font-size="10.00">Parser.run_with_dummy_input</text>
</a>
</g>
</g>
<!-- Node1&#45;&gt;Node4 -->
<g id="edge3" class="edge">
<title>Node1&#45;&gt;Node4</title>
<path fill="none" stroke="midnightblue" d="M190.89,-69.24C182.68,-68.08 173.93,-66.84 165.12,-65.58"/>
<polygon fill="midnightblue" stroke="midnightblue" points="190.59,-72.73 200.98,-70.67 191.57,-65.8 190.59,-72.73"/>
</g>
<!-- Node5 -->
<g id="node5" class="node">
<title>Node5</title>
<g id="a_node5"><a xlink:href="../../d9/d64/group__cflite-eazyaigen-cvb.html#gae842132494a52d538bf11b8f127c9f2a" target="_top" xlink:title=" ">
<polygon fill="none" stroke="black" points="17,-0.5 17,-19.5 148,-19.5 148,-0.5 17,-0.5"/>
<text text-anchor="middle" x="82.5" y="-7.5" font-family="Helvetica,sans-Serif" font-size="10.00">run_with_dummy_input</text>
</a>
</g>
</g>
<!-- Node1&#45;&gt;Node5 -->
<g id="edge4" class="edge">
<title>Node1&#45;&gt;Node5</title>
<path fill="none" stroke="midnightblue" d="M217.42,-60.27C203.24,-50.34 183.77,-37.93 165,-30 155.07,-25.8 144.07,-22.36 133.45,-19.59"/>
<polygon fill="midnightblue" stroke="midnightblue" points="215.75,-63.37 225.91,-66.36 219.83,-57.69 215.75,-63.37"/>
</g>
</g>
</svg>
