<?xml version="1.0" encoding="UTF-8" standalone="no"?>
<!DOCTYPE svg PUBLIC "-//W3C//DTD SVG 1.1//EN"
 "http://www.w3.org/Graphics/SVG/1.1/DTD/svg11.dtd">
<!-- Generated by graphviz version 2.43.0 (0)
 -->
<!-- Title: generate_commands Pages: 1 -->
<svg width="336pt" height="460pt"
 viewBox="0.00 0.00 336.00 460.00" xmlns="http://www.w3.org/2000/svg" xmlns:xlink="http://www.w3.org/1999/xlink">
<g id="graph0" class="graph" transform="scale(1 1) rotate(0) translate(4 456)">
<title>generate_commands</title>
<!-- Node1 -->
<g id="node1" class="node">
<title>Node1</title>
<g id="a_node1"><a xlink:title=" ">
<polygon fill="#bfbfbf" stroke="black" points="209,-224 209,-243 328,-243 328,-224 209,-224"/>
<text text-anchor="middle" x="268.5" y="-231" font-family="Helvetica,sans-Serif" font-size="10.00">generate_commands</text>
</a>
</g>
</g>
<!-- Node2 -->
<g id="node2" class="node">
<title>Node2</title>
<g id="a_node2"><a xlink:href="../../d5/de0/classcflite_1_1eazyaiinf_1_1dummymode_1_1DummyMode.html#ad22709b2e67308af35f55680d5a026e0" target="_top" xlink:title=" ">
<polygon fill="none" stroke="black" points="6.5,-421.5 6.5,-451.5 166.5,-451.5 166.5,-421.5 6.5,-421.5"/>
<text text-anchor="start" x="14.5" y="-439.5" font-family="Helvetica,sans-Serif" font-size="10.00">cflite.eazyaiinf.dummymode.</text>
<text text-anchor="middle" x="86.5" y="-428.5" font-family="Helvetica,sans-Serif" font-size="10.00">DummyMode.run</text>
</a>
</g>
</g>
<!-- Node1&#45;&gt;Node2 -->
<g id="edge1" class="edge">
<title>Node1&#45;&gt;Node2</title>
<path fill="none" stroke="midnightblue" d="M262.6,-253.45C252.44,-290.51 225.53,-370.08 173,-412.5 168.8,-415.89 164.15,-418.8 159.26,-421.3"/>
<polygon fill="midnightblue" stroke="midnightblue" points="266.08,-253.96 265.22,-243.4 259.31,-252.19 266.08,-253.96"/>
</g>
<!-- Node3 -->
<g id="node3" class="node">
<title>Node3</title>
<g id="a_node3"><a xlink:href="../../dd/d96/classcflite_1_1eazyaiinf_1_1livemode_1_1LiveMode.html#ad22709b2e67308af35f55680d5a026e0" target="_top" xlink:title=" ">
<polygon fill="none" stroke="black" points="16.5,-372.5 16.5,-402.5 156.5,-402.5 156.5,-372.5 16.5,-372.5"/>
<text text-anchor="start" x="24.5" y="-390.5" font-family="Helvetica,sans-Serif" font-size="10.00">cflite.eazyaiinf.livemode.</text>
<text text-anchor="middle" x="86.5" y="-379.5" font-family="Helvetica,sans-Serif" font-size="10.00">LiveMode.run</text>
</a>
</g>
</g>
<!-- Node1&#45;&gt;Node3 -->
<g id="edge2" class="edge">
<title>Node1&#45;&gt;Node3</title>
<path fill="none" stroke="midnightblue" d="M258.67,-252.48C244.58,-280.71 214.3,-333.54 173,-362.5 167.43,-366.41 161.25,-369.71 154.83,-372.5"/>
<polygon fill="midnightblue" stroke="midnightblue" points="261.92,-253.81 263.13,-243.28 255.62,-250.76 261.92,-253.81"/>
</g>
<!-- Node4 -->
<g id="node4" class="node">
<title>Node4</title>
<g id="a_node4"><a xlink:href="../../d9/d70/classcflite_1_1eazyaigen_1_1vas_1_1VAS.html#a707d09914dcf0d1d280d523f4d6d1f8c" target="_top" xlink:title=" ">
<polygon fill="none" stroke="black" points="8.5,-334 8.5,-353 164.5,-353 164.5,-334 8.5,-334"/>
<text text-anchor="middle" x="86.5" y="-341" font-family="Helvetica,sans-Serif" font-size="10.00">cflite.eazyaigen.vas.VAS.run</text>
</a>
</g>
</g>
<!-- Node1&#45;&gt;Node4 -->
<g id="edge3" class="edge">
<title>Node1&#45;&gt;Node4</title>
<path fill="none" stroke="midnightblue" d="M254.15,-251.3C237.5,-272.17 207.07,-306.22 173,-324.5 165.77,-328.38 157.78,-331.47 149.68,-333.93"/>
<polygon fill="midnightblue" stroke="midnightblue" points="257.03,-253.29 260.41,-243.25 251.51,-249 257.03,-253.29"/>
</g>
<!-- Node5 -->
<g id="node5" class="node">
<title>Node5</title>
<g id="a_node5"><a xlink:href="../../d0/dd9/classcflite_1_1eazyaigen_1_1parser_1_1Parser.html#a103d6d5cdd8ecb125a4021b62bd3aff7" target="_top" xlink:title=" ">
<polygon fill="none" stroke="black" points="21,-284.5 21,-314.5 152,-314.5 152,-284.5 21,-284.5"/>
<text text-anchor="start" x="29" y="-302.5" font-family="Helvetica,sans-Serif" font-size="10.00">cflite.eazyaigen.parser.</text>
<text text-anchor="middle" x="86.5" y="-291.5" font-family="Helvetica,sans-Serif" font-size="10.00">Parser.run</text>
</a>
</g>
</g>
<!-- Node1&#45;&gt;Node5 -->
<g id="edge4" class="edge">
<title>Node1&#45;&gt;Node5</title>
<path fill="none" stroke="midnightblue" d="M238.19,-247.35C219.72,-255.79 195.24,-266.46 173,-274.5 163.4,-277.97 153.07,-281.31 143.02,-284.36"/>
<polygon fill="midnightblue" stroke="midnightblue" points="239.9,-250.41 247.52,-243.04 236.97,-244.05 239.9,-250.41"/>
</g>
<!-- Node6 -->
<g id="node6" class="node">
<title>Node6</title>
<g id="a_node6"><a xlink:href="../../da/dcb/group__cflite-eazyaigen-layercompare.html#ga975842bb055e811cbd461e7bb332a89d" target="_top" xlink:title=" ">
<polygon fill="none" stroke="black" points="70.5,-246 70.5,-265 102.5,-265 102.5,-246 70.5,-246"/>
<text text-anchor="middle" x="86.5" y="-253" font-family="Helvetica,sans-Serif" font-size="10.00">run</text>
</a>
</g>
</g>
<!-- Node1&#45;&gt;Node6 -->
<g id="edge5" class="edge">
<title>Node1&#45;&gt;Node6</title>
<path fill="none" stroke="midnightblue" d="M198.33,-241.95C163.25,-246.24 123.72,-251.07 102.64,-253.65"/>
<polygon fill="midnightblue" stroke="midnightblue" points="199.06,-245.39 208.56,-240.7 198.21,-238.44 199.06,-245.39"/>
</g>
<!-- Node7 -->
<g id="node7" class="node">
<title>Node7</title>
<g id="a_node7"><a xlink:href="../../d7/df3/classcflite_1_1eazyaisys_1_1fastvideo_1_1VideoSession.html#ad22709b2e67308af35f55680d5a026e0" target="_top" xlink:title=" ">
<polygon fill="none" stroke="black" points="14,-196.5 14,-226.5 159,-226.5 159,-196.5 14,-196.5"/>
<text text-anchor="start" x="22" y="-214.5" font-family="Helvetica,sans-Serif" font-size="10.00">cflite.eazyaisys.fastvideo.</text>
<text text-anchor="middle" x="86.5" y="-203.5" font-family="Helvetica,sans-Serif" font-size="10.00">VideoSession.run</text>
</a>
</g>
</g>
<!-- Node1&#45;&gt;Node7 -->
<g id="edge6" class="edge">
<title>Node1&#45;&gt;Node7</title>
<path fill="none" stroke="midnightblue" d="M198.4,-225.05C185.53,-223.48 172.07,-221.84 159.13,-220.26"/>
<polygon fill="midnightblue" stroke="midnightblue" points="198.21,-228.56 208.56,-226.3 199.06,-221.61 198.21,-228.56"/>
</g>
<!-- Node8 -->
<g id="node8" class="node">
<title>Node8</title>
<g id="a_node8"><a xlink:href="../../d5/de0/classcflite_1_1eazyaiinf_1_1dummymode_1_1DummyMode.html#a15180f30e49a79272f83ca50ddd3368f" target="_top" xlink:title=" ">
<polygon fill="none" stroke="black" points="6.5,-147.5 6.5,-177.5 166.5,-177.5 166.5,-147.5 6.5,-147.5"/>
<text text-anchor="start" x="14.5" y="-165.5" font-family="Helvetica,sans-Serif" font-size="10.00">cflite.eazyaiinf.dummymode.</text>
<text text-anchor="middle" x="86.5" y="-154.5" font-family="Helvetica,sans-Serif" font-size="10.00">DummyMode.run_non_block</text>
</a>
</g>
</g>
<!-- Node1&#45;&gt;Node8 -->
<g id="edge7" class="edge">
<title>Node1&#45;&gt;Node8</title>
<path fill="none" stroke="midnightblue" d="M241.07,-219.14C222.41,-209.38 196.62,-196.63 173,-187.5 163.77,-183.93 153.81,-180.59 144.06,-177.57"/>
<polygon fill="midnightblue" stroke="midnightblue" points="239.66,-222.36 250.13,-223.94 242.93,-216.17 239.66,-222.36"/>
</g>
<!-- Node9 -->
<g id="node9" class="node">
<title>Node9</title>
<g id="a_node9"><a xlink:href="../../dd/d96/classcflite_1_1eazyaiinf_1_1livemode_1_1LiveMode.html#a15180f30e49a79272f83ca50ddd3368f" target="_top" xlink:title=" ">
<polygon fill="none" stroke="black" points="16.5,-98.5 16.5,-128.5 156.5,-128.5 156.5,-98.5 16.5,-98.5"/>
<text text-anchor="start" x="24.5" y="-116.5" font-family="Helvetica,sans-Serif" font-size="10.00">cflite.eazyaiinf.livemode.</text>
<text text-anchor="middle" x="86.5" y="-105.5" font-family="Helvetica,sans-Serif" font-size="10.00">LiveMode.run_non_block</text>
</a>
</g>
</g>
<!-- Node1&#45;&gt;Node9 -->
<g id="edge8" class="edge">
<title>Node1&#45;&gt;Node9</title>
<path fill="none" stroke="midnightblue" d="M254.36,-215.62C237.74,-194.23 207.12,-158.78 173,-138.5 166.49,-134.63 159.33,-131.32 152.02,-128.51"/>
<polygon fill="midnightblue" stroke="midnightblue" points="251.77,-217.99 260.6,-223.84 257.35,-213.75 251.77,-217.99"/>
</g>
<!-- Node10 -->
<g id="node10" class="node">
<title>Node10</title>
<g id="a_node10"><a xlink:href="../../d0/dd9/classcflite_1_1eazyaigen_1_1parser_1_1Parser.html#ae842132494a52d538bf11b8f127c9f2a" target="_top" xlink:title=" ">
<polygon fill="none" stroke="black" points="4,-49.5 4,-79.5 169,-79.5 169,-49.5 4,-49.5"/>
<text text-anchor="start" x="12" y="-67.5" font-family="Helvetica,sans-Serif" font-size="10.00">cflite.eazyaigen.parser.</text>
<text text-anchor="middle" x="86.5" y="-56.5" font-family="Helvetica,sans-Serif" font-size="10.00">Parser.run_with_dummy_input</text>
</a>
</g>
</g>
<!-- Node1&#45;&gt;Node10 -->
<g id="edge9" class="edge">
<title>Node1&#45;&gt;Node10</title>
<path fill="none" stroke="midnightblue" d="M260.02,-214.09C247.07,-183.07 217.5,-122.44 173,-89.5 167.78,-85.64 161.97,-82.37 155.91,-79.6"/>
<polygon fill="midnightblue" stroke="midnightblue" points="256.92,-215.77 263.91,-223.74 263.42,-213.16 256.92,-215.77"/>
</g>
<!-- Node11 -->
<g id="node11" class="node">
<title>Node11</title>
<g id="a_node11"><a xlink:href="../../db/deb/classcflite_1_1eazyaigen_1_1theoryperf_1_1TheoryPerf.html#a08d517af7fce800ad7b5573cdec5a270" target="_top" xlink:title=" ">
<polygon fill="none" stroke="black" points="0,-0.5 0,-30.5 173,-30.5 173,-0.5 0,-0.5"/>
<text text-anchor="start" x="8" y="-18.5" font-family="Helvetica,sans-Serif" font-size="10.00">cflite.eazyaigen.theoryperf.</text>
<text text-anchor="middle" x="86.5" y="-7.5" font-family="Helvetica,sans-Serif" font-size="10.00">TheoryPerf.set_vas_output_path</text>
</a>
</g>
</g>
<!-- Node1&#45;&gt;Node11 -->
<g id="edge10" class="edge">
<title>Node1&#45;&gt;Node11</title>
<path fill="none" stroke="midnightblue" d="M263.47,-213.95C254.4,-174.99 228.7,-87.41 173,-40.5 168.39,-36.61 163.19,-33.33 157.71,-30.56"/>
<polygon fill="midnightblue" stroke="midnightblue" points="260.06,-214.76 265.63,-223.77 266.9,-213.25 260.06,-214.76"/>
</g>
</g>
</svg>
