<?xml version="1.0" encoding="UTF-8" standalone="no"?>
<!DOCTYPE svg PUBLIC "-//W3C//DTD SVG 1.1//EN"
 "http://www.w3.org/Graphics/SVG/1.1/DTD/svg11.dtd">
<!-- Generated by graphviz version 2.43.0 (0)
 -->
<!-- Title: set_vas_output_path Pages: 1 -->
<!--zoomable 382 -->
<svg id="main" version="1.1" xmlns="http://www.w3.org/2000/svg" xmlns:xlink="http://www.w3.org/1999/xlink" xml:space="preserve" onload="init(evt)">
<style type="text/css"><![CDATA[
.edge:hover path { stroke: red; }
.edge:hover polygon { stroke: red; fill: red; }
]]></style>
<script type="text/javascript"><![CDATA[
var edges = document.getElementsByTagName('g');
if (edges && edges.length) {
  for (var i=0;i<edges.length;i++) {
    if (edges[i].id.substr(0,4)=='edge') {
      edges[i].setAttribute('class','edge');
    }
  }
}
]]></script>
        <defs>
                <circle id="rim" cx="0" cy="0" r="7"/>
                <circle id="rim2" cx="0" cy="0" r="3.5"/>
                <g id="zoomPlus">
                        <use xlink:href="#rim" fill="#404040">
                                <set attributeName="fill" to="#808080" begin="zoomplus.mouseover" end="zoomplus.mouseout"/>
                        </use>
                        <path d="M-4,0h8M0,-4v8" fill="none" stroke="white" stroke-width="1.5" pointer-events="none"/>
                </g>
                <g id="zoomMin">
                        <use xlink:href="#rim" fill="#404040">
                                <set attributeName="fill" to="#808080" begin="zoomminus.mouseover" end="zoomminus.mouseout"/>
                        </use>
                        <path d="M-4,0h8" fill="none" stroke="white" stroke-width="1.5" pointer-events="none"/>
                </g>
                <g id="dirArrow">
                        <path fill="none" stroke="white" stroke-width="1.5" d="M0,-3.0v7 M-2.5,-0.5L0,-3.0L2.5,-0.5"/>
                </g>
               <g id="resetDef">
                       <use xlink:href="#rim2" fill="#404040">
                               <set attributeName="fill" to="#808080" begin="reset.mouseover" end="reset.mouseout"/>
                       </use>
               </g>
        </defs>

<script type="text/javascript">
var viewWidth = 676;
var viewHeight = 382;
var sectionId = 'dynsection-3';
</script>
<script xlink:href="../../svgpan.js"/>
<svg id="graph" class="graph">
<g id="viewport">
<title>set_vas_output_path</title>
<!-- Node1 -->
<g id="node1" class="node">
<title>Node1</title>
<g id="a_node1"><a xlink:title=" ">
<polygon fill="#bfbfbf" stroke="black" points="0,-177 0,-196 118,-196 118,-177 0,-177"/>
<text text-anchor="middle" x="59" y="-184" font-family="Helvetica,sans-Serif" font-size="10.00">set_vas_output_path</text>
</a>
</g>
</g>
<!-- Node2 -->
<g id="node2" class="node">
<title>Node2</title>
<g id="a_node2"><a xlink:href="../../d0/d1d/classcflite_1_1eazyaigen_1_1abstractobj_1_1eazyaigenobject_1_1EazyaiGenObject.html#a56db9b3182d539e18bdaef2aadd5774c" target="_top" xlink:title=" ">
<polygon fill="none" stroke="black" points="154,-343.5 154,-373.5 393,-373.5 393,-343.5 154,-343.5"/>
<text text-anchor="start" x="162" y="-361.5" font-family="Helvetica,sans-Serif" font-size="10.00">cflite.eazyaigen.abstractobj.eazyaigenobject.</text>
<text text-anchor="middle" x="273.5" y="-350.5" font-family="Helvetica,sans-Serif" font-size="10.00">EazyaiGenObject.execute_cmd</text>
</a>
</g>
</g>
<!-- Node1&#45;&gt;Node2 -->
<g id="edge1" class="edge">
<title>Node1&#45;&gt;Node2</title>
<path fill="none" stroke="midnightblue" d="M63.17,-196.37C72.38,-223.34 101.83,-298.63 154,-334.5 156.19,-336.01 158.46,-337.43 160.79,-338.76"/>
<polygon fill="midnightblue" stroke="midnightblue" points="159.55,-342.06 170.05,-343.49 162.74,-335.82 159.55,-342.06"/>
</g>
<!-- Node4 -->
<g id="node4" class="node">
<title>Node4</title>
<g id="a_node4"><a xlink:href="../../d0/dd9/classcflite_1_1eazyaigen_1_1parser_1_1Parser.html#aecc2a0e370fa9e93a1efcbeb644a5c63" target="_top" xlink:title=" ">
<polygon fill="none" stroke="black" points="197,-294.5 197,-324.5 350,-324.5 350,-294.5 197,-294.5"/>
<text text-anchor="start" x="205" y="-312.5" font-family="Helvetica,sans-Serif" font-size="10.00">cflite.eazyaigen.parser.</text>
<text text-anchor="middle" x="273.5" y="-301.5" font-family="Helvetica,sans-Serif" font-size="10.00">Parser.generate_commands</text>
</a>
</g>
</g>
<!-- Node1&#45;&gt;Node4 -->
<g id="edge3" class="edge">
<title>Node1&#45;&gt;Node4</title>
<path fill="none" stroke="midnightblue" d="M66.17,-196.25C79.51,-216.45 113.15,-262.89 154,-285.5 164.19,-291.14 175.52,-295.46 187.03,-298.77"/>
<polygon fill="midnightblue" stroke="midnightblue" points="186.16,-302.16 196.72,-301.32 187.94,-295.39 186.16,-302.16"/>
</g>
<!-- Node5 -->
<g id="node5" class="node">
<title>Node5</title>
<g id="a_node5"><a xlink:href="../../d9/d70/classcflite_1_1eazyaigen_1_1vas_1_1VAS.html#a2485ece2a10f3abe8d6465cb2c0cc41f" target="_top" xlink:title=" ">
<polygon fill="none" stroke="black" points="181.5,-245.5 181.5,-275.5 365.5,-275.5 365.5,-245.5 181.5,-245.5"/>
<text text-anchor="start" x="189.5" y="-263.5" font-family="Helvetica,sans-Serif" font-size="10.00">cflite.eazyaigen.vas.VAS.generate</text>
<text text-anchor="middle" x="273.5" y="-252.5" font-family="Helvetica,sans-Serif" font-size="10.00">_commands</text>
</a>
</g>
</g>
<!-- Node1&#45;&gt;Node5 -->
<g id="edge4" class="edge">
<title>Node1&#45;&gt;Node5</title>
<path fill="none" stroke="midnightblue" d="M74.68,-196.05C92.67,-207.32 124.42,-225.89 154,-236.5 160.37,-238.79 167.02,-240.88 173.77,-242.78"/>
<polygon fill="midnightblue" stroke="midnightblue" points="173.15,-246.24 183.72,-245.45 174.97,-239.48 173.15,-246.24"/>
</g>
<!-- Node6 -->
<g id="node6" class="node">
<title>Node6</title>
<g id="a_node6"><a xlink:href="../../d0/d1d/classcflite_1_1eazyaigen_1_1abstractobj_1_1eazyaigenobject_1_1EazyaiGenObject.html#a47fdd2bfe648c82ddfa9754ff16f46b1" target="_top" xlink:title=" ">
<polygon fill="none" stroke="black" points="154,-196.5 154,-226.5 393,-226.5 393,-196.5 154,-196.5"/>
<text text-anchor="start" x="162" y="-214.5" font-family="Helvetica,sans-Serif" font-size="10.00">cflite.eazyaigen.abstractobj.eazyaigenobject.</text>
<text text-anchor="middle" x="273.5" y="-203.5" font-family="Helvetica,sans-Serif" font-size="10.00">EazyaiGenObject.generate_commands</text>
</a>
</g>
</g>
<!-- Node1&#45;&gt;Node6 -->
<g id="edge5" class="edge">
<title>Node1&#45;&gt;Node6</title>
<path fill="none" stroke="midnightblue" d="M118.07,-193.33C126.19,-194.29 134.79,-195.3 143.61,-196.34"/>
<polygon fill="midnightblue" stroke="midnightblue" points="143.31,-199.83 153.65,-197.52 144.13,-192.87 143.31,-199.83"/>
</g>
<!-- Node7 -->
<g id="node7" class="node">
<title>Node7</title>
<g id="a_node7"><a xlink:href="../../da/dcb/group__cflite-eazyaigen-layercompare.html#ga0a5cd0403a07084fbe0aecb42852b46e" target="_top" xlink:title=" ">
<polygon fill="none" stroke="black" points="176.5,-147.5 176.5,-177.5 370.5,-177.5 370.5,-147.5 176.5,-147.5"/>
<text text-anchor="start" x="184.5" y="-165.5" font-family="Helvetica,sans-Serif" font-size="10.00">cflite.eazyaigen.layercompare.</text>
<text text-anchor="middle" x="273.5" y="-154.5" font-family="Helvetica,sans-Serif" font-size="10.00">LayerCompare.generate_commands</text>
</a>
</g>
</g>
<!-- Node1&#45;&gt;Node7 -->
<g id="edge6" class="edge">
<title>Node1&#45;&gt;Node7</title>
<path fill="none" stroke="midnightblue" d="M118.07,-179.94C133.03,-178.25 149.6,-176.38 166.18,-174.51"/>
<polygon fill="midnightblue" stroke="midnightblue" points="166.94,-177.94 176.49,-173.34 166.16,-170.99 166.94,-177.94"/>
</g>
<!-- Node8 -->
<g id="node8" class="node">
<title>Node8</title>
<g id="a_node8"><a xlink:href="../../d8/d8d/group__cflite-eazyaigen-cavalry.html#ga40181f1a480d2c8687ed85a81dcd08e6" target="_top" xlink:title=" ">
<polygon fill="none" stroke="black" points="184,-98.5 184,-128.5 363,-128.5 363,-98.5 184,-98.5"/>
<text text-anchor="start" x="192" y="-116.5" font-family="Helvetica,sans-Serif" font-size="10.00">cflite.eazyaigen.cavalrygen.</text>
<text text-anchor="middle" x="273.5" y="-105.5" font-family="Helvetica,sans-Serif" font-size="10.00">CavalryGen.generate_commands</text>
</a>
</g>
</g>
<!-- Node1&#45;&gt;Node8 -->
<g id="edge7" class="edge">
<title>Node1&#45;&gt;Node8</title>
<path fill="none" stroke="midnightblue" d="M75.72,-176.83C93.94,-166.02 125.15,-148.71 154,-138.5 161.61,-135.81 169.6,-133.36 177.69,-131.15"/>
<polygon fill="midnightblue" stroke="midnightblue" points="178.8,-134.47 187.59,-128.56 177.03,-127.7 178.8,-134.47"/>
</g>
<!-- Node9 -->
<g id="node9" class="node">
<title>Node9</title>
<g id="a_node9"><a xlink:href="../../d9/d64/group__cflite-eazyaigen-cvb.html#gaecc2a0e370fa9e93a1efcbeb644a5c63" target="_top" xlink:title=" ">
<polygon fill="none" stroke="black" points="173.5,-49.5 173.5,-79.5 373.5,-79.5 373.5,-49.5 173.5,-49.5"/>
<text text-anchor="start" x="181.5" y="-67.5" font-family="Helvetica,sans-Serif" font-size="10.00">cflite.eazyaigen.cvbackend.</text>
<text text-anchor="middle" x="273.5" y="-56.5" font-family="Helvetica,sans-Serif" font-size="10.00">CVFlowBackend.generate_commands</text>
</a>
</g>
</g>
<!-- Node1&#45;&gt;Node9 -->
<g id="edge8" class="edge">
<title>Node1&#45;&gt;Node9</title>
<path fill="none" stroke="midnightblue" d="M66.23,-176.98C79.69,-157.23 113.56,-111.83 154,-89.5 158.21,-87.18 162.61,-85.07 167.13,-83.16"/>
<polygon fill="midnightblue" stroke="midnightblue" points="168.52,-86.37 176.58,-79.5 165.99,-79.85 168.52,-86.37"/>
</g>
<!-- Node11 -->
<g id="node11" class="node">
<title>Node11</title>
<g id="a_node11"><a xlink:href="../../dc/dcb/group__cflite-eazyaigen-dataprepare.html#ga47fdd2bfe648c82ddfa9754ff16f46b1" target="_top" xlink:title=" ">
<polygon fill="none" stroke="black" points="182,-0.5 182,-30.5 365,-30.5 365,-0.5 182,-0.5"/>
<text text-anchor="start" x="190" y="-18.5" font-family="Helvetica,sans-Serif" font-size="10.00">cflite.eazyaigen.dataprepare.</text>
<text text-anchor="middle" x="273.5" y="-7.5" font-family="Helvetica,sans-Serif" font-size="10.00">DataPrepare.generate_commands</text>
</a>
</g>
</g>
<!-- Node1&#45;&gt;Node11 -->
<g id="edge10" class="edge">
<title>Node1&#45;&gt;Node11</title>
<path fill="none" stroke="midnightblue" d="M63.23,-176.78C72.58,-150.22 102.37,-76.08 154,-40.5 159.64,-36.61 165.77,-33.31 172.16,-30.51"/>
<polygon fill="midnightblue" stroke="midnightblue" points="173.68,-33.67 181.7,-26.74 171.11,-27.16 173.68,-33.67"/>
</g>
<!-- Node3 -->
<g id="node3" class="node">
<title>Node3</title>
<g id="a_node3"><a xlink:href="../../d0/d1d/classcflite_1_1eazyaigen_1_1abstractobj_1_1eazyaigenobject_1_1EazyaiGenObject.html#a82c36c205d82f157d70c39e5a3b6c7ce" target="_top" xlink:title=" ">
<polygon fill="none" stroke="black" points="429,-343.5 429,-373.5 668,-373.5 668,-343.5 429,-343.5"/>
<text text-anchor="start" x="437" y="-361.5" font-family="Helvetica,sans-Serif" font-size="10.00">cflite.eazyaigen.abstractobj.eazyaigenobject.</text>
<text text-anchor="middle" x="548.5" y="-350.5" font-family="Helvetica,sans-Serif" font-size="10.00">EazyaiGenObject.start_subprocess</text>
</a>
</g>
</g>
<!-- Node2&#45;&gt;Node3 -->
<g id="edge2" class="edge">
<title>Node2&#45;&gt;Node3</title>
<path fill="none" stroke="midnightblue" d="M393.05,-358.5C401.44,-358.5 409.92,-358.5 418.36,-358.5"/>
<polygon fill="midnightblue" stroke="midnightblue" points="418.63,-362 428.63,-358.5 418.63,-355 418.63,-362"/>
</g>
<!-- Node10 -->
<g id="node10" class="node">
<title>Node10</title>
<g id="a_node10"><a xlink:href="../../d9/d64/group__cflite-eazyaigen-cvb.html#ga54e206c25e6db7808a1ffd4991267283" target="_top" xlink:title=" ">
<polygon fill="none" stroke="black" points="446,-49.5 446,-79.5 651,-79.5 651,-49.5 446,-49.5"/>
<text text-anchor="start" x="454" y="-67.5" font-family="Helvetica,sans-Serif" font-size="10.00">cflite.eazyaigen.cvbackend.</text>
<text text-anchor="middle" x="548.5" y="-56.5" font-family="Helvetica,sans-Serif" font-size="10.00">CVFlowBackend.generate_meta_graph</text>
</a>
</g>
</g>
<!-- Node9&#45;&gt;Node10 -->
<g id="edge9" class="edge">
<title>Node9&#45;&gt;Node10</title>
<path fill="none" stroke="midnightblue" d="M373.83,-64.5C394.01,-64.5 415.36,-64.5 435.93,-64.5"/>
<polygon fill="midnightblue" stroke="midnightblue" points="435.95,-68 445.95,-64.5 435.95,-61 435.95,-68"/>
</g>
</g>
</svg>
        <g id="navigator" transform="translate(0 0)" fill="#404254">
                <rect fill="#f2f5e9" fill-opacity="0.5" stroke="#606060" stroke-width=".5" x="0" y="0" width="60" height="60"/>
                <use id="zoomplus" xlink:href="#zoomPlus" x="17" y="9" onmousedown="handleZoom(evt,'in')"/>
                <use id="zoomminus" xlink:href="#zoomMin" x="42" y="9" onmousedown="handleZoom(evt,'out')"/>
                <use id="reset" xlink:href="#resetDef" x="30" y="36" onmousedown="handleReset()"/>
                <g id="arrowUp" xlink:href="#dirArrow" transform="translate(30 24)" onmousedown="handlePan(0,-1)">
                  <use xlink:href="#rim" fill="#404040">
                        <set attributeName="fill" to="#808080" begin="arrowUp.mouseover" end="arrowUp.mouseout"/>
                  </use>
                  <path fill="none" stroke="white" stroke-width="1.5" d="M0,-3.0v7 M-2.5,-0.5L0,-3.0L2.5,-0.5"/>
                </g>
                <g id="arrowRight" xlink:href="#dirArrow" transform="rotate(90) translate(36 -43)" onmousedown="handlePan(1,0)">
                  <use xlink:href="#rim" fill="#404040">
                        <set attributeName="fill" to="#808080" begin="arrowRight.mouseover" end="arrowRight.mouseout"/>
                  </use>
                  <path fill="none" stroke="white" stroke-width="1.5" d="M0,-3.0v7 M-2.5,-0.5L0,-3.0L2.5,-0.5"/>
                </g>
                <g id="arrowDown" xlink:href="#dirArrow" transform="rotate(180) translate(-30 -48)" onmousedown="handlePan(0,1)">
                  <use xlink:href="#rim" fill="#404040">
                        <set attributeName="fill" to="#808080" begin="arrowDown.mouseover" end="arrowDown.mouseout"/>
                  </use>
                  <path fill="none" stroke="white" stroke-width="1.5" d="M0,-3.0v7 M-2.5,-0.5L0,-3.0L2.5,-0.5"/>
                </g>
                <g id="arrowLeft" xlink:href="#dirArrow" transform="rotate(270) translate(-36 17)" onmousedown="handlePan(-1,0)">
                  <use xlink:href="#rim" fill="#404040">
                        <set attributeName="fill" to="#808080" begin="arrowLeft.mouseover" end="arrowLeft.mouseout"/>
                  </use>
                  <path fill="none" stroke="white" stroke-width="1.5" d="M0,-3.0v7 M-2.5,-0.5L0,-3.0L2.5,-0.5"/>
                </g>
        </g>
        <svg viewBox="0 0 15 15" width="100%" height="30px" preserveAspectRatio="xMaxYMin meet">
         <g id="arrow_out" transform="scale(0.3 0.3)">
          <a xlink:href="classcflite_1_1eazyaigen_1_1theoryperf_1_1TheoryPerf_a08d517af7fce800ad7b5573cdec5a270_cgraph_org.svg" target="_base">
           <rect id="button" ry="5" rx="5" y="6" x="6" height="38" width="38"
                fill="#f2f5e9" fill-opacity="0.5" stroke="#606060" stroke-width="1.0"/>
           <path id="arrow"
             d="M 11.500037,31.436501 C 11.940474,20.09759 22.043105,11.32322 32.158766,21.979434 L 37.068811,17.246167 C 37.068811,17.246167 37.088388,32 37.088388,32 L 22.160133,31.978069 C 22.160133,31.978069 26.997745,27.140456 26.997745,27.140456 C 18.528582,18.264221 13.291696,25.230495 11.500037,31.436501 z"
             style="fill:#404040;"/>
          </a>
         </g>
        </svg>
</svg>
