<?xml version="1.0" encoding="UTF-8" standalone="no"?>
<!DOCTYPE svg PUBLIC "-//W3C//DTD SVG 1.1//EN"
 "http://www.w3.org/Graphics/SVG/1.1/DTD/svg11.dtd">
<!-- Generated by graphviz version 2.43.0 (0)
 -->
<!-- Title: EazyaiParserObject Pages: 1 -->
<svg width="356pt" height="799pt"
 viewBox="0.00 0.00 355.50 799.00" xmlns="http://www.w3.org/2000/svg" xmlns:xlink="http://www.w3.org/1999/xlink">
<g id="graph0" class="graph" transform="scale(1 1) rotate(0) translate(4 795)">
<title>EazyaiParserObject</title>
<!-- Node1 -->
<g id="node1" class="node">
<title>Node1</title>
<g id="a_node1"><a xlink:title=" ">
<polygon fill="#bfbfbf" stroke="black" points="97,-292.5 97,-525.5 264,-525.5 264,-292.5 97,-292.5"/>
<text text-anchor="middle" x="180.5" y="-513.5" font-family="Helvetica,sans-Serif" font-size="10.00">EazyaiParserObject</text>
<polyline fill="none" stroke="black" points="97,-506.5 264,-506.5 "/>
<text text-anchor="start" x="105" y="-494.5" font-family="Helvetica,sans-Serif" font-size="10.00">+ model_path</text>
<text text-anchor="start" x="105" y="-483.5" font-family="Helvetica,sans-Serif" font-size="10.00">+ caffe_prototxt_model_path</text>
<text text-anchor="start" x="105" y="-472.5" font-family="Helvetica,sans-Serif" font-size="10.00">+ model_name</text>
<text text-anchor="start" x="105" y="-461.5" font-family="Helvetica,sans-Serif" font-size="10.00">+ output_path</text>
<text text-anchor="start" x="105" y="-450.5" font-family="Helvetica,sans-Serif" font-size="10.00">+ sideband</text>
<text text-anchor="start" x="105" y="-439.5" font-family="Helvetica,sans-Serif" font-size="10.00">+ extra_option</text>
<polyline fill="none" stroke="black" points="97,-432.5 264,-432.5 "/>
<text text-anchor="start" x="105" y="-420.5" font-family="Helvetica,sans-Serif" font-size="10.00">+ set_model()</text>
<text text-anchor="start" x="105" y="-409.5" font-family="Helvetica,sans-Serif" font-size="10.00">+ set_model_path()</text>
<text text-anchor="start" x="105" y="-398.5" font-family="Helvetica,sans-Serif" font-size="10.00">+ set_caffe_prototxt</text>
<text text-anchor="start" x="105" y="-387.5" font-family="Helvetica,sans-Serif" font-size="10.00">_model_path()</text>
<text text-anchor="start" x="105" y="-376.5" font-family="Helvetica,sans-Serif" font-size="10.00">+ set_model_name()</text>
<text text-anchor="start" x="105" y="-365.5" font-family="Helvetica,sans-Serif" font-size="10.00">+ set_output_path()</text>
<text text-anchor="start" x="105" y="-354.5" font-family="Helvetica,sans-Serif" font-size="10.00">+ set_sideband()</text>
<text text-anchor="start" x="105" y="-343.5" font-family="Helvetica,sans-Serif" font-size="10.00">+ set_extra_option()</text>
<text text-anchor="start" x="105" y="-332.5" font-family="Helvetica,sans-Serif" font-size="10.00">+ set_customer_node_parser()</text>
<text text-anchor="start" x="105" y="-321.5" font-family="Helvetica,sans-Serif" font-size="10.00">+ set_customer_node_dll()</text>
<text text-anchor="start" x="105" y="-310.5" font-family="Helvetica,sans-Serif" font-size="10.00">+ set_input_node_params()</text>
<text text-anchor="start" x="105" y="-299.5" font-family="Helvetica,sans-Serif" font-size="10.00">+ set_output_node_params()</text>
</a>
</g>
</g>
<!-- Node5 -->
<g id="node5" class="node">
<title>Node5</title>
<g id="a_node5"><a xlink:href="../../d5/d76/classcflite_1_1eazyaigen_1_1cvbackend_1_1CVFlowBackend.html" target="_top" xlink:title=" ">
<polygon fill="none" stroke="black" points="0,-0.5 0,-255.5 179,-255.5 179,-0.5 0,-0.5"/>
<text text-anchor="middle" x="89.5" y="-243.5" font-family="Helvetica,sans-Serif" font-size="10.00">CVFlowBackend</text>
<polyline fill="none" stroke="black" points="0,-236.5 179,-236.5 "/>
<text text-anchor="start" x="8" y="-224.5" font-family="Helvetica,sans-Serif" font-size="10.00">+ logger</text>
<text text-anchor="start" x="8" y="-213.5" font-family="Helvetica,sans-Serif" font-size="10.00">+ parser_output_path</text>
<text text-anchor="start" x="8" y="-202.5" font-family="Helvetica,sans-Serif" font-size="10.00">+ parser_json_file</text>
<text text-anchor="start" x="8" y="-191.5" font-family="Helvetica,sans-Serif" font-size="10.00">+ ambapb_file_path</text>
<text text-anchor="start" x="8" y="-180.5" font-family="Helvetica,sans-Serif" font-size="10.00">+ vas_option</text>
<text text-anchor="start" x="8" y="-169.5" font-family="Helvetica,sans-Serif" font-size="10.00">+ vas_output_path</text>
<text text-anchor="start" x="8" y="-158.5" font-family="Helvetica,sans-Serif" font-size="10.00">+ prepare_output_path</text>
<text text-anchor="start" x="8" y="-147.5" font-family="Helvetica,sans-Serif" font-size="10.00">+ parse_output_path</text>
<text text-anchor="start" x="8" y="-136.5" font-family="Helvetica,sans-Serif" font-size="10.00">+ network_metagraph_json_path</text>
<text text-anchor="start" x="8" y="-125.5" font-family="Helvetica,sans-Serif" font-size="10.00">+ model_name</text>
<text text-anchor="start" x="8" y="-114.5" font-family="Helvetica,sans-Serif" font-size="10.00">+ output_path</text>
<polyline fill="none" stroke="black" points="0,-107.5 179,-107.5 "/>
<text text-anchor="start" x="8" y="-95.5" font-family="Helvetica,sans-Serif" font-size="10.00">+ __init__()</text>
<text text-anchor="start" x="8" y="-84.5" font-family="Helvetica,sans-Serif" font-size="10.00">+ set_input_node_params()</text>
<text text-anchor="start" x="8" y="-73.5" font-family="Helvetica,sans-Serif" font-size="10.00">+ set_output_node_params()</text>
<text text-anchor="start" x="8" y="-62.5" font-family="Helvetica,sans-Serif" font-size="10.00">+ generate_meta_graph()</text>
<text text-anchor="start" x="8" y="-51.5" font-family="Helvetica,sans-Serif" font-size="10.00">+ generate_commands()</text>
<text text-anchor="start" x="8" y="-40.5" font-family="Helvetica,sans-Serif" font-size="10.00">+ get_output_path()</text>
<text text-anchor="start" x="8" y="-29.5" font-family="Helvetica,sans-Serif" font-size="10.00">+ get_cvt_info()</text>
<text text-anchor="start" x="8" y="-18.5" font-family="Helvetica,sans-Serif" font-size="10.00">+ run()</text>
<text text-anchor="start" x="8" y="-7.5" font-family="Helvetica,sans-Serif" font-size="10.00">+ run_with_dummy_input()</text>
</a>
</g>
</g>
<!-- Node1&#45;&gt;Node5 -->
<g id="edge4" class="edge">
<title>Node1&#45;&gt;Node5</title>
<path fill="none" stroke="midnightblue" d="M139.57,-282.51C136.68,-273.64 133.76,-264.7 130.86,-255.82"/>
<polygon fill="none" stroke="midnightblue" points="136.27,-283.68 142.7,-292.1 142.92,-281.51 136.27,-283.68"/>
</g>
<!-- Node6 -->
<g id="node6" class="node">
<title>Node6</title>
<g id="a_node6"><a xlink:href="../../d0/dd9/classcflite_1_1eazyaigen_1_1parser_1_1Parser.html" target="_top" xlink:title=" ">
<polygon fill="none" stroke="black" points="197.5,-72 197.5,-184 347.5,-184 347.5,-72 197.5,-72"/>
<text text-anchor="middle" x="272.5" y="-172" font-family="Helvetica,sans-Serif" font-size="10.00">Parser</text>
<polyline fill="none" stroke="black" points="197.5,-165 347.5,-165 "/>
<text text-anchor="start" x="205.5" y="-153" font-family="Helvetica,sans-Serif" font-size="10.00">+ model_name</text>
<text text-anchor="start" x="205.5" y="-142" font-family="Helvetica,sans-Serif" font-size="10.00">+ output_path</text>
<text text-anchor="start" x="205.5" y="-131" font-family="Helvetica,sans-Serif" font-size="10.00">+ parser_json_file</text>
<polyline fill="none" stroke="black" points="197.5,-124 347.5,-124 "/>
<text text-anchor="start" x="205.5" y="-112" font-family="Helvetica,sans-Serif" font-size="10.00">+ check_params()</text>
<text text-anchor="start" x="205.5" y="-101" font-family="Helvetica,sans-Serif" font-size="10.00">+ generate_commands()</text>
<text text-anchor="start" x="205.5" y="-90" font-family="Helvetica,sans-Serif" font-size="10.00">+ run()</text>
<text text-anchor="start" x="205.5" y="-79" font-family="Helvetica,sans-Serif" font-size="10.00">+ run_with_dummy_input()</text>
</a>
</g>
</g>
<!-- Node1&#45;&gt;Node6 -->
<g id="edge5" class="edge">
<title>Node1&#45;&gt;Node6</title>
<path fill="none" stroke="midnightblue" d="M221.91,-282.41C233.29,-247.9 245.05,-212.25 254.36,-184.01"/>
<polygon fill="none" stroke="midnightblue" points="218.52,-281.51 218.72,-292.1 225.17,-283.7 218.52,-281.51"/>
</g>
<!-- Node2 -->
<g id="node2" class="node">
<title>Node2</title>
<g id="a_node2"><a xlink:href="../../d0/d1d/classcflite_1_1eazyaigen_1_1abstractobj_1_1eazyaigenobject_1_1EazyaiGenObject.html" target="_top" xlink:title=" ">
<polygon fill="none" stroke="black" points="111.5,-562.5 111.5,-696.5 249.5,-696.5 249.5,-562.5 111.5,-562.5"/>
<text text-anchor="middle" x="180.5" y="-684.5" font-family="Helvetica,sans-Serif" font-size="10.00">EazyaiGenObject</text>
<polyline fill="none" stroke="black" points="111.5,-677.5 249.5,-677.5 "/>
<text text-anchor="start" x="119.5" y="-665.5" font-family="Helvetica,sans-Serif" font-size="10.00">+ env_info</text>
<text text-anchor="start" x="119.5" y="-654.5" font-family="Helvetica,sans-Serif" font-size="10.00">+ log_level</text>
<polyline fill="none" stroke="black" points="111.5,-647.5 249.5,-647.5 "/>
<text text-anchor="start" x="119.5" y="-635.5" font-family="Helvetica,sans-Serif" font-size="10.00">+ __init__()</text>
<text text-anchor="start" x="119.5" y="-624.5" font-family="Helvetica,sans-Serif" font-size="10.00">+ set_env_path()</text>
<text text-anchor="start" x="119.5" y="-613.5" font-family="Helvetica,sans-Serif" font-size="10.00">+ set_work_dir()</text>
<text text-anchor="start" x="119.5" y="-602.5" font-family="Helvetica,sans-Serif" font-size="10.00">+ start_subprocess()</text>
<text text-anchor="start" x="119.5" y="-591.5" font-family="Helvetica,sans-Serif" font-size="10.00">+ execute_cmd()</text>
<text text-anchor="start" x="119.5" y="-580.5" font-family="Helvetica,sans-Serif" font-size="10.00">+ generate_commands()</text>
<text text-anchor="start" x="119.5" y="-569.5" font-family="Helvetica,sans-Serif" font-size="10.00">+ run()</text>
</a>
</g>
</g>
<!-- Node2&#45;&gt;Node1 -->
<g id="edge1" class="edge">
<title>Node2&#45;&gt;Node1</title>
<path fill="none" stroke="midnightblue" d="M180.5,-552.32C180.5,-543.65 180.5,-534.67 180.5,-525.63"/>
<polygon fill="none" stroke="midnightblue" points="177,-552.35 180.5,-562.35 184,-552.35 177,-552.35"/>
</g>
<!-- Node3 -->
<g id="node3" class="node">
<title>Node3</title>
<g id="a_node3"><a xlink:title=" ">
<polygon fill="none" stroke="#bfbfbf" points="106,-733.5 106,-790.5 173,-790.5 173,-733.5 106,-733.5"/>
<text text-anchor="middle" x="139.5" y="-778.5" font-family="Helvetica,sans-Serif" font-size="10.00">metaclass</text>
<polyline fill="none" stroke="#bfbfbf" points="106,-771.5 173,-771.5 "/>
<text text-anchor="middle" x="139.5" y="-759.5" font-family="Helvetica,sans-Serif" font-size="10.00"> </text>
<polyline fill="none" stroke="#bfbfbf" points="106,-752.5 173,-752.5 "/>
<text text-anchor="middle" x="139.5" y="-740.5" font-family="Helvetica,sans-Serif" font-size="10.00"> </text>
</a>
</g>
</g>
<!-- Node3&#45;&gt;Node2 -->
<g id="edge2" class="edge">
<title>Node3&#45;&gt;Node2</title>
<path fill="none" stroke="midnightblue" d="M151.21,-723.72C153.89,-715.19 156.82,-705.87 159.75,-696.53"/>
<polygon fill="none" stroke="midnightblue" points="147.85,-722.73 148.2,-733.32 154.53,-724.83 147.85,-722.73"/>
</g>
<!-- Node4 -->
<g id="node4" class="node">
<title>Node4</title>
<g id="a_node4"><a xlink:title=" ">
<polygon fill="none" stroke="#bfbfbf" points="191.5,-733.5 191.5,-790.5 253.5,-790.5 253.5,-733.5 191.5,-733.5"/>
<text text-anchor="middle" x="222.5" y="-778.5" font-family="Helvetica,sans-Serif" font-size="10.00">ABCMeta</text>
<polyline fill="none" stroke="#bfbfbf" points="191.5,-771.5 253.5,-771.5 "/>
<text text-anchor="middle" x="222.5" y="-759.5" font-family="Helvetica,sans-Serif" font-size="10.00"> </text>
<polyline fill="none" stroke="#bfbfbf" points="191.5,-752.5 253.5,-752.5 "/>
<text text-anchor="middle" x="222.5" y="-740.5" font-family="Helvetica,sans-Serif" font-size="10.00"> </text>
</a>
</g>
</g>
<!-- Node4&#45;&gt;Node2 -->
<g id="edge3" class="edge">
<title>Node4&#45;&gt;Node2</title>
<path fill="none" stroke="midnightblue" d="M210.5,-723.72C207.76,-715.19 204.76,-705.87 201.75,-696.53"/>
<polygon fill="none" stroke="midnightblue" points="207.2,-724.88 213.59,-733.32 213.86,-722.73 207.2,-724.88"/>
</g>
</g>
</svg>
