<?xml version="1.0" encoding="UTF-8" standalone="no"?>
<!DOCTYPE svg PUBLIC "-//W3C//DTD SVG 1.1//EN"
 "http://www.w3.org/Graphics/SVG/1.1/DTD/svg11.dtd">
<!-- Generated by graphviz version 2.43.0 (0)
 -->
<!-- Title: generate_evk_model_path Pages: 1 -->
<svg width="490pt" height="215pt"
 viewBox="0.00 0.00 490.00 214.50" xmlns="http://www.w3.org/2000/svg" xmlns:xlink="http://www.w3.org/1999/xlink">
<g id="graph0" class="graph" transform="scale(1 1) rotate(0) translate(4 210.5)">
<title>generate_evk_model_path</title>
<!-- Node1 -->
<g id="node1" class="node">
<title>Node1</title>
<g id="a_node1"><a xlink:title=" ">
<polygon fill="#bfbfbf" stroke="black" points="336,-94 336,-113 482,-113 482,-94 336,-94"/>
<text text-anchor="middle" x="409" y="-101" font-family="Helvetica,sans-Serif" font-size="10.00">generate_evk_model_path</text>
</a>
</g>
</g>
<!-- Node2 -->
<g id="node2" class="node">
<title>Node2</title>
<g id="a_node2"><a xlink:href="../../d5/de0/classcflite_1_1eazyaiinf_1_1dummymode_1_1DummyMode.html#a9540d7e9292b95bb55375d902324bd1a" target="_top" xlink:title=" ">
<polygon fill="none" stroke="black" points="181,-94 181,-113 300,-113 300,-94 181,-94"/>
<text text-anchor="middle" x="240.5" y="-101" font-family="Helvetica,sans-Serif" font-size="10.00">generate_commands</text>
</a>
</g>
</g>
<!-- Node1&#45;&gt;Node2 -->
<g id="edge1" class="edge">
<title>Node1&#45;&gt;Node2</title>
<path fill="none" stroke="midnightblue" d="M325.8,-103.5C317.14,-103.5 308.47,-103.5 300.15,-103.5"/>
<polygon fill="midnightblue" stroke="midnightblue" points="325.94,-107 335.94,-103.5 325.94,-100 325.94,-107"/>
</g>
<!-- Node3 -->
<g id="node3" class="node">
<title>Node3</title>
<g id="a_node3"><a xlink:href="../../d5/de0/classcflite_1_1eazyaiinf_1_1dummymode_1_1DummyMode.html#ad22709b2e67308af35f55680d5a026e0" target="_top" xlink:title=" ">
<polygon fill="none" stroke="black" points="56.5,-187 56.5,-206 88.5,-206 88.5,-187 56.5,-187"/>
<text text-anchor="middle" x="72.5" y="-194" font-family="Helvetica,sans-Serif" font-size="10.00">run</text>
</a>
</g>
</g>
<!-- Node2&#45;&gt;Node3 -->
<g id="edge2" class="edge">
<title>Node2&#45;&gt;Node3</title>
<path fill="none" stroke="midnightblue" d="M222.62,-120.24C204.78,-137.04 175.09,-162.52 145,-177.5 126.72,-186.6 103.57,-191.73 88.64,-194.3"/>
<polygon fill="midnightblue" stroke="midnightblue" points="225.16,-122.65 229.95,-113.2 220.31,-117.6 225.16,-122.65"/>
</g>
<!-- Node4 -->
<g id="node4" class="node">
<title>Node4</title>
<g id="a_node4"><a xlink:href="../../dd/d96/classcflite_1_1eazyaiinf_1_1livemode_1_1LiveMode.html#ad22709b2e67308af35f55680d5a026e0" target="_top" xlink:title=" ">
<polygon fill="none" stroke="black" points="2.5,-137.5 2.5,-167.5 142.5,-167.5 142.5,-137.5 2.5,-137.5"/>
<text text-anchor="start" x="10.5" y="-155.5" font-family="Helvetica,sans-Serif" font-size="10.00">cflite.eazyaiinf.livemode.</text>
<text text-anchor="middle" x="72.5" y="-144.5" font-family="Helvetica,sans-Serif" font-size="10.00">LiveMode.run</text>
</a>
</g>
</g>
<!-- Node2&#45;&gt;Node4 -->
<g id="edge3" class="edge">
<title>Node2&#45;&gt;Node4</title>
<path fill="none" stroke="midnightblue" d="M197.31,-115.95C175.14,-122.5 147.79,-130.57 124.44,-137.46"/>
<polygon fill="midnightblue" stroke="midnightblue" points="198.5,-119.25 207.1,-113.06 196.52,-112.54 198.5,-119.25"/>
</g>
<!-- Node5 -->
<g id="node5" class="node">
<title>Node5</title>
<g id="a_node5"><a xlink:href="../../d7/df3/classcflite_1_1eazyaisys_1_1fastvideo_1_1VideoSession.html#ad22709b2e67308af35f55680d5a026e0" target="_top" xlink:title=" ">
<polygon fill="none" stroke="black" points="0,-88.5 0,-118.5 145,-118.5 145,-88.5 0,-88.5"/>
<text text-anchor="start" x="8" y="-106.5" font-family="Helvetica,sans-Serif" font-size="10.00">cflite.eazyaisys.fastvideo.</text>
<text text-anchor="middle" x="72.5" y="-95.5" font-family="Helvetica,sans-Serif" font-size="10.00">VideoSession.run</text>
</a>
</g>
</g>
<!-- Node2&#45;&gt;Node5 -->
<g id="edge4" class="edge">
<title>Node2&#45;&gt;Node5</title>
<path fill="none" stroke="midnightblue" d="M170.79,-103.5C162.33,-103.5 153.67,-103.5 145.17,-103.5"/>
<polygon fill="midnightblue" stroke="midnightblue" points="170.97,-107 180.97,-103.5 170.97,-100 170.97,-107"/>
</g>
<!-- Node6 -->
<g id="node6" class="node">
<title>Node6</title>
<g id="a_node6"><a xlink:href="../../d5/de0/classcflite_1_1eazyaiinf_1_1dummymode_1_1DummyMode.html#a15180f30e49a79272f83ca50ddd3368f" target="_top" xlink:title=" ">
<polygon fill="none" stroke="black" points="29,-50 29,-69 116,-69 116,-50 29,-50"/>
<text text-anchor="middle" x="72.5" y="-57" font-family="Helvetica,sans-Serif" font-size="10.00">run_non_block</text>
</a>
</g>
</g>
<!-- Node2&#45;&gt;Node6 -->
<g id="edge5" class="edge">
<title>Node2&#45;&gt;Node6</title>
<path fill="none" stroke="midnightblue" d="M193.64,-91.35C167.08,-84.3 134.12,-75.57 109.45,-69.03"/>
<polygon fill="midnightblue" stroke="midnightblue" points="192.92,-94.77 203.48,-93.95 194.71,-88.01 192.92,-94.77"/>
</g>
<!-- Node7 -->
<g id="node7" class="node">
<title>Node7</title>
<g id="a_node7"><a xlink:href="../../dd/d96/classcflite_1_1eazyaiinf_1_1livemode_1_1LiveMode.html#a15180f30e49a79272f83ca50ddd3368f" target="_top" xlink:title=" ">
<polygon fill="none" stroke="black" points="2.5,-0.5 2.5,-30.5 142.5,-30.5 142.5,-0.5 2.5,-0.5"/>
<text text-anchor="start" x="10.5" y="-18.5" font-family="Helvetica,sans-Serif" font-size="10.00">cflite.eazyaiinf.livemode.</text>
<text text-anchor="middle" x="72.5" y="-7.5" font-family="Helvetica,sans-Serif" font-size="10.00">LiveMode.run_non_block</text>
</a>
</g>
</g>
<!-- Node2&#45;&gt;Node7 -->
<g id="edge6" class="edge">
<title>Node2&#45;&gt;Node7</title>
<path fill="none" stroke="midnightblue" d="M219.27,-87.82C200.73,-74 172.12,-54.01 145,-40.5 137.7,-36.86 129.75,-33.52 121.88,-30.55"/>
<polygon fill="midnightblue" stroke="midnightblue" points="217.19,-90.64 227.28,-93.88 221.41,-85.05 217.19,-90.64"/>
</g>
</g>
</svg>
