<?xml version="1.0" encoding="UTF-8" standalone="no"?>
<!DOCTYPE svg PUBLIC "-//W3C//DTD SVG 1.1//EN"
 "http://www.w3.org/Graphics/SVG/1.1/DTD/svg11.dtd">
<!-- Generated by graphviz version 2.43.0 (0)
 -->
<!-- Title: run_non_block Pages: 1 -->
<svg width="611pt" height="372pt"
 viewBox="0.00 0.00 611.00 372.00" xmlns="http://www.w3.org/2000/svg" xmlns:xlink="http://www.w3.org/1999/xlink">
<g id="graph0" class="graph" transform="scale(1 1) rotate(0) translate(4 368)">
<title>run_non_block</title>
<!-- Node1 -->
<g id="node1" class="node">
<title>Node1</title>
<g id="a_node1"><a xlink:title=" ">
<polygon fill="#bfbfbf" stroke="black" points="0,-177 0,-196 87,-196 87,-177 0,-177"/>
<text text-anchor="middle" x="43.5" y="-184" font-family="Helvetica,sans-Serif" font-size="10.00">run_non_block</text>
</a>
</g>
</g>
<!-- Node2 -->
<g id="node2" class="node">
<title>Node2</title>
<g id="a_node2"><a xlink:href="../../d0/dd9/classcflite_1_1eazyaigen_1_1parser_1_1Parser.html#aecc2a0e370fa9e93a1efcbeb644a5c63" target="_top" xlink:title=" ">
<polygon fill="none" stroke="black" points="166,-333.5 166,-363.5 319,-363.5 319,-333.5 166,-333.5"/>
<text text-anchor="start" x="174" y="-351.5" font-family="Helvetica,sans-Serif" font-size="10.00">cflite.eazyaigen.parser.</text>
<text text-anchor="middle" x="242.5" y="-340.5" font-family="Helvetica,sans-Serif" font-size="10.00">Parser.generate_commands</text>
</a>
</g>
</g>
<!-- Node1&#45;&gt;Node2 -->
<g id="edge1" class="edge">
<title>Node1&#45;&gt;Node2</title>
<path fill="none" stroke="midnightblue" d="M47.09,-196.33C54.34,-221.81 77.34,-290.27 123,-323.5 132.76,-330.61 144.11,-335.78 155.83,-339.53"/>
<polygon fill="midnightblue" stroke="midnightblue" points="155.17,-342.99 165.75,-342.36 157.09,-336.25 155.17,-342.99"/>
</g>
<!-- Node3 -->
<g id="node3" class="node">
<title>Node3</title>
<g id="a_node3"><a xlink:href="../../d5/de0/classcflite_1_1eazyaiinf_1_1dummymode_1_1DummyMode.html#a9540d7e9292b95bb55375d902324bd1a" target="_top" xlink:title=" ">
<polygon fill="none" stroke="black" points="183,-295 183,-314 302,-314 302,-295 183,-295"/>
<text text-anchor="middle" x="242.5" y="-302" font-family="Helvetica,sans-Serif" font-size="10.00">generate_commands</text>
</a>
</g>
</g>
<!-- Node1&#45;&gt;Node3 -->
<g id="edge2" class="edge">
<title>Node1&#45;&gt;Node3</title>
<path fill="none" stroke="midnightblue" d="M48.99,-196.06C59.06,-216.33 85.52,-263.56 123,-285.5 137.96,-294.26 155.7,-299.33 172.85,-302.19"/>
<polygon fill="midnightblue" stroke="midnightblue" points="172.45,-305.66 182.85,-303.62 173.45,-298.74 172.45,-305.66"/>
</g>
<!-- Node5 -->
<g id="node5" class="node">
<title>Node5</title>
<g id="a_node5"><a xlink:href="../../d9/d70/classcflite_1_1eazyaigen_1_1vas_1_1VAS.html#a2485ece2a10f3abe8d6465cb2c0cc41f" target="_top" xlink:title=" ">
<polygon fill="none" stroke="black" points="150.5,-245.5 150.5,-275.5 334.5,-275.5 334.5,-245.5 150.5,-245.5"/>
<text text-anchor="start" x="158.5" y="-263.5" font-family="Helvetica,sans-Serif" font-size="10.00">cflite.eazyaigen.vas.VAS.generate</text>
<text text-anchor="middle" x="242.5" y="-252.5" font-family="Helvetica,sans-Serif" font-size="10.00">_commands</text>
</a>
</g>
</g>
<!-- Node1&#45;&gt;Node5 -->
<g id="edge4" class="edge">
<title>Node1&#45;&gt;Node5</title>
<path fill="none" stroke="midnightblue" d="M56.5,-196.16C71.27,-207.55 97.53,-226.22 123,-236.5 128.55,-238.74 134.33,-240.78 140.23,-242.63"/>
<polygon fill="midnightblue" stroke="midnightblue" points="139.65,-246.11 150.23,-245.58 141.63,-239.4 139.65,-246.11"/>
</g>
<!-- Node6 -->
<g id="node6" class="node">
<title>Node6</title>
<g id="a_node6"><a xlink:href="../../d0/d1d/classcflite_1_1eazyaigen_1_1abstractobj_1_1eazyaigenobject_1_1EazyaiGenObject.html#a47fdd2bfe648c82ddfa9754ff16f46b1" target="_top" xlink:title=" ">
<polygon fill="none" stroke="black" points="123,-196.5 123,-226.5 362,-226.5 362,-196.5 123,-196.5"/>
<text text-anchor="start" x="131" y="-214.5" font-family="Helvetica,sans-Serif" font-size="10.00">cflite.eazyaigen.abstractobj.eazyaigenobject.</text>
<text text-anchor="middle" x="242.5" y="-203.5" font-family="Helvetica,sans-Serif" font-size="10.00">EazyaiGenObject.generate_commands</text>
</a>
</g>
</g>
<!-- Node1&#45;&gt;Node6 -->
<g id="edge5" class="edge">
<title>Node1&#45;&gt;Node6</title>
<path fill="none" stroke="midnightblue" d="M87.25,-191.92C95.22,-192.94 103.93,-194.04 113.01,-195.19"/>
<polygon fill="midnightblue" stroke="midnightblue" points="112.64,-198.67 123,-196.46 113.52,-191.73 112.64,-198.67"/>
</g>
<!-- Node7 -->
<g id="node7" class="node">
<title>Node7</title>
<g id="a_node7"><a xlink:href="../../da/dcb/group__cflite-eazyaigen-layercompare.html#ga0a5cd0403a07084fbe0aecb42852b46e" target="_top" xlink:title=" ">
<polygon fill="none" stroke="black" points="145.5,-147.5 145.5,-177.5 339.5,-177.5 339.5,-147.5 145.5,-147.5"/>
<text text-anchor="start" x="153.5" y="-165.5" font-family="Helvetica,sans-Serif" font-size="10.00">cflite.eazyaigen.layercompare.</text>
<text text-anchor="middle" x="242.5" y="-154.5" font-family="Helvetica,sans-Serif" font-size="10.00">LayerCompare.generate_commands</text>
</a>
</g>
</g>
<!-- Node1&#45;&gt;Node7 -->
<g id="edge6" class="edge">
<title>Node1&#45;&gt;Node7</title>
<path fill="none" stroke="midnightblue" d="M87.25,-181.29C101.62,-179.54 118.37,-177.5 135.41,-175.42"/>
<polygon fill="midnightblue" stroke="midnightblue" points="135.97,-178.88 145.47,-174.2 135.12,-171.93 135.97,-178.88"/>
</g>
<!-- Node8 -->
<g id="node8" class="node">
<title>Node8</title>
<g id="a_node8"><a xlink:href="../../d8/d8d/group__cflite-eazyaigen-cavalry.html#ga40181f1a480d2c8687ed85a81dcd08e6" target="_top" xlink:title=" ">
<polygon fill="none" stroke="black" points="153,-98.5 153,-128.5 332,-128.5 332,-98.5 153,-98.5"/>
<text text-anchor="start" x="161" y="-116.5" font-family="Helvetica,sans-Serif" font-size="10.00">cflite.eazyaigen.cavalrygen.</text>
<text text-anchor="middle" x="242.5" y="-105.5" font-family="Helvetica,sans-Serif" font-size="10.00">CavalryGen.generate_commands</text>
</a>
</g>
</g>
<!-- Node1&#45;&gt;Node8 -->
<g id="edge7" class="edge">
<title>Node1&#45;&gt;Node8</title>
<path fill="none" stroke="midnightblue" d="M57.11,-176.9C72.05,-165.99 98.06,-148.41 123,-138.5 129.65,-135.86 136.62,-133.47 143.72,-131.33"/>
<polygon fill="midnightblue" stroke="midnightblue" points="144.8,-134.66 153.46,-128.55 142.88,-127.93 144.8,-134.66"/>
</g>
<!-- Node9 -->
<g id="node9" class="node">
<title>Node9</title>
<g id="a_node9"><a xlink:href="../../d9/d64/group__cflite-eazyaigen-cvb.html#gaecc2a0e370fa9e93a1efcbeb644a5c63" target="_top" xlink:title=" ">
<polygon fill="none" stroke="black" points="142.5,-49.5 142.5,-79.5 342.5,-79.5 342.5,-49.5 142.5,-49.5"/>
<text text-anchor="start" x="150.5" y="-67.5" font-family="Helvetica,sans-Serif" font-size="10.00">cflite.eazyaigen.cvbackend.</text>
<text text-anchor="middle" x="242.5" y="-56.5" font-family="Helvetica,sans-Serif" font-size="10.00">CVFlowBackend.generate_commands</text>
</a>
</g>
</g>
<!-- Node1&#45;&gt;Node9 -->
<g id="edge8" class="edge">
<title>Node1&#45;&gt;Node9</title>
<path fill="none" stroke="midnightblue" d="M49.24,-176.85C59.61,-156.84 86.34,-110.86 123,-88.5 126.24,-86.53 129.61,-84.71 133.08,-83.04"/>
<polygon fill="midnightblue" stroke="midnightblue" points="134.69,-86.16 142.46,-78.96 131.9,-79.74 134.69,-86.16"/>
</g>
<!-- Node11 -->
<g id="node11" class="node">
<title>Node11</title>
<g id="a_node11"><a xlink:href="../../dc/dcb/group__cflite-eazyaigen-dataprepare.html#ga47fdd2bfe648c82ddfa9754ff16f46b1" target="_top" xlink:title=" ">
<polygon fill="none" stroke="black" points="151,-0.5 151,-30.5 334,-30.5 334,-0.5 151,-0.5"/>
<text text-anchor="start" x="159" y="-18.5" font-family="Helvetica,sans-Serif" font-size="10.00">cflite.eazyaigen.dataprepare.</text>
<text text-anchor="middle" x="242.5" y="-7.5" font-family="Helvetica,sans-Serif" font-size="10.00">DataPrepare.generate_commands</text>
</a>
</g>
</g>
<!-- Node1&#45;&gt;Node11 -->
<g id="edge10" class="edge">
<title>Node1&#45;&gt;Node11</title>
<path fill="none" stroke="midnightblue" d="M46.65,-176.72C53.08,-150.02 74.73,-75.44 123,-39.5 128.6,-35.33 134.74,-31.84 141.2,-28.92"/>
<polygon fill="midnightblue" stroke="midnightblue" points="142.87,-32.02 150.85,-25.04 140.26,-25.52 142.87,-32.02"/>
</g>
<!-- Node4 -->
<g id="node4" class="node">
<title>Node4</title>
<g id="a_node4"><a xlink:href="../../d5/de0/classcflite_1_1eazyaiinf_1_1dummymode_1_1DummyMode.html#a4766fdee05cd3a5cc49a31d6c8a55b42" target="_top" xlink:title=" ">
<polygon fill="none" stroke="black" points="427.5,-295 427.5,-314 573.5,-314 573.5,-295 427.5,-295"/>
<text text-anchor="middle" x="500.5" y="-302" font-family="Helvetica,sans-Serif" font-size="10.00">generate_evk_model_path</text>
</a>
</g>
</g>
<!-- Node3&#45;&gt;Node4 -->
<g id="edge3" class="edge">
<title>Node3&#45;&gt;Node4</title>
<path fill="none" stroke="midnightblue" d="M302.23,-304.5C336.23,-304.5 379.57,-304.5 416.96,-304.5"/>
<polygon fill="midnightblue" stroke="midnightblue" points="417.33,-308 427.33,-304.5 417.33,-301 417.33,-308"/>
</g>
<!-- Node10 -->
<g id="node10" class="node">
<title>Node10</title>
<g id="a_node10"><a xlink:href="../../d9/d64/group__cflite-eazyaigen-cvb.html#ga54e206c25e6db7808a1ffd4991267283" target="_top" xlink:title=" ">
<polygon fill="none" stroke="black" points="398,-49.5 398,-79.5 603,-79.5 603,-49.5 398,-49.5"/>
<text text-anchor="start" x="406" y="-67.5" font-family="Helvetica,sans-Serif" font-size="10.00">cflite.eazyaigen.cvbackend.</text>
<text text-anchor="middle" x="500.5" y="-56.5" font-family="Helvetica,sans-Serif" font-size="10.00">CVFlowBackend.generate_meta_graph</text>
</a>
</g>
</g>
<!-- Node9&#45;&gt;Node10 -->
<g id="edge9" class="edge">
<title>Node9&#45;&gt;Node10</title>
<path fill="none" stroke="midnightblue" d="M342.84,-64.5C357.46,-64.5 372.6,-64.5 387.45,-64.5"/>
<polygon fill="midnightblue" stroke="midnightblue" points="387.68,-68 397.68,-64.5 387.68,-61 387.68,-68"/>
</g>
</g>
</svg>
