<?xml version="1.0" encoding="UTF-8" standalone="no"?>
<!DOCTYPE svg PUBLIC "-//W3C//DTD SVG 1.1//EN"
 "http://www.w3.org/Graphics/SVG/1.1/DTD/svg11.dtd">
<!-- Generated by graphviz version 2.43.0 (0)
 -->
<!-- Title: run Pages: 1 -->
<svg width="590pt" height="421pt"
 viewBox="0.00 0.00 590.00 421.00" xmlns="http://www.w3.org/2000/svg" xmlns:xlink="http://www.w3.org/1999/xlink">
<g id="graph0" class="graph" transform="scale(1 1) rotate(0) translate(4 417)">
<title>run</title>
<!-- Node1 -->
<g id="node1" class="node">
<title>Node1</title>
<g id="a_node1"><a xlink:title=" ">
<polygon fill="#bfbfbf" stroke="black" points="0,-202 0,-221 32,-221 32,-202 0,-202"/>
<text text-anchor="middle" x="16" y="-209" font-family="Helvetica,sans-Serif" font-size="10.00">run</text>
</a>
</g>
</g>
<!-- Node2 -->
<g id="node2" class="node">
<title>Node2</title>
<g id="a_node2"><a xlink:href="../../d0/d1d/classcflite_1_1eazyaigen_1_1abstractobj_1_1eazyaigenobject_1_1EazyaiGenObject.html#a56db9b3182d539e18bdaef2aadd5774c" target="_top" xlink:title=" ">
<polygon fill="none" stroke="black" points="68,-382.5 68,-412.5 307,-412.5 307,-382.5 68,-382.5"/>
<text text-anchor="start" x="76" y="-400.5" font-family="Helvetica,sans-Serif" font-size="10.00">cflite.eazyaigen.abstractobj.eazyaigenobject.</text>
<text text-anchor="middle" x="187.5" y="-389.5" font-family="Helvetica,sans-Serif" font-size="10.00">EazyaiGenObject.execute_cmd</text>
</a>
</g>
</g>
<!-- Node1&#45;&gt;Node2 -->
<g id="edge1" class="edge">
<title>Node1&#45;&gt;Node2</title>
<path fill="none" stroke="midnightblue" d="M16.89,-221.3C17.14,-249.6 21.98,-332.08 68,-373.5 69.17,-374.55 70.37,-375.57 71.61,-376.54"/>
<polygon fill="midnightblue" stroke="midnightblue" points="69.93,-379.63 80.16,-382.4 73.89,-373.86 69.93,-379.63"/>
</g>
<!-- Node4 -->
<g id="node4" class="node">
<title>Node4</title>
<g id="a_node4"><a xlink:href="../../d0/dd9/classcflite_1_1eazyaigen_1_1parser_1_1Parser.html#aecc2a0e370fa9e93a1efcbeb644a5c63" target="_top" xlink:title=" ">
<polygon fill="none" stroke="black" points="111,-333.5 111,-363.5 264,-363.5 264,-333.5 111,-333.5"/>
<text text-anchor="start" x="119" y="-351.5" font-family="Helvetica,sans-Serif" font-size="10.00">cflite.eazyaigen.parser.</text>
<text text-anchor="middle" x="187.5" y="-340.5" font-family="Helvetica,sans-Serif" font-size="10.00">Parser.generate_commands</text>
</a>
</g>
</g>
<!-- Node1&#45;&gt;Node4 -->
<g id="edge3" class="edge">
<title>Node1&#45;&gt;Node4</title>
<path fill="none" stroke="midnightblue" d="M18.41,-221.07C22.16,-242.91 34.49,-296.64 68,-323.5 77.64,-331.23 89.11,-336.73 101.05,-340.61"/>
<polygon fill="midnightblue" stroke="midnightblue" points="100.12,-343.99 110.7,-343.39 102.06,-337.26 100.12,-343.99"/>
</g>
<!-- Node5 -->
<g id="node5" class="node">
<title>Node5</title>
<g id="a_node5"><a xlink:href="../../d5/de0/classcflite_1_1eazyaiinf_1_1dummymode_1_1DummyMode.html#a9540d7e9292b95bb55375d902324bd1a" target="_top" xlink:title=" ">
<polygon fill="none" stroke="black" points="128,-295 128,-314 247,-314 247,-295 128,-295"/>
<text text-anchor="middle" x="187.5" y="-302" font-family="Helvetica,sans-Serif" font-size="10.00">generate_commands</text>
</a>
</g>
</g>
<!-- Node1&#45;&gt;Node5 -->
<g id="edge4" class="edge">
<title>Node1&#45;&gt;Node5</title>
<path fill="none" stroke="midnightblue" d="M20.63,-221.08C27.32,-237.27 43.2,-269.84 68,-285.5 82.73,-294.8 100.47,-300.05 117.69,-302.91"/>
<polygon fill="midnightblue" stroke="midnightblue" points="117.35,-306.39 127.75,-304.32 118.33,-299.46 117.35,-306.39"/>
</g>
<!-- Node7 -->
<g id="node7" class="node">
<title>Node7</title>
<g id="a_node7"><a xlink:href="../../d9/d70/classcflite_1_1eazyaigen_1_1vas_1_1VAS.html#a2485ece2a10f3abe8d6465cb2c0cc41f" target="_top" xlink:title=" ">
<polygon fill="none" stroke="black" points="95.5,-245.5 95.5,-275.5 279.5,-275.5 279.5,-245.5 95.5,-245.5"/>
<text text-anchor="start" x="103.5" y="-263.5" font-family="Helvetica,sans-Serif" font-size="10.00">cflite.eazyaigen.vas.VAS.generate</text>
<text text-anchor="middle" x="187.5" y="-252.5" font-family="Helvetica,sans-Serif" font-size="10.00">_commands</text>
</a>
</g>
</g>
<!-- Node1&#45;&gt;Node7 -->
<g id="edge6" class="edge">
<title>Node1&#45;&gt;Node7</title>
<path fill="none" stroke="midnightblue" d="M32.18,-220.22C42.1,-225.6 55.49,-232.25 68,-236.5 74.83,-238.82 81.96,-240.96 89.2,-242.91"/>
<polygon fill="midnightblue" stroke="midnightblue" points="88.54,-246.35 99.1,-245.45 90.29,-239.57 88.54,-246.35"/>
</g>
<!-- Node8 -->
<g id="node8" class="node">
<title>Node8</title>
<g id="a_node8"><a xlink:href="../../d0/d1d/classcflite_1_1eazyaigen_1_1abstractobj_1_1eazyaigenobject_1_1EazyaiGenObject.html#a47fdd2bfe648c82ddfa9754ff16f46b1" target="_top" xlink:title=" ">
<polygon fill="none" stroke="black" points="68,-196.5 68,-226.5 307,-226.5 307,-196.5 68,-196.5"/>
<text text-anchor="start" x="76" y="-214.5" font-family="Helvetica,sans-Serif" font-size="10.00">cflite.eazyaigen.abstractobj.eazyaigenobject.</text>
<text text-anchor="middle" x="187.5" y="-203.5" font-family="Helvetica,sans-Serif" font-size="10.00">EazyaiGenObject.generate_commands</text>
</a>
</g>
</g>
<!-- Node1&#45;&gt;Node8 -->
<g id="edge7" class="edge">
<title>Node1&#45;&gt;Node8</title>
<path fill="none" stroke="midnightblue" d="M32.04,-211.5C38.91,-211.5 47.73,-211.5 57.68,-211.5"/>
<polygon fill="midnightblue" stroke="midnightblue" points="57.97,-215 67.97,-211.5 57.97,-208 57.97,-215"/>
</g>
<!-- Node9 -->
<g id="node9" class="node">
<title>Node9</title>
<g id="a_node9"><a xlink:href="../../da/dcb/group__cflite-eazyaigen-layercompare.html#ga0a5cd0403a07084fbe0aecb42852b46e" target="_top" xlink:title=" ">
<polygon fill="none" stroke="black" points="90.5,-147.5 90.5,-177.5 284.5,-177.5 284.5,-147.5 90.5,-147.5"/>
<text text-anchor="start" x="98.5" y="-165.5" font-family="Helvetica,sans-Serif" font-size="10.00">cflite.eazyaigen.layercompare.</text>
<text text-anchor="middle" x="187.5" y="-154.5" font-family="Helvetica,sans-Serif" font-size="10.00">LayerCompare.generate_commands</text>
</a>
</g>
</g>
<!-- Node1&#45;&gt;Node9 -->
<g id="edge8" class="edge">
<title>Node1&#45;&gt;Node9</title>
<path fill="none" stroke="midnightblue" d="M32.24,-203.19C42.18,-198.05 55.57,-191.67 68,-187.5 76.11,-184.78 84.64,-182.29 93.24,-180.03"/>
<polygon fill="midnightblue" stroke="midnightblue" points="94.13,-183.41 102.97,-177.57 92.42,-176.63 94.13,-183.41"/>
</g>
<!-- Node10 -->
<g id="node10" class="node">
<title>Node10</title>
<g id="a_node10"><a xlink:href="../../d8/d8d/group__cflite-eazyaigen-cavalry.html#ga40181f1a480d2c8687ed85a81dcd08e6" target="_top" xlink:title=" ">
<polygon fill="none" stroke="black" points="98,-98.5 98,-128.5 277,-128.5 277,-98.5 98,-98.5"/>
<text text-anchor="start" x="106" y="-116.5" font-family="Helvetica,sans-Serif" font-size="10.00">cflite.eazyaigen.cavalrygen.</text>
<text text-anchor="middle" x="187.5" y="-105.5" font-family="Helvetica,sans-Serif" font-size="10.00">CavalryGen.generate_commands</text>
</a>
</g>
</g>
<!-- Node1&#45;&gt;Node10 -->
<g id="edge9" class="edge">
<title>Node1&#45;&gt;Node10</title>
<path fill="none" stroke="midnightblue" d="M20.86,-201.93C27.79,-186.05 43.89,-154.45 68,-138.5 74.21,-134.39 80.97,-130.94 88,-128.05"/>
<polygon fill="midnightblue" stroke="midnightblue" points="89.59,-131.19 97.75,-124.43 87.15,-124.63 89.59,-131.19"/>
</g>
<!-- Node11 -->
<g id="node11" class="node">
<title>Node11</title>
<g id="a_node11"><a xlink:href="../../d9/d64/group__cflite-eazyaigen-cvb.html#gaecc2a0e370fa9e93a1efcbeb644a5c63" target="_top" xlink:title=" ">
<polygon fill="none" stroke="black" points="87.5,-49.5 87.5,-79.5 287.5,-79.5 287.5,-49.5 87.5,-49.5"/>
<text text-anchor="start" x="95.5" y="-67.5" font-family="Helvetica,sans-Serif" font-size="10.00">cflite.eazyaigen.cvbackend.</text>
<text text-anchor="middle" x="187.5" y="-56.5" font-family="Helvetica,sans-Serif" font-size="10.00">CVFlowBackend.generate_commands</text>
</a>
</g>
</g>
<!-- Node1&#45;&gt;Node11 -->
<g id="edge10" class="edge">
<title>Node1&#45;&gt;Node11</title>
<path fill="none" stroke="midnightblue" d="M17.99,-201.7C20.93,-178.19 31.77,-118.33 68,-88.5 71.19,-85.87 74.59,-83.51 78.15,-81.38"/>
<polygon fill="midnightblue" stroke="midnightblue" points="80.08,-84.32 87.3,-76.57 76.82,-78.13 80.08,-84.32"/>
</g>
<!-- Node13 -->
<g id="node13" class="node">
<title>Node13</title>
<g id="a_node13"><a xlink:href="../../dc/dcb/group__cflite-eazyaigen-dataprepare.html#ga47fdd2bfe648c82ddfa9754ff16f46b1" target="_top" xlink:title=" ">
<polygon fill="none" stroke="black" points="96,-0.5 96,-30.5 279,-30.5 279,-0.5 96,-0.5"/>
<text text-anchor="start" x="104" y="-18.5" font-family="Helvetica,sans-Serif" font-size="10.00">cflite.eazyaigen.dataprepare.</text>
<text text-anchor="middle" x="187.5" y="-7.5" font-family="Helvetica,sans-Serif" font-size="10.00">DataPrepare.generate_commands</text>
</a>
</g>
</g>
<!-- Node1&#45;&gt;Node13 -->
<g id="edge12" class="edge">
<title>Node1&#45;&gt;Node13</title>
<path fill="none" stroke="midnightblue" d="M16.69,-201.95C16.28,-172.78 19.29,-84.08 68,-39.5 73.48,-34.48 79.71,-30.39 86.39,-27.07"/>
<polygon fill="midnightblue" stroke="midnightblue" points="87.95,-30.21 95.72,-23 85.16,-23.79 87.95,-30.21"/>
</g>
<!-- Node3 -->
<g id="node3" class="node">
<title>Node3</title>
<g id="a_node3"><a xlink:href="../../d0/d1d/classcflite_1_1eazyaigen_1_1abstractobj_1_1eazyaigenobject_1_1EazyaiGenObject.html#a82c36c205d82f157d70c39e5a3b6c7ce" target="_top" xlink:title=" ">
<polygon fill="none" stroke="black" points="343,-382.5 343,-412.5 582,-412.5 582,-382.5 343,-382.5"/>
<text text-anchor="start" x="351" y="-400.5" font-family="Helvetica,sans-Serif" font-size="10.00">cflite.eazyaigen.abstractobj.eazyaigenobject.</text>
<text text-anchor="middle" x="462.5" y="-389.5" font-family="Helvetica,sans-Serif" font-size="10.00">EazyaiGenObject.start_subprocess</text>
</a>
</g>
</g>
<!-- Node2&#45;&gt;Node3 -->
<g id="edge2" class="edge">
<title>Node2&#45;&gt;Node3</title>
<path fill="none" stroke="midnightblue" d="M307.05,-397.5C315.44,-397.5 323.92,-397.5 332.36,-397.5"/>
<polygon fill="midnightblue" stroke="midnightblue" points="332.63,-401 342.63,-397.5 332.63,-394 332.63,-401"/>
</g>
<!-- Node6 -->
<g id="node6" class="node">
<title>Node6</title>
<g id="a_node6"><a xlink:href="../../d5/de0/classcflite_1_1eazyaiinf_1_1dummymode_1_1DummyMode.html#a4766fdee05cd3a5cc49a31d6c8a55b42" target="_top" xlink:title=" ">
<polygon fill="none" stroke="black" points="389.5,-295 389.5,-314 535.5,-314 535.5,-295 389.5,-295"/>
<text text-anchor="middle" x="462.5" y="-302" font-family="Helvetica,sans-Serif" font-size="10.00">generate_evk_model_path</text>
</a>
</g>
</g>
<!-- Node5&#45;&gt;Node6 -->
<g id="edge5" class="edge">
<title>Node5&#45;&gt;Node6</title>
<path fill="none" stroke="midnightblue" d="M247.07,-304.5C285.65,-304.5 336.72,-304.5 379.35,-304.5"/>
<polygon fill="midnightblue" stroke="midnightblue" points="379.42,-308 389.42,-304.5 379.42,-301 379.42,-308"/>
</g>
<!-- Node12 -->
<g id="node12" class="node">
<title>Node12</title>
<g id="a_node12"><a xlink:href="../../d9/d64/group__cflite-eazyaigen-cvb.html#ga54e206c25e6db7808a1ffd4991267283" target="_top" xlink:title=" ">
<polygon fill="none" stroke="black" points="360,-49.5 360,-79.5 565,-79.5 565,-49.5 360,-49.5"/>
<text text-anchor="start" x="368" y="-67.5" font-family="Helvetica,sans-Serif" font-size="10.00">cflite.eazyaigen.cvbackend.</text>
<text text-anchor="middle" x="462.5" y="-56.5" font-family="Helvetica,sans-Serif" font-size="10.00">CVFlowBackend.generate_meta_graph</text>
</a>
</g>
</g>
<!-- Node11&#45;&gt;Node12 -->
<g id="edge11" class="edge">
<title>Node11&#45;&gt;Node12</title>
<path fill="none" stroke="midnightblue" d="M287.83,-64.5C308.01,-64.5 329.36,-64.5 349.93,-64.5"/>
<polygon fill="midnightblue" stroke="midnightblue" points="349.95,-68 359.95,-64.5 349.95,-61 349.95,-68"/>
</g>
</g>
</svg>
