<?xml version="1.0" encoding="UTF-8" standalone="no"?>
<!DOCTYPE svg PUBLIC "-//W3C//DTD SVG 1.1//EN"
 "http://www.w3.org/Graphics/SVG/1.1/DTD/svg11.dtd">
<!-- Generated by graphviz version 2.43.0 (0)
 -->
<!-- Title: run_with_dummy_input Pages: 1 -->
<svg width="689pt" height="411pt"
 viewBox="0.00 0.00 689.00 410.50" xmlns="http://www.w3.org/2000/svg" xmlns:xlink="http://www.w3.org/1999/xlink">
<g id="graph0" class="graph" transform="scale(1 1) rotate(0) translate(4 406.5)">
<title>run_with_dummy_input</title>
<!-- Node1 -->
<g id="node1" class="node">
<title>Node1</title>
<g id="a_node1"><a xlink:title=" ">
<polygon fill="#bfbfbf" stroke="black" points="0,-202 0,-221 131,-221 131,-202 0,-202"/>
<text text-anchor="middle" x="65.5" y="-209" font-family="Helvetica,sans-Serif" font-size="10.00">run_with_dummy_input</text>
</a>
</g>
</g>
<!-- Node2 -->
<g id="node2" class="node">
<title>Node2</title>
<g id="a_node2"><a xlink:href="../../d0/dd9/classcflite_1_1eazyaigen_1_1parser_1_1Parser.html#ac7d2fba3c0d40ee6ffedaf26419b4960" target="_top" xlink:title=" ">
<polygon fill="none" stroke="black" points="243,-383 243,-402 330,-402 330,-383 243,-383"/>
<text text-anchor="middle" x="286.5" y="-390" font-family="Helvetica,sans-Serif" font-size="10.00">check_params</text>
</a>
</g>
</g>
<!-- Node1&#45;&gt;Node2 -->
<g id="edge1" class="edge">
<title>Node1&#45;&gt;Node2</title>
<path fill="none" stroke="midnightblue" d="M69.34,-221.17C78.29,-249.84 108.86,-334.81 167,-373.5 186.17,-386.26 210.86,-391.54 232.75,-393.43"/>
<polygon fill="midnightblue" stroke="midnightblue" points="232.7,-396.93 242.9,-394.08 233.15,-389.94 232.7,-396.93"/>
</g>
<!-- Node3 -->
<g id="node3" class="node">
<title>Node3</title>
<g id="a_node3"><a xlink:href="../../d0/d1d/classcflite_1_1eazyaigen_1_1abstractobj_1_1eazyaigenobject_1_1EazyaiGenObject.html#a56db9b3182d539e18bdaef2aadd5774c" target="_top" xlink:title=" ">
<polygon fill="none" stroke="black" points="167,-333.5 167,-363.5 406,-363.5 406,-333.5 167,-333.5"/>
<text text-anchor="start" x="175" y="-351.5" font-family="Helvetica,sans-Serif" font-size="10.00">cflite.eazyaigen.abstractobj.eazyaigenobject.</text>
<text text-anchor="middle" x="286.5" y="-340.5" font-family="Helvetica,sans-Serif" font-size="10.00">EazyaiGenObject.execute_cmd</text>
</a>
</g>
</g>
<!-- Node1&#45;&gt;Node3 -->
<g id="edge2" class="edge">
<title>Node1&#45;&gt;Node3</title>
<path fill="none" stroke="midnightblue" d="M72.13,-221.15C85.51,-243.17 121.53,-297.24 167,-323.5 170.89,-325.75 174.97,-327.8 179.16,-329.66"/>
<polygon fill="midnightblue" stroke="midnightblue" points="177.92,-332.94 188.5,-333.46 180.55,-326.45 177.92,-332.94"/>
</g>
<!-- Node5 -->
<g id="node5" class="node">
<title>Node5</title>
<g id="a_node5"><a xlink:href="../../d0/dd9/classcflite_1_1eazyaigen_1_1parser_1_1Parser.html#aecc2a0e370fa9e93a1efcbeb644a5c63" target="_top" xlink:title=" ">
<polygon fill="none" stroke="black" points="227,-295 227,-314 346,-314 346,-295 227,-295"/>
<text text-anchor="middle" x="286.5" y="-302" font-family="Helvetica,sans-Serif" font-size="10.00">generate_commands</text>
</a>
</g>
</g>
<!-- Node1&#45;&gt;Node5 -->
<g id="edge4" class="edge">
<title>Node1&#45;&gt;Node5</title>
<path fill="none" stroke="midnightblue" d="M76.05,-221.06C92.84,-237.23 129.43,-269.76 167,-285.5 182.44,-291.97 199.85,-296.25 216.49,-299.08"/>
<polygon fill="midnightblue" stroke="midnightblue" points="216.3,-302.59 226.72,-300.66 217.37,-295.67 216.3,-302.59"/>
</g>
<!-- Node6 -->
<g id="node6" class="node">
<title>Node6</title>
<g id="a_node6"><a xlink:href="../../da/dcb/group__cflite-eazyaigen-layercompare.html#ga0a5cd0403a07084fbe0aecb42852b46e" target="_top" xlink:title=" ">
<polygon fill="none" stroke="black" points="189.5,-245.5 189.5,-275.5 383.5,-275.5 383.5,-245.5 189.5,-245.5"/>
<text text-anchor="start" x="197.5" y="-263.5" font-family="Helvetica,sans-Serif" font-size="10.00">cflite.eazyaigen.layercompare.</text>
<text text-anchor="middle" x="286.5" y="-252.5" font-family="Helvetica,sans-Serif" font-size="10.00">LayerCompare.generate_commands</text>
</a>
</g>
</g>
<!-- Node1&#45;&gt;Node6 -->
<g id="edge5" class="edge">
<title>Node1&#45;&gt;Node6</title>
<path fill="none" stroke="midnightblue" d="M103.16,-221.03C122.16,-225.87 145.78,-231.71 167,-236.5 177.35,-238.83 188.23,-241.18 199.02,-243.45"/>
<polygon fill="midnightblue" stroke="midnightblue" points="198.4,-246.89 208.9,-245.5 199.82,-240.04 198.4,-246.89"/>
</g>
<!-- Node7 -->
<g id="node7" class="node">
<title>Node7</title>
<g id="a_node7"><a xlink:href="../../d8/d8d/group__cflite-eazyaigen-cavalry.html#ga40181f1a480d2c8687ed85a81dcd08e6" target="_top" xlink:title=" ">
<polygon fill="none" stroke="black" points="197,-196.5 197,-226.5 376,-226.5 376,-196.5 197,-196.5"/>
<text text-anchor="start" x="205" y="-214.5" font-family="Helvetica,sans-Serif" font-size="10.00">cflite.eazyaigen.cavalrygen.</text>
<text text-anchor="middle" x="286.5" y="-203.5" font-family="Helvetica,sans-Serif" font-size="10.00">CavalryGen.generate_commands</text>
</a>
</g>
</g>
<!-- Node1&#45;&gt;Node7 -->
<g id="edge6" class="edge">
<title>Node1&#45;&gt;Node7</title>
<path fill="none" stroke="midnightblue" d="M131.02,-211.5C148.46,-211.5 167.73,-211.5 186.58,-211.5"/>
<polygon fill="midnightblue" stroke="midnightblue" points="186.69,-215 196.69,-211.5 186.69,-208 186.69,-215"/>
</g>
<!-- Node8 -->
<g id="node8" class="node">
<title>Node8</title>
<g id="a_node8"><a xlink:href="../../d9/d64/group__cflite-eazyaigen-cvb.html#gaecc2a0e370fa9e93a1efcbeb644a5c63" target="_top" xlink:title=" ">
<polygon fill="none" stroke="black" points="186.5,-147.5 186.5,-177.5 386.5,-177.5 386.5,-147.5 186.5,-147.5"/>
<text text-anchor="start" x="194.5" y="-165.5" font-family="Helvetica,sans-Serif" font-size="10.00">cflite.eazyaigen.cvbackend.</text>
<text text-anchor="middle" x="286.5" y="-154.5" font-family="Helvetica,sans-Serif" font-size="10.00">CVFlowBackend.generate_commands</text>
</a>
</g>
</g>
<!-- Node1&#45;&gt;Node8 -->
<g id="edge7" class="edge">
<title>Node1&#45;&gt;Node8</title>
<path fill="none" stroke="midnightblue" d="M103.16,-201.97C122.16,-197.13 145.78,-191.29 167,-186.5 177.35,-184.17 188.23,-181.82 199.02,-179.55"/>
<polygon fill="midnightblue" stroke="midnightblue" points="199.82,-182.96 208.9,-177.5 198.4,-176.11 199.82,-182.96"/>
</g>
<!-- Node10 -->
<g id="node10" class="node">
<title>Node10</title>
<g id="a_node10"><a xlink:href="../../dc/dcb/group__cflite-eazyaigen-dataprepare.html#ga47fdd2bfe648c82ddfa9754ff16f46b1" target="_top" xlink:title=" ">
<polygon fill="none" stroke="black" points="195,-98.5 195,-128.5 378,-128.5 378,-98.5 195,-98.5"/>
<text text-anchor="start" x="203" y="-116.5" font-family="Helvetica,sans-Serif" font-size="10.00">cflite.eazyaigen.dataprepare.</text>
<text text-anchor="middle" x="286.5" y="-105.5" font-family="Helvetica,sans-Serif" font-size="10.00">DataPrepare.generate_commands</text>
</a>
</g>
</g>
<!-- Node1&#45;&gt;Node10 -->
<g id="edge9" class="edge">
<title>Node1&#45;&gt;Node10</title>
<path fill="none" stroke="midnightblue" d="M76.39,-201.85C93.41,-185.84 129.96,-153.92 167,-137.5 172.79,-134.93 178.87,-132.64 185.08,-130.58"/>
<polygon fill="midnightblue" stroke="midnightblue" points="186.39,-133.84 194.92,-127.55 184.34,-127.15 186.39,-133.84"/>
</g>
<!-- Node11 -->
<g id="node11" class="node">
<title>Node11</title>
<g id="a_node11"><a xlink:href="../../d9/d64/group__cflite-eazyaigen-cvb.html#ga12404b2093f6f442f063cc17891c38ab" target="_top" xlink:title=" ">
<polygon fill="none" stroke="black" points="207.5,-49.5 207.5,-79.5 365.5,-79.5 365.5,-49.5 207.5,-49.5"/>
<text text-anchor="start" x="215.5" y="-67.5" font-family="Helvetica,sans-Serif" font-size="10.00">cflite.eazyaigen.cvbackend.</text>
<text text-anchor="middle" x="286.5" y="-56.5" font-family="Helvetica,sans-Serif" font-size="10.00">CVFlowBackend.get_cvt_info</text>
</a>
</g>
</g>
<!-- Node1&#45;&gt;Node11 -->
<g id="edge10" class="edge">
<title>Node1&#45;&gt;Node11</title>
<path fill="none" stroke="midnightblue" d="M71.29,-201.93C83.61,-178.41 118.83,-117.56 167,-88.5 176.36,-82.86 186.81,-78.51 197.53,-75.18"/>
<polygon fill="midnightblue" stroke="midnightblue" points="198.74,-78.47 207.42,-72.39 196.84,-71.74 198.74,-78.47"/>
</g>
<!-- Node12 -->
<g id="node12" class="node">
<title>Node12</title>
<g id="a_node12"><a xlink:href="../../db/d1f/group__cflite-eazyaigen-modelpreprocess.html#gac27d49ec54a0a3a73971ead470e9e084" target="_top" xlink:title=" ">
<polygon fill="none" stroke="black" points="186.5,-0.5 186.5,-30.5 386.5,-30.5 386.5,-0.5 186.5,-0.5"/>
<text text-anchor="start" x="194.5" y="-18.5" font-family="Helvetica,sans-Serif" font-size="10.00">cflite.eazyaigen.modelpreprocess.run</text>
<text text-anchor="middle" x="286.5" y="-7.5" font-family="Helvetica,sans-Serif" font-size="10.00">_print_graph_summary</text>
</a>
</g>
</g>
<!-- Node1&#45;&gt;Node12 -->
<g id="edge11" class="edge">
<title>Node1&#45;&gt;Node12</title>
<path fill="none" stroke="midnightblue" d="M69.1,-201.78C77.58,-172.12 107.37,-82.16 167,-39.5 170.27,-37.16 173.71,-35.04 177.28,-33.11"/>
<polygon fill="midnightblue" stroke="midnightblue" points="178.91,-36.21 186.4,-28.72 175.87,-29.91 178.91,-36.21"/>
</g>
<!-- Node4 -->
<g id="node4" class="node">
<title>Node4</title>
<g id="a_node4"><a xlink:href="../../d0/d1d/classcflite_1_1eazyaigen_1_1abstractobj_1_1eazyaigenobject_1_1EazyaiGenObject.html#a82c36c205d82f157d70c39e5a3b6c7ce" target="_top" xlink:title=" ">
<polygon fill="none" stroke="black" points="442,-333.5 442,-363.5 681,-363.5 681,-333.5 442,-333.5"/>
<text text-anchor="start" x="450" y="-351.5" font-family="Helvetica,sans-Serif" font-size="10.00">cflite.eazyaigen.abstractobj.eazyaigenobject.</text>
<text text-anchor="middle" x="561.5" y="-340.5" font-family="Helvetica,sans-Serif" font-size="10.00">EazyaiGenObject.start_subprocess</text>
</a>
</g>
</g>
<!-- Node3&#45;&gt;Node4 -->
<g id="edge3" class="edge">
<title>Node3&#45;&gt;Node4</title>
<path fill="none" stroke="midnightblue" d="M406.05,-348.5C414.44,-348.5 422.92,-348.5 431.36,-348.5"/>
<polygon fill="midnightblue" stroke="midnightblue" points="431.63,-352 441.63,-348.5 431.63,-345 431.63,-352"/>
</g>
<!-- Node9 -->
<g id="node9" class="node">
<title>Node9</title>
<g id="a_node9"><a xlink:href="../../d9/d64/group__cflite-eazyaigen-cvb.html#ga54e206c25e6db7808a1ffd4991267283" target="_top" xlink:title=" ">
<polygon fill="none" stroke="black" points="459,-147.5 459,-177.5 664,-177.5 664,-147.5 459,-147.5"/>
<text text-anchor="start" x="467" y="-165.5" font-family="Helvetica,sans-Serif" font-size="10.00">cflite.eazyaigen.cvbackend.</text>
<text text-anchor="middle" x="561.5" y="-154.5" font-family="Helvetica,sans-Serif" font-size="10.00">CVFlowBackend.generate_meta_graph</text>
</a>
</g>
</g>
<!-- Node8&#45;&gt;Node9 -->
<g id="edge8" class="edge">
<title>Node8&#45;&gt;Node9</title>
<path fill="none" stroke="midnightblue" d="M386.83,-162.5C407.01,-162.5 428.36,-162.5 448.93,-162.5"/>
<polygon fill="midnightblue" stroke="midnightblue" points="448.95,-166 458.95,-162.5 448.95,-159 448.95,-166"/>
</g>
</g>
</svg>
