<?xml version="1.0" encoding="UTF-8" standalone="no"?>
<!DOCTYPE svg PUBLIC "-//W3C//DTD SVG 1.1//EN"
 "http://www.w3.org/Graphics/SVG/1.1/DTD/svg11.dtd">
<!-- Generated by graphviz version 2.43.0 (0)
 -->
<!-- Title: check_params Pages: 1 -->
<svg width="343pt" height="215pt"
 viewBox="0.00 0.00 343.00 215.00" xmlns="http://www.w3.org/2000/svg" xmlns:xlink="http://www.w3.org/1999/xlink">
<g id="graph0" class="graph" transform="scale(1 1) rotate(0) translate(4 211)">
<title>check_params</title>
<!-- Node1 -->
<g id="node1" class="node">
<title>Node1</title>
<g id="a_node1"><a xlink:title=" ">
<polygon fill="#bfbfbf" stroke="black" points="248,-94 248,-113 335,-113 335,-94 248,-94"/>
<text text-anchor="middle" x="291.5" y="-101" font-family="Helvetica,sans-Serif" font-size="10.00">check_params</text>
</a>
</g>
</g>
<!-- Node2 -->
<g id="node2" class="node">
<title>Node2</title>
<g id="a_node2"><a xlink:href="../../db/deb/classcflite_1_1eazyaigen_1_1theoryperf_1_1TheoryPerf.html#ad22709b2e67308af35f55680d5a026e0" target="_top" xlink:title=" ">
<polygon fill="none" stroke="black" points="30.5,-176.5 30.5,-206.5 181.5,-206.5 181.5,-176.5 30.5,-176.5"/>
<text text-anchor="start" x="38.5" y="-194.5" font-family="Helvetica,sans-Serif" font-size="10.00">cflite.eazyaigen.theoryperf.</text>
<text text-anchor="middle" x="106" y="-183.5" font-family="Helvetica,sans-Serif" font-size="10.00">TheoryPerf.run</text>
</a>
</g>
</g>
<!-- Node1&#45;&gt;Node2 -->
<g id="edge1" class="edge">
<title>Node1&#45;&gt;Node2</title>
<path fill="none" stroke="midnightblue" d="M273.94,-120.5C259.02,-134.84 235.84,-154.84 212,-166.5 202.49,-171.15 192.06,-174.97 181.59,-178.09"/>
<polygon fill="midnightblue" stroke="midnightblue" points="276.67,-122.72 281.32,-113.21 271.75,-117.74 276.67,-122.72"/>
</g>
<!-- Node3 -->
<g id="node3" class="node">
<title>Node3</title>
<g id="a_node3"><a xlink:href="../../d0/dd9/classcflite_1_1eazyaigen_1_1parser_1_1Parser.html#a103d6d5cdd8ecb125a4021b62bd3aff7" target="_top" xlink:title=" ">
<polygon fill="none" stroke="black" points="90,-138 90,-157 122,-157 122,-138 90,-138"/>
<text text-anchor="middle" x="106" y="-145" font-family="Helvetica,sans-Serif" font-size="10.00">run</text>
</a>
</g>
</g>
<!-- Node1&#45;&gt;Node3 -->
<g id="edge2" class="edge">
<title>Node1&#45;&gt;Node3</title>
<path fill="none" stroke="midnightblue" d="M253.89,-116.24C240.78,-120.52 225.83,-125.06 212,-128.5 180.36,-136.37 142.6,-142.4 122.08,-145.4"/>
<polygon fill="midnightblue" stroke="midnightblue" points="255.11,-119.52 263.5,-113.05 252.91,-112.88 255.11,-119.52"/>
</g>
<!-- Node4 -->
<g id="node4" class="node">
<title>Node4</title>
<g id="a_node4"><a xlink:href="../../d9/d64/group__cflite-eazyaigen-cvb.html#ga103d6d5cdd8ecb125a4021b62bd3aff7" target="_top" xlink:title=" ">
<polygon fill="none" stroke="black" points="30,-88.5 30,-118.5 182,-118.5 182,-88.5 30,-88.5"/>
<text text-anchor="start" x="38" y="-106.5" font-family="Helvetica,sans-Serif" font-size="10.00">cflite.eazyaigen.cvbackend.</text>
<text text-anchor="middle" x="106" y="-95.5" font-family="Helvetica,sans-Serif" font-size="10.00">CVFlowBackend.run</text>
</a>
</g>
</g>
<!-- Node1&#45;&gt;Node4 -->
<g id="edge3" class="edge">
<title>Node1&#45;&gt;Node4</title>
<path fill="none" stroke="midnightblue" d="M237.49,-103.5C220.2,-103.5 200.66,-103.5 182.07,-103.5"/>
<polygon fill="midnightblue" stroke="midnightblue" points="237.94,-107 247.94,-103.5 237.94,-100 237.94,-107"/>
</g>
<!-- Node5 -->
<g id="node5" class="node">
<title>Node5</title>
<g id="a_node5"><a xlink:href="../../d0/dd9/classcflite_1_1eazyaigen_1_1parser_1_1Parser.html#ae842132494a52d538bf11b8f127c9f2a" target="_top" xlink:title=" ">
<polygon fill="none" stroke="black" points="40.5,-50 40.5,-69 171.5,-69 171.5,-50 40.5,-50"/>
<text text-anchor="middle" x="106" y="-57" font-family="Helvetica,sans-Serif" font-size="10.00">run_with_dummy_input</text>
</a>
</g>
</g>
<!-- Node1&#45;&gt;Node5 -->
<g id="edge4" class="edge">
<title>Node1&#45;&gt;Node5</title>
<path fill="none" stroke="midnightblue" d="M252.19,-90.88C239.48,-86.94 225.21,-82.77 212,-79.5 196.24,-75.6 178.98,-72.03 163.1,-69.02"/>
<polygon fill="midnightblue" stroke="midnightblue" points="251.41,-94.3 262,-93.97 253.51,-87.63 251.41,-94.3"/>
</g>
<!-- Node6 -->
<g id="node6" class="node">
<title>Node6</title>
<g id="a_node6"><a xlink:href="../../d9/d64/group__cflite-eazyaigen-cvb.html#gae842132494a52d538bf11b8f127c9f2a" target="_top" xlink:title=" ">
<polygon fill="none" stroke="black" points="0,-0.5 0,-30.5 212,-30.5 212,-0.5 0,-0.5"/>
<text text-anchor="start" x="8" y="-18.5" font-family="Helvetica,sans-Serif" font-size="10.00">cflite.eazyaigen.cvbackend.</text>
<text text-anchor="middle" x="106" y="-7.5" font-family="Helvetica,sans-Serif" font-size="10.00">CVFlowBackend.run_with_dummy_input</text>
</a>
</g>
</g>
<!-- Node1&#45;&gt;Node6 -->
<g id="edge5" class="edge">
<title>Node1&#45;&gt;Node6</title>
<path fill="none" stroke="midnightblue" d="M273.94,-86.5C259.02,-72.16 235.84,-52.16 212,-40.5 204.09,-36.63 195.54,-33.34 186.86,-30.54"/>
<polygon fill="midnightblue" stroke="midnightblue" points="271.75,-89.26 281.32,-93.79 276.67,-84.28 271.75,-89.26"/>
</g>
</g>
</svg>
