<?xml version="1.0" encoding="UTF-8" standalone="no"?>
<!DOCTYPE svg PUBLIC "-//W3C//DTD SVG 1.1//EN"
 "http://www.w3.org/Graphics/SVG/1.1/DTD/svg11.dtd">
<!-- Generated by graphviz version 2.43.0 (0)
 -->
<!-- Title: generate_commands Pages: 1 -->
<svg width="336pt" height="400pt"
 viewBox="0.00 0.00 336.00 400.00" xmlns="http://www.w3.org/2000/svg" xmlns:xlink="http://www.w3.org/1999/xlink">
<g id="graph0" class="graph" transform="scale(1 1) rotate(0) translate(4 396)">
<title>generate_commands</title>
<!-- Node1 -->
<g id="node1" class="node">
<title>Node1</title>
<g id="a_node1"><a xlink:title=" ">
<polygon fill="#bfbfbf" stroke="black" points="209,-192 209,-211 328,-211 328,-192 209,-192"/>
<text text-anchor="middle" x="268.5" y="-199" font-family="Helvetica,sans-Serif" font-size="10.00">generate_commands</text>
</a>
</g>
</g>
<!-- Node2 -->
<g id="node2" class="node">
<title>Node2</title>
<g id="a_node2"><a xlink:href="../../d5/de0/classcflite_1_1eazyaiinf_1_1dummymode_1_1DummyMode.html#ad22709b2e67308af35f55680d5a026e0" target="_top" xlink:title=" ">
<polygon fill="none" stroke="black" points="6.5,-361.5 6.5,-391.5 166.5,-391.5 166.5,-361.5 6.5,-361.5"/>
<text text-anchor="start" x="14.5" y="-379.5" font-family="Helvetica,sans-Serif" font-size="10.00">cflite.eazyaiinf.dummymode.</text>
<text text-anchor="middle" x="86.5" y="-368.5" font-family="Helvetica,sans-Serif" font-size="10.00">DummyMode.run</text>
</a>
</g>
</g>
<!-- Node1&#45;&gt;Node2 -->
<g id="edge1" class="edge">
<title>Node1&#45;&gt;Node2</title>
<path fill="none" stroke="midnightblue" d="M260.67,-221.01C248.34,-253.33 219.26,-317.86 173,-352.5 168.43,-355.92 163.4,-358.85 158.13,-361.36"/>
<polygon fill="midnightblue" stroke="midnightblue" points="264.05,-221.96 264.21,-211.37 257.48,-219.55 264.05,-221.96"/>
</g>
<!-- Node3 -->
<g id="node3" class="node">
<title>Node3</title>
<g id="a_node3"><a xlink:href="../../dd/d96/classcflite_1_1eazyaiinf_1_1livemode_1_1LiveMode.html#ad22709b2e67308af35f55680d5a026e0" target="_top" xlink:title=" ">
<polygon fill="none" stroke="black" points="16.5,-312.5 16.5,-342.5 156.5,-342.5 156.5,-312.5 16.5,-312.5"/>
<text text-anchor="start" x="24.5" y="-330.5" font-family="Helvetica,sans-Serif" font-size="10.00">cflite.eazyaiinf.livemode.</text>
<text text-anchor="middle" x="86.5" y="-319.5" font-family="Helvetica,sans-Serif" font-size="10.00">LiveMode.run</text>
</a>
</g>
</g>
<!-- Node1&#45;&gt;Node3 -->
<g id="edge2" class="edge">
<title>Node1&#45;&gt;Node3</title>
<path fill="none" stroke="midnightblue" d="M255.34,-219.54C239.15,-242.2 208.41,-280.71 173,-302.5 166.81,-306.31 160.01,-309.56 153.03,-312.33"/>
<polygon fill="midnightblue" stroke="midnightblue" points="258.33,-221.38 261.18,-211.17 252.59,-217.37 258.33,-221.38"/>
</g>
<!-- Node4 -->
<g id="node4" class="node">
<title>Node4</title>
<g id="a_node4"><a xlink:href="../../d9/d70/classcflite_1_1eazyaigen_1_1vas_1_1VAS.html#a707d09914dcf0d1d280d523f4d6d1f8c" target="_top" xlink:title=" ">
<polygon fill="none" stroke="black" points="8.5,-274 8.5,-293 164.5,-293 164.5,-274 8.5,-274"/>
<text text-anchor="middle" x="86.5" y="-281" font-family="Helvetica,sans-Serif" font-size="10.00">cflite.eazyaigen.vas.VAS.run</text>
</a>
</g>
</g>
<!-- Node1&#45;&gt;Node4 -->
<g id="edge3" class="edge">
<title>Node1&#45;&gt;Node4</title>
<path fill="none" stroke="midnightblue" d="M247.99,-217.67C229.71,-232.02 201.05,-252.53 173,-264.5 164.05,-268.32 154.23,-271.42 144.54,-273.91"/>
<polygon fill="midnightblue" stroke="midnightblue" points="250.48,-220.16 256.09,-211.18 246.1,-214.7 250.48,-220.16"/>
</g>
<!-- Node5 -->
<g id="node5" class="node">
<title>Node5</title>
<g id="a_node5"><a xlink:href="../../d0/dd9/classcflite_1_1eazyaigen_1_1parser_1_1Parser.html#a103d6d5cdd8ecb125a4021b62bd3aff7" target="_top" xlink:title=" ">
<polygon fill="none" stroke="black" points="70.5,-236 70.5,-255 102.5,-255 102.5,-236 70.5,-236"/>
<text text-anchor="middle" x="86.5" y="-243" font-family="Helvetica,sans-Serif" font-size="10.00">run</text>
</a>
</g>
</g>
<!-- Node1&#45;&gt;Node5 -->
<g id="edge4" class="edge">
<title>Node1&#45;&gt;Node5</title>
<path fill="none" stroke="midnightblue" d="M222.62,-213.77C206.95,-217.94 189.23,-222.55 173,-226.5 148.47,-232.47 119.8,-238.68 102.68,-242.32"/>
<polygon fill="midnightblue" stroke="midnightblue" points="223.83,-217.07 232.58,-211.09 222.01,-210.3 223.83,-217.07"/>
</g>
<!-- Node6 -->
<g id="node6" class="node">
<title>Node6</title>
<g id="a_node6"><a xlink:href="../../d7/df3/classcflite_1_1eazyaisys_1_1fastvideo_1_1VideoSession.html#ad22709b2e67308af35f55680d5a026e0" target="_top" xlink:title=" ">
<polygon fill="none" stroke="black" points="14,-186.5 14,-216.5 159,-216.5 159,-186.5 14,-186.5"/>
<text text-anchor="start" x="22" y="-204.5" font-family="Helvetica,sans-Serif" font-size="10.00">cflite.eazyaisys.fastvideo.</text>
<text text-anchor="middle" x="86.5" y="-193.5" font-family="Helvetica,sans-Serif" font-size="10.00">VideoSession.run</text>
</a>
</g>
</g>
<!-- Node1&#45;&gt;Node6 -->
<g id="edge5" class="edge">
<title>Node1&#45;&gt;Node6</title>
<path fill="none" stroke="midnightblue" d="M198.4,-201.5C185.53,-201.5 172.07,-201.5 159.13,-201.5"/>
<polygon fill="midnightblue" stroke="midnightblue" points="198.56,-205 208.56,-201.5 198.56,-198 198.56,-205"/>
</g>
<!-- Node7 -->
<g id="node7" class="node">
<title>Node7</title>
<g id="a_node7"><a xlink:href="../../d5/de0/classcflite_1_1eazyaiinf_1_1dummymode_1_1DummyMode.html#a15180f30e49a79272f83ca50ddd3368f" target="_top" xlink:title=" ">
<polygon fill="none" stroke="black" points="6.5,-137.5 6.5,-167.5 166.5,-167.5 166.5,-137.5 6.5,-137.5"/>
<text text-anchor="start" x="14.5" y="-155.5" font-family="Helvetica,sans-Serif" font-size="10.00">cflite.eazyaiinf.dummymode.</text>
<text text-anchor="middle" x="86.5" y="-144.5" font-family="Helvetica,sans-Serif" font-size="10.00">DummyMode.run_non_block</text>
</a>
</g>
</g>
<!-- Node1&#45;&gt;Node7 -->
<g id="edge6" class="edge">
<title>Node1&#45;&gt;Node7</title>
<path fill="none" stroke="midnightblue" d="M222.4,-189.22C198.24,-182.65 168.28,-174.49 142.74,-167.54"/>
<polygon fill="midnightblue" stroke="midnightblue" points="221.8,-192.69 232.37,-191.94 223.64,-185.93 221.8,-192.69"/>
</g>
<!-- Node8 -->
<g id="node8" class="node">
<title>Node8</title>
<g id="a_node8"><a xlink:href="../../dd/d96/classcflite_1_1eazyaiinf_1_1livemode_1_1LiveMode.html#a15180f30e49a79272f83ca50ddd3368f" target="_top" xlink:title=" ">
<polygon fill="none" stroke="black" points="16.5,-88.5 16.5,-118.5 156.5,-118.5 156.5,-88.5 16.5,-88.5"/>
<text text-anchor="start" x="24.5" y="-106.5" font-family="Helvetica,sans-Serif" font-size="10.00">cflite.eazyaiinf.livemode.</text>
<text text-anchor="middle" x="86.5" y="-95.5" font-family="Helvetica,sans-Serif" font-size="10.00">LiveMode.run_non_block</text>
</a>
</g>
</g>
<!-- Node1&#45;&gt;Node8 -->
<g id="edge7" class="edge">
<title>Node1&#45;&gt;Node8</title>
<path fill="none" stroke="midnightblue" d="M250.21,-184.89C232.24,-168.44 202.64,-143.6 173,-128.5 165.56,-124.71 157.45,-121.41 149.29,-118.55"/>
<polygon fill="midnightblue" stroke="midnightblue" points="247.91,-187.52 257.61,-191.79 252.69,-182.41 247.91,-187.52"/>
</g>
<!-- Node9 -->
<g id="node9" class="node">
<title>Node9</title>
<g id="a_node9"><a xlink:href="../../d0/dd9/classcflite_1_1eazyaigen_1_1parser_1_1Parser.html#ae842132494a52d538bf11b8f127c9f2a" target="_top" xlink:title=" ">
<polygon fill="none" stroke="black" points="21,-50 21,-69 152,-69 152,-50 21,-50"/>
<text text-anchor="middle" x="86.5" y="-57" font-family="Helvetica,sans-Serif" font-size="10.00">run_with_dummy_input</text>
</a>
</g>
</g>
<!-- Node1&#45;&gt;Node9 -->
<g id="edge8" class="edge">
<title>Node1&#45;&gt;Node9</title>
<path fill="none" stroke="midnightblue" d="M258.19,-182.52C243.82,-155.29 213.58,-105.56 173,-79.5 166.2,-75.13 158.55,-71.72 150.7,-69.05"/>
<polygon fill="midnightblue" stroke="midnightblue" points="255.24,-184.44 262.91,-191.76 261.48,-181.26 255.24,-184.44"/>
</g>
<!-- Node10 -->
<g id="node10" class="node">
<title>Node10</title>
<g id="a_node10"><a xlink:href="../../db/deb/classcflite_1_1eazyaigen_1_1theoryperf_1_1TheoryPerf.html#a08d517af7fce800ad7b5573cdec5a270" target="_top" xlink:title=" ">
<polygon fill="none" stroke="black" points="0,-0.5 0,-30.5 173,-30.5 173,-0.5 0,-0.5"/>
<text text-anchor="start" x="8" y="-18.5" font-family="Helvetica,sans-Serif" font-size="10.00">cflite.eazyaigen.theoryperf.</text>
<text text-anchor="middle" x="86.5" y="-7.5" font-family="Helvetica,sans-Serif" font-size="10.00">TheoryPerf.set_vas_output_path</text>
</a>
</g>
</g>
<!-- Node1&#45;&gt;Node10 -->
<g id="edge9" class="edge">
<title>Node1&#45;&gt;Node10</title>
<path fill="none" stroke="midnightblue" d="M261.49,-182.19C249.94,-148.33 221.43,-78.26 173,-40.5 168,-36.6 162.41,-33.31 156.54,-30.53"/>
<polygon fill="midnightblue" stroke="midnightblue" points="258.2,-183.41 264.64,-191.83 264.86,-181.23 258.2,-183.41"/>
</g>
</g>
</svg>
