<?xml version="1.0" encoding="UTF-8" standalone="no"?>
<!DOCTYPE svg PUBLIC "-//W3C//DTD SVG 1.1//EN"
 "http://www.w3.org/Graphics/SVG/1.1/DTD/svg11.dtd">
<!-- Generated by graphviz version 2.43.0 (0)
 -->
<!-- Title: eazyaigen Pages: 1 -->
<svg width="402pt" height="323pt"
 viewBox="0.00 0.00 402.00 323.00" xmlns="http://www.w3.org/2000/svg" xmlns:xlink="http://www.w3.org/1999/xlink">
<g id="graph0" class="graph" transform="scale(1 1) rotate(0) translate(4 319)">
<title>eazyaigen</title>
<!-- Node11 -->
<g id="node1" class="node">
<title>Node11</title>
<g id="a_node1"><a xlink:href="../../dd/d2d/group__cflite-eazyaigen-theoryperf.html" target="_top" xlink:title="Definition of eazyaigen.theoryperf.">
<polygon fill="none" stroke="black" points="377.5,-315 256.5,-315 256.5,-296 377.5,-296 377.5,-315"/>
<text text-anchor="middle" x="317" y="-303" font-family="Helvetica,sans-Serif" font-size="10.00">eazyaigen.theoryperf</text>
</a>
</g>
</g>
<!-- Node2 -->
<g id="node2" class="node">
<title>Node2</title>
<g id="a_node2"><a xlink:href="../../db/d01/group__cflite-api.html" target="_top" xlink:title="CFLite library API.">
<polygon fill="none" stroke="black" points="101,-167 0,-167 0,-148 101,-148 101,-167"/>
<text text-anchor="middle" x="50.5" y="-155" font-family="Helvetica,sans-Serif" font-size="10.00">CFLite library API</text>
</a>
</g>
</g>
<!-- Node1 -->
<g id="node8" class="node">
<title>Node1</title>
<g id="a_node8"><a xlink:title="Definition of eazyaigen.">
<polygon fill="#bfbfbf" stroke="black" points="204,-167 137,-167 137,-148 204,-148 204,-167"/>
<text text-anchor="middle" x="170.5" y="-155" font-family="Helvetica,sans-Serif" font-size="10.00">eazyaigen</text>
</a>
</g>
</g>
<!-- Node2&#45;&gt;Node1 -->
<g id="edge1" class="edge">
<title>Node2&#45;&gt;Node1</title>
<path fill="none" stroke="black" d="M111.48,-157.5C120.27,-157.5 129.03,-157.5 136.98,-157.5"/>
<polygon fill="black" stroke="black" points="111.2,-154 101.2,-157.5 111.2,-161 111.2,-154"/>
</g>
<!-- Node5 -->
<g id="node3" class="node">
<title>Node5</title>
<g id="a_node3"><a xlink:href="../../dc/de1/group__cflite-eazyaigen-parser.html" target="_top" xlink:title="Definition of eazyaigen.parser.">
<polygon fill="none" stroke="black" points="367.5,-278 266.5,-278 266.5,-259 367.5,-259 367.5,-278"/>
<text text-anchor="middle" x="317" y="-266" font-family="Helvetica,sans-Serif" font-size="10.00">eazyaigen.parser</text>
</a>
</g>
</g>
<!-- Node6 -->
<g id="node4" class="node">
<title>Node6</title>
<g id="a_node4"><a xlink:href="../../d9/d64/group__cflite-eazyaigen-cvb.html" target="_top" xlink:title="Definition of eazyaigen.cvbackend.">
<polygon fill="none" stroke="black" points="378,-241 256,-241 256,-222 378,-222 378,-241"/>
<text text-anchor="middle" x="317" y="-229" font-family="Helvetica,sans-Serif" font-size="10.00">eazyaigen.cvbackend</text>
</a>
</g>
</g>
<!-- Node7 -->
<g id="node5" class="node">
<title>Node7</title>
<g id="a_node5"><a xlink:href="../../d4/d03/group__cflite-eazyaigen-vas.html" target="_top" xlink:title="Definition of eazyaigen.vas.">
<polygon fill="none" stroke="black" points="360.5,-204 273.5,-204 273.5,-185 360.5,-185 360.5,-204"/>
<text text-anchor="middle" x="317" y="-192" font-family="Helvetica,sans-Serif" font-size="10.00">eazyaigen.vas</text>
</a>
</g>
</g>
<!-- Node10 -->
<g id="node6" class="node">
<title>Node10</title>
<g id="a_node6"><a xlink:href="../../d6/d08/group__cflite-eazyaigen-export.html" target="_top" xlink:title="Definition of eazyaigen.export.">
<polygon fill="none" stroke="black" points="367.5,-167 266.5,-167 266.5,-148 367.5,-148 367.5,-167"/>
<text text-anchor="middle" x="317" y="-155" font-family="Helvetica,sans-Serif" font-size="10.00">eazyaigen.export</text>
</a>
</g>
</g>
<!-- Node3 -->
<g id="node7" class="node">
<title>Node3</title>
<g id="a_node7"><a xlink:href="../../db/d1f/group__cflite-eazyaigen-modelpreprocess.html" target="_top" xlink:title="Definition of eazyaigen.modelpreprocess.">
<polygon fill="none" stroke="black" points="394,-130 240,-130 240,-111 394,-111 394,-130"/>
<text text-anchor="middle" x="317" y="-118" font-family="Helvetica,sans-Serif" font-size="10.00">eazyaigen.modelpreprocess</text>
</a>
</g>
</g>
<!-- Node1&#45;&gt;Node11 -->
<g id="edge10" class="edge">
<title>Node1&#45;&gt;Node11</title>
<path fill="none" stroke="black" d="M176.19,-176.78C184.21,-205.48 203.34,-259.1 240,-287.5 244.93,-291.32 250.54,-294.35 256.43,-296.75"/>
<polygon fill="black" stroke="black" points="179.58,-175.89 173.65,-167.11 172.81,-177.67 179.58,-175.89"/>
</g>
<!-- Node1&#45;&gt;Node5 -->
<g id="edge4" class="edge">
<title>Node1&#45;&gt;Node5</title>
<path fill="none" stroke="black" d="M180.19,-176.2C191.1,-197.53 211.84,-231.88 240,-250.5 247.92,-255.74 257.19,-259.45 266.48,-262.09"/>
<polygon fill="black" stroke="black" points="183.3,-174.59 175.76,-167.15 177.02,-177.67 183.3,-174.59"/>
</g>
<!-- Node1&#45;&gt;Node6 -->
<g id="edge5" class="edge">
<title>Node1&#45;&gt;Node6</title>
<path fill="none" stroke="black" d="M187.95,-174.63C200.95,-187.19 220.16,-203.69 240,-213.5 246.93,-216.92 254.54,-219.72 262.19,-221.99"/>
<polygon fill="black" stroke="black" points="190.26,-171.99 180.71,-167.41 185.32,-176.95 190.26,-171.99"/>
</g>
<!-- Node1&#45;&gt;Node7 -->
<g id="edge6" class="edge">
<title>Node1&#45;&gt;Node7</title>
<path fill="none" stroke="black" d="M214.03,-169.57C222.61,-171.92 231.58,-174.34 240,-176.5 251.16,-179.37 263.29,-182.32 274.51,-184.98"/>
<polygon fill="black" stroke="black" points="214.76,-166.14 204.18,-166.84 212.89,-172.88 214.76,-166.14"/>
</g>
<!-- Node1&#45;&gt;Node10 -->
<g id="edge9" class="edge">
<title>Node1&#45;&gt;Node10</title>
<path fill="none" stroke="black" d="M214.59,-157.5C230.86,-157.5 249.49,-157.5 266.32,-157.5"/>
<polygon fill="black" stroke="black" points="214.29,-154 204.29,-157.5 214.29,-161 214.29,-154"/>
</g>
<!-- Node1&#45;&gt;Node3 -->
<g id="edge2" class="edge">
<title>Node1&#45;&gt;Node3</title>
<path fill="none" stroke="black" d="M214.03,-145.43C222.61,-143.08 231.58,-140.66 240,-138.5 251.16,-135.63 263.29,-132.68 274.51,-130.02"/>
<polygon fill="black" stroke="black" points="212.89,-142.12 204.18,-148.16 214.76,-148.86 212.89,-142.12"/>
</g>
<!-- Node8 -->
<g id="node9" class="node">
<title>Node8</title>
<g id="a_node9"><a xlink:href="../../d8/d8d/group__cflite-eazyaigen-cavalry.html" target="_top" xlink:title="Definition of eazyaigen.cavalrygen.">
<polygon fill="none" stroke="black" points="379,-93 255,-93 255,-74 379,-74 379,-93"/>
<text text-anchor="middle" x="317" y="-81" font-family="Helvetica,sans-Serif" font-size="10.00">eazyaigen.cavalrygen</text>
</a>
</g>
</g>
<!-- Node1&#45;&gt;Node8 -->
<g id="edge7" class="edge">
<title>Node1&#45;&gt;Node8</title>
<path fill="none" stroke="black" d="M187.95,-140.37C200.95,-127.81 220.16,-111.31 240,-101.5 246.93,-98.08 254.54,-95.28 262.19,-93.01"/>
<polygon fill="black" stroke="black" points="185.32,-138.05 180.71,-147.59 190.26,-143.01 185.32,-138.05"/>
</g>
<!-- Node4 -->
<g id="node10" class="node">
<title>Node4</title>
<g id="a_node10"><a xlink:href="../../dc/dcb/group__cflite-eazyaigen-dataprepare.html" target="_top" xlink:title="Definition of eazyaigen.dataprepare.">
<polygon fill="none" stroke="black" points="381.5,-56 252.5,-56 252.5,-37 381.5,-37 381.5,-56"/>
<text text-anchor="middle" x="317" y="-44" font-family="Helvetica,sans-Serif" font-size="10.00">eazyaigen.dataprepare</text>
</a>
</g>
</g>
<!-- Node1&#45;&gt;Node4 -->
<g id="edge3" class="edge">
<title>Node1&#45;&gt;Node4</title>
<path fill="none" stroke="black" d="M180.19,-138.8C191.1,-117.47 211.84,-83.12 240,-64.5 245.2,-61.06 250.99,-58.27 256.98,-56.02"/>
<polygon fill="black" stroke="black" points="177.02,-137.33 175.76,-147.85 183.3,-140.41 177.02,-137.33"/>
</g>
<!-- Node9 -->
<g id="node11" class="node">
<title>Node9</title>
<g id="a_node11"><a xlink:href="../../da/dcb/group__cflite-eazyaigen-layercompare.html" target="_top" xlink:title="Definition of eazyaigen.layercompare.">
<polygon fill="none" stroke="black" points="385.5,-19 248.5,-19 248.5,0 385.5,0 385.5,-19"/>
<text text-anchor="middle" x="317" y="-7" font-family="Helvetica,sans-Serif" font-size="10.00">eazyaigen.layercompare</text>
</a>
</g>
</g>
<!-- Node1&#45;&gt;Node9 -->
<g id="edge8" class="edge">
<title>Node1&#45;&gt;Node9</title>
<path fill="none" stroke="black" d="M176.19,-138.22C184.21,-109.52 203.34,-55.9 240,-27.5 244.39,-24.09 249.33,-21.32 254.52,-19.06"/>
<polygon fill="black" stroke="black" points="172.81,-137.33 173.65,-147.89 179.58,-139.11 172.81,-137.33"/>
</g>
</g>
</svg>
