<?xml version="1.0" encoding="UTF-8" standalone="no"?>
<!DOCTYPE svg PUBLIC "-//W3C//DTD SVG 1.1//EN"
 "http://www.w3.org/Graphics/SVG/1.1/DTD/svg11.dtd">
<!-- Generated by graphviz version 2.43.0 (0)
 -->
<!-- Title: connect Pages: 1 -->
<svg width="187pt" height="218pt"
 viewBox="0.00 0.00 187.00 218.00" xmlns="http://www.w3.org/2000/svg" xmlns:xlink="http://www.w3.org/1999/xlink">
<g id="graph0" class="graph" transform="scale(1 1) rotate(0) translate(4 214)">
<title>connect</title>
<!-- Node1 -->
<g id="node1" class="node">
<title>Node1</title>
<g id="a_node1"><a xlink:title=" ">
<polygon fill="#bfbfbf" stroke="black" points="124,-95.5 124,-114.5 179,-114.5 179,-95.5 124,-95.5"/>
<text text-anchor="middle" x="151.5" y="-102.5" font-family="Helvetica,sans-Serif" font-size="10.00">connect</text>
</a>
</g>
</g>
<!-- Node2 -->
<g id="node2" class="node">
<title>Node2</title>
<g id="a_node2"><a xlink:href="../../d6/d1b/classcflite_1_1eazyaisys_1_1filesession_1_1FileSession.html#a8468a4a3feb2014c9ecc03033362b346" target="_top" xlink:title=" ">
<polygon fill="none" stroke="black" points="3,-190.5 3,-209.5 85,-209.5 85,-190.5 3,-190.5"/>
<text text-anchor="middle" x="44" y="-197.5" font-family="Helvetica,sans-Serif" font-size="10.00">download_dir</text>
</a>
</g>
</g>
<!-- Node1&#45;&gt;Node2 -->
<g id="edge1" class="edge">
<title>Node1&#45;&gt;Node2</title>
<path fill="none" stroke="midnightblue" d="M139.26,-123.05C128.01,-139.89 109.35,-164.79 88,-181 83.19,-184.65 77.57,-187.78 72,-190.38"/>
<polygon fill="midnightblue" stroke="midnightblue" points="142.21,-124.93 144.71,-114.63 136.34,-121.12 142.21,-124.93"/>
</g>
<!-- Node3 -->
<g id="node3" class="node">
<title>Node3</title>
<g id="a_node3"><a xlink:href="../../d6/d1b/classcflite_1_1eazyaisys_1_1filesession_1_1FileSession.html#a2cc4f6189eafeec632e50522c87b73f5" target="_top" xlink:title=" ">
<polygon fill="none" stroke="black" points="1.5,-152.5 1.5,-171.5 86.5,-171.5 86.5,-152.5 1.5,-152.5"/>
<text text-anchor="middle" x="44" y="-159.5" font-family="Helvetica,sans-Serif" font-size="10.00">download_file</text>
</a>
</g>
</g>
<!-- Node1&#45;&gt;Node3 -->
<g id="edge2" class="edge">
<title>Node1&#45;&gt;Node3</title>
<path fill="none" stroke="midnightblue" d="M127.28,-120.11C115.69,-127.4 101.32,-136.04 88,-143 81.63,-146.32 74.56,-149.61 68.02,-152.49"/>
<polygon fill="midnightblue" stroke="midnightblue" points="129.36,-122.94 135.91,-114.62 125.6,-117.03 129.36,-122.94"/>
</g>
<!-- Node4 -->
<g id="node4" class="node">
<title>Node4</title>
<g id="a_node4"><a xlink:href="../../d6/d1b/classcflite_1_1eazyaisys_1_1filesession_1_1FileSession.html#aa40eb25b36c0bf6bb2cb3f9231ec0c56" target="_top" xlink:title=" ">
<polygon fill="none" stroke="black" points="6.5,-114.5 6.5,-133.5 81.5,-133.5 81.5,-114.5 6.5,-114.5"/>
<text text-anchor="middle" x="44" y="-121.5" font-family="Helvetica,sans-Serif" font-size="10.00">remove_file</text>
</a>
</g>
</g>
<!-- Node1&#45;&gt;Node4 -->
<g id="edge3" class="edge">
<title>Node1&#45;&gt;Node4</title>
<path fill="none" stroke="midnightblue" d="M113.82,-111.61C103.38,-113.49 92.01,-115.53 81.57,-117.41"/>
<polygon fill="midnightblue" stroke="midnightblue" points="114.66,-115.01 123.88,-109.79 113.42,-108.12 114.66,-115.01"/>
</g>
<!-- Node5 -->
<g id="node5" class="node">
<title>Node5</title>
<g id="a_node5"><a xlink:href="../../d6/d1b/classcflite_1_1eazyaisys_1_1filesession_1_1FileSession.html#a561fc8c6a55624ed51d4c46028650a0d" target="_top" xlink:title=" ">
<polygon fill="none" stroke="black" points="0,-76.5 0,-95.5 88,-95.5 88,-76.5 0,-76.5"/>
<text text-anchor="middle" x="44" y="-83.5" font-family="Helvetica,sans-Serif" font-size="10.00">remove_folder</text>
</a>
</g>
</g>
<!-- Node1&#45;&gt;Node5 -->
<g id="edge4" class="edge">
<title>Node1&#45;&gt;Node5</title>
<path fill="none" stroke="midnightblue" d="M114.02,-98.43C105.65,-96.92 96.66,-95.3 88.03,-93.75"/>
<polygon fill="midnightblue" stroke="midnightblue" points="113.42,-101.88 123.88,-100.21 114.66,-94.99 113.42,-101.88"/>
</g>
<!-- Node6 -->
<g id="node6" class="node">
<title>Node6</title>
<g id="a_node6"><a xlink:href="../../d6/d1b/classcflite_1_1eazyaisys_1_1filesession_1_1FileSession.html#a600e652a76df71f5a7bcad5be0850f51" target="_top" xlink:title=" ">
<polygon fill="none" stroke="black" points="10,-38.5 10,-57.5 78,-57.5 78,-38.5 10,-38.5"/>
<text text-anchor="middle" x="44" y="-45.5" font-family="Helvetica,sans-Serif" font-size="10.00">upload_dir</text>
</a>
</g>
</g>
<!-- Node1&#45;&gt;Node6 -->
<g id="edge5" class="edge">
<title>Node1&#45;&gt;Node6</title>
<path fill="none" stroke="midnightblue" d="M127.28,-89.89C115.69,-82.6 101.32,-73.96 88,-67 81.63,-63.68 74.56,-60.39 68.02,-57.51"/>
<polygon fill="midnightblue" stroke="midnightblue" points="125.6,-92.97 135.91,-95.38 129.36,-87.06 125.6,-92.97"/>
</g>
<!-- Node7 -->
<g id="node7" class="node">
<title>Node7</title>
<g id="a_node7"><a xlink:href="../../d6/d1b/classcflite_1_1eazyaisys_1_1filesession_1_1FileSession.html#aafeb4849d537bce345eee27e4fa9549f" target="_top" xlink:title=" ">
<polygon fill="none" stroke="black" points="8.5,-0.5 8.5,-19.5 79.5,-19.5 79.5,-0.5 8.5,-0.5"/>
<text text-anchor="middle" x="44" y="-7.5" font-family="Helvetica,sans-Serif" font-size="10.00">upload_file</text>
</a>
</g>
</g>
<!-- Node1&#45;&gt;Node7 -->
<g id="edge6" class="edge">
<title>Node1&#45;&gt;Node7</title>
<path fill="none" stroke="midnightblue" d="M139.26,-86.95C128.01,-70.11 109.35,-45.21 88,-29 83.19,-25.35 77.57,-22.22 72,-19.62"/>
<polygon fill="midnightblue" stroke="midnightblue" points="136.34,-88.88 144.71,-95.37 142.21,-85.07 136.34,-88.88"/>
</g>
</g>
</svg>
