<?xml version="1.0" encoding="UTF-8" standalone="no"?>
<!DOCTYPE svg PUBLIC "-//W3C//DTD SVG 1.1//EN"
 "http://www.w3.org/Graphics/SVG/1.1/DTD/svg11.dtd">
<!-- Generated by graphviz version 2.43.0 (0)
 -->
<!-- Title: download_file Pages: 1 -->
<svg width="286pt" height="78pt"
 viewBox="0.00 0.00 286.00 77.50" xmlns="http://www.w3.org/2000/svg" xmlns:xlink="http://www.w3.org/1999/xlink">
<g id="graph0" class="graph" transform="scale(1 1) rotate(0) translate(4 73.5)">
<title>download_file</title>
<!-- Node1 -->
<g id="node1" class="node">
<title>Node1</title>
<g id="a_node1"><a xlink:title=" ">
<polygon fill="#bfbfbf" stroke="black" points="0,-28 0,-47 85,-47 85,-28 0,-28"/>
<text text-anchor="middle" x="42.5" y="-35" font-family="Helvetica,sans-Serif" font-size="10.00">download_file</text>
</a>
</g>
</g>
<!-- Node2 -->
<g id="node2" class="node">
<title>Node2</title>
<g id="a_node2"><a xlink:href="../../d6/d1b/classcflite_1_1eazyaisys_1_1filesession_1_1FileSession.html#a70b49eaaa777c1fb9cd973b39c350d48" target="_top" xlink:title=" ">
<polygon fill="none" stroke="black" points="172,-50 172,-69 227,-69 227,-50 172,-50"/>
<text text-anchor="middle" x="199.5" y="-57" font-family="Helvetica,sans-Serif" font-size="10.00">connect</text>
</a>
</g>
</g>
<!-- Node1&#45;&gt;Node2 -->
<g id="edge1" class="edge">
<title>Node1&#45;&gt;Node2</title>
<path fill="none" stroke="midnightblue" d="M85.04,-43.4C108.99,-46.8 138.83,-51.03 161.89,-54.3"/>
<polygon fill="midnightblue" stroke="midnightblue" points="161.58,-57.79 171.97,-55.73 162.56,-50.86 161.58,-57.79"/>
</g>
<!-- Node3 -->
<g id="node3" class="node">
<title>Node3</title>
<g id="a_node3"><a xlink:href="../../de/ddc/classcflite_1_1eazyaisys_1_1cmdsession_1_1Session.html#ade946285584029716ad562ad905238c0" target="_top" xlink:title=" ">
<polygon fill="none" stroke="black" points="121,-0.5 121,-30.5 278,-30.5 278,-0.5 121,-0.5"/>
<text text-anchor="start" x="129" y="-18.5" font-family="Helvetica,sans-Serif" font-size="10.00">cflite.eazyaisys.cmdsession.</text>
<text text-anchor="middle" x="199.5" y="-7.5" font-family="Helvetica,sans-Serif" font-size="10.00">Session.connect</text>
</a>
</g>
</g>
<!-- Node1&#45;&gt;Node3 -->
<g id="edge2" class="edge">
<title>Node1&#45;&gt;Node3</title>
<path fill="none" stroke="midnightblue" d="M85.04,-31.6C93.12,-30.46 101.87,-29.22 110.8,-27.95"/>
<polygon fill="midnightblue" stroke="midnightblue" points="111.53,-31.38 120.94,-26.51 110.54,-24.45 111.53,-31.38"/>
</g>
</g>
</svg>
