<?xml version="1.0" encoding="UTF-8" standalone="no"?>
<!DOCTYPE svg PUBLIC "-//W3C//DTD SVG 1.1//EN"
 "http://www.w3.org/Graphics/SVG/1.1/DTD/svg11.dtd">
<!-- Generated by graphviz version 2.43.0 (0)
 -->
<!-- Title: upload_dir Pages: 1 -->
<svg width="269pt" height="78pt"
 viewBox="0.00 0.00 269.00 77.50" xmlns="http://www.w3.org/2000/svg" xmlns:xlink="http://www.w3.org/1999/xlink">
<g id="graph0" class="graph" transform="scale(1 1) rotate(0) translate(4 73.5)">
<title>upload_dir</title>
<!-- Node1 -->
<g id="node1" class="node">
<title>Node1</title>
<g id="a_node1"><a xlink:title=" ">
<polygon fill="#bfbfbf" stroke="black" points="0,-28 0,-47 68,-47 68,-28 0,-28"/>
<text text-anchor="middle" x="34" y="-35" font-family="Helvetica,sans-Serif" font-size="10.00">upload_dir</text>
</a>
</g>
</g>
<!-- Node2 -->
<g id="node2" class="node">
<title>Node2</title>
<g id="a_node2"><a xlink:href="../../d6/d1b/classcflite_1_1eazyaisys_1_1filesession_1_1FileSession.html#a70b49eaaa777c1fb9cd973b39c350d48" target="_top" xlink:title=" ">
<polygon fill="none" stroke="black" points="155,-50 155,-69 210,-69 210,-50 155,-50"/>
<text text-anchor="middle" x="182.5" y="-57" font-family="Helvetica,sans-Serif" font-size="10.00">connect</text>
</a>
</g>
</g>
<!-- Node1&#45;&gt;Node2 -->
<g id="edge1" class="edge">
<title>Node1&#45;&gt;Node2</title>
<path fill="none" stroke="midnightblue" d="M68.24,-42.49C91.04,-45.92 121.29,-50.46 144.8,-53.99"/>
<polygon fill="midnightblue" stroke="midnightblue" points="144.34,-57.46 154.74,-55.48 145.37,-50.54 144.34,-57.46"/>
</g>
<!-- Node3 -->
<g id="node3" class="node">
<title>Node3</title>
<g id="a_node3"><a xlink:href="../../de/ddc/classcflite_1_1eazyaisys_1_1cmdsession_1_1Session.html#ade946285584029716ad562ad905238c0" target="_top" xlink:title=" ">
<polygon fill="none" stroke="black" points="104,-0.5 104,-30.5 261,-30.5 261,-0.5 104,-0.5"/>
<text text-anchor="start" x="112" y="-18.5" font-family="Helvetica,sans-Serif" font-size="10.00">cflite.eazyaisys.cmdsession.</text>
<text text-anchor="middle" x="182.5" y="-7.5" font-family="Helvetica,sans-Serif" font-size="10.00">Session.connect</text>
</a>
</g>
</g>
<!-- Node1&#45;&gt;Node3 -->
<g id="edge2" class="edge">
<title>Node1&#45;&gt;Node3</title>
<path fill="none" stroke="midnightblue" d="M68.24,-32.51C76.12,-31.33 84.88,-30.01 93.95,-28.65"/>
<polygon fill="midnightblue" stroke="midnightblue" points="94.51,-32.1 103.88,-27.16 93.47,-25.18 94.51,-32.1"/>
</g>
</g>
</svg>
