<?xml version="1.0" encoding="UTF-8" standalone="no"?>
<!DOCTYPE svg PUBLIC "-//W3C//DTD SVG 1.1//EN"
 "http://www.w3.org/Graphics/SVG/1.1/DTD/svg11.dtd">
<!-- Generated by graphviz version 2.43.0 (0)
 -->
<!-- Title: download_dir Pages: 1 -->
<svg width="283pt" height="78pt"
 viewBox="0.00 0.00 283.00 77.50" xmlns="http://www.w3.org/2000/svg" xmlns:xlink="http://www.w3.org/1999/xlink">
<g id="graph0" class="graph" transform="scale(1 1) rotate(0) translate(4 73.5)">
<title>download_dir</title>
<!-- Node1 -->
<g id="node1" class="node">
<title>Node1</title>
<g id="a_node1"><a xlink:title=" ">
<polygon fill="#bfbfbf" stroke="black" points="0,-28 0,-47 82,-47 82,-28 0,-28"/>
<text text-anchor="middle" x="41" y="-35" font-family="Helvetica,sans-Serif" font-size="10.00">download_dir</text>
</a>
</g>
</g>
<!-- Node2 -->
<g id="node2" class="node">
<title>Node2</title>
<g id="a_node2"><a xlink:href="../../d6/d1b/classcflite_1_1eazyaisys_1_1filesession_1_1FileSession.html#a70b49eaaa777c1fb9cd973b39c350d48" target="_top" xlink:title=" ">
<polygon fill="none" stroke="black" points="169,-50 169,-69 224,-69 224,-50 169,-50"/>
<text text-anchor="middle" x="196.5" y="-57" font-family="Helvetica,sans-Serif" font-size="10.00">connect</text>
</a>
</g>
</g>
<!-- Node1&#45;&gt;Node2 -->
<g id="edge1" class="edge">
<title>Node1&#45;&gt;Node2</title>
<path fill="none" stroke="midnightblue" d="M82.33,-43.28C106.06,-46.68 135.82,-50.95 158.88,-54.25"/>
<polygon fill="midnightblue" stroke="midnightblue" points="158.55,-57.74 168.95,-55.69 159.55,-50.81 158.55,-57.74"/>
</g>
<!-- Node3 -->
<g id="node3" class="node">
<title>Node3</title>
<g id="a_node3"><a xlink:href="../../de/ddc/classcflite_1_1eazyaisys_1_1cmdsession_1_1Session.html#ade946285584029716ad562ad905238c0" target="_top" xlink:title=" ">
<polygon fill="none" stroke="black" points="118,-0.5 118,-30.5 275,-30.5 275,-0.5 118,-0.5"/>
<text text-anchor="start" x="126" y="-18.5" font-family="Helvetica,sans-Serif" font-size="10.00">cflite.eazyaisys.cmdsession.</text>
<text text-anchor="middle" x="196.5" y="-7.5" font-family="Helvetica,sans-Serif" font-size="10.00">Session.connect</text>
</a>
</g>
</g>
<!-- Node1&#45;&gt;Node3 -->
<g id="edge2" class="edge">
<title>Node1&#45;&gt;Node3</title>
<path fill="none" stroke="midnightblue" d="M82.33,-31.72C90.27,-30.58 98.88,-29.35 107.7,-28.08"/>
<polygon fill="midnightblue" stroke="midnightblue" points="108.3,-31.53 117.71,-26.65 107.31,-24.6 108.3,-31.53"/>
</g>
</g>
</svg>
