<?xml version="1.0" encoding="UTF-8" standalone="no"?>
<!DOCTYPE svg PUBLIC "-//W3C//DTD SVG 1.1//EN"
 "http://www.w3.org/Graphics/SVG/1.1/DTD/svg11.dtd">
<!-- Generated by graphviz version 2.43.0 (0)
 -->
<!-- Title: remove_folder Pages: 1 -->
<svg width="289pt" height="78pt"
 viewBox="0.00 0.00 289.00 77.50" xmlns="http://www.w3.org/2000/svg" xmlns:xlink="http://www.w3.org/1999/xlink">
<g id="graph0" class="graph" transform="scale(1 1) rotate(0) translate(4 73.5)">
<title>remove_folder</title>
<!-- Node1 -->
<g id="node1" class="node">
<title>Node1</title>
<g id="a_node1"><a xlink:title=" ">
<polygon fill="#bfbfbf" stroke="black" points="0,-28 0,-47 88,-47 88,-28 0,-28"/>
<text text-anchor="middle" x="44" y="-35" font-family="Helvetica,sans-Serif" font-size="10.00">remove_folder</text>
</a>
</g>
</g>
<!-- Node2 -->
<g id="node2" class="node">
<title>Node2</title>
<g id="a_node2"><a xlink:href="../../d6/d1b/classcflite_1_1eazyaisys_1_1filesession_1_1FileSession.html#a70b49eaaa777c1fb9cd973b39c350d48" target="_top" xlink:title=" ">
<polygon fill="none" stroke="black" points="175,-50 175,-69 230,-69 230,-50 175,-50"/>
<text text-anchor="middle" x="202.5" y="-57" font-family="Helvetica,sans-Serif" font-size="10.00">connect</text>
</a>
</g>
</g>
<!-- Node1&#45;&gt;Node2 -->
<g id="edge1" class="edge">
<title>Node1&#45;&gt;Node2</title>
<path fill="none" stroke="midnightblue" d="M88.18,-43.57C112.19,-46.94 141.75,-51.1 164.66,-54.32"/>
<polygon fill="midnightblue" stroke="midnightblue" points="164.28,-57.8 174.67,-55.73 165.26,-50.87 164.28,-57.8"/>
</g>
<!-- Node3 -->
<g id="node3" class="node">
<title>Node3</title>
<g id="a_node3"><a xlink:href="../../de/ddc/classcflite_1_1eazyaisys_1_1cmdsession_1_1Session.html#ade946285584029716ad562ad905238c0" target="_top" xlink:title=" ">
<polygon fill="none" stroke="black" points="124,-0.5 124,-30.5 281,-30.5 281,-0.5 124,-0.5"/>
<text text-anchor="start" x="132" y="-18.5" font-family="Helvetica,sans-Serif" font-size="10.00">cflite.eazyaisys.cmdsession.</text>
<text text-anchor="middle" x="202.5" y="-7.5" font-family="Helvetica,sans-Serif" font-size="10.00">Session.connect</text>
</a>
</g>
</g>
<!-- Node1&#45;&gt;Node3 -->
<g id="edge2" class="edge">
<title>Node1&#45;&gt;Node3</title>
<path fill="none" stroke="midnightblue" d="M88.18,-31.43C96.26,-30.29 104.98,-29.07 113.86,-27.82"/>
<polygon fill="midnightblue" stroke="midnightblue" points="114.51,-31.26 123.93,-26.4 113.54,-24.33 114.51,-31.26"/>
</g>
</g>
</svg>
