<?xml version="1.0" encoding="UTF-8" standalone="no"?>
<!DOCTYPE svg PUBLIC "-//W3C//DTD SVG 1.1//EN"
 "http://www.w3.org/Graphics/SVG/1.1/DTD/svg11.dtd">
<!-- Generated by graphviz version 2.43.0 (0)
 -->
<!-- Title: upload_file Pages: 1 -->
<svg width="272pt" height="78pt"
 viewBox="0.00 0.00 272.00 77.50" xmlns="http://www.w3.org/2000/svg" xmlns:xlink="http://www.w3.org/1999/xlink">
<g id="graph0" class="graph" transform="scale(1 1) rotate(0) translate(4 73.5)">
<title>upload_file</title>
<!-- Node1 -->
<g id="node1" class="node">
<title>Node1</title>
<g id="a_node1"><a xlink:title=" ">
<polygon fill="#bfbfbf" stroke="black" points="0,-28 0,-47 71,-47 71,-28 0,-28"/>
<text text-anchor="middle" x="35.5" y="-35" font-family="Helvetica,sans-Serif" font-size="10.00">upload_file</text>
</a>
</g>
</g>
<!-- Node2 -->
<g id="node2" class="node">
<title>Node2</title>
<g id="a_node2"><a xlink:href="../../d6/d1b/classcflite_1_1eazyaisys_1_1filesession_1_1FileSession.html#a70b49eaaa777c1fb9cd973b39c350d48" target="_top" xlink:title=" ">
<polygon fill="none" stroke="black" points="158,-50 158,-69 213,-69 213,-50 158,-50"/>
<text text-anchor="middle" x="185.5" y="-57" font-family="Helvetica,sans-Serif" font-size="10.00">connect</text>
</a>
</g>
</g>
<!-- Node1&#45;&gt;Node2 -->
<g id="edge1" class="edge">
<title>Node1&#45;&gt;Node2</title>
<path fill="none" stroke="midnightblue" d="M71.2,-42.66C94.27,-46.09 124.52,-50.58 147.96,-54.07"/>
<polygon fill="midnightblue" stroke="midnightblue" points="147.47,-57.53 157.88,-55.54 148.5,-50.61 147.47,-57.53"/>
</g>
<!-- Node3 -->
<g id="node3" class="node">
<title>Node3</title>
<g id="a_node3"><a xlink:href="../../de/ddc/classcflite_1_1eazyaisys_1_1cmdsession_1_1Session.html#ade946285584029716ad562ad905238c0" target="_top" xlink:title=" ">
<polygon fill="none" stroke="black" points="107,-0.5 107,-30.5 264,-30.5 264,-0.5 107,-0.5"/>
<text text-anchor="start" x="115" y="-18.5" font-family="Helvetica,sans-Serif" font-size="10.00">cflite.eazyaisys.cmdsession.</text>
<text text-anchor="middle" x="185.5" y="-7.5" font-family="Helvetica,sans-Serif" font-size="10.00">Session.connect</text>
</a>
</g>
</g>
<!-- Node1&#45;&gt;Node3 -->
<g id="edge2" class="edge">
<title>Node1&#45;&gt;Node3</title>
<path fill="none" stroke="midnightblue" d="M71.2,-32.34C79.02,-31.18 87.67,-29.89 96.59,-28.57"/>
<polygon fill="midnightblue" stroke="midnightblue" points="97.39,-31.99 106.76,-27.06 96.36,-25.06 97.39,-31.99"/>
</g>
</g>
</svg>
