<?xml version="1.0" encoding="UTF-8" standalone="no"?>
<!DOCTYPE svg PUBLIC "-//W3C//DTD SVG 1.1//EN"
 "http://www.w3.org/Graphics/SVG/1.1/DTD/svg11.dtd">
<!-- Generated by graphviz version 2.43.0 (0)
 -->
<!-- Title: eazy_download_file Pages: 1 -->
<svg width="351pt" height="78pt"
 viewBox="0.00 0.00 351.00 77.50" xmlns="http://www.w3.org/2000/svg" xmlns:xlink="http://www.w3.org/1999/xlink">
<g id="graph0" class="graph" transform="scale(1 1) rotate(0) translate(4 73.5)">
<title>eazy_download_file</title>
<!-- Node1 -->
<g id="node1" class="node">
<title>Node1</title>
<g id="a_node1"><a xlink:title=" ">
<polygon fill="#bfbfbf" stroke="black" points="230,-22.5 230,-41.5 343,-41.5 343,-22.5 230,-22.5"/>
<text text-anchor="middle" x="286.5" y="-29.5" font-family="Helvetica,sans-Serif" font-size="10.00">eazy_download_file</text>
</a>
</g>
</g>
<!-- Node2 -->
<g id="node2" class="node">
<title>Node2</title>
<g id="a_node2"><a xlink:href="../../d7/df3/classcflite_1_1eazyaisys_1_1fastvideo_1_1VideoSession.html#ad7385324397f089776112a7863fa54ce" target="_top" xlink:title=" ">
<polygon fill="none" stroke="black" points="0,-39 0,-69 194,-69 194,-39 0,-39"/>
<text text-anchor="start" x="8" y="-57" font-family="Helvetica,sans-Serif" font-size="10.00">cflite.eazyaisys.fastvideo.</text>
<text text-anchor="middle" x="97" y="-46" font-family="Helvetica,sans-Serif" font-size="10.00">VideoSession._get_quickipc_params</text>
</a>
</g>
</g>
<!-- Node1&#45;&gt;Node2 -->
<g id="edge1" class="edge">
<title>Node1&#45;&gt;Node2</title>
<path fill="none" stroke="midnightblue" d="M219.82,-39.71C211.52,-40.68 202.91,-41.69 194.26,-42.7"/>
<polygon fill="midnightblue" stroke="midnightblue" points="220.23,-43.18 229.75,-38.54 219.41,-36.23 220.23,-43.18"/>
</g>
<!-- Node3 -->
<g id="node3" class="node">
<title>Node3</title>
<g id="a_node3"><a xlink:href="../../d4/ded/group__cflite-eazyaisys-filesession.html#ga94f00257df58a3ad7820409b8cd9abe1" target="_top" xlink:title=" ">
<polygon fill="none" stroke="black" points="42,-0.5 42,-19.5 152,-19.5 152,-0.5 42,-0.5"/>
<text text-anchor="middle" x="97" y="-7.5" font-family="Helvetica,sans-Serif" font-size="10.00">eazy_download_dir</text>
</a>
</g>
</g>
<!-- Node1&#45;&gt;Node3 -->
<g id="edge2" class="edge">
<title>Node1&#45;&gt;Node3</title>
<path fill="none" stroke="midnightblue" d="M219.79,-24.29C197.71,-21.7 173.34,-18.84 152.24,-16.36"/>
<polygon fill="midnightblue" stroke="midnightblue" points="219.41,-27.77 229.75,-25.46 220.23,-20.82 219.41,-27.77"/>
</g>
</g>
</svg>
