<?xml version="1.0" encoding="UTF-8" standalone="no"?>
<!DOCTYPE svg PUBLIC "-//W3C//DTD SVG 1.1//EN"
 "http://www.w3.org/Graphics/SVG/1.1/DTD/svg11.dtd">
<!-- Generated by graphviz version 2.43.0 (0)
 -->
<!-- Title: eazy_download_dir Pages: 1 -->
<svg width="267pt" height="104pt"
 viewBox="0.00 0.00 267.00 104.00" xmlns="http://www.w3.org/2000/svg" xmlns:xlink="http://www.w3.org/1999/xlink">
<g id="graph0" class="graph" transform="scale(1 1) rotate(0) translate(4 100)">
<title>eazy_download_dir</title>
<!-- Node1 -->
<g id="node1" class="node">
<title>Node1</title>
<g id="a_node1"><a xlink:title=" ">
<polygon fill="#bfbfbf" stroke="black" points="0,-38.5 0,-57.5 110,-57.5 110,-38.5 0,-38.5"/>
<text text-anchor="middle" x="55" y="-45.5" font-family="Helvetica,sans-Serif" font-size="10.00">eazy_download_dir</text>
</a>
</g>
</g>
<!-- Node2 -->
<g id="node2" class="node">
<title>Node2</title>
<g id="a_node2"><a xlink:href="../../d4/ded/group__cflite-eazyaisys-filesession.html#gae4d8a91f4c57e5a17360d668db1799fe" target="_top" xlink:title=" ">
<polygon fill="none" stroke="black" points="146,-76.5 146,-95.5 259,-95.5 259,-76.5 146,-76.5"/>
<text text-anchor="middle" x="202.5" y="-83.5" font-family="Helvetica,sans-Serif" font-size="10.00">eazy_download_file</text>
</a>
</g>
</g>
<!-- Node1&#45;&gt;Node2 -->
<g id="edge1" class="edge">
<title>Node1&#45;&gt;Node2</title>
<path fill="none" stroke="midnightblue" d="M92.72,-57.59C111.66,-62.54 134.96,-68.62 155.13,-73.89"/>
<polygon fill="midnightblue" stroke="midnightblue" points="154.49,-77.34 165.05,-76.48 156.26,-70.57 154.49,-77.34"/>
</g>
<!-- Node3 -->
<g id="node3" class="node">
<title>Node3</title>
<g id="a_node3"><a xlink:href="../../d4/ded/group__cflite-eazyaisys-filesession.html#gae6dbf85b8001b8f7e64b63cd8c4e7371" target="_top" xlink:title=" ">
<polygon fill="none" stroke="black" points="154.5,-38.5 154.5,-57.5 250.5,-57.5 250.5,-38.5 154.5,-38.5"/>
<text text-anchor="middle" x="202.5" y="-45.5" font-family="Helvetica,sans-Serif" font-size="10.00">eazy_upload_dir</text>
</a>
</g>
</g>
<!-- Node1&#45;&gt;Node3 -->
<g id="edge2" class="edge">
<title>Node1&#45;&gt;Node3</title>
<path fill="none" stroke="midnightblue" d="M110.18,-48C121.31,-48 133.07,-48 144.31,-48"/>
<polygon fill="midnightblue" stroke="midnightblue" points="144.45,-51.5 154.45,-48 144.45,-44.5 144.45,-51.5"/>
</g>
<!-- Node4 -->
<g id="node4" class="node">
<title>Node4</title>
<g id="a_node4"><a xlink:href="../../d4/ded/group__cflite-eazyaisys-filesession.html#ga8316dd779e479f7dd940f34a550539b1" target="_top" xlink:title=" ">
<polygon fill="none" stroke="black" points="153,-0.5 153,-19.5 252,-19.5 252,-0.5 153,-0.5"/>
<text text-anchor="middle" x="202.5" y="-7.5" font-family="Helvetica,sans-Serif" font-size="10.00">eazy_upload_file</text>
</a>
</g>
</g>
<!-- Node1&#45;&gt;Node4 -->
<g id="edge3" class="edge">
<title>Node1&#45;&gt;Node4</title>
<path fill="none" stroke="midnightblue" d="M92.72,-38.41C111.66,-33.46 134.96,-27.38 155.13,-22.11"/>
<polygon fill="midnightblue" stroke="midnightblue" points="156.26,-25.43 165.05,-19.52 154.49,-18.66 156.26,-25.43"/>
</g>
</g>
</svg>
