<?xml version="1.0" encoding="UTF-8" standalone="no"?>
<!-- Generator: Adobe Illustrator 24.0.1, SVG Export Plug-In . SVG Version: 6.00 Build 0)  -->

<svg
   version="1.1"
   id="Layer_1"
   x="0px"
   y="0px"
   viewBox="0 0 1500 279.99993"
   xml:space="preserve"
   sodipodi:docname="lychee-logo.svg"
   width="1500"
   height="280"
   inkscape:version="1.3 (0e150ed6c4, 2023-07-21)"
   xmlns:inkscape="http://www.inkscape.org/namespaces/inkscape"
   xmlns:sodipodi="http://sodipodi.sourceforge.net/DTD/sodipodi-0.dtd"
   xmlns:xlink="http://www.w3.org/1999/xlink"
   xmlns="http://www.w3.org/2000/svg"
   xmlns:svg="http://www.w3.org/2000/svg"><sodipodi:namedview
   id="namedview13"
   pagecolor="#505050"
   bordercolor="#ffffff"
   borderopacity="1"
   inkscape:showpageshadow="0"
   inkscape:pageopacity="0"
   inkscape:pagecheckerboard="1"
   inkscape:deskcolor="#d1d1d1"
   inkscape:zoom="0.67333333"
   inkscape:cx="647.52475"
   inkscape:cy="61.633663"
   inkscape:window-width="1920"
   inkscape:window-height="1168"
   inkscape:window-x="0"
   inkscape:window-y="32"
   inkscape:window-maximized="1"
   inkscape:current-layer="Layer_1" />&#10;<style
   type="text/css"
   id="style1">&#10;	.st0{fill:#333333;}&#10;	.st1{fill:url(#SVGID_1_);}&#10;	.st2{filter:url(#Adobe_OpacityMaskFilter);}&#10;	.st3{fill:#FFFFFF;fill-opacity:0;}&#10;	.st4{fill:#FFFFFF;}&#10;	.st5{mask:url(#SVGID_2_);fill:url(#SVGID_3_);}&#10;	.st6{fill:url(#SVGID_4_);}&#10;</style>&#10;&#10;&#10;<defs
   id="defs3"><linearGradient
     id="linearGradient1"
     inkscape:collect="never"><stop
       style="stop-color:#ffffff;stop-opacity:1;"
       offset="0"
       id="stop3" /><stop
       style="stop-color:#ffffff;stop-opacity:0;"
       offset="1"
       id="stop4" /></linearGradient><filter
     id="Adobe_OpacityMaskFilter"
     filterUnits="userSpaceOnUse"
     x="1489.9"
     y="723.29999"
     width="300.29999"
     height="336.89999">&#10;		<feColorMatrix
   type="matrix"
   values="1 0 0 0 0  0 1 0 0 0  0 0 1 0 0  0 0 0 1 0"
   id="feColorMatrix3" />&#10;	</filter><linearGradient
     xlink:href="#SVGID_3_"
     id="linearGradient4"
     x1="1632.0125"
     y1="765.59998"
     x2="1632.0125"
     y2="1018"
     gradientUnits="userSpaceOnUse" /></defs>&#10;&#10;<linearGradient
   id="SVGID_3_"
   gradientUnits="userSpaceOnUse"
   x1="899.54053"
   y1="1320.3334"
   x2="899.54053"
   y2="1321.3334"
   gradientTransform="matrix(300.2905,0,0,-336.8899,-268483.41,445867.22)">&#10;<stop
   offset="0"
   style="stop-color:#CB2564"
   id="stop10" />&#10;	<stop
   offset="1"
   style="stop-color:#97C96E"
   id="stop9" />&#10;	</linearGradient>&#10;&#10;<g
   id="g14"
   transform="translate(-449.99557,-751.79999)"><g
   transform="translate(0,4.6799242)"
   id="g3">&#10;	<g
   id="g2">&#10;		&#10;			<linearGradient
   id="SVGID_1_"
   gradientUnits="userSpaceOnUse"
   x1="901.59851"
   y1="1316.7781"
   x2="901.59851"
   y2="1317.7781"
   gradientTransform="matrix(1000.5883,0,0,-186.1412,-901120.81,246095.02)">&#10;			<stop
   offset="0"
   style="stop-color:#73AFCA"
   id="stop1" />&#10;			<stop
   offset="1"
   style="stop-color:#96C76A"
   id="stop2" />&#10;		</linearGradient>&#10;		<path
   class="st1"
   d="M 507.8,985.8 H 639.4 V 951.7 H 543 V 804.8 H 507.8 Z M 722.4,905.9 665.8,804.8 h -40.1 l 61.8,108.6 v 72.4 h 34.9 z m 11.7,-17.6 51.7,-83.5 h -39.5 l -30.8,53 z M 882,988.4 c 51.4,0 79.3,-30.3 85.3,-67.8 h -35.4 c -5.9,22.5 -24.3,37.2 -50.9,37.2 -35.4,0 -57.9,-31.3 -57.9,-65.1 0,-35.7 25.1,-59.7 57.4,-59.7 30.7,0 46.7,17.3 52,38.8 h 34.9 c -5.2,-44.5 -40.1,-69.5 -89.2,-69.5 -55.1,0 -89.2,41.6 -89.2,93 -0.1,51.2 31.2,93.1 93,93.1 z m 168.6,-80.7 h 76.8 v 78.1 h 34.9 v -181 h -34.9 v 69.8 h -76.8 z m -50.9,78.1 h 34.9 v -181 h -34.9 z m 336.6,-147.1 v -33.9 h -133.9 v 33.9 z m 0,72.6 v -32 h -133.9 v 32 z m -133.9,74.5 h 133.9 v -34.1 h -133.9 z m 306,-147.1 v -33.9 h -133.9 v 33.9 z m 0,72.6 v -32 h -133.9 v 32 z m -133.9,74.5 h 133.9 v -34.1 h -133.9 z"
   id="path2"
   style="fill:url(#SVGID_1_)" />&#10;	</g>&#10;</g>&#10;	<g
   class="st2"
   id="g9">&#10;		<g
   id="g8">&#10;			<g
   id="g7">&#10;				<g
   id="g6">&#10;					&#10;					<g
   id="g5">&#10;						&#10;						&#10;						<path
   id="path5"
   class="st4"
   d="m 1631.8,843.2 c -20.4,0 -36.7,16.6 -36.7,36.7 0,56.6 34.4,67.8 36,68.3 0.3,0 0.5,0.3 1,0.3 0.5,0 0.5,0 1,-0.3 1.6,-0.5 36,-11.6 36,-68.3 -0.6,-20.1 -16.9,-36.7 -37.3,-36.7 z m 0,98.6 c -5.4,-2.1 -30.5,-14.7 -30.5,-61.8 0,-16.8 13.7,-30.5 30.5,-30.5 16.8,0 30.5,13.7 30.5,30.5 0,47.3 -25.1,59.7 -30.5,61.8 z m 0.2,-126.5 h -0.5 c -45.8,0.3 -77.6,30.5 -77.3,73.7 v 5.7 c 4.4,85.9 69.6,105.3 76.8,107.3 0.3,0 0.5,0 0.8,0 0.3,0 0.5,0 0.8,0 7.5,-1.8 72.4,-21.2 76.8,-107.6 V 889 c 0.2,-43.4 -31.6,-73.7 -77.4,-73.7 z m 70.9,78.9 c -3.9,78.6 -61.3,98.3 -71.1,101.1 -9.8,-2.8 -67.2,-22.2 -71.1,-101.1 v -5.4 c -0.3,-39.3 29,-67 71.1,-67 h 0.5 v 0 c 41.9,0.3 71.1,27.7 70.9,67 z m 36,-12.2 c -0.3,-0.3 -3.9,-7.8 -11.6,-10.6 -0.8,-4.7 -1.6,-9.1 -3.1,-13.2 5.9,-6.5 5.7,-15.3 5.7,-15.5 0,-1 -0.5,-1.8 -1.3,-2.3 -0.3,-0.3 -7,-5.2 -15.5,-4.1 -2.6,-3.4 -5.2,-6.7 -8.3,-9.8 1.3,-6.5 -0.5,-11.9 -0.8,-12.2 -0.3,-1 -1,-1.6 -2.1,-2.1 -0.3,0 -8,-2.8 -15.5,0.5 -12.7,-7.2 -27.7,-11.6 -43.7,-13.2 v -23 c 0,-5.9 -4.9,-10.9 -10.9,-10.9 -5.9,0 -10.9,4.7 -10.9,10.9 v 22.8 c -16,1.6 -31,5.9 -43.7,13.2 -7.5,-3.1 -15.3,-0.5 -15.5,-0.5 -1,0.3 -1.6,1 -2.1,2.1 0,0.3 -2.1,5.9 -0.8,12.2 -3.1,3.1 -5.9,6.5 -8.3,9.8 -8.3,-1 -15.3,3.9 -15.5,4.1 -0.8,0.5 -1.3,1.6 -1.3,2.3 0,0.5 -0.3,9.1 5.7,15.5 -1.3,4.1 -2.3,8.5 -3.1,13.2 -7.8,2.8 -11.6,10.3 -11.6,10.6 -0.5,0.8 -0.5,1.8 0,2.8 0.3,0.3 3.6,7.8 11.1,10.9 0.5,6.2 1.3,12.2 2.3,17.8 -5.9,5.9 -6.5,14.2 -6.5,14.5 0,1 0.3,1.8 1,2.6 0.3,0.3 4.7,4.1 11.4,5.2 1.8,5.4 4.1,10.9 6.7,15.8 -4.4,8.3 -1.6,17.1 -1.3,17.6 0.3,1 1,1.6 2.1,2.1 0.3,0 5.7,2.1 11.9,0.8 2.8,3.9 6.2,7.8 9.6,11.1 -1.8,8.8 3.1,16.3 3.4,16.8 0.5,0.8 1.6,1.3 2.3,1.3 0.3,0 6.2,0.5 12.2,-2.6 2.8,2.1 5.7,3.9 8.5,5.7 3.4,7.2 10.3,10.9 10.6,10.9 0.8,0.5 1.8,0.5 2.8,0 0.3,0 1.8,-0.8 3.6,-2.3 7.8,3.4 13.4,4.7 15,5.2 0.3,0 0.5,0 0.8,0 0.3,0 0.5,0 0.8,0 1.6,-0.5 7.2,-1.8 15,-5.2 1.8,1.6 3.4,2.1 3.6,2.3 0.8,0.5 1.8,0.5 2.8,0 0.3,-0.3 7.2,-3.6 10.6,-10.9 2.8,-1.8 5.7,-3.6 8.5,-5.7 5.9,3.1 11.9,2.6 12.2,2.6 1,0 1.8,-0.5 2.3,-1.3 0.3,-0.3 5.4,-7.8 3.4,-16.8 3.4,-3.6 6.5,-7.2 9.6,-11.1 6.2,1.3 11.6,-0.5 11.9,-0.8 1,-0.3 1.6,-1 2.1,-2.1 0.3,-0.5 3.1,-9.3 -1.3,-17.6 2.6,-5.2 4.7,-10.3 6.7,-15.8 6.5,-1 11.1,-5.2 11.4,-5.2 0.8,-0.8 1,-1.6 1,-2.6 0,-0.3 -0.5,-8.8 -6.5,-14.5 1,-5.7 1.8,-11.9 2.3,-17.8 7.5,-3.4 10.9,-10.6 11.1,-10.9 -0.3,-0.5 -0.3,-1.5 -0.8,-2.6 z M 1627.1,776.5 c 0,-2.6 2.1,-4.7 4.7,-4.7 2.6,0 4.7,2.1 4.7,4.7 V 799 c -1.3,0 -2.8,-0.3 -4.1,-0.3 h -0.8 c -1.3,0 -2.8,0 -4.1,0.3 v -22.5 z m 96.7,113.8 c -1.3,0.3 -2.3,1.6 -2.3,2.8 -0.5,7.2 -1.3,14.2 -2.6,21.2 -0.3,1.3 0.3,2.3 1.3,3.1 3.6,2.8 4.9,7.2 5.4,9.6 -1.6,1 -4.7,2.8 -8.3,2.8 -1.3,0 -2.6,1 -2.8,2.3 -2.1,6.5 -4.7,12.7 -7.8,18.6 -0.5,1.3 -0.5,2.6 0.5,3.6 2.6,4.1 2.3,9.1 1.8,11.4 -1.8,0.3 -5.2,0.8 -8.5,-0.3 -1.3,-0.5 -2.8,0 -3.6,1 -3.6,4.9 -7.5,9.3 -11.6,13.4 -0.8,0.8 -1.3,2.1 -0.8,3.4 1.6,4.7 -0.3,9.3 -1.3,11.6 -2.1,0 -5.4,-0.8 -8.3,-2.8 -1,-0.8 -2.6,-0.8 -3.9,0 -3.4,2.6 -7,4.9 -10.6,7 -0.5,0.3 -1,1 -1.3,1.6 -1.3,3.9 -4.4,6.5 -6.2,7.5 -0.5,-0.5 -1.6,-1 -2.3,-1.8 -1,-0.8 -2.3,-1 -3.4,-0.5 -7.2,3.1 -12.7,4.9 -15,5.4 -2.3,-0.5 -7.8,-2.3 -15,-5.4 -0.5,-0.3 -0.8,-0.3 -1.3,-0.3 -0.8,0 -1.6,0.3 -2.1,0.8 -0.8,0.8 -1.6,1.3 -2.3,1.8 -1.8,-1.3 -4.9,-3.6 -6.2,-7.5 -0.3,-0.8 -0.8,-1.3 -1.3,-1.6 -3.6,-2.1 -7.2,-4.4 -10.6,-7 -1,-0.8 -2.6,-0.8 -3.9,0 -2.8,2.1 -6.5,2.6 -8.3,2.8 -1,-2.3 -2.8,-6.7 -1.3,-11.6 0.5,-1 0,-2.3 -0.8,-3.4 -4.1,-4.1 -8,-8.8 -11.6,-13.4 -0.8,-1 -2.3,-1.6 -3.6,-1 -3.4,1 -6.5,0.8 -8.5,0.3 -0.5,-2.3 -1,-7.2 1.6,-11.4 1,-1 1.3,-2.6 0.5,-3.6 -3.1,-5.9 -5.7,-12.2 -7.8,-18.6 -0.5,-1.3 -1.6,-2.1 -2.8,-2.3 -3.6,-0.3 -6.7,-1.8 -8.3,-2.8 0.5,-2.3 1.8,-6.7 5.4,-9.6 1,-0.8 1.6,-2.1 1.3,-3.1 -1.3,-6.7 -2.3,-14 -2.6,-21.2 0,-1.3 -1,-2.6 -2.3,-2.8 -4.4,-1.3 -7.2,-4.9 -8.5,-6.7 1.3,-2.1 4.4,-5.4 8.8,-6.5 1.3,-0.3 2.3,-1.3 2.3,-2.8 0.8,-5.4 1.8,-10.9 3.6,-15.8 0.5,-1.3 0,-2.6 -1,-3.6 -3.6,-3.1 -4.7,-7.8 -4.9,-10.3 2.1,-1 6.5,-2.8 10.9,-1.8 1.3,0.3 2.6,-0.3 3.4,-1.3 2.8,-4.1 6.2,-8.3 10.1,-11.9 0.8,-0.8 1.3,-2.1 0.8,-3.4 -1,-3.4 -0.8,-6.5 -0.3,-8.5 2.3,-0.5 6.5,-0.8 10.6,1.3 1,0.5 2.3,0.5 3.1,0 14.7,-8.8 33.1,-13.7 52.5,-13.7 h 0.8 c 19.4,0 37.8,4.9 52.5,13.7 1,0.5 2.1,0.5 3.1,0 3.9,-2.1 8.3,-1.6 10.6,-1.3 0.3,1.8 0.8,5.2 -0.3,8.5 -0.5,1.3 0,2.6 0.8,3.4 3.9,3.6 7.2,7.5 10.1,11.9 0.8,1 2.1,1.6 3.4,1.3 4.7,-1 8.8,0.5 10.9,1.8 -0.3,2.6 -1.3,7.2 -4.9,10.3 -1,0.8 -1.3,2.3 -1,3.6 1.8,4.9 2.8,10.3 3.6,15.8 0.3,1.3 1,2.3 2.3,2.8 4.4,1 7.5,4.7 8.8,6.5 -1.4,2 -4.3,5.4 -8.7,6.7 z"
   style="fill:url(#linearGradient4)" />&#10;					</g>&#10;				</g>&#10;			</g>&#10;		</g>&#10;	</g>&#10;<g
   transform="translate(175.29115,4.6799242)"
   id="g13">&#10;	<g
   id="g12">&#10;		&#10;			<linearGradient
   id="SVGID_4_"
   gradientUnits="userSpaceOnUse"
   x1="721.07721"
   y1="1316.7781"
   x2="721.07721"
   y2="1317.7781"
   gradientTransform="matrix(147.1059,0,0,-186.1412,-104431.32,246095.02)">&#10;			<stop
   offset="0"
   style="stop-color:#97C96E"
   id="stop11" />&#10;			<stop
   offset="1"
   style="stop-color:#CB2564"
   id="stop12" />&#10;		</linearGradient>&#10;		<path
   class="st6"
   d="m 1716.9,864.3 c 0,-40.6 -28.7,-62 -75,-62 -41.6,0 -69.6,20.7 -69.6,48.6 0,65.9 109.6,42.1 109.6,84.8 0,14.7 -15.2,24.3 -36.9,24.3 -25.1,0 -39.8,-12.9 -39.8,-33.9 h -35.4 c 0,42.9 30.2,62.3 76,62.3 41.9,0 71.1,-21 71.1,-52.7 0,-65.7 -110.7,-45.8 -110.7,-84.3 0,-15.5 18.9,-21 35.9,-21 23.6,0 39.8,13.2 39.8,33.9 z"
   id="path12"
   style="fill:url(#SVGID_4_)" />&#10;	</g>&#10;</g></g>&#10;</svg>
