<?xml version="1.0" encoding="UTF-8" standalone="no"?>
<!DOCTYPE svg PUBLIC "-//W3C//DTD SVG 1.1//EN"
 "http://www.w3.org/Graphics/SVG/1.1/DTD/svg11.dtd">
<!-- Generated by graphviz version 2.43.0 (0)
 -->
<!-- Title: CFLite library API Pages: 1 -->
<svg width="215pt" height="138pt"
 viewBox="0.00 0.00 215.00 138.00" xmlns="http://www.w3.org/2000/svg" xmlns:xlink="http://www.w3.org/1999/xlink">
<g id="graph0" class="graph" transform="scale(1 1) rotate(0) translate(4 134)">
<title>CFLite library API</title>
<!-- Node1 -->
<g id="node1" class="node">
<title>Node1</title>
<g id="a_node1"><a xlink:title="CFLite library API.">
<polygon fill="#bfbfbf" stroke="black" points="101,-74 0,-74 0,-55 101,-55 101,-74"/>
<text text-anchor="middle" x="50.5" y="-62" font-family="Helvetica,sans-Serif" font-size="10.00">CFLite library API</text>
</a>
</g>
</g>
<!-- Node3 -->
<g id="node2" class="node">
<title>Node3</title>
<g id="a_node2"><a xlink:href="../../d4/d81/group__cflite-eazyaiinf.html" target="_top" xlink:title="Definition of eazyaiinf.">
<polygon fill="none" stroke="black" points="203,-130 141,-130 141,-111 203,-111 203,-130"/>
<text text-anchor="middle" x="172" y="-118" font-family="Helvetica,sans-Serif" font-size="10.00">eazyaiinf</text>
</a>
</g>
</g>
<!-- Node1&#45;&gt;Node3 -->
<g id="edge2" class="edge">
<title>Node1&#45;&gt;Node3</title>
<path fill="none" stroke="black" d="M81.14,-78.39C102.81,-88.54 131.63,-102.05 150.73,-111"/>
<polygon fill="black" stroke="black" points="82.58,-75.2 72.04,-74.13 79.61,-81.54 82.58,-75.2"/>
</g>
<!-- Node5 -->
<g id="node3" class="node">
<title>Node5</title>
<g id="a_node3"><a xlink:href="../../d7/d1f/group__cflite-eazyaiutils.html" target="_top" xlink:title="Definition of eazyaiutils.">
<polygon fill="none" stroke="black" points="207,-93 137,-93 137,-74 207,-74 207,-93"/>
<text text-anchor="middle" x="172" y="-81" font-family="Helvetica,sans-Serif" font-size="10.00">eazyaiutils</text>
</a>
</g>
</g>
<!-- Node1&#45;&gt;Node5 -->
<g id="edge4" class="edge">
<title>Node1&#45;&gt;Node5</title>
<path fill="none" stroke="black" d="M111.12,-73.98C119.99,-75.39 128.87,-76.8 136.96,-78.09"/>
<polygon fill="black" stroke="black" points="111.57,-70.51 101.14,-72.39 110.47,-77.42 111.57,-70.51"/>
</g>
<!-- Node4 -->
<g id="node4" class="node">
<title>Node4</title>
<g id="a_node4"><a xlink:href="../../d5/d5f/group__cflite-eazyaisys.html" target="_top" xlink:title="Definition of eazyaisys.">
<polygon fill="none" stroke="black" points="204.5,-56 139.5,-56 139.5,-37 204.5,-37 204.5,-56"/>
<text text-anchor="middle" x="172" y="-44" font-family="Helvetica,sans-Serif" font-size="10.00">eazyaisys</text>
</a>
</g>
</g>
<!-- Node1&#45;&gt;Node4 -->
<g id="edge3" class="edge">
<title>Node1&#45;&gt;Node4</title>
<path fill="none" stroke="black" d="M111.25,-55.5C120.98,-54.03 130.72,-52.57 139.43,-51.26"/>
<polygon fill="black" stroke="black" points="110.51,-52.07 101.14,-57.02 111.55,-58.99 110.51,-52.07"/>
</g>
<!-- Node2 -->
<g id="node5" class="node">
<title>Node2</title>
<g id="a_node5"><a xlink:href="../../da/db6/group__cflite-eazyaigen.html" target="_top" xlink:title="Definition of eazyaigen.">
<polygon fill="none" stroke="black" points="205.5,-19 138.5,-19 138.5,0 205.5,0 205.5,-19"/>
<text text-anchor="middle" x="172" y="-7" font-family="Helvetica,sans-Serif" font-size="10.00">eazyaigen</text>
</a>
</g>
</g>
<!-- Node1&#45;&gt;Node2 -->
<g id="edge1" class="edge">
<title>Node1&#45;&gt;Node2</title>
<path fill="none" stroke="black" d="M81.59,-50.65C102.94,-40.82 131.07,-27.88 150.02,-19.16"/>
<polygon fill="black" stroke="black" points="79.94,-47.56 72.32,-54.92 82.86,-53.92 79.94,-47.56"/>
</g>
</g>
</svg>
