<?xml version="1.0" encoding="UTF-8" standalone="no"?>
<!DOCTYPE svg PUBLIC "-//W3C//DTD SVG 1.1//EN"
 "http://www.w3.org/Graphics/SVG/1.1/DTD/svg11.dtd">
<!-- Generated by graphviz version 2.43.0 (0)
 -->
<!-- Title: nn_arm_task_get_support_list Pages: 1 -->
<svg width="626pt" height="39pt"
 viewBox="0.00 0.00 626.00 39.00" xmlns="http://www.w3.org/2000/svg" xmlns:xlink="http://www.w3.org/1999/xlink">
<g id="graph0" class="graph" transform="scale(1 1) rotate(0) translate(4 35)">
<title>nn_arm_task_get_support_list</title>
<!-- Node1 -->
<g id="node1" class="node">
<title>Node1</title>
<g id="a_node1"><a xlink:title=" ">
<polygon fill="#bfbfbf" stroke="black" points="455,-6 455,-25 618,-25 618,-6 455,-6"/>
<text text-anchor="middle" x="536.5" y="-13" font-family="Helvetica,sans-Serif" font-size="10.00">nn_arm_task_get_support_list</text>
</a>
</g>
</g>
<!-- Node2 -->
<g id="node2" class="node">
<title>Node2</title>
<g id="a_node2"><a xlink:href="../../df/d8e/classcflite_1_1eazyaiinf_1_1postprocess_1_1EazyaiPostprocess.html#a5cc24a158e0bdb978556283c974348fc" target="_top" xlink:title=" ">
<polygon fill="none" stroke="black" points="231,-0.5 231,-30.5 419,-30.5 419,-0.5 231,-0.5"/>
<text text-anchor="start" x="239" y="-18.5" font-family="Helvetica,sans-Serif" font-size="10.00">cflite.eazyaiinf.postprocess.</text>
<text text-anchor="middle" x="325" y="-7.5" font-family="Helvetica,sans-Serif" font-size="10.00">EazyaiPostprocess.get_support_list</text>
</a>
</g>
</g>
<!-- Node1&#45;&gt;Node2 -->
<g id="edge1" class="edge">
<title>Node1&#45;&gt;Node2</title>
<path fill="none" stroke="midnightblue" d="M444.62,-15.5C436.2,-15.5 427.67,-15.5 419.24,-15.5"/>
<polygon fill="midnightblue" stroke="midnightblue" points="444.8,-19 454.8,-15.5 444.8,-12 444.8,-19"/>
</g>
<!-- Node3 -->
<g id="node3" class="node">
<title>Node3</title>
<g id="a_node3"><a xlink:href="../../df/d8e/classcflite_1_1eazyaiinf_1_1postprocess_1_1EazyaiPostprocess.html#a7b868b5c9b624dfdbf2317274b3dfcd4" target="_top" xlink:title=" ">
<polygon fill="none" stroke="black" points="0,-0.5 0,-30.5 195,-30.5 195,-0.5 0,-0.5"/>
<text text-anchor="start" x="8" y="-18.5" font-family="Helvetica,sans-Serif" font-size="10.00">cflite.eazyaiinf.postprocess.</text>
<text text-anchor="middle" x="97.5" y="-7.5" font-family="Helvetica,sans-Serif" font-size="10.00">EazyaiPostprocess.post_process_init</text>
</a>
</g>
</g>
<!-- Node2&#45;&gt;Node3 -->
<g id="edge2" class="edge">
<title>Node2&#45;&gt;Node3</title>
<path fill="none" stroke="midnightblue" d="M220.71,-15.5C212.26,-15.5 203.73,-15.5 195.32,-15.5"/>
<polygon fill="midnightblue" stroke="midnightblue" points="220.98,-19 230.98,-15.5 220.98,-12 220.98,-19"/>
</g>
</g>
</svg>
