<?xml version="1.0" encoding="UTF-8" standalone="no"?>
<!DOCTYPE svg PUBLIC "-//W3C//DTD SVG 1.1//EN"
 "http://www.w3.org/Graphics/SVG/1.1/DTD/svg11.dtd">
<!-- Generated by graphviz version 2.43.0 (0)
 -->
<!-- Title: post_process_run Pages: 1 -->
<svg width="420pt" height="260pt"
 viewBox="0.00 0.00 420.00 260.00" xmlns="http://www.w3.org/2000/svg" xmlns:xlink="http://www.w3.org/1999/xlink">
<g id="graph0" class="graph" transform="scale(1 1) rotate(0) translate(4 256)">
<title>post_process_run</title>
<!-- Node1 -->
<g id="node1" class="node">
<title>Node1</title>
<g id="a_node1"><a xlink:title=" ">
<polygon fill="#bfbfbf" stroke="black" points="0,-150.5 0,-169.5 101,-169.5 101,-150.5 0,-150.5"/>
<text text-anchor="middle" x="50.5" y="-157.5" font-family="Helvetica,sans-Serif" font-size="10.00">post_process_run</text>
</a>
</g>
</g>
<!-- Node2 -->
<g id="node2" class="node">
<title>Node2</title>
<g id="a_node2"><a xlink:href="../../da/db2/group__eazyai-tensor-details.html#gaf483e043827cebdda5bbfab8264a58a8" target="_top" xlink:title=" ">
<polygon fill="none" stroke="black" points="162.5,-232.5 162.5,-251.5 251.5,-251.5 251.5,-232.5 162.5,-232.5"/>
<text text-anchor="middle" x="207" y="-239.5" font-family="Helvetica,sans-Serif" font-size="10.00">ea_tensor_free</text>
</a>
</g>
</g>
<!-- Node1&#45;&gt;Node2 -->
<g id="edge1" class="edge">
<title>Node1&#45;&gt;Node2</title>
<path fill="none" stroke="midnightblue" d="M61.74,-169.53C77,-183.25 107.14,-208.51 137,-223 141.96,-225.41 147.27,-227.55 152.67,-229.45"/>
<polygon fill="midnightblue" stroke="midnightblue" points="151.82,-232.85 162.41,-232.61 153.98,-226.2 151.82,-232.85"/>
</g>
<!-- Node3 -->
<g id="node3" class="node">
<title>Node3</title>
<g id="a_node3"><a xlink:href="../../da/db2/group__eazyai-tensor-details.html#ga4dd5b497857e359afee9c3279d468730" target="_top" xlink:title=" ">
<polygon fill="none" stroke="black" points="137,-194.5 137,-213.5 277,-213.5 277,-194.5 137,-194.5"/>
<text text-anchor="middle" x="207" y="-201.5" font-family="Helvetica,sans-Serif" font-size="10.00">ea_tensor_new_from_file</text>
</a>
</g>
</g>
<!-- Node1&#45;&gt;Node3 -->
<g id="edge2" class="edge">
<title>Node1&#45;&gt;Node3</title>
<path fill="none" stroke="midnightblue" d="M83.95,-169.62C99.91,-174.32 119.44,-180.02 137,-185 144.82,-187.22 153.15,-189.54 161.21,-191.78"/>
<polygon fill="midnightblue" stroke="midnightblue" points="160.3,-195.16 170.87,-194.44 162.16,-188.41 160.3,-195.16"/>
</g>
<!-- Node4 -->
<g id="node4" class="node">
<title>Node4</title>
<g id="a_node4"><a xlink:href="../../da/db2/group__eazyai-tensor-details.html#gac0b5780d4457713ed52f07ff1b74b2ad" target="_top" xlink:title=" ">
<polygon fill="none" stroke="black" points="147.5,-145 147.5,-175 266.5,-175 266.5,-145 147.5,-145"/>
<text text-anchor="start" x="155.5" y="-163" font-family="Helvetica,sans-Serif" font-size="10.00">ea_tensor_new_from</text>
<text text-anchor="middle" x="207" y="-152" font-family="Helvetica,sans-Serif" font-size="10.00">_image</text>
</a>
</g>
</g>
<!-- Node1&#45;&gt;Node4 -->
<g id="edge3" class="edge">
<title>Node1&#45;&gt;Node4</title>
<path fill="none" stroke="midnightblue" d="M101.24,-160C112.74,-160 125.19,-160 137.35,-160"/>
<polygon fill="midnightblue" stroke="midnightblue" points="137.47,-163.5 147.47,-160 137.47,-156.5 137.47,-163.5"/>
</g>
<!-- Node5 -->
<g id="node5" class="node">
<title>Node5</title>
<g id="a_node5"><a xlink:href="../../db/d66/group__eazyai-utils-details.html#ga0a17a3b00407cd9dea9800279c4511e2" target="_top" xlink:title=" ">
<polygon fill="none" stroke="black" points="142.5,-96 142.5,-126 271.5,-126 271.5,-96 142.5,-96"/>
<text text-anchor="start" x="150.5" y="-114" font-family="Helvetica,sans-Serif" font-size="10.00">ea_utils_env_callbacks</text>
<text text-anchor="middle" x="207" y="-103" font-family="Helvetica,sans-Serif" font-size="10.00">_register</text>
</a>
</g>
</g>
<!-- Node1&#45;&gt;Node5 -->
<g id="edge4" class="edge">
<title>Node1&#45;&gt;Node5</title>
<path fill="none" stroke="midnightblue" d="M81.66,-150.44C100.79,-144.37 126.15,-136.32 148.98,-129.08"/>
<polygon fill="midnightblue" stroke="midnightblue" points="150.11,-132.4 158.59,-126.04 148,-125.72 150.11,-132.4"/>
</g>
<!-- Node6 -->
<g id="node6" class="node">
<title>Node6</title>
<g id="a_node6"><a xlink:href="../../df/d8e/classcflite_1_1eazyaiinf_1_1postprocess_1_1EazyaiPostprocess.html#a854ea4a75256a099bfbb1ea03674a8ed" target="_top" xlink:title=" ">
<polygon fill="none" stroke="black" points="154.5,-57.5 154.5,-76.5 259.5,-76.5 259.5,-57.5 154.5,-57.5"/>
<text text-anchor="middle" x="207" y="-64.5" font-family="Helvetica,sans-Serif" font-size="10.00">tensor_to_ndarray</text>
</a>
</g>
</g>
<!-- Node1&#45;&gt;Node6 -->
<g id="edge5" class="edge">
<title>Node1&#45;&gt;Node6</title>
<path fill="none" stroke="midnightblue" d="M60.01,-150.47C74.39,-134.96 105.04,-104.23 137,-87 141.94,-84.34 147.28,-81.99 152.72,-79.94"/>
<polygon fill="midnightblue" stroke="midnightblue" points="154.24,-83.11 162.55,-76.54 151.96,-76.49 154.24,-83.11"/>
</g>
<!-- Node7 -->
<g id="node7" class="node">
<title>Node7</title>
<g id="a_node7"><a xlink:href="../../da/db2/group__eazyai-tensor-details.html#gabb70502d92d6eddb96124b51c695c26f" target="_top" xlink:title=" ">
<polygon fill="none" stroke="black" points="316.5,-114.5 316.5,-133.5 408.5,-133.5 408.5,-114.5 316.5,-114.5"/>
<text text-anchor="middle" x="362.5" y="-121.5" font-family="Helvetica,sans-Serif" font-size="10.00">ea_tensor_data</text>
</a>
</g>
</g>
<!-- Node6&#45;&gt;Node7 -->
<g id="edge6" class="edge">
<title>Node6&#45;&gt;Node7</title>
<path fill="none" stroke="midnightblue" d="M245.66,-76.58C255.95,-79.55 267.01,-83.09 277,-87 293.66,-93.52 296.66,-97.73 313,-105 317.2,-106.87 321.65,-108.75 326.08,-110.55"/>
<polygon fill="midnightblue" stroke="midnightblue" points="325.06,-113.92 335.65,-114.37 327.66,-107.41 325.06,-113.92"/>
</g>
<!-- Node8 -->
<g id="node8" class="node">
<title>Node8</title>
<g id="a_node8"><a xlink:href="../../da/db2/group__eazyai-tensor-details.html#gad6bbe8725b123c072ec4df4bdc04bb48" target="_top" xlink:title=" ">
<polygon fill="none" stroke="black" points="313.5,-76.5 313.5,-95.5 411.5,-95.5 411.5,-76.5 313.5,-76.5"/>
<text text-anchor="middle" x="362.5" y="-83.5" font-family="Helvetica,sans-Serif" font-size="10.00">ea_tensor_dtype</text>
</a>
</g>
</g>
<!-- Node6&#45;&gt;Node8 -->
<g id="edge7" class="edge">
<title>Node6&#45;&gt;Node8</title>
<path fill="none" stroke="midnightblue" d="M259.54,-73.38C273.56,-75.11 288.84,-77.01 303.2,-78.78"/>
<polygon fill="midnightblue" stroke="midnightblue" points="303.11,-82.3 313.46,-80.05 303.97,-75.35 303.11,-82.3"/>
</g>
<!-- Node9 -->
<g id="node9" class="node">
<title>Node9</title>
<g id="a_node9"><a xlink:href="../../da/db2/group__eazyai-tensor-details.html#ga9b79faedabc098e2c0623530cdeba611" target="_top" xlink:title=" ">
<polygon fill="none" stroke="black" points="313,-38.5 313,-57.5 412,-57.5 412,-38.5 313,-38.5"/>
<text text-anchor="middle" x="362.5" y="-45.5" font-family="Helvetica,sans-Serif" font-size="10.00">ea_tensor_shape</text>
</a>
</g>
</g>
<!-- Node6&#45;&gt;Node9 -->
<g id="edge8" class="edge">
<title>Node6&#45;&gt;Node9</title>
<path fill="none" stroke="midnightblue" d="M259.54,-60.62C273.42,-58.9 288.53,-57.03 302.77,-55.27"/>
<polygon fill="midnightblue" stroke="midnightblue" points="303.46,-58.71 312.95,-54.01 302.6,-51.76 303.46,-58.71"/>
</g>
<!-- Node10 -->
<g id="node10" class="node">
<title>Node10</title>
<g id="a_node10"><a xlink:href="../../da/db2/group__eazyai-tensor-details.html#gaa49f772ff2ff7609f911c78eb76c9d26" target="_top" xlink:title=" ">
<polygon fill="none" stroke="black" points="318,-0.5 318,-19.5 407,-19.5 407,-0.5 318,-0.5"/>
<text text-anchor="middle" x="362.5" y="-7.5" font-family="Helvetica,sans-Serif" font-size="10.00">ea_tensor_size</text>
</a>
</g>
</g>
<!-- Node6&#45;&gt;Node10 -->
<g id="edge9" class="edge">
<title>Node6&#45;&gt;Node10</title>
<path fill="none" stroke="midnightblue" d="M233.69,-57.46C259.04,-48.05 297.98,-33.59 326.22,-23.1"/>
<polygon fill="midnightblue" stroke="midnightblue" points="327.57,-26.33 335.72,-19.57 325.13,-19.77 327.57,-26.33"/>
</g>
</g>
</svg>
