<?xml version="1.0" encoding="UTF-8" standalone="no"?>
<!DOCTYPE svg PUBLIC "-//W3C//DTD SVG 1.1//EN"
 "http://www.w3.org/Graphics/SVG/1.1/DTD/svg11.dtd">
<!-- Generated by graphviz version 2.43.0 (0)
 -->
<!-- Title: tensor_to_ndarray Pages: 1 -->
<svg width="248pt" height="142pt"
 viewBox="0.00 0.00 248.00 142.00" xmlns="http://www.w3.org/2000/svg" xmlns:xlink="http://www.w3.org/1999/xlink">
<g id="graph0" class="graph" transform="scale(1 1) rotate(0) translate(4 138)">
<title>tensor_to_ndarray</title>
<!-- Node1 -->
<g id="node1" class="node">
<title>Node1</title>
<g id="a_node1"><a xlink:title=" ">
<polygon fill="#bfbfbf" stroke="black" points="0,-57.5 0,-76.5 105,-76.5 105,-57.5 0,-57.5"/>
<text text-anchor="middle" x="52.5" y="-64.5" font-family="Helvetica,sans-Serif" font-size="10.00">tensor_to_ndarray</text>
</a>
</g>
</g>
<!-- Node2 -->
<g id="node2" class="node">
<title>Node2</title>
<g id="a_node2"><a xlink:href="../../da/db2/group__eazyai-tensor-details.html#gabb70502d92d6eddb96124b51c695c26f" target="_top" xlink:title=" ">
<polygon fill="none" stroke="black" points="144.5,-114.5 144.5,-133.5 236.5,-133.5 236.5,-114.5 144.5,-114.5"/>
<text text-anchor="middle" x="190.5" y="-121.5" font-family="Helvetica,sans-Serif" font-size="10.00">ea_tensor_data</text>
</a>
</g>
</g>
<!-- Node1&#45;&gt;Node2 -->
<g id="edge1" class="edge">
<title>Node1&#45;&gt;Node2</title>
<path fill="none" stroke="midnightblue" d="M74.98,-76.59C92.64,-84.41 118.34,-95.65 141,-105 145.47,-106.84 150.18,-108.75 154.85,-110.6"/>
<polygon fill="midnightblue" stroke="midnightblue" points="153.67,-113.9 164.26,-114.31 156.24,-107.39 153.67,-113.9"/>
</g>
<!-- Node3 -->
<g id="node3" class="node">
<title>Node3</title>
<g id="a_node3"><a xlink:href="../../da/db2/group__eazyai-tensor-details.html#gad6bbe8725b123c072ec4df4bdc04bb48" target="_top" xlink:title=" ">
<polygon fill="none" stroke="black" points="141.5,-76.5 141.5,-95.5 239.5,-95.5 239.5,-76.5 141.5,-76.5"/>
<text text-anchor="middle" x="190.5" y="-83.5" font-family="Helvetica,sans-Serif" font-size="10.00">ea_tensor_dtype</text>
</a>
</g>
</g>
<!-- Node1&#45;&gt;Node3 -->
<g id="edge2" class="edge">
<title>Node1&#45;&gt;Node3</title>
<path fill="none" stroke="midnightblue" d="M105.3,-74.24C113.83,-75.43 122.71,-76.67 131.38,-77.88"/>
<polygon fill="midnightblue" stroke="midnightblue" points="131.03,-81.37 141.42,-79.28 132,-74.43 131.03,-81.37"/>
</g>
<!-- Node4 -->
<g id="node4" class="node">
<title>Node4</title>
<g id="a_node4"><a xlink:href="../../da/db2/group__eazyai-tensor-details.html#ga9b79faedabc098e2c0623530cdeba611" target="_top" xlink:title=" ">
<polygon fill="none" stroke="black" points="141,-38.5 141,-57.5 240,-57.5 240,-38.5 141,-38.5"/>
<text text-anchor="middle" x="190.5" y="-45.5" font-family="Helvetica,sans-Serif" font-size="10.00">ea_tensor_shape</text>
</a>
</g>
</g>
<!-- Node1&#45;&gt;Node4 -->
<g id="edge3" class="edge">
<title>Node1&#45;&gt;Node4</title>
<path fill="none" stroke="midnightblue" d="M105.3,-59.76C113.72,-58.59 122.49,-57.36 131.05,-56.17"/>
<polygon fill="midnightblue" stroke="midnightblue" points="131.55,-59.63 140.97,-54.78 130.59,-52.7 131.55,-59.63"/>
</g>
<!-- Node5 -->
<g id="node5" class="node">
<title>Node5</title>
<g id="a_node5"><a xlink:href="../../da/db2/group__eazyai-tensor-details.html#gaa49f772ff2ff7609f911c78eb76c9d26" target="_top" xlink:title=" ">
<polygon fill="none" stroke="black" points="146,-0.5 146,-19.5 235,-19.5 235,-0.5 146,-0.5"/>
<text text-anchor="middle" x="190.5" y="-7.5" font-family="Helvetica,sans-Serif" font-size="10.00">ea_tensor_size</text>
</a>
</g>
</g>
<!-- Node1&#45;&gt;Node5 -->
<g id="edge4" class="edge">
<title>Node1&#45;&gt;Node5</title>
<path fill="none" stroke="midnightblue" d="M74.98,-57.41C92.64,-49.59 118.34,-38.35 141,-29 145.47,-27.16 150.18,-25.25 154.85,-23.4"/>
<polygon fill="midnightblue" stroke="midnightblue" points="156.24,-26.61 164.26,-19.69 153.67,-20.1 156.24,-26.61"/>
</g>
</g>
</svg>
