<?xml version="1.0" encoding="UTF-8" standalone="no"?>
<!DOCTYPE svg PUBLIC "-//W3C//DTD SVG 1.1//EN"
 "http://www.w3.org/Graphics/SVG/1.1/DTD/svg11.dtd">
<!-- Generated by graphviz version 2.43.0 (0)
 -->
<!-- Title: post_process_init Pages: 1 -->
<svg width="445pt" height="142pt"
 viewBox="0.00 0.00 445.00 142.00" xmlns="http://www.w3.org/2000/svg" xmlns:xlink="http://www.w3.org/1999/xlink">
<g id="graph0" class="graph" transform="scale(1 1) rotate(0) translate(4 138)">
<title>post_process_init</title>
<!-- Node1 -->
<g id="node1" class="node">
<title>Node1</title>
<g id="a_node1"><a xlink:title=" ">
<polygon fill="#bfbfbf" stroke="black" points="0,-57.5 0,-76.5 101,-76.5 101,-57.5 0,-57.5"/>
<text text-anchor="middle" x="50.5" y="-64.5" font-family="Helvetica,sans-Serif" font-size="10.00">post_process_init</text>
</a>
</g>
</g>
<!-- Node2 -->
<g id="node2" class="node">
<title>Node2</title>
<g id="a_node2"><a xlink:href="../../d2/dd8/group__eazyai-display-details.html#gad23209ebb70eb39abf454106a2367a8b" target="_top" xlink:title=" ">
<polygon fill="none" stroke="black" points="140,-114.5 140,-133.5 235,-133.5 235,-114.5 140,-114.5"/>
<text text-anchor="middle" x="187.5" y="-121.5" font-family="Helvetica,sans-Serif" font-size="10.00">ea_display_new</text>
</a>
</g>
</g>
<!-- Node1&#45;&gt;Node2 -->
<g id="edge1" class="edge">
<title>Node1&#45;&gt;Node2</title>
<path fill="none" stroke="midnightblue" d="M72.1,-76.52C89.34,-84.39 114.64,-95.75 137,-105 141.6,-106.9 146.46,-108.85 151.27,-110.73"/>
<polygon fill="midnightblue" stroke="midnightblue" points="150.37,-114.14 160.96,-114.49 152.9,-107.61 150.37,-114.14"/>
</g>
<!-- Node3 -->
<g id="node3" class="node">
<title>Node3</title>
<g id="a_node3"><a xlink:href="../../da/db2/group__eazyai-tensor-details.html#gabf2b83ac2d5ccc5275b21cec58aad817" target="_top" xlink:title=" ">
<polygon fill="none" stroke="black" points="142.5,-76.5 142.5,-95.5 232.5,-95.5 232.5,-76.5 142.5,-76.5"/>
<text text-anchor="middle" x="187.5" y="-83.5" font-family="Helvetica,sans-Serif" font-size="10.00">ea_tensor_new</text>
</a>
</g>
</g>
<!-- Node1&#45;&gt;Node3 -->
<g id="edge2" class="edge">
<title>Node1&#45;&gt;Node3</title>
<path fill="none" stroke="midnightblue" d="M101,-73.97C111.16,-75.4 121.91,-76.91 132.22,-78.36"/>
<polygon fill="midnightblue" stroke="midnightblue" points="131.97,-81.86 142.36,-79.79 132.95,-74.93 131.97,-81.86"/>
</g>
<!-- Node4 -->
<g id="node4" class="node">
<title>Node4</title>
<g id="a_node4"><a xlink:href="../../df/d8e/classcflite_1_1eazyaiinf_1_1postprocess_1_1EazyaiPostprocess.html#a5cc24a158e0bdb978556283c974348fc" target="_top" xlink:title=" ">
<polygon fill="none" stroke="black" points="140,-38.5 140,-57.5 235,-57.5 235,-38.5 140,-38.5"/>
<text text-anchor="middle" x="187.5" y="-45.5" font-family="Helvetica,sans-Serif" font-size="10.00">get_support_list</text>
</a>
</g>
</g>
<!-- Node1&#45;&gt;Node4 -->
<g id="edge3" class="edge">
<title>Node1&#45;&gt;Node4</title>
<path fill="none" stroke="midnightblue" d="M101,-60.03C110.29,-58.73 120.06,-57.35 129.55,-56.02"/>
<polygon fill="midnightblue" stroke="midnightblue" points="130.28,-59.45 139.7,-54.59 129.31,-52.51 130.28,-59.45"/>
</g>
<!-- Node6 -->
<g id="node6" class="node">
<title>Node6</title>
<g id="a_node6"><a xlink:href="../../d6/db5/group__eazyai__arm__postprocess-api-details.html#gac72a5bcd5a5cfa946fe568489815554e" target="_top" xlink:title=" ">
<polygon fill="none" stroke="black" points="137,-0.5 137,-19.5 238,-19.5 238,-0.5 137,-0.5"/>
<text text-anchor="middle" x="187.5" y="-7.5" font-family="Helvetica,sans-Serif" font-size="10.00">nn_arm_task_get</text>
</a>
</g>
</g>
<!-- Node1&#45;&gt;Node6 -->
<g id="edge5" class="edge">
<title>Node1&#45;&gt;Node6</title>
<path fill="none" stroke="midnightblue" d="M72.1,-57.48C89.34,-49.61 114.64,-38.25 137,-29 141.6,-27.1 146.46,-25.15 151.27,-23.27"/>
<polygon fill="midnightblue" stroke="midnightblue" points="152.9,-26.39 160.96,-19.51 150.37,-19.86 152.9,-26.39"/>
</g>
<!-- Node5 -->
<g id="node5" class="node">
<title>Node5</title>
<g id="a_node5"><a xlink:href="../../d6/db5/group__eazyai__arm__postprocess-api-details.html#ga0c8334c13bccbe4dca7d519534351a35" target="_top" xlink:title=" ">
<polygon fill="none" stroke="black" points="274,-38.5 274,-57.5 437,-57.5 437,-38.5 274,-38.5"/>
<text text-anchor="middle" x="355.5" y="-45.5" font-family="Helvetica,sans-Serif" font-size="10.00">nn_arm_task_get_support_list</text>
</a>
</g>
</g>
<!-- Node4&#45;&gt;Node5 -->
<g id="edge4" class="edge">
<title>Node4&#45;&gt;Node5</title>
<path fill="none" stroke="midnightblue" d="M235.18,-48C244.15,-48 253.82,-48 263.64,-48"/>
<polygon fill="midnightblue" stroke="midnightblue" points="263.91,-51.5 273.91,-48 263.91,-44.5 263.91,-51.5"/>
</g>
</g>
</svg>
