<?xml version="1.0" encoding="UTF-8" standalone="no"?>
<!DOCTYPE svg PUBLIC "-//W3C//DTD SVG 1.1//EN"
 "http://www.w3.org/Graphics/SVG/1.1/DTD/svg11.dtd">
<!-- Generated by graphviz version 2.43.0 (0)
 -->
<!-- Title: depends Pages: 1 -->
<svg width="652pt" height="301pt"
 viewBox="0.00 0.00 652.00 301.00" xmlns="http://www.w3.org/2000/svg" xmlns:xlink="http://www.w3.org/1999/xlink">
<g id="graph0" class="graph" transform="scale(1 1) rotate(0) translate(4 297)">
<title>depends</title>
<polygon fill="white" stroke="transparent" points="-4,4 -4,-297 648,-297 648,4 -4,4"/>
<text text-anchor="middle" x="322" y="-97.8" font-family="Times,serif" font-size="14.00">solid line: strong dependency</text>
<text text-anchor="middle" x="322" y="-82.8" font-family="Times,serif" font-size="14.00">dashed line: weak dependency</text>
<text text-anchor="middle" x="322" y="-67.8" font-family="Times,serif" font-size="14.00">double lines: choose one package from srcbuild and prebuild or from patch and unpatch</text>
<text text-anchor="middle" x="322" y="-52.8" font-family="Times,serif" font-size="14.00">red line: unselected in .config</text>
<text text-anchor="middle" x="322" y="-37.8" font-family="Times,serif" font-size="14.00">green line: selected in .config</text>
<text text-anchor="middle" x="322" y="-22.8" font-family="Times,serif" font-size="14.00">red box: top package, unselected in .config</text>
<text text-anchor="middle" x="322" y="-7.8" font-family="Times,serif" font-size="14.00">green box: top package, selected in .config</text>
<!-- libimgalgo -->
<g id="node1" class="node">
<title>libimgalgo</title>
<ellipse fill="none" stroke="green" cx="316.3" cy="-275" rx="59.59" ry="18"/>
<text text-anchor="middle" x="316.3" y="-271.3" font-family="Times,serif" font-size="14.00">libimgalgo</text>
</g>
<!-- generic&#45;header -->
<g id="node2" class="node">
<title>generic&#45;header</title>
<ellipse fill="none" stroke="black" cx="257.3" cy="-131" rx="80.69" ry="18"/>
<text text-anchor="middle" x="257.3" y="-127.3" font-family="Times,serif" font-size="14.00">generic&#45;header</text>
</g>
<!-- libimgalgo&#45;&gt;generic&#45;header -->
<g id="edge1" class="edge">
<title>libimgalgo&#45;&gt;generic&#45;header</title>
<path fill="none" stroke="green" d="M300.9,-257.57C292.43,-247.67 282.43,-234.42 276.3,-221 267.3,-201.3 262.49,-177.17 259.97,-159.01"/>
<polygon fill="green" stroke="green" points="263.44,-158.58 258.73,-149.09 256.49,-159.45 263.44,-158.58"/>
</g>
<!-- ambvideo&#45;header -->
<g id="node3" class="node">
<title>ambvideo&#45;header</title>
<ellipse fill="none" stroke="black" cx="376.3" cy="-203" rx="90.98" ry="18"/>
<text text-anchor="middle" x="376.3" y="-199.3" font-family="Times,serif" font-size="14.00">ambvideo&#45;header</text>
</g>
<!-- libimgalgo&#45;&gt;ambvideo&#45;header -->
<g id="edge2" class="edge">
<title>libimgalgo&#45;&gt;ambvideo&#45;header</title>
<path fill="none" stroke="green" d="M330.52,-257.41C337.88,-248.82 347.02,-238.16 355.19,-228.63"/>
<polygon fill="green" stroke="green" points="357.92,-230.83 361.77,-220.96 352.6,-226.27 357.92,-230.83"/>
</g>
<!-- ambvideo&#45;header&#45;&gt;generic&#45;header -->
<g id="edge3" class="edge">
<title>ambvideo&#45;header&#45;&gt;generic&#45;header</title>
<path fill="none" stroke="green" d="M348.7,-185.76C332.33,-176.13 311.38,-163.81 293.68,-153.4"/>
<polygon fill="green" stroke="green" points="295.14,-150.2 284.75,-148.15 291.6,-156.23 295.14,-150.2"/>
</g>
<!-- board -->
<g id="node4" class="node">
<title>board</title>
<ellipse fill="none" stroke="black" cx="393.3" cy="-131" rx="37.89" ry="18"/>
<text text-anchor="middle" x="393.3" y="-127.3" font-family="Times,serif" font-size="14.00">board</text>
</g>
<!-- ambvideo&#45;header&#45;&gt;board -->
<g id="edge4" class="edge">
<title>ambvideo&#45;header&#45;&gt;board</title>
<path fill="none" stroke="green" d="M380.5,-184.7C382.4,-176.9 384.68,-167.51 386.78,-158.83"/>
<polygon fill="green" stroke="green" points="390.19,-159.65 389.15,-149.1 383.39,-158 390.19,-159.65"/>
</g>
</g>
</svg>
