<?xml version="1.0" encoding="UTF-8" standalone="no"?>
<!DOCTYPE svg PUBLIC "-//W3C//DTD SVG 1.1//EN"
 "http://www.w3.org/Graphics/SVG/1.1/DTD/svg11.dtd">
<!-- Generated by graphviz version 2.43.0 (0)
 -->
<!-- Title: depends Pages: 1 -->
<svg width="3341pt" height="301pt"
 viewBox="0.00 0.00 3340.59 301.00" xmlns="http://www.w3.org/2000/svg" xmlns:xlink="http://www.w3.org/1999/xlink">
<g id="graph0" class="graph" transform="scale(1 1) rotate(0) translate(4 297)">
<title>depends</title>
<polygon fill="white" stroke="transparent" points="-4,4 -4,-297 3336.59,-297 3336.59,4 -4,4"/>
<text text-anchor="middle" x="1666.29" y="-97.8" font-family="Times,serif" font-size="14.00">solid line: strong dependency</text>
<text text-anchor="middle" x="1666.29" y="-82.8" font-family="Times,serif" font-size="14.00">dashed line: weak dependency</text>
<text text-anchor="middle" x="1666.29" y="-67.8" font-family="Times,serif" font-size="14.00">double lines: choose one package from srcbuild and prebuild or from patch and unpatch</text>
<text text-anchor="middle" x="1666.29" y="-52.8" font-family="Times,serif" font-size="14.00">red line: unselected in .config</text>
<text text-anchor="middle" x="1666.29" y="-37.8" font-family="Times,serif" font-size="14.00">green line: selected in .config</text>
<text text-anchor="middle" x="1666.29" y="-22.8" font-family="Times,serif" font-size="14.00">red box: top package, unselected in .config</text>
<text text-anchor="middle" x="1666.29" y="-7.8" font-family="Times,serif" font-size="14.00">green box: top package, selected in .config</text>
<!-- gst&#45;client -->
<g id="node1" class="node">
<title>gst&#45;client</title>
<ellipse fill="none" stroke="green" cx="1871.04" cy="-275" rx="53.89" ry="18"/>
<text text-anchor="middle" x="1871.04" y="-271.3" font-family="Times,serif" font-size="14.00">gst&#45;client</text>
</g>
<!-- libgstc -->
<g id="node2" class="node">
<title>libgstc</title>
<ellipse fill="none" stroke="black" cx="1871.04" cy="-203" rx="42.49" ry="18"/>
<text text-anchor="middle" x="1871.04" y="-199.3" font-family="Times,serif" font-size="14.00">libgstc</text>
</g>
<!-- gst&#45;client&#45;&gt;libgstc -->
<g id="edge1" class="edge">
<title>gst&#45;client&#45;&gt;libgstc</title>
<path fill="none" stroke="green" d="M1871.04,-256.7C1871.04,-248.98 1871.04,-239.71 1871.04,-231.11"/>
<polygon fill="green" stroke="green" points="1874.54,-231.1 1871.04,-221.1 1867.54,-231.1 1874.54,-231.1"/>
</g>
<!-- prebuild&#45;glib2 -->
<g id="node3" class="node">
<title>prebuild&#45;glib2</title>
<ellipse fill="none" stroke="black" cx="76.04" cy="-131" rx="76.09" ry="18"/>
<text text-anchor="middle" x="76.04" y="-127.3" font-family="Times,serif" font-size="14.00">prebuild&#45;glib2</text>
</g>
<!-- gst&#45;client&#45;&gt;prebuild&#45;glib2 -->
<g id="edge2" class="edge">
<title>gst&#45;client&#45;&gt;prebuild&#45;glib2</title>
<path fill="none" stroke="green" d="M1817.13,-273.68C1645.52,-272.22 1096.77,-264.24 645.04,-221 428.55,-200.28 375.29,-186.34 161.04,-149 154.72,-147.9 148.14,-146.69 141.57,-145.45"/>
<polygon fill="green" stroke="green" points="141.78,-141.92 131.29,-143.46 140.45,-148.79 141.78,-141.92"/>
</g>
<!-- prebuild&#45;gstreamer1 -->
<g id="node4" class="node">
<title>prebuild&#45;gstreamer1</title>
<ellipse fill="none" stroke="black" cx="277.04" cy="-131" rx="106.68" ry="18"/>
<text text-anchor="middle" x="277.04" y="-127.3" font-family="Times,serif" font-size="14.00">prebuild&#45;gstreamer1</text>
</g>
<!-- gst&#45;client&#45;&gt;prebuild&#45;gstreamer1 -->
<g id="edge3" class="edge">
<title>gst&#45;client&#45;&gt;prebuild&#45;gstreamer1</title>
<path fill="none" stroke="green" d="M1817.73,-272.14C1677.52,-266.98 1286.96,-250.84 963.04,-221 708.33,-197.53 645.47,-183.7 392.04,-149 382.84,-147.74 373.23,-146.38 363.66,-145.01"/>
<polygon fill="green" stroke="green" points="364.11,-141.54 353.72,-143.57 363.11,-148.46 364.11,-141.54"/>
</g>
<!-- prebuild&#45;gstreamer1&#45;plugins&#45;bad -->
<g id="node5" class="node">
<title>prebuild&#45;gstreamer1&#45;plugins&#45;bad</title>
<ellipse fill="none" stroke="black" cx="565.04" cy="-131" rx="163.57" ry="18"/>
<text text-anchor="middle" x="565.04" y="-127.3" font-family="Times,serif" font-size="14.00">prebuild&#45;gstreamer1&#45;plugins&#45;bad</text>
</g>
<!-- gst&#45;client&#45;&gt;prebuild&#45;gstreamer1&#45;plugins&#45;bad -->
<g id="edge4" class="edge">
<title>gst&#45;client&#45;&gt;prebuild&#45;gstreamer1&#45;plugins&#45;bad</title>
<path fill="none" stroke="green" d="M1818.54,-270.32C1711.36,-262.62 1459.7,-243.67 1249.04,-221 1043.65,-198.9 804.48,-166.17 670.32,-147.17"/>
<polygon fill="green" stroke="green" points="670.44,-143.66 660.05,-145.72 669.46,-150.59 670.44,-143.66"/>
</g>
<!-- prebuild&#45;gstreamer1&#45;plugins&#45;base -->
<g id="node6" class="node">
<title>prebuild&#45;gstreamer1&#45;plugins&#45;base</title>
<ellipse fill="none" stroke="black" cx="915.04" cy="-131" rx="168.17" ry="18"/>
<text text-anchor="middle" x="915.04" y="-127.3" font-family="Times,serif" font-size="14.00">prebuild&#45;gstreamer1&#45;plugins&#45;base</text>
</g>
<!-- gst&#45;client&#45;&gt;prebuild&#45;gstreamer1&#45;plugins&#45;base -->
<g id="edge5" class="edge">
<title>gst&#45;client&#45;&gt;prebuild&#45;gstreamer1&#45;plugins&#45;base</title>
<path fill="none" stroke="green" d="M1821.15,-268.1C1744.33,-258.87 1592.49,-240.11 1464.04,-221 1368.21,-206.74 1344.67,-200.59 1249.04,-185 1170.78,-172.24 1082.12,-158.19 1015.83,-147.76"/>
<polygon fill="green" stroke="green" points="1016.22,-144.28 1005.8,-146.19 1015.14,-151.2 1016.22,-144.28"/>
</g>
<!-- prebuild&#45;json&#45;c -->
<g id="node7" class="node">
<title>prebuild&#45;json&#45;c</title>
<ellipse fill="none" stroke="black" cx="1181.04" cy="-131" rx="79.09" ry="18"/>
<text text-anchor="middle" x="1181.04" y="-127.3" font-family="Times,serif" font-size="14.00">prebuild&#45;json&#45;c</text>
</g>
<!-- gst&#45;client&#45;&gt;prebuild&#45;json&#45;c -->
<g id="edge6" class="edge">
<title>gst&#45;client&#45;&gt;prebuild&#45;json&#45;c</title>
<path fill="none" stroke="green" d="M1823.71,-266.37C1767.81,-257.04 1672.18,-240.14 1591.04,-221 1533.94,-207.53 1521.17,-198.37 1464.04,-185 1378.66,-165.02 1356.22,-165.23 1270.04,-149 1263.4,-147.75 1256.47,-146.44 1249.55,-145.12"/>
<polygon fill="green" stroke="green" points="1249.92,-141.63 1239.44,-143.2 1248.61,-148.51 1249.92,-141.63"/>
</g>
<!-- prebuild&#45;json&#45;glib -->
<g id="node8" class="node">
<title>prebuild&#45;json&#45;glib</title>
<ellipse fill="none" stroke="black" cx="1371.04" cy="-131" rx="92.08" ry="18"/>
<text text-anchor="middle" x="1371.04" y="-127.3" font-family="Times,serif" font-size="14.00">prebuild&#45;json&#45;glib</text>
</g>
<!-- gst&#45;client&#45;&gt;prebuild&#45;json&#45;glib -->
<g id="edge7" class="edge">
<title>gst&#45;client&#45;&gt;prebuild&#45;json&#45;glib</title>
<path fill="none" stroke="green" d="M1828.52,-263.68C1789.53,-253.87 1730.38,-238.1 1680.04,-221 1639.64,-207.27 1631.67,-198.03 1591.04,-185 1542.45,-169.41 1486.54,-156 1443.24,-146.57"/>
<polygon fill="green" stroke="green" points="1443.87,-143.12 1433.36,-144.44 1442.4,-149.97 1443.87,-143.12"/>
</g>
<!-- prebuild&#45;libsoup -->
<g id="node9" class="node">
<title>prebuild&#45;libsoup</title>
<ellipse fill="none" stroke="black" cx="1568.04" cy="-131" rx="86.38" ry="18"/>
<text text-anchor="middle" x="1568.04" y="-127.3" font-family="Times,serif" font-size="14.00">prebuild&#45;libsoup</text>
</g>
<!-- gst&#45;client&#45;&gt;prebuild&#45;libsoup -->
<g id="edge8" class="edge">
<title>gst&#45;client&#45;&gt;prebuild&#45;libsoup</title>
<path fill="none" stroke="green" d="M1841.16,-260C1787.05,-234.64 1672.71,-181.05 1610.51,-151.9"/>
<polygon fill="green" stroke="green" points="1611.9,-148.69 1601.36,-147.61 1608.93,-155.03 1611.9,-148.69"/>
</g>
<!-- prebuild&#45;libxml2 -->
<g id="node10" class="node">
<title>prebuild&#45;libxml2</title>
<ellipse fill="none" stroke="black" cx="1760.04" cy="-131" rx="87.18" ry="18"/>
<text text-anchor="middle" x="1760.04" y="-127.3" font-family="Times,serif" font-size="14.00">prebuild&#45;libxml2</text>
</g>
<!-- gst&#45;client&#45;&gt;prebuild&#45;libxml2 -->
<g id="edge9" class="edge">
<title>gst&#45;client&#45;&gt;prebuild&#45;libxml2</title>
<path fill="none" stroke="green" d="M1853.72,-257.5C1843.47,-247.38 1830.48,-233.91 1820.04,-221 1803.69,-200.76 1787.32,-176.12 1775.82,-157.9"/>
<polygon fill="green" stroke="green" points="1778.54,-155.64 1770.28,-149.01 1772.6,-159.35 1778.54,-155.64"/>
</g>
<!-- prebuild&#45;libdaemon -->
<g id="node11" class="node">
<title>prebuild&#45;libdaemon</title>
<ellipse fill="none" stroke="black" cx="1966.04" cy="-131" rx="100.98" ry="18"/>
<text text-anchor="middle" x="1966.04" y="-127.3" font-family="Times,serif" font-size="14.00">prebuild&#45;libdaemon</text>
</g>
<!-- gst&#45;client&#45;&gt;prebuild&#45;libdaemon -->
<g id="edge10" class="edge">
<title>gst&#45;client&#45;&gt;prebuild&#45;libdaemon</title>
<path fill="none" stroke="green" d="M1889.01,-257.99C1899.49,-248.04 1912.5,-234.58 1922.04,-221 1935.82,-201.4 1947.61,-176.84 1955.51,-158.49"/>
<polygon fill="green" stroke="green" points="1958.74,-159.84 1959.38,-149.26 1952.28,-157.13 1958.74,-159.84"/>
</g>
<!-- prebuild&#45;libffi -->
<g id="node12" class="node">
<title>prebuild&#45;libffi</title>
<ellipse fill="none" stroke="black" cx="2159.04" cy="-131" rx="74.19" ry="18"/>
<text text-anchor="middle" x="2159.04" y="-127.3" font-family="Times,serif" font-size="14.00">prebuild&#45;libffi</text>
</g>
<!-- gst&#45;client&#45;&gt;prebuild&#45;libffi -->
<g id="edge11" class="edge">
<title>gst&#45;client&#45;&gt;prebuild&#45;libffi</title>
<path fill="none" stroke="green" d="M1899.98,-259.73C1951.56,-234.3 2059.53,-181.07 2118.49,-151.99"/>
<polygon fill="green" stroke="green" points="2120.1,-155.11 2127.52,-147.54 2117,-148.83 2120.1,-155.11"/>
</g>
<!-- prebuild&#45;libselinux -->
<g id="node13" class="node">
<title>prebuild&#45;libselinux</title>
<ellipse fill="none" stroke="black" cx="2349.04" cy="-131" rx="97.48" ry="18"/>
<text text-anchor="middle" x="2349.04" y="-127.3" font-family="Times,serif" font-size="14.00">prebuild&#45;libselinux</text>
</g>
<!-- gst&#45;client&#45;&gt;prebuild&#45;libselinux -->
<g id="edge12" class="edge">
<title>gst&#45;client&#45;&gt;prebuild&#45;libselinux</title>
<path fill="none" stroke="green" d="M1910.16,-262.38C1993.91,-237.5 2190.97,-178.96 2290.03,-149.53"/>
<polygon fill="green" stroke="green" points="2291.29,-152.81 2299.88,-146.61 2289.29,-146.1 2291.29,-152.81"/>
</g>
<!-- prebuild&#45;util&#45;linux&#45;libs -->
<g id="node14" class="node">
<title>prebuild&#45;util&#45;linux&#45;libs</title>
<ellipse fill="none" stroke="black" cx="2578.04" cy="-131" rx="113.18" ry="18"/>
<text text-anchor="middle" x="2578.04" y="-127.3" font-family="Times,serif" font-size="14.00">prebuild&#45;util&#45;linux&#45;libs</text>
</g>
<!-- gst&#45;client&#45;&gt;prebuild&#45;util&#45;linux&#45;libs -->
<g id="edge13" class="edge">
<title>gst&#45;client&#45;&gt;prebuild&#45;util&#45;linux&#45;libs</title>
<path fill="none" stroke="green" d="M1916.07,-264.96C2034.04,-241.26 2353.13,-177.17 2500.95,-147.48"/>
<polygon fill="green" stroke="green" points="2501.75,-150.89 2510.86,-145.49 2500.37,-144.03 2501.75,-150.89"/>
</g>
<!-- prebuild&#45;sqlite -->
<g id="node15" class="node">
<title>prebuild&#45;sqlite</title>
<ellipse fill="none" stroke="black" cx="2788.04" cy="-131" rx="78.79" ry="18"/>
<text text-anchor="middle" x="2788.04" y="-127.3" font-family="Times,serif" font-size="14.00">prebuild&#45;sqlite</text>
</g>
<!-- gst&#45;client&#45;&gt;prebuild&#45;sqlite -->
<g id="edge14" class="edge">
<title>gst&#45;client&#45;&gt;prebuild&#45;sqlite</title>
<path fill="none" stroke="green" d="M1920.23,-267.4C2048.74,-249.97 2405.04,-200.52 2700.04,-149 2706.74,-147.83 2713.71,-146.57 2720.67,-145.27"/>
<polygon fill="green" stroke="green" points="2721.64,-148.65 2730.82,-143.36 2720.35,-141.77 2721.64,-148.65"/>
</g>
<!-- prebuild&#45;xz -->
<g id="node16" class="node">
<title>prebuild&#45;xz</title>
<ellipse fill="none" stroke="black" cx="2948.04" cy="-131" rx="63.09" ry="18"/>
<text text-anchor="middle" x="2948.04" y="-127.3" font-family="Times,serif" font-size="14.00">prebuild&#45;xz</text>
</g>
<!-- gst&#45;client&#45;&gt;prebuild&#45;xz -->
<g id="edge15" class="edge">
<title>gst&#45;client&#45;&gt;prebuild&#45;xz</title>
<path fill="none" stroke="green" d="M1922.92,-269.9C2072.04,-257.6 2514.36,-217.6 2876.04,-149 2881.33,-148 2886.81,-146.87 2892.28,-145.68"/>
<polygon fill="green" stroke="green" points="2893.08,-149.09 2902.08,-143.49 2891.56,-142.26 2893.08,-149.09"/>
</g>
<!-- prebuild&#45;pcre -->
<g id="node17" class="node">
<title>prebuild&#45;pcre</title>
<ellipse fill="none" stroke="black" cx="3102.04" cy="-131" rx="73.39" ry="18"/>
<text text-anchor="middle" x="3102.04" y="-127.3" font-family="Times,serif" font-size="14.00">prebuild&#45;pcre</text>
</g>
<!-- gst&#45;client&#45;&gt;prebuild&#45;pcre -->
<g id="edge16" class="edge">
<title>gst&#45;client&#45;&gt;prebuild&#45;pcre</title>
<path fill="none" stroke="green" d="M1923.84,-271.19C2037.98,-264.82 2316.15,-247.73 2548.04,-221 2758.85,-196.7 2811.19,-186.55 3020.04,-149 3026.15,-147.9 3032.49,-146.7 3038.83,-145.45"/>
<polygon fill="green" stroke="green" points="3039.63,-148.86 3048.75,-143.48 3038.26,-142 3039.63,-148.86"/>
</g>
<!-- prebuild&#45;zlib -->
<g id="node18" class="node">
<title>prebuild&#45;zlib</title>
<ellipse fill="none" stroke="black" cx="3263.04" cy="-131" rx="69.59" ry="18"/>
<text text-anchor="middle" x="3263.04" y="-127.3" font-family="Times,serif" font-size="14.00">prebuild&#45;zlib</text>
</g>
<!-- gst&#45;client&#45;&gt;prebuild&#45;zlib -->
<g id="edge17" class="edge">
<title>gst&#45;client&#45;&gt;prebuild&#45;zlib</title>
<path fill="none" stroke="green" d="M1924.54,-272.06C2055.77,-266.96 2403.99,-251.46 2693.04,-221 2912.38,-197.89 2967,-188.22 3184.04,-149 3190.11,-147.9 3196.43,-146.68 3202.73,-145.41"/>
<polygon fill="green" stroke="green" points="3203.48,-148.83 3212.57,-143.38 3202.07,-141.97 3203.48,-148.83"/>
</g>
<!-- libgstc&#45;&gt;prebuild&#45;glib2 -->
<g id="edge18" class="edge">
<title>libgstc&#45;&gt;prebuild&#45;glib2</title>
<path fill="none" stroke="green" d="M1828.89,-201.65C1599.43,-199.57 498.73,-187.73 161.04,-149 153.85,-148.17 146.35,-147.06 138.93,-145.79"/>
<polygon fill="green" stroke="green" points="139.34,-142.31 128.88,-143.98 138.1,-149.2 139.34,-142.31"/>
</g>
<!-- libgstc&#45;&gt;prebuild&#45;gstreamer1 -->
<g id="edge19" class="edge">
<title>libgstc&#45;&gt;prebuild&#45;gstreamer1</title>
<path fill="none" stroke="green" d="M1828.58,-202.2C1652.02,-202.66 958.79,-200.88 392.04,-149 381.84,-148.07 371.16,-146.83 360.59,-145.46"/>
<polygon fill="green" stroke="green" points="360.89,-141.97 350.52,-144.1 359.96,-148.9 360.89,-141.97"/>
</g>
<!-- libgstc&#45;&gt;prebuild&#45;gstreamer1&#45;plugins&#45;bad -->
<g id="edge20" class="edge">
<title>libgstc&#45;&gt;prebuild&#45;gstreamer1&#45;plugins&#45;bad</title>
<path fill="none" stroke="green" d="M1829.07,-200.81C1680.19,-196.44 1163.5,-179.83 738.04,-149 722.09,-147.84 705.33,-146.44 688.77,-144.93"/>
<polygon fill="green" stroke="green" points="688.78,-141.42 678.5,-143.99 688.14,-148.39 688.78,-141.42"/>
</g>
<!-- libgstc&#45;&gt;prebuild&#45;gstreamer1&#45;plugins&#45;base -->
<g id="edge21" class="edge">
<title>libgstc&#45;&gt;prebuild&#45;gstreamer1&#45;plugins&#45;base</title>
<path fill="none" stroke="green" d="M1829.27,-199.56C1712.7,-192.65 1374.04,-171.99 1093.04,-149 1077.16,-147.7 1060.48,-146.24 1043.98,-144.73"/>
<polygon fill="green" stroke="green" points="1044.01,-141.22 1033.73,-143.79 1043.37,-148.19 1044.01,-141.22"/>
</g>
<!-- libgstc&#45;&gt;prebuild&#45;json&#45;c -->
<g id="edge22" class="edge">
<title>libgstc&#45;&gt;prebuild&#45;json&#45;c</title>
<path fill="none" stroke="green" d="M1829.35,-199.77C1731.39,-194.23 1479.09,-178.11 1270.04,-149 1262.87,-148 1255.39,-146.81 1247.96,-145.53"/>
<polygon fill="green" stroke="green" points="1248.33,-142.04 1237.88,-143.74 1247.11,-148.94 1248.33,-142.04"/>
</g>
<!-- libgstc&#45;&gt;prebuild&#45;json&#45;glib -->
<g id="edge23" class="edge">
<title>libgstc&#45;&gt;prebuild&#45;json&#45;glib</title>
<path fill="none" stroke="green" d="M1830.87,-197.09C1759,-188.21 1603.68,-168.58 1473.04,-149 1464.88,-147.78 1456.35,-146.44 1447.86,-145.08"/>
<polygon fill="green" stroke="green" points="1448.36,-141.62 1437.93,-143.47 1447.24,-148.53 1448.36,-141.62"/>
</g>
<!-- libgstc&#45;&gt;prebuild&#45;libsoup -->
<g id="edge24" class="edge">
<title>libgstc&#45;&gt;prebuild&#45;libsoup</title>
<path fill="none" stroke="green" d="M1834.8,-193.63C1785.17,-182.16 1695.23,-161.38 1633.62,-147.15"/>
<polygon fill="green" stroke="green" points="1634.13,-143.68 1623.6,-144.84 1632.56,-150.5 1634.13,-143.68"/>
</g>
<!-- libgstc&#45;&gt;prebuild&#45;libxml2 -->
<g id="edge25" class="edge">
<title>libgstc&#45;&gt;prebuild&#45;libxml2</title>
<path fill="none" stroke="green" d="M1848.31,-187.67C1832.87,-177.92 1812.14,-164.85 1794.66,-153.83"/>
<polygon fill="green" stroke="green" points="1796.18,-150.65 1785.85,-148.28 1792.44,-156.57 1796.18,-150.65"/>
</g>
<!-- libgstc&#45;&gt;prebuild&#45;libdaemon -->
<g id="edge26" class="edge">
<title>libgstc&#45;&gt;prebuild&#45;libdaemon</title>
<path fill="none" stroke="green" d="M1891.19,-187.15C1903.94,-177.76 1920.67,-165.43 1935.09,-154.81"/>
<polygon fill="green" stroke="green" points="1937.28,-157.54 1943.26,-148.79 1933.13,-151.9 1937.28,-157.54"/>
</g>
<!-- libgstc&#45;&gt;prebuild&#45;libffi -->
<g id="edge27" class="edge">
<title>libgstc&#45;&gt;prebuild&#45;libffi</title>
<path fill="none" stroke="green" d="M1906.94,-193.28C1954.97,-181.6 2040.83,-160.73 2098.85,-146.63"/>
<polygon fill="green" stroke="green" points="2099.74,-150.02 2108.63,-144.25 2098.09,-143.21 2099.74,-150.02"/>
</g>
<!-- libgstc&#45;&gt;prebuild&#45;libselinux -->
<g id="edge28" class="edge">
<title>libgstc&#45;&gt;prebuild&#45;libselinux</title>
<path fill="none" stroke="green" d="M1910.61,-196.56C1978.47,-187.17 2121.41,-167.2 2242.04,-149 2250.56,-147.72 2259.45,-146.35 2268.31,-144.97"/>
<polygon fill="green" stroke="green" points="2268.94,-148.41 2278.27,-143.4 2267.85,-141.49 2268.94,-148.41"/>
</g>
<!-- libgstc&#45;&gt;prebuild&#45;util&#45;linux&#45;libs -->
<g id="edge29" class="edge">
<title>libgstc&#45;&gt;prebuild&#45;util&#45;linux&#45;libs</title>
<path fill="none" stroke="green" d="M1912.53,-198.91C2008.28,-191.62 2251.99,-172.23 2455.04,-149 2465.54,-147.8 2476.52,-146.44 2487.42,-145.01"/>
<polygon fill="green" stroke="green" points="2487.94,-148.48 2497.39,-143.7 2487.02,-141.54 2487.94,-148.48"/>
</g>
<!-- libgstc&#45;&gt;prebuild&#45;sqlite -->
<g id="edge30" class="edge">
<title>libgstc&#45;&gt;prebuild&#45;sqlite</title>
<path fill="none" stroke="green" d="M1913.5,-201.19C2035.98,-198.43 2400.35,-187.37 2700.04,-149 2707.34,-148.07 2714.94,-146.9 2722.49,-145.61"/>
<polygon fill="green" stroke="green" points="2723.12,-149.06 2732.35,-143.86 2721.9,-142.16 2723.12,-149.06"/>
</g>
<!-- libgstc&#45;&gt;prebuild&#45;xz -->
<g id="edge31" class="edge">
<title>libgstc&#45;&gt;prebuild&#45;xz</title>
<path fill="none" stroke="green" d="M1913.43,-202.47C2052.31,-203.43 2505.92,-202.02 2876.04,-149 2881.74,-148.18 2887.66,-147.13 2893.53,-145.95"/>
<polygon fill="green" stroke="green" points="2894.29,-149.37 2903.34,-143.86 2892.83,-142.52 2894.29,-149.37"/>
</g>
<!-- libgstc&#45;&gt;prebuild&#45;pcre -->
<g id="edge32" class="edge">
<title>libgstc&#45;&gt;prebuild&#45;pcre</title>
<path fill="none" stroke="green" d="M1913.51,-202.46C2064.68,-203.58 2590.6,-203.07 3020.04,-149 3026.73,-148.16 3033.68,-147.06 3040.59,-145.84"/>
<polygon fill="green" stroke="green" points="3041.45,-149.24 3050.64,-143.95 3040.16,-142.35 3041.45,-149.24"/>
</g>
<!-- libgstc&#45;&gt;prebuild&#45;zlib -->
<g id="edge33" class="edge">
<title>libgstc&#45;&gt;prebuild&#45;zlib</title>
<path fill="none" stroke="green" d="M1913.27,-201.27C2109.03,-197.74 2929.57,-181.27 3184.04,-149 3190.44,-148.19 3197.08,-147.12 3203.68,-145.92"/>
<polygon fill="green" stroke="green" points="3204.81,-149.26 3213.96,-143.93 3203.48,-142.39 3204.81,-149.26"/>
</g>
</g>
</svg>
