<?xml version="1.0" encoding="UTF-8" standalone="no"?>
<!DOCTYPE svg PUBLIC "-//W3C//DTD SVG 1.1//EN"
 "http://www.w3.org/Graphics/SVG/1.1/DTD/svg11.dtd">
<!-- Generated by graphviz version 2.43.0 (0)
 -->
<!-- Title: depends Pages: 1 -->
<svg width="797pt" height="536pt"
 viewBox="0.00 0.00 796.89 536.00" xmlns="http://www.w3.org/2000/svg" xmlns:xlink="http://www.w3.org/1999/xlink">
<g id="graph0" class="graph" transform="scale(1 1) rotate(0) translate(4 532)">
<title>depends</title>
<polygon fill="white" stroke="transparent" points="-4,4 -4,-532 792.89,-532 792.89,4 -4,4"/>
<text text-anchor="middle" x="394.44" y="-97.8" font-family="Times,serif" font-size="14.00">solid line: strong dependency</text>
<text text-anchor="middle" x="394.44" y="-82.8" font-family="Times,serif" font-size="14.00">dashed line: weak dependency</text>
<text text-anchor="middle" x="394.44" y="-67.8" font-family="Times,serif" font-size="14.00">double lines: choose one package from srcbuild and prebuild or from patch and unpatch</text>
<text text-anchor="middle" x="394.44" y="-52.8" font-family="Times,serif" font-size="14.00">red line: unselected in .config</text>
<text text-anchor="middle" x="394.44" y="-37.8" font-family="Times,serif" font-size="14.00">green line: selected in .config</text>
<text text-anchor="middle" x="394.44" y="-22.8" font-family="Times,serif" font-size="14.00">red box: top package, unselected in .config</text>
<text text-anchor="middle" x="394.44" y="-7.8" font-family="Times,serif" font-size="14.00">green box: top package, selected in .config</text>
<!-- kernel&#45;module&#45;imx274&#45;mipi&#45;brg -->
<g id="node1" class="node">
<title>kernel&#45;module&#45;imx274&#45;mipi&#45;brg</title>
<ellipse fill="none" stroke="green" cx="315.3" cy="-510" rx="157.07" ry="18"/>
<text text-anchor="middle" x="315.3" y="-506.3" font-family="Times,serif" font-size="14.00">kernel&#45;module&#45;imx274&#45;mipi&#45;brg</text>
</g>
<!-- kernel&#45;module&#45;ambrg -->
<g id="node2" class="node">
<title>kernel&#45;module&#45;ambrg</title>
<ellipse fill="none" stroke="black" cx="315.3" cy="-437" rx="110.48" ry="18"/>
<text text-anchor="middle" x="315.3" y="-433.3" font-family="Times,serif" font-size="14.00">kernel&#45;module&#45;ambrg</text>
</g>
<!-- kernel&#45;module&#45;imx274&#45;mipi&#45;brg&#45;&gt;kernel&#45;module&#45;ambrg -->
<g id="edge1" class="edge">
<title>kernel&#45;module&#45;imx274&#45;mipi&#45;brg&#45;&gt;kernel&#45;module&#45;ambrg</title>
<path fill="none" stroke="green" d="M315.3,-491.81C315.3,-483.79 315.3,-474.05 315.3,-465.07"/>
<polygon fill="green" stroke="green" points="318.8,-465.03 315.3,-455.03 311.8,-465.03 318.8,-465.03"/>
</g>
<!-- kernel&#45;module&#45;ambvideo -->
<g id="node3" class="node">
<title>kernel&#45;module&#45;ambvideo</title>
<ellipse fill="none" stroke="black" cx="423.3" cy="-364" rx="124.58" ry="18"/>
<text text-anchor="middle" x="423.3" y="-360.3" font-family="Times,serif" font-size="14.00">kernel&#45;module&#45;ambvideo</text>
</g>
<!-- kernel&#45;module&#45;imx274&#45;mipi&#45;brg&#45;&gt;kernel&#45;module&#45;ambvideo -->
<g id="edge2" class="edge">
<title>kernel&#45;module&#45;imx274&#45;mipi&#45;brg&#45;&gt;kernel&#45;module&#45;ambvideo</title>
<path fill="none" stroke="green" d="M382.51,-493.67C402.61,-485.61 422.44,-473.4 434.3,-455 446.36,-436.27 441.72,-410.73 435.16,-391.65"/>
<polygon fill="green" stroke="green" points="438.34,-390.17 431.52,-382.06 431.8,-392.65 438.34,-390.17"/>
</g>
<!-- linux -->
<g id="node4" class="node">
<title>linux</title>
<ellipse fill="none" stroke="black" cx="270.3" cy="-291" rx="33.6" ry="18"/>
<text text-anchor="middle" x="270.3" y="-287.3" font-family="Times,serif" font-size="14.00">linux</text>
</g>
<!-- kernel&#45;module&#45;imx274&#45;mipi&#45;brg&#45;&gt;linux -->
<g id="edge3" class="edge">
<title>kernel&#45;module&#45;imx274&#45;mipi&#45;brg&#45;&gt;linux</title>
<path fill="none" stroke="green" d="M248.08,-493.67C227.98,-485.61 208.15,-473.4 196.3,-455 166.06,-408.08 214.67,-346.77 246.38,-314.35"/>
<polygon fill="green" stroke="green" points="249.01,-316.67 253.63,-307.13 244.07,-311.71 249.01,-316.67"/>
</g>
<!-- kernel&#45;module&#45;ambrg&#45;&gt;kernel&#45;module&#45;ambvideo -->
<g id="edge4" class="edge">
<title>kernel&#45;module&#45;ambrg&#45;&gt;kernel&#45;module&#45;ambvideo</title>
<path fill="none" stroke="green" d="M340.62,-419.35C355.14,-409.81 373.55,-397.7 389.32,-387.34"/>
<polygon fill="green" stroke="green" points="391.33,-390.21 397.76,-381.79 387.48,-384.36 391.33,-390.21"/>
</g>
<!-- kernel&#45;module&#45;ambrg&#45;&gt;linux -->
<g id="edge5" class="edge">
<title>kernel&#45;module&#45;ambrg&#45;&gt;linux</title>
<path fill="none" stroke="green" d="M305.77,-418.94C300.29,-408.53 293.66,-394.8 289.3,-382 282.28,-361.4 277.35,-337.24 274.27,-319.13"/>
<polygon fill="green" stroke="green" points="277.72,-318.56 272.67,-309.25 270.81,-319.68 277.72,-318.56"/>
</g>
<!-- kernel&#45;module&#45;ambvideo&#45;&gt;linux -->
<g id="edge8" class="edge">
<title>kernel&#45;module&#45;ambvideo&#45;&gt;linux</title>
<path fill="none" stroke="green" d="M388.19,-346.71C363,-335.02 329.24,-319.36 304.31,-307.78"/>
<polygon fill="green" stroke="green" points="305.76,-304.6 295.22,-303.56 302.81,-310.95 305.76,-304.6"/>
</g>
<!-- ambvideo&#45;header -->
<g id="node5" class="node">
<title>ambvideo&#45;header</title>
<ellipse fill="none" stroke="black" cx="606.3" cy="-291" rx="90.98" ry="18"/>
<text text-anchor="middle" x="606.3" y="-287.3" font-family="Times,serif" font-size="14.00">ambvideo&#45;header</text>
</g>
<!-- kernel&#45;module&#45;ambvideo&#45;&gt;ambvideo&#45;header -->
<g id="edge6" class="edge">
<title>kernel&#45;module&#45;ambvideo&#45;&gt;ambvideo&#45;header</title>
<path fill="none" stroke="green" d="M464.82,-346.89C492.3,-336.23 528.44,-322.2 557.32,-311"/>
<polygon fill="green" stroke="green" points="558.76,-314.2 566.82,-307.32 556.23,-307.67 558.76,-314.2"/>
</g>
<!-- firmware&#45;ucode -->
<g id="node6" class="node">
<title>firmware&#45;ucode</title>
<ellipse fill="none" stroke="black" cx="414.3" cy="-291" rx="83.39" ry="18"/>
<text text-anchor="middle" x="414.3" y="-287.3" font-family="Times,serif" font-size="14.00">firmware&#45;ucode</text>
</g>
<!-- kernel&#45;module&#45;ambvideo&#45;&gt;firmware&#45;ucode -->
<g id="edge7" class="edge">
<title>kernel&#45;module&#45;ambvideo&#45;&gt;firmware&#45;ucode</title>
<path fill="none" stroke="green" d="M421.12,-345.81C420.1,-337.79 418.86,-328.05 417.73,-319.07"/>
<polygon fill="green" stroke="green" points="421.18,-318.51 416.45,-309.03 414.24,-319.39 421.18,-318.51"/>
</g>
<!-- board -->
<g id="node8" class="node">
<title>board</title>
<ellipse fill="none" stroke="black" cx="134.3" cy="-131" rx="37.89" ry="18"/>
<text text-anchor="middle" x="134.3" y="-127.3" font-family="Times,serif" font-size="14.00">board</text>
</g>
<!-- linux&#45;&gt;board -->
<g id="edge16" class="edge">
<title>linux&#45;&gt;board</title>
<path fill="none" stroke="green" d="M241.81,-281.05C214.77,-271.05 175.12,-252.17 153.3,-222 140.17,-203.85 135.72,-178.58 134.39,-159.43"/>
<polygon fill="green" stroke="green" points="137.87,-159.06 133.92,-149.23 130.88,-159.38 137.87,-159.06"/>
</g>
<!-- initramfs -->
<g id="node9" class="node">
<title>initramfs</title>
<ellipse fill="none" stroke="black" cx="53.3" cy="-204" rx="53.09" ry="18"/>
<text text-anchor="middle" x="53.3" y="-200.3" font-family="Times,serif" font-size="14.00">initramfs</text>
</g>
<!-- linux&#45;&gt;initramfs -->
<g id="edge11" class="edge">
<title>linux&#45;&gt;initramfs</title>
<path fill="none" stroke="red" stroke-dasharray="5,2" d="M237.43,-286.29C206.16,-281.85 158.37,-272.7 120.3,-255 105.32,-248.04 90.43,-237.39 78.5,-227.71"/>
<polygon fill="red" stroke="red" points="80.66,-224.96 70.75,-221.22 76.17,-230.32 80.66,-224.96"/>
</g>
<!-- linux&#45;patch&#45;uvac -->
<g id="node10" class="node">
<title>linux&#45;patch&#45;uvac</title>
<ellipse fill="none" stroke="black" cx="248.3" cy="-204" rx="86.38" ry="18"/>
<text text-anchor="middle" x="248.3" y="-200.3" font-family="Times,serif" font-size="14.00">linux&#45;patch&#45;uvac</text>
</g>
<!-- linux&#45;&gt;linux&#45;patch&#45;uvac -->
<g id="edge12" class="edge">
<title>linux&#45;&gt;linux&#45;patch&#45;uvac</title>
<path fill="none" stroke="red" stroke-dasharray="5,2" d="M244.82,-279.03C234.99,-273.38 224.8,-265.45 219.3,-255 214.97,-246.78 217.56,-237.97 222.63,-230.08"/>
<polygon fill="red" stroke="red" points="225.57,-231.99 228.9,-221.93 220.03,-227.72 225.57,-231.99"/>
<text text-anchor="middle" x="239.3" y="-243.8" font-family="Times,serif" font-size="14.00">patch</text>
</g>
<!-- linux&#45;&gt;linux&#45;patch&#45;uvac -->
<g id="edge13" class="edge">
<title>linux&#45;&gt;linux&#45;patch&#45;uvac</title>
<path fill="none" stroke="green" d="M266.9,-272.79C264.89,-263.1 262.18,-250.82 259.3,-240 258.58,-237.32 257.79,-234.54 256.98,-231.78"/>
<polygon fill="green" stroke="green" points="260.25,-230.53 253.97,-222 253.56,-232.59 260.25,-230.53"/>
<text text-anchor="middle" x="292.3" y="-243.8" font-family="Times,serif" font-size="14.00">unpatch</text>
</g>
<!-- linux&#45;patch&#45;rmem&#45;dio -->
<g id="node11" class="node">
<title>linux&#45;patch&#45;rmem&#45;dio</title>
<ellipse fill="none" stroke="black" cx="462.3" cy="-204" rx="109.38" ry="18"/>
<text text-anchor="middle" x="462.3" y="-200.3" font-family="Times,serif" font-size="14.00">linux&#45;patch&#45;rmem&#45;dio</text>
</g>
<!-- linux&#45;&gt;linux&#45;patch&#45;rmem&#45;dio -->
<g id="edge14" class="edge">
<title>linux&#45;&gt;linux&#45;patch&#45;rmem&#45;dio</title>
<path fill="none" stroke="red" stroke-dasharray="5,2" d="M295.4,-278.89C326.13,-265.28 378.78,-241.98 416.73,-225.17"/>
<polygon fill="red" stroke="red" points="418.31,-228.3 426.04,-221.05 415.48,-221.9 418.31,-228.3"/>
<text text-anchor="middle" x="398.3" y="-243.8" font-family="Times,serif" font-size="14.00">patch</text>
</g>
<!-- linux&#45;&gt;linux&#45;patch&#45;rmem&#45;dio -->
<g id="edge15" class="edge">
<title>linux&#45;&gt;linux&#45;patch&#45;rmem&#45;dio</title>
<path fill="none" stroke="green" d="M297.62,-280.29C305.51,-277.69 314.19,-275.04 322.3,-273 366.08,-261.96 383.49,-278.1 422.3,-255 432.28,-249.05 440.79,-239.62 447.35,-230.54"/>
<polygon fill="green" stroke="green" points="450.37,-232.33 453.04,-222.07 444.56,-228.43 450.37,-232.33"/>
<text text-anchor="middle" x="469.3" y="-243.8" font-family="Times,serif" font-size="14.00">unpatch</text>
</g>
<!-- generic&#45;header -->
<g id="node7" class="node">
<title>generic&#45;header</title>
<ellipse fill="none" stroke="black" cx="708.3" cy="-204" rx="80.69" ry="18"/>
<text text-anchor="middle" x="708.3" y="-200.3" font-family="Times,serif" font-size="14.00">generic&#45;header</text>
</g>
<!-- ambvideo&#45;header&#45;&gt;generic&#45;header -->
<g id="edge9" class="edge">
<title>ambvideo&#45;header&#45;&gt;generic&#45;header</title>
<path fill="none" stroke="green" d="M626.45,-273.21C641.91,-260.32 663.44,-242.38 680.54,-228.13"/>
<polygon fill="green" stroke="green" points="683.09,-230.56 688.53,-221.47 678.61,-225.18 683.09,-230.56"/>
</g>
<!-- ambvideo&#45;header&#45;&gt;board -->
<g id="edge10" class="edge">
<title>ambvideo&#45;header&#45;&gt;board</title>
<path fill="none" stroke="green" d="M607.45,-272.63C607.97,-249.17 604.99,-207.8 580.3,-186 522.14,-134.67 285.08,-130.5 182.25,-131.2"/>
<polygon fill="green" stroke="green" points="182.12,-127.7 172.15,-131.29 182.18,-134.7 182.12,-127.7"/>
</g>
<!-- initramfs&#45;&gt;board -->
<g id="edge17" class="edge">
<title>initramfs&#45;&gt;board</title>
<path fill="none" stroke="green" d="M71.68,-186.89C82.86,-177.09 97.28,-164.44 109.47,-153.76"/>
<polygon fill="green" stroke="green" points="111.88,-156.3 117.1,-147.08 107.27,-151.04 111.88,-156.3"/>
</g>
</g>
</svg>
