<?xml version="1.0" encoding="UTF-8" standalone="no"?>
<!DOCTYPE svg PUBLIC "-//W3C//DTD SVG 1.1//EN"
 "http://www.w3.org/Graphics/SVG/1.1/DTD/svg11.dtd">
<!-- Generated by graphviz version 2.43.0 (0)
 -->
<!-- Title: depends Pages: 1 -->
<svg width="2704pt" height="445pt"
 viewBox="0.00 0.00 2704.24 445.00" xmlns="http://www.w3.org/2000/svg" xmlns:xlink="http://www.w3.org/1999/xlink">
<g id="graph0" class="graph" transform="scale(1 1) rotate(0) translate(4 441)">
<title>depends</title>
<polygon fill="white" stroke="transparent" points="-4,4 -4,-441 2700.24,-441 2700.24,4 -4,4"/>
<text text-anchor="middle" x="1348.12" y="-97.8" font-family="Times,serif" font-size="14.00">solid line: strong dependency</text>
<text text-anchor="middle" x="1348.12" y="-82.8" font-family="Times,serif" font-size="14.00">dashed line: weak dependency</text>
<text text-anchor="middle" x="1348.12" y="-67.8" font-family="Times,serif" font-size="14.00">double lines: choose one package from srcbuild and prebuild or from patch and unpatch</text>
<text text-anchor="middle" x="1348.12" y="-52.8" font-family="Times,serif" font-size="14.00">red line: unselected in .config</text>
<text text-anchor="middle" x="1348.12" y="-37.8" font-family="Times,serif" font-size="14.00">green line: selected in .config</text>
<text text-anchor="middle" x="1348.12" y="-22.8" font-family="Times,serif" font-size="14.00">red box: top package, unselected in .config</text>
<text text-anchor="middle" x="1348.12" y="-7.8" font-family="Times,serif" font-size="14.00">green box: top package, selected in .config</text>
<!-- libgstnnstreamer -->
<g id="node1" class="node">
<title>libgstnnstreamer</title>
<ellipse fill="none" stroke="green" cx="741.06" cy="-419" rx="90.98" ry="18"/>
<text text-anchor="middle" x="741.06" y="-415.3" font-family="Times,serif" font-size="14.00">libgstnnstreamer</text>
</g>
<!-- board -->
<g id="node2" class="node">
<title>board</title>
<ellipse fill="none" stroke="black" cx="433.06" cy="-203" rx="37.89" ry="18"/>
<text text-anchor="middle" x="433.06" y="-199.3" font-family="Times,serif" font-size="14.00">board</text>
</g>
<!-- libgstnnstreamer&#45;&gt;board -->
<g id="edge1" class="edge">
<title>libgstnnstreamer&#45;&gt;board</title>
<path fill="none" stroke="green" d="M650.28,-416.94C559.29,-413.72 428.22,-402.48 396.06,-365 362.8,-326.24 393.72,-263.49 415.62,-228.89"/>
<polygon fill="green" stroke="green" points="418.68,-230.61 421.22,-220.33 412.82,-226.78 418.68,-230.61"/>
</g>
<!-- libvproc -->
<g id="node3" class="node">
<title>libvproc</title>
<ellipse fill="none" stroke="black" cx="51.06" cy="-347" rx="48.19" ry="18"/>
<text text-anchor="middle" x="51.06" y="-343.3" font-family="Times,serif" font-size="14.00">libvproc</text>
</g>
<!-- libgstnnstreamer&#45;&gt;libvproc -->
<g id="edge2" class="edge">
<title>libgstnnstreamer&#45;&gt;libvproc</title>
<path fill="none" stroke="green" d="M659.48,-411.03C551.03,-401.57 353.47,-383.71 185.06,-365 158.95,-362.1 130.04,-358.48 105.77,-355.33"/>
<polygon fill="green" stroke="green" points="106.05,-351.84 95.68,-354.01 105.14,-358.78 106.05,-351.84"/>
</g>
<!-- libnnctrl -->
<g id="node4" class="node">
<title>libnnctrl</title>
<ellipse fill="none" stroke="black" cx="251.06" cy="-275" rx="50.09" ry="18"/>
<text text-anchor="middle" x="251.06" y="-271.3" font-family="Times,serif" font-size="14.00">libnnctrl</text>
</g>
<!-- libgstnnstreamer&#45;&gt;libnnctrl -->
<g id="edge3" class="edge">
<title>libgstnnstreamer&#45;&gt;libnnctrl</title>
<path fill="none" stroke="green" d="M651.83,-415.21C544.04,-410.43 370.26,-397.76 315.06,-365 290.75,-350.58 273.11,-322.95 262.58,-302.28"/>
<polygon fill="green" stroke="green" points="265.62,-300.53 258.11,-293.06 259.33,-303.59 265.62,-300.53"/>
</g>
<!-- libcavalrymem -->
<g id="node5" class="node">
<title>libcavalrymem</title>
<ellipse fill="none" stroke="black" cx="104.06" cy="-275" rx="79.09" ry="18"/>
<text text-anchor="middle" x="104.06" y="-271.3" font-family="Times,serif" font-size="14.00">libcavalrymem</text>
</g>
<!-- libgstnnstreamer&#45;&gt;libcavalrymem -->
<g id="edge4" class="edge">
<title>libgstnnstreamer&#45;&gt;libcavalrymem</title>
<path fill="none" stroke="green" d="M650.39,-417.33C555.21,-414.41 402.17,-403.39 276.06,-365 224.68,-349.36 170.46,-318.59 136.94,-297.66"/>
<polygon fill="green" stroke="green" points="138.79,-294.69 128.47,-292.3 135.05,-300.6 138.79,-294.69"/>
</g>
<!-- prebuild&#45;glib2 -->
<g id="node6" class="node">
<title>prebuild&#45;glib2</title>
<ellipse fill="none" stroke="black" cx="641.06" cy="-347" rx="76.09" ry="18"/>
<text text-anchor="middle" x="641.06" y="-343.3" font-family="Times,serif" font-size="14.00">prebuild&#45;glib2</text>
</g>
<!-- libgstnnstreamer&#45;&gt;prebuild&#45;glib2 -->
<g id="edge5" class="edge">
<title>libgstnnstreamer&#45;&gt;prebuild&#45;glib2</title>
<path fill="none" stroke="green" d="M717.61,-401.59C704.19,-392.2 687.19,-380.29 672.61,-370.09"/>
<polygon fill="green" stroke="green" points="674.55,-367.18 664.35,-364.31 670.54,-372.91 674.55,-367.18"/>
</g>
<!-- prebuild&#45;gstreamer1 -->
<g id="node7" class="node">
<title>prebuild&#45;gstreamer1</title>
<ellipse fill="none" stroke="black" cx="842.06" cy="-347" rx="106.68" ry="18"/>
<text text-anchor="middle" x="842.06" y="-343.3" font-family="Times,serif" font-size="14.00">prebuild&#45;gstreamer1</text>
</g>
<!-- libgstnnstreamer&#45;&gt;prebuild&#45;gstreamer1 -->
<g id="edge6" class="edge">
<title>libgstnnstreamer&#45;&gt;prebuild&#45;gstreamer1</title>
<path fill="none" stroke="green" d="M764.74,-401.59C778.19,-392.26 795.22,-380.46 809.87,-370.31"/>
<polygon fill="green" stroke="green" points="811.95,-373.12 818.17,-364.55 807.96,-367.37 811.95,-373.12"/>
</g>
<!-- prebuild&#45;gstreamer1&#45;plugins&#45;bad -->
<g id="node8" class="node">
<title>prebuild&#45;gstreamer1&#45;plugins&#45;bad</title>
<ellipse fill="none" stroke="black" cx="1130.06" cy="-347" rx="163.57" ry="18"/>
<text text-anchor="middle" x="1130.06" y="-343.3" font-family="Times,serif" font-size="14.00">prebuild&#45;gstreamer1&#45;plugins&#45;bad</text>
</g>
<!-- libgstnnstreamer&#45;&gt;prebuild&#45;gstreamer1&#45;plugins&#45;bad -->
<g id="edge7" class="edge">
<title>libgstnnstreamer&#45;&gt;prebuild&#45;gstreamer1&#45;plugins&#45;bad</title>
<path fill="none" stroke="green" d="M806.17,-406.28C869.79,-394.83 967.22,-377.3 1038.61,-364.46"/>
<polygon fill="green" stroke="green" points="1039.28,-367.89 1048.5,-362.68 1038.04,-361 1039.28,-367.89"/>
</g>
<!-- prebuild&#45;gstreamer1&#45;plugins&#45;base -->
<g id="node9" class="node">
<title>prebuild&#45;gstreamer1&#45;plugins&#45;base</title>
<ellipse fill="none" stroke="black" cx="1480.06" cy="-347" rx="168.17" ry="18"/>
<text text-anchor="middle" x="1480.06" y="-343.3" font-family="Times,serif" font-size="14.00">prebuild&#45;gstreamer1&#45;plugins&#45;base</text>
</g>
<!-- libgstnnstreamer&#45;&gt;prebuild&#45;gstreamer1&#45;plugins&#45;base -->
<g id="edge8" class="edge">
<title>libgstnnstreamer&#45;&gt;prebuild&#45;gstreamer1&#45;plugins&#45;base</title>
<path fill="none" stroke="green" d="M821.56,-410.45C930.68,-400.21 1131.59,-381.32 1303.06,-365 1318.06,-363.57 1333.77,-362.07 1349.38,-360.58"/>
<polygon fill="green" stroke="green" points="1350,-364.03 1359.62,-359.6 1349.33,-357.07 1350,-364.03"/>
</g>
<!-- prebuild&#45;gstreamer1&#45;plugins&#45;good -->
<g id="node10" class="node">
<title>prebuild&#45;gstreamer1&#45;plugins&#45;good</title>
<ellipse fill="none" stroke="black" cx="1835.06" cy="-347" rx="168.97" ry="18"/>
<text text-anchor="middle" x="1835.06" y="-343.3" font-family="Times,serif" font-size="14.00">prebuild&#45;gstreamer1&#45;plugins&#45;good</text>
</g>
<!-- libgstnnstreamer&#45;&gt;prebuild&#45;gstreamer1&#45;plugins&#45;good -->
<g id="edge9" class="edge">
<title>libgstnnstreamer&#45;&gt;prebuild&#45;gstreamer1&#45;plugins&#45;good</title>
<path fill="none" stroke="green" d="M828.59,-414.03C991.69,-406.38 1353.1,-388.3 1657.06,-365 1673.08,-363.77 1689.89,-362.35 1706.53,-360.85"/>
<polygon fill="green" stroke="green" points="1707.22,-364.3 1716.86,-359.91 1706.59,-357.33 1707.22,-364.3"/>
</g>
<!-- prebuild&#45;gstreamer1&#45;plugins&#45;ugly -->
<g id="node11" class="node">
<title>prebuild&#45;gstreamer1&#45;plugins&#45;ugly</title>
<ellipse fill="none" stroke="black" cx="2189.06" cy="-347" rx="167.07" ry="18"/>
<text text-anchor="middle" x="2189.06" y="-343.3" font-family="Times,serif" font-size="14.00">prebuild&#45;gstreamer1&#45;plugins&#45;ugly</text>
</g>
<!-- libgstnnstreamer&#45;&gt;prebuild&#45;gstreamer1&#45;plugins&#45;ugly -->
<g id="edge10" class="edge">
<title>libgstnnstreamer&#45;&gt;prebuild&#45;gstreamer1&#45;plugins&#45;ugly</title>
<path fill="none" stroke="green" d="M830.98,-415.94C1039.13,-410.81 1570.13,-395.6 2013.06,-365 2029.44,-363.87 2046.66,-362.47 2063.66,-360.96"/>
<polygon fill="green" stroke="green" points="2063.99,-364.44 2073.63,-360.06 2063.36,-357.47 2063.99,-364.44"/>
</g>
<!-- prebuild&#45;gstreamer1&#45;rtsp&#45;server -->
<g id="node12" class="node">
<title>prebuild&#45;gstreamer1&#45;rtsp&#45;server</title>
<ellipse fill="none" stroke="black" cx="2535.06" cy="-347" rx="161.37" ry="18"/>
<text text-anchor="middle" x="2535.06" y="-343.3" font-family="Times,serif" font-size="14.00">prebuild&#45;gstreamer1&#45;rtsp&#45;server</text>
</g>
<!-- libgstnnstreamer&#45;&gt;prebuild&#45;gstreamer1&#45;rtsp&#45;server -->
<g id="edge11" class="edge">
<title>libgstnnstreamer&#45;&gt;prebuild&#45;gstreamer1&#45;rtsp&#45;server</title>
<path fill="none" stroke="green" d="M831.84,-417.17C1078.5,-414.45 1781.69,-403.64 2365.06,-365 2380.99,-363.94 2397.73,-362.58 2414.25,-361.09"/>
<polygon fill="green" stroke="green" points="2414.86,-364.55 2424.5,-360.14 2414.22,-357.58 2414.86,-364.55"/>
</g>
<!-- liblwapputils -->
<g id="node13" class="node">
<title>liblwapputils</title>
<ellipse fill="none" stroke="black" cx="476.06" cy="-347" rx="70.69" ry="18"/>
<text text-anchor="middle" x="476.06" y="-343.3" font-family="Times,serif" font-size="14.00">liblwapputils</text>
</g>
<!-- libgstnnstreamer&#45;&gt;liblwapputils -->
<g id="edge12" class="edge">
<title>libgstnnstreamer&#45;&gt;liblwapputils</title>
<path fill="none" stroke="green" d="M688.7,-404.17C643.87,-392.33 579.44,-375.31 533.27,-363.11"/>
<polygon fill="green" stroke="green" points="533.97,-359.68 523.41,-360.51 532.19,-366.45 533.97,-359.68"/>
</g>
<!-- libvproc&#45;&gt;libcavalrymem -->
<g id="edge15" class="edge">
<title>libvproc&#45;&gt;libcavalrymem</title>
<path fill="none" stroke="green" d="M63.62,-329.41C69.99,-320.99 77.87,-310.58 84.98,-301.2"/>
<polygon fill="green" stroke="green" points="87.97,-303.04 91.22,-292.96 82.39,-298.82 87.97,-303.04"/>
</g>
<!-- generic&#45;header -->
<g id="node14" class="node">
<title>generic&#45;header</title>
<ellipse fill="none" stroke="black" cx="227.06" cy="-131" rx="80.69" ry="18"/>
<text text-anchor="middle" x="227.06" y="-127.3" font-family="Times,serif" font-size="14.00">generic&#45;header</text>
</g>
<!-- libvproc&#45;&gt;generic&#45;header -->
<g id="edge13" class="edge">
<title>libvproc&#45;&gt;generic&#45;header</title>
<path fill="none" stroke="green" d="M32.95,-330.3C23.25,-320.65 12.25,-307.4 7.06,-293 -10.27,-245 6.36,-217.07 46.06,-185 74.45,-162.06 112.45,-149.04 146.29,-141.67"/>
<polygon fill="green" stroke="green" points="147.08,-145.08 156.18,-139.64 145.68,-138.22 147.08,-145.08"/>
</g>
<!-- ambcavalry&#45;header -->
<g id="node15" class="node">
<title>ambcavalry&#45;header</title>
<ellipse fill="none" stroke="black" cx="163.06" cy="-203" rx="99.38" ry="18"/>
<text text-anchor="middle" x="163.06" y="-199.3" font-family="Times,serif" font-size="14.00">ambcavalry&#45;header</text>
</g>
<!-- libvproc&#45;&gt;ambcavalry&#45;header -->
<g id="edge14" class="edge">
<title>libvproc&#45;&gt;ambcavalry&#45;header</title>
<path fill="none" stroke="green" d="M35.81,-329.77C20.11,-311.02 0.02,-279.82 16.06,-257 29.84,-237.38 51.62,-224.99 74.24,-217.18"/>
<polygon fill="green" stroke="green" points="75.49,-220.46 83.97,-214.1 73.38,-213.78 75.49,-220.46"/>
</g>
<!-- libnnctrl&#45;&gt;generic&#45;header -->
<g id="edge19" class="edge">
<title>libnnctrl&#45;&gt;generic&#45;header</title>
<path fill="none" stroke="green" d="M260.37,-257.24C269.19,-239.08 279.87,-209.43 271.06,-185 267.24,-174.43 260.3,-164.48 253.04,-156.12"/>
<polygon fill="green" stroke="green" points="255.44,-153.56 246.07,-148.62 250.31,-158.33 255.44,-153.56"/>
</g>
<!-- libnnctrl&#45;&gt;ambcavalry&#45;header -->
<g id="edge20" class="edge">
<title>libnnctrl&#45;&gt;ambcavalry&#45;header</title>
<path fill="none" stroke="green" d="M231.09,-258.12C219.61,-248.98 204.98,-237.35 192.23,-227.2"/>
<polygon fill="green" stroke="green" points="194.18,-224.28 184.17,-220.8 189.82,-229.76 194.18,-224.28"/>
</g>
<!-- libcavalrymem&#45;&gt;generic&#45;header -->
<g id="edge17" class="edge">
<title>libcavalrymem&#45;&gt;generic&#45;header</title>
<path fill="none" stroke="green" d="M83.7,-257.47C63.43,-238.98 37.67,-208.56 55.06,-185 74.65,-158.46 107.33,-144.8 138.98,-137.9"/>
<polygon fill="green" stroke="green" points="140.06,-141.26 149.2,-135.89 138.71,-134.39 140.06,-141.26"/>
</g>
<!-- libcavalrymem&#45;&gt;ambcavalry&#45;header -->
<g id="edge18" class="edge">
<title>libcavalrymem&#45;&gt;ambcavalry&#45;header</title>
<path fill="none" stroke="green" d="M118.34,-257.05C125.41,-248.67 134.08,-238.38 141.9,-229.1"/>
<polygon fill="green" stroke="green" points="144.73,-231.18 148.5,-221.28 139.37,-226.67 144.73,-231.18"/>
</g>
<!-- liblwapputils&#45;&gt;board -->
<g id="edge21" class="edge">
<title>liblwapputils&#45;&gt;board</title>
<path fill="none" stroke="green" d="M453.39,-329.83C442.29,-320.49 430.05,-307.68 424.06,-293 415.92,-273.08 419.22,-248.65 423.97,-230.42"/>
<polygon fill="green" stroke="green" points="427.36,-231.33 426.78,-220.75 420.63,-229.38 427.36,-231.33"/>
</g>
<!-- liblwapputils&#45;&gt;generic&#45;header -->
<g id="edge22" class="edge">
<title>liblwapputils&#45;&gt;generic&#45;header</title>
<path fill="none" stroke="green" d="M456.93,-329.56C412.94,-291.75 304.45,-198.52 253.85,-155.03"/>
<polygon fill="green" stroke="green" points="256.11,-152.36 246.25,-148.49 251.55,-157.67 256.11,-152.36"/>
</g>
<!-- ambvideo&#45;header -->
<g id="node16" class="node">
<title>ambvideo&#45;header</title>
<ellipse fill="none" stroke="black" cx="524.06" cy="-275" rx="90.98" ry="18"/>
<text text-anchor="middle" x="524.06" y="-271.3" font-family="Times,serif" font-size="14.00">ambvideo&#45;header</text>
</g>
<!-- liblwapputils&#45;&gt;ambvideo&#45;header -->
<g id="edge23" class="edge">
<title>liblwapputils&#45;&gt;ambvideo&#45;header</title>
<path fill="none" stroke="green" d="M487.68,-329.05C493.31,-320.84 500.2,-310.79 506.46,-301.66"/>
<polygon fill="green" stroke="green" points="509.44,-303.5 512.21,-293.28 503.67,-299.54 509.44,-303.5"/>
</g>
<!-- prebuild&#45;libjpeg&#45;turbo -->
<g id="node17" class="node">
<title>prebuild&#45;libjpeg&#45;turbo</title>
<ellipse fill="none" stroke="black" cx="1023.06" cy="-275" rx="112.38" ry="18"/>
<text text-anchor="middle" x="1023.06" y="-271.3" font-family="Times,serif" font-size="14.00">prebuild&#45;libjpeg&#45;turbo</text>
</g>
<!-- liblwapputils&#45;&gt;prebuild&#45;libjpeg&#45;turbo -->
<g id="edge24" class="edge">
<title>liblwapputils&#45;&gt;prebuild&#45;libjpeg&#45;turbo</title>
<path fill="none" stroke="green" d="M526.69,-334.4C536.4,-332.41 546.52,-330.51 556.06,-329 708.77,-304.9 748.59,-311.76 902.06,-293 912.11,-291.77 922.62,-290.41 933.07,-289.01"/>
<polygon fill="green" stroke="green" points="933.61,-292.47 943.05,-287.65 932.67,-285.53 933.61,-292.47"/>
</g>
<!-- prebuild&#45;freetype -->
<g id="node18" class="node">
<title>prebuild&#45;freetype</title>
<ellipse fill="none" stroke="black" cx="801.06" cy="-275" rx="91.78" ry="18"/>
<text text-anchor="middle" x="801.06" y="-271.3" font-family="Times,serif" font-size="14.00">prebuild&#45;freetype</text>
</g>
<!-- liblwapputils&#45;&gt;prebuild&#45;freetype -->
<g id="edge25" class="edge">
<title>liblwapputils&#45;&gt;prebuild&#45;freetype</title>
<path fill="none" stroke="green" d="M528.27,-334.75C583.51,-322.86 670.95,-304.02 731.89,-290.9"/>
<polygon fill="green" stroke="green" points="732.77,-294.29 741.81,-288.76 731.3,-287.44 732.77,-294.29"/>
</g>
<!-- prebuild&#45;zlib -->
<g id="node19" class="node">
<title>prebuild&#45;zlib</title>
<ellipse fill="none" stroke="black" cx="855.06" cy="-131" rx="69.59" ry="18"/>
<text text-anchor="middle" x="855.06" y="-127.3" font-family="Times,serif" font-size="14.00">prebuild&#45;zlib</text>
</g>
<!-- liblwapputils&#45;&gt;prebuild&#45;zlib -->
<g id="edge26" class="edge">
<title>liblwapputils&#45;&gt;prebuild&#45;zlib</title>
<path fill="none" stroke="green" d="M524.12,-333.62C561.61,-323.11 609.67,-307.47 624.06,-293 659.94,-256.92 624.83,-219.69 662.06,-185 692.97,-156.18 738.08,-142.79 776.91,-136.66"/>
<polygon fill="green" stroke="green" points="777.76,-140.07 787.16,-135.19 776.76,-133.15 777.76,-140.07"/>
</g>
<!-- prebuild&#45;bzip2 -->
<g id="node20" class="node">
<title>prebuild&#45;bzip2</title>
<ellipse fill="none" stroke="black" cx="749.06" cy="-203" rx="77.99" ry="18"/>
<text text-anchor="middle" x="749.06" y="-199.3" font-family="Times,serif" font-size="14.00">prebuild&#45;bzip2</text>
</g>
<!-- liblwapputils&#45;&gt;prebuild&#45;bzip2 -->
<g id="edge27" class="edge">
<title>liblwapputils&#45;&gt;prebuild&#45;bzip2</title>
<path fill="none" stroke="green" d="M526.36,-334.15C571.8,-322.93 634.84,-305.92 657.06,-293 672.42,-284.07 704.49,-251.56 726.4,-228.42"/>
<polygon fill="green" stroke="green" points="729.1,-230.66 733.4,-220.98 724,-225.87 729.1,-230.66"/>
</g>
<!-- prebuild&#45;libpng -->
<g id="node21" class="node">
<title>prebuild&#45;libpng</title>
<ellipse fill="none" stroke="black" cx="965.06" cy="-203" rx="81.79" ry="18"/>
<text text-anchor="middle" x="965.06" y="-199.3" font-family="Times,serif" font-size="14.00">prebuild&#45;libpng</text>
</g>
<!-- liblwapputils&#45;&gt;prebuild&#45;libpng -->
<g id="edge28" class="edge">
<title>liblwapputils&#45;&gt;prebuild&#45;libpng</title>
<path fill="none" stroke="green" d="M526.21,-334.15C536.06,-332.17 546.35,-330.32 556.06,-329 620.91,-320.17 1099.21,-340.68 1144.06,-293 1181.47,-253.23 1105.28,-228.73 1041,-215.75"/>
<polygon fill="green" stroke="green" points="1041.29,-212.24 1030.81,-213.76 1039.95,-219.11 1041.29,-212.24"/>
</g>
<!-- ambcavalry&#45;header&#45;&gt;generic&#45;header -->
<g id="edge16" class="edge">
<title>ambcavalry&#45;header&#45;&gt;generic&#45;header</title>
<path fill="none" stroke="green" d="M178.55,-185.05C186.41,-176.46 196.1,-165.86 204.75,-156.4"/>
<polygon fill="green" stroke="green" points="207.54,-158.53 211.71,-148.79 202.38,-153.81 207.54,-158.53"/>
</g>
<!-- ambvideo&#45;header&#45;&gt;board -->
<g id="edge30" class="edge">
<title>ambvideo&#45;header&#45;&gt;board</title>
<path fill="none" stroke="green" d="M502.49,-257.41C489.78,-247.63 473.59,-235.18 460.04,-224.76"/>
<polygon fill="green" stroke="green" points="462.06,-221.89 452,-218.57 457.79,-227.44 462.06,-221.89"/>
</g>
<!-- ambvideo&#45;header&#45;&gt;generic&#45;header -->
<g id="edge29" class="edge">
<title>ambvideo&#45;header&#45;&gt;generic&#45;header</title>
<path fill="none" stroke="green" d="M520.34,-256.69C515.02,-236.3 503.22,-202.94 480.06,-185 453.45,-164.39 371.19,-149.74 307.61,-141.14"/>
<polygon fill="green" stroke="green" points="307.95,-137.65 297.58,-139.81 307.03,-144.59 307.95,-137.65"/>
</g>
<!-- prebuild&#45;freetype&#45;&gt;prebuild&#45;zlib -->
<g id="edge31" class="edge">
<title>prebuild&#45;freetype&#45;&gt;prebuild&#45;zlib</title>
<path fill="none" stroke="green" d="M814.81,-256.79C822.12,-246.85 830.68,-233.81 836.06,-221 844.34,-201.24 849.18,-177.44 851.9,-159.42"/>
<polygon fill="green" stroke="green" points="855.4,-159.68 853.3,-149.3 848.46,-158.73 855.4,-159.68"/>
</g>
<!-- prebuild&#45;freetype&#45;&gt;prebuild&#45;bzip2 -->
<g id="edge32" class="edge">
<title>prebuild&#45;freetype&#45;&gt;prebuild&#45;bzip2</title>
<path fill="none" stroke="green" d="M788.47,-257.05C782.21,-248.63 774.52,-238.28 767.6,-228.97"/>
<polygon fill="green" stroke="green" points="770.3,-226.73 761.53,-220.79 764.68,-230.9 770.3,-226.73"/>
</g>
<!-- prebuild&#45;freetype&#45;&gt;prebuild&#45;libpng -->
<g id="edge33" class="edge">
<title>prebuild&#45;freetype&#45;&gt;prebuild&#45;libpng</title>
<path fill="none" stroke="green" d="M837.45,-258.46C861.83,-248.06 894.08,-234.29 920.06,-223.2"/>
<polygon fill="green" stroke="green" points="921.5,-226.4 929.33,-219.25 918.75,-219.96 921.5,-226.4"/>
</g>
<!-- prebuild&#45;libpng&#45;&gt;prebuild&#45;zlib -->
<g id="edge34" class="edge">
<title>prebuild&#45;libpng&#45;&gt;prebuild&#45;zlib</title>
<path fill="none" stroke="green" d="M939.54,-185.76C924.44,-176.15 905.13,-163.87 888.78,-153.46"/>
<polygon fill="green" stroke="green" points="890.37,-150.32 880.05,-147.91 886.61,-156.23 890.37,-150.32"/>
</g>
</g>
</svg>
