<?xml version="1.0" encoding="UTF-8" standalone="no"?>
<!DOCTYPE svg PUBLIC "-//W3C//DTD SVG 1.1//EN"
 "http://www.w3.org/Graphics/SVG/1.1/DTD/svg11.dtd">
<!-- Generated by graphviz version 2.43.0 (0)
 -->
<!-- Title: depends Pages: 1 -->
<svg width="3518pt" height="445pt"
 viewBox="0.00 0.00 3518.08 445.00" xmlns="http://www.w3.org/2000/svg" xmlns:xlink="http://www.w3.org/1999/xlink">
<g id="graph0" class="graph" transform="scale(1 1) rotate(0) translate(4 441)">
<title>depends</title>
<polygon fill="white" stroke="transparent" points="-4,4 -4,-441 3514.08,-441 3514.08,4 -4,4"/>
<text text-anchor="middle" x="1755.04" y="-97.8" font-family="Times,serif" font-size="14.00">solid line: strong dependency</text>
<text text-anchor="middle" x="1755.04" y="-82.8" font-family="Times,serif" font-size="14.00">dashed line: weak dependency</text>
<text text-anchor="middle" x="1755.04" y="-67.8" font-family="Times,serif" font-size="14.00">double lines: choose one package from srcbuild and prebuild or from patch and unpatch</text>
<text text-anchor="middle" x="1755.04" y="-52.8" font-family="Times,serif" font-size="14.00">red line: unselected in .config</text>
<text text-anchor="middle" x="1755.04" y="-37.8" font-family="Times,serif" font-size="14.00">green line: selected in .config</text>
<text text-anchor="middle" x="1755.04" y="-22.8" font-family="Times,serif" font-size="14.00">red box: top package, unselected in .config</text>
<text text-anchor="middle" x="1755.04" y="-7.8" font-family="Times,serif" font-size="14.00">green box: top package, selected in .config</text>
<!-- libgstamba -->
<g id="node1" class="node">
<title>libgstamba</title>
<ellipse fill="none" stroke="green" cx="1350.89" cy="-419" rx="62.29" ry="18"/>
<text text-anchor="middle" x="1350.89" y="-415.3" font-family="Times,serif" font-size="14.00">libgstamba</text>
</g>
<!-- board -->
<g id="node2" class="node">
<title>board</title>
<ellipse fill="none" stroke="black" cx="819.89" cy="-203" rx="37.89" ry="18"/>
<text text-anchor="middle" x="819.89" y="-199.3" font-family="Times,serif" font-size="14.00">board</text>
</g>
<!-- libgstamba&#45;&gt;board -->
<g id="edge1" class="edge">
<title>libgstamba&#45;&gt;board</title>
<path fill="none" stroke="green" d="M1301.47,-407.81C1258.9,-398.47 1196.1,-383.32 1142.89,-365 1067.63,-339.08 1045.21,-337.03 978.89,-293 959.51,-280.13 960.28,-269.86 940.89,-257 915.61,-240.23 884.15,-226.64 859.65,-217.42"/>
<polygon fill="green" stroke="green" points="860.54,-214.02 849.95,-213.86 858.13,-220.6 860.54,-214.02"/>
</g>
<!-- liblwapputils -->
<g id="node3" class="node">
<title>liblwapputils</title>
<ellipse fill="none" stroke="black" cx="441.89" cy="-347" rx="70.69" ry="18"/>
<text text-anchor="middle" x="441.89" y="-343.3" font-family="Times,serif" font-size="14.00">liblwapputils</text>
</g>
<!-- libgstamba&#45;&gt;liblwapputils -->
<g id="edge2" class="edge">
<title>libgstamba&#45;&gt;liblwapputils</title>
<path fill="none" stroke="green" d="M1291.25,-413.41C1131.91,-401.14 696.36,-367.6 518.79,-353.92"/>
<polygon fill="green" stroke="green" points="518.98,-350.43 508.75,-353.15 518.45,-357.41 518.98,-350.43"/>
</g>
<!-- libvproc -->
<g id="node4" class="node">
<title>libvproc</title>
<ellipse fill="none" stroke="black" cx="1274.89" cy="-347" rx="48.19" ry="18"/>
<text text-anchor="middle" x="1274.89" y="-343.3" font-family="Times,serif" font-size="14.00">libvproc</text>
</g>
<!-- libgstamba&#45;&gt;libvproc -->
<g id="edge3" class="edge">
<title>libgstamba&#45;&gt;libvproc</title>
<path fill="none" stroke="green" d="M1332.88,-401.41C1322.99,-392.3 1310.58,-380.87 1299.77,-370.92"/>
<polygon fill="green" stroke="green" points="1301.98,-368.19 1292.25,-363.99 1297.24,-373.34 1301.98,-368.19"/>
</g>
<!-- libnnctrl -->
<g id="node5" class="node">
<title>libnnctrl</title>
<ellipse fill="none" stroke="black" cx="1227.89" cy="-275" rx="50.09" ry="18"/>
<text text-anchor="middle" x="1227.89" y="-271.3" font-family="Times,serif" font-size="14.00">libnnctrl</text>
</g>
<!-- libgstamba&#45;&gt;libnnctrl -->
<g id="edge4" class="edge">
<title>libgstamba&#45;&gt;libnnctrl</title>
<path fill="none" stroke="green" d="M1295.41,-410.69C1267.19,-403.85 1235.26,-390.61 1217.89,-365 1205.54,-346.78 1209.91,-321.5 1216.28,-302.53"/>
<polygon fill="green" stroke="green" points="1219.62,-303.59 1219.82,-293 1213.06,-301.15 1219.62,-303.59"/>
</g>
<!-- libcavalrymem -->
<g id="node6" class="node">
<title>libcavalrymem</title>
<ellipse fill="none" stroke="black" cx="1450.89" cy="-275" rx="79.09" ry="18"/>
<text text-anchor="middle" x="1450.89" y="-271.3" font-family="Times,serif" font-size="14.00">libcavalrymem</text>
</g>
<!-- libgstamba&#45;&gt;libcavalrymem -->
<g id="edge5" class="edge">
<title>libgstamba&#45;&gt;libcavalrymem</title>
<path fill="none" stroke="green" d="M1350.79,-400.76C1351.48,-381.63 1355.07,-350.63 1369.89,-329 1379.09,-315.58 1392.91,-304.73 1406.55,-296.43"/>
<polygon fill="green" stroke="green" points="1408.49,-299.35 1415.43,-291.34 1405.01,-293.28 1408.49,-299.35"/>
</g>
<!-- prebuild&#45;alsa&#45;lib -->
<g id="node7" class="node">
<title>prebuild&#45;alsa&#45;lib</title>
<ellipse fill="none" stroke="black" cx="1073.89" cy="-275" rx="85.59" ry="18"/>
<text text-anchor="middle" x="1073.89" y="-271.3" font-family="Times,serif" font-size="14.00">prebuild&#45;alsa&#45;lib</text>
</g>
<!-- libgstamba&#45;&gt;prebuild&#45;alsa&#45;lib -->
<g id="edge6" class="edge">
<title>libgstamba&#45;&gt;prebuild&#45;alsa&#45;lib</title>
<path fill="none" stroke="green" d="M1309.14,-405.54C1279.79,-396.09 1240.01,-381.87 1206.89,-365 1169.31,-345.85 1129.52,-318.11 1103.36,-298.7"/>
<polygon fill="green" stroke="green" points="1105.14,-295.66 1095.04,-292.47 1100.94,-301.26 1105.14,-295.66"/>
</g>
<!-- prebuild&#45;libpng -->
<g id="node8" class="node">
<title>prebuild&#45;libpng</title>
<ellipse fill="none" stroke="black" cx="81.89" cy="-203" rx="81.79" ry="18"/>
<text text-anchor="middle" x="81.89" y="-199.3" font-family="Times,serif" font-size="14.00">prebuild&#45;libpng</text>
</g>
<!-- libgstamba&#45;&gt;prebuild&#45;libpng -->
<g id="edge7" class="edge">
<title>libgstamba&#45;&gt;prebuild&#45;libpng</title>
<path fill="none" stroke="green" d="M1288.89,-416.47C1101.29,-411.55 541.61,-394.71 361.89,-365 245.28,-345.72 189.02,-377.02 105.89,-293 89.84,-276.78 84.23,-251.01 82.4,-231.37"/>
<polygon fill="green" stroke="green" points="85.88,-230.94 81.73,-221.19 78.9,-231.4 85.88,-230.94"/>
</g>
<!-- prebuild&#45;libjpeg&#45;turbo -->
<g id="node9" class="node">
<title>prebuild&#45;libjpeg&#45;turbo</title>
<ellipse fill="none" stroke="black" cx="819.89" cy="-275" rx="112.38" ry="18"/>
<text text-anchor="middle" x="819.89" y="-271.3" font-family="Times,serif" font-size="14.00">prebuild&#45;libjpeg&#45;turbo</text>
</g>
<!-- libgstamba&#45;&gt;prebuild&#45;libjpeg&#45;turbo -->
<g id="edge8" class="edge">
<title>libgstamba&#45;&gt;prebuild&#45;libjpeg&#45;turbo</title>
<path fill="none" stroke="green" d="M1291.17,-413.72C1194.28,-406.2 1007.48,-389.07 945.89,-365 907.35,-349.94 869.42,-320.63 845.42,-299.76"/>
<polygon fill="green" stroke="green" points="847.64,-297.05 837.83,-293.04 843,-302.29 847.64,-297.05"/>
</g>
<!-- prebuild&#45;glib2 -->
<g id="node10" class="node">
<title>prebuild&#45;glib2</title>
<ellipse fill="none" stroke="black" cx="1454.89" cy="-347" rx="76.09" ry="18"/>
<text text-anchor="middle" x="1454.89" y="-343.3" font-family="Times,serif" font-size="14.00">prebuild&#45;glib2</text>
</g>
<!-- libgstamba&#45;&gt;prebuild&#45;glib2 -->
<g id="edge9" class="edge">
<title>libgstamba&#45;&gt;prebuild&#45;glib2</title>
<path fill="none" stroke="green" d="M1374.23,-402.29C1388.48,-392.7 1406.91,-380.3 1422.55,-369.77"/>
<polygon fill="green" stroke="green" points="1424.57,-372.63 1430.91,-364.14 1420.66,-366.82 1424.57,-372.63"/>
</g>
<!-- prebuild&#45;gstreamer1 -->
<g id="node11" class="node">
<title>prebuild&#45;gstreamer1</title>
<ellipse fill="none" stroke="black" cx="1655.89" cy="-347" rx="106.68" ry="18"/>
<text text-anchor="middle" x="1655.89" y="-343.3" font-family="Times,serif" font-size="14.00">prebuild&#45;gstreamer1</text>
</g>
<!-- libgstamba&#45;&gt;prebuild&#45;gstreamer1 -->
<g id="edge10" class="edge">
<title>libgstamba&#45;&gt;prebuild&#45;gstreamer1</title>
<path fill="none" stroke="green" d="M1398.21,-407.14C1448.25,-395.66 1527.74,-377.41 1585.21,-364.22"/>
<polygon fill="green" stroke="green" points="1586.35,-367.55 1595.31,-361.9 1584.78,-360.73 1586.35,-367.55"/>
</g>
<!-- prebuild&#45;gstreamer1&#45;plugins&#45;bad -->
<g id="node12" class="node">
<title>prebuild&#45;gstreamer1&#45;plugins&#45;bad</title>
<ellipse fill="none" stroke="black" cx="1943.89" cy="-347" rx="163.57" ry="18"/>
<text text-anchor="middle" x="1943.89" y="-343.3" font-family="Times,serif" font-size="14.00">prebuild&#45;gstreamer1&#45;plugins&#45;bad</text>
</g>
<!-- libgstamba&#45;&gt;prebuild&#45;gstreamer1&#45;plugins&#45;bad -->
<g id="edge11" class="edge">
<title>libgstamba&#45;&gt;prebuild&#45;gstreamer1&#45;plugins&#45;bad</title>
<path fill="none" stroke="green" d="M1407.48,-411.32C1503.46,-399.99 1700.04,-376.79 1826.7,-361.83"/>
<polygon fill="green" stroke="green" points="1827.32,-365.29 1836.84,-360.64 1826.5,-358.33 1827.32,-365.29"/>
</g>
<!-- prebuild&#45;gstreamer1&#45;plugins&#45;base -->
<g id="node13" class="node">
<title>prebuild&#45;gstreamer1&#45;plugins&#45;base</title>
<ellipse fill="none" stroke="black" cx="2293.89" cy="-347" rx="168.17" ry="18"/>
<text text-anchor="middle" x="2293.89" y="-343.3" font-family="Times,serif" font-size="14.00">prebuild&#45;gstreamer1&#45;plugins&#45;base</text>
</g>
<!-- libgstamba&#45;&gt;prebuild&#45;gstreamer1&#45;plugins&#45;base -->
<g id="edge12" class="edge">
<title>libgstamba&#45;&gt;prebuild&#45;gstreamer1&#45;plugins&#45;base</title>
<path fill="none" stroke="green" d="M1411.51,-414.36C1541.06,-406.45 1854.51,-386.67 2116.89,-365 2132.56,-363.71 2149,-362.25 2165.29,-360.76"/>
<polygon fill="green" stroke="green" points="2165.76,-364.23 2175.4,-359.82 2165.12,-357.26 2165.76,-364.23"/>
</g>
<!-- prebuild&#45;gstreamer1&#45;plugins&#45;good -->
<g id="node14" class="node">
<title>prebuild&#45;gstreamer1&#45;plugins&#45;good</title>
<ellipse fill="none" stroke="black" cx="2648.89" cy="-347" rx="168.97" ry="18"/>
<text text-anchor="middle" x="2648.89" y="-343.3" font-family="Times,serif" font-size="14.00">prebuild&#45;gstreamer1&#45;plugins&#45;good</text>
</g>
<!-- libgstamba&#45;&gt;prebuild&#45;gstreamer1&#45;plugins&#45;good -->
<g id="edge13" class="edge">
<title>libgstamba&#45;&gt;prebuild&#45;gstreamer1&#45;plugins&#45;good</title>
<path fill="none" stroke="green" d="M1412.57,-416.12C1581.82,-410.74 2067.75,-393.77 2470.89,-365 2487.33,-363.83 2504.6,-362.41 2521.66,-360.9"/>
<polygon fill="green" stroke="green" points="2522.02,-364.38 2531.67,-360 2521.4,-357.41 2522.02,-364.38"/>
</g>
<!-- prebuild&#45;gstreamer1&#45;plugins&#45;ugly -->
<g id="node15" class="node">
<title>prebuild&#45;gstreamer1&#45;plugins&#45;ugly</title>
<ellipse fill="none" stroke="black" cx="3002.89" cy="-347" rx="167.07" ry="18"/>
<text text-anchor="middle" x="3002.89" y="-343.3" font-family="Times,serif" font-size="14.00">prebuild&#45;gstreamer1&#45;plugins&#45;ugly</text>
</g>
<!-- libgstamba&#45;&gt;prebuild&#45;gstreamer1&#45;plugins&#45;ugly -->
<g id="edge14" class="edge">
<title>libgstamba&#45;&gt;prebuild&#45;gstreamer1&#45;plugins&#45;ugly</title>
<path fill="none" stroke="green" d="M1413.19,-417.11C1616.59,-413.91 2279.68,-401.22 2826.89,-365 2843.41,-363.91 2860.77,-362.52 2877.9,-361.01"/>
<polygon fill="green" stroke="green" points="2878.3,-364.49 2887.95,-360.11 2877.67,-357.52 2878.3,-364.49"/>
</g>
<!-- prebuild&#45;gstreamer1&#45;rtsp&#45;server -->
<g id="node16" class="node">
<title>prebuild&#45;gstreamer1&#45;rtsp&#45;server</title>
<ellipse fill="none" stroke="black" cx="3348.89" cy="-347" rx="161.37" ry="18"/>
<text text-anchor="middle" x="3348.89" y="-343.3" font-family="Times,serif" font-size="14.00">prebuild&#45;gstreamer1&#45;rtsp&#45;server</text>
</g>
<!-- libgstamba&#45;&gt;prebuild&#45;gstreamer1&#45;rtsp&#45;server -->
<g id="edge15" class="edge">
<title>libgstamba&#45;&gt;prebuild&#45;gstreamer1&#45;rtsp&#45;server</title>
<path fill="none" stroke="green" d="M1413.31,-417.79C1646.32,-416.66 2487.39,-409.54 3178.89,-365 3194.95,-363.97 3211.83,-362.61 3228.47,-361.11"/>
<polygon fill="green" stroke="green" points="3229.16,-364.56 3238.79,-360.16 3228.51,-357.59 3229.16,-364.56"/>
</g>
<!-- liblwapputils&#45;&gt;board -->
<g id="edge16" class="edge">
<title>liblwapputils&#45;&gt;board</title>
<path fill="none" stroke="green" d="M506.4,-339.33C551.79,-332.55 612.78,-319.16 660.89,-293 681.33,-281.89 679.5,-269.86 698.89,-257 724.17,-240.23 755.63,-226.64 780.14,-217.42"/>
<polygon fill="green" stroke="green" points="781.65,-220.6 789.84,-213.86 779.24,-214.02 781.65,-220.6"/>
</g>
<!-- liblwapputils&#45;&gt;prebuild&#45;libpng -->
<g id="edge23" class="edge">
<title>liblwapputils&#45;&gt;prebuild&#45;libpng</title>
<path fill="none" stroke="green" d="M376,-340.19C300.23,-332.5 181.46,-317.04 143.89,-293 120.48,-278.02 103.45,-250.72 93.23,-230.29"/>
<polygon fill="green" stroke="green" points="96.35,-228.7 88.89,-221.18 90.03,-231.71 96.35,-228.7"/>
</g>
<!-- liblwapputils&#45;&gt;prebuild&#45;libjpeg&#45;turbo -->
<g id="edge19" class="edge">
<title>liblwapputils&#45;&gt;prebuild&#45;libjpeg&#45;turbo</title>
<path fill="none" stroke="green" d="M497.26,-335.75C561.01,-323.94 666.29,-304.44 739.16,-290.95"/>
<polygon fill="green" stroke="green" points="740.03,-294.35 749.22,-289.09 738.75,-287.47 740.03,-294.35"/>
</g>
<!-- generic&#45;header -->
<g id="node17" class="node">
<title>generic&#45;header</title>
<ellipse fill="none" stroke="black" cx="1246.89" cy="-131" rx="80.69" ry="18"/>
<text text-anchor="middle" x="1246.89" y="-127.3" font-family="Times,serif" font-size="14.00">generic&#45;header</text>
</g>
<!-- liblwapputils&#45;&gt;generic&#45;header -->
<g id="edge17" class="edge">
<title>liblwapputils&#45;&gt;generic&#45;header</title>
<path fill="none" stroke="green" d="M440.85,-328.73C440.62,-309 443.31,-276.89 460.89,-257 525.69,-183.71 573.26,-205.62 668.89,-185 838.62,-148.41 1041.71,-137.06 1156.36,-133.56"/>
<polygon fill="green" stroke="green" points="1156.61,-137.05 1166.5,-133.26 1156.4,-130.05 1156.61,-137.05"/>
</g>
<!-- ambvideo&#45;header -->
<g id="node18" class="node">
<title>ambvideo&#45;header</title>
<ellipse fill="none" stroke="black" cx="560.89" cy="-275" rx="90.98" ry="18"/>
<text text-anchor="middle" x="560.89" y="-271.3" font-family="Times,serif" font-size="14.00">ambvideo&#45;header</text>
</g>
<!-- liblwapputils&#45;&gt;ambvideo&#45;header -->
<g id="edge18" class="edge">
<title>liblwapputils&#45;&gt;ambvideo&#45;header</title>
<path fill="none" stroke="green" d="M468.6,-330.29C484.94,-320.68 506.07,-308.25 524,-297.7"/>
<polygon fill="green" stroke="green" points="526.19,-300.47 533.03,-292.39 522.64,-294.44 526.19,-300.47"/>
</g>
<!-- prebuild&#45;freetype -->
<g id="node19" class="node">
<title>prebuild&#45;freetype</title>
<ellipse fill="none" stroke="black" cx="244.89" cy="-275" rx="91.78" ry="18"/>
<text text-anchor="middle" x="244.89" y="-271.3" font-family="Times,serif" font-size="14.00">prebuild&#45;freetype</text>
</g>
<!-- liblwapputils&#45;&gt;prebuild&#45;freetype -->
<g id="edge20" class="edge">
<title>liblwapputils&#45;&gt;prebuild&#45;freetype</title>
<path fill="none" stroke="green" d="M402.5,-332C372.15,-321.22 329.91,-306.21 296.8,-294.45"/>
<polygon fill="green" stroke="green" points="297.88,-291.11 287.29,-291.06 295.54,-297.71 297.88,-291.11"/>
</g>
<!-- prebuild&#45;zlib -->
<g id="node20" class="node">
<title>prebuild&#45;zlib</title>
<ellipse fill="none" stroke="black" cx="191.89" cy="-131" rx="69.59" ry="18"/>
<text text-anchor="middle" x="191.89" y="-127.3" font-family="Times,serif" font-size="14.00">prebuild&#45;zlib</text>
</g>
<!-- liblwapputils&#45;&gt;prebuild&#45;zlib -->
<g id="edge21" class="edge">
<title>liblwapputils&#45;&gt;prebuild&#45;zlib</title>
<path fill="none" stroke="green" d="M436.82,-328.89C425.01,-289.54 395.86,-195.2 384.89,-185 353.95,-156.21 308.84,-142.82 270.01,-136.68"/>
<polygon fill="green" stroke="green" points="270.17,-133.17 259.77,-135.21 269.17,-140.1 270.17,-133.17"/>
</g>
<!-- prebuild&#45;bzip2 -->
<g id="node21" class="node">
<title>prebuild&#45;bzip2</title>
<ellipse fill="none" stroke="black" cx="297.89" cy="-203" rx="77.99" ry="18"/>
<text text-anchor="middle" x="297.89" y="-199.3" font-family="Times,serif" font-size="14.00">prebuild&#45;bzip2</text>
</g>
<!-- liblwapputils&#45;&gt;prebuild&#45;bzip2 -->
<g id="edge22" class="edge">
<title>liblwapputils&#45;&gt;prebuild&#45;bzip2</title>
<path fill="none" stroke="green" d="M425.09,-329.43C399.76,-304.45 351.63,-256.99 322.39,-228.16"/>
<polygon fill="green" stroke="green" points="324.61,-225.43 315.03,-220.9 319.7,-230.42 324.61,-225.43"/>
</g>
<!-- libvproc&#45;&gt;libcavalrymem -->
<g id="edge32" class="edge">
<title>libvproc&#45;&gt;libcavalrymem</title>
<path fill="none" stroke="green" d="M1306.77,-333.32C1333.85,-322.55 1373.11,-306.94 1403.81,-294.72"/>
<polygon fill="green" stroke="green" points="1405.46,-297.84 1413.46,-290.89 1402.87,-291.33 1405.46,-297.84"/>
</g>
<!-- libvproc&#45;&gt;generic&#45;header -->
<g id="edge30" class="edge">
<title>libvproc&#45;&gt;generic&#45;header</title>
<path fill="none" stroke="green" d="M1279.76,-328.98C1282.46,-318.67 1285.53,-305.19 1286.89,-293 1292.29,-244.7 1273.2,-190.13 1259.55,-158.53"/>
<polygon fill="green" stroke="green" points="1262.62,-156.82 1255.35,-149.12 1256.23,-159.68 1262.62,-156.82"/>
</g>
<!-- ambcavalry&#45;header -->
<g id="node22" class="node">
<title>ambcavalry&#45;header</title>
<ellipse fill="none" stroke="black" cx="1392.89" cy="-203" rx="99.38" ry="18"/>
<text text-anchor="middle" x="1392.89" y="-199.3" font-family="Times,serif" font-size="14.00">ambcavalry&#45;header</text>
</g>
<!-- libvproc&#45;&gt;ambcavalry&#45;header -->
<g id="edge31" class="edge">
<title>libvproc&#45;&gt;ambcavalry&#45;header</title>
<path fill="none" stroke="green" d="M1289.15,-329.35C1298.04,-318.94 1309.68,-305.23 1319.89,-293 1337.72,-271.64 1357.75,-247.19 1372.31,-229.33"/>
<polygon fill="green" stroke="green" points="1375.38,-231.1 1378.98,-221.13 1369.95,-226.68 1375.38,-231.1"/>
</g>
<!-- libnnctrl&#45;&gt;generic&#45;header -->
<g id="edge36" class="edge">
<title>libnnctrl&#45;&gt;generic&#45;header</title>
<path fill="none" stroke="green" d="M1230.18,-256.87C1233.42,-232.67 1239.37,-188.21 1243.23,-159.39"/>
<polygon fill="green" stroke="green" points="1246.74,-159.57 1244.59,-149.19 1239.8,-158.64 1246.74,-159.57"/>
</g>
<!-- libnnctrl&#45;&gt;ambcavalry&#45;header -->
<g id="edge37" class="edge">
<title>libnnctrl&#45;&gt;ambcavalry&#45;header</title>
<path fill="none" stroke="green" d="M1258.93,-260.83C1283.48,-250.42 1318.15,-235.71 1346.08,-223.86"/>
<polygon fill="green" stroke="green" points="1347.8,-226.93 1355.64,-219.8 1345.07,-220.49 1347.8,-226.93"/>
</g>
<!-- libcavalrymem&#45;&gt;generic&#45;header -->
<g id="edge34" class="edge">
<title>libcavalrymem&#45;&gt;generic&#45;header</title>
<path fill="none" stroke="green" d="M1471.59,-257.54C1492.6,-238.84 1519.56,-207.97 1500.89,-185 1479.82,-159.08 1397.91,-145.4 1332.73,-138.48"/>
<polygon fill="green" stroke="green" points="1332.72,-134.97 1322.42,-137.43 1332.01,-141.93 1332.72,-134.97"/>
</g>
<!-- libcavalrymem&#45;&gt;ambcavalry&#45;header -->
<g id="edge35" class="edge">
<title>libcavalrymem&#45;&gt;ambcavalry&#45;header</title>
<path fill="none" stroke="green" d="M1436.85,-257.05C1429.9,-248.67 1421.38,-238.38 1413.69,-229.1"/>
<polygon fill="green" stroke="green" points="1416.28,-226.74 1407.21,-221.28 1410.89,-231.21 1416.28,-226.74"/>
</g>
<!-- prebuild&#45;alsa&#45;lib&#45;&gt;board -->
<g id="edge38" class="edge">
<title>prebuild&#45;alsa&#45;lib&#45;&gt;board</title>
<path fill="none" stroke="green" d="M1024.01,-260.25C976.57,-247.18 906,-227.73 861.5,-215.47"/>
<polygon fill="green" stroke="green" points="862.17,-212.02 851.6,-212.74 860.31,-218.77 862.17,-212.02"/>
</g>
<!-- prebuild&#45;libpng&#45;&gt;prebuild&#45;zlib -->
<g id="edge29" class="edge">
<title>prebuild&#45;libpng&#45;&gt;prebuild&#45;zlib</title>
<path fill="none" stroke="green" d="M107.41,-185.76C122.51,-176.15 141.82,-163.87 158.17,-153.46"/>
<polygon fill="green" stroke="green" points="160.34,-156.23 166.9,-147.91 156.58,-150.32 160.34,-156.23"/>
</g>
<!-- ambvideo&#45;header&#45;&gt;board -->
<g id="edge25" class="edge">
<title>ambvideo&#45;header&#45;&gt;board</title>
<path fill="none" stroke="green" d="M612.37,-260.09C660.92,-246.96 732.8,-227.54 777.96,-215.33"/>
<polygon fill="green" stroke="green" points="778.98,-218.68 787.72,-212.69 777.16,-211.92 778.98,-218.68"/>
</g>
<!-- ambvideo&#45;header&#45;&gt;generic&#45;header -->
<g id="edge24" class="edge">
<title>ambvideo&#45;header&#45;&gt;generic&#45;header</title>
<path fill="none" stroke="green" d="M591.17,-258.01C631.47,-237.51 705.48,-202.53 772.89,-185 903.89,-150.93 1060.86,-138.76 1157.22,-134.42"/>
<polygon fill="green" stroke="green" points="1157.38,-137.91 1167.22,-133.98 1157.08,-130.92 1157.38,-137.91"/>
</g>
<!-- prebuild&#45;freetype&#45;&gt;prebuild&#45;libpng -->
<g id="edge28" class="edge">
<title>prebuild&#45;freetype&#45;&gt;prebuild&#45;libpng</title>
<path fill="none" stroke="green" d="M208.31,-258.29C184.26,-247.96 152.61,-234.37 127,-223.37"/>
<polygon fill="green" stroke="green" points="128.08,-220.03 117.51,-219.3 125.32,-226.46 128.08,-220.03"/>
</g>
<!-- prebuild&#45;freetype&#45;&gt;prebuild&#45;zlib -->
<g id="edge26" class="edge">
<title>prebuild&#45;freetype&#45;&gt;prebuild&#45;zlib</title>
<path fill="none" stroke="green" d="M231.55,-256.73C224.45,-246.78 216.13,-233.74 210.89,-221 202.74,-201.18 197.89,-177.39 195.14,-159.39"/>
<polygon fill="green" stroke="green" points="198.57,-158.69 193.71,-149.27 191.64,-159.66 198.57,-158.69"/>
</g>
<!-- prebuild&#45;freetype&#45;&gt;prebuild&#45;bzip2 -->
<g id="edge27" class="edge">
<title>prebuild&#45;freetype&#45;&gt;prebuild&#45;bzip2</title>
<path fill="none" stroke="green" d="M257.72,-257.05C264.1,-248.63 271.94,-238.28 278.99,-228.97"/>
<polygon fill="green" stroke="green" points="281.94,-230.87 285.18,-220.79 276.35,-226.65 281.94,-230.87"/>
</g>
<!-- ambcavalry&#45;header&#45;&gt;generic&#45;header -->
<g id="edge33" class="edge">
<title>ambcavalry&#45;header&#45;&gt;generic&#45;header</title>
<path fill="none" stroke="green" d="M1359.4,-185.94C1338.33,-175.84 1310.98,-162.73 1288.52,-151.96"/>
<polygon fill="green" stroke="green" points="1289.76,-148.67 1279.23,-147.5 1286.73,-154.98 1289.76,-148.67"/>
</g>
</g>
</svg>
