<?xml version="1.0" encoding="UTF-8" standalone="no"?>
<!DOCTYPE svg PUBLIC "-//W3C//DTD SVG 1.1//EN"
 "http://www.w3.org/Graphics/SVG/1.1/DTD/svg11.dtd">
<!-- Generated by graphviz version 2.43.0 (0)
 -->
<!-- Title: depends Pages: 1 -->
<svg width="797pt" height="463pt"
 viewBox="0.00 0.00 796.89 463.00" xmlns="http://www.w3.org/2000/svg" xmlns:xlink="http://www.w3.org/1999/xlink">
<g id="graph0" class="graph" transform="scale(1 1) rotate(0) translate(4 459)">
<title>depends</title>
<polygon fill="white" stroke="transparent" points="-4,4 -4,-459 792.89,-459 792.89,4 -4,4"/>
<text text-anchor="middle" x="394.44" y="-97.8" font-family="Times,serif" font-size="14.00">solid line: strong dependency</text>
<text text-anchor="middle" x="394.44" y="-82.8" font-family="Times,serif" font-size="14.00">dashed line: weak dependency</text>
<text text-anchor="middle" x="394.44" y="-67.8" font-family="Times,serif" font-size="14.00">double lines: choose one package from srcbuild and prebuild or from patch and unpatch</text>
<text text-anchor="middle" x="394.44" y="-52.8" font-family="Times,serif" font-size="14.00">red line: unselected in .config</text>
<text text-anchor="middle" x="394.44" y="-37.8" font-family="Times,serif" font-size="14.00">green line: selected in .config</text>
<text text-anchor="middle" x="394.44" y="-22.8" font-family="Times,serif" font-size="14.00">red box: top package, unselected in .config</text>
<text text-anchor="middle" x="394.44" y="-7.8" font-family="Times,serif" font-size="14.00">green box: top package, selected in .config</text>
<!-- kernel&#45;module&#45;imx274 -->
<g id="node1" class="node">
<title>kernel&#45;module&#45;imx274</title>
<ellipse fill="none" stroke="green" cx="421.59" cy="-437" rx="114.28" ry="18"/>
<text text-anchor="middle" x="421.59" y="-433.3" font-family="Times,serif" font-size="14.00">kernel&#45;module&#45;imx274</text>
</g>
<!-- kernel&#45;module&#45;ambvideo -->
<g id="node2" class="node">
<title>kernel&#45;module&#45;ambvideo</title>
<ellipse fill="none" stroke="black" cx="345.59" cy="-364" rx="124.58" ry="18"/>
<text text-anchor="middle" x="345.59" y="-360.3" font-family="Times,serif" font-size="14.00">kernel&#45;module&#45;ambvideo</text>
</g>
<!-- kernel&#45;module&#45;imx274&#45;&gt;kernel&#45;module&#45;ambvideo -->
<g id="edge1" class="edge">
<title>kernel&#45;module&#45;imx274&#45;&gt;kernel&#45;module&#45;ambvideo</title>
<path fill="none" stroke="green" d="M403.58,-419.17C393.9,-410.13 381.81,-398.83 371.17,-388.89"/>
<polygon fill="green" stroke="green" points="373.43,-386.22 363.74,-381.95 368.66,-391.34 373.43,-386.22"/>
</g>
<!-- linux -->
<g id="node3" class="node">
<title>linux</title>
<ellipse fill="none" stroke="black" cx="494.59" cy="-291" rx="33.6" ry="18"/>
<text text-anchor="middle" x="494.59" y="-287.3" font-family="Times,serif" font-size="14.00">linux</text>
</g>
<!-- kernel&#45;module&#45;imx274&#45;&gt;linux -->
<g id="edge2" class="edge">
<title>kernel&#45;module&#45;imx274&#45;&gt;linux</title>
<path fill="none" stroke="green" d="M446.1,-419.26C458.1,-409.74 471.65,-396.79 479.59,-382 489.94,-362.75 493.49,-338.12 494.56,-319.49"/>
<polygon fill="green" stroke="green" points="498.07,-319.43 494.94,-309.3 491.07,-319.17 498.07,-319.43"/>
</g>
<!-- kernel&#45;module&#45;ambvideo&#45;&gt;linux -->
<g id="edge5" class="edge">
<title>kernel&#45;module&#45;ambvideo&#45;&gt;linux</title>
<path fill="none" stroke="green" d="M380.15,-346.53C404.44,-334.96 436.76,-319.56 460.86,-308.07"/>
<polygon fill="green" stroke="green" points="462.47,-311.19 469.99,-303.72 459.46,-304.87 462.47,-311.19"/>
</g>
<!-- ambvideo&#45;header -->
<g id="node4" class="node">
<title>ambvideo&#45;header</title>
<ellipse fill="none" stroke="black" cx="158.59" cy="-291" rx="90.98" ry="18"/>
<text text-anchor="middle" x="158.59" y="-287.3" font-family="Times,serif" font-size="14.00">ambvideo&#45;header</text>
</g>
<!-- kernel&#45;module&#45;ambvideo&#45;&gt;ambvideo&#45;header -->
<g id="edge3" class="edge">
<title>kernel&#45;module&#45;ambvideo&#45;&gt;ambvideo&#45;header</title>
<path fill="none" stroke="green" d="M303.16,-346.89C274.99,-336.19 237.89,-322.11 208.33,-310.88"/>
<polygon fill="green" stroke="green" points="209.21,-307.47 198.62,-307.2 206.72,-314.02 209.21,-307.47"/>
</g>
<!-- firmware&#45;ucode -->
<g id="node5" class="node">
<title>firmware&#45;ucode</title>
<ellipse fill="none" stroke="black" cx="350.59" cy="-291" rx="83.39" ry="18"/>
<text text-anchor="middle" x="350.59" y="-287.3" font-family="Times,serif" font-size="14.00">firmware&#45;ucode</text>
</g>
<!-- kernel&#45;module&#45;ambvideo&#45;&gt;firmware&#45;ucode -->
<g id="edge4" class="edge">
<title>kernel&#45;module&#45;ambvideo&#45;&gt;firmware&#45;ucode</title>
<path fill="none" stroke="green" d="M346.8,-345.81C347.37,-337.79 348.05,-328.05 348.69,-319.07"/>
<polygon fill="green" stroke="green" points="352.18,-319.25 349.39,-309.03 345.2,-318.76 352.18,-319.25"/>
</g>
<!-- board -->
<g id="node7" class="node">
<title>board</title>
<ellipse fill="none" stroke="black" cx="654.59" cy="-131" rx="37.89" ry="18"/>
<text text-anchor="middle" x="654.59" y="-127.3" font-family="Times,serif" font-size="14.00">board</text>
</g>
<!-- linux&#45;&gt;board -->
<g id="edge13" class="edge">
<title>linux&#45;&gt;board</title>
<path fill="none" stroke="green" d="M526.06,-283.99C559.03,-275.92 609.58,-258.19 635.59,-222 648.66,-203.81 653.12,-178.54 654.47,-159.4"/>
<polygon fill="green" stroke="green" points="657.97,-159.37 654.94,-149.22 650.98,-159.04 657.97,-159.37"/>
</g>
<!-- initramfs -->
<g id="node8" class="node">
<title>initramfs</title>
<ellipse fill="none" stroke="black" cx="735.59" cy="-204" rx="53.09" ry="18"/>
<text text-anchor="middle" x="735.59" y="-200.3" font-family="Times,serif" font-size="14.00">initramfs</text>
</g>
<!-- linux&#45;&gt;initramfs -->
<g id="edge8" class="edge">
<title>linux&#45;&gt;initramfs</title>
<path fill="none" stroke="red" stroke-dasharray="5,2" d="M527.98,-287.67C564.02,-284.17 622.45,-275.6 668.59,-255 683.78,-248.22 698.79,-237.5 710.74,-227.72"/>
<polygon fill="red" stroke="red" points="713.12,-230.29 718.49,-221.15 708.6,-224.94 713.12,-230.29"/>
</g>
<!-- linux&#45;patch&#45;uvac -->
<g id="node9" class="node">
<title>linux&#45;patch&#45;uvac</title>
<ellipse fill="none" stroke="black" cx="303.59" cy="-204" rx="86.38" ry="18"/>
<text text-anchor="middle" x="303.59" y="-200.3" font-family="Times,serif" font-size="14.00">linux&#45;patch&#45;uvac</text>
</g>
<!-- linux&#45;&gt;linux&#45;patch&#45;uvac -->
<g id="edge9" class="edge">
<title>linux&#45;&gt;linux&#45;patch&#45;uvac</title>
<path fill="none" stroke="red" stroke-dasharray="5,2" d="M467.3,-280.17C459.4,-277.58 450.72,-274.96 442.59,-273 392.72,-260.99 369.98,-285.3 328.59,-255 320.74,-249.25 315.2,-240.34 311.37,-231.62"/>
<polygon fill="red" stroke="red" points="314.56,-230.14 307.74,-222.03 308.01,-232.63 314.56,-230.14"/>
<text text-anchor="middle" x="348.59" y="-243.8" font-family="Times,serif" font-size="14.00">patch</text>
</g>
<!-- linux&#45;&gt;linux&#45;patch&#45;uvac -->
<g id="edge10" class="edge">
<title>linux&#45;&gt;linux&#45;patch&#45;uvac</title>
<path fill="none" stroke="green" d="M468.36,-279.4C451.74,-272.61 429.81,-263.49 410.59,-255 388.99,-245.46 365.18,-234.38 345.51,-225.09"/>
<polygon fill="green" stroke="green" points="346.75,-221.8 336.21,-220.68 343.75,-228.13 346.75,-221.8"/>
<text text-anchor="middle" x="439.59" y="-243.8" font-family="Times,serif" font-size="14.00">unpatch</text>
</g>
<!-- linux&#45;patch&#45;rmem&#45;dio -->
<g id="node10" class="node">
<title>linux&#45;patch&#45;rmem&#45;dio</title>
<ellipse fill="none" stroke="black" cx="517.59" cy="-204" rx="109.38" ry="18"/>
<text text-anchor="middle" x="517.59" y="-200.3" font-family="Times,serif" font-size="14.00">linux&#45;patch&#45;rmem&#45;dio</text>
</g>
<!-- linux&#45;&gt;linux&#45;patch&#45;rmem&#45;dio -->
<g id="edge11" class="edge">
<title>linux&#45;&gt;linux&#45;patch&#45;rmem&#45;dio</title>
<path fill="none" stroke="red" stroke-dasharray="5,2" d="M481.88,-273.98C475.61,-264.05 470.39,-251.1 475.59,-240 477.45,-236.04 480,-232.36 482.94,-229.01"/>
<polygon fill="red" stroke="red" points="485.64,-231.26 490.34,-221.76 480.74,-226.26 485.64,-231.26"/>
<text text-anchor="middle" x="495.59" y="-243.8" font-family="Times,serif" font-size="14.00">patch</text>
</g>
<!-- linux&#45;&gt;linux&#45;patch&#45;rmem&#45;dio -->
<g id="edge12" class="edge">
<title>linux&#45;&gt;linux&#45;patch&#45;rmem&#45;dio</title>
<path fill="none" stroke="green" d="M506.45,-274.06C510.06,-268.34 513.61,-261.65 515.59,-255 517.76,-247.76 518.68,-239.66 518.96,-232.13"/>
<polygon fill="green" stroke="green" points="522.46,-232.02 518.98,-222.01 515.46,-232 522.46,-232.02"/>
<text text-anchor="middle" x="546.59" y="-243.8" font-family="Times,serif" font-size="14.00">unpatch</text>
</g>
<!-- generic&#45;header -->
<g id="node6" class="node">
<title>generic&#45;header</title>
<ellipse fill="none" stroke="black" cx="80.59" cy="-204" rx="80.69" ry="18"/>
<text text-anchor="middle" x="80.59" y="-200.3" font-family="Times,serif" font-size="14.00">generic&#45;header</text>
</g>
<!-- ambvideo&#45;header&#45;&gt;generic&#45;header -->
<g id="edge6" class="edge">
<title>ambvideo&#45;header&#45;&gt;generic&#45;header</title>
<path fill="none" stroke="green" d="M143.18,-273.21C131.64,-260.63 115.69,-243.25 102.78,-229.18"/>
<polygon fill="green" stroke="green" points="105.31,-226.76 95.97,-221.76 100.15,-231.49 105.31,-226.76"/>
</g>
<!-- ambvideo&#45;header&#45;&gt;board -->
<g id="edge7" class="edge">
<title>ambvideo&#45;header&#45;&gt;board</title>
<path fill="none" stroke="green" d="M161.62,-272.7C166.75,-248.93 179.6,-206.77 208.59,-186 271.5,-140.94 504.86,-133.29 606.62,-132.13"/>
<polygon fill="green" stroke="green" points="606.67,-135.63 616.63,-132.03 606.6,-128.63 606.67,-135.63"/>
</g>
<!-- initramfs&#45;&gt;board -->
<g id="edge14" class="edge">
<title>initramfs&#45;&gt;board</title>
<path fill="none" stroke="green" d="M717.21,-186.89C706.03,-177.09 691.61,-164.44 679.42,-153.76"/>
<polygon fill="green" stroke="green" points="681.62,-151.04 671.79,-147.08 677.01,-156.3 681.62,-151.04"/>
</g>
</g>
</svg>
