<?xml version="1.0" encoding="UTF-8" standalone="no"?>
<!DOCTYPE svg PUBLIC "-//W3C//DTD SVG 1.1//EN"
 "http://www.w3.org/Graphics/SVG/1.1/DTD/svg11.dtd">
<!-- Generated by graphviz version 2.43.0 (0)
 -->
<!-- Title: depends Pages: 1 -->
<svg width="652pt" height="301pt"
 viewBox="0.00 0.00 652.00 301.00" xmlns="http://www.w3.org/2000/svg" xmlns:xlink="http://www.w3.org/1999/xlink">
<g id="graph0" class="graph" transform="scale(1 1) rotate(0) translate(4 297)">
<title>depends</title>
<polygon fill="white" stroke="transparent" points="-4,4 -4,-297 648,-297 648,4 -4,4"/>
<text text-anchor="middle" x="322" y="-97.8" font-family="Times,serif" font-size="14.00">solid line: strong dependency</text>
<text text-anchor="middle" x="322" y="-82.8" font-family="Times,serif" font-size="14.00">dashed line: weak dependency</text>
<text text-anchor="middle" x="322" y="-67.8" font-family="Times,serif" font-size="14.00">double lines: choose one package from srcbuild and prebuild or from patch and unpatch</text>
<text text-anchor="middle" x="322" y="-52.8" font-family="Times,serif" font-size="14.00">red line: unselected in .config</text>
<text text-anchor="middle" x="322" y="-37.8" font-family="Times,serif" font-size="14.00">green line: selected in .config</text>
<text text-anchor="middle" x="322" y="-22.8" font-family="Times,serif" font-size="14.00">red box: top package, unselected in .config</text>
<text text-anchor="middle" x="322" y="-7.8" font-family="Times,serif" font-size="14.00">green box: top package, selected in .config</text>
<!-- prebuild&#45;alsa&#45;utils -->
<g id="node1" class="node">
<title>prebuild&#45;alsa&#45;utils</title>
<ellipse fill="none" stroke="green" cx="291.73" cy="-275" rx="94.78" ry="18"/>
<text text-anchor="middle" x="291.73" y="-271.3" font-family="Times,serif" font-size="14.00">prebuild&#45;alsa&#45;utils</text>
</g>
<!-- prebuild&#45;alsa&#45;lib -->
<g id="node2" class="node">
<title>prebuild&#45;alsa&#45;lib</title>
<ellipse fill="none" stroke="black" cx="98.73" cy="-203" rx="85.59" ry="18"/>
<text text-anchor="middle" x="98.73" y="-199.3" font-family="Times,serif" font-size="14.00">prebuild&#45;alsa&#45;lib</text>
</g>
<!-- prebuild&#45;alsa&#45;utils&#45;&gt;prebuild&#45;alsa&#45;lib -->
<g id="edge1" class="edge">
<title>prebuild&#45;alsa&#45;utils&#45;&gt;prebuild&#45;alsa&#45;lib</title>
<path fill="none" stroke="green" d="M249.85,-258.81C220.31,-248.1 180.59,-233.69 149.28,-222.34"/>
<polygon fill="green" stroke="green" points="150.45,-219.04 139.86,-218.92 148.07,-225.62 150.45,-219.04"/>
</g>
<!-- prebuild&#45;libsamplerate -->
<g id="node3" class="node">
<title>prebuild&#45;libsamplerate</title>
<ellipse fill="none" stroke="black" cx="514.73" cy="-203" rx="116.18" ry="18"/>
<text text-anchor="middle" x="514.73" y="-199.3" font-family="Times,serif" font-size="14.00">prebuild&#45;libsamplerate</text>
</g>
<!-- prebuild&#45;alsa&#45;utils&#45;&gt;prebuild&#45;libsamplerate -->
<g id="edge2" class="edge">
<title>prebuild&#45;alsa&#45;utils&#45;&gt;prebuild&#45;libsamplerate</title>
<path fill="none" stroke="green" d="M338.47,-259.33C372.71,-248.58 419.41,-233.92 456.13,-222.39"/>
<polygon fill="green" stroke="green" points="457.23,-225.72 465.72,-219.38 455.13,-219.04 457.23,-225.72"/>
</g>
<!-- prebuild&#45;ncurses -->
<g id="node4" class="node">
<title>prebuild&#45;ncurses</title>
<ellipse fill="none" stroke="black" cx="291.73" cy="-203" rx="89.08" ry="18"/>
<text text-anchor="middle" x="291.73" y="-199.3" font-family="Times,serif" font-size="14.00">prebuild&#45;ncurses</text>
</g>
<!-- prebuild&#45;alsa&#45;utils&#45;&gt;prebuild&#45;ncurses -->
<g id="edge3" class="edge">
<title>prebuild&#45;alsa&#45;utils&#45;&gt;prebuild&#45;ncurses</title>
<path fill="none" stroke="green" d="M291.73,-256.7C291.73,-248.98 291.73,-239.71 291.73,-231.11"/>
<polygon fill="green" stroke="green" points="295.23,-231.1 291.73,-221.1 288.23,-231.1 295.23,-231.1"/>
</g>
<!-- board -->
<g id="node5" class="node">
<title>board</title>
<ellipse fill="none" stroke="black" cx="291.73" cy="-131" rx="37.89" ry="18"/>
<text text-anchor="middle" x="291.73" y="-127.3" font-family="Times,serif" font-size="14.00">board</text>
</g>
<!-- prebuild&#45;alsa&#45;lib&#45;&gt;board -->
<g id="edge4" class="edge">
<title>prebuild&#45;alsa&#45;lib&#45;&gt;board</title>
<path fill="none" stroke="green" d="M139.66,-187.15C173.05,-175.04 219.91,-158.05 252.76,-146.13"/>
<polygon fill="green" stroke="green" points="254.27,-149.31 262.47,-142.61 251.88,-142.73 254.27,-149.31"/>
</g>
<!-- prebuild&#45;libsamplerate&#45;&gt;board -->
<g id="edge5" class="edge">
<title>prebuild&#45;libsamplerate&#45;&gt;board</title>
<path fill="none" stroke="green" d="M465.79,-186.64C425.65,-174.04 369.53,-156.42 331.97,-144.63"/>
<polygon fill="green" stroke="green" points="332.96,-141.28 322.37,-141.62 330.87,-147.95 332.96,-141.28"/>
</g>
<!-- prebuild&#45;libsndfile -->
<g id="node6" class="node">
<title>prebuild&#45;libsndfile</title>
<ellipse fill="none" stroke="black" cx="514.73" cy="-131" rx="95.58" ry="18"/>
<text text-anchor="middle" x="514.73" y="-127.3" font-family="Times,serif" font-size="14.00">prebuild&#45;libsndfile</text>
</g>
<!-- prebuild&#45;libsamplerate&#45;&gt;prebuild&#45;libsndfile -->
<g id="edge6" class="edge">
<title>prebuild&#45;libsamplerate&#45;&gt;prebuild&#45;libsndfile</title>
<path fill="none" stroke="green" d="M514.73,-184.7C514.73,-176.98 514.73,-167.71 514.73,-159.11"/>
<polygon fill="green" stroke="green" points="518.23,-159.1 514.73,-149.1 511.23,-159.1 518.23,-159.1"/>
</g>
<!-- prebuild&#45;ncurses&#45;&gt;board -->
<g id="edge7" class="edge">
<title>prebuild&#45;ncurses&#45;&gt;board</title>
<path fill="none" stroke="green" d="M291.73,-184.7C291.73,-176.98 291.73,-167.71 291.73,-159.11"/>
<polygon fill="green" stroke="green" points="295.23,-159.1 291.73,-149.1 288.23,-159.1 295.23,-159.1"/>
</g>
</g>
</svg>
