<?xml version="1.0" encoding="UTF-8" standalone="no"?>
<!DOCTYPE svg PUBLIC "-//W3C//DTD SVG 1.1//EN"
 "http://www.w3.org/Graphics/SVG/1.1/DTD/svg11.dtd">
<!-- Generated by graphviz version 2.43.0 (0)
 -->
<!-- Title: depends Pages: 1 -->
<svg width="1222pt" height="589pt"
 viewBox="0.00 0.00 1222.45 589.00" xmlns="http://www.w3.org/2000/svg" xmlns:xlink="http://www.w3.org/1999/xlink">
<g id="graph0" class="graph" transform="scale(1 1) rotate(0) translate(4 585)">
<title>depends</title>
<polygon fill="white" stroke="transparent" points="-4,4 -4,-585 1218.45,-585 1218.45,4 -4,4"/>
<text text-anchor="middle" x="607.23" y="-97.8" font-family="Times,serif" font-size="14.00">solid line: strong dependency</text>
<text text-anchor="middle" x="607.23" y="-82.8" font-family="Times,serif" font-size="14.00">dashed line: weak dependency</text>
<text text-anchor="middle" x="607.23" y="-67.8" font-family="Times,serif" font-size="14.00">double lines: choose one package from srcbuild and prebuild or from patch and unpatch</text>
<text text-anchor="middle" x="607.23" y="-52.8" font-family="Times,serif" font-size="14.00">red line: unselected in .config</text>
<text text-anchor="middle" x="607.23" y="-37.8" font-family="Times,serif" font-size="14.00">green line: selected in .config</text>
<text text-anchor="middle" x="607.23" y="-22.8" font-family="Times,serif" font-size="14.00">red box: top package, unselected in .config</text>
<text text-anchor="middle" x="607.23" y="-7.8" font-family="Times,serif" font-size="14.00">green box: top package, selected in .config</text>
<!-- libeazyai&#45;arm&#45;postprocess -->
<g id="node1" class="node">
<title>libeazyai&#45;arm&#45;postprocess</title>
<ellipse fill="none" stroke="green" cx="538.01" cy="-563" rx="131.88" ry="18"/>
<text text-anchor="middle" x="538.01" y="-559.3" font-family="Times,serif" font-size="14.00">libeazyai&#45;arm&#45;postprocess</text>
</g>
<!-- libeazyai -->
<g id="node2" class="node">
<title>libeazyai</title>
<ellipse fill="none" stroke="black" cx="390.01" cy="-491" rx="51.99" ry="18"/>
<text text-anchor="middle" x="390.01" y="-487.3" font-family="Times,serif" font-size="14.00">libeazyai</text>
</g>
<!-- libeazyai&#45;arm&#45;postprocess&#45;&gt;libeazyai -->
<g id="edge1" class="edge">
<title>libeazyai&#45;arm&#45;postprocess&#45;&gt;libeazyai</title>
<path fill="none" stroke="green" d="M503.31,-545.59C480.94,-535 451.8,-521.23 428.68,-510.29"/>
<polygon fill="green" stroke="green" points="430.04,-507.06 419.5,-505.95 427.05,-513.39 430.04,-507.06"/>
</g>
<!-- prebuild&#45;eigen -->
<g id="node3" class="node">
<title>prebuild&#45;eigen</title>
<ellipse fill="none" stroke="black" cx="538.01" cy="-491" rx="77.99" ry="18"/>
<text text-anchor="middle" x="538.01" y="-487.3" font-family="Times,serif" font-size="14.00">prebuild&#45;eigen</text>
</g>
<!-- libeazyai&#45;arm&#45;postprocess&#45;&gt;prebuild&#45;eigen -->
<g id="edge2" class="edge">
<title>libeazyai&#45;arm&#45;postprocess&#45;&gt;prebuild&#45;eigen</title>
<path fill="none" stroke="green" d="M538.01,-544.7C538.01,-536.98 538.01,-527.71 538.01,-519.11"/>
<polygon fill="green" stroke="green" points="541.51,-519.1 538.01,-509.1 534.51,-519.1 541.51,-519.1"/>
</g>
<!-- prebuild&#45;boost -->
<g id="node4" class="node">
<title>prebuild&#45;boost</title>
<ellipse fill="none" stroke="black" cx="712.01" cy="-491" rx="77.99" ry="18"/>
<text text-anchor="middle" x="712.01" y="-487.3" font-family="Times,serif" font-size="14.00">prebuild&#45;boost</text>
</g>
<!-- libeazyai&#45;arm&#45;postprocess&#45;&gt;prebuild&#45;boost -->
<g id="edge3" class="edge">
<title>libeazyai&#45;arm&#45;postprocess&#45;&gt;prebuild&#45;boost</title>
<path fill="none" stroke="green" d="M578.37,-545.76C604.41,-535.29 638.37,-521.63 665.54,-510.69"/>
<polygon fill="green" stroke="green" points="666.87,-513.93 674.85,-506.95 664.26,-507.44 666.87,-513.93"/>
</g>
<!-- generic&#45;header -->
<g id="node5" class="node">
<title>generic&#45;header</title>
<ellipse fill="none" stroke="black" cx="262.01" cy="-203" rx="80.69" ry="18"/>
<text text-anchor="middle" x="262.01" y="-199.3" font-family="Times,serif" font-size="14.00">generic&#45;header</text>
</g>
<!-- libeazyai&#45;&gt;generic&#45;header -->
<g id="edge4" class="edge">
<title>libeazyai&#45;&gt;generic&#45;header</title>
<path fill="none" stroke="green" d="M339.02,-487.23C259.17,-481.97 109.33,-468.18 67.01,-437 38.21,-415.78 43.43,-398.55 31.01,-365 14.13,-319.36 -17.61,-294.82 13.01,-257 33.54,-231.65 113.17,-217.91 176.93,-210.82"/>
<polygon fill="green" stroke="green" points="177.44,-214.29 187.01,-209.74 176.7,-207.33 177.44,-214.29"/>
</g>
<!-- ambvideo&#45;header -->
<g id="node6" class="node">
<title>ambvideo&#45;header</title>
<ellipse fill="none" stroke="black" cx="525.01" cy="-347" rx="90.98" ry="18"/>
<text text-anchor="middle" x="525.01" y="-343.3" font-family="Times,serif" font-size="14.00">ambvideo&#45;header</text>
</g>
<!-- libeazyai&#45;&gt;ambvideo&#45;header -->
<g id="edge5" class="edge">
<title>libeazyai&#45;&gt;ambvideo&#45;header</title>
<path fill="none" stroke="green" d="M394.22,-472.77C399.7,-453.37 410.89,-421.85 430.01,-401 442.6,-387.27 459.6,-376.25 475.73,-367.89"/>
<polygon fill="green" stroke="green" points="477.67,-370.84 485.09,-363.28 474.57,-364.56 477.67,-370.84"/>
</g>
<!-- board -->
<g id="node7" class="node">
<title>board</title>
<ellipse fill="none" stroke="black" cx="774.01" cy="-275" rx="37.89" ry="18"/>
<text text-anchor="middle" x="774.01" y="-271.3" font-family="Times,serif" font-size="14.00">board</text>
</g>
<!-- libeazyai&#45;&gt;board -->
<g id="edge6" class="edge">
<title>libeazyai&#45;&gt;board</title>
<path fill="none" stroke="green" d="M428.66,-478.91C436.06,-476.88 443.76,-474.82 451.01,-473 599.85,-435.54 694.52,-493.13 779.01,-365 791.02,-346.8 788.29,-321.67 783.41,-302.75"/>
<polygon fill="green" stroke="green" points="786.72,-301.59 780.56,-292.97 780,-303.55 786.72,-301.59"/>
</g>
<!-- ambcavalry&#45;header -->
<g id="node8" class="node">
<title>ambcavalry&#45;header</title>
<ellipse fill="none" stroke="black" cx="135.01" cy="-275" rx="99.38" ry="18"/>
<text text-anchor="middle" x="135.01" y="-271.3" font-family="Times,serif" font-size="14.00">ambcavalry&#45;header</text>
</g>
<!-- libeazyai&#45;&gt;ambcavalry&#45;header -->
<g id="edge7" class="edge">
<title>libeazyai&#45;&gt;ambcavalry&#45;header</title>
<path fill="none" stroke="green" d="M338.32,-488.29C261.39,-484.57 122.34,-472.93 90.01,-437 57.87,-401.28 67.27,-373.66 85.01,-329 89.42,-317.91 97.37,-307.79 105.65,-299.44"/>
<polygon fill="green" stroke="green" points="108.06,-301.98 112.94,-292.57 103.26,-296.88 108.06,-301.98"/>
</g>
<!-- libnnctrl -->
<g id="node9" class="node">
<title>libnnctrl</title>
<ellipse fill="none" stroke="black" cx="328.01" cy="-347" rx="50.09" ry="18"/>
<text text-anchor="middle" x="328.01" y="-343.3" font-family="Times,serif" font-size="14.00">libnnctrl</text>
</g>
<!-- libeazyai&#45;&gt;libnnctrl -->
<g id="edge8" class="edge">
<title>libeazyai&#45;&gt;libnnctrl</title>
<path fill="none" stroke="green" d="M382.66,-473.15C371.98,-448.71 352.1,-403.17 339.49,-374.29"/>
<polygon fill="green" stroke="green" points="342.57,-372.59 335.36,-364.82 336.15,-375.39 342.57,-372.59"/>
</g>
<!-- libcavalrymem -->
<g id="node10" class="node">
<title>libcavalrymem</title>
<ellipse fill="none" stroke="black" cx="181.01" cy="-347" rx="79.09" ry="18"/>
<text text-anchor="middle" x="181.01" y="-343.3" font-family="Times,serif" font-size="14.00">libcavalrymem</text>
</g>
<!-- libeazyai&#45;&gt;libcavalrymem -->
<g id="edge9" class="edge">
<title>libeazyai&#45;&gt;libcavalrymem</title>
<path fill="none" stroke="green" d="M367.25,-474.53C330.03,-449.25 256.05,-398.98 213.38,-369.99"/>
<polygon fill="green" stroke="green" points="215.27,-367.04 205.03,-364.32 211.34,-372.83 215.27,-367.04"/>
</g>
<!-- libvproc -->
<g id="node11" class="node">
<title>libvproc</title>
<ellipse fill="none" stroke="black" cx="147.01" cy="-419" rx="48.19" ry="18"/>
<text text-anchor="middle" x="147.01" y="-415.3" font-family="Times,serif" font-size="14.00">libvproc</text>
</g>
<!-- libeazyai&#45;&gt;libvproc -->
<g id="edge10" class="edge">
<title>libeazyai&#45;&gt;libvproc</title>
<path fill="none" stroke="green" d="M351.24,-478.83C308.42,-466.5 239.5,-446.64 193.73,-433.46"/>
<polygon fill="green" stroke="green" points="194.63,-430.08 184.05,-430.67 192.69,-436.8 194.63,-430.08"/>
</g>
<!-- libsmartfb -->
<g id="node12" class="node">
<title>libsmartfb</title>
<ellipse fill="none" stroke="black" cx="498.01" cy="-419" rx="59.29" ry="18"/>
<text text-anchor="middle" x="498.01" y="-415.3" font-family="Times,serif" font-size="14.00">libsmartfb</text>
</g>
<!-- libeazyai&#45;&gt;libsmartfb -->
<g id="edge11" class="edge">
<title>libeazyai&#45;&gt;libsmartfb</title>
<path fill="none" stroke="green" d="M413.45,-474.81C428.66,-464.95 448.7,-451.96 465.46,-441.1"/>
<polygon fill="green" stroke="green" points="467.39,-444.02 473.88,-435.64 463.58,-438.15 467.39,-444.02"/>
</g>
<!-- libtextinsert -->
<g id="node13" class="node">
<title>libtextinsert</title>
<ellipse fill="none" stroke="black" cx="702.01" cy="-347" rx="68.49" ry="18"/>
<text text-anchor="middle" x="702.01" y="-343.3" font-family="Times,serif" font-size="14.00">libtextinsert</text>
</g>
<!-- libeazyai&#45;&gt;libtextinsert -->
<g id="edge12" class="edge">
<title>libeazyai&#45;&gt;libtextinsert</title>
<path fill="none" stroke="green" d="M428.74,-478.97C476.64,-465.24 553.43,-442.86 566.01,-437 605.48,-418.61 646.78,-390.06 673.36,-370.27"/>
<polygon fill="green" stroke="green" points="675.57,-372.99 681.45,-364.18 671.36,-367.4 675.57,-372.99"/>
</g>
<!-- prebuild&#45;opencv -->
<g id="node14" class="node">
<title>prebuild&#45;opencv</title>
<ellipse fill="none" stroke="black" cx="911.01" cy="-419" rx="85.29" ry="18"/>
<text text-anchor="middle" x="911.01" y="-415.3" font-family="Times,serif" font-size="14.00">prebuild&#45;opencv</text>
</g>
<!-- libeazyai&#45;&gt;prebuild&#45;opencv -->
<g id="edge13" class="edge">
<title>libeazyai&#45;&gt;prebuild&#45;opencv</title>
<path fill="none" stroke="green" d="M427.52,-478.45C435.23,-476.39 443.34,-474.44 451.01,-473 609.48,-443.25 652.23,-458.66 812.01,-437 820.68,-435.83 829.74,-434.46 838.72,-433.02"/>
<polygon fill="green" stroke="green" points="839.49,-436.44 848.8,-431.37 838.36,-429.53 839.49,-436.44"/>
</g>
<!-- ambvideo&#45;header&#45;&gt;generic&#45;header -->
<g id="edge14" class="edge">
<title>ambvideo&#45;header&#45;&gt;generic&#45;header</title>
<path fill="none" stroke="green" d="M509.06,-329.02C489.68,-309.27 455.19,-276.83 420.01,-257 390.69,-240.47 355.38,-228.02 325.59,-219.35"/>
<polygon fill="green" stroke="green" points="326.29,-215.91 315.72,-216.55 324.39,-222.65 326.29,-215.91"/>
</g>
<!-- ambvideo&#45;header&#45;&gt;board -->
<g id="edge15" class="edge">
<title>ambvideo&#45;header&#45;&gt;board</title>
<path fill="none" stroke="green" d="M581.44,-332.85C622.41,-322.92 679.02,-308.41 728.01,-293 730.59,-292.19 733.23,-291.32 735.89,-290.42"/>
<polygon fill="green" stroke="green" points="737.18,-293.67 745.45,-287.05 734.86,-287.07 737.18,-293.67"/>
</g>
<!-- ambcavalry&#45;header&#45;&gt;generic&#45;header -->
<g id="edge16" class="edge">
<title>ambcavalry&#45;header&#45;&gt;generic&#45;header</title>
<path fill="none" stroke="green" d="M164.47,-257.76C182.31,-247.93 205.23,-235.3 224.38,-224.74"/>
<polygon fill="green" stroke="green" points="226.09,-227.8 233.15,-219.91 222.71,-221.67 226.09,-227.8"/>
</g>
<!-- libnnctrl&#45;&gt;generic&#45;header -->
<g id="edge17" class="edge">
<title>libnnctrl&#45;&gt;generic&#45;header</title>
<path fill="none" stroke="green" d="M320.18,-329.15C308.83,-304.73 287.7,-259.26 274.27,-230.38"/>
<polygon fill="green" stroke="green" points="277.43,-228.86 270.04,-221.27 271.08,-231.81 277.43,-228.86"/>
</g>
<!-- libnnctrl&#45;&gt;ambcavalry&#45;header -->
<g id="edge18" class="edge">
<title>libnnctrl&#45;&gt;ambcavalry&#45;header</title>
<path fill="none" stroke="green" d="M293.95,-333.65C264.4,-322.93 221.17,-307.25 187.25,-294.95"/>
<polygon fill="green" stroke="green" points="188.09,-291.53 177.5,-291.41 185.71,-298.11 188.09,-291.53"/>
</g>
<!-- libcavalrymem&#45;&gt;generic&#45;header -->
<g id="edge19" class="edge">
<title>libcavalrymem&#45;&gt;generic&#45;header</title>
<path fill="none" stroke="green" d="M206.93,-329.84C219.68,-320.58 234.18,-307.85 243.01,-293 254.16,-274.27 258.81,-249.89 260.73,-231.38"/>
<polygon fill="green" stroke="green" points="264.23,-231.51 261.57,-221.25 257.25,-230.93 264.23,-231.51"/>
</g>
<!-- libcavalrymem&#45;&gt;ambcavalry&#45;header -->
<g id="edge20" class="edge">
<title>libcavalrymem&#45;&gt;ambcavalry&#45;header</title>
<path fill="none" stroke="green" d="M169.88,-329.05C164.48,-320.84 157.88,-310.79 151.87,-301.66"/>
<polygon fill="green" stroke="green" points="154.78,-299.71 146.36,-293.28 148.93,-303.55 154.78,-299.71"/>
</g>
<!-- libvproc&#45;&gt;generic&#45;header -->
<g id="edge21" class="edge">
<title>libvproc&#45;&gt;generic&#45;header</title>
<path fill="none" stroke="green" d="M121.87,-403.54C75.47,-375.04 -15.22,-309.82 27.01,-257 45.96,-233.3 118.93,-219.44 178.59,-211.88"/>
<polygon fill="green" stroke="green" points="179.3,-215.32 188.8,-210.63 178.45,-208.37 179.3,-215.32"/>
</g>
<!-- libvproc&#45;&gt;ambcavalry&#45;header -->
<g id="edge22" class="edge">
<title>libvproc&#45;&gt;ambcavalry&#45;header</title>
<path fill="none" stroke="green" d="M124.61,-402.91C112.81,-393.55 99.47,-380.38 93.01,-365 86.82,-350.25 87.75,-344.11 93.01,-329 96.64,-318.58 103.26,-308.67 110.19,-300.3"/>
<polygon fill="green" stroke="green" points="112.84,-302.59 116.85,-292.78 107.6,-297.95 112.84,-302.59"/>
</g>
<!-- libvproc&#45;&gt;libcavalrymem -->
<g id="edge23" class="edge">
<title>libvproc&#45;&gt;libcavalrymem</title>
<path fill="none" stroke="green" d="M155.24,-401.05C159.11,-393.09 163.81,-383.41 168.14,-374.51"/>
<polygon fill="green" stroke="green" points="171.4,-375.8 172.62,-365.28 165.1,-372.74 171.4,-375.8"/>
</g>
<!-- libsmartfb&#45;&gt;generic&#45;header -->
<g id="edge24" class="edge">
<title>libsmartfb&#45;&gt;generic&#45;header</title>
<path fill="none" stroke="green" d="M474.65,-402.38C459.98,-392.26 440.9,-378.48 425.01,-365 410.59,-352.77 327.65,-269.87 285.95,-228.04"/>
<polygon fill="green" stroke="green" points="288.2,-225.35 278.67,-220.73 283.25,-230.29 288.2,-225.35"/>
</g>
<!-- libsmartfb&#45;&gt;ambvideo&#45;header -->
<g id="edge25" class="edge">
<title>libsmartfb&#45;&gt;ambvideo&#45;header</title>
<path fill="none" stroke="green" d="M504.55,-401.05C507.59,-393.18 511.27,-383.62 514.68,-374.79"/>
<polygon fill="green" stroke="green" points="518.02,-375.86 518.35,-365.28 511.48,-373.35 518.02,-375.86"/>
</g>
<!-- libsmartfb&#45;&gt;libtextinsert -->
<g id="edge26" class="edge">
<title>libsmartfb&#45;&gt;libtextinsert</title>
<path fill="none" stroke="green" d="M535.91,-405C568.77,-393.72 616.56,-377.32 652.45,-365.01"/>
<polygon fill="green" stroke="green" points="653.91,-368.21 662.23,-361.65 651.64,-361.59 653.91,-368.21"/>
</g>
<!-- libtextinsert&#45;&gt;board -->
<g id="edge27" class="edge">
<title>libtextinsert&#45;&gt;board</title>
<path fill="none" stroke="green" d="M719.08,-329.41C728.58,-320.17 740.54,-308.54 750.88,-298.49"/>
<polygon fill="green" stroke="green" points="753.33,-300.99 758.06,-291.51 748.45,-295.97 753.33,-300.99"/>
</g>
<!-- prebuild&#45;freetype -->
<g id="node15" class="node">
<title>prebuild&#45;freetype</title>
<ellipse fill="none" stroke="black" cx="627.01" cy="-275" rx="91.78" ry="18"/>
<text text-anchor="middle" x="627.01" y="-271.3" font-family="Times,serif" font-size="14.00">prebuild&#45;freetype</text>
</g>
<!-- libtextinsert&#45;&gt;prebuild&#45;freetype -->
<g id="edge28" class="edge">
<title>libtextinsert&#45;&gt;prebuild&#45;freetype</title>
<path fill="none" stroke="green" d="M684.24,-329.41C674.69,-320.5 662.75,-309.36 652.25,-299.56"/>
<polygon fill="green" stroke="green" points="654.62,-296.98 644.92,-292.71 649.84,-302.09 654.62,-296.98"/>
</g>
<!-- prebuild&#45;tbb -->
<g id="node19" class="node">
<title>prebuild&#45;tbb</title>
<ellipse fill="none" stroke="black" cx="903.01" cy="-347" rx="68.49" ry="18"/>
<text text-anchor="middle" x="903.01" y="-343.3" font-family="Times,serif" font-size="14.00">prebuild&#45;tbb</text>
</g>
<!-- prebuild&#45;opencv&#45;&gt;prebuild&#45;tbb -->
<g id="edge33" class="edge">
<title>prebuild&#45;opencv&#45;&gt;prebuild&#45;tbb</title>
<path fill="none" stroke="green" d="M909.03,-400.7C908.15,-392.98 907.09,-383.71 906.11,-375.11"/>
<polygon fill="green" stroke="green" points="909.58,-374.64 904.97,-365.1 902.63,-375.44 909.58,-374.64"/>
</g>
<!-- prebuild&#45;libjpeg&#45;turbo -->
<g id="node20" class="node">
<title>prebuild&#45;libjpeg&#45;turbo</title>
<ellipse fill="none" stroke="black" cx="1102.01" cy="-347" rx="112.38" ry="18"/>
<text text-anchor="middle" x="1102.01" y="-343.3" font-family="Times,serif" font-size="14.00">prebuild&#45;libjpeg&#45;turbo</text>
</g>
<!-- prebuild&#45;opencv&#45;&gt;prebuild&#45;libjpeg&#45;turbo -->
<g id="edge34" class="edge">
<title>prebuild&#45;opencv&#45;&gt;prebuild&#45;libjpeg&#45;turbo</title>
<path fill="none" stroke="green" d="M951.52,-403.15C980.07,-392.69 1018.58,-378.58 1049.5,-367.25"/>
<polygon fill="green" stroke="green" points="1051.06,-370.4 1059.24,-363.67 1048.65,-363.83 1051.06,-370.4"/>
</g>
<!-- prebuild&#45;zlib -->
<g id="node16" class="node">
<title>prebuild&#45;zlib</title>
<ellipse fill="none" stroke="black" cx="572.01" cy="-131" rx="69.59" ry="18"/>
<text text-anchor="middle" x="572.01" y="-127.3" font-family="Times,serif" font-size="14.00">prebuild&#45;zlib</text>
</g>
<!-- prebuild&#45;freetype&#45;&gt;prebuild&#45;zlib -->
<g id="edge29" class="edge">
<title>prebuild&#45;freetype&#45;&gt;prebuild&#45;zlib</title>
<path fill="none" stroke="green" d="M582.24,-259.19C564.58,-250.9 546.13,-238.59 536.01,-221 524.13,-200.32 536.77,-174.96 550.24,-156.6"/>
<polygon fill="green" stroke="green" points="553.01,-158.74 556.4,-148.7 547.49,-154.44 553.01,-158.74"/>
</g>
<!-- prebuild&#45;bzip2 -->
<g id="node17" class="node">
<title>prebuild&#45;bzip2</title>
<ellipse fill="none" stroke="black" cx="805.01" cy="-203" rx="77.99" ry="18"/>
<text text-anchor="middle" x="805.01" y="-199.3" font-family="Times,serif" font-size="14.00">prebuild&#45;bzip2</text>
</g>
<!-- prebuild&#45;freetype&#45;&gt;prebuild&#45;bzip2 -->
<g id="edge30" class="edge">
<title>prebuild&#45;freetype&#45;&gt;prebuild&#45;bzip2</title>
<path fill="none" stroke="green" d="M666.08,-258.64C693.11,-248.01 729.23,-233.8 757.86,-222.54"/>
<polygon fill="green" stroke="green" points="759.24,-225.76 767.26,-218.85 756.67,-219.25 759.24,-225.76"/>
</g>
<!-- prebuild&#45;libpng -->
<g id="node18" class="node">
<title>prebuild&#45;libpng</title>
<ellipse fill="none" stroke="black" cx="627.01" cy="-203" rx="81.79" ry="18"/>
<text text-anchor="middle" x="627.01" y="-199.3" font-family="Times,serif" font-size="14.00">prebuild&#45;libpng</text>
</g>
<!-- prebuild&#45;freetype&#45;&gt;prebuild&#45;libpng -->
<g id="edge31" class="edge">
<title>prebuild&#45;freetype&#45;&gt;prebuild&#45;libpng</title>
<path fill="none" stroke="green" d="M627.01,-256.7C627.01,-248.98 627.01,-239.71 627.01,-231.11"/>
<polygon fill="green" stroke="green" points="630.51,-231.1 627.01,-221.1 623.51,-231.1 630.51,-231.1"/>
</g>
<!-- prebuild&#45;libpng&#45;&gt;prebuild&#45;zlib -->
<g id="edge32" class="edge">
<title>prebuild&#45;libpng&#45;&gt;prebuild&#45;zlib</title>
<path fill="none" stroke="green" d="M613.7,-185.05C607.01,-176.54 598.78,-166.07 591.4,-156.68"/>
<polygon fill="green" stroke="green" points="594.13,-154.49 585.2,-148.79 588.63,-158.81 594.13,-154.49"/>
</g>
</g>
</svg>
