<?xml version="1.0" encoding="UTF-8" standalone="no"?>
<!DOCTYPE svg PUBLIC "-//W3C//DTD SVG 1.1//EN"
 "http://www.w3.org/Graphics/SVG/1.1/DTD/svg11.dtd">
<!-- Generated by graphviz version 2.43.0 (0)
 -->
<!-- Title: depends Pages: 1 -->
<svg width="751pt" height="390pt"
 viewBox="0.00 0.00 750.51 390.00" xmlns="http://www.w3.org/2000/svg" xmlns:xlink="http://www.w3.org/1999/xlink">
<g id="graph0" class="graph" transform="scale(1 1) rotate(0) translate(4 386)">
<title>depends</title>
<polygon fill="white" stroke="transparent" points="-4,4 -4,-386 746.51,-386 746.51,4 -4,4"/>
<text text-anchor="middle" x="371.26" y="-97.8" font-family="Times,serif" font-size="14.00">solid line: strong dependency</text>
<text text-anchor="middle" x="371.26" y="-82.8" font-family="Times,serif" font-size="14.00">dashed line: weak dependency</text>
<text text-anchor="middle" x="371.26" y="-67.8" font-family="Times,serif" font-size="14.00">double lines: choose one package from srcbuild and prebuild or from patch and unpatch</text>
<text text-anchor="middle" x="371.26" y="-52.8" font-family="Times,serif" font-size="14.00">red line: unselected in .config</text>
<text text-anchor="middle" x="371.26" y="-37.8" font-family="Times,serif" font-size="14.00">green line: selected in .config</text>
<text text-anchor="middle" x="371.26" y="-22.8" font-family="Times,serif" font-size="14.00">red box: top package, unselected in .config</text>
<text text-anchor="middle" x="371.26" y="-7.8" font-family="Times,serif" font-size="14.00">green box: top package, selected in .config</text>
<!-- kernel&#45;module&#45;ambcavalry -->
<g id="node1" class="node">
<title>kernel&#45;module&#45;ambcavalry</title>
<ellipse fill="none" stroke="green" cx="318.44" cy="-364" rx="133.78" ry="18"/>
<text text-anchor="middle" x="318.44" y="-360.3" font-family="Times,serif" font-size="14.00">kernel&#45;module&#45;ambcavalry</text>
</g>
<!-- ambcavalry&#45;header -->
<g id="node2" class="node">
<title>ambcavalry&#45;header</title>
<ellipse fill="none" stroke="black" cx="99.44" cy="-291" rx="99.38" ry="18"/>
<text text-anchor="middle" x="99.44" y="-287.3" font-family="Times,serif" font-size="14.00">ambcavalry&#45;header</text>
</g>
<!-- kernel&#45;module&#45;ambcavalry&#45;&gt;ambcavalry&#45;header -->
<g id="edge1" class="edge">
<title>kernel&#45;module&#45;ambcavalry&#45;&gt;ambcavalry&#45;header</title>
<path fill="none" stroke="green" d="M269.57,-347.15C235.8,-336.21 190.81,-321.62 155.58,-310.2"/>
<polygon fill="green" stroke="green" points="156.51,-306.82 145.92,-307.07 154.35,-313.48 156.51,-306.82"/>
</g>
<!-- firmware&#45;cavalry -->
<g id="node3" class="node">
<title>firmware&#45;cavalry</title>
<ellipse fill="none" stroke="black" cx="318.44" cy="-291" rx="89.88" ry="18"/>
<text text-anchor="middle" x="318.44" y="-287.3" font-family="Times,serif" font-size="14.00">firmware&#45;cavalry</text>
</g>
<!-- kernel&#45;module&#45;ambcavalry&#45;&gt;firmware&#45;cavalry -->
<g id="edge2" class="edge">
<title>kernel&#45;module&#45;ambcavalry&#45;&gt;firmware&#45;cavalry</title>
<path fill="none" stroke="green" d="M318.44,-345.81C318.44,-337.79 318.44,-328.05 318.44,-319.07"/>
<polygon fill="green" stroke="green" points="321.94,-319.03 318.44,-309.03 314.94,-319.03 321.94,-319.03"/>
</g>
<!-- linux -->
<g id="node4" class="node">
<title>linux</title>
<ellipse fill="none" stroke="black" cx="465.44" cy="-291" rx="33.6" ry="18"/>
<text text-anchor="middle" x="465.44" y="-287.3" font-family="Times,serif" font-size="14.00">linux</text>
</g>
<!-- kernel&#45;module&#45;ambcavalry&#45;&gt;linux -->
<g id="edge3" class="edge">
<title>kernel&#45;module&#45;ambcavalry&#45;&gt;linux</title>
<path fill="none" stroke="green" d="M352.54,-346.53C376.39,-335.01 408.11,-319.69 431.85,-308.22"/>
<polygon fill="green" stroke="green" points="433.68,-311.23 441.17,-303.72 430.64,-304.92 433.68,-311.23"/>
</g>
<!-- generic&#45;header -->
<g id="node5" class="node">
<title>generic&#45;header</title>
<ellipse fill="none" stroke="black" cx="92.44" cy="-204" rx="80.69" ry="18"/>
<text text-anchor="middle" x="92.44" y="-200.3" font-family="Times,serif" font-size="14.00">generic&#45;header</text>
</g>
<!-- ambcavalry&#45;header&#45;&gt;generic&#45;header -->
<g id="edge4" class="edge">
<title>ambcavalry&#45;header&#45;&gt;generic&#45;header</title>
<path fill="none" stroke="green" d="M98.02,-272.8C97.07,-261.16 95.78,-245.55 94.68,-232.24"/>
<polygon fill="green" stroke="green" points="98.16,-231.85 93.86,-222.18 91.19,-232.43 98.16,-231.85"/>
</g>
<!-- initramfs -->
<g id="node6" class="node">
<title>initramfs</title>
<ellipse fill="none" stroke="black" cx="244.44" cy="-204" rx="53.09" ry="18"/>
<text text-anchor="middle" x="244.44" y="-200.3" font-family="Times,serif" font-size="14.00">initramfs</text>
</g>
<!-- linux&#45;&gt;initramfs -->
<g id="edge5" class="edge">
<title>linux&#45;&gt;initramfs</title>
<path fill="none" stroke="red" stroke-dasharray="5,2" d="M438.78,-279.75C401.35,-265.35 332.77,-238.97 287.9,-221.72"/>
<polygon fill="red" stroke="red" points="289.02,-218.4 278.43,-218.07 286.51,-224.93 289.02,-218.4"/>
</g>
<!-- linux&#45;patch&#45;uvac -->
<g id="node7" class="node">
<title>linux&#45;patch&#45;uvac</title>
<ellipse fill="none" stroke="black" cx="402.44" cy="-204" rx="86.38" ry="18"/>
<text text-anchor="middle" x="402.44" y="-200.3" font-family="Times,serif" font-size="14.00">linux&#45;patch&#45;uvac</text>
</g>
<!-- linux&#45;&gt;linux&#45;patch&#45;uvac -->
<g id="edge6" class="edge">
<title>linux&#45;&gt;linux&#45;patch&#45;uvac</title>
<path fill="none" stroke="red" stroke-dasharray="5,2" d="M437.01,-281.23C424.44,-275.79 410.86,-267.42 403.44,-255 399.46,-248.34 398.14,-240.23 398.1,-232.51"/>
<polygon fill="red" stroke="red" points="401.61,-232.57 398.72,-222.37 394.62,-232.14 401.61,-232.57"/>
<text text-anchor="middle" x="423.44" y="-243.8" font-family="Times,serif" font-size="14.00">patch</text>
</g>
<!-- linux&#45;&gt;linux&#45;patch&#45;uvac -->
<g id="edge7" class="edge">
<title>linux&#45;&gt;linux&#45;patch&#45;uvac</title>
<path fill="none" stroke="green" d="M460.05,-272.78C456.36,-262.63 450.8,-249.89 443.44,-240 440.38,-235.88 436.75,-231.92 432.93,-228.24"/>
<polygon fill="green" stroke="green" points="435.24,-225.61 425.46,-221.54 430.57,-230.82 435.24,-225.61"/>
<text text-anchor="middle" x="481.44" y="-243.8" font-family="Times,serif" font-size="14.00">unpatch</text>
</g>
<!-- linux&#45;patch&#45;rmem&#45;dio -->
<g id="node8" class="node">
<title>linux&#45;patch&#45;rmem&#45;dio</title>
<ellipse fill="none" stroke="black" cx="616.44" cy="-204" rx="109.38" ry="18"/>
<text text-anchor="middle" x="616.44" y="-200.3" font-family="Times,serif" font-size="14.00">linux&#45;patch&#45;rmem&#45;dio</text>
</g>
<!-- linux&#45;&gt;linux&#45;patch&#45;rmem&#45;dio -->
<g id="edge8" class="edge">
<title>linux&#45;&gt;linux&#45;patch&#45;rmem&#45;dio</title>
<path fill="none" stroke="red" stroke-dasharray="5,2" d="M487.24,-277.06C504.56,-266.85 529.44,-252.32 551.44,-240 559.57,-235.45 568.33,-230.66 576.7,-226.14"/>
<polygon fill="red" stroke="red" points="578.43,-229.18 585.58,-221.35 575.11,-223.01 578.43,-229.18"/>
<text text-anchor="middle" x="571.44" y="-243.8" font-family="Times,serif" font-size="14.00">patch</text>
</g>
<!-- linux&#45;&gt;linux&#45;patch&#45;rmem&#45;dio -->
<g id="edge9" class="edge">
<title>linux&#45;&gt;linux&#45;patch&#45;rmem&#45;dio</title>
<path fill="none" stroke="green" d="M498.84,-288.1C526.41,-284.95 565.16,-276.65 591.44,-255 598.84,-248.9 604.26,-240.06 608.11,-231.51"/>
<polygon fill="green" stroke="green" points="611.4,-232.71 611.83,-222.13 604.89,-230.14 611.4,-232.71"/>
<text text-anchor="middle" x="631.44" y="-243.8" font-family="Times,serif" font-size="14.00">unpatch</text>
</g>
<!-- board -->
<g id="node9" class="node">
<title>board</title>
<ellipse fill="none" stroke="black" cx="498.44" cy="-131" rx="37.89" ry="18"/>
<text text-anchor="middle" x="498.44" y="-127.3" font-family="Times,serif" font-size="14.00">board</text>
</g>
<!-- linux&#45;&gt;board -->
<g id="edge10" class="edge">
<title>linux&#45;&gt;board</title>
<path fill="none" stroke="green" d="M498.68,-287.11C564.91,-280.55 709.16,-261.87 734.44,-222 779.09,-151.59 627.26,-136.12 546.16,-132.83"/>
<polygon fill="green" stroke="green" points="546.28,-129.33 536.16,-132.47 546.03,-136.32 546.28,-129.33"/>
</g>
<!-- initramfs&#45;&gt;board -->
<g id="edge11" class="edge">
<title>initramfs&#45;&gt;board</title>
<path fill="none" stroke="green" d="M284.13,-191.91C331.15,-178.76 409.13,-156.96 456.94,-143.6"/>
<polygon fill="green" stroke="green" points="457.97,-146.95 466.66,-140.88 456.08,-140.21 457.97,-146.95"/>
</g>
</g>
</svg>
