<?xml version="1.0" encoding="UTF-8" standalone="no"?>
<!DOCTYPE svg PUBLIC "-//W3C//DTD SVG 1.1//EN"
 "http://www.w3.org/Graphics/SVG/1.1/DTD/svg11.dtd">
<!-- Generated by graphviz version 2.43.0 (0)
 -->
<!-- Title: depends Pages: 1 -->
<svg width="780pt" height="229pt"
 viewBox="0.00 0.00 780.08 229.00" xmlns="http://www.w3.org/2000/svg" xmlns:xlink="http://www.w3.org/1999/xlink">
<g id="graph0" class="graph" transform="scale(1 1) rotate(0) translate(4 225)">
<title>depends</title>
<polygon fill="white" stroke="transparent" points="-4,4 -4,-225 776.08,-225 776.08,4 -4,4"/>
<text text-anchor="middle" x="386.04" y="-97.8" font-family="Times,serif" font-size="14.00">solid line: strong dependency</text>
<text text-anchor="middle" x="386.04" y="-82.8" font-family="Times,serif" font-size="14.00">dashed line: weak dependency</text>
<text text-anchor="middle" x="386.04" y="-67.8" font-family="Times,serif" font-size="14.00">double lines: choose one package from srcbuild and prebuild or from patch and unpatch</text>
<text text-anchor="middle" x="386.04" y="-52.8" font-family="Times,serif" font-size="14.00">red line: unselected in .config</text>
<text text-anchor="middle" x="386.04" y="-37.8" font-family="Times,serif" font-size="14.00">green line: selected in .config</text>
<text text-anchor="middle" x="386.04" y="-22.8" font-family="Times,serif" font-size="14.00">red box: top package, unselected in .config</text>
<text text-anchor="middle" x="386.04" y="-7.8" font-family="Times,serif" font-size="14.00">green box: top package, selected in .config</text>
<!-- prebuild&#45;pulseaudio -->
<g id="node1" class="node">
<title>prebuild&#45;pulseaudio</title>
<ellipse fill="none" stroke="green" cx="261.7" cy="-203" rx="102.88" ry="18"/>
<text text-anchor="middle" x="261.7" y="-199.3" font-family="Times,serif" font-size="14.00">prebuild&#45;pulseaudio</text>
</g>
<!-- board -->
<g id="node2" class="node">
<title>board</title>
<ellipse fill="none" stroke="black" cx="37.7" cy="-131" rx="37.89" ry="18"/>
<text text-anchor="middle" x="37.7" y="-127.3" font-family="Times,serif" font-size="14.00">board</text>
</g>
<!-- prebuild&#45;pulseaudio&#45;&gt;board -->
<g id="edge1" class="edge">
<title>prebuild&#45;pulseaudio&#45;&gt;board</title>
<path fill="none" stroke="green" d="M209.95,-187.34C174.53,-177.1 126.58,-162.83 84.7,-149 81.82,-148.05 78.86,-147.04 75.89,-146.02"/>
<polygon fill="green" stroke="green" points="77.04,-142.71 66.44,-142.69 74.71,-149.31 77.04,-142.71"/>
</g>
<!-- prebuild&#45;libtool -->
<g id="node3" class="node">
<title>prebuild&#45;libtool</title>
<ellipse fill="none" stroke="black" cx="175.7" cy="-131" rx="81.79" ry="18"/>
<text text-anchor="middle" x="175.7" y="-127.3" font-family="Times,serif" font-size="14.00">prebuild&#45;libtool</text>
</g>
<!-- prebuild&#45;pulseaudio&#45;&gt;prebuild&#45;libtool -->
<g id="edge2" class="edge">
<title>prebuild&#45;pulseaudio&#45;&gt;prebuild&#45;libtool</title>
<path fill="none" stroke="green" d="M240.88,-185.05C229.81,-176.05 216.05,-164.84 204.02,-155.05"/>
<polygon fill="green" stroke="green" points="205.99,-152.15 196.03,-148.55 201.57,-157.57 205.99,-152.15"/>
</g>
<!-- prebuild&#45;soxr -->
<g id="node4" class="node">
<title>prebuild&#45;soxr</title>
<ellipse fill="none" stroke="black" cx="348.7" cy="-131" rx="72.59" ry="18"/>
<text text-anchor="middle" x="348.7" y="-127.3" font-family="Times,serif" font-size="14.00">prebuild&#45;soxr</text>
</g>
<!-- prebuild&#45;pulseaudio&#45;&gt;prebuild&#45;soxr -->
<g id="edge3" class="edge">
<title>prebuild&#45;pulseaudio&#45;&gt;prebuild&#45;soxr</title>
<path fill="none" stroke="green" d="M282.76,-185.05C294.03,-175.98 308.08,-164.68 320.31,-154.84"/>
<polygon fill="green" stroke="green" points="322.83,-157.3 328.43,-148.31 318.44,-151.85 322.83,-157.3"/>
</g>
<!-- prebuild&#45;webrtc&#45;audio&#45;processing -->
<g id="node5" class="node">
<title>prebuild&#45;webrtc&#45;audio&#45;processing</title>
<ellipse fill="none" stroke="black" cx="605.7" cy="-131" rx="166.27" ry="18"/>
<text text-anchor="middle" x="605.7" y="-127.3" font-family="Times,serif" font-size="14.00">prebuild&#45;webrtc&#45;audio&#45;processing</text>
</g>
<!-- prebuild&#45;pulseaudio&#45;&gt;prebuild&#45;webrtc&#45;audio&#45;processing -->
<g id="edge4" class="edge">
<title>prebuild&#45;pulseaudio&#45;&gt;prebuild&#45;webrtc&#45;audio&#45;processing</title>
<path fill="none" stroke="green" d="M326,-188.92C381.17,-177.69 461.08,-161.43 521.37,-149.16"/>
<polygon fill="green" stroke="green" points="522.15,-152.57 531.25,-147.15 520.75,-145.71 522.15,-152.57"/>
</g>
</g>
</svg>
