<?xml version="1.0" encoding="UTF-8" standalone="no"?>
<!DOCTYPE svg PUBLIC "-//W3C//DTD SVG 1.1//EN"
 "http://www.w3.org/Graphics/SVG/1.1/DTD/svg11.dtd">
<!-- Generated by graphviz version 2.43.0 (0)
 -->
<!-- Title: depends Pages: 1 -->
<svg width="3341pt" height="301pt"
 viewBox="0.00 0.00 3340.59 301.00" xmlns="http://www.w3.org/2000/svg" xmlns:xlink="http://www.w3.org/1999/xlink">
<g id="graph0" class="graph" transform="scale(1 1) rotate(0) translate(4 297)">
<title>depends</title>
<polygon fill="white" stroke="transparent" points="-4,4 -4,-297 3336.59,-297 3336.59,4 -4,4"/>
<text text-anchor="middle" x="1666.29" y="-97.8" font-family="Times,serif" font-size="14.00">solid line: strong dependency</text>
<text text-anchor="middle" x="1666.29" y="-82.8" font-family="Times,serif" font-size="14.00">dashed line: weak dependency</text>
<text text-anchor="middle" x="1666.29" y="-67.8" font-family="Times,serif" font-size="14.00">double lines: choose one package from srcbuild and prebuild or from patch and unpatch</text>
<text text-anchor="middle" x="1666.29" y="-52.8" font-family="Times,serif" font-size="14.00">red line: unselected in .config</text>
<text text-anchor="middle" x="1666.29" y="-37.8" font-family="Times,serif" font-size="14.00">green line: selected in .config</text>
<text text-anchor="middle" x="1666.29" y="-22.8" font-family="Times,serif" font-size="14.00">red box: top package, unselected in .config</text>
<text text-anchor="middle" x="1666.29" y="-7.8" font-family="Times,serif" font-size="14.00">green box: top package, selected in .config</text>
<!-- gstd -->
<g id="node1" class="node">
<title>gstd</title>
<ellipse fill="none" stroke="green" cx="1871.04" cy="-275" rx="31.4" ry="18"/>
<text text-anchor="middle" x="1871.04" y="-271.3" font-family="Times,serif" font-size="14.00">gstd</text>
</g>
<!-- libgstd -->
<g id="node2" class="node">
<title>libgstd</title>
<ellipse fill="none" stroke="black" cx="1871.04" cy="-203" rx="42.79" ry="18"/>
<text text-anchor="middle" x="1871.04" y="-199.3" font-family="Times,serif" font-size="14.00">libgstd</text>
</g>
<!-- gstd&#45;&gt;libgstd -->
<g id="edge1" class="edge">
<title>gstd&#45;&gt;libgstd</title>
<path fill="none" stroke="green" d="M1871.04,-256.7C1871.04,-248.98 1871.04,-239.71 1871.04,-231.11"/>
<polygon fill="green" stroke="green" points="1874.54,-231.1 1871.04,-221.1 1867.54,-231.1 1874.54,-231.1"/>
</g>
<!-- prebuild&#45;glib2 -->
<g id="node3" class="node">
<title>prebuild&#45;glib2</title>
<ellipse fill="none" stroke="black" cx="76.04" cy="-131" rx="76.09" ry="18"/>
<text text-anchor="middle" x="76.04" y="-127.3" font-family="Times,serif" font-size="14.00">prebuild&#45;glib2</text>
</g>
<!-- gstd&#45;&gt;prebuild&#45;glib2 -->
<g id="edge2" class="edge">
<title>gstd&#45;&gt;prebuild&#45;glib2</title>
<path fill="none" stroke="green" d="M1839.7,-273.85C1699.86,-272.92 1119.03,-266.38 645.04,-221 428.55,-200.28 375.29,-186.34 161.04,-149 154.72,-147.9 148.14,-146.69 141.57,-145.45"/>
<polygon fill="green" stroke="green" points="141.78,-141.92 131.29,-143.46 140.45,-148.79 141.78,-141.92"/>
</g>
<!-- prebuild&#45;gstreamer1 -->
<g id="node4" class="node">
<title>prebuild&#45;gstreamer1</title>
<ellipse fill="none" stroke="black" cx="277.04" cy="-131" rx="106.68" ry="18"/>
<text text-anchor="middle" x="277.04" y="-127.3" font-family="Times,serif" font-size="14.00">prebuild&#45;gstreamer1</text>
</g>
<!-- gstd&#45;&gt;prebuild&#45;gstreamer1 -->
<g id="edge3" class="edge">
<title>gstd&#45;&gt;prebuild&#45;gstreamer1</title>
<path fill="none" stroke="green" d="M1840.02,-272.94C1724.21,-268.85 1306.22,-252.62 963.04,-221 708.33,-197.53 645.47,-183.7 392.04,-149 382.84,-147.74 373.23,-146.38 363.66,-145.01"/>
<polygon fill="green" stroke="green" points="364.11,-141.54 353.72,-143.57 363.11,-148.46 364.11,-141.54"/>
</g>
<!-- prebuild&#45;gstreamer1&#45;plugins&#45;bad -->
<g id="node5" class="node">
<title>prebuild&#45;gstreamer1&#45;plugins&#45;bad</title>
<ellipse fill="none" stroke="black" cx="565.04" cy="-131" rx="163.57" ry="18"/>
<text text-anchor="middle" x="565.04" y="-127.3" font-family="Times,serif" font-size="14.00">prebuild&#45;gstreamer1&#45;plugins&#45;bad</text>
</g>
<!-- gstd&#45;&gt;prebuild&#45;gstreamer1&#45;plugins&#45;bad -->
<g id="edge4" class="edge">
<title>gstd&#45;&gt;prebuild&#45;gstreamer1&#45;plugins&#45;bad</title>
<path fill="none" stroke="green" d="M1840.25,-271.86C1749.57,-265.46 1475.6,-245.38 1249.04,-221 1043.65,-198.9 804.48,-166.17 670.32,-147.17"/>
<polygon fill="green" stroke="green" points="670.44,-143.66 660.05,-145.72 669.46,-150.59 670.44,-143.66"/>
</g>
<!-- prebuild&#45;gstreamer1&#45;plugins&#45;base -->
<g id="node6" class="node">
<title>prebuild&#45;gstreamer1&#45;plugins&#45;base</title>
<ellipse fill="none" stroke="black" cx="915.04" cy="-131" rx="168.17" ry="18"/>
<text text-anchor="middle" x="915.04" y="-127.3" font-family="Times,serif" font-size="14.00">prebuild&#45;gstreamer1&#45;plugins&#45;base</text>
</g>
<!-- gstd&#45;&gt;prebuild&#45;gstreamer1&#45;plugins&#45;base -->
<g id="edge5" class="edge">
<title>gstd&#45;&gt;prebuild&#45;gstreamer1&#45;plugins&#45;base</title>
<path fill="none" stroke="green" d="M1840.61,-270.42C1772.86,-262.37 1604.48,-241.89 1464.04,-221 1368.21,-206.74 1344.67,-200.59 1249.04,-185 1170.78,-172.24 1082.12,-158.19 1015.83,-147.76"/>
<polygon fill="green" stroke="green" points="1016.22,-144.28 1005.8,-146.19 1015.14,-151.2 1016.22,-144.28"/>
</g>
<!-- prebuild&#45;json&#45;c -->
<g id="node7" class="node">
<title>prebuild&#45;json&#45;c</title>
<ellipse fill="none" stroke="black" cx="1181.04" cy="-131" rx="79.09" ry="18"/>
<text text-anchor="middle" x="1181.04" y="-127.3" font-family="Times,serif" font-size="14.00">prebuild&#45;json&#45;c</text>
</g>
<!-- gstd&#45;&gt;prebuild&#45;json&#45;c -->
<g id="edge6" class="edge">
<title>gstd&#45;&gt;prebuild&#45;json&#45;c</title>
<path fill="none" stroke="green" d="M1841.43,-269.29C1790.14,-260.93 1681.57,-242.35 1591.04,-221 1533.94,-207.53 1521.17,-198.37 1464.04,-185 1378.66,-165.02 1356.22,-165.23 1270.04,-149 1263.4,-147.75 1256.47,-146.44 1249.55,-145.12"/>
<polygon fill="green" stroke="green" points="1249.92,-141.63 1239.44,-143.2 1248.61,-148.51 1249.92,-141.63"/>
</g>
<!-- prebuild&#45;json&#45;glib -->
<g id="node8" class="node">
<title>prebuild&#45;json&#45;glib</title>
<ellipse fill="none" stroke="black" cx="1371.04" cy="-131" rx="92.08" ry="18"/>
<text text-anchor="middle" x="1371.04" y="-127.3" font-family="Times,serif" font-size="14.00">prebuild&#45;json&#45;glib</text>
</g>
<!-- gstd&#45;&gt;prebuild&#45;json&#45;glib -->
<g id="edge7" class="edge">
<title>gstd&#45;&gt;prebuild&#45;json&#45;glib</title>
<path fill="none" stroke="green" d="M1842.58,-267.18C1804.99,-257.93 1736.9,-240.32 1680.04,-221 1639.64,-207.27 1631.67,-198.03 1591.04,-185 1542.45,-169.41 1486.54,-156 1443.24,-146.57"/>
<polygon fill="green" stroke="green" points="1443.87,-143.12 1433.36,-144.44 1442.4,-149.97 1443.87,-143.12"/>
</g>
<!-- prebuild&#45;libsoup -->
<g id="node9" class="node">
<title>prebuild&#45;libsoup</title>
<ellipse fill="none" stroke="black" cx="1568.04" cy="-131" rx="86.38" ry="18"/>
<text text-anchor="middle" x="1568.04" y="-127.3" font-family="Times,serif" font-size="14.00">prebuild&#45;libsoup</text>
</g>
<!-- gstd&#45;&gt;prebuild&#45;libsoup -->
<g id="edge8" class="edge">
<title>gstd&#45;&gt;prebuild&#45;libsoup</title>
<path fill="none" stroke="green" d="M1847.27,-262.86C1796.21,-238.93 1675.46,-182.34 1610.75,-152.02"/>
<polygon fill="green" stroke="green" points="1612.17,-148.81 1601.63,-147.74 1609.2,-155.15 1612.17,-148.81"/>
</g>
<!-- prebuild&#45;libxml2 -->
<g id="node10" class="node">
<title>prebuild&#45;libxml2</title>
<ellipse fill="none" stroke="black" cx="1760.04" cy="-131" rx="87.18" ry="18"/>
<text text-anchor="middle" x="1760.04" y="-127.3" font-family="Times,serif" font-size="14.00">prebuild&#45;libxml2</text>
</g>
<!-- gstd&#45;&gt;prebuild&#45;libxml2 -->
<g id="edge9" class="edge">
<title>gstd&#45;&gt;prebuild&#45;libxml2</title>
<path fill="none" stroke="green" d="M1855.22,-259.41C1844.47,-249.15 1830.24,-234.83 1819.04,-221 1802.68,-200.79 1786.53,-176 1775.28,-157.72"/>
<polygon fill="green" stroke="green" points="1778.2,-155.79 1770.01,-149.07 1772.22,-159.43 1778.2,-155.79"/>
</g>
<!-- prebuild&#45;libdaemon -->
<g id="node11" class="node">
<title>prebuild&#45;libdaemon</title>
<ellipse fill="none" stroke="black" cx="1966.04" cy="-131" rx="100.98" ry="18"/>
<text text-anchor="middle" x="1966.04" y="-127.3" font-family="Times,serif" font-size="14.00">prebuild&#45;libdaemon</text>
</g>
<!-- gstd&#45;&gt;prebuild&#45;libdaemon -->
<g id="edge10" class="edge">
<title>gstd&#45;&gt;prebuild&#45;libdaemon</title>
<path fill="none" stroke="green" d="M1887.96,-259.43C1898.91,-249.4 1912.96,-235.34 1923.04,-221 1936.7,-201.58 1948.16,-177.15 1955.8,-158.8"/>
<polygon fill="green" stroke="green" points="1959.14,-159.89 1959.65,-149.3 1952.65,-157.26 1959.14,-159.89"/>
</g>
<!-- prebuild&#45;libffi -->
<g id="node12" class="node">
<title>prebuild&#45;libffi</title>
<ellipse fill="none" stroke="black" cx="2159.04" cy="-131" rx="74.19" ry="18"/>
<text text-anchor="middle" x="2159.04" y="-127.3" font-family="Times,serif" font-size="14.00">prebuild&#45;libffi</text>
</g>
<!-- gstd&#45;&gt;prebuild&#45;libffi -->
<g id="edge11" class="edge">
<title>gstd&#45;&gt;prebuild&#45;libffi</title>
<path fill="none" stroke="green" d="M1894.12,-262.62C1943,-238.52 2057.49,-182.07 2118.72,-151.88"/>
<polygon fill="green" stroke="green" points="2120.29,-155.01 2127.72,-147.45 2117.2,-148.73 2120.29,-155.01"/>
</g>
<!-- prebuild&#45;libselinux -->
<g id="node13" class="node">
<title>prebuild&#45;libselinux</title>
<ellipse fill="none" stroke="black" cx="2349.04" cy="-131" rx="97.48" ry="18"/>
<text text-anchor="middle" x="2349.04" y="-127.3" font-family="Times,serif" font-size="14.00">prebuild&#45;libselinux</text>
</g>
<!-- gstd&#45;&gt;prebuild&#45;libselinux -->
<g id="edge12" class="edge">
<title>gstd&#45;&gt;prebuild&#45;libselinux</title>
<path fill="none" stroke="green" d="M1898.11,-265.96C1973.3,-243.62 2186,-180.43 2290.14,-149.5"/>
<polygon fill="green" stroke="green" points="2291.28,-152.81 2299.87,-146.61 2289.28,-146.1 2291.28,-152.81"/>
</g>
<!-- prebuild&#45;util&#45;linux&#45;libs -->
<g id="node14" class="node">
<title>prebuild&#45;util&#45;linux&#45;libs</title>
<ellipse fill="none" stroke="black" cx="2578.04" cy="-131" rx="113.18" ry="18"/>
<text text-anchor="middle" x="2578.04" y="-127.3" font-family="Times,serif" font-size="14.00">prebuild&#45;util&#45;linux&#45;libs</text>
</g>
<!-- gstd&#45;&gt;prebuild&#45;util&#45;linux&#45;libs -->
<g id="edge13" class="edge">
<title>gstd&#45;&gt;prebuild&#45;util&#45;linux&#45;libs</title>
<path fill="none" stroke="green" d="M1900.08,-268.17C2001.97,-247.7 2345.48,-178.71 2500.73,-147.53"/>
<polygon fill="green" stroke="green" points="2501.56,-150.93 2510.68,-145.53 2500.18,-144.07 2501.56,-150.93"/>
</g>
<!-- prebuild&#45;sqlite -->
<g id="node15" class="node">
<title>prebuild&#45;sqlite</title>
<ellipse fill="none" stroke="black" cx="2788.04" cy="-131" rx="78.79" ry="18"/>
<text text-anchor="middle" x="2788.04" y="-127.3" font-family="Times,serif" font-size="14.00">prebuild&#45;sqlite</text>
</g>
<!-- gstd&#45;&gt;prebuild&#45;sqlite -->
<g id="edge14" class="edge">
<title>gstd&#45;&gt;prebuild&#45;sqlite</title>
<path fill="none" stroke="green" d="M1901.24,-269.96C2009.59,-255.37 2388.91,-203.33 2700.04,-149 2706.74,-147.83 2713.71,-146.57 2720.67,-145.27"/>
<polygon fill="green" stroke="green" points="2721.64,-148.65 2730.82,-143.36 2720.35,-141.77 2721.64,-148.65"/>
</g>
<!-- prebuild&#45;xz -->
<g id="node16" class="node">
<title>prebuild&#45;xz</title>
<ellipse fill="none" stroke="black" cx="2948.04" cy="-131" rx="63.09" ry="18"/>
<text text-anchor="middle" x="2948.04" y="-127.3" font-family="Times,serif" font-size="14.00">prebuild&#45;xz</text>
</g>
<!-- gstd&#45;&gt;prebuild&#45;xz -->
<g id="edge15" class="edge">
<title>gstd&#45;&gt;prebuild&#45;xz</title>
<path fill="none" stroke="green" d="M1901.69,-271.62C2024.81,-261.77 2495.14,-221.24 2876.04,-149 2881.33,-148 2886.81,-146.87 2892.28,-145.68"/>
<polygon fill="green" stroke="green" points="2893.08,-149.09 2902.08,-143.49 2891.56,-142.26 2893.08,-149.09"/>
</g>
<!-- prebuild&#45;pcre -->
<g id="node17" class="node">
<title>prebuild&#45;pcre</title>
<ellipse fill="none" stroke="black" cx="3102.04" cy="-131" rx="73.39" ry="18"/>
<text text-anchor="middle" x="3102.04" y="-127.3" font-family="Times,serif" font-size="14.00">prebuild&#45;pcre</text>
</g>
<!-- gstd&#45;&gt;prebuild&#45;pcre -->
<g id="edge16" class="edge">
<title>gstd&#45;&gt;prebuild&#45;pcre</title>
<path fill="none" stroke="green" d="M1902.16,-272.38C1998.41,-267.18 2299.75,-249.62 2548.04,-221 2758.85,-196.7 2811.19,-186.55 3020.04,-149 3026.15,-147.9 3032.49,-146.7 3038.83,-145.45"/>
<polygon fill="green" stroke="green" points="3039.63,-148.86 3048.75,-143.48 3038.26,-142 3039.63,-148.86"/>
</g>
<!-- prebuild&#45;zlib -->
<g id="node18" class="node">
<title>prebuild&#45;zlib</title>
<ellipse fill="none" stroke="black" cx="3263.04" cy="-131" rx="69.59" ry="18"/>
<text text-anchor="middle" x="3263.04" y="-127.3" font-family="Times,serif" font-size="14.00">prebuild&#45;zlib</text>
</g>
<!-- gstd&#45;&gt;prebuild&#45;zlib -->
<g id="edge17" class="edge">
<title>gstd&#45;&gt;prebuild&#45;zlib</title>
<path fill="none" stroke="green" d="M1902.1,-272.91C2010.99,-268.88 2385.5,-253.41 2693.04,-221 2912.38,-197.89 2967,-188.22 3184.04,-149 3190.11,-147.9 3196.43,-146.68 3202.73,-145.41"/>
<polygon fill="green" stroke="green" points="3203.48,-148.83 3212.57,-143.38 3202.07,-141.97 3203.48,-148.83"/>
</g>
<!-- libgstd&#45;&gt;prebuild&#45;glib2 -->
<g id="edge18" class="edge">
<title>libgstd&#45;&gt;prebuild&#45;glib2</title>
<path fill="none" stroke="green" d="M1828.14,-201.64C1597.02,-199.54 498.36,-187.69 161.04,-149 153.85,-148.17 146.35,-147.06 138.93,-145.79"/>
<polygon fill="green" stroke="green" points="139.34,-142.31 128.88,-143.98 138.1,-149.2 139.34,-142.31"/>
</g>
<!-- libgstd&#45;&gt;prebuild&#45;gstreamer1 -->
<g id="edge19" class="edge">
<title>libgstd&#45;&gt;prebuild&#45;gstreamer1</title>
<path fill="none" stroke="green" d="M1827.98,-202.2C1650.46,-202.66 958.15,-200.82 392.04,-149 381.84,-148.07 371.16,-146.83 360.59,-145.46"/>
<polygon fill="green" stroke="green" points="360.89,-141.97 350.52,-144.1 359.96,-148.9 360.89,-141.97"/>
</g>
<!-- libgstd&#45;&gt;prebuild&#45;gstreamer1&#45;plugins&#45;bad -->
<g id="edge20" class="edge">
<title>libgstd&#45;&gt;prebuild&#45;gstreamer1&#45;plugins&#45;bad</title>
<path fill="none" stroke="green" d="M1828.3,-200.79C1678.4,-196.38 1162.76,-179.78 738.04,-149 722.09,-147.84 705.33,-146.44 688.77,-144.93"/>
<polygon fill="green" stroke="green" points="688.78,-141.42 678.5,-143.99 688.14,-148.39 688.78,-141.42"/>
</g>
<!-- libgstd&#45;&gt;prebuild&#45;gstreamer1&#45;plugins&#45;base -->
<g id="edge21" class="edge">
<title>libgstd&#45;&gt;prebuild&#45;gstreamer1&#45;plugins&#45;base</title>
<path fill="none" stroke="green" d="M1828.85,-199.53C1711.89,-192.6 1373.7,-171.96 1093.04,-149 1077.16,-147.7 1060.48,-146.24 1043.98,-144.73"/>
<polygon fill="green" stroke="green" points="1044.01,-141.22 1033.73,-143.79 1043.37,-148.19 1044.01,-141.22"/>
</g>
<!-- libgstd&#45;&gt;prebuild&#45;json&#45;c -->
<g id="edge22" class="edge">
<title>libgstd&#45;&gt;prebuild&#45;json&#45;c</title>
<path fill="none" stroke="green" d="M1828.62,-199.73C1730.14,-194.15 1478.57,-178.03 1270.04,-149 1262.87,-148 1255.39,-146.81 1247.96,-145.53"/>
<polygon fill="green" stroke="green" points="1248.33,-142.04 1237.88,-143.74 1247.11,-148.94 1248.33,-142.04"/>
</g>
<!-- libgstd&#45;&gt;prebuild&#45;json&#45;glib -->
<g id="edge23" class="edge">
<title>libgstd&#45;&gt;prebuild&#45;json&#45;glib</title>
<path fill="none" stroke="green" d="M1830.3,-197.02C1758.18,-188.11 1603.33,-168.53 1473.04,-149 1464.88,-147.78 1456.35,-146.44 1447.86,-145.08"/>
<polygon fill="green" stroke="green" points="1448.36,-141.62 1437.93,-143.47 1447.24,-148.53 1448.36,-141.62"/>
</g>
<!-- libgstd&#45;&gt;prebuild&#45;libsoup -->
<g id="edge24" class="edge">
<title>libgstd&#45;&gt;prebuild&#45;libsoup</title>
<path fill="none" stroke="green" d="M1834.49,-193.56C1784.84,-182.09 1695.24,-161.38 1633.75,-147.18"/>
<polygon fill="green" stroke="green" points="1634.29,-143.71 1623.75,-144.87 1632.71,-150.53 1634.29,-143.71"/>
</g>
<!-- libgstd&#45;&gt;prebuild&#45;libxml2 -->
<g id="edge25" class="edge">
<title>libgstd&#45;&gt;prebuild&#45;libxml2</title>
<path fill="none" stroke="green" d="M1848.31,-187.67C1832.87,-177.92 1812.14,-164.85 1794.66,-153.83"/>
<polygon fill="green" stroke="green" points="1796.18,-150.65 1785.85,-148.28 1792.44,-156.57 1796.18,-150.65"/>
</g>
<!-- libgstd&#45;&gt;prebuild&#45;libdaemon -->
<g id="edge26" class="edge">
<title>libgstd&#45;&gt;prebuild&#45;libdaemon</title>
<path fill="none" stroke="green" d="M1891.66,-186.81C1904.43,-177.4 1921.07,-165.14 1935.37,-154.6"/>
<polygon fill="green" stroke="green" points="1937.5,-157.38 1943.48,-148.63 1933.35,-151.74 1937.5,-157.38"/>
</g>
<!-- libgstd&#45;&gt;prebuild&#45;libffi -->
<g id="edge27" class="edge">
<title>libgstd&#45;&gt;prebuild&#45;libffi</title>
<path fill="none" stroke="green" d="M1907.23,-193.21C1955.36,-181.51 2041.08,-160.67 2098.98,-146.6"/>
<polygon fill="green" stroke="green" points="2099.85,-149.99 2108.74,-144.23 2098.2,-143.19 2099.85,-149.99"/>
</g>
<!-- libgstd&#45;&gt;prebuild&#45;libselinux -->
<g id="edge28" class="edge">
<title>libgstd&#45;&gt;prebuild&#45;libselinux</title>
<path fill="none" stroke="green" d="M1911.15,-196.48C1979.23,-187.06 2121.74,-167.15 2242.04,-149 2250.56,-147.72 2259.45,-146.35 2268.31,-144.97"/>
<polygon fill="green" stroke="green" points="2268.94,-148.41 2278.27,-143.4 2267.85,-141.49 2268.94,-148.41"/>
</g>
<!-- libgstd&#45;&gt;prebuild&#45;util&#45;linux&#45;libs -->
<g id="edge29" class="edge">
<title>libgstd&#45;&gt;prebuild&#45;util&#45;linux&#45;libs</title>
<path fill="none" stroke="green" d="M1912.89,-198.88C2008.88,-191.57 2252.25,-172.2 2455.04,-149 2465.54,-147.8 2476.52,-146.44 2487.42,-145.01"/>
<polygon fill="green" stroke="green" points="2487.94,-148.48 2497.39,-143.7 2487.02,-141.54 2487.94,-148.48"/>
</g>
<!-- libgstd&#45;&gt;prebuild&#45;sqlite -->
<g id="edge30" class="edge">
<title>libgstd&#45;&gt;prebuild&#45;sqlite</title>
<path fill="none" stroke="green" d="M1913.94,-201.18C2036.85,-198.41 2400.71,-187.32 2700.04,-149 2707.34,-148.07 2714.94,-146.9 2722.49,-145.61"/>
<polygon fill="green" stroke="green" points="2723.12,-149.06 2732.35,-143.86 2721.9,-142.16 2723.12,-149.06"/>
</g>
<!-- libgstd&#45;&gt;prebuild&#45;xz -->
<g id="edge31" class="edge">
<title>libgstd&#45;&gt;prebuild&#45;xz</title>
<path fill="none" stroke="green" d="M1914.41,-202.48C2054.43,-203.43 2506.78,-201.89 2876.04,-149 2881.74,-148.18 2887.66,-147.13 2893.53,-145.95"/>
<polygon fill="green" stroke="green" points="2894.29,-149.37 2903.34,-143.86 2892.83,-142.52 2894.29,-149.37"/>
</g>
<!-- libgstd&#45;&gt;prebuild&#45;pcre -->
<g id="edge32" class="edge">
<title>libgstd&#45;&gt;prebuild&#45;pcre</title>
<path fill="none" stroke="green" d="M1914.03,-202.46C2065.89,-203.57 2591.1,-203.01 3020.04,-149 3026.73,-148.16 3033.68,-147.06 3040.59,-145.84"/>
<polygon fill="green" stroke="green" points="3041.45,-149.24 3050.64,-143.95 3040.16,-142.35 3041.45,-149.24"/>
</g>
<!-- libgstd&#45;&gt;prebuild&#45;zlib -->
<g id="edge33" class="edge">
<title>libgstd&#45;&gt;prebuild&#45;zlib</title>
<path fill="none" stroke="green" d="M1913.92,-201.26C2110.85,-197.71 2929.85,-181.24 3184.04,-149 3190.44,-148.19 3197.08,-147.12 3203.68,-145.92"/>
<polygon fill="green" stroke="green" points="3204.81,-149.26 3213.96,-143.93 3203.48,-142.39 3204.81,-149.26"/>
</g>
</g>
</svg>
