<?xml version="1.0" encoding="UTF-8" standalone="no"?>
<!DOCTYPE svg PUBLIC "-//W3C//DTD SVG 1.1//EN"
 "http://www.w3.org/Graphics/SVG/1.1/DTD/svg11.dtd">
<!-- Generated by graphviz version 2.43.0 (0)
 -->
<!-- Title: depends Pages: 1 -->
<svg width="798pt" height="390pt"
 viewBox="0.00 0.00 797.78 390.00" xmlns="http://www.w3.org/2000/svg" xmlns:xlink="http://www.w3.org/1999/xlink">
<g id="graph0" class="graph" transform="scale(1 1) rotate(0) translate(4 386)">
<title>depends</title>
<polygon fill="white" stroke="transparent" points="-4,4 -4,-386 793.78,-386 793.78,4 -4,4"/>
<text text-anchor="middle" x="394.89" y="-97.8" font-family="Times,serif" font-size="14.00">solid line: strong dependency</text>
<text text-anchor="middle" x="394.89" y="-82.8" font-family="Times,serif" font-size="14.00">dashed line: weak dependency</text>
<text text-anchor="middle" x="394.89" y="-67.8" font-family="Times,serif" font-size="14.00">double lines: choose one package from srcbuild and prebuild or from patch and unpatch</text>
<text text-anchor="middle" x="394.89" y="-52.8" font-family="Times,serif" font-size="14.00">red line: unselected in .config</text>
<text text-anchor="middle" x="394.89" y="-37.8" font-family="Times,serif" font-size="14.00">green line: selected in .config</text>
<text text-anchor="middle" x="394.89" y="-22.8" font-family="Times,serif" font-size="14.00">red box: top package, unselected in .config</text>
<text text-anchor="middle" x="394.89" y="-7.8" font-family="Times,serif" font-size="14.00">green box: top package, selected in .config</text>
<!-- kernel&#45;module&#45;ambvideo -->
<g id="node1" class="node">
<title>kernel&#45;module&#45;ambvideo</title>
<ellipse fill="none" stroke="green" cx="311.59" cy="-364" rx="124.58" ry="18"/>
<text text-anchor="middle" x="311.59" y="-360.3" font-family="Times,serif" font-size="14.00">kernel&#45;module&#45;ambvideo</text>
</g>
<!-- ambvideo&#45;header -->
<g id="node2" class="node">
<title>ambvideo&#45;header</title>
<ellipse fill="none" stroke="black" cx="119.59" cy="-291" rx="90.98" ry="18"/>
<text text-anchor="middle" x="119.59" y="-287.3" font-family="Times,serif" font-size="14.00">ambvideo&#45;header</text>
</g>
<!-- kernel&#45;module&#45;ambvideo&#45;&gt;ambvideo&#45;header -->
<g id="edge1" class="edge">
<title>kernel&#45;module&#45;ambvideo&#45;&gt;ambvideo&#45;header</title>
<path fill="none" stroke="green" d="M268.5,-347.07C239.37,-336.29 200.79,-322.03 170.19,-310.71"/>
<polygon fill="green" stroke="green" points="171.16,-307.34 160.56,-307.15 168.73,-313.9 171.16,-307.34"/>
</g>
<!-- firmware&#45;ucode -->
<g id="node3" class="node">
<title>firmware&#45;ucode</title>
<ellipse fill="none" stroke="black" cx="311.59" cy="-291" rx="83.39" ry="18"/>
<text text-anchor="middle" x="311.59" y="-287.3" font-family="Times,serif" font-size="14.00">firmware&#45;ucode</text>
</g>
<!-- kernel&#45;module&#45;ambvideo&#45;&gt;firmware&#45;ucode -->
<g id="edge2" class="edge">
<title>kernel&#45;module&#45;ambvideo&#45;&gt;firmware&#45;ucode</title>
<path fill="none" stroke="green" d="M311.59,-345.81C311.59,-337.79 311.59,-328.05 311.59,-319.07"/>
<polygon fill="green" stroke="green" points="315.09,-319.03 311.59,-309.03 308.09,-319.03 315.09,-319.03"/>
</g>
<!-- linux -->
<g id="node4" class="node">
<title>linux</title>
<ellipse fill="none" stroke="black" cx="446.59" cy="-291" rx="33.6" ry="18"/>
<text text-anchor="middle" x="446.59" y="-287.3" font-family="Times,serif" font-size="14.00">linux</text>
</g>
<!-- kernel&#45;module&#45;ambvideo&#45;&gt;linux -->
<g id="edge3" class="edge">
<title>kernel&#45;module&#45;ambvideo&#45;&gt;linux</title>
<path fill="none" stroke="green" d="M342.9,-346.53C364.34,-335.26 392.7,-320.34 414.34,-308.96"/>
<polygon fill="green" stroke="green" points="416.24,-311.92 423.46,-304.16 412.98,-305.72 416.24,-311.92"/>
</g>
<!-- generic&#45;header -->
<g id="node5" class="node">
<title>generic&#45;header</title>
<ellipse fill="none" stroke="black" cx="80.59" cy="-204" rx="80.69" ry="18"/>
<text text-anchor="middle" x="80.59" y="-200.3" font-family="Times,serif" font-size="14.00">generic&#45;header</text>
</g>
<!-- ambvideo&#45;header&#45;&gt;generic&#45;header -->
<g id="edge4" class="edge">
<title>ambvideo&#45;header&#45;&gt;generic&#45;header</title>
<path fill="none" stroke="green" d="M111.7,-272.8C106.26,-260.93 98.91,-244.93 92.73,-231.45"/>
<polygon fill="green" stroke="green" points="95.82,-229.8 88.47,-222.18 89.46,-232.72 95.82,-229.8"/>
</g>
<!-- board -->
<g id="node6" class="node">
<title>board</title>
<ellipse fill="none" stroke="black" cx="227.59" cy="-131" rx="37.89" ry="18"/>
<text text-anchor="middle" x="227.59" y="-127.3" font-family="Times,serif" font-size="14.00">board</text>
</g>
<!-- ambvideo&#45;header&#45;&gt;board -->
<g id="edge5" class="edge">
<title>ambvideo&#45;header&#45;&gt;board</title>
<path fill="none" stroke="green" d="M132.97,-272.95C143.49,-259.36 158.36,-239.73 170.59,-222 185.35,-200.61 201.08,-175.59 212.27,-157.37"/>
<polygon fill="green" stroke="green" points="215.45,-158.87 217.68,-148.51 209.48,-155.22 215.45,-158.87"/>
</g>
<!-- linux&#45;&gt;board -->
<g id="edge11" class="edge">
<title>linux&#45;&gt;board</title>
<path fill="none" stroke="green" d="M420.31,-279.31C414.81,-277.16 409.03,-274.96 403.59,-273 334.56,-248.17 295.65,-276.55 246.59,-222 231.37,-205.07 227.21,-179.08 226.51,-159.37"/>
<polygon fill="green" stroke="green" points="230.01,-159.14 226.43,-149.17 223.01,-159.19 230.01,-159.14"/>
</g>
<!-- initramfs -->
<g id="node7" class="node">
<title>initramfs</title>
<ellipse fill="none" stroke="black" cx="308.59" cy="-204" rx="53.09" ry="18"/>
<text text-anchor="middle" x="308.59" y="-200.3" font-family="Times,serif" font-size="14.00">initramfs</text>
</g>
<!-- linux&#45;&gt;initramfs -->
<g id="edge6" class="edge">
<title>linux&#45;&gt;initramfs</title>
<path fill="none" stroke="red" stroke-dasharray="5,2" d="M425.33,-276.91C403.15,-263.24 368.05,-241.62 342.13,-225.66"/>
<polygon fill="red" stroke="red" points="343.73,-222.53 333.38,-220.27 340.06,-228.49 343.73,-222.53"/>
</g>
<!-- linux&#45;patch&#45;uvac -->
<g id="node8" class="node">
<title>linux&#45;patch&#45;uvac</title>
<ellipse fill="none" stroke="black" cx="466.59" cy="-204" rx="86.38" ry="18"/>
<text text-anchor="middle" x="466.59" y="-200.3" font-family="Times,serif" font-size="14.00">linux&#45;patch&#45;uvac</text>
</g>
<!-- linux&#45;&gt;linux&#45;patch&#45;uvac -->
<g id="edge7" class="edge">
<title>linux&#45;&gt;linux&#45;patch&#45;uvac</title>
<path fill="none" stroke="red" stroke-dasharray="5,2" d="M427.69,-275.98C416.91,-266.18 406.79,-252.64 413.59,-240 416.24,-235.08 419.91,-230.74 424.1,-226.94"/>
<polygon fill="red" stroke="red" points="426.38,-229.6 432.09,-220.68 422.06,-224.1 426.38,-229.6"/>
<text text-anchor="middle" x="433.59" y="-243.8" font-family="Times,serif" font-size="14.00">patch</text>
</g>
<!-- linux&#45;&gt;linux&#45;patch&#45;uvac -->
<g id="edge8" class="edge">
<title>linux&#45;&gt;linux&#45;patch&#45;uvac</title>
<path fill="none" stroke="green" d="M450.64,-272.8C453.38,-261.16 457.05,-245.55 460.18,-232.24"/>
<polygon fill="green" stroke="green" points="463.67,-232.71 462.55,-222.18 456.85,-231.11 463.67,-232.71"/>
<text text-anchor="middle" x="486.59" y="-243.8" font-family="Times,serif" font-size="14.00">unpatch</text>
</g>
<!-- linux&#45;patch&#45;rmem&#45;dio -->
<g id="node9" class="node">
<title>linux&#45;patch&#45;rmem&#45;dio</title>
<ellipse fill="none" stroke="black" cx="680.59" cy="-204" rx="109.38" ry="18"/>
<text text-anchor="middle" x="680.59" y="-200.3" font-family="Times,serif" font-size="14.00">linux&#45;patch&#45;rmem&#45;dio</text>
</g>
<!-- linux&#45;&gt;linux&#45;patch&#45;rmem&#45;dio -->
<g id="edge9" class="edge">
<title>linux&#45;&gt;linux&#45;patch&#45;rmem&#45;dio</title>
<path fill="none" stroke="red" stroke-dasharray="5,2" d="M473.89,-280.08C511.57,-266.4 580.24,-241.45 628.05,-224.09"/>
<polygon fill="red" stroke="red" points="629.41,-227.32 637.62,-220.61 627.02,-220.74 629.41,-227.32"/>
<text text-anchor="middle" x="597.59" y="-243.8" font-family="Times,serif" font-size="14.00">patch</text>
</g>
<!-- linux&#45;&gt;linux&#45;patch&#45;rmem&#45;dio -->
<g id="edge10" class="edge">
<title>linux&#45;&gt;linux&#45;patch&#45;rmem&#45;dio</title>
<path fill="none" stroke="green" d="M480.09,-288.28C516.53,-285.31 575.7,-277.18 621.59,-255 634.89,-248.57 647.65,-238.44 657.88,-228.98"/>
<polygon fill="green" stroke="green" points="660.41,-231.4 665.18,-221.94 655.55,-226.36 660.41,-231.4"/>
<text text-anchor="middle" x="673.59" y="-243.8" font-family="Times,serif" font-size="14.00">unpatch</text>
</g>
<!-- initramfs&#45;&gt;board -->
<g id="edge12" class="edge">
<title>initramfs&#45;&gt;board</title>
<path fill="none" stroke="green" d="M290.21,-186.89C279.03,-177.09 264.61,-164.44 252.42,-153.76"/>
<polygon fill="green" stroke="green" points="254.62,-151.04 244.79,-147.08 250.01,-156.3 254.62,-151.04"/>
</g>
</g>
</svg>
