<?xml version="1.0" encoding="UTF-8" standalone="no"?>
<!DOCTYPE svg PUBLIC "-//W3C//DTD SVG 1.1//EN"
 "http://www.w3.org/Graphics/SVG/1.1/DTD/svg11.dtd">
<!-- Generated by graphviz version 2.43.0 (0)
 -->
<!-- Title: depends Pages: 1 -->
<svg width="652pt" height="390pt"
 viewBox="0.00 0.00 652.00 390.00" xmlns="http://www.w3.org/2000/svg" xmlns:xlink="http://www.w3.org/1999/xlink">
<g id="graph0" class="graph" transform="scale(1 1) rotate(0) translate(4 386)">
<title>depends</title>
<polygon fill="white" stroke="transparent" points="-4,4 -4,-386 648,-386 648,4 -4,4"/>
<text text-anchor="middle" x="322" y="-97.8" font-family="Times,serif" font-size="14.00">solid line: strong dependency</text>
<text text-anchor="middle" x="322" y="-82.8" font-family="Times,serif" font-size="14.00">dashed line: weak dependency</text>
<text text-anchor="middle" x="322" y="-67.8" font-family="Times,serif" font-size="14.00">double lines: choose one package from srcbuild and prebuild or from patch and unpatch</text>
<text text-anchor="middle" x="322" y="-52.8" font-family="Times,serif" font-size="14.00">red line: unselected in .config</text>
<text text-anchor="middle" x="322" y="-37.8" font-family="Times,serif" font-size="14.00">green line: selected in .config</text>
<text text-anchor="middle" x="322" y="-22.8" font-family="Times,serif" font-size="14.00">red box: top package, unselected in .config</text>
<text text-anchor="middle" x="322" y="-7.8" font-family="Times,serif" font-size="14.00">green box: top package, selected in .config</text>
<!-- libimgflow -->
<g id="node1" class="node">
<title>libimgflow</title>
<ellipse fill="none" stroke="green" cx="338.55" cy="-364" rx="59.59" ry="18"/>
<text text-anchor="middle" x="338.55" y="-360.3" font-family="Times,serif" font-size="14.00">libimgflow</text>
</g>
<!-- libimgalgo -->
<g id="node2" class="node">
<title>libimgalgo</title>
<ellipse fill="none" stroke="black" cx="254.55" cy="-277" rx="59.59" ry="18"/>
<text text-anchor="middle" x="254.55" y="-273.3" font-family="Times,serif" font-size="14.00">libimgalgo</text>
</g>
<!-- libimgflow&#45;&gt;libimgalgo -->
<g id="edge1" class="edge">
<title>libimgflow&#45;&gt;libimgalgo</title>
<path fill="none" stroke="green" d="M281.57,-358.37C239.73,-353.64 187.97,-344.58 174.55,-328 162.26,-312.8 178.81,-300.91 199.99,-292.54"/>
<polygon fill="green" stroke="green" points="201.4,-295.75 209.61,-289.06 199.02,-289.17 201.4,-295.75"/>
<text text-anchor="middle" x="203.55" y="-316.8" font-family="Times,serif" font-size="14.00">srcbuild</text>
</g>
<!-- libimgflow&#45;&gt;libimgalgo -->
<g id="edge2" class="edge">
<title>libimgflow&#45;&gt;libimgalgo</title>
<path fill="none" stroke="red" stroke-dasharray="5,2" d="M300.66,-349.96C289.69,-344.62 278.53,-337.42 270.55,-328 265.09,-321.54 261.48,-313.2 259.1,-305.18"/>
<polygon fill="red" stroke="red" points="262.48,-304.25 256.71,-295.37 255.68,-305.91 262.48,-304.25"/>
<text text-anchor="middle" x="301.05" y="-316.8" font-family="Times,serif" font-size="14.00">prebuild</text>
</g>
<!-- lua -->
<g id="node3" class="node">
<title>lua</title>
<ellipse fill="none" stroke="black" cx="389.55" cy="-277" rx="27" ry="18"/>
<text text-anchor="middle" x="389.55" y="-273.3" font-family="Times,serif" font-size="14.00">lua</text>
</g>
<!-- libimgflow&#45;&gt;lua -->
<g id="edge3" class="edge">
<title>libimgflow&#45;&gt;lua</title>
<path fill="none" stroke="red" stroke-dasharray="5,2" d="M335.18,-345.82C334.06,-335.7 334.24,-322.96 339.55,-313 343.89,-304.87 351.05,-298.22 358.62,-292.99"/>
<polygon fill="red" stroke="red" points="360.86,-295.72 367.54,-287.5 357.19,-289.76 360.86,-295.72"/>
<text text-anchor="middle" x="368.55" y="-316.8" font-family="Times,serif" font-size="14.00">srcbuild</text>
</g>
<!-- libimgflow&#45;&gt;lua -->
<g id="edge4" class="edge">
<title>libimgflow&#45;&gt;lua</title>
<path fill="none" stroke="green" d="M374.42,-349.51C383.58,-344.25 392.31,-337.21 397.55,-328 401.65,-320.8 401.65,-312.13 400.01,-304.04"/>
<polygon fill="green" stroke="green" points="403.33,-302.94 397.24,-294.27 396.6,-304.84 403.33,-302.94"/>
<text text-anchor="middle" x="431.05" y="-316.8" font-family="Times,serif" font-size="14.00">prebuild</text>
</g>
<!-- ambvideo&#45;header -->
<g id="node4" class="node">
<title>ambvideo&#45;header</title>
<ellipse fill="none" stroke="black" cx="382.55" cy="-204" rx="90.98" ry="18"/>
<text text-anchor="middle" x="382.55" y="-200.3" font-family="Times,serif" font-size="14.00">ambvideo&#45;header</text>
</g>
<!-- libimgflow&#45;&gt;ambvideo&#45;header -->
<g id="edge5" class="edge">
<title>libimgflow&#45;&gt;ambvideo&#45;header</title>
<path fill="none" stroke="green" d="M390.92,-355.1C421.65,-349.28 456.23,-340.24 465.55,-328 491.45,-293.99 448.9,-252.39 415.76,-227.33"/>
<polygon fill="green" stroke="green" points="417.72,-224.43 407.58,-221.33 413.57,-230.07 417.72,-224.43"/>
</g>
<!-- libimgalgo&#45;&gt;ambvideo&#45;header -->
<g id="edge7" class="edge">
<title>libimgalgo&#45;&gt;ambvideo&#45;header</title>
<path fill="none" stroke="green" d="M281.7,-260.94C299.9,-250.85 324.13,-237.41 344.28,-226.23"/>
<polygon fill="green" stroke="green" points="346.17,-229.18 353.22,-221.27 342.77,-223.06 346.17,-229.18"/>
</g>
<!-- generic&#45;header -->
<g id="node5" class="node">
<title>generic&#45;header</title>
<ellipse fill="none" stroke="black" cx="254.55" cy="-131" rx="80.69" ry="18"/>
<text text-anchor="middle" x="254.55" y="-127.3" font-family="Times,serif" font-size="14.00">generic&#45;header</text>
</g>
<!-- libimgalgo&#45;&gt;generic&#45;header -->
<g id="edge6" class="edge">
<title>libimgalgo&#45;&gt;generic&#45;header</title>
<path fill="none" stroke="green" d="M254.55,-258.92C254.55,-234.34 254.55,-188.75 254.55,-159.43"/>
<polygon fill="green" stroke="green" points="258.05,-159.06 254.55,-149.06 251.05,-159.06 258.05,-159.06"/>
</g>
<!-- ambvideo&#45;header&#45;&gt;generic&#45;header -->
<g id="edge8" class="edge">
<title>ambvideo&#45;header&#45;&gt;generic&#45;header</title>
<path fill="none" stroke="green" d="M353.51,-186.89C335.42,-176.86 311.97,-163.85 292.43,-153.01"/>
<polygon fill="green" stroke="green" points="293.92,-149.84 283.48,-148.05 290.53,-155.96 293.92,-149.84"/>
</g>
<!-- board -->
<g id="node6" class="node">
<title>board</title>
<ellipse fill="none" stroke="black" cx="390.55" cy="-131" rx="37.89" ry="18"/>
<text text-anchor="middle" x="390.55" y="-127.3" font-family="Times,serif" font-size="14.00">board</text>
</g>
<!-- ambvideo&#45;header&#45;&gt;board -->
<g id="edge9" class="edge">
<title>ambvideo&#45;header&#45;&gt;board</title>
<path fill="none" stroke="green" d="M384.49,-185.81C385.39,-177.79 386.49,-168.05 387.5,-159.07"/>
<polygon fill="green" stroke="green" points="390.99,-159.36 388.63,-149.03 384.04,-158.57 390.99,-159.36"/>
</g>
</g>
</svg>
