<?xml version="1.0" encoding="UTF-8" standalone="no"?>
<!DOCTYPE svg PUBLIC "-//W3C//DTD SVG 1.1//EN"
 "http://www.w3.org/Graphics/SVG/1.1/DTD/svg11.dtd">
<!-- Generated by graphviz version 2.43.0 (0)
 -->
<!-- Title: depends Pages: 1 -->
<svg width="3341pt" height="229pt"
 viewBox="0.00 0.00 3340.59 229.00" xmlns="http://www.w3.org/2000/svg" xmlns:xlink="http://www.w3.org/1999/xlink">
<g id="graph0" class="graph" transform="scale(1 1) rotate(0) translate(4 225)">
<title>depends</title>
<polygon fill="white" stroke="transparent" points="-4,4 -4,-225 3336.59,-225 3336.59,4 -4,4"/>
<text text-anchor="middle" x="1666.29" y="-97.8" font-family="Times,serif" font-size="14.00">solid line: strong dependency</text>
<text text-anchor="middle" x="1666.29" y="-82.8" font-family="Times,serif" font-size="14.00">dashed line: weak dependency</text>
<text text-anchor="middle" x="1666.29" y="-67.8" font-family="Times,serif" font-size="14.00">double lines: choose one package from srcbuild and prebuild or from patch and unpatch</text>
<text text-anchor="middle" x="1666.29" y="-52.8" font-family="Times,serif" font-size="14.00">red line: unselected in .config</text>
<text text-anchor="middle" x="1666.29" y="-37.8" font-family="Times,serif" font-size="14.00">green line: selected in .config</text>
<text text-anchor="middle" x="1666.29" y="-22.8" font-family="Times,serif" font-size="14.00">red box: top package, unselected in .config</text>
<text text-anchor="middle" x="1666.29" y="-7.8" font-family="Times,serif" font-size="14.00">green box: top package, selected in .config</text>
<!-- libgstc -->
<g id="node1" class="node">
<title>libgstc</title>
<ellipse fill="none" stroke="green" cx="1863.04" cy="-203" rx="42.49" ry="18"/>
<text text-anchor="middle" x="1863.04" y="-199.3" font-family="Times,serif" font-size="14.00">libgstc</text>
</g>
<!-- prebuild&#45;glib2 -->
<g id="node2" class="node">
<title>prebuild&#45;glib2</title>
<ellipse fill="none" stroke="black" cx="76.04" cy="-131" rx="76.09" ry="18"/>
<text text-anchor="middle" x="76.04" y="-127.3" font-family="Times,serif" font-size="14.00">prebuild&#45;glib2</text>
</g>
<!-- libgstc&#45;&gt;prebuild&#45;glib2 -->
<g id="edge1" class="edge">
<title>libgstc&#45;&gt;prebuild&#45;glib2</title>
<path fill="none" stroke="green" d="M1820.71,-201.64C1591.5,-199.52 496.96,-187.55 161.04,-149 153.85,-148.17 146.35,-147.06 138.93,-145.79"/>
<polygon fill="green" stroke="green" points="139.34,-142.31 128.88,-143.98 138.1,-149.2 139.34,-142.31"/>
</g>
<!-- prebuild&#45;gstreamer1 -->
<g id="node3" class="node">
<title>prebuild&#45;gstreamer1</title>
<ellipse fill="none" stroke="black" cx="277.04" cy="-131" rx="106.68" ry="18"/>
<text text-anchor="middle" x="277.04" y="-127.3" font-family="Times,serif" font-size="14.00">prebuild&#45;gstreamer1</text>
</g>
<!-- libgstc&#45;&gt;prebuild&#45;gstreamer1 -->
<g id="edge2" class="edge">
<title>libgstc&#45;&gt;prebuild&#45;gstreamer1</title>
<path fill="none" stroke="green" d="M1820.81,-202.19C1645.21,-202.6 955.72,-200.66 392.04,-149 381.84,-148.06 371.16,-146.83 360.59,-145.46"/>
<polygon fill="green" stroke="green" points="360.89,-141.97 350.52,-144.1 359.96,-148.9 360.89,-141.97"/>
</g>
<!-- prebuild&#45;gstreamer1&#45;plugins&#45;bad -->
<g id="node4" class="node">
<title>prebuild&#45;gstreamer1&#45;plugins&#45;bad</title>
<ellipse fill="none" stroke="black" cx="565.04" cy="-131" rx="163.57" ry="18"/>
<text text-anchor="middle" x="565.04" y="-127.3" font-family="Times,serif" font-size="14.00">prebuild&#45;gstreamer1&#45;plugins&#45;bad</text>
</g>
<!-- libgstc&#45;&gt;prebuild&#45;gstreamer1&#45;plugins&#45;bad -->
<g id="edge3" class="edge">
<title>libgstc&#45;&gt;prebuild&#45;gstreamer1&#45;plugins&#45;bad</title>
<path fill="none" stroke="green" d="M1821.11,-200.79C1672.95,-196.37 1160.25,-179.67 738.04,-149 722.09,-147.84 705.33,-146.43 688.77,-144.93"/>
<polygon fill="green" stroke="green" points="688.78,-141.42 678.5,-143.98 688.14,-148.39 688.78,-141.42"/>
</g>
<!-- prebuild&#45;gstreamer1&#45;plugins&#45;base -->
<g id="node5" class="node">
<title>prebuild&#45;gstreamer1&#45;plugins&#45;base</title>
<ellipse fill="none" stroke="black" cx="915.04" cy="-131" rx="168.17" ry="18"/>
<text text-anchor="middle" x="915.04" y="-127.3" font-family="Times,serif" font-size="14.00">prebuild&#45;gstreamer1&#45;plugins&#45;base</text>
</g>
<!-- libgstc&#45;&gt;prebuild&#45;gstreamer1&#45;plugins&#45;base -->
<g id="edge4" class="edge">
<title>libgstc&#45;&gt;prebuild&#45;gstreamer1&#45;plugins&#45;base</title>
<path fill="none" stroke="green" d="M1821.28,-199.52C1705.53,-192.55 1370.82,-171.82 1093.04,-149 1077.16,-147.69 1060.48,-146.23 1043.98,-144.72"/>
<polygon fill="green" stroke="green" points="1044.01,-141.21 1033.73,-143.78 1043.37,-148.18 1044.01,-141.21"/>
</g>
<!-- prebuild&#45;json&#45;c -->
<g id="node6" class="node">
<title>prebuild&#45;json&#45;c</title>
<ellipse fill="none" stroke="black" cx="1181.04" cy="-131" rx="79.09" ry="18"/>
<text text-anchor="middle" x="1181.04" y="-127.3" font-family="Times,serif" font-size="14.00">prebuild&#45;json&#45;c</text>
</g>
<!-- libgstc&#45;&gt;prebuild&#45;json&#45;c -->
<g id="edge5" class="edge">
<title>libgstc&#45;&gt;prebuild&#45;json&#45;c</title>
<path fill="none" stroke="green" d="M1821.18,-199.7C1724.02,-194.04 1475.8,-177.77 1270.04,-149 1262.87,-148 1255.39,-146.8 1247.96,-145.52"/>
<polygon fill="green" stroke="green" points="1248.34,-142.03 1237.88,-143.73 1247.11,-148.93 1248.34,-142.03"/>
</g>
<!-- prebuild&#45;json&#45;glib -->
<g id="node7" class="node">
<title>prebuild&#45;json&#45;glib</title>
<ellipse fill="none" stroke="black" cx="1371.04" cy="-131" rx="92.08" ry="18"/>
<text text-anchor="middle" x="1371.04" y="-127.3" font-family="Times,serif" font-size="14.00">prebuild&#45;json&#45;glib</text>
</g>
<!-- libgstc&#45;&gt;prebuild&#45;json&#45;glib -->
<g id="edge6" class="edge">
<title>libgstc&#45;&gt;prebuild&#45;json&#45;glib</title>
<path fill="none" stroke="green" d="M1823.12,-196.98C1752.46,-188 1600.74,-168.31 1473.04,-149 1464.88,-147.77 1456.35,-146.42 1447.86,-145.06"/>
<polygon fill="green" stroke="green" points="1448.37,-141.59 1437.93,-143.44 1447.24,-148.5 1448.37,-141.59"/>
</g>
<!-- prebuild&#45;libsoup -->
<g id="node8" class="node">
<title>prebuild&#45;libsoup</title>
<ellipse fill="none" stroke="black" cx="1568.04" cy="-131" rx="86.38" ry="18"/>
<text text-anchor="middle" x="1568.04" y="-127.3" font-family="Times,serif" font-size="14.00">prebuild&#45;libsoup</text>
</g>
<!-- libgstc&#45;&gt;prebuild&#45;libsoup -->
<g id="edge7" class="edge">
<title>libgstc&#45;&gt;prebuild&#45;libsoup</title>
<path fill="none" stroke="green" d="M1827.17,-193.49C1778.97,-182.05 1692.5,-161.53 1632.78,-147.36"/>
<polygon fill="green" stroke="green" points="1633.24,-143.87 1622.7,-144.97 1631.62,-150.68 1633.24,-143.87"/>
</g>
<!-- prebuild&#45;libxml2 -->
<g id="node9" class="node">
<title>prebuild&#45;libxml2</title>
<ellipse fill="none" stroke="black" cx="1760.04" cy="-131" rx="87.18" ry="18"/>
<text text-anchor="middle" x="1760.04" y="-127.3" font-family="Times,serif" font-size="14.00">prebuild&#45;libxml2</text>
</g>
<!-- libgstc&#45;&gt;prebuild&#45;libxml2 -->
<g id="edge8" class="edge">
<title>libgstc&#45;&gt;prebuild&#45;libxml2</title>
<path fill="none" stroke="green" d="M1841.2,-187.15C1827.15,-177.61 1808.63,-165.02 1792.83,-154.28"/>
<polygon fill="green" stroke="green" points="1794.62,-151.27 1784.38,-148.54 1790.68,-157.05 1794.62,-151.27"/>
</g>
<!-- prebuild&#45;libdaemon -->
<g id="node10" class="node">
<title>prebuild&#45;libdaemon</title>
<ellipse fill="none" stroke="black" cx="1966.04" cy="-131" rx="100.98" ry="18"/>
<text text-anchor="middle" x="1966.04" y="-127.3" font-family="Times,serif" font-size="14.00">prebuild&#45;libdaemon</text>
</g>
<!-- libgstc&#45;&gt;prebuild&#45;libdaemon -->
<g id="edge9" class="edge">
<title>libgstc&#45;&gt;prebuild&#45;libdaemon</title>
<path fill="none" stroke="green" d="M1884.89,-187.15C1898.94,-177.61 1917.46,-165.02 1933.26,-154.28"/>
<polygon fill="green" stroke="green" points="1935.4,-157.05 1941.71,-148.54 1931.47,-151.27 1935.4,-157.05"/>
</g>
<!-- prebuild&#45;libffi -->
<g id="node11" class="node">
<title>prebuild&#45;libffi</title>
<ellipse fill="none" stroke="black" cx="2159.04" cy="-131" rx="74.19" ry="18"/>
<text text-anchor="middle" x="2159.04" y="-127.3" font-family="Times,serif" font-size="14.00">prebuild&#45;libffi</text>
</g>
<!-- libgstc&#45;&gt;prebuild&#45;libffi -->
<g id="edge10" class="edge">
<title>libgstc&#45;&gt;prebuild&#45;libffi</title>
<path fill="none" stroke="green" d="M1899.04,-193.49C1948.52,-181.79 2038.21,-160.58 2098.21,-146.39"/>
<polygon fill="green" stroke="green" points="2099.01,-149.79 2107.94,-144.09 2097.4,-142.98 2099.01,-149.79"/>
</g>
<!-- prebuild&#45;libselinux -->
<g id="node12" class="node">
<title>prebuild&#45;libselinux</title>
<ellipse fill="none" stroke="black" cx="2349.04" cy="-131" rx="97.48" ry="18"/>
<text text-anchor="middle" x="2349.04" y="-127.3" font-family="Times,serif" font-size="14.00">prebuild&#45;libselinux</text>
</g>
<!-- libgstc&#45;&gt;prebuild&#45;libselinux -->
<g id="edge11" class="edge">
<title>libgstc&#45;&gt;prebuild&#45;libselinux</title>
<path fill="none" stroke="green" d="M1902.64,-196.71C1971.63,-187.44 2118.34,-167.47 2242.04,-149 2250.56,-147.73 2259.45,-146.37 2268.31,-144.99"/>
<polygon fill="green" stroke="green" points="2268.94,-148.44 2278.28,-143.43 2267.86,-141.52 2268.94,-148.44"/>
</g>
<!-- prebuild&#45;util&#45;linux&#45;libs -->
<g id="node13" class="node">
<title>prebuild&#45;util&#45;linux&#45;libs</title>
<ellipse fill="none" stroke="black" cx="2578.04" cy="-131" rx="113.18" ry="18"/>
<text text-anchor="middle" x="2578.04" y="-127.3" font-family="Times,serif" font-size="14.00">prebuild&#45;util&#45;linux&#45;libs</text>
</g>
<!-- libgstc&#45;&gt;prebuild&#45;util&#45;linux&#45;libs -->
<g id="edge12" class="edge">
<title>libgstc&#45;&gt;prebuild&#45;util&#45;linux&#45;libs</title>
<path fill="none" stroke="green" d="M1904.38,-198.99C2000.93,-191.8 2248.71,-172.48 2455.04,-149 2465.54,-147.81 2476.52,-146.45 2487.42,-145.03"/>
<polygon fill="green" stroke="green" points="2487.94,-148.49 2497.39,-143.71 2487.02,-141.55 2487.94,-148.49"/>
</g>
<!-- prebuild&#45;sqlite -->
<g id="node14" class="node">
<title>prebuild&#45;sqlite</title>
<ellipse fill="none" stroke="black" cx="2788.04" cy="-131" rx="78.79" ry="18"/>
<text text-anchor="middle" x="2788.04" y="-127.3" font-family="Times,serif" font-size="14.00">prebuild&#45;sqlite</text>
</g>
<!-- libgstc&#45;&gt;prebuild&#45;sqlite -->
<g id="edge13" class="edge">
<title>libgstc&#45;&gt;prebuild&#45;sqlite</title>
<path fill="none" stroke="green" d="M1905.47,-201.22C2028.69,-198.56 2397.1,-187.69 2700.04,-149 2707.34,-148.07 2714.94,-146.9 2722.49,-145.62"/>
<polygon fill="green" stroke="green" points="2723.12,-149.06 2732.35,-143.87 2721.9,-142.17 2723.12,-149.06"/>
</g>
<!-- prebuild&#45;xz -->
<g id="node15" class="node">
<title>prebuild&#45;xz</title>
<ellipse fill="none" stroke="black" cx="2948.04" cy="-131" rx="63.09" ry="18"/>
<text text-anchor="middle" x="2948.04" y="-127.3" font-family="Times,serif" font-size="14.00">prebuild&#45;xz</text>
</g>
<!-- libgstc&#45;&gt;prebuild&#45;xz -->
<g id="edge14" class="edge">
<title>libgstc&#45;&gt;prebuild&#45;xz</title>
<path fill="none" stroke="green" d="M1905.28,-202.49C2044.68,-203.55 2502.53,-202.42 2876.04,-149 2881.74,-148.18 2887.66,-147.13 2893.53,-145.95"/>
<polygon fill="green" stroke="green" points="2894.29,-149.37 2903.34,-143.87 2892.83,-142.52 2894.29,-149.37"/>
</g>
<!-- prebuild&#45;pcre -->
<g id="node16" class="node">
<title>prebuild&#45;pcre</title>
<ellipse fill="none" stroke="black" cx="3102.04" cy="-131" rx="73.39" ry="18"/>
<text text-anchor="middle" x="3102.04" y="-127.3" font-family="Times,serif" font-size="14.00">prebuild&#45;pcre</text>
</g>
<!-- libgstc&#45;&gt;prebuild&#45;pcre -->
<g id="edge15" class="edge">
<title>libgstc&#45;&gt;prebuild&#45;pcre</title>
<path fill="none" stroke="green" d="M1905.28,-202.48C2056.81,-203.67 2587.11,-203.44 3020.04,-149 3026.73,-148.16 3033.69,-147.07 3040.59,-145.84"/>
<polygon fill="green" stroke="green" points="3041.45,-149.24 3050.64,-143.96 3040.16,-142.36 3041.45,-149.24"/>
</g>
<!-- prebuild&#45;zlib -->
<g id="node17" class="node">
<title>prebuild&#45;zlib</title>
<ellipse fill="none" stroke="black" cx="3263.04" cy="-131" rx="69.59" ry="18"/>
<text text-anchor="middle" x="3263.04" y="-127.3" font-family="Times,serif" font-size="14.00">prebuild&#45;zlib</text>
</g>
<!-- libgstc&#45;&gt;prebuild&#45;zlib -->
<g id="edge16" class="edge">
<title>libgstc&#45;&gt;prebuild&#45;zlib</title>
<path fill="none" stroke="green" d="M1905.2,-201.28C2101.56,-197.8 2927.88,-181.46 3184.04,-149 3190.44,-148.19 3197.08,-147.12 3203.68,-145.92"/>
<polygon fill="green" stroke="green" points="3204.81,-149.26 3213.96,-143.93 3203.48,-142.39 3204.81,-149.26"/>
</g>
</g>
</svg>
