<?xml version="1.0" encoding="UTF-8" standalone="no"?>
<!DOCTYPE svg PUBLIC "-//W3C//DTD SVG 1.1//EN"
 "http://www.w3.org/Graphics/SVG/1.1/DTD/svg11.dtd">
<!-- Generated by graphviz version 2.43.0 (0)
 -->
<!-- Title: depends Pages: 1 -->
<svg width="1379pt" height="373pt"
 viewBox="0.00 0.00 1379.14 373.00" xmlns="http://www.w3.org/2000/svg" xmlns:xlink="http://www.w3.org/1999/xlink">
<g id="graph0" class="graph" transform="scale(1 1) rotate(0) translate(4 369)">
<title>depends</title>
<polygon fill="white" stroke="transparent" points="-4,4 -4,-369 1375.14,-369 1375.14,4 -4,4"/>
<text text-anchor="middle" x="685.57" y="-97.8" font-family="Times,serif" font-size="14.00">solid line: strong dependency</text>
<text text-anchor="middle" x="685.57" y="-82.8" font-family="Times,serif" font-size="14.00">dashed line: weak dependency</text>
<text text-anchor="middle" x="685.57" y="-67.8" font-family="Times,serif" font-size="14.00">double lines: choose one package from srcbuild and prebuild or from patch and unpatch</text>
<text text-anchor="middle" x="685.57" y="-52.8" font-family="Times,serif" font-size="14.00">red line: unselected in .config</text>
<text text-anchor="middle" x="685.57" y="-37.8" font-family="Times,serif" font-size="14.00">green line: selected in .config</text>
<text text-anchor="middle" x="685.57" y="-22.8" font-family="Times,serif" font-size="14.00">red box: top package, unselected in .config</text>
<text text-anchor="middle" x="685.57" y="-7.8" font-family="Times,serif" font-size="14.00">green box: top package, selected in .config</text>
<!-- prebuild&#45;alsa&#45;plugins -->
<g id="node1" class="node">
<title>prebuild&#45;alsa&#45;plugins</title>
<ellipse fill="none" stroke="green" cx="939.89" cy="-347" rx="108.58" ry="18"/>
<text text-anchor="middle" x="939.89" y="-343.3" font-family="Times,serif" font-size="14.00">prebuild&#45;alsa&#45;plugins</text>
</g>
<!-- prebuild&#45;alsa&#45;lib -->
<g id="node2" class="node">
<title>prebuild&#45;alsa&#45;lib</title>
<ellipse fill="none" stroke="black" cx="1066.89" cy="-203" rx="85.59" ry="18"/>
<text text-anchor="middle" x="1066.89" y="-199.3" font-family="Times,serif" font-size="14.00">prebuild&#45;alsa&#45;lib</text>
</g>
<!-- prebuild&#45;alsa&#45;plugins&#45;&gt;prebuild&#45;alsa&#45;lib -->
<g id="edge1" class="edge">
<title>prebuild&#45;alsa&#45;plugins&#45;&gt;prebuild&#45;alsa&#45;lib</title>
<path fill="none" stroke="green" d="M957.49,-329.2C968,-318.97 981.49,-305.5 992.89,-293 1012.15,-271.89 1032.85,-246.76 1047.45,-228.6"/>
<polygon fill="green" stroke="green" points="1050.18,-230.78 1053.7,-220.79 1044.72,-226.41 1050.18,-230.78"/>
</g>
<!-- prebuild&#45;pulseaudio -->
<g id="node3" class="node">
<title>prebuild&#45;pulseaudio</title>
<ellipse fill="none" stroke="black" cx="511.89" cy="-275" rx="102.88" ry="18"/>
<text text-anchor="middle" x="511.89" y="-271.3" font-family="Times,serif" font-size="14.00">prebuild&#45;pulseaudio</text>
</g>
<!-- prebuild&#45;alsa&#45;plugins&#45;&gt;prebuild&#45;pulseaudio -->
<g id="edge2" class="edge">
<title>prebuild&#45;alsa&#45;plugins&#45;&gt;prebuild&#45;pulseaudio</title>
<path fill="none" stroke="green" d="M865.34,-333.81C789.7,-321.44 672.89,-302.33 594.49,-289.51"/>
<polygon fill="green" stroke="green" points="594.6,-285.98 584.16,-287.82 593.47,-292.89 594.6,-285.98"/>
</g>
<!-- prebuild&#45;libsamplerate -->
<g id="node4" class="node">
<title>prebuild&#45;libsamplerate</title>
<ellipse fill="none" stroke="black" cx="867.89" cy="-275" rx="116.18" ry="18"/>
<text text-anchor="middle" x="867.89" y="-271.3" font-family="Times,serif" font-size="14.00">prebuild&#45;libsamplerate</text>
</g>
<!-- prebuild&#45;alsa&#45;plugins&#45;&gt;prebuild&#45;libsamplerate -->
<g id="edge3" class="edge">
<title>prebuild&#45;alsa&#45;plugins&#45;&gt;prebuild&#45;libsamplerate</title>
<path fill="none" stroke="green" d="M922.46,-329.05C913.51,-320.35 902.44,-309.59 892.62,-300.04"/>
<polygon fill="green" stroke="green" points="895.02,-297.49 885.41,-293.03 890.14,-302.51 895.02,-297.49"/>
</g>
<!-- prebuild&#45;speex -->
<g id="node5" class="node">
<title>prebuild&#45;speex</title>
<ellipse fill="none" stroke="black" cx="1162.89" cy="-275" rx="79.09" ry="18"/>
<text text-anchor="middle" x="1162.89" y="-271.3" font-family="Times,serif" font-size="14.00">prebuild&#45;speex</text>
</g>
<!-- prebuild&#45;alsa&#45;plugins&#45;&gt;prebuild&#45;speex -->
<g id="edge4" class="edge">
<title>prebuild&#45;alsa&#45;plugins&#45;&gt;prebuild&#45;speex</title>
<path fill="none" stroke="green" d="M988.28,-330.81C1023.79,-319.66 1072.04,-304.52 1108.82,-292.97"/>
<polygon fill="green" stroke="green" points="1109.9,-296.3 1118.39,-289.97 1107.8,-289.63 1109.9,-296.3"/>
</g>
<!-- board -->
<g id="node6" class="node">
<title>board</title>
<ellipse fill="none" stroke="black" cx="904.89" cy="-131" rx="37.89" ry="18"/>
<text text-anchor="middle" x="904.89" y="-127.3" font-family="Times,serif" font-size="14.00">board</text>
</g>
<!-- prebuild&#45;alsa&#45;lib&#45;&gt;board -->
<g id="edge5" class="edge">
<title>prebuild&#45;alsa&#45;lib&#45;&gt;board</title>
<path fill="none" stroke="green" d="M1030.94,-186.46C1004.29,-174.95 968.1,-159.31 941.34,-147.75"/>
<polygon fill="green" stroke="green" points="942.5,-144.44 931.94,-143.69 939.73,-150.87 942.5,-144.44"/>
</g>
<!-- prebuild&#45;pulseaudio&#45;&gt;board -->
<g id="edge6" class="edge">
<title>prebuild&#45;pulseaudio&#45;&gt;board</title>
<path fill="none" stroke="green" d="M568.88,-259.92C603.61,-250.57 648.54,-237.07 686.89,-221 717.71,-208.09 722.35,-198.55 752.89,-185 789.66,-168.69 833.13,-153.97 864.14,-144.2"/>
<polygon fill="green" stroke="green" points="865.24,-147.53 873.75,-141.21 863.16,-140.84 865.24,-147.53"/>
</g>
<!-- prebuild&#45;libtool -->
<g id="node7" class="node">
<title>prebuild&#45;libtool</title>
<ellipse fill="none" stroke="black" cx="81.89" cy="-203" rx="81.79" ry="18"/>
<text text-anchor="middle" x="81.89" y="-199.3" font-family="Times,serif" font-size="14.00">prebuild&#45;libtool</text>
</g>
<!-- prebuild&#45;pulseaudio&#45;&gt;prebuild&#45;libtool -->
<g id="edge7" class="edge">
<title>prebuild&#45;pulseaudio&#45;&gt;prebuild&#45;libtool</title>
<path fill="none" stroke="green" d="M436.05,-262.8C367.28,-252.49 263.16,-236.48 172.89,-221 165.92,-219.8 158.66,-218.52 151.41,-217.21"/>
<polygon fill="green" stroke="green" points="152.03,-213.76 141.57,-215.41 150.78,-220.65 152.03,-213.76"/>
</g>
<!-- prebuild&#45;soxr -->
<g id="node8" class="node">
<title>prebuild&#45;soxr</title>
<ellipse fill="none" stroke="black" cx="254.89" cy="-203" rx="72.59" ry="18"/>
<text text-anchor="middle" x="254.89" y="-199.3" font-family="Times,serif" font-size="14.00">prebuild&#45;soxr</text>
</g>
<!-- prebuild&#45;pulseaudio&#45;&gt;prebuild&#45;soxr -->
<g id="edge8" class="edge">
<title>prebuild&#45;pulseaudio&#45;&gt;prebuild&#45;soxr</title>
<path fill="none" stroke="green" d="M458.64,-259.5C415.72,-247.81 355.51,-231.41 311.68,-219.47"/>
<polygon fill="green" stroke="green" points="312.59,-216.09 302.03,-216.84 310.75,-222.84 312.59,-216.09"/>
</g>
<!-- prebuild&#45;webrtc&#45;audio&#45;processing -->
<g id="node9" class="node">
<title>prebuild&#45;webrtc&#45;audio&#45;processing</title>
<ellipse fill="none" stroke="black" cx="511.89" cy="-203" rx="166.27" ry="18"/>
<text text-anchor="middle" x="511.89" y="-199.3" font-family="Times,serif" font-size="14.00">prebuild&#45;webrtc&#45;audio&#45;processing</text>
</g>
<!-- prebuild&#45;pulseaudio&#45;&gt;prebuild&#45;webrtc&#45;audio&#45;processing -->
<g id="edge9" class="edge">
<title>prebuild&#45;pulseaudio&#45;&gt;prebuild&#45;webrtc&#45;audio&#45;processing</title>
<path fill="none" stroke="green" d="M511.89,-256.7C511.89,-248.98 511.89,-239.71 511.89,-231.11"/>
<polygon fill="green" stroke="green" points="515.39,-231.1 511.89,-221.1 508.39,-231.1 515.39,-231.1"/>
</g>
<!-- prebuild&#45;libsamplerate&#45;&gt;board -->
<g id="edge10" class="edge">
<title>prebuild&#45;libsamplerate&#45;&gt;board</title>
<path fill="none" stroke="green" d="M812.3,-259.15C793.25,-251.11 773.97,-239 762.89,-221 754.51,-207.37 753.77,-198.14 762.89,-185 784.08,-154.47 825.1,-141.5 857.63,-136"/>
<polygon fill="green" stroke="green" points="858.49,-139.41 867.86,-134.46 857.45,-132.49 858.49,-139.41"/>
</g>
<!-- prebuild&#45;libsndfile -->
<g id="node10" class="node">
<title>prebuild&#45;libsndfile</title>
<ellipse fill="none" stroke="black" cx="867.89" cy="-203" rx="95.58" ry="18"/>
<text text-anchor="middle" x="867.89" y="-199.3" font-family="Times,serif" font-size="14.00">prebuild&#45;libsndfile</text>
</g>
<!-- prebuild&#45;libsamplerate&#45;&gt;prebuild&#45;libsndfile -->
<g id="edge11" class="edge">
<title>prebuild&#45;libsamplerate&#45;&gt;prebuild&#45;libsndfile</title>
<path fill="none" stroke="green" d="M867.89,-256.7C867.89,-248.98 867.89,-239.71 867.89,-231.11"/>
<polygon fill="green" stroke="green" points="871.39,-231.1 867.89,-221.1 864.39,-231.1 871.39,-231.1"/>
</g>
<!-- prebuild&#45;speex&#45;&gt;prebuild&#45;alsa&#45;lib -->
<g id="edge13" class="edge">
<title>prebuild&#45;speex&#45;&gt;prebuild&#45;alsa&#45;lib</title>
<path fill="none" stroke="green" d="M1140.14,-257.41C1127.47,-248.17 1111.51,-236.54 1097.73,-226.49"/>
<polygon fill="green" stroke="green" points="1099.62,-223.53 1089.48,-220.47 1095.5,-229.19 1099.62,-223.53"/>
</g>
<!-- prebuild&#45;speex&#45;&gt;board -->
<g id="edge12" class="edge">
<title>prebuild&#45;speex&#45;&gt;board</title>
<path fill="none" stroke="green" d="M1168.47,-256.78C1173.67,-237.1 1178.4,-205.03 1161.89,-185 1135.8,-153.34 1019.2,-139.99 952.37,-134.86"/>
<polygon fill="green" stroke="green" points="952.33,-131.35 942.1,-134.11 951.81,-138.33 952.33,-131.35"/>
</g>
<!-- prebuild&#45;libogg -->
<g id="node11" class="node">
<title>prebuild&#45;libogg</title>
<ellipse fill="none" stroke="black" cx="1289.89" cy="-203" rx="81.49" ry="18"/>
<text text-anchor="middle" x="1289.89" y="-199.3" font-family="Times,serif" font-size="14.00">prebuild&#45;libogg</text>
</g>
<!-- prebuild&#45;speex&#45;&gt;prebuild&#45;libogg -->
<g id="edge14" class="edge">
<title>prebuild&#45;speex&#45;&gt;prebuild&#45;libogg</title>
<path fill="none" stroke="green" d="M1191.71,-258.12C1209.53,-248.3 1232.6,-235.58 1251.9,-224.94"/>
<polygon fill="green" stroke="green" points="1253.68,-227.96 1260.75,-220.06 1250.3,-221.83 1253.68,-227.96"/>
</g>
</g>
</svg>
