<?xml version="1.0" encoding="UTF-8" standalone="no"?>
<!DOCTYPE svg PUBLIC "-//W3C//DTD SVG 1.1//EN"
 "http://www.w3.org/Graphics/SVG/1.1/DTD/svg11.dtd">
<!-- Generated by graphviz version 2.43.0 (0)
 -->
<!-- Title: depends Pages: 1 -->
<svg width="508pt" height="385pt"
 viewBox="0.00 0.00 507.64 385.00" xmlns="http://www.w3.org/2000/svg" xmlns:xlink="http://www.w3.org/1999/xlink">
<g id="graph0" class="graph" transform="scale(1 1) rotate(0) translate(4 381)">
<title>depends</title>
<polygon fill="white" stroke="transparent" points="-4,4 -4,-381 503.64,-381 503.64,4 -4,4"/>
<text text-anchor="middle" x="249.82" y="-37.8" font-family="Times,serif" font-size="14.00">red box: user package, unselected in .config</text>
<text text-anchor="middle" x="249.82" y="-22.8" font-family="Times,serif" font-size="14.00">green box: user package, selected in .config</text>
<text text-anchor="middle" x="249.82" y="-7.8" font-family="Times,serif" font-size="14.00">blue box: community package</text>
<!-- libimgflow -->
<g id="node1" class="node">
<title>libimgflow</title>
<ellipse fill="none" stroke="green" cx="265.1" cy="-359" rx="59.59" ry="18"/>
<text text-anchor="middle" x="265.1" y="-355.3" font-family="Times,serif" font-size="14.00">libimgflow</text>
</g>
<!-- ambvideo&#45;header -->
<g id="node2" class="node">
<title>ambvideo&#45;header</title>
<ellipse fill="none" stroke="green" cx="181.1" cy="-215" rx="90.98" ry="18"/>
<text text-anchor="middle" x="181.1" y="-211.3" font-family="Times,serif" font-size="14.00">ambvideo&#45;header</text>
</g>
<!-- libimgflow&#45;&gt;ambvideo&#45;header -->
<g id="edge5" class="edge">
<title>libimgflow&#45;&gt;ambvideo&#45;header</title>
<path fill="none" stroke="black" d="M236.68,-343.06C222.24,-333.99 205.75,-321.05 196.1,-305 184.89,-286.37 181.43,-261.78 180.6,-243.18"/>
<polygon fill="black" stroke="black" points="184.1,-242.92 180.38,-233 177.1,-243.07 184.1,-242.92"/>
</g>
<!-- libimgalgo -->
<g id="node6" class="node">
<title>libimgalgo</title>
<ellipse fill="none" stroke="green" cx="265.1" cy="-287" rx="59.59" ry="18"/>
<text text-anchor="middle" x="265.1" y="-283.3" font-family="Times,serif" font-size="14.00">libimgalgo</text>
</g>
<!-- libimgflow&#45;&gt;libimgalgo -->
<g id="edge6" class="edge">
<title>libimgflow&#45;&gt;libimgalgo</title>
<path fill="none" stroke="black" d="M265.1,-340.7C265.1,-332.98 265.1,-323.71 265.1,-315.11"/>
<polygon fill="black" stroke="black" points="268.6,-315.1 265.1,-305.1 261.6,-315.1 268.6,-315.1"/>
</g>
<!-- lua -->
<g id="node7" class="node">
<title>lua</title>
<ellipse fill="none" stroke="blue" cx="370.1" cy="-287" rx="27" ry="18"/>
<text text-anchor="middle" x="370.1" y="-283.3" font-family="Times,serif" font-size="14.00">lua</text>
</g>
<!-- libimgflow&#45;&gt;lua -->
<g id="edge7" class="edge">
<title>libimgflow&#45;&gt;lua</title>
<path fill="none" stroke="black" d="M288.66,-342.29C304.83,-331.51 326.32,-317.18 343.16,-305.95"/>
<polygon fill="black" stroke="black" points="345.12,-308.86 351.5,-300.4 341.23,-303.03 345.12,-308.86"/>
</g>
<!-- board -->
<g id="node3" class="node">
<title>board</title>
<ellipse fill="none" stroke="green" cx="48.1" cy="-143" rx="37.89" ry="18"/>
<text text-anchor="middle" x="48.1" y="-139.3" font-family="Times,serif" font-size="14.00">board</text>
</g>
<!-- ambvideo&#45;header&#45;&gt;board -->
<g id="edge1" class="edge">
<title>ambvideo&#45;header&#45;&gt;board</title>
<path fill="none" stroke="black" d="M150.58,-197.94C130.01,-187.11 102.85,-172.82 81.66,-161.67"/>
<polygon fill="black" stroke="black" points="83.17,-158.51 72.69,-156.94 79.91,-164.7 83.17,-158.51"/>
</g>
<!-- generic&#45;header -->
<g id="node4" class="node">
<title>generic&#45;header</title>
<ellipse fill="none" stroke="green" cx="184.1" cy="-143" rx="80.69" ry="18"/>
<text text-anchor="middle" x="184.1" y="-139.3" font-family="Times,serif" font-size="14.00">generic&#45;header</text>
</g>
<!-- ambvideo&#45;header&#45;&gt;generic&#45;header -->
<g id="edge2" class="edge">
<title>ambvideo&#45;header&#45;&gt;generic&#45;header</title>
<path fill="none" stroke="black" d="M181.84,-196.7C182.17,-188.98 182.57,-179.71 182.93,-171.11"/>
<polygon fill="black" stroke="black" points="186.43,-171.25 183.36,-161.1 179.44,-170.95 186.43,-171.25"/>
</g>
<!-- ammem -->
<g id="node5" class="node">
<title>ammem</title>
<ellipse fill="none" stroke="green" cx="48.1" cy="-71" rx="48.19" ry="18"/>
<text text-anchor="middle" x="48.1" y="-67.3" font-family="Times,serif" font-size="14.00">ammem</text>
</g>
<!-- board&#45;&gt;ammem -->
<g id="edge3" class="edge">
<title>board&#45;&gt;ammem</title>
<path fill="none" stroke="black" d="M48.1,-124.7C48.1,-116.98 48.1,-107.71 48.1,-99.11"/>
<polygon fill="black" stroke="black" points="51.6,-99.1 48.1,-89.1 44.6,-99.1 51.6,-99.1"/>
</g>
<!-- libimgalgo&#45;&gt;ambvideo&#45;header -->
<g id="edge4" class="edge">
<title>libimgalgo&#45;&gt;ambvideo&#45;header</title>
<path fill="none" stroke="black" d="M245.61,-269.76C234.74,-260.71 221.02,-249.27 209.03,-239.28"/>
<polygon fill="black" stroke="black" points="210.98,-236.35 201.06,-232.63 206.5,-241.72 210.98,-236.35"/>
</g>
<!-- readline -->
<g id="node8" class="node">
<title>readline</title>
<ellipse fill="none" stroke="blue" cx="370.1" cy="-215" rx="48.99" ry="18"/>
<text text-anchor="middle" x="370.1" y="-211.3" font-family="Times,serif" font-size="14.00">readline</text>
</g>
<!-- lua&#45;&gt;readline -->
<g id="edge8" class="edge">
<title>lua&#45;&gt;readline</title>
<path fill="none" stroke="black" d="M370.1,-268.7C370.1,-260.98 370.1,-251.71 370.1,-243.11"/>
<polygon fill="black" stroke="black" points="373.6,-243.1 370.1,-233.1 366.6,-243.1 373.6,-243.1"/>
</g>
<!-- ncurses -->
<g id="node9" class="node">
<title>ncurses</title>
<ellipse fill="none" stroke="blue" cx="370.1" cy="-143" rx="46.59" ry="18"/>
<text text-anchor="middle" x="370.1" y="-139.3" font-family="Times,serif" font-size="14.00">ncurses</text>
</g>
<!-- readline&#45;&gt;ncurses -->
<g id="edge12" class="edge">
<title>readline&#45;&gt;ncurses</title>
<path fill="none" stroke="black" d="M370.1,-196.7C370.1,-188.98 370.1,-179.71 370.1,-171.11"/>
<polygon fill="black" stroke="black" points="373.6,-171.1 370.1,-161.1 366.6,-171.1 373.6,-171.1"/>
</g>
<!-- libtool&#45;cross -->
<g id="node10" class="node">
<title>libtool&#45;cross</title>
<ellipse fill="none" stroke="blue" cx="297.1" cy="-71" rx="67.69" ry="18"/>
<text text-anchor="middle" x="297.1" y="-67.3" font-family="Times,serif" font-size="14.00">libtool&#45;cross</text>
</g>
<!-- readline&#45;&gt;libtool&#45;cross -->
<g id="edge11" class="edge">
<title>readline&#45;&gt;libtool&#45;cross</title>
<path fill="none" stroke="black" d="M348.27,-198.77C336.32,-189.28 322.32,-176.03 314.1,-161 303.68,-141.97 299.55,-117.61 297.96,-99.19"/>
<polygon fill="black" stroke="black" points="301.45,-98.86 297.29,-89.11 294.46,-99.32 301.45,-98.86"/>
</g>
<!-- opkg&#45;utils -->
<g id="node11" class="node">
<title>opkg&#45;utils</title>
<ellipse fill="none" stroke="blue" cx="443.1" cy="-71" rx="56.59" ry="18"/>
<text text-anchor="middle" x="443.1" y="-67.3" font-family="Times,serif" font-size="14.00">opkg&#45;utils</text>
</g>
<!-- readline&#45;&gt;opkg&#45;utils -->
<g id="edge13" class="edge">
<title>readline&#45;&gt;opkg&#45;utils</title>
<path fill="none" stroke="black" d="M391.93,-198.77C403.87,-189.28 417.87,-176.03 426.1,-161 436.51,-141.97 440.64,-117.61 442.23,-99.19"/>
<polygon fill="black" stroke="black" points="445.73,-99.32 442.9,-89.11 438.75,-98.86 445.73,-99.32"/>
</g>
<!-- ncurses&#45;&gt;libtool&#45;cross -->
<g id="edge9" class="edge">
<title>ncurses&#45;&gt;libtool&#45;cross</title>
<path fill="none" stroke="black" d="M353.53,-126.12C344.12,-117.09 332.16,-105.62 321.67,-95.57"/>
<polygon fill="black" stroke="black" points="324,-92.95 314.36,-88.55 319.15,-98 324,-92.95"/>
</g>
<!-- ncurses&#45;&gt;opkg&#45;utils -->
<g id="edge10" class="edge">
<title>ncurses&#45;&gt;opkg&#45;utils</title>
<path fill="none" stroke="black" d="M386.66,-126.12C396.14,-117.03 408.2,-105.46 418.74,-95.35"/>
<polygon fill="black" stroke="black" points="421.29,-97.75 426.09,-88.31 416.45,-92.7 421.29,-97.75"/>
</g>
</g>
</svg>
