<?xml version="1.0" encoding="UTF-8" standalone="no"?>
<!DOCTYPE svg PUBLIC "-//W3C//DTD SVG 1.1//EN"
 "http://www.w3.org/Graphics/SVG/1.1/DTD/svg11.dtd">
<!-- Generated by graphviz version 2.43.0 (0)
 -->
<!-- Title: depends Pages: 1 -->
<svg width="987pt" height="457pt"
 viewBox="0.00 0.00 986.63 457.00" xmlns="http://www.w3.org/2000/svg" xmlns:xlink="http://www.w3.org/1999/xlink">
<g id="graph0" class="graph" transform="scale(1 1) rotate(0) translate(4 453)">
<title>depends</title>
<polygon fill="white" stroke="transparent" points="-4,4 -4,-453 982.63,-453 982.63,4 -4,4"/>
<text text-anchor="middle" x="489.32" y="-37.8" font-family="Times,serif" font-size="14.00">red box: user package, unselected in .config</text>
<text text-anchor="middle" x="489.32" y="-22.8" font-family="Times,serif" font-size="14.00">green box: user package, selected in .config</text>
<text text-anchor="middle" x="489.32" y="-7.8" font-family="Times,serif" font-size="14.00">blue box: community package</text>
<!-- kernel&#45;module&#45;imx274&#45;mipi&#45;brg -->
<g id="node1" class="node">
<title>kernel&#45;module&#45;imx274&#45;mipi&#45;brg</title>
<ellipse fill="none" stroke="green" cx="179.49" cy="-431" rx="157.07" ry="18"/>
<text text-anchor="middle" x="179.49" y="-427.3" font-family="Times,serif" font-size="14.00">kernel&#45;module&#45;imx274&#45;mipi&#45;brg</text>
</g>
<!-- kernel&#45;module&#45;ambrg -->
<g id="node6" class="node">
<title>kernel&#45;module&#45;ambrg</title>
<ellipse fill="none" stroke="green" cx="110.49" cy="-359" rx="110.48" ry="18"/>
<text text-anchor="middle" x="110.49" y="-355.3" font-family="Times,serif" font-size="14.00">kernel&#45;module&#45;ambrg</text>
</g>
<!-- kernel&#45;module&#45;imx274&#45;mipi&#45;brg&#45;&gt;kernel&#45;module&#45;ambrg -->
<g id="edge8" class="edge">
<title>kernel&#45;module&#45;imx274&#45;mipi&#45;brg&#45;&gt;kernel&#45;module&#45;ambrg</title>
<path fill="none" stroke="black" d="M162.79,-413.05C154.35,-404.5 143.96,-393.96 134.67,-384.54"/>
<polygon fill="black" stroke="black" points="137.03,-381.94 127.52,-377.28 132.05,-386.85 137.03,-381.94"/>
</g>
<!-- kernel&#45;module&#45;ambvideo -->
<g id="node7" class="node">
<title>kernel&#45;module&#45;ambvideo</title>
<ellipse fill="none" stroke="green" cx="179.49" cy="-287" rx="124.58" ry="18"/>
<text text-anchor="middle" x="179.49" y="-283.3" font-family="Times,serif" font-size="14.00">kernel&#45;module&#45;ambvideo</text>
</g>
<!-- kernel&#45;module&#45;imx274&#45;mipi&#45;brg&#45;&gt;kernel&#45;module&#45;ambvideo -->
<g id="edge9" class="edge">
<title>kernel&#45;module&#45;imx274&#45;mipi&#45;brg&#45;&gt;kernel&#45;module&#45;ambvideo</title>
<path fill="none" stroke="black" d="M202.09,-412.96C212.55,-403.63 223.89,-391.11 229.49,-377 235.4,-362.13 235.4,-355.87 229.49,-341 225.16,-330.11 217.42,-320.16 209.3,-311.9"/>
<polygon fill="black" stroke="black" points="211.49,-309.15 201.82,-304.8 206.67,-314.23 211.49,-309.15"/>
</g>
<!-- ambvideo&#45;header -->
<g id="node2" class="node">
<title>ambvideo&#45;header</title>
<ellipse fill="none" stroke="green" cx="179.49" cy="-215" rx="90.98" ry="18"/>
<text text-anchor="middle" x="179.49" y="-211.3" font-family="Times,serif" font-size="14.00">ambvideo&#45;header</text>
</g>
<!-- board -->
<g id="node3" class="node">
<title>board</title>
<ellipse fill="none" stroke="green" cx="60.49" cy="-143" rx="37.89" ry="18"/>
<text text-anchor="middle" x="60.49" y="-139.3" font-family="Times,serif" font-size="14.00">board</text>
</g>
<!-- ambvideo&#45;header&#45;&gt;board -->
<g id="edge1" class="edge">
<title>ambvideo&#45;header&#45;&gt;board</title>
<path fill="none" stroke="black" d="M151.89,-197.76C134.07,-187.28 110.83,-173.61 92.25,-162.68"/>
<polygon fill="black" stroke="black" points="93.93,-159.61 83.54,-157.56 90.39,-165.65 93.93,-159.61"/>
</g>
<!-- generic&#45;header -->
<g id="node4" class="node">
<title>generic&#45;header</title>
<ellipse fill="none" stroke="green" cx="196.49" cy="-143" rx="80.69" ry="18"/>
<text text-anchor="middle" x="196.49" y="-139.3" font-family="Times,serif" font-size="14.00">generic&#45;header</text>
</g>
<!-- ambvideo&#45;header&#45;&gt;generic&#45;header -->
<g id="edge2" class="edge">
<title>ambvideo&#45;header&#45;&gt;generic&#45;header</title>
<path fill="none" stroke="black" d="M183.69,-196.7C185.59,-188.9 187.87,-179.51 189.97,-170.83"/>
<polygon fill="black" stroke="black" points="193.38,-171.65 192.34,-161.1 186.58,-170 193.38,-171.65"/>
</g>
<!-- ammem -->
<g id="node5" class="node">
<title>ammem</title>
<ellipse fill="none" stroke="green" cx="60.49" cy="-71" rx="48.19" ry="18"/>
<text text-anchor="middle" x="60.49" y="-67.3" font-family="Times,serif" font-size="14.00">ammem</text>
</g>
<!-- board&#45;&gt;ammem -->
<g id="edge3" class="edge">
<title>board&#45;&gt;ammem</title>
<path fill="none" stroke="black" d="M60.49,-124.7C60.49,-116.98 60.49,-107.71 60.49,-99.11"/>
<polygon fill="black" stroke="black" points="63.99,-99.1 60.49,-89.1 56.99,-99.1 63.99,-99.1"/>
</g>
<!-- kernel&#45;module&#45;ambrg&#45;&gt;kernel&#45;module&#45;ambvideo -->
<g id="edge4" class="edge">
<title>kernel&#45;module&#45;ambrg&#45;&gt;kernel&#45;module&#45;ambvideo</title>
<path fill="none" stroke="black" d="M127.19,-341.05C135.63,-332.5 146.02,-321.96 155.31,-312.54"/>
<polygon fill="black" stroke="black" points="157.93,-314.85 162.46,-305.28 152.95,-309.94 157.93,-314.85"/>
</g>
<!-- kernel&#45;module&#45;ambvideo&#45;&gt;ambvideo&#45;header -->
<g id="edge5" class="edge">
<title>kernel&#45;module&#45;ambvideo&#45;&gt;ambvideo&#45;header</title>
<path fill="none" stroke="black" d="M179.49,-268.7C179.49,-260.98 179.49,-251.71 179.49,-243.11"/>
<polygon fill="black" stroke="black" points="182.99,-243.1 179.49,-233.1 175.99,-243.1 182.99,-243.1"/>
</g>
<!-- kernel&#45;module&#45;ambvideo&#45;&gt;board -->
<g id="edge6" class="edge">
<title>kernel&#45;module&#45;ambvideo&#45;&gt;board</title>
<path fill="none" stroke="black" d="M130.69,-270.32C112.08,-262.01 92.28,-249.93 79.49,-233 66.13,-215.32 61.71,-190.3 60.44,-171.29"/>
<polygon fill="black" stroke="black" points="63.93,-171 60.02,-161.16 56.94,-171.29 63.93,-171"/>
</g>
<!-- firmware&#45;ucode -->
<g id="node8" class="node">
<title>firmware&#45;ucode</title>
<ellipse fill="none" stroke="green" cx="371.49" cy="-215" rx="83.39" ry="18"/>
<text text-anchor="middle" x="371.49" y="-211.3" font-family="Times,serif" font-size="14.00">firmware&#45;ucode</text>
</g>
<!-- kernel&#45;module&#45;ambvideo&#45;&gt;firmware&#45;ucode -->
<g id="edge7" class="edge">
<title>kernel&#45;module&#45;ambvideo&#45;&gt;firmware&#45;ucode</title>
<path fill="none" stroke="black" d="M223.06,-270.12C252.31,-259.45 290.93,-245.37 321.44,-234.25"/>
<polygon fill="black" stroke="black" points="322.85,-237.46 331.04,-230.75 320.45,-230.88 322.85,-237.46"/>
</g>
<!-- linux&#45;ambarella -->
<g id="node9" class="node">
<title>linux&#45;ambarella</title>
<ellipse fill="none" stroke="blue" cx="643.49" cy="-431" rx="82.59" ry="18"/>
<text text-anchor="middle" x="643.49" y="-427.3" font-family="Times,serif" font-size="14.00">linux&#45;ambarella</text>
</g>
<!-- binutils&#45;cross&#45;aarch64 -->
<g id="node10" class="node">
<title>binutils&#45;cross&#45;aarch64</title>
<ellipse fill="none" stroke="blue" cx="390.49" cy="-359" rx="113.98" ry="18"/>
<text text-anchor="middle" x="390.49" y="-355.3" font-family="Times,serif" font-size="14.00">binutils&#45;cross&#45;aarch64</text>
</g>
<!-- linux&#45;ambarella&#45;&gt;binutils&#45;cross&#45;aarch64 -->
<g id="edge10" class="edge">
<title>linux&#45;ambarella&#45;&gt;binutils&#45;cross&#45;aarch64</title>
<path fill="none" stroke="black" d="M594.41,-416.42C554.41,-405.35 497.64,-389.65 454.16,-377.61"/>
<polygon fill="black" stroke="black" points="454.82,-374.17 444.25,-374.87 452.95,-380.91 454.82,-374.17"/>
</g>
<!-- linux&#45;unpatch&#45;rmem&#45;dio -->
<g id="node11" class="node">
<title>linux&#45;unpatch&#45;rmem&#45;dio</title>
<ellipse fill="none" stroke="blue" cx="643.49" cy="-359" rx="120.78" ry="18"/>
<text text-anchor="middle" x="643.49" y="-355.3" font-family="Times,serif" font-size="14.00">linux&#45;unpatch&#45;rmem&#45;dio</text>
</g>
<!-- linux&#45;ambarella&#45;&gt;linux&#45;unpatch&#45;rmem&#45;dio -->
<g id="edge11" class="edge">
<title>linux&#45;ambarella&#45;&gt;linux&#45;unpatch&#45;rmem&#45;dio</title>
<path fill="none" stroke="black" d="M643.49,-412.7C643.49,-404.98 643.49,-395.71 643.49,-387.11"/>
<polygon fill="black" stroke="black" points="646.99,-387.1 643.49,-377.1 639.99,-387.1 646.99,-387.1"/>
</g>
<!-- linux&#45;unpatch&#45;uvac -->
<g id="node12" class="node">
<title>linux&#45;unpatch&#45;uvac</title>
<ellipse fill="none" stroke="blue" cx="880.49" cy="-359" rx="98.28" ry="18"/>
<text text-anchor="middle" x="880.49" y="-355.3" font-family="Times,serif" font-size="14.00">linux&#45;unpatch&#45;uvac</text>
</g>
<!-- linux&#45;ambarella&#45;&gt;linux&#45;unpatch&#45;uvac -->
<g id="edge12" class="edge">
<title>linux&#45;ambarella&#45;&gt;linux&#45;unpatch&#45;uvac</title>
<path fill="none" stroke="black" d="M690.31,-416.17C727.83,-405.09 780.69,-389.48 821.16,-377.52"/>
<polygon fill="black" stroke="black" points="822.31,-380.83 830.9,-374.65 820.32,-374.12 822.31,-380.83"/>
</g>
</g>
</svg>
