<?xml version="1.0" encoding="UTF-8" standalone="no"?>
<!DOCTYPE svg PUBLIC "-//W3C//DTD SVG 1.1//EN"
 "http://www.w3.org/Graphics/SVG/1.1/DTD/svg11.dtd">
<!-- Generated by graphviz version 2.43.0 (0)
 -->
<!-- Title: depends Pages: 1 -->
<svg width="1124pt" height="241pt"
 viewBox="0.00 0.00 1123.58 241.00" xmlns="http://www.w3.org/2000/svg" xmlns:xlink="http://www.w3.org/1999/xlink">
<g id="graph0" class="graph" transform="scale(1 1) rotate(0) translate(4 237)">
<title>depends</title>
<polygon fill="white" stroke="transparent" points="-4,4 -4,-237 1119.58,-237 1119.58,4 -4,4"/>
<text text-anchor="middle" x="557.79" y="-37.8" font-family="Times,serif" font-size="14.00">red box: user package, unselected in .config</text>
<text text-anchor="middle" x="557.79" y="-22.8" font-family="Times,serif" font-size="14.00">green box: user package, selected in .config</text>
<text text-anchor="middle" x="557.79" y="-7.8" font-family="Times,serif" font-size="14.00">blue box: community package</text>
<!-- kernel&#45;module&#45;ambcavalry -->
<g id="node1" class="node">
<title>kernel&#45;module&#45;ambcavalry</title>
<ellipse fill="none" stroke="green" cx="203.44" cy="-215" rx="133.78" ry="18"/>
<text text-anchor="middle" x="203.44" y="-211.3" font-family="Times,serif" font-size="14.00">kernel&#45;module&#45;ambcavalry</text>
</g>
<!-- ambcavalry&#45;header -->
<g id="node2" class="node">
<title>ambcavalry&#45;header</title>
<ellipse fill="none" stroke="green" cx="99.44" cy="-143" rx="99.38" ry="18"/>
<text text-anchor="middle" x="99.44" y="-139.3" font-family="Times,serif" font-size="14.00">ambcavalry&#45;header</text>
</g>
<!-- kernel&#45;module&#45;ambcavalry&#45;&gt;ambcavalry&#45;header -->
<g id="edge2" class="edge">
<title>kernel&#45;module&#45;ambcavalry&#45;&gt;ambcavalry&#45;header</title>
<path fill="none" stroke="black" d="M178.53,-197.23C164.77,-187.97 147.49,-176.34 132.6,-166.32"/>
<polygon fill="black" stroke="black" points="134.4,-163.31 124.15,-160.63 130.49,-169.12 134.4,-163.31"/>
</g>
<!-- firmware&#45;cavalry -->
<g id="node4" class="node">
<title>firmware&#45;cavalry</title>
<ellipse fill="none" stroke="green" cx="306.44" cy="-143" rx="89.88" ry="18"/>
<text text-anchor="middle" x="306.44" y="-139.3" font-family="Times,serif" font-size="14.00">firmware&#45;cavalry</text>
</g>
<!-- kernel&#45;module&#45;ambcavalry&#45;&gt;firmware&#45;cavalry -->
<g id="edge3" class="edge">
<title>kernel&#45;module&#45;ambcavalry&#45;&gt;firmware&#45;cavalry</title>
<path fill="none" stroke="black" d="M228.11,-197.23C241.84,-187.9 259.11,-176.17 273.93,-166.1"/>
<polygon fill="black" stroke="black" points="276.02,-168.9 282.33,-160.39 272.09,-163.11 276.02,-168.9"/>
</g>
<!-- generic&#45;header -->
<g id="node3" class="node">
<title>generic&#45;header</title>
<ellipse fill="none" stroke="green" cx="99.44" cy="-71" rx="80.69" ry="18"/>
<text text-anchor="middle" x="99.44" y="-67.3" font-family="Times,serif" font-size="14.00">generic&#45;header</text>
</g>
<!-- ambcavalry&#45;header&#45;&gt;generic&#45;header -->
<g id="edge1" class="edge">
<title>ambcavalry&#45;header&#45;&gt;generic&#45;header</title>
<path fill="none" stroke="black" d="M99.44,-124.7C99.44,-116.98 99.44,-107.71 99.44,-99.11"/>
<polygon fill="black" stroke="black" points="102.94,-99.1 99.44,-89.1 95.94,-99.1 102.94,-99.1"/>
</g>
<!-- linux&#45;ambarella -->
<g id="node5" class="node">
<title>linux&#45;ambarella</title>
<ellipse fill="none" stroke="blue" cx="780.44" cy="-215" rx="82.59" ry="18"/>
<text text-anchor="middle" x="780.44" y="-211.3" font-family="Times,serif" font-size="14.00">linux&#45;ambarella</text>
</g>
<!-- binutils&#45;cross&#45;aarch64 -->
<g id="node6" class="node">
<title>binutils&#45;cross&#45;aarch64</title>
<ellipse fill="none" stroke="blue" cx="527.44" cy="-143" rx="113.98" ry="18"/>
<text text-anchor="middle" x="527.44" y="-139.3" font-family="Times,serif" font-size="14.00">binutils&#45;cross&#45;aarch64</text>
</g>
<!-- linux&#45;ambarella&#45;&gt;binutils&#45;cross&#45;aarch64 -->
<g id="edge4" class="edge">
<title>linux&#45;ambarella&#45;&gt;binutils&#45;cross&#45;aarch64</title>
<path fill="none" stroke="black" d="M731.36,-200.42C691.37,-189.35 634.6,-173.65 591.11,-161.61"/>
<polygon fill="black" stroke="black" points="591.77,-158.17 581.2,-158.87 589.9,-164.91 591.77,-158.17"/>
</g>
<!-- linux&#45;unpatch&#45;rmem&#45;dio -->
<g id="node7" class="node">
<title>linux&#45;unpatch&#45;rmem&#45;dio</title>
<ellipse fill="none" stroke="blue" cx="780.44" cy="-143" rx="120.78" ry="18"/>
<text text-anchor="middle" x="780.44" y="-139.3" font-family="Times,serif" font-size="14.00">linux&#45;unpatch&#45;rmem&#45;dio</text>
</g>
<!-- linux&#45;ambarella&#45;&gt;linux&#45;unpatch&#45;rmem&#45;dio -->
<g id="edge5" class="edge">
<title>linux&#45;ambarella&#45;&gt;linux&#45;unpatch&#45;rmem&#45;dio</title>
<path fill="none" stroke="black" d="M780.44,-196.7C780.44,-188.98 780.44,-179.71 780.44,-171.11"/>
<polygon fill="black" stroke="black" points="783.94,-171.1 780.44,-161.1 776.94,-171.1 783.94,-171.1"/>
</g>
<!-- linux&#45;unpatch&#45;uvac -->
<g id="node8" class="node">
<title>linux&#45;unpatch&#45;uvac</title>
<ellipse fill="none" stroke="blue" cx="1017.44" cy="-143" rx="98.28" ry="18"/>
<text text-anchor="middle" x="1017.44" y="-139.3" font-family="Times,serif" font-size="14.00">linux&#45;unpatch&#45;uvac</text>
</g>
<!-- linux&#45;ambarella&#45;&gt;linux&#45;unpatch&#45;uvac -->
<g id="edge6" class="edge">
<title>linux&#45;ambarella&#45;&gt;linux&#45;unpatch&#45;uvac</title>
<path fill="none" stroke="black" d="M827.26,-200.17C864.78,-189.09 917.64,-173.48 958.11,-161.52"/>
<polygon fill="black" stroke="black" points="959.26,-164.83 967.86,-158.65 957.27,-158.12 959.26,-164.83"/>
</g>
</g>
</svg>
