<?xml version="1.0" encoding="UTF-8" standalone="no"?>
<!DOCTYPE svg PUBLIC "-//W3C//DTD SVG 1.1//EN"
 "http://www.w3.org/Graphics/SVG/1.1/DTD/svg11.dtd">
<!-- Generated by graphviz version 2.43.0 (0)
 -->
<!-- Title: depends Pages: 1 -->
<svg width="339pt" height="313pt"
 viewBox="0.00 0.00 339.00 313.00" xmlns="http://www.w3.org/2000/svg" xmlns:xlink="http://www.w3.org/1999/xlink">
<g id="graph0" class="graph" transform="scale(1 1) rotate(0) translate(4 309)">
<title>depends</title>
<polygon fill="white" stroke="transparent" points="-4,4 -4,-309 335,-309 335,4 -4,4"/>
<text text-anchor="middle" x="165.5" y="-37.8" font-family="Times,serif" font-size="14.00">red box: user package, unselected in .config</text>
<text text-anchor="middle" x="165.5" y="-22.8" font-family="Times,serif" font-size="14.00">green box: user package, selected in .config</text>
<text text-anchor="middle" x="165.5" y="-7.8" font-family="Times,serif" font-size="14.00">blue box: community package</text>
<!-- libimgalgo -->
<g id="node1" class="node">
<title>libimgalgo</title>
<ellipse fill="none" stroke="green" cx="149.25" cy="-287" rx="59.59" ry="18"/>
<text text-anchor="middle" x="149.25" y="-283.3" font-family="Times,serif" font-size="14.00">libimgalgo</text>
</g>
<!-- ambvideo&#45;header -->
<g id="node2" class="node">
<title>ambvideo&#45;header</title>
<ellipse fill="none" stroke="green" cx="149.25" cy="-215" rx="90.98" ry="18"/>
<text text-anchor="middle" x="149.25" y="-211.3" font-family="Times,serif" font-size="14.00">ambvideo&#45;header</text>
</g>
<!-- libimgalgo&#45;&gt;ambvideo&#45;header -->
<g id="edge4" class="edge">
<title>libimgalgo&#45;&gt;ambvideo&#45;header</title>
<path fill="none" stroke="black" d="M149.25,-268.7C149.25,-260.98 149.25,-251.71 149.25,-243.11"/>
<polygon fill="black" stroke="black" points="152.75,-243.1 149.25,-233.1 145.75,-243.1 152.75,-243.1"/>
</g>
<!-- board -->
<g id="node3" class="node">
<title>board</title>
<ellipse fill="none" stroke="green" cx="81.25" cy="-143" rx="37.89" ry="18"/>
<text text-anchor="middle" x="81.25" y="-139.3" font-family="Times,serif" font-size="14.00">board</text>
</g>
<!-- ambvideo&#45;header&#45;&gt;board -->
<g id="edge1" class="edge">
<title>ambvideo&#45;header&#45;&gt;board</title>
<path fill="none" stroke="black" d="M132.79,-197.05C124.11,-188.12 113.32,-177.01 103.86,-167.28"/>
<polygon fill="black" stroke="black" points="106.11,-164.56 96.63,-159.83 101.09,-169.44 106.11,-164.56"/>
</g>
<!-- generic&#45;header -->
<g id="node4" class="node">
<title>generic&#45;header</title>
<ellipse fill="none" stroke="green" cx="217.25" cy="-143" rx="80.69" ry="18"/>
<text text-anchor="middle" x="217.25" y="-139.3" font-family="Times,serif" font-size="14.00">generic&#45;header</text>
</g>
<!-- ambvideo&#45;header&#45;&gt;generic&#45;header -->
<g id="edge2" class="edge">
<title>ambvideo&#45;header&#45;&gt;generic&#45;header</title>
<path fill="none" stroke="black" d="M165.71,-197.05C174.15,-188.37 184.57,-177.64 193.83,-168.11"/>
<polygon fill="black" stroke="black" points="196.48,-170.4 200.94,-160.79 191.46,-165.52 196.48,-170.4"/>
</g>
<!-- ammem -->
<g id="node5" class="node">
<title>ammem</title>
<ellipse fill="none" stroke="green" cx="81.25" cy="-71" rx="48.19" ry="18"/>
<text text-anchor="middle" x="81.25" y="-67.3" font-family="Times,serif" font-size="14.00">ammem</text>
</g>
<!-- board&#45;&gt;ammem -->
<g id="edge3" class="edge">
<title>board&#45;&gt;ammem</title>
<path fill="none" stroke="black" d="M81.25,-124.7C81.25,-116.98 81.25,-107.71 81.25,-99.11"/>
<polygon fill="black" stroke="black" points="84.75,-99.1 81.25,-89.1 77.75,-99.1 84.75,-99.1"/>
</g>
</g>
</svg>
