<?xml version="1.0" encoding="UTF-8" standalone="no"?>
<!DOCTYPE svg PUBLIC "-//W3C//DTD SVG 1.1//EN"
 "http://www.w3.org/Graphics/SVG/1.1/DTD/svg11.dtd">
<!-- Generated by graphviz version 2.43.0 (0)
 -->
<!-- Title: depends Pages: 1 -->
<svg width="1020pt" height="385pt"
 viewBox="0.00 0.00 1020.24 385.00" xmlns="http://www.w3.org/2000/svg" xmlns:xlink="http://www.w3.org/1999/xlink">
<g id="graph0" class="graph" transform="scale(1 1) rotate(0) translate(4 381)">
<title>depends</title>
<polygon fill="white" stroke="transparent" points="-4,4 -4,-381 1016.24,-381 1016.24,4 -4,4"/>
<text text-anchor="middle" x="506.12" y="-37.8" font-family="Times,serif" font-size="14.00">red box: user package, unselected in .config</text>
<text text-anchor="middle" x="506.12" y="-22.8" font-family="Times,serif" font-size="14.00">green box: user package, selected in .config</text>
<text text-anchor="middle" x="506.12" y="-7.8" font-family="Times,serif" font-size="14.00">blue box: community package</text>
<!-- kernel&#45;module&#45;imx274 -->
<g id="node1" class="node">
<title>kernel&#45;module&#45;imx274</title>
<ellipse fill="none" stroke="green" cx="167.1" cy="-359" rx="114.28" ry="18"/>
<text text-anchor="middle" x="167.1" y="-355.3" font-family="Times,serif" font-size="14.00">kernel&#45;module&#45;imx274</text>
</g>
<!-- kernel&#45;module&#45;ambvideo -->
<g id="node6" class="node">
<title>kernel&#45;module&#45;ambvideo</title>
<ellipse fill="none" stroke="green" cx="167.1" cy="-287" rx="124.58" ry="18"/>
<text text-anchor="middle" x="167.1" y="-283.3" font-family="Times,serif" font-size="14.00">kernel&#45;module&#45;ambvideo</text>
</g>
<!-- kernel&#45;module&#45;imx274&#45;&gt;kernel&#45;module&#45;ambvideo -->
<g id="edge7" class="edge">
<title>kernel&#45;module&#45;imx274&#45;&gt;kernel&#45;module&#45;ambvideo</title>
<path fill="none" stroke="black" d="M167.1,-340.7C167.1,-332.98 167.1,-323.71 167.1,-315.11"/>
<polygon fill="black" stroke="black" points="170.6,-315.1 167.1,-305.1 163.6,-315.1 170.6,-315.1"/>
</g>
<!-- ambvideo&#45;header -->
<g id="node2" class="node">
<title>ambvideo&#45;header</title>
<ellipse fill="none" stroke="green" cx="167.1" cy="-215" rx="90.98" ry="18"/>
<text text-anchor="middle" x="167.1" y="-211.3" font-family="Times,serif" font-size="14.00">ambvideo&#45;header</text>
</g>
<!-- board -->
<g id="node3" class="node">
<title>board</title>
<ellipse fill="none" stroke="green" cx="48.1" cy="-143" rx="37.89" ry="18"/>
<text text-anchor="middle" x="48.1" y="-139.3" font-family="Times,serif" font-size="14.00">board</text>
</g>
<!-- ambvideo&#45;header&#45;&gt;board -->
<g id="edge1" class="edge">
<title>ambvideo&#45;header&#45;&gt;board</title>
<path fill="none" stroke="black" d="M139.5,-197.76C121.68,-187.28 98.44,-173.61 79.85,-162.68"/>
<polygon fill="black" stroke="black" points="81.54,-159.61 71.15,-157.56 77.99,-165.65 81.54,-159.61"/>
</g>
<!-- generic&#45;header -->
<g id="node4" class="node">
<title>generic&#45;header</title>
<ellipse fill="none" stroke="green" cx="184.1" cy="-143" rx="80.69" ry="18"/>
<text text-anchor="middle" x="184.1" y="-139.3" font-family="Times,serif" font-size="14.00">generic&#45;header</text>
</g>
<!-- ambvideo&#45;header&#45;&gt;generic&#45;header -->
<g id="edge2" class="edge">
<title>ambvideo&#45;header&#45;&gt;generic&#45;header</title>
<path fill="none" stroke="black" d="M171.3,-196.7C173.19,-188.9 175.47,-179.51 177.58,-170.83"/>
<polygon fill="black" stroke="black" points="180.98,-171.65 179.94,-161.1 174.18,-170 180.98,-171.65"/>
</g>
<!-- ammem -->
<g id="node5" class="node">
<title>ammem</title>
<ellipse fill="none" stroke="green" cx="48.1" cy="-71" rx="48.19" ry="18"/>
<text text-anchor="middle" x="48.1" y="-67.3" font-family="Times,serif" font-size="14.00">ammem</text>
</g>
<!-- board&#45;&gt;ammem -->
<g id="edge3" class="edge">
<title>board&#45;&gt;ammem</title>
<path fill="none" stroke="black" d="M48.1,-124.7C48.1,-116.98 48.1,-107.71 48.1,-99.11"/>
<polygon fill="black" stroke="black" points="51.6,-99.1 48.1,-89.1 44.6,-99.1 51.6,-99.1"/>
</g>
<!-- kernel&#45;module&#45;ambvideo&#45;&gt;ambvideo&#45;header -->
<g id="edge4" class="edge">
<title>kernel&#45;module&#45;ambvideo&#45;&gt;ambvideo&#45;header</title>
<path fill="none" stroke="black" d="M167.1,-268.7C167.1,-260.98 167.1,-251.71 167.1,-243.11"/>
<polygon fill="black" stroke="black" points="170.6,-243.1 167.1,-233.1 163.6,-243.1 170.6,-243.1"/>
</g>
<!-- kernel&#45;module&#45;ambvideo&#45;&gt;board -->
<g id="edge5" class="edge">
<title>kernel&#45;module&#45;ambvideo&#45;&gt;board</title>
<path fill="none" stroke="black" d="M118.3,-270.32C99.68,-262.01 79.89,-249.93 67.1,-233 53.74,-215.32 49.32,-190.3 48.05,-171.29"/>
<polygon fill="black" stroke="black" points="51.54,-171 47.62,-161.16 44.54,-171.29 51.54,-171"/>
</g>
<!-- firmware&#45;ucode -->
<g id="node7" class="node">
<title>firmware&#45;ucode</title>
<ellipse fill="none" stroke="green" cx="359.1" cy="-215" rx="83.39" ry="18"/>
<text text-anchor="middle" x="359.1" y="-211.3" font-family="Times,serif" font-size="14.00">firmware&#45;ucode</text>
</g>
<!-- kernel&#45;module&#45;ambvideo&#45;&gt;firmware&#45;ucode -->
<g id="edge6" class="edge">
<title>kernel&#45;module&#45;ambvideo&#45;&gt;firmware&#45;ucode</title>
<path fill="none" stroke="black" d="M210.66,-270.12C239.92,-259.45 278.54,-245.37 309.05,-234.25"/>
<polygon fill="black" stroke="black" points="310.45,-237.46 318.65,-230.75 308.06,-230.88 310.45,-237.46"/>
</g>
<!-- linux&#45;ambarella -->
<g id="node8" class="node">
<title>linux&#45;ambarella</title>
<ellipse fill="none" stroke="blue" cx="677.1" cy="-359" rx="82.59" ry="18"/>
<text text-anchor="middle" x="677.1" y="-355.3" font-family="Times,serif" font-size="14.00">linux&#45;ambarella</text>
</g>
<!-- binutils&#45;cross&#45;aarch64 -->
<g id="node9" class="node">
<title>binutils&#45;cross&#45;aarch64</title>
<ellipse fill="none" stroke="blue" cx="424.1" cy="-287" rx="113.98" ry="18"/>
<text text-anchor="middle" x="424.1" y="-283.3" font-family="Times,serif" font-size="14.00">binutils&#45;cross&#45;aarch64</text>
</g>
<!-- linux&#45;ambarella&#45;&gt;binutils&#45;cross&#45;aarch64 -->
<g id="edge8" class="edge">
<title>linux&#45;ambarella&#45;&gt;binutils&#45;cross&#45;aarch64</title>
<path fill="none" stroke="black" d="M628.01,-344.42C588.02,-333.35 531.25,-317.65 487.76,-305.61"/>
<polygon fill="black" stroke="black" points="488.43,-302.17 477.85,-302.87 486.56,-308.91 488.43,-302.17"/>
</g>
<!-- linux&#45;unpatch&#45;rmem&#45;dio -->
<g id="node10" class="node">
<title>linux&#45;unpatch&#45;rmem&#45;dio</title>
<ellipse fill="none" stroke="blue" cx="677.1" cy="-287" rx="120.78" ry="18"/>
<text text-anchor="middle" x="677.1" y="-283.3" font-family="Times,serif" font-size="14.00">linux&#45;unpatch&#45;rmem&#45;dio</text>
</g>
<!-- linux&#45;ambarella&#45;&gt;linux&#45;unpatch&#45;rmem&#45;dio -->
<g id="edge9" class="edge">
<title>linux&#45;ambarella&#45;&gt;linux&#45;unpatch&#45;rmem&#45;dio</title>
<path fill="none" stroke="black" d="M677.1,-340.7C677.1,-332.98 677.1,-323.71 677.1,-315.11"/>
<polygon fill="black" stroke="black" points="680.6,-315.1 677.1,-305.1 673.6,-315.1 680.6,-315.1"/>
</g>
<!-- linux&#45;unpatch&#45;uvac -->
<g id="node11" class="node">
<title>linux&#45;unpatch&#45;uvac</title>
<ellipse fill="none" stroke="blue" cx="914.1" cy="-287" rx="98.28" ry="18"/>
<text text-anchor="middle" x="914.1" y="-283.3" font-family="Times,serif" font-size="14.00">linux&#45;unpatch&#45;uvac</text>
</g>
<!-- linux&#45;ambarella&#45;&gt;linux&#45;unpatch&#45;uvac -->
<g id="edge10" class="edge">
<title>linux&#45;ambarella&#45;&gt;linux&#45;unpatch&#45;uvac</title>
<path fill="none" stroke="black" d="M723.92,-344.17C761.43,-333.09 814.29,-317.48 854.77,-305.52"/>
<polygon fill="black" stroke="black" points="855.91,-308.83 864.51,-302.65 853.93,-302.12 855.91,-308.83"/>
</g>
</g>
</svg>
