<?xml version="1.0" encoding="UTF-8" standalone="no"?>
<!DOCTYPE svg PUBLIC "-//W3C//DTD SVG 1.1//EN"
 "http://www.w3.org/Graphics/SVG/1.1/DTD/svg11.dtd">
<!-- Generated by graphviz version 2.43.0 (0)
 -->
<!-- Title: Data Process Library API Pages: 1 -->
<svg width="297pt" height="86pt"
 viewBox="0.00 0.00 297.00 86.00" xmlns="http://www.w3.org/2000/svg" xmlns:xlink="http://www.w3.org/1999/xlink">
<g id="graph0" class="graph" transform="scale(1 1) rotate(0) translate(4 82)">
<title>Data Process Library API</title>
<!-- Node2 -->
<g id="node1" class="node">
<title>Node2</title>
<g id="a_node1"><a xlink:href="../../d3/dab/group__dproc-api.html" target="_top" xlink:title="Details of Dproc library API, in file lib_data_process.h.">
<polygon fill="none" stroke="black" points="289,-78 172,-78 172,-48 289,-48 289,-78"/>
<text text-anchor="start" x="180" y="-66" font-family="Helvetica,sans-Serif" font-size="10.00">Data Process Library</text>
<text text-anchor="middle" x="230.5" y="-55" font-family="Helvetica,sans-Serif" font-size="10.00"> API Details</text>
</a>
</g>
</g>
<!-- Node1 -->
<g id="node2" class="node">
<title>Node1</title>
<g id="a_node2"><a xlink:title="Related introductions of Dproc library.">
<polygon fill="#bfbfbf" stroke="black" points="136,-48.5 0,-48.5 0,-29.5 136,-29.5 136,-48.5"/>
<text text-anchor="middle" x="68" y="-36.5" font-family="Helvetica,sans-Serif" font-size="10.00">Data Process Library API</text>
</a>
</g>
</g>
<!-- Node1&#45;&gt;Node2 -->
<g id="edge1" class="edge">
<title>Node1&#45;&gt;Node2</title>
<path fill="none" stroke="black" d="M142.93,-50.05C152.62,-51.5 162.44,-52.97 171.8,-54.37"/>
<polygon fill="black" stroke="black" points="143.3,-46.57 132.9,-48.55 142.27,-53.49 143.3,-46.57"/>
</g>
<!-- Node3 -->
<g id="node3" class="node">
<title>Node3</title>
<g id="a_node3"><a xlink:href="../../df/d12/group__dproc-helper.html" target="_top" xlink:title="Dproc library API Helper: Struct, Enumeration and Macros, in file lib_data_process....">
<polygon fill="none" stroke="black" points="289,-30 172,-30 172,0 289,0 289,-30"/>
<text text-anchor="start" x="180" y="-18" font-family="Helvetica,sans-Serif" font-size="10.00">Data Process Library</text>
<text text-anchor="middle" x="230.5" y="-7" font-family="Helvetica,sans-Serif" font-size="10.00"> API Helper</text>
</a>
</g>
</g>
<!-- Node1&#45;&gt;Node3 -->
<g id="edge2" class="edge">
<title>Node1&#45;&gt;Node3</title>
<path fill="none" stroke="black" d="M142.93,-27.95C152.62,-26.5 162.44,-25.03 171.8,-23.63"/>
<polygon fill="black" stroke="black" points="142.27,-24.51 132.9,-29.45 143.3,-31.43 142.27,-24.51"/>
</g>
</g>
</svg>
