<?xml version="1.0" encoding="UTF-8" standalone="no"?>
<!DOCTYPE svg PUBLIC "-//W3C//DTD SVG 1.1//EN"
 "http://www.w3.org/Graphics/SVG/1.1/DTD/svg11.dtd">
<!-- Generated by graphviz version 2.43.0 (0)
 -->
<!-- Title: set_model_path Pages: 1 -->
<svg width="456pt" height="181pt"
 viewBox="0.00 0.00 456.00 181.00" xmlns="http://www.w3.org/2000/svg" xmlns:xlink="http://www.w3.org/1999/xlink">
<g id="graph0" class="graph" transform="scale(1 1) rotate(0) translate(4 177)">
<title>set_model_path</title>
<!-- Node1 -->
<g id="node1" class="node">
<title>Node1</title>
<g id="a_node1"><a xlink:title=" ">
<polygon fill="#bfbfbf" stroke="black" points="0,-74 0,-93 95,-93 95,-74 0,-74"/>
<text text-anchor="middle" x="47.5" y="-81" font-family="Helvetica,sans-Serif" font-size="10.00">set_model_path</text>
</a>
</g>
</g>
<!-- Node2 -->
<g id="node2" class="node">
<title>Node2</title>
<g id="a_node2"><a xlink:href="../../d9/d70/classcflite_1_1eazyaigen_1_1vas_1_1VAS.html#a522ae9450e1f23e6b25ce3e161cff155" target="_top" xlink:title=" ">
<polygon fill="none" stroke="black" points="141,-142.5 141,-172.5 296,-172.5 296,-142.5 141,-142.5"/>
<text text-anchor="start" x="149" y="-160.5" font-family="Helvetica,sans-Serif" font-size="10.00">cflite.eazyaigen.vas.VAS.set</text>
<text text-anchor="middle" x="218.5" y="-149.5" font-family="Helvetica,sans-Serif" font-size="10.00">_model_name</text>
</a>
</g>
</g>
<!-- Node1&#45;&gt;Node2 -->
<g id="edge1" class="edge">
<title>Node1&#45;&gt;Node2</title>
<path fill="none" stroke="midnightblue" d="M61.61,-93.01C77.39,-104.08 105.02,-122.28 131,-133.5 135.71,-135.53 140.63,-137.44 145.65,-139.22"/>
<polygon fill="midnightblue" stroke="midnightblue" points="144.76,-142.62 155.35,-142.49 146.99,-135.98 144.76,-142.62"/>
</g>
<!-- Node3 -->
<g id="node3" class="node">
<title>Node3</title>
<g id="a_node3"><a xlink:href="../../da/dcb/group__cflite-eazyaigen-layercompare.html#ga9ab6498bab84981e2333482d7d9e1cf0" target="_top" xlink:title=" ">
<polygon fill="none" stroke="black" points="131,-93.5 131,-123.5 306,-123.5 306,-93.5 131,-93.5"/>
<text text-anchor="start" x="139" y="-111.5" font-family="Helvetica,sans-Serif" font-size="10.00">cflite.eazyaigen.layercompare.</text>
<text text-anchor="middle" x="218.5" y="-100.5" font-family="Helvetica,sans-Serif" font-size="10.00">LayerCompare.set_model_name</text>
</a>
</g>
</g>
<!-- Node1&#45;&gt;Node3 -->
<g id="edge2" class="edge">
<title>Node1&#45;&gt;Node3</title>
<path fill="none" stroke="midnightblue" d="M95.13,-90.4C103.22,-91.59 111.9,-92.88 120.76,-94.19"/>
<polygon fill="midnightblue" stroke="midnightblue" points="120.41,-97.68 130.82,-95.68 121.44,-90.75 120.41,-97.68"/>
</g>
<!-- Node4 -->
<g id="node4" class="node">
<title>Node4</title>
<g id="a_node4"><a xlink:href="../../d8/d8d/group__cflite-eazyaigen-cavalry.html#ga522ae9450e1f23e6b25ce3e161cff155" target="_top" xlink:title=" ">
<polygon fill="none" stroke="black" points="138,-44.5 138,-74.5 299,-74.5 299,-44.5 138,-44.5"/>
<text text-anchor="start" x="146" y="-62.5" font-family="Helvetica,sans-Serif" font-size="10.00">cflite.eazyaigen.cavalrygen.</text>
<text text-anchor="middle" x="218.5" y="-51.5" font-family="Helvetica,sans-Serif" font-size="10.00">CavalryGen.set_model_name</text>
</a>
</g>
</g>
<!-- Node1&#45;&gt;Node4 -->
<g id="edge3" class="edge">
<title>Node1&#45;&gt;Node4</title>
<path fill="none" stroke="midnightblue" d="M95.13,-76.88C105.4,-75.42 116.62,-73.83 127.96,-72.22"/>
<polygon fill="midnightblue" stroke="midnightblue" points="128.53,-75.67 137.94,-70.8 127.55,-68.74 128.53,-75.67"/>
</g>
<!-- Node5 -->
<g id="node5" class="node">
<title>Node5</title>
<g id="a_node5"><a xlink:href="../../d8/d44/classcflite_1_1eazyaigen_1_1abstractobj_1_1eazyaiparserobject_1_1EazyaiParserObject.html#a9ab6498bab84981e2333482d7d9e1cf0" target="_top" xlink:title=" ">
<polygon fill="none" stroke="black" points="168,-6 168,-25 269,-25 269,-6 168,-6"/>
<text text-anchor="middle" x="218.5" y="-13" font-family="Helvetica,sans-Serif" font-size="10.00">set_model_name</text>
</a>
</g>
</g>
<!-- Node1&#45;&gt;Node5 -->
<g id="edge4" class="edge">
<title>Node1&#45;&gt;Node5</title>
<path fill="none" stroke="midnightblue" d="M62.15,-73.82C78,-63.01 105.27,-45.69 131,-35.5 139.52,-32.12 148.76,-29.24 157.91,-26.79"/>
<polygon fill="midnightblue" stroke="midnightblue" points="158.93,-30.15 167.77,-24.32 157.22,-23.36 158.93,-30.15"/>
</g>
<!-- Node6 -->
<g id="node6" class="node">
<title>Node6</title>
<g id="a_node6"><a xlink:href="../../d8/d44/classcflite_1_1eazyaigen_1_1abstractobj_1_1eazyaiparserobject_1_1EazyaiParserObject.html#aa54930f2a4baa499847f98f81ecdafcd" target="_top" xlink:title=" ">
<polygon fill="none" stroke="black" points="342,-0.5 342,-30.5 448,-30.5 448,-0.5 342,-0.5"/>
<text text-anchor="start" x="350" y="-18.5" font-family="Helvetica,sans-Serif" font-size="10.00">set_caffe_prototxt</text>
<text text-anchor="middle" x="395" y="-7.5" font-family="Helvetica,sans-Serif" font-size="10.00">_model_path</text>
</a>
</g>
</g>
<!-- Node5&#45;&gt;Node6 -->
<g id="edge5" class="edge">
<title>Node5&#45;&gt;Node6</title>
<path fill="none" stroke="midnightblue" d="M269.04,-15.5C288.52,-15.5 311.11,-15.5 331.67,-15.5"/>
<polygon fill="midnightblue" stroke="midnightblue" points="331.9,-19 341.9,-15.5 331.9,-12 331.9,-19"/>
</g>
</g>
</svg>
