<?xml version="1.0" encoding="UTF-8" standalone="no"?>
<!DOCTYPE svg PUBLIC "-//W3C//DTD SVG 1.1//EN"
 "http://www.w3.org/Graphics/SVG/1.1/DTD/svg11.dtd">
<!-- Generated by graphviz version 2.43.0 (0)
 -->
<!-- Title: set_caffe_prototxt_model_path Pages: 1 -->
<svg width="486pt" height="66pt"
 viewBox="0.00 0.00 486.00 66.00" xmlns="http://www.w3.org/2000/svg" xmlns:xlink="http://www.w3.org/1999/xlink">
<g id="graph0" class="graph" transform="scale(1 1) rotate(0) translate(4 62)">
<title>set_caffe_prototxt_model_path</title>
<!-- Node1 -->
<g id="node1" class="node">
<title>Node1</title>
<g id="a_node1"><a xlink:title=" ">
<polygon fill="#bfbfbf" stroke="black" points="372,-14 372,-44 478,-44 478,-14 372,-14"/>
<text text-anchor="start" x="380" y="-32" font-family="Helvetica,sans-Serif" font-size="10.00">set_caffe_prototxt</text>
<text text-anchor="middle" x="425" y="-21" font-family="Helvetica,sans-Serif" font-size="10.00">_model_path</text>
</a>
</g>
</g>
<!-- Node2 -->
<g id="node2" class="node">
<title>Node2</title>
<g id="a_node2"><a xlink:href="../../d8/d44/classcflite_1_1eazyaigen_1_1abstractobj_1_1eazyaiparserobject_1_1EazyaiParserObject.html#a9ab6498bab84981e2333482d7d9e1cf0" target="_top" xlink:title=" ">
<polygon fill="none" stroke="black" points="235,-19.5 235,-38.5 336,-38.5 336,-19.5 235,-19.5"/>
<text text-anchor="middle" x="285.5" y="-26.5" font-family="Helvetica,sans-Serif" font-size="10.00">set_model_name</text>
</a>
</g>
</g>
<!-- Node1&#45;&gt;Node2 -->
<g id="edge1" class="edge">
<title>Node1&#45;&gt;Node2</title>
<path fill="none" stroke="midnightblue" d="M361.36,-29C352.86,-29 344.24,-29 336.01,-29"/>
<polygon fill="midnightblue" stroke="midnightblue" points="361.62,-32.5 371.62,-29 361.62,-25.5 361.62,-32.5"/>
</g>
<!-- Node3 -->
<g id="node3" class="node">
<title>Node3</title>
<g id="a_node3"><a xlink:href="../../d8/d44/classcflite_1_1eazyaigen_1_1abstractobj_1_1eazyaiparserobject_1_1EazyaiParserObject.html#a9fc770c41ef1acc42fa693887b9a6f10" target="_top" xlink:title=" ">
<polygon fill="none" stroke="black" points="104,-38.5 104,-57.5 199,-57.5 199,-38.5 104,-38.5"/>
<text text-anchor="middle" x="151.5" y="-45.5" font-family="Helvetica,sans-Serif" font-size="10.00">set_model_path</text>
</a>
</g>
</g>
<!-- Node2&#45;&gt;Node3 -->
<g id="edge2" class="edge">
<title>Node2&#45;&gt;Node3</title>
<path fill="none" stroke="midnightblue" d="M224.96,-37.57C216.34,-38.81 207.57,-40.07 199.25,-41.27"/>
<polygon fill="midnightblue" stroke="midnightblue" points="225.57,-41.02 234.97,-36.13 224.58,-34.09 225.57,-41.02"/>
</g>
<!-- Node5 -->
<g id="node5" class="node">
<title>Node5</title>
<g id="a_node5"><a xlink:href="../../d8/d44/classcflite_1_1eazyaigen_1_1abstractobj_1_1eazyaiparserobject_1_1EazyaiParserObject.html#a835ea95b097a91a326a696b524a75b3c" target="_top" xlink:title=" ">
<polygon fill="none" stroke="black" points="104,-0.5 104,-19.5 199,-19.5 199,-0.5 104,-0.5"/>
<text text-anchor="middle" x="151.5" y="-7.5" font-family="Helvetica,sans-Serif" font-size="10.00">set_output_path</text>
</a>
</g>
</g>
<!-- Node2&#45;&gt;Node5 -->
<g id="edge4" class="edge">
<title>Node2&#45;&gt;Node5</title>
<path fill="none" stroke="midnightblue" d="M224.96,-20.43C216.34,-19.19 207.57,-17.93 199.25,-16.73"/>
<polygon fill="midnightblue" stroke="midnightblue" points="224.58,-23.91 234.97,-21.87 225.57,-16.98 224.58,-23.91"/>
</g>
<!-- Node4 -->
<g id="node4" class="node">
<title>Node4</title>
<g id="a_node4"><a xlink:href="../../d8/d44/classcflite_1_1eazyaigen_1_1abstractobj_1_1eazyaiparserobject_1_1EazyaiParserObject.html#a7eff59aacfaa957e157a5a6361f3fb76" target="_top" xlink:title=" ">
<polygon fill="none" stroke="black" points="0,-38.5 0,-57.5 68,-57.5 68,-38.5 0,-38.5"/>
<text text-anchor="middle" x="34" y="-45.5" font-family="Helvetica,sans-Serif" font-size="10.00">set_model</text>
</a>
</g>
</g>
<!-- Node3&#45;&gt;Node4 -->
<g id="edge3" class="edge">
<title>Node3&#45;&gt;Node4</title>
<path fill="none" stroke="midnightblue" d="M93.71,-48C85.02,-48 76.29,-48 68.33,-48"/>
<polygon fill="midnightblue" stroke="midnightblue" points="93.85,-51.5 103.85,-48 93.85,-44.5 93.85,-51.5"/>
</g>
</g>
</svg>
