<?xml version="1.0" encoding="UTF-8" standalone="no"?>
<!DOCTYPE svg PUBLIC "-//W3C//DTD SVG 1.1//EN"
 "http://www.w3.org/Graphics/SVG/1.1/DTD/svg11.dtd">
<!-- Generated by graphviz version 2.43.0 (0)
 -->
<!-- Title: set_model Pages: 1 -->
<svg width="634pt" height="181pt"
 viewBox="0.00 0.00 634.00 181.00" xmlns="http://www.w3.org/2000/svg" xmlns:xlink="http://www.w3.org/1999/xlink">
<g id="graph0" class="graph" transform="scale(1 1) rotate(0) translate(4 177)">
<title>set_model</title>
<!-- Node1 -->
<g id="node1" class="node">
<title>Node1</title>
<g id="a_node1"><a xlink:title=" ">
<polygon fill="#bfbfbf" stroke="black" points="0,-96 0,-115 68,-115 68,-96 0,-96"/>
<text text-anchor="middle" x="34" y="-103" font-family="Helvetica,sans-Serif" font-size="10.00">set_model</text>
</a>
</g>
</g>
<!-- Node2 -->
<g id="node2" class="node">
<title>Node2</title>
<g id="a_node2"><a xlink:href="../../da/dcb/group__cflite-eazyaigen-layercompare.html#ga9fc770c41ef1acc42fa693887b9a6f10" target="_top" xlink:title=" ">
<polygon fill="none" stroke="black" points="104,-112.5 104,-142.5 273,-142.5 273,-112.5 104,-112.5"/>
<text text-anchor="start" x="112" y="-130.5" font-family="Helvetica,sans-Serif" font-size="10.00">cflite.eazyaigen.layercompare.</text>
<text text-anchor="middle" x="188.5" y="-119.5" font-family="Helvetica,sans-Serif" font-size="10.00">LayerCompare.set_model_path</text>
</a>
</g>
</g>
<!-- Node1&#45;&gt;Node2 -->
<g id="edge1" class="edge">
<title>Node1&#45;&gt;Node2</title>
<path fill="none" stroke="midnightblue" d="M68.09,-110.27C75.94,-111.41 84.7,-112.67 93.81,-113.98"/>
<polygon fill="midnightblue" stroke="midnightblue" points="93.4,-117.46 103.8,-115.43 94.4,-110.53 93.4,-117.46"/>
</g>
<!-- Node3 -->
<g id="node3" class="node">
<title>Node3</title>
<g id="a_node3"><a xlink:href="../../d8/d44/classcflite_1_1eazyaigen_1_1abstractobj_1_1eazyaiparserobject_1_1EazyaiParserObject.html#a9fc770c41ef1acc42fa693887b9a6f10" target="_top" xlink:title=" ">
<polygon fill="none" stroke="black" points="141,-74 141,-93 236,-93 236,-74 141,-74"/>
<text text-anchor="middle" x="188.5" y="-81" font-family="Helvetica,sans-Serif" font-size="10.00">set_model_path</text>
</a>
</g>
</g>
<!-- Node1&#45;&gt;Node3 -->
<g id="edge2" class="edge">
<title>Node1&#45;&gt;Node3</title>
<path fill="none" stroke="midnightblue" d="M68.09,-100.73C86.38,-98.09 109.62,-94.74 130.72,-91.69"/>
<polygon fill="midnightblue" stroke="midnightblue" points="131.48,-95.12 140.88,-90.23 130.48,-88.19 131.48,-95.12"/>
</g>
<!-- Node4 -->
<g id="node4" class="node">
<title>Node4</title>
<g id="a_node4"><a xlink:href="../../d9/d70/classcflite_1_1eazyaigen_1_1vas_1_1VAS.html#a522ae9450e1f23e6b25ce3e161cff155" target="_top" xlink:title=" ">
<polygon fill="none" stroke="black" points="319,-142.5 319,-172.5 474,-172.5 474,-142.5 319,-142.5"/>
<text text-anchor="start" x="327" y="-160.5" font-family="Helvetica,sans-Serif" font-size="10.00">cflite.eazyaigen.vas.VAS.set</text>
<text text-anchor="middle" x="396.5" y="-149.5" font-family="Helvetica,sans-Serif" font-size="10.00">_model_name</text>
</a>
</g>
</g>
<!-- Node3&#45;&gt;Node4 -->
<g id="edge3" class="edge">
<title>Node3&#45;&gt;Node4</title>
<path fill="none" stroke="midnightblue" d="M236.34,-90.75C248.66,-93.71 261.67,-97.82 273,-103.5 291.62,-112.84 290.55,-123.83 309,-133.5 312.55,-135.36 316.26,-137.09 320.05,-138.69"/>
<polygon fill="midnightblue" stroke="midnightblue" points="319.06,-142.06 329.65,-142.43 321.6,-135.54 319.06,-142.06"/>
</g>
<!-- Node5 -->
<g id="node5" class="node">
<title>Node5</title>
<g id="a_node5"><a xlink:href="../../da/dcb/group__cflite-eazyaigen-layercompare.html#ga9ab6498bab84981e2333482d7d9e1cf0" target="_top" xlink:title=" ">
<polygon fill="none" stroke="black" points="309,-93.5 309,-123.5 484,-123.5 484,-93.5 309,-93.5"/>
<text text-anchor="start" x="317" y="-111.5" font-family="Helvetica,sans-Serif" font-size="10.00">cflite.eazyaigen.layercompare.</text>
<text text-anchor="middle" x="396.5" y="-100.5" font-family="Helvetica,sans-Serif" font-size="10.00">LayerCompare.set_model_name</text>
</a>
</g>
</g>
<!-- Node3&#45;&gt;Node5 -->
<g id="edge4" class="edge">
<title>Node3&#45;&gt;Node5</title>
<path fill="none" stroke="midnightblue" d="M236.24,-89.17C254.88,-91.43 277.05,-94.13 298.85,-96.77"/>
<polygon fill="midnightblue" stroke="midnightblue" points="298.47,-100.25 308.82,-97.98 299.32,-93.3 298.47,-100.25"/>
</g>
<!-- Node6 -->
<g id="node6" class="node">
<title>Node6</title>
<g id="a_node6"><a xlink:href="../../d8/d8d/group__cflite-eazyaigen-cavalry.html#ga522ae9450e1f23e6b25ce3e161cff155" target="_top" xlink:title=" ">
<polygon fill="none" stroke="black" points="316,-44.5 316,-74.5 477,-74.5 477,-44.5 316,-44.5"/>
<text text-anchor="start" x="324" y="-62.5" font-family="Helvetica,sans-Serif" font-size="10.00">cflite.eazyaigen.cavalrygen.</text>
<text text-anchor="middle" x="396.5" y="-51.5" font-family="Helvetica,sans-Serif" font-size="10.00">CavalryGen.set_model_name</text>
</a>
</g>
</g>
<!-- Node3&#45;&gt;Node6 -->
<g id="edge5" class="edge">
<title>Node3&#45;&gt;Node6</title>
<path fill="none" stroke="midnightblue" d="M236.24,-78.05C256.81,-75.66 281.69,-72.76 305.62,-69.97"/>
<polygon fill="midnightblue" stroke="midnightblue" points="306.27,-73.42 315.8,-68.79 305.46,-66.47 306.27,-73.42"/>
</g>
<!-- Node7 -->
<g id="node7" class="node">
<title>Node7</title>
<g id="a_node7"><a xlink:href="../../d8/d44/classcflite_1_1eazyaigen_1_1abstractobj_1_1eazyaiparserobject_1_1EazyaiParserObject.html#a9ab6498bab84981e2333482d7d9e1cf0" target="_top" xlink:title=" ">
<polygon fill="none" stroke="black" points="346,-6 346,-25 447,-25 447,-6 346,-6"/>
<text text-anchor="middle" x="396.5" y="-13" font-family="Helvetica,sans-Serif" font-size="10.00">set_model_name</text>
</a>
</g>
</g>
<!-- Node3&#45;&gt;Node7 -->
<g id="edge6" class="edge">
<title>Node3&#45;&gt;Node7</title>
<path fill="none" stroke="midnightblue" d="M210.72,-73.81C234.34,-63.31 273.81,-46.56 309,-35.5 318.28,-32.58 328.23,-29.89 337.97,-27.49"/>
<polygon fill="midnightblue" stroke="midnightblue" points="339.09,-30.82 348.01,-25.09 337.47,-24.01 339.09,-30.82"/>
</g>
<!-- Node8 -->
<g id="node8" class="node">
<title>Node8</title>
<g id="a_node8"><a xlink:href="../../d8/d44/classcflite_1_1eazyaigen_1_1abstractobj_1_1eazyaiparserobject_1_1EazyaiParserObject.html#aa54930f2a4baa499847f98f81ecdafcd" target="_top" xlink:title=" ">
<polygon fill="none" stroke="black" points="520,-0.5 520,-30.5 626,-30.5 626,-0.5 520,-0.5"/>
<text text-anchor="start" x="528" y="-18.5" font-family="Helvetica,sans-Serif" font-size="10.00">set_caffe_prototxt</text>
<text text-anchor="middle" x="573" y="-7.5" font-family="Helvetica,sans-Serif" font-size="10.00">_model_path</text>
</a>
</g>
</g>
<!-- Node7&#45;&gt;Node8 -->
<g id="edge7" class="edge">
<title>Node7&#45;&gt;Node8</title>
<path fill="none" stroke="midnightblue" d="M447.04,-15.5C466.52,-15.5 489.11,-15.5 509.67,-15.5"/>
<polygon fill="midnightblue" stroke="midnightblue" points="509.9,-19 519.9,-15.5 509.9,-12 509.9,-19"/>
</g>
</g>
</svg>
