<?xml version="1.0" encoding="UTF-8" standalone="no"?>
<!DOCTYPE svg PUBLIC "-//W3C//DTD SVG 1.1//EN"
 "http://www.w3.org/Graphics/SVG/1.1/DTD/svg11.dtd">
<!-- Generated by graphviz version 2.43.0 (0)
 -->
<!-- Title: set_output_path Pages: 1 -->
<svg width="382pt" height="39pt"
 viewBox="0.00 0.00 382.00 39.00" xmlns="http://www.w3.org/2000/svg" xmlns:xlink="http://www.w3.org/1999/xlink">
<g id="graph0" class="graph" transform="scale(1 1) rotate(0) translate(4 35)">
<title>set_output_path</title>
<!-- Node1 -->
<g id="node1" class="node">
<title>Node1</title>
<g id="a_node1"><a xlink:title=" ">
<polygon fill="#bfbfbf" stroke="black" points="0,-6 0,-25 95,-25 95,-6 0,-6"/>
<text text-anchor="middle" x="47.5" y="-13" font-family="Helvetica,sans-Serif" font-size="10.00">set_output_path</text>
</a>
</g>
</g>
<!-- Node2 -->
<g id="node2" class="node">
<title>Node2</title>
<g id="a_node2"><a xlink:href="../../d8/d44/classcflite_1_1eazyaigen_1_1abstractobj_1_1eazyaiparserobject_1_1EazyaiParserObject.html#a9ab6498bab84981e2333482d7d9e1cf0" target="_top" xlink:title=" ">
<polygon fill="none" stroke="black" points="131,-6 131,-25 232,-25 232,-6 131,-6"/>
<text text-anchor="middle" x="181.5" y="-13" font-family="Helvetica,sans-Serif" font-size="10.00">set_model_name</text>
</a>
</g>
</g>
<!-- Node1&#45;&gt;Node2 -->
<g id="edge1" class="edge">
<title>Node1&#45;&gt;Node2</title>
<path fill="none" stroke="midnightblue" d="M95.04,-15.5C103.36,-15.5 112.14,-15.5 120.77,-15.5"/>
<polygon fill="midnightblue" stroke="midnightblue" points="120.8,-19 130.8,-15.5 120.8,-12 120.8,-19"/>
</g>
<!-- Node3 -->
<g id="node3" class="node">
<title>Node3</title>
<g id="a_node3"><a xlink:href="../../d8/d44/classcflite_1_1eazyaigen_1_1abstractobj_1_1eazyaiparserobject_1_1EazyaiParserObject.html#aa54930f2a4baa499847f98f81ecdafcd" target="_top" xlink:title=" ">
<polygon fill="none" stroke="black" points="268,-0.5 268,-30.5 374,-30.5 374,-0.5 268,-0.5"/>
<text text-anchor="start" x="276" y="-18.5" font-family="Helvetica,sans-Serif" font-size="10.00">set_caffe_prototxt</text>
<text text-anchor="middle" x="321" y="-7.5" font-family="Helvetica,sans-Serif" font-size="10.00">_model_path</text>
</a>
</g>
</g>
<!-- Node2&#45;&gt;Node3 -->
<g id="edge2" class="edge">
<title>Node2&#45;&gt;Node3</title>
<path fill="none" stroke="midnightblue" d="M232.14,-15.5C240.34,-15.5 248.94,-15.5 257.41,-15.5"/>
<polygon fill="midnightblue" stroke="midnightblue" points="257.65,-19 267.65,-15.5 257.65,-12 257.65,-19"/>
</g>
</g>
</svg>
