<?xml version="1.0" encoding="UTF-8" standalone="no"?>
<!DOCTYPE svg PUBLIC "-//W3C//DTD SVG 1.1//EN"
 "http://www.w3.org/Graphics/SVG/1.1/DTD/svg11.dtd">
<!-- Generated by graphviz version 2.43.0 (0)
 -->
<!-- Title: LayerCompare Pages: 1 -->
<svg width="200pt" height="518pt"
 viewBox="0.00 0.00 200.00 518.00" xmlns="http://www.w3.org/2000/svg" xmlns:xlink="http://www.w3.org/1999/xlink">
<g id="graph0" class="graph" transform="scale(1 1) rotate(0) translate(4 514)">
<title>LayerCompare</title>
<!-- Node1 -->
<g id="node1" class="node">
<title>Node1</title>
<g id="a_node1"><a xlink:title=" ">
<polygon fill="#bfbfbf" stroke="black" points="0,-0.5 0,-244.5 192,-244.5 192,-0.5 0,-0.5"/>
<text text-anchor="middle" x="96" y="-232.5" font-family="Helvetica,sans-Serif" font-size="10.00">LayerCompare</text>
<polyline fill="none" stroke="black" points="0,-225.5 192,-225.5 "/>
<text text-anchor="start" x="8" y="-213.5" font-family="Helvetica,sans-Serif" font-size="10.00">+ logger</text>
<text text-anchor="start" x="8" y="-202.5" font-family="Helvetica,sans-Serif" font-size="10.00">+ model_name</text>
<text text-anchor="start" x="8" y="-191.5" font-family="Helvetica,sans-Serif" font-size="10.00">+ model_path</text>
<text text-anchor="start" x="8" y="-180.5" font-family="Helvetica,sans-Serif" font-size="10.00">+ caffe_prototxt_model_path</text>
<text text-anchor="start" x="8" y="-169.5" font-family="Helvetica,sans-Serif" font-size="10.00">+ parser_output_path</text>
<text text-anchor="start" x="8" y="-158.5" font-family="Helvetica,sans-Serif" font-size="10.00">+ input_node_params</text>
<text text-anchor="start" x="8" y="-147.5" font-family="Helvetica,sans-Serif" font-size="10.00">+ layer_compare_output_path</text>
<text text-anchor="start" x="8" y="-136.5" font-family="Helvetica,sans-Serif" font-size="10.00">+ ambapb_file_path</text>
<polyline fill="none" stroke="black" points="0,-129.5 192,-129.5 "/>
<text text-anchor="start" x="8" y="-117.5" font-family="Helvetica,sans-Serif" font-size="10.00">+ __init__()</text>
<text text-anchor="start" x="8" y="-106.5" font-family="Helvetica,sans-Serif" font-size="10.00">+ set_model_name()</text>
<text text-anchor="start" x="8" y="-95.5" font-family="Helvetica,sans-Serif" font-size="10.00">+ set_model_path()</text>
<text text-anchor="start" x="8" y="-84.5" font-family="Helvetica,sans-Serif" font-size="10.00">+ set_caffe_prototxt</text>
<text text-anchor="start" x="8" y="-73.5" font-family="Helvetica,sans-Serif" font-size="10.00">_model_path()</text>
<text text-anchor="start" x="8" y="-62.5" font-family="Helvetica,sans-Serif" font-size="10.00">+ set_parser_output_path()</text>
<text text-anchor="start" x="8" y="-51.5" font-family="Helvetica,sans-Serif" font-size="10.00">+ set_ambapb_file_path()</text>
<text text-anchor="start" x="8" y="-40.5" font-family="Helvetica,sans-Serif" font-size="10.00">+ set_layer_compare_output_path()</text>
<text text-anchor="start" x="8" y="-29.5" font-family="Helvetica,sans-Serif" font-size="10.00">+ set_input_node_params()</text>
<text text-anchor="start" x="8" y="-18.5" font-family="Helvetica,sans-Serif" font-size="10.00">+ generate_commands()</text>
<text text-anchor="start" x="8" y="-7.5" font-family="Helvetica,sans-Serif" font-size="10.00">+ run()</text>
</a>
</g>
</g>
<!-- Node2 -->
<g id="node2" class="node">
<title>Node2</title>
<g id="a_node2"><a xlink:href="../../d0/d1d/classcflite_1_1eazyaigen_1_1abstractobj_1_1eazyaigenobject_1_1EazyaiGenObject.html" target="_top" xlink:title=" ">
<polygon fill="none" stroke="black" points="27,-281.5 27,-415.5 165,-415.5 165,-281.5 27,-281.5"/>
<text text-anchor="middle" x="96" y="-403.5" font-family="Helvetica,sans-Serif" font-size="10.00">EazyaiGenObject</text>
<polyline fill="none" stroke="black" points="27,-396.5 165,-396.5 "/>
<text text-anchor="start" x="35" y="-384.5" font-family="Helvetica,sans-Serif" font-size="10.00">+ env_info</text>
<text text-anchor="start" x="35" y="-373.5" font-family="Helvetica,sans-Serif" font-size="10.00">+ log_level</text>
<polyline fill="none" stroke="black" points="27,-366.5 165,-366.5 "/>
<text text-anchor="start" x="35" y="-354.5" font-family="Helvetica,sans-Serif" font-size="10.00">+ __init__()</text>
<text text-anchor="start" x="35" y="-343.5" font-family="Helvetica,sans-Serif" font-size="10.00">+ set_env_path()</text>
<text text-anchor="start" x="35" y="-332.5" font-family="Helvetica,sans-Serif" font-size="10.00">+ set_work_dir()</text>
<text text-anchor="start" x="35" y="-321.5" font-family="Helvetica,sans-Serif" font-size="10.00">+ start_subprocess()</text>
<text text-anchor="start" x="35" y="-310.5" font-family="Helvetica,sans-Serif" font-size="10.00">+ execute_cmd()</text>
<text text-anchor="start" x="35" y="-299.5" font-family="Helvetica,sans-Serif" font-size="10.00">+ generate_commands()</text>
<text text-anchor="start" x="35" y="-288.5" font-family="Helvetica,sans-Serif" font-size="10.00">+ run()</text>
</a>
</g>
</g>
<!-- Node2&#45;&gt;Node1 -->
<g id="edge1" class="edge">
<title>Node2&#45;&gt;Node1</title>
<path fill="none" stroke="midnightblue" d="M96,-270.95C96,-262.41 96,-253.56 96,-244.63"/>
<polygon fill="none" stroke="midnightblue" points="92.5,-271.2 96,-281.2 99.5,-271.2 92.5,-271.2"/>
</g>
<!-- Node3 -->
<g id="node3" class="node">
<title>Node3</title>
<g id="a_node3"><a xlink:title=" ">
<polygon fill="none" stroke="#bfbfbf" points="21.5,-452.5 21.5,-509.5 88.5,-509.5 88.5,-452.5 21.5,-452.5"/>
<text text-anchor="middle" x="55" y="-497.5" font-family="Helvetica,sans-Serif" font-size="10.00">metaclass</text>
<polyline fill="none" stroke="#bfbfbf" points="21.5,-490.5 88.5,-490.5 "/>
<text text-anchor="middle" x="55" y="-478.5" font-family="Helvetica,sans-Serif" font-size="10.00"> </text>
<polyline fill="none" stroke="#bfbfbf" points="21.5,-471.5 88.5,-471.5 "/>
<text text-anchor="middle" x="55" y="-459.5" font-family="Helvetica,sans-Serif" font-size="10.00"> </text>
</a>
</g>
</g>
<!-- Node3&#45;&gt;Node2 -->
<g id="edge2" class="edge">
<title>Node3&#45;&gt;Node2</title>
<path fill="none" stroke="midnightblue" d="M66.71,-442.72C69.39,-434.19 72.32,-424.87 75.25,-415.53"/>
<polygon fill="none" stroke="midnightblue" points="63.35,-441.73 63.7,-452.32 70.03,-443.83 63.35,-441.73"/>
</g>
<!-- Node4 -->
<g id="node4" class="node">
<title>Node4</title>
<g id="a_node4"><a xlink:title=" ">
<polygon fill="none" stroke="#bfbfbf" points="107,-452.5 107,-509.5 169,-509.5 169,-452.5 107,-452.5"/>
<text text-anchor="middle" x="138" y="-497.5" font-family="Helvetica,sans-Serif" font-size="10.00">ABCMeta</text>
<polyline fill="none" stroke="#bfbfbf" points="107,-490.5 169,-490.5 "/>
<text text-anchor="middle" x="138" y="-478.5" font-family="Helvetica,sans-Serif" font-size="10.00"> </text>
<polyline fill="none" stroke="#bfbfbf" points="107,-471.5 169,-471.5 "/>
<text text-anchor="middle" x="138" y="-459.5" font-family="Helvetica,sans-Serif" font-size="10.00"> </text>
</a>
</g>
</g>
<!-- Node4&#45;&gt;Node2 -->
<g id="edge3" class="edge">
<title>Node4&#45;&gt;Node2</title>
<path fill="none" stroke="midnightblue" d="M126,-442.72C123.26,-434.19 120.26,-424.87 117.25,-415.53"/>
<polygon fill="none" stroke="midnightblue" points="122.7,-443.88 129.09,-452.32 129.36,-441.73 122.7,-443.88"/>
</g>
</g>
</svg>
