<?xml version="1.0" encoding="UTF-8" standalone="no"?>
<!DOCTYPE svg PUBLIC "-//W3C//DTD SVG 1.1//EN"
 "http://www.w3.org/Graphics/SVG/1.1/DTD/svg11.dtd">
<!-- Generated by graphviz version 2.43.0 (0)
 -->
<!-- Title: set_vas_output_path Pages: 1 -->
<svg width="401pt" height="88pt"
 viewBox="0.00 0.00 401.00 88.00" xmlns="http://www.w3.org/2000/svg" xmlns:xlink="http://www.w3.org/1999/xlink">
<g id="graph0" class="graph" transform="scale(1 1) rotate(0) translate(4 84)">
<title>set_vas_output_path</title>
<!-- Node1 -->
<g id="node1" class="node">
<title>Node1</title>
<g id="a_node1"><a xlink:title=" ">
<polygon fill="#bfbfbf" stroke="black" points="0,-30 0,-49 118,-49 118,-30 0,-30"/>
<text text-anchor="middle" x="59" y="-37" font-family="Helvetica,sans-Serif" font-size="10.00">set_vas_output_path</text>
</a>
</g>
</g>
<!-- Node2 -->
<g id="node2" class="node">
<title>Node2</title>
<g id="a_node2"><a xlink:href="../../d3/db0/classcflite_1_1eazyaigen_1_1profiler_1_1Profiler.html#ab5be4613c2323e467f5259ef1bd86270" target="_top" xlink:title=" ">
<polygon fill="none" stroke="black" points="205.5,-49.5 205.5,-79.5 341.5,-79.5 341.5,-49.5 205.5,-49.5"/>
<text text-anchor="start" x="213.5" y="-67.5" font-family="Helvetica,sans-Serif" font-size="10.00">cflite.eazyaigen.profiler.</text>
<text text-anchor="middle" x="273.5" y="-56.5" font-family="Helvetica,sans-Serif" font-size="10.00">Profiler.set_env_path</text>
</a>
</g>
</g>
<!-- Node1&#45;&gt;Node2 -->
<g id="edge1" class="edge">
<title>Node1&#45;&gt;Node2</title>
<path fill="none" stroke="midnightblue" d="M118.07,-46.33C141.93,-49.14 169.92,-52.43 195.46,-55.44"/>
<polygon fill="midnightblue" stroke="midnightblue" points="195.14,-58.92 205.48,-56.62 195.96,-51.97 195.14,-58.92"/>
</g>
<!-- Node3 -->
<g id="node3" class="node">
<title>Node3</title>
<g id="a_node3"><a xlink:href="../../d0/d1d/classcflite_1_1eazyaigen_1_1abstractobj_1_1eazyaigenobject_1_1EazyaiGenObject.html#ab5be4613c2323e467f5259ef1bd86270" target="_top" xlink:title=" ">
<polygon fill="none" stroke="black" points="154,-0.5 154,-30.5 393,-30.5 393,-0.5 154,-0.5"/>
<text text-anchor="start" x="162" y="-18.5" font-family="Helvetica,sans-Serif" font-size="10.00">cflite.eazyaigen.abstractobj.eazyaigenobject.</text>
<text text-anchor="middle" x="273.5" y="-7.5" font-family="Helvetica,sans-Serif" font-size="10.00">EazyaiGenObject.set_env_path</text>
</a>
</g>
</g>
<!-- Node1&#45;&gt;Node3 -->
<g id="edge2" class="edge">
<title>Node1&#45;&gt;Node3</title>
<path fill="none" stroke="midnightblue" d="M118.07,-32.94C126.19,-32.02 134.79,-31.05 143.61,-30.06"/>
<polygon fill="midnightblue" stroke="midnightblue" points="144.11,-33.52 153.65,-28.92 143.32,-26.57 144.11,-33.52"/>
</g>
</g>
</svg>
