<?xml version="1.0" encoding="UTF-8" standalone="no"?>
<!DOCTYPE svg PUBLIC "-//W3C//DTD SVG 1.1//EN"
 "http://www.w3.org/Graphics/SVG/1.1/DTD/svg11.dtd">
<!-- Generated by graphviz version 2.43.0 (0)
 -->
<!-- Title: ea_tensor_size Pages: 1 -->
<svg width="517pt" height="50pt"
 viewBox="0.00 0.00 517.00 50.00" xmlns="http://www.w3.org/2000/svg" xmlns:xlink="http://www.w3.org/1999/xlink">
<g id="graph0" class="graph" transform="scale(1 1) rotate(0) translate(4 46)">
<title>ea_tensor_size</title>
<!-- Node1 -->
<g id="node1" class="node">
<title>Node1</title>
<g id="a_node1"><a xlink:title=" ">
<polygon fill="#bfbfbf" stroke="black" points="420,-11.5 420,-30.5 509,-30.5 509,-11.5 420,-11.5"/>
<text text-anchor="middle" x="464.5" y="-18.5" font-family="Helvetica,sans-Serif" font-size="10.00">ea_tensor_size</text>
</a>
</g>
</g>
<!-- Node2 -->
<g id="node2" class="node">
<title>Node2</title>
<g id="a_node2"><a xlink:href="../../df/d8e/classcflite_1_1eazyaiinf_1_1postprocess_1_1EazyaiPostprocess.html#a854ea4a75256a099bfbb1ea03674a8ed" target="_top" xlink:title=" ">
<polygon fill="none" stroke="black" points="231,-0.5 231,-41.5 384,-41.5 384,-0.5 231,-0.5"/>
<text text-anchor="start" x="239" y="-29.5" font-family="Helvetica,sans-Serif" font-size="10.00">cflite.eazyaiinf.postprocess.</text>
<text text-anchor="start" x="239" y="-18.5" font-family="Helvetica,sans-Serif" font-size="10.00">EazyaiPostprocess.tensor</text>
<text text-anchor="middle" x="307.5" y="-7.5" font-family="Helvetica,sans-Serif" font-size="10.00">_to_ndarray</text>
</a>
</g>
</g>
<!-- Node1&#45;&gt;Node2 -->
<g id="edge1" class="edge">
<title>Node1&#45;&gt;Node2</title>
<path fill="none" stroke="midnightblue" d="M409.66,-21C401.38,-21 392.7,-21 384.05,-21"/>
<polygon fill="midnightblue" stroke="midnightblue" points="409.91,-24.5 419.91,-21 409.91,-17.5 409.91,-24.5"/>
</g>
<!-- Node3 -->
<g id="node3" class="node">
<title>Node3</title>
<g id="a_node3"><a xlink:href="../../df/d8e/classcflite_1_1eazyaiinf_1_1postprocess_1_1EazyaiPostprocess.html#ae39321c0a762b8909c1c7198af05a9cc" target="_top" xlink:title=" ">
<polygon fill="none" stroke="black" points="0,-6 0,-36 195,-36 195,-6 0,-6"/>
<text text-anchor="start" x="8" y="-24" font-family="Helvetica,sans-Serif" font-size="10.00">cflite.eazyaiinf.postprocess.</text>
<text text-anchor="middle" x="97.5" y="-13" font-family="Helvetica,sans-Serif" font-size="10.00">EazyaiPostprocess.post_process_run</text>
</a>
</g>
</g>
<!-- Node2&#45;&gt;Node3 -->
<g id="edge2" class="edge">
<title>Node2&#45;&gt;Node3</title>
<path fill="none" stroke="midnightblue" d="M220.63,-21C212.2,-21 203.61,-21 195.08,-21"/>
<polygon fill="midnightblue" stroke="midnightblue" points="220.82,-24.5 230.82,-21 220.82,-17.5 220.82,-24.5"/>
</g>
</g>
</svg>
