<?xml version="1.0" encoding="UTF-8" standalone="no"?>
<!DOCTYPE svg PUBLIC "-//W3C//DTD SVG 1.1//EN"
 "http://www.w3.org/Graphics/SVG/1.1/DTD/svg11.dtd">
<!-- Generated by graphviz version 2.43.0 (0)
 -->
<!-- Title: EazyaiGenObject Pages: 1 -->
<svg width="980pt" height="854pt"
 viewBox="0.00 0.00 979.50 854.00" xmlns="http://www.w3.org/2000/svg" xmlns:xlink="http://www.w3.org/1999/xlink">
<g id="graph0" class="graph" transform="scale(1 1) rotate(0) translate(4 850)">
<title>EazyaiGenObject</title>
<!-- Node1 -->
<g id="node1" class="node">
<title>Node1</title>
<g id="a_node1"><a xlink:title=" ">
<polygon fill="#bfbfbf" stroke="black" points="482.5,-617.5 482.5,-751.5 620.5,-751.5 620.5,-617.5 482.5,-617.5"/>
<text text-anchor="middle" x="551.5" y="-739.5" font-family="Helvetica,sans-Serif" font-size="10.00">EazyaiGenObject</text>
<polyline fill="none" stroke="black" points="482.5,-732.5 620.5,-732.5 "/>
<text text-anchor="start" x="490.5" y="-720.5" font-family="Helvetica,sans-Serif" font-size="10.00">+ env_info</text>
<text text-anchor="start" x="490.5" y="-709.5" font-family="Helvetica,sans-Serif" font-size="10.00">+ log_level</text>
<polyline fill="none" stroke="black" points="482.5,-702.5 620.5,-702.5 "/>
<text text-anchor="start" x="490.5" y="-690.5" font-family="Helvetica,sans-Serif" font-size="10.00">+ __init__()</text>
<text text-anchor="start" x="490.5" y="-679.5" font-family="Helvetica,sans-Serif" font-size="10.00">+ set_env_path()</text>
<text text-anchor="start" x="490.5" y="-668.5" font-family="Helvetica,sans-Serif" font-size="10.00">+ set_work_dir()</text>
<text text-anchor="start" x="490.5" y="-657.5" font-family="Helvetica,sans-Serif" font-size="10.00">+ start_subprocess()</text>
<text text-anchor="start" x="490.5" y="-646.5" font-family="Helvetica,sans-Serif" font-size="10.00">+ execute_cmd()</text>
<text text-anchor="start" x="490.5" y="-635.5" font-family="Helvetica,sans-Serif" font-size="10.00">+ generate_commands()</text>
<text text-anchor="start" x="490.5" y="-624.5" font-family="Helvetica,sans-Serif" font-size="10.00">+ run()</text>
</a>
</g>
</g>
<!-- Node4 -->
<g id="node4" class="node">
<title>Node4</title>
<g id="a_node4"><a xlink:href="../../d8/d44/classcflite_1_1eazyaigen_1_1abstractobj_1_1eazyaiparserobject_1_1EazyaiParserObject.html" target="_top" xlink:title=" ">
<polygon fill="none" stroke="black" points="97,-320 97,-553 264,-553 264,-320 97,-320"/>
<text text-anchor="middle" x="180.5" y="-541" font-family="Helvetica,sans-Serif" font-size="10.00">EazyaiParserObject</text>
<polyline fill="none" stroke="black" points="97,-534 264,-534 "/>
<text text-anchor="start" x="105" y="-522" font-family="Helvetica,sans-Serif" font-size="10.00">+ model_path</text>
<text text-anchor="start" x="105" y="-511" font-family="Helvetica,sans-Serif" font-size="10.00">+ caffe_prototxt_model_path</text>
<text text-anchor="start" x="105" y="-500" font-family="Helvetica,sans-Serif" font-size="10.00">+ model_name</text>
<text text-anchor="start" x="105" y="-489" font-family="Helvetica,sans-Serif" font-size="10.00">+ output_path</text>
<text text-anchor="start" x="105" y="-478" font-family="Helvetica,sans-Serif" font-size="10.00">+ sideband</text>
<text text-anchor="start" x="105" y="-467" font-family="Helvetica,sans-Serif" font-size="10.00">+ extra_option</text>
<polyline fill="none" stroke="black" points="97,-460 264,-460 "/>
<text text-anchor="start" x="105" y="-448" font-family="Helvetica,sans-Serif" font-size="10.00">+ set_model()</text>
<text text-anchor="start" x="105" y="-437" font-family="Helvetica,sans-Serif" font-size="10.00">+ set_model_path()</text>
<text text-anchor="start" x="105" y="-426" font-family="Helvetica,sans-Serif" font-size="10.00">+ set_caffe_prototxt</text>
<text text-anchor="start" x="105" y="-415" font-family="Helvetica,sans-Serif" font-size="10.00">_model_path()</text>
<text text-anchor="start" x="105" y="-404" font-family="Helvetica,sans-Serif" font-size="10.00">+ set_model_name()</text>
<text text-anchor="start" x="105" y="-393" font-family="Helvetica,sans-Serif" font-size="10.00">+ set_output_path()</text>
<text text-anchor="start" x="105" y="-382" font-family="Helvetica,sans-Serif" font-size="10.00">+ set_sideband()</text>
<text text-anchor="start" x="105" y="-371" font-family="Helvetica,sans-Serif" font-size="10.00">+ set_extra_option()</text>
<text text-anchor="start" x="105" y="-360" font-family="Helvetica,sans-Serif" font-size="10.00">+ set_customer_node_parser()</text>
<text text-anchor="start" x="105" y="-349" font-family="Helvetica,sans-Serif" font-size="10.00">+ set_customer_node_dll()</text>
<text text-anchor="start" x="105" y="-338" font-family="Helvetica,sans-Serif" font-size="10.00">+ set_input_node_params()</text>
<text text-anchor="start" x="105" y="-327" font-family="Helvetica,sans-Serif" font-size="10.00">+ set_output_node_params()</text>
</a>
</g>
</g>
<!-- Node1&#45;&gt;Node4 -->
<g id="edge3" class="edge">
<title>Node1&#45;&gt;Node4</title>
<path fill="none" stroke="midnightblue" d="M472.45,-668.8C412.53,-654.48 330.82,-627.82 272.5,-581 262.46,-572.94 253.18,-563.48 244.68,-553.32"/>
<polygon fill="none" stroke="midnightblue" points="471.72,-672.22 482.25,-671.08 473.3,-665.4 471.72,-672.22"/>
</g>
<!-- Node7 -->
<g id="node7" class="node">
<title>Node7</title>
<g id="a_node7"><a xlink:href="../../d0/d6f/classcflite_1_1eazyaigen_1_1cavalrygen_1_1CavalryGen.html" target="_top" xlink:title=" ">
<polygon fill="none" stroke="black" points="282,-292.5 282,-580.5 437,-580.5 437,-292.5 282,-292.5"/>
<text text-anchor="middle" x="359.5" y="-568.5" font-family="Helvetica,sans-Serif" font-size="10.00">CavalryGen</text>
<polyline fill="none" stroke="black" points="282,-561.5 437,-561.5 "/>
<text text-anchor="start" x="290" y="-549.5" font-family="Helvetica,sans-Serif" font-size="10.00">+ logger</text>
<text text-anchor="start" x="290" y="-538.5" font-family="Helvetica,sans-Serif" font-size="10.00">+ vas_output_path</text>
<text text-anchor="start" x="290" y="-527.5" font-family="Helvetica,sans-Serif" font-size="10.00">+ cvb_json_file</text>
<text text-anchor="start" x="290" y="-516.5" font-family="Helvetica,sans-Serif" font-size="10.00">+ cavalry_bin_name</text>
<text text-anchor="start" x="290" y="-505.5" font-family="Helvetica,sans-Serif" font-size="10.00">+ cavalry_output_path</text>
<text text-anchor="start" x="290" y="-494.5" font-family="Helvetica,sans-Serif" font-size="10.00">+ model_name</text>
<text text-anchor="start" x="290" y="-483.5" font-family="Helvetica,sans-Serif" font-size="10.00">+ cavalry_info</text>
<text text-anchor="start" x="290" y="-472.5" font-family="Helvetica,sans-Serif" font-size="10.00">+ cavalry_version</text>
<text text-anchor="start" x="290" y="-461.5" font-family="Helvetica,sans-Serif" font-size="10.00">+ ades_output_path</text>
<text text-anchor="start" x="290" y="-450.5" font-family="Helvetica,sans-Serif" font-size="10.00">+ hashid</text>
<text text-anchor="start" x="290" y="-439.5" font-family="Helvetica,sans-Serif" font-size="10.00">+ ades_cmd_file_path</text>
<text text-anchor="start" x="290" y="-428.5" font-family="Helvetica,sans-Serif" font-size="10.00">+ cavalry_option</text>
<text text-anchor="start" x="290" y="-417.5" font-family="Helvetica,sans-Serif" font-size="10.00">+ input_node_params</text>
<polyline fill="none" stroke="black" points="282,-410.5 437,-410.5 "/>
<text text-anchor="start" x="290" y="-398.5" font-family="Helvetica,sans-Serif" font-size="10.00">+ __init__()</text>
<text text-anchor="start" x="290" y="-387.5" font-family="Helvetica,sans-Serif" font-size="10.00">+ set_model_input_nodes()</text>
<text text-anchor="start" x="290" y="-376.5" font-family="Helvetica,sans-Serif" font-size="10.00">+ set_vas_output_path()</text>
<text text-anchor="start" x="290" y="-365.5" font-family="Helvetica,sans-Serif" font-size="10.00">+ set_cvb_json_file()</text>
<text text-anchor="start" x="290" y="-354.5" font-family="Helvetica,sans-Serif" font-size="10.00">+ set_cavalry_output_path()</text>
<text text-anchor="start" x="290" y="-343.5" font-family="Helvetica,sans-Serif" font-size="10.00">+ set_cavalry_bin_name()</text>
<text text-anchor="start" x="290" y="-332.5" font-family="Helvetica,sans-Serif" font-size="10.00">+ set_model_name()</text>
<text text-anchor="start" x="290" y="-321.5" font-family="Helvetica,sans-Serif" font-size="10.00">+ set_ades_output_path()</text>
<text text-anchor="start" x="290" y="-310.5" font-family="Helvetica,sans-Serif" font-size="10.00">+ generate_commands()</text>
<text text-anchor="start" x="290" y="-299.5" font-family="Helvetica,sans-Serif" font-size="10.00">+ run()</text>
</a>
</g>
</g>
<!-- Node1&#45;&gt;Node7 -->
<g id="edge6" class="edge">
<title>Node1&#45;&gt;Node7</title>
<path fill="none" stroke="midnightblue" d="M475.43,-613.83C465.27,-603.22 455.32,-592.1 446.5,-581 443.33,-577.01 440.18,-572.89 437.08,-568.68"/>
<polygon fill="none" stroke="midnightblue" points="473.01,-616.36 482.5,-621.08 478.03,-611.47 473.01,-616.36"/>
</g>
<!-- Node8 -->
<g id="node8" class="node">
<title>Node8</title>
<g id="a_node8"><a xlink:href="../../d5/d47/classcflite_1_1eazyaigen_1_1layercompare_1_1LayerCompare.html" target="_top" xlink:title=" ">
<polygon fill="none" stroke="black" points="455.5,-314.5 455.5,-558.5 647.5,-558.5 647.5,-314.5 455.5,-314.5"/>
<text text-anchor="middle" x="551.5" y="-546.5" font-family="Helvetica,sans-Serif" font-size="10.00">LayerCompare</text>
<polyline fill="none" stroke="black" points="455.5,-539.5 647.5,-539.5 "/>
<text text-anchor="start" x="463.5" y="-527.5" font-family="Helvetica,sans-Serif" font-size="10.00">+ logger</text>
<text text-anchor="start" x="463.5" y="-516.5" font-family="Helvetica,sans-Serif" font-size="10.00">+ model_name</text>
<text text-anchor="start" x="463.5" y="-505.5" font-family="Helvetica,sans-Serif" font-size="10.00">+ model_path</text>
<text text-anchor="start" x="463.5" y="-494.5" font-family="Helvetica,sans-Serif" font-size="10.00">+ caffe_prototxt_model_path</text>
<text text-anchor="start" x="463.5" y="-483.5" font-family="Helvetica,sans-Serif" font-size="10.00">+ parser_output_path</text>
<text text-anchor="start" x="463.5" y="-472.5" font-family="Helvetica,sans-Serif" font-size="10.00">+ input_node_params</text>
<text text-anchor="start" x="463.5" y="-461.5" font-family="Helvetica,sans-Serif" font-size="10.00">+ layer_compare_output_path</text>
<text text-anchor="start" x="463.5" y="-450.5" font-family="Helvetica,sans-Serif" font-size="10.00">+ ambapb_file_path</text>
<polyline fill="none" stroke="black" points="455.5,-443.5 647.5,-443.5 "/>
<text text-anchor="start" x="463.5" y="-431.5" font-family="Helvetica,sans-Serif" font-size="10.00">+ __init__()</text>
<text text-anchor="start" x="463.5" y="-420.5" font-family="Helvetica,sans-Serif" font-size="10.00">+ set_model_name()</text>
<text text-anchor="start" x="463.5" y="-409.5" font-family="Helvetica,sans-Serif" font-size="10.00">+ set_model_path()</text>
<text text-anchor="start" x="463.5" y="-398.5" font-family="Helvetica,sans-Serif" font-size="10.00">+ set_caffe_prototxt</text>
<text text-anchor="start" x="463.5" y="-387.5" font-family="Helvetica,sans-Serif" font-size="10.00">_model_path()</text>
<text text-anchor="start" x="463.5" y="-376.5" font-family="Helvetica,sans-Serif" font-size="10.00">+ set_parser_output_path()</text>
<text text-anchor="start" x="463.5" y="-365.5" font-family="Helvetica,sans-Serif" font-size="10.00">+ set_ambapb_file_path()</text>
<text text-anchor="start" x="463.5" y="-354.5" font-family="Helvetica,sans-Serif" font-size="10.00">+ set_layer_compare_output_path()</text>
<text text-anchor="start" x="463.5" y="-343.5" font-family="Helvetica,sans-Serif" font-size="10.00">+ set_input_node_params()</text>
<text text-anchor="start" x="463.5" y="-332.5" font-family="Helvetica,sans-Serif" font-size="10.00">+ generate_commands()</text>
<text text-anchor="start" x="463.5" y="-321.5" font-family="Helvetica,sans-Serif" font-size="10.00">+ run()</text>
</a>
</g>
</g>
<!-- Node1&#45;&gt;Node8 -->
<g id="edge7" class="edge">
<title>Node1&#45;&gt;Node8</title>
<path fill="none" stroke="midnightblue" d="M551.5,-606.88C551.5,-591.62 551.5,-575.24 551.5,-558.9"/>
<polygon fill="none" stroke="midnightblue" points="548,-607.25 551.5,-617.25 555,-607.25 548,-607.25"/>
</g>
<!-- Node9 -->
<g id="node9" class="node">
<title>Node9</title>
<g id="a_node9"><a xlink:href="../../db/deb/classcflite_1_1eazyaigen_1_1theoryperf_1_1TheoryPerf.html" target="_top" xlink:title=" ">
<polygon fill="none" stroke="black" points="666,-386 666,-487 803,-487 803,-386 666,-386"/>
<text text-anchor="middle" x="734.5" y="-475" font-family="Helvetica,sans-Serif" font-size="10.00">TheoryPerf</text>
<polyline fill="none" stroke="black" points="666,-468 803,-468 "/>
<text text-anchor="start" x="674" y="-456" font-family="Helvetica,sans-Serif" font-size="10.00">+ logger</text>
<text text-anchor="start" x="674" y="-445" font-family="Helvetica,sans-Serif" font-size="10.00">+ clock_dict</text>
<text text-anchor="start" x="674" y="-434" font-family="Helvetica,sans-Serif" font-size="10.00">+ vas_output_path</text>
<polyline fill="none" stroke="black" points="666,-427 803,-427 "/>
<text text-anchor="start" x="674" y="-415" font-family="Helvetica,sans-Serif" font-size="10.00">+ __init__()</text>
<text text-anchor="start" x="674" y="-404" font-family="Helvetica,sans-Serif" font-size="10.00">+ set_vas_output_path()</text>
<text text-anchor="start" x="674" y="-393" font-family="Helvetica,sans-Serif" font-size="10.00">+ run()</text>
</a>
</g>
</g>
<!-- Node1&#45;&gt;Node9 -->
<g id="edge8" class="edge">
<title>Node1&#45;&gt;Node9</title>
<path fill="none" stroke="midnightblue" d="M627.83,-614.44C638.01,-603.71 647.88,-592.39 656.5,-581 678.48,-551.94 698.05,-515.9 712.09,-487.21"/>
<polygon fill="none" stroke="midnightblue" points="625.18,-612.14 620.75,-621.76 630.22,-617 625.18,-612.14"/>
</g>
<!-- Node10 -->
<g id="node10" class="node">
<title>Node10</title>
<g id="a_node10"><a xlink:href="../../d9/d70/classcflite_1_1eazyaigen_1_1vas_1_1VAS.html" target="_top" xlink:title=" ">
<polygon fill="none" stroke="black" points="821.5,-347.5 821.5,-525.5 971.5,-525.5 971.5,-347.5 821.5,-347.5"/>
<text text-anchor="middle" x="896.5" y="-513.5" font-family="Helvetica,sans-Serif" font-size="10.00">VAS</text>
<polyline fill="none" stroke="black" points="821.5,-506.5 971.5,-506.5 "/>
<text text-anchor="start" x="829.5" y="-494.5" font-family="Helvetica,sans-Serif" font-size="10.00">+ logger</text>
<text text-anchor="start" x="829.5" y="-483.5" font-family="Helvetica,sans-Serif" font-size="10.00">+ src_parser_output_path</text>
<text text-anchor="start" x="829.5" y="-472.5" font-family="Helvetica,sans-Serif" font-size="10.00">+ parser_platform</text>
<text text-anchor="start" x="829.5" y="-461.5" font-family="Helvetica,sans-Serif" font-size="10.00">+ model_name</text>
<text text-anchor="start" x="829.5" y="-450.5" font-family="Helvetica,sans-Serif" font-size="10.00">+ vas_output_path</text>
<text text-anchor="start" x="829.5" y="-439.5" font-family="Helvetica,sans-Serif" font-size="10.00">+ extra_option</text>
<text text-anchor="start" x="829.5" y="-428.5" font-family="Helvetica,sans-Serif" font-size="10.00">+ input_node_params</text>
<polyline fill="none" stroke="black" points="821.5,-421.5 971.5,-421.5 "/>
<text text-anchor="start" x="829.5" y="-409.5" font-family="Helvetica,sans-Serif" font-size="10.00">+ __init__()</text>
<text text-anchor="start" x="829.5" y="-398.5" font-family="Helvetica,sans-Serif" font-size="10.00">+ set_model_name()</text>
<text text-anchor="start" x="829.5" y="-387.5" font-family="Helvetica,sans-Serif" font-size="10.00">+ set_parser_output_path()</text>
<text text-anchor="start" x="829.5" y="-376.5" font-family="Helvetica,sans-Serif" font-size="10.00">+ set_vas_output_path()</text>
<text text-anchor="start" x="829.5" y="-365.5" font-family="Helvetica,sans-Serif" font-size="10.00">+ generate_commands()</text>
<text text-anchor="start" x="829.5" y="-354.5" font-family="Helvetica,sans-Serif" font-size="10.00">+ run()</text>
</a>
</g>
</g>
<!-- Node1&#45;&gt;Node10 -->
<g id="edge9" class="edge">
<title>Node1&#45;&gt;Node10</title>
<path fill="none" stroke="midnightblue" d="M630.57,-667.06C686.43,-652.2 760.33,-625.63 812.5,-581 830.27,-565.8 845.2,-545.85 857.32,-525.68"/>
<polygon fill="none" stroke="midnightblue" points="629.52,-663.71 620.72,-669.61 631.27,-670.49 629.52,-663.71"/>
</g>
<!-- Node2 -->
<g id="node2" class="node">
<title>Node2</title>
<g id="a_node2"><a xlink:title=" ">
<polygon fill="none" stroke="#bfbfbf" points="477,-788.5 477,-845.5 544,-845.5 544,-788.5 477,-788.5"/>
<text text-anchor="middle" x="510.5" y="-833.5" font-family="Helvetica,sans-Serif" font-size="10.00">metaclass</text>
<polyline fill="none" stroke="#bfbfbf" points="477,-826.5 544,-826.5 "/>
<text text-anchor="middle" x="510.5" y="-814.5" font-family="Helvetica,sans-Serif" font-size="10.00"> </text>
<polyline fill="none" stroke="#bfbfbf" points="477,-807.5 544,-807.5 "/>
<text text-anchor="middle" x="510.5" y="-795.5" font-family="Helvetica,sans-Serif" font-size="10.00"> </text>
</a>
</g>
</g>
<!-- Node2&#45;&gt;Node1 -->
<g id="edge1" class="edge">
<title>Node2&#45;&gt;Node1</title>
<path fill="none" stroke="midnightblue" d="M522.21,-778.72C524.89,-770.19 527.82,-760.87 530.75,-751.53"/>
<polygon fill="none" stroke="midnightblue" points="518.85,-777.73 519.2,-788.32 525.53,-779.83 518.85,-777.73"/>
</g>
<!-- Node3 -->
<g id="node3" class="node">
<title>Node3</title>
<g id="a_node3"><a xlink:title=" ">
<polygon fill="none" stroke="#bfbfbf" points="562.5,-788.5 562.5,-845.5 624.5,-845.5 624.5,-788.5 562.5,-788.5"/>
<text text-anchor="middle" x="593.5" y="-833.5" font-family="Helvetica,sans-Serif" font-size="10.00">ABCMeta</text>
<polyline fill="none" stroke="#bfbfbf" points="562.5,-826.5 624.5,-826.5 "/>
<text text-anchor="middle" x="593.5" y="-814.5" font-family="Helvetica,sans-Serif" font-size="10.00"> </text>
<polyline fill="none" stroke="#bfbfbf" points="562.5,-807.5 624.5,-807.5 "/>
<text text-anchor="middle" x="593.5" y="-795.5" font-family="Helvetica,sans-Serif" font-size="10.00"> </text>
</a>
</g>
</g>
<!-- Node3&#45;&gt;Node1 -->
<g id="edge2" class="edge">
<title>Node3&#45;&gt;Node1</title>
<path fill="none" stroke="midnightblue" d="M581.5,-778.72C578.76,-770.19 575.76,-760.87 572.75,-751.53"/>
<polygon fill="none" stroke="midnightblue" points="578.2,-779.88 584.59,-788.32 584.86,-777.73 578.2,-779.88"/>
</g>
<!-- Node5 -->
<g id="node5" class="node">
<title>Node5</title>
<g id="a_node5"><a xlink:href="../../d5/d76/classcflite_1_1eazyaigen_1_1cvbackend_1_1CVFlowBackend.html" target="_top" xlink:title=" ">
<polygon fill="none" stroke="black" points="0,-0.5 0,-255.5 179,-255.5 179,-0.5 0,-0.5"/>
<text text-anchor="middle" x="89.5" y="-243.5" font-family="Helvetica,sans-Serif" font-size="10.00">CVFlowBackend</text>
<polyline fill="none" stroke="black" points="0,-236.5 179,-236.5 "/>
<text text-anchor="start" x="8" y="-224.5" font-family="Helvetica,sans-Serif" font-size="10.00">+ logger</text>
<text text-anchor="start" x="8" y="-213.5" font-family="Helvetica,sans-Serif" font-size="10.00">+ parser_output_path</text>
<text text-anchor="start" x="8" y="-202.5" font-family="Helvetica,sans-Serif" font-size="10.00">+ parser_json_file</text>
<text text-anchor="start" x="8" y="-191.5" font-family="Helvetica,sans-Serif" font-size="10.00">+ ambapb_file_path</text>
<text text-anchor="start" x="8" y="-180.5" font-family="Helvetica,sans-Serif" font-size="10.00">+ vas_option</text>
<text text-anchor="start" x="8" y="-169.5" font-family="Helvetica,sans-Serif" font-size="10.00">+ vas_output_path</text>
<text text-anchor="start" x="8" y="-158.5" font-family="Helvetica,sans-Serif" font-size="10.00">+ prepare_output_path</text>
<text text-anchor="start" x="8" y="-147.5" font-family="Helvetica,sans-Serif" font-size="10.00">+ parse_output_path</text>
<text text-anchor="start" x="8" y="-136.5" font-family="Helvetica,sans-Serif" font-size="10.00">+ network_metagraph_json_path</text>
<text text-anchor="start" x="8" y="-125.5" font-family="Helvetica,sans-Serif" font-size="10.00">+ model_name</text>
<text text-anchor="start" x="8" y="-114.5" font-family="Helvetica,sans-Serif" font-size="10.00">+ output_path</text>
<polyline fill="none" stroke="black" points="0,-107.5 179,-107.5 "/>
<text text-anchor="start" x="8" y="-95.5" font-family="Helvetica,sans-Serif" font-size="10.00">+ __init__()</text>
<text text-anchor="start" x="8" y="-84.5" font-family="Helvetica,sans-Serif" font-size="10.00">+ set_input_node_params()</text>
<text text-anchor="start" x="8" y="-73.5" font-family="Helvetica,sans-Serif" font-size="10.00">+ set_output_node_params()</text>
<text text-anchor="start" x="8" y="-62.5" font-family="Helvetica,sans-Serif" font-size="10.00">+ generate_meta_graph()</text>
<text text-anchor="start" x="8" y="-51.5" font-family="Helvetica,sans-Serif" font-size="10.00">+ generate_commands()</text>
<text text-anchor="start" x="8" y="-40.5" font-family="Helvetica,sans-Serif" font-size="10.00">+ get_output_path()</text>
<text text-anchor="start" x="8" y="-29.5" font-family="Helvetica,sans-Serif" font-size="10.00">+ get_cvt_info()</text>
<text text-anchor="start" x="8" y="-18.5" font-family="Helvetica,sans-Serif" font-size="10.00">+ run()</text>
<text text-anchor="start" x="8" y="-7.5" font-family="Helvetica,sans-Serif" font-size="10.00">+ run_with_dummy_input()</text>
</a>
</g>
</g>
<!-- Node4&#45;&gt;Node5 -->
<g id="edge4" class="edge">
<title>Node4&#45;&gt;Node5</title>
<path fill="none" stroke="midnightblue" d="M143.16,-309.75C137.85,-291.85 132.39,-273.45 127.07,-255.54"/>
<polygon fill="none" stroke="midnightblue" points="139.9,-311.04 146.1,-319.63 146.61,-309.04 139.9,-311.04"/>
</g>
<!-- Node6 -->
<g id="node6" class="node">
<title>Node6</title>
<g id="a_node6"><a xlink:href="../../d0/dd9/classcflite_1_1eazyaigen_1_1parser_1_1Parser.html" target="_top" xlink:title=" ">
<polygon fill="none" stroke="black" points="197.5,-72 197.5,-184 347.5,-184 347.5,-72 197.5,-72"/>
<text text-anchor="middle" x="272.5" y="-172" font-family="Helvetica,sans-Serif" font-size="10.00">Parser</text>
<polyline fill="none" stroke="black" points="197.5,-165 347.5,-165 "/>
<text text-anchor="start" x="205.5" y="-153" font-family="Helvetica,sans-Serif" font-size="10.00">+ model_name</text>
<text text-anchor="start" x="205.5" y="-142" font-family="Helvetica,sans-Serif" font-size="10.00">+ output_path</text>
<text text-anchor="start" x="205.5" y="-131" font-family="Helvetica,sans-Serif" font-size="10.00">+ parser_json_file</text>
<polyline fill="none" stroke="black" points="197.5,-124 347.5,-124 "/>
<text text-anchor="start" x="205.5" y="-112" font-family="Helvetica,sans-Serif" font-size="10.00">+ check_params()</text>
<text text-anchor="start" x="205.5" y="-101" font-family="Helvetica,sans-Serif" font-size="10.00">+ generate_commands()</text>
<text text-anchor="start" x="205.5" y="-90" font-family="Helvetica,sans-Serif" font-size="10.00">+ run()</text>
<text text-anchor="start" x="205.5" y="-79" font-family="Helvetica,sans-Serif" font-size="10.00">+ run_with_dummy_input()</text>
</a>
</g>
</g>
<!-- Node4&#45;&gt;Node6 -->
<g id="edge5" class="edge">
<title>Node4&#45;&gt;Node6</title>
<path fill="none" stroke="midnightblue" d="M218.16,-310.04C231.31,-266.22 245.4,-219.27 255.94,-184.17"/>
<polygon fill="none" stroke="midnightblue" points="214.8,-309.04 215.28,-319.63 221.51,-311.05 214.8,-309.04"/>
</g>
</g>
</svg>
